<!-- Generated by IcoMoon.io -->
<svg version="1.1" xmlns="http://www.w3.org/2000/svg" width="32" height="32" viewBox="0 0 32 32">
<path d="M30.006 1.087v4.969h-9.050c-0.306-1.769-1.788-3.063-3.525-3.063-1.787 0-3.219 1.338-3.525 3.063h-2.719c-0.294-1.769-1.731-3.063-3.525-3.063-1.787 0-3.219 1.338-3.525 3.063h-2.144v-4.969h-1.306v30.625h1.306v-4.969h2.144c0.306 1.769 1.787 3.063 3.525 3.063 1.787 0 3.219-1.337 3.525-3.063h1.75c0.306 1.769 1.787 3.063 3.525 3.063 1.731 0 3.156-1.337 3.506-3.063h10.050v4.969h1.294v-30.625h-1.306zM17.431 4.425c1.306 0 2.281 1.019 2.281 2.381 0 1.294-1.044 2.381-2.281 2.381s-2.281-1.088-2.281-2.381 1.044-2.381 2.281-2.381zM7.662 4.425c1.306 0 2.281 1.019 2.281 2.381 0 1.294-1.044 2.381-2.281 2.381s-2.281-1.088-2.281-2.381 1.037-2.381 2.281-2.381zM4.138 7.419c0.306 1.769 1.788 3.062 3.525 3.062 1.794 0 3.231-1.294 3.525-3.063h2.725c0.306 1.769 1.787 3.063 3.525 3.063 1.794 0 3.231-1.294 3.525-3.063h9.050v8.3h-1.756c-0.306-1.769-1.788-3.063-3.525-3.063-1.794 0-3.231 1.294-3.525 3.063h-4.156c-0.294-1.769-1.731-3.063-3.525-3.063s-3.231 1.294-3.525 3.063h-8.006v-8.3h2.144zM27.012 16.4c0 1.294-1.044 2.381-2.281 2.381s-2.281-1.087-2.281-2.381 1.044-2.381 2.281-2.381c1.306 0 2.281 1.088 2.281 2.381zM15.806 16.4c0 1.294-1.044 2.381-2.281 2.381s-2.281-1.087-2.281-2.381 1.044-2.381 2.281-2.381 2.281 1.088 2.281 2.381zM7.662 28.444c-1.237 0-2.281-1.087-2.281-2.381s1.044-2.381 2.281-2.381c1.306 0 2.281 1.087 2.281 2.381-0.006 1.294-1.044 2.381-2.281 2.381zM16.456 28.444c-1.238 0-2.281-1.087-2.281-2.381s1.044-2.381 2.281-2.381 2.281 1.087 2.281 2.381c0 1.294-1.044 2.381-2.281 2.381zM19.981 25.381c-0.294-1.769-1.731-3.063-3.525-3.063-1.787 0-3.219 1.337-3.525 3.063h-1.744c-0.294-1.769-1.731-3.063-3.525-3.063-1.787 0-3.219 1.337-3.525 3.063h-2.144v-8.3h8.006c0.306 1.769 1.787 3.063 3.525 3.063s3.219-1.294 3.525-3.063h4.156c0.306 1.769 1.788 3.063 3.525 3.063s3.219-1.294 3.525-3.063h1.756v8.3h-10.031z"></path>
</svg>
