<!-- Generated by IcoMoon.io -->
<svg version="1.1" xmlns="http://www.w3.org/2000/svg" width="32" height="32" viewBox="0 0 32 32">
<path d="M25.194 2.432h-18.387c-0.312 0-0.565 0.253-0.565 0.565v26.806c0 0.312 0.253 0.565 0.565 0.565h18.387c0.312 0 0.565-0.253 0.565-0.565v-26.806c0-0.312-0.253-0.565-0.565-0.565zM24.629 23.877h-0.532c-0.312 0-0.565 0.253-0.565 0.565s0.253 0.565 0.565 0.565h0.532v4.232h-17.258v-4.232h1.030v0.075c0 0.851 0.692 1.543 1.543 1.543s1.543-0.692 1.543-1.543v-0.075h0.951v0.075c0 0.851 0.692 1.543 1.543 1.543s1.543-0.692 1.543-1.543v-0.075h4.705c0.312 0 0.565-0.253 0.565-0.565s-0.253-0.565-0.565-0.565h-4.705v-0.075c0-0.851-0.692-1.543-1.543-1.543s-1.543 0.692-1.543 1.543v0.075h-0.951v-0.075c0-0.851-0.692-1.543-1.543-1.543s-1.543 0.692-1.543 1.543v0.075h-1.030v-4.232h1.030v0.076c0 0.851 0.692 1.543 1.543 1.543s1.543-0.692 1.543-1.543v-0.076h0.951v0.076c0 0.851 0.692 1.543 1.543 1.543s1.543-0.692 1.543-1.543v-0.076h0.951v0.076c0 0.851 0.692 1.543 1.543 1.543s1.543-0.692 1.543-1.543v-0.076h0.951v0.076c0 0.851 0.692 1.543 1.543 1.543s1.543-0.692 1.543-1.543v-0.076h1.030v4.233zM9.531 24.44v-0.638c0-0.228 0.186-0.414 0.414-0.414s0.414 0.186 0.414 0.414v1.28c0 0.228-0.186 0.414-0.414 0.414s-0.414-0.186-0.414-0.414v-0.638c0-0.001 0-0.001 0-0.002s-0-0.001-0-0.002zM13.568 25.082v-1.28c0-0.228 0.186-0.414 0.414-0.414s0.414 0.186 0.414 0.414v0.639c0 0 0 0 0 0.001s0 0 0 0.001v0.639c0 0.228-0.186 0.414-0.414 0.414s-0.414-0.186-0.414-0.414zM9.531 19.72v-1.28c0-0.228 0.186-0.414 0.414-0.414s0.414 0.186 0.414 0.414v1.28c0 0.228-0.186 0.414-0.414 0.414s-0.414-0.186-0.414-0.414zM13.568 19.72v-1.28c0-0.228 0.186-0.414 0.414-0.414s0.414 0.186 0.414 0.414v1.28c0 0.228-0.186 0.414-0.414 0.414s-0.414-0.186-0.414-0.414zM17.604 19.72v-1.28c0-0.228 0.186-0.414 0.414-0.414s0.414 0.186 0.414 0.414v1.28c0 0.228-0.186 0.414-0.414 0.414s-0.414-0.186-0.414-0.414zM21.642 19.72v-1.28c0-0.228 0.186-0.414 0.414-0.414s0.414 0.186 0.414 0.414v1.28c0 0.228-0.186 0.414-0.414 0.414s-0.414-0.186-0.414-0.414zM24.629 18.516h-1.030v-0.075c0-0.851-0.692-1.543-1.543-1.543s-1.543 0.692-1.543 1.543v0.075h-0.951v-0.075c0-0.851-0.692-1.543-1.543-1.543s-1.543 0.692-1.543 1.543v0.075h-0.951v-0.075c0-0.851-0.692-1.543-1.543-1.543s-1.543 0.692-1.543 1.543v0.075h-0.951v-0.075c0-0.851-0.692-1.543-1.543-1.543s-1.543 0.692-1.543 1.543v0.075h-1.030v-4.232h5.067v0.075c0 0.851 0.692 1.543 1.543 1.543s1.543-0.692 1.543-1.543v-0.075h0.951v0.075c0 0.851 0.692 1.543 1.543 1.543s1.543-0.692 1.543-1.543v-0.075h0.951v0.075c0 0.851 0.692 1.543 1.543 1.543s1.543-0.692 1.543-1.543v-0.075h1.030v4.232zM13.568 14.359v-1.28c0-0.228 0.186-0.414 0.414-0.414s0.414 0.186 0.414 0.414v1.28c0 0.228-0.186 0.414-0.414 0.414s-0.414-0.186-0.414-0.414zM17.604 14.359v-1.28c0-0.228 0.186-0.414 0.414-0.414s0.414 0.186 0.414 0.414v1.28c0 0.228-0.186 0.414-0.414 0.414s-0.414-0.186-0.414-0.414zM21.642 14.359v-1.28c0-0.228 0.186-0.414 0.414-0.414s0.414 0.186 0.414 0.414v1.28c0 0.228-0.186 0.414-0.414 0.414s-0.414-0.186-0.414-0.414zM24.629 13.155h-1.030v-0.075c0-0.851-0.692-1.543-1.543-1.543s-1.543 0.692-1.543 1.543v0.075h-0.951v-0.075c0-0.851-0.692-1.543-1.543-1.543s-1.543 0.692-1.543 1.543v0.075h-0.951v-0.075c0-0.851-0.692-1.543-1.543-1.543s-1.543 0.692-1.543 1.543v0.075h-5.067v-4.232h9.104v0.075c-0 0.851 0.692 1.543 1.543 1.543s1.543-0.692 1.543-1.543v-0.075h0.951v0.075c0 0.851 0.692 1.543 1.543 1.543s1.543-0.692 1.543-1.543v-0.075h1.030v4.232zM17.604 8.998v-1.28c0-0.228 0.186-0.414 0.414-0.414s0.414 0.186 0.414 0.414v1.28c0 0.228-0.186 0.414-0.414 0.414s-0.414-0.186-0.414-0.414zM21.642 8.998v-1.28c0-0.228 0.186-0.414 0.414-0.414s0.414 0.186 0.414 0.414v1.28c0 0.228-0.186 0.414-0.414 0.414s-0.414-0.186-0.414-0.414zM24.629 7.793h-1.030v-0.075c0-0.851-0.692-1.543-1.543-1.543s-1.543 0.692-1.543 1.543v0.075h-0.951v-0.075c0-0.851-0.692-1.543-1.543-1.543s-1.543 0.692-1.543 1.543v0.075h-9.104v-4.232h17.258v4.232zM25.195 0.4h-18.389c-1.431 0-2.596 1.165-2.596 2.596v26.808c0 1.431 1.165 2.596 2.596 2.596h18.389c1.431 0 2.596-1.165 2.596-2.596v-26.808c0-1.431-1.164-2.596-2.596-2.596zM25.195 31.271h-18.389c-0.809 0-1.467-0.658-1.467-1.467v-26.808c0-0.809 0.658-1.467 1.467-1.467h18.389c0.809 0 1.467 0.658 1.467 1.467v26.808h0c0 0.809-0.658 1.467-1.467 1.467zM22.54 23.975c0.006 0.004 0.009 0.006-0.003-0.003s-0.009-0.006-0.002-0.001c-0.409-0.267-0.961 0.097-0.865 0.581 0.047 0.236 0.245 0.42 0.484 0.45 0.249 0.032 0.495-0.113 0.591-0.344 0.103-0.246 0.013-0.532-0.204-0.683z"></path>
</svg>
