<!-- Generated by IcoMoon.io -->
<svg version="1.1" xmlns="http://www.w3.org/2000/svg" width="37" height="32" viewBox="0 0 37 32">
<path d="M33.951 2.966c0.156-0.156 0.156-0.39 0-0.546s-0.39-0.156-0.546 0l-1.405 1.327-1.327-1.327c-0.156-0.156-0.39-0.156-0.546 0s-0.156 0.39 0 0.546l1.951 1.951 1.873-1.951z"></path>
<path d="M24.195 13.424c1.171 0 2.185-0.937 2.185-2.185s-0.937-2.185-2.185-2.185-2.185 0.937-2.185 2.185 1.015 2.185 2.185 2.185zM24.195 9.912c0.78 0 1.405 0.624 1.405 1.405s-0.624 1.327-1.405 1.327-1.405-0.624-1.405-1.405 0.624-1.327 1.405-1.327z"></path>
<path d="M34.654 0h-20.995c-0.234 0-0.39 0.156-0.39 0.39s0.156 0.39 0.39 0.39h20.995c1.093 0 1.951 0.859 1.951 1.951v3.668h-35.824v-3.668c0-1.093 0.859-1.951 1.951-1.951h4.449c0.234 0 0.39-0.156 0.39-0.39s-0.156-0.39-0.312-0.39h-4.527c-1.483 0-2.732 1.249-2.732 2.732v16.39c0 0.078 0 0.078 0 0.156 0 0 0 0.078 0 0.078v4.761c0 0.078 0 0.156 0 0.234s0 0.078 0 0.156v4.761c0 1.483 1.249 2.732 2.732 2.732h23.961c0.234 0 0.39-0.156 0.39-0.39s-0.156-0.39-0.39-0.39h-23.961c-1.093 0-1.951-0.859-1.951-1.951v-3.278c0.468 0.546 1.171 0.859 1.951 0.859h5.854c0.234 0 0.39-0.156 0.39-0.39s-0.156-0.39-0.39-0.39h-5.854c-1.093 0-1.951-0.859-1.951-1.951v-3.044c0.468 0.468 1.171 0.78 1.951 0.78h19.59c0 0 0 0 0 0h12.332c0.781 0 1.483-0.312 1.951-0.859v3.044c0 1.093-0.859 1.951-1.951 1.951h-21.073c-0.234 0-0.39 0.156-0.39 0.39s0.156 0.39 0.39 0.39h21.073c0.781 0 1.483-0.312 1.951-0.859v3.278c0 1.093-0.859 1.951-1.951 1.951h-2.576c-0.234 0-0.39 0.156-0.39 0.39s0.156 0.39 0.39 0.39h2.576c1.483 0 2.732-1.249 2.732-2.732v-4.761c0-0.078 0-0.078 0-0.156s0-0.156 0-0.234v-4.761c0 0 0-0.078 0-0.078 0-0.078 0-0.078 0-0.156v-16.312c0-1.483-1.171-2.732-2.732-2.732zM34.654 21.073h-12.644c0 0 0 0 0 0h-1.015l5.463-5.229 3.512 2.966 4.605-5.698 2.185 2.341v3.668c-0.156 1.015-1.015 1.951-2.107 1.951zM36.605 14.283l-2.185-2.419-4.683 5.776-3.434-2.888-6.556 6.244h-17.015c-1.093 0.078-1.951-0.78-1.951-1.873v-11.941h35.824v7.102z"></path>
</svg>
