<!-- Generated by IcoMoon.io -->
<svg version="1.1" xmlns="http://www.w3.org/2000/svg" width="50" height="32" viewBox="0 0 50 32">
<path d="M35.27 5.078h-0.487c0 0 0 0-0.070 0-0.696-4.243-3.478-5.078-8.139-5.078h-3.061c-4.661 0-7.443 0.835-8.139 5.078 0 0 0 0-0.070 0h-0.487c-4.452 0-5.774 1.391-5.774 5.774v10.226c0 4.452 1.322 5.774 5.774 5.774h0.487c0 0 0 0 0.070 0 0.696 4.243 3.409 5.078 8.139 5.078h3.061c4.661 0 7.443-0.835 8.139-5.078 0 0 0 0 0.070 0h0.487c4.452 0 5.774-1.391 5.774-5.774v-10.157c0-4.452-1.322-5.843-5.774-5.843zM14.817 25.53c-3.687 0-4.383-0.696-4.383-4.383v-10.226c0-3.687 0.696-4.383 4.383-4.383h0.417c0 0.139 0 0.209 0 0.348 0 0 0 0 0 0 0 0.209 0 0.417 0 0.626 0 0.070 0 0.070 0 0.139 0 0.209 0 0.487 0 0.696v15.304c0 0.278 0 0.487 0 0.696 0 0.070 0 0.139 0 0.139 0 0.209 0 0.417 0 0.626 0 0 0 0.070 0 0.070 0 0.139 0 0.209 0 0.348h-0.417zM26.574 30.609h-3.061c-4.939 0-6.4-0.974-6.817-4.522-0.070-0.626-0.139-1.391-0.139-2.435v-15.304c0-1.043 0.070-1.809 0.139-2.435 0.417-3.548 1.878-4.522 6.817-4.522h3.061c4.939 0 6.4 0.974 6.817 4.522 0 0 0 0 0 0s0 0 0 0c0.070 0.626 0.139 1.391 0.139 2.435v15.304c0 1.043-0.070 1.809-0.139 2.435-0.417 3.548-1.878 4.522-6.817 4.522zM39.652 21.078c0 3.687-0.696 4.383-4.383 4.383h-0.417c0-0.139 0-0.209 0-0.348 0 0 0 0 0 0 0-0.209 0-0.417 0-0.626 0-0.070 0-0.070 0-0.139 0-0.209 0-0.487 0-0.696v-15.304c0-0.278 0-0.487 0-0.696 0-0.070 0-0.139 0-0.139 0-0.209 0-0.417 0-0.626 0-0.070 0-0.070 0-0.070 0-0.070 0-0.209 0-0.278h0.417c3.687 0 4.383 0.696 4.383 4.383v10.157z"></path>
<path d="M46.47 13.148c-0.209-0.209-0.487-0.209-0.626 0-0.070 0.070-0.139 0.209-0.139 0.348 0 0.070 0.070 0.209 0.139 0.278l2.435 2.157-2.435 2.157c-0.070 0.070-0.139 0.209-0.139 0.348s0.070 0.209 0.139 0.348c0.070 0.070 0.139 0.070 0.139 0.139 0.070 0 0.139 0.070 0.209 0.070h0.209l3.27-2.922-3.2-2.922z"></path>
<path d="M1.809 16l2.365-2.226c0.070-0.070 0.139-0.209 0.139-0.278 0-0.139 0-0.278-0.139-0.348-0.209-0.209-0.487-0.209-0.626 0l-3.13 2.852 3.2 2.852 0.070 0.070h0.209c0.070 0 0.139 0 0.209-0.070 0.070 0 0.070-0.070 0.139-0.139s0.139-0.209 0.139-0.348c0-0.139-0.070-0.209-0.139-0.348l-2.435-2.017z"></path>
</svg>
