<!-- Generated by IcoMoon.io -->
<svg version="1.1" xmlns="http://www.w3.org/2000/svg" width="32" height="32" viewBox="0 0 32 32">
<path d="M16 32c0 0 0 0 0 0-0.923 0-1.723-0.431-2.338-1.231l-2.338-3.077c-0.123-0.185-0.492-0.369-0.738-0.369h-0.738c-6.215 0-9.846-1.6-9.846-9.846v-7.631c0-6.523 3.323-9.846 9.846-9.846h12.308c6.523 0 9.846 3.323 9.846 9.846v7.692c0 6.523-3.323 9.846-9.846 9.846h-0.738c-0.308 0-0.554 0.123-0.738 0.369l-2.277 3.077c-0.677 0.738-1.477 1.169-2.4 1.169zM9.846 1.231c-5.785 0-8.615 2.831-8.615 8.615v7.692c0 7.323 2.769 8.615 8.615 8.615h0.738c0.615 0 1.354 0.369 1.723 0.862l2.277 3.077c0.738 0.985 1.969 0.985 2.708 0l2.338-3.077c0.431-0.554 1.046-0.862 1.723-0.862h0.8c5.785 0 8.615-2.831 8.615-8.615v-7.692c0-5.785-2.831-8.615-8.615-8.615h-12.308z"></path>
<path d="M23.692 10.462h-15.385c-0.369 0-0.615-0.246-0.615-0.615s0.246-0.615 0.615-0.615h15.385c0.369 0 0.615 0.246 0.615 0.615 0 0.308-0.246 0.615-0.615 0.615z"></path>
<path d="M17.538 18.092h-9.231c-0.369 0-0.615-0.246-0.615-0.615s0.246-0.615 0.615-0.615h9.231c0.369 0 0.615 0.246 0.615 0.615s-0.246 0.615-0.615 0.615z"></path>
</svg>
