<!-- Generated by IcoMoon.io -->
<svg version="1.1" xmlns="http://www.w3.org/2000/svg" width="32" height="32" viewBox="0 0 32 32">
<path d="M25.312 30.75c0 0.176-0.143 0.319-0.319 0.319h-20.618c-0.176 0.015-0.33-0.116-0.345-0.291-0.001-0.009-0.001-0.018-0.001-0.028v-28.22c-0-0.247-0.041-0.491-0.12-0.725h20.518c0.492 0.004 0.888 0.406 0.885 0.898 0 0.002-0 0.005-0 0.007v11.732h1.33v-11.732c0.004-1.228-0.987-2.227-2.215-2.235h-21.889c-0.519-0.153-1.080-0.068-1.53 0.233-0.617 0.439-0.98 1.152-0.971 1.909v4.849c-0.030 0.885 0.663 1.626 1.548 1.656 0.001 0 0.001 0 0.002 0h1.111v21.629c0 0.911 0.739 1.649 1.649 1.649h20.618c0.911 0.015 1.661-0.712 1.676-1.623 0-0.009 0-0.018 0-0.027v-5.667h-1.33v5.667zM2.698 7.791h-1.111c-0.106 0-0.219-0.133-0.219-0.319v-4.855c-0.009-0.315 0.132-0.616 0.379-0.811 0.084-0.058 0.184-0.088 0.286-0.086v0.086h0.279c0.247 0.157 0.394 0.432 0.386 0.725v5.261zM31.77 16.018l-2.068-2.068c-0.259-0.258-0.678-0.258-0.938 0l-10.329 10.329c-0.056 0.058-0.101 0.126-0.133 0.2l-1.723 3.784c-0.149 0.336 0.002 0.729 0.338 0.878 0.172 0.076 0.368 0.076 0.54 0l3.784-1.723c0.074-0.032 0.142-0.077 0.2-0.133l10.329-10.329c0.258-0.259 0.258-0.678 0-0.938zM18.521 27.199l0.592-1.33 0.712 0.712-1.304 0.619zM20.969 25.868l-1.124-1.117 6.977-6.984 1.151 1.131-7.003 6.97zM28.89 17.954l-1.124-1.124 1.47-1.47 1.124 1.124-1.47 1.47zM8.684 5.13h11.972v1.33h-11.972v-1.33zM8.684 9.786h11.972v1.33h-11.972v-1.33zM8.684 14.442h11.972v1.33h-11.972v-1.33zM8.684 19.098h5.321v1.33h-5.321v-1.33zM16 19.098h1.33v1.33h-1.33v-1.33zM19.326 19.098h1.33v1.33h-1.33v-1.33z"></path>
</svg>
