<!-- Generated by IcoMoon.io -->
<svg version="1.1" xmlns="http://www.w3.org/2000/svg" width="32" height="32" viewBox="0 0 32 32">
<path d="M19.219 16.012h-3.319c-4.181 0-4.612 6.15-4.225 6.544 1.044 0.975 3.313 1.656 5.919 1.656s4.75-0.65 5.725-1.563c0.394-0.331 0.075-6.637-4.1-6.637zM22.406 21.738c-0.781 0.719-2.669 1.169-4.813 1.169s-4.031-0.456-4.813-1.169c-0.063-0.194 0.3-4.488 3.188-4.488h3.319c2.856-0.006 3.188 4.288 3.119 4.488zM17.531 15.619c1.95 0 3.581-1.563 3.512-3.513 0-1.95-1.563-3.512-3.512-3.512s-3.512 1.563-3.512 3.512 1.556 3.512 3.512 3.512zM17.531 9.894c1.3 0 2.275 0.975 2.275 2.213s-1.044 2.213-2.275 2.213-2.281-0.975-2.281-2.213 1.044-2.213 2.281-2.213zM27.613 1.106h-20.625c-1.563 0-2.8 1.238-2.8 2.8v5.725h-2.6v1.3h2.6v4.813h-2.6v1.3h2.6v4.813h-2.6v1.3h2.6v5.725c0 1.563 1.237 2.8 2.8 2.8h20.563c1.563 0 2.8-1.238 2.863-2.8v-24.975c0-1.563-1.238-2.8-2.8-2.8zM29.113 28.894c0 0.781-0.65 1.494-1.494 1.494h-20.625c-0.781 0-1.494-0.65-1.494-1.494v-5.725h2.475v-1.3h-2.481v-4.813h2.475v-1.3h-2.475v-4.813h2.475v-1.3h-2.475v-5.737c0-0.781 0.65-1.494 1.494-1.494h20.625c0.781 0 1.494 0.65 1.494 1.494v24.988z"></path>
</svg>
