<!-- Generated by IcoMoon.io -->
<svg version="1.1" xmlns="http://www.w3.org/2000/svg" width="32" height="32" viewBox="0 0 32 32">
<path d="M25.787 0.4h-17.56c-1.398 0-2.536 1.138-2.536 2.536v24.974c0 0.677 0.264 1.313 0.743 1.794 0.479 0.479 1.116 0.742 1.793 0.742h0.97v1.434c0 0.197 0.111 0.377 0.288 0.466s0.387 0.069 0.545-0.049l1.354-1.015 1.354 1.015c0.092 0.069 0.202 0.104 0.312 0.104 0.079 0 0.159-0.018 0.233-0.055 0.176-0.088 0.288-0.268 0.288-0.466v-1.434h12.217c0.288 0 0.521-0.233 0.521-0.521v-29.004c0-0.287-0.233-0.521-0.521-0.521zM6.733 2.936c0-0.641 0.406-1.187 0.974-1.399v23.89c-0.358 0.075-0.689 0.226-0.974 0.435v-22.926zM12.529 30.838l-0.833-0.625c-0.185-0.139-0.44-0.139-0.625 0l-0.833 0.625v-2.408h2.291v2.408zM25.267 27.389h-0.623c-0.288 0-0.521 0.233-0.521 0.521s0.233 0.521 0.521 0.521h0.623v0.974h-11.696v-0.974h7.777c0.288 0 0.521-0.233 0.521-0.521s-0.233-0.521-0.521-0.521h-13.119c-0.288 0-0.521 0.233-0.521 0.521s0.233 0.521 0.521 0.521h0.97v0.974h-0.97c-0.399 0-0.774-0.155-1.057-0.437-0.282-0.283-0.438-0.658-0.438-1.057 0-0.824 0.67-1.495 1.494-1.495h17.039v0.975zM25.267 25.373h-16.518v-23.932h13.677v19.804c0 0.288 0.233 0.521 0.521 0.521h2.321v3.607zM25.267 20.724h-1.8v-4.040h1.8v4.040zM25.267 15.643h-1.8v-4.040h1.8v4.040zM25.267 10.562h-1.8v-4.040h1.8v4.040zM25.267 5.481h-1.8v-4.040h1.8v4.040zM22.754 28.339c0.172 0.118 0.403 0.12 0.578 0.006 0.206-0.134 0.292-0.408 0.196-0.635-0.079-0.191-0.269-0.319-0.476-0.321-0.225-0.003-0.428 0.145-0.499 0.357-0.072 0.217 0.011 0.464 0.2 0.593zM23.528 27.71c0.013 0.031-0.013-0.032 0 0v0z"></path>
</svg>
