<!-- Generated by IcoMoon.io -->
<svg version="1.1" xmlns="http://www.w3.org/2000/svg" width="32" height="32" viewBox="0 0 32 32">
<path d="M16.739 13.716c0.893 0 1.756-0.528 2.428-1.486 0.578-0.824 0.924-1.847 0.924-2.737 0-1.848-1.504-3.352-3.352-3.352s-3.352 1.504-3.352 3.352c0 0.889 0.345 1.912 0.924 2.737 0.673 0.959 1.535 1.486 2.428 1.486zM16.739 7.182c1.274 0 2.311 1.037 2.311 2.311 0 1.639-1.302 3.182-2.311 3.182s-2.311-1.543-2.311-3.182c0-1.274 1.037-2.311 2.311-2.311zM16.739 20.674c2.027 0 3.969-0.749 5.469-2.11 0.109-0.099 0.171-0.239 0.171-0.386v-0.004c0-2.086-1.144-3.993-2.985-4.976-0.193-0.103-0.429-0.074-0.592 0.071-0.44 0.394-1.155 0.863-2.062 0.863s-1.622-0.47-2.062-0.863c-0.163-0.146-0.4-0.174-0.593-0.071-1.841 0.984-2.985 2.89-2.985 4.98 0 0.147 0.062 0.287 0.171 0.386 1.501 1.361 3.443 2.11 5.469 2.11zM14.277 14.29c0.754 0.58 1.598 0.884 2.462 0.884s1.708-0.304 2.462-0.884c1.263 0.8 2.058 2.16 2.131 3.657-1.282 1.088-2.904 1.685-4.593 1.685s-3.311-0.597-4.593-1.685c0.073-1.497 0.868-2.857 2.131-3.657zM23.416 28.277c0.145-0.149 0.194-0.374 0.112-0.567-0.027-0.063-0.064-0.12-0.112-0.169-0.323-0.314-0.89-0.091-0.889 0.369 0.001 0.458 0.564 0.684 0.889 0.368zM25.787 0.4h-17.56c-1.398 0-2.536 1.138-2.536 2.536v24.972c0 0 0 0.001 0 0.001 0 0.677 0.264 1.313 0.743 1.794 0.479 0.479 1.116 0.742 1.793 0.742h0.97v1.434c0 0.197 0.111 0.377 0.288 0.466s0.388 0.069 0.545-0.049l1.354-1.015 1.354 1.015c0.092 0.069 0.202 0.104 0.312 0.104 0.079 0 0.159-0.018 0.233-0.055 0.176-0.088 0.288-0.268 0.288-0.466v-1.434h12.217c0.288 0 0.521-0.233 0.521-0.521v-29.004c0-0.287-0.233-0.521-0.521-0.521zM6.733 2.936c0-0.641 0.406-1.187 0.974-1.399v23.891c-0.358 0.075-0.689 0.226-0.974 0.435v-22.926zM12.529 30.838l-0.833-0.625c-0.185-0.139-0.44-0.139-0.625 0l-0.833 0.625v-2.408h2.291v2.408zM25.267 27.389h-0.574c-0.288 0-0.521 0.233-0.521 0.521s0.233 0.521 0.521 0.521h0.574v0.974h-11.696v-0.974h7.777c0.288 0 0.521-0.233 0.521-0.521s-0.233-0.521-0.521-0.521h-13.119c-0.287 0-0.521 0.233-0.521 0.521s0.233 0.521 0.521 0.521h0.97v0.974h-0.97c-0.399 0-0.774-0.155-1.057-0.437-0.282-0.283-0.438-0.658-0.438-1.057 0-0.824 0.67-1.495 1.495-1.495h17.039v0.975zM25.267 25.373h-16.518v-23.932h16.518v23.932z"></path>
</svg>
