<!-- Generated by IcoMoon.io -->
<svg version="1.1" xmlns="http://www.w3.org/2000/svg" width="32" height="32" viewBox="0 0 32 32">
<path d="M26.88 24.161c-1.831-1.375-2.88-3.475-2.88-5.761v-4.8c0-4.021-2.71-7.42-6.4-8.467l-0-1.133c0-1.323-1.077-2.4-2.4-2.4s-2.4 1.077-2.4 2.4v1.133c-3.69 1.047-6.4 4.447-6.4 8.467v4.8c0 2.286-1.050 4.386-2.88 5.761-0.275 0.207-0.387 0.566-0.278 0.893s0.415 0.547 0.759 0.547h7.281c-0.053 0.262-0.081 0.53-0.081 0.799 0 2.206 1.794 4 4 4s4-1.794 4-4c0-0.27-0.027-0.537-0.081-0.799h7.281c0.344 0 0.65-0.22 0.759-0.547s-0.003-0.686-0.278-0.893zM14.4 4c0-0.441 0.359-0.8 0.8-0.8s0.8 0.359 0.8 0.8v0.837c-0.264-0.024-0.53-0.037-0.8-0.037s-0.536 0.013-0.8 0.037v-0.837zM17.6 26.4c0 1.323-1.077 2.4-2.4 2.4s-2.4-1.077-2.4-2.4c0-0.274 0.047-0.544 0.137-0.799h4.525c0.090 0.255 0.137 0.526 0.137 0.799zM5.987 24.001c0.409-0.495 0.764-1.033 1.054-1.602 0.636-1.246 0.959-2.591 0.959-3.998v-4.8c0-3.97 3.23-7.2 7.2-7.2s7.2 3.23 7.2 7.2v4.8c0 1.408 0.323 2.753 0.959 3.998 0.291 0.569 0.646 1.108 1.055 1.602h-18.427z"></path>
</svg>
