<!-- Generated by IcoMoon.io -->
<svg version="1.1" xmlns="http://www.w3.org/2000/svg" width="32" height="32" viewBox="0 0 32 32">
<path d="M27.275 17.794c0-6.394-5-11.631-11.25-11.7v-1.756h0.975v-1.3h-3.319v1.3h1.037v1.819c-5.7 0.606-10.206 5.613-10.206 11.644 0 4.044 2 7.619 5.050 9.725l-3.425 3.25 0.894 0.944 3.681-3.494c1.55 0.819 3.313 1.281 5.175 1.281 1.887 0 3.669-0.475 5.238-1.313l3.7 3.512 0.894-0.944-3.45-3.275c3.025-2.113 5.006-5.675 5.006-9.694zM15.894 28.2c-5.525 0-10.081-4.681-10.081-10.406s4.488-10.406 10.081-10.406 10.081 4.681 10.081 10.406-4.556 10.406-10.081 10.406zM16.025 8.956h-1.3v9.294l5.006 2.212 0.519-1.238-4.225-1.819zM10.287 2.737c-2.194-2.194-5.756-2.194-7.956 0-2.194 2.194-2.194 5.756 0 7.956 0.125 0.125 0.263 0.244 0.394 0.356l7.9-7.95c-0.106-0.125-0.219-0.244-0.338-0.362zM2.769 9.137c-1.238-1.669-1.094-4.037 0.419-5.55 1.506-1.506 3.856-1.65 5.525-0.438l-5.944 5.987zM29.606 2.737c-2.194-2.194-5.756-2.194-7.956 0-0.119 0.119-0.231 0.244-0.331 0.369l7.894 7.95c0.137-0.113 0.269-0.231 0.394-0.356 2.2-2.206 2.2-5.769 0-7.963zM29.175 9.137l-5.944-5.987c1.669-1.212 4.019-1.069 5.525 0.438 1.512 1.513 1.656 3.881 0.419 5.55z"></path>
</svg>
