<!-- Generated by IcoMoon.io -->
<svg version="1.1" xmlns="http://www.w3.org/2000/svg" width="32" height="32" viewBox="0 0 32 32">
<path d="M18.924 15.382c-0.277-0.277-0.726-0.277-1.003 0l-1.332 1.332c-0.184-0.068-0.382-0.105-0.589-0.105s-0.406 0.037-0.589 0.106l-2.737-2.737c-0.277-0.277-0.726-0.277-1.003 0s-0.277 0.726 0 1.003l2.737 2.737c-0.068 0.183-0.105 0.382-0.105 0.589 0 0.936 0.761 1.697 1.697 1.697s1.697-0.761 1.697-1.697c0-0.207-0.037-0.405-0.105-0.589l1.332-1.332c0.277-0.277 0.277-0.726-0-1.003zM16 18.727c-0.232 0-0.421-0.189-0.421-0.421s0.189-0.421 0.421-0.421c0.232 0 0.421 0.189 0.421 0.421s-0.189 0.421-0.421 0.421zM24.372 7.554l0.803-1.147 3.221 2.256c0.12 0.084 0.262 0.128 0.407 0.128 0.041 0 0.082-0.004 0.123-0.011 0.185-0.033 0.35-0.137 0.458-0.292 1.626-2.322 1.059-5.534-1.262-7.16s-5.534-1.060-7.16 1.262c-0.225 0.321-0.147 0.763 0.174 0.988l2.877 2.015-0.804 1.148c-2.093-1.31-4.565-2.068-7.21-2.068s-5.117 0.758-7.21 2.068l-0.804-1.148 2.877-2.015c0.321-0.225 0.399-0.667 0.174-0.988-1.626-2.322-4.838-2.888-7.16-1.262s-2.888 4.838-1.263 7.16c0.108 0.154 0.273 0.259 0.458 0.292 0.041 0.007 0.082 0.011 0.123 0.011 0.144 0 0.287-0.044 0.407-0.128l3.221-2.256 0.803 1.147c-3.2 2.497-5.261 6.388-5.261 10.752 0 4.746 2.438 8.932 6.126 11.374l-1.123 1.604c-0.225 0.321-0.147 0.763 0.174 0.988 0.124 0.087 0.266 0.128 0.406 0.128 0.224 0 0.444-0.105 0.581-0.303l1.187-1.695c1.881 0.981 4.018 1.536 6.282 1.536s4.4-0.555 6.281-1.536l1.186 1.694c0.138 0.197 0.358 0.303 0.581 0.303 0.14 0 0.282-0.042 0.406-0.128 0.321-0.225 0.399-0.667 0.174-0.988l-1.123-1.604c3.689-2.442 6.127-6.629 6.127-11.375 0-4.364-2.061-8.255-5.261-10.752zM22.587 2.862c1.256-1.214 3.239-1.41 4.722-0.372s1.977 2.97 1.265 4.565l-5.987-4.192zM3.426 7.054c-0.712-1.595-0.217-3.526 1.265-4.565 0.648-0.454 1.393-0.672 2.13-0.672 0.949 0 1.886 0.361 2.592 1.044l-5.987 4.192zM16 30.52c-6.735 0-12.215-5.48-12.215-12.215s5.48-12.215 12.215-12.215 12.215 5.48 12.215 12.215-5.48 12.215-12.215 12.215zM16 8.279c-5.528 0-10.026 4.498-10.026 10.026s4.498 10.026 10.026 10.026 10.026-4.498 10.026-10.026-4.498-10.026-10.026-10.026zM22.665 23.968l-0.479-0.479c-0.277-0.277-0.726-0.277-1.003 0s-0.277 0.726 0 1.003l0.479 0.479c-1.358 1.156-3.072 1.904-4.953 2.056v-0.682c0-0.392-0.317-0.709-0.709-0.709s-0.709 0.318-0.709 0.709v0.682c-1.88-0.152-3.595-0.9-4.953-2.056l0.479-0.479c0.277-0.277 0.277-0.726 0-1.003s-0.726-0.277-1.003 0l-0.479 0.479c-1.156-1.358-1.904-3.072-2.056-4.953h0.682c0.392 0 0.709-0.317 0.709-0.709s-0.318-0.709-0.709-0.709h-0.682c0.152-1.88 0.9-3.595 2.056-4.953l0.479 0.479c0.139 0.138 0.32 0.208 0.501 0.208s0.363-0.069 0.501-0.208c0.277-0.277 0.277-0.726 0-1.003l-0.479-0.479c1.358-1.156 3.072-1.904 4.953-2.056v0.682c0 0.392 0.318 0.709 0.709 0.709s0.709-0.318 0.709-0.709v-0.682c1.881 0.152 3.595 0.9 4.953 2.056l-0.479 0.479c-0.277 0.277-0.277 0.726 0 1.003 0.139 0.138 0.32 0.208 0.501 0.208s0.363-0.069 0.501-0.208l0.479-0.479c1.156 1.358 1.904 3.072 2.056 4.953h-0.682c-0.392 0-0.709 0.317-0.709 0.709s0.318 0.709 0.709 0.709h0.682c-0.151 1.881-0.9 3.595-2.056 4.953z"></path>
</svg>
