<!-- Generated by IcoMoon.io -->
<svg version="1.1" xmlns="http://www.w3.org/2000/svg" width="38" height="32" viewBox="0 0 38 32">
<path d="M38.4 18.576c0-2.341-2.888-4.449-7.883-5.776v-8.507c0-2.341-1.951-4.293-4.293-4.293h-14.283c-2.341 0-4.293 1.951-4.293 4.293v8.585c-4.839 1.327-7.649 3.434-7.649 5.698 0 2.341 2.81 4.371 7.649 5.698v3.434c0 2.341 1.951 4.293 4.293 4.293h14.205c2.341 0 4.293-1.951 4.293-4.293v-3.356c4.839-1.249 7.961-3.356 7.961-5.776zM0.78 18.576c0-1.873 2.576-3.668 6.868-4.917v9.834c-4.293-1.249-6.868-3.044-6.868-4.917zM29.659 27.707c0 1.951-1.561 3.512-3.512 3.512h-14.205c-1.951 0-3.512-1.561-3.512-3.512v-23.415c0-1.951 1.561-3.512 3.512-3.512h14.205c1.951 0 3.512 1.561 3.512 3.512v8.819c0 0 0 0.078 0 0.078v10.615c-2.81 0.702-6.244 1.093-9.834 1.171l1.483-1.483c0.156-0.156 0.156-0.39 0-0.546s-0.39-0.156-0.546 0l-2.419 2.419 2.419 2.419c0.078 0.078 0.156 0.078 0.312 0.078s0.234 0 0.312-0.078c0.156-0.156 0.156-0.39 0-0.546l-1.483-1.483c3.668-0.078 7.024-0.468 9.834-1.171v3.122zM30.439 23.571v-9.99c4.449 1.249 7.102 3.044 7.102 4.995 0.078 2.029-2.732 3.824-7.102 4.995z"></path>
<path d="M20.527 17.483c0 0.39 0.156 0.702 0.234 1.015h1.171c-0.156-0.312-0.234-0.624-0.312-1.015-0.078-0.312-0.078-1.171-0.078-2.419v-1.873c0-0.78-0.078-1.327-0.156-1.717s-0.39-0.702-0.78-1.015c-0.39-0.234-0.937-0.39-1.639-0.39-0.937 0-1.561 0.234-2.107 0.624s-0.78 1.015-0.937 1.951l1.093 0.156c0.156-0.624 0.312-1.015 0.546-1.249s0.624-0.312 1.171-0.312c0.624 0 1.015 0.156 1.327 0.468 0.234 0.234 0.312 0.624 0.312 1.171v0.39c-0.39 0.156-1.093 0.39-2.029 0.468-0.702 0.078-1.171 0.234-1.561 0.468s-0.624 0.468-0.78 0.859c-0.234 0.39-0.312 0.78-0.312 1.249 0 0.702 0.234 1.249 0.624 1.717 0.39 0.39 1.015 0.624 1.717 0.624 0.468 0 0.859-0.078 1.249-0.312 0.468-0.156 0.859-0.468 1.249-0.859zM17.327 17.171c-0.234-0.234-0.39-0.546-0.39-0.937 0-0.234 0.078-0.468 0.156-0.702 0.078-0.156 0.234-0.312 0.468-0.468 0.234-0.078 0.546-0.234 1.015-0.312 0.78-0.156 1.405-0.312 1.873-0.546v0.624c0 0.702-0.078 1.171-0.234 1.561s-0.39 0.624-0.78 0.859c-0.312 0.234-0.702 0.312-1.093 0.312-0.468 0-0.78-0.156-1.015-0.39z"></path>
</svg>
