<!-- Generated by IcoMoon.io -->
<svg version="1.1" xmlns="http://www.w3.org/2000/svg" width="32" height="32" viewBox="0 0 32 32">
<path d="M22.948 19.378c-0.255-0.128-0.574 0-0.701 0.255 0 0 0 0.064 0 0.064-0.128 0.255-0.191 0.51-0.319 0.765s0 0.574 0.255 0.701c0.255 0.128 0.574 0 0.701-0.255v0c0.128-0.255 0.255-0.574 0.382-0.892 0.064-0.191-0.064-0.51-0.319-0.637z"></path>
<path d="M28.239 12.494c0 0 0 0 0 0-1.020-2.996-3.060-5.546-5.673-7.267-0.255-0.128-0.574-0.064-0.701 0.191s-0.064 0.51 0.128 0.701c2.486 1.594 4.335 3.952 5.291 6.693 0.064 0.255 0.382 0.446 0.637 0.319 0.255-0.064 0.382-0.382 0.319-0.637z"></path>
<path d="M20.59 4.207v0c-0.319-0.128-0.637-0.255-0.956-0.382-0.255-0.064-0.574 0.064-0.637 0.319s0.064 0.51 0.319 0.637c0.319 0.128 0.574 0.191 0.892 0.382 0.255 0.128 0.574 0 0.701-0.255 0.064-0.319-0.064-0.637-0.319-0.701z"></path>
<path d="M14.98 8.223c-4.845 0-8.797 3.952-8.797 8.797s3.952 8.797 8.797 8.797c2.422 0 4.781-1.020 6.438-2.805 0.191-0.255 0.128-0.574-0.128-0.701-0.191-0.128-0.446-0.128-0.637 0-2.932 3.123-7.841 3.315-10.964 0.446s-3.315-7.904-0.382-11.028 7.841-3.315 10.964-0.446c1.594 1.466 2.486 3.506 2.486 5.673 0 0.191 0 0.382 0 0.574 0 0.255 0.191 0.51 0.51 0.574 0.255 0 0.51-0.191 0.574-0.51 0-0.191 0-0.446 0-0.637-0.064-4.781-4.016-8.733-8.861-8.733z"></path>
<path d="M14.98 14.406c-1.402 0-2.614 1.147-2.614 2.614s1.147 2.614 2.614 2.614 2.614-1.147 2.614-2.614-1.147-2.614-2.614-2.614zM14.98 18.677c-0.956 0-1.657-0.765-1.657-1.657 0-0.956 0.765-1.657 1.657-1.657s1.657 0.765 1.657 1.657c0.064 0.892-0.701 1.657-1.657 1.657z"></path>
<path d="M16 12.367c0 0.563-0.457 1.020-1.020 1.020s-1.020-0.457-1.020-1.020c0-0.563 0.457-1.020 1.020-1.020s1.020 0.457 1.020 1.020z"></path>
<path d="M16 21.673c0 0.563-0.457 1.020-1.020 1.020s-1.020-0.457-1.020-1.020c0-0.563 0.457-1.020 1.020-1.020s1.020 0.457 1.020 1.020z"></path>
<path d="M11.347 17.020c0 0.563-0.457 1.020-1.020 1.020s-1.020-0.457-1.020-1.020c0-0.563 0.457-1.020 1.020-1.020s1.020 0.457 1.020 1.020z"></path>
<path d="M20.653 17.020c0 0.563-0.457 1.020-1.020 1.020s-1.020-0.457-1.020-1.020c0-0.563 0.457-1.020 1.020-1.020s1.020 0.457 1.020 1.020z"></path>
<path d="M32 15.49c-0.701-8.223-7.267-14.789-15.49-15.49-0.51-0.064-0.956 0.191-1.339 0.574-0.319 0.382-0.446 0.956-0.319 1.402v0c-8.223 0.064-14.916 6.884-14.853 15.108s6.821 14.98 15.108 14.916c8.223-0.064 14.853-6.693 14.916-14.916v0c0.51 0.128 1.020 0 1.402-0.319s0.637-0.765 0.574-1.275zM28.94 17.020c0 7.713-6.247 13.96-13.96 13.96s-13.96-6.247-13.96-13.96 6.247-13.96 13.96-13.96h0.191l0.765 2.741c0.255 0.829 0.892 1.53 1.721 1.785 3.251 0.956 5.801 3.506 6.693 6.693 0.255 0.829 0.956 1.466 1.785 1.721l2.741 0.765c0.064 0.128 0.064 0.191 0.064 0.255zM30.789 16c-0.128 0.128-0.319 0.128-0.51 0.128l-0.637-0.191h-0.064l-3.123-0.892c-0.51-0.127-0.892-0.51-1.084-1.020-1.020-3.57-3.825-6.375-7.394-7.458-0.51-0.128-0.892-0.574-1.020-1.084l-1.084-3.825c-0.064-0.191 0-0.319 0.128-0.51 0.064-0.127 0.255-0.191 0.382-0.191h0.064c7.777 0.637 13.896 6.821 14.534 14.534 0 0.255-0.064 0.446-0.191 0.51z"></path>
<path d="M4.143 16h-1.020c-0.255 0-0.51 0.255-0.51 0.51s0.255 0.51 0.51 0.51h1.020c0.255 0 0.51-0.255 0.51-0.51 0-0.319-0.255-0.51-0.51-0.51z"></path>
<path d="M14.98 26.837c-0.255 0-0.51 0.255-0.51 0.51v1.020c0 0.255 0.255 0.51 0.51 0.51s0.51-0.255 0.51-0.51v-1.020c0-0.255-0.191-0.51-0.51-0.51z"></path>
<path d="M12.685 5.865l-0.255-1.020c-0.064-0.255-0.319-0.446-0.637-0.382-0.255 0.064-0.446 0.319-0.382 0.637 0 0 0 0 0 0.064l0.255 1.020c0.064 0.255 0.382 0.446 0.637 0.319 0.319-0.064 0.446-0.382 0.382-0.637z"></path>
<path d="M18.55 27.857l-0.255-1.020c-0.064-0.255-0.382-0.446-0.637-0.319-0.255 0.064-0.382 0.319-0.382 0.637l0.255 1.020c0.128 0.255 0.382 0.382 0.701 0.255 0.255-0.128 0.382-0.319 0.319-0.574z"></path>
<path d="M10.008 6.884c0-0.064 0-0.064 0 0l-0.51-0.956c-0.127-0.255-0.446-0.319-0.701-0.128-0.255 0.128-0.319 0.446-0.191 0.701l0.51 0.892c0.127 0.255 0.446 0.382 0.701 0.191s0.319-0.446 0.191-0.701z"></path>
<path d="M21.418 26.582c0 0 0-0.064 0 0l-0.51-0.956c-0.128-0.255-0.446-0.319-0.701-0.128-0.255 0.128-0.319 0.446-0.191 0.701l0.51 0.892c0.128 0.255 0.446 0.382 0.701 0.191 0.255-0.128 0.319-0.446 0.191-0.701z"></path>
<path d="M7.649 8.414l-0.701-0.765c-0.191-0.191-0.51-0.191-0.765 0s-0.191 0.51 0 0.765l0.765 0.765c0.191 0.191 0.574 0.191 0.701-0.064 0.191-0.191 0.191-0.446 0-0.701z"></path>
<path d="M23.777 24.542l-0.765-0.765c-0.191-0.191-0.574-0.191-0.701 0.064-0.191 0.191-0.191 0.51 0 0.701l0.701 0.765c0.191 0.191 0.51 0.191 0.765 0s0.191-0.574 0-0.765z"></path>
<path d="M5.865 10.582l-0.892-0.51c-0.255-0.127-0.574-0.064-0.701 0.127-0.128 0.255-0.064 0.574 0.128 0.701 0 0 0 0 0.064 0l0.892 0.574c0.255 0.127 0.574 0.064 0.701-0.191s0-0.51-0.191-0.701z"></path>
<path d="M4.653 13.195l-1.020-0.255c-0.255-0.127-0.574 0-0.701 0.255s0 0.574 0.255 0.701c0.064 0 0.064 0 0.127 0.064l1.020 0.255c0.255 0.064 0.574-0.127 0.637-0.382 0.064-0.319-0.064-0.574-0.319-0.637z"></path>
</svg>
