<!-- Generated by IcoMoon.io -->
<svg version="1.1" xmlns="http://www.w3.org/2000/svg" width="32" height="32" viewBox="0 0 32 32">
<path d="M22.4 9.6h1.6v1.6h-1.6v-1.6zM22.4 12.8h1.6v1.6h-1.6v-1.6zM22.4 16h1.6v1.6h-1.6v-1.6zM22.4 19.2h1.6v1.6h-1.6v-1.6zM22.4 25.6h1.6v1.6h-1.6v-1.6zM22.4 22.4h1.6v1.6h-1.6v-1.6zM9.6 9.6h1.6v1.6h-1.6v-1.6zM9.6 12.8h1.6v1.6h-1.6v-1.6zM9.6 16h1.6v1.6h-1.6v-1.6zM9.6 19.2h1.6v1.6h-1.6v-1.6zM9.6 25.6h1.6v1.6h-1.6v-1.6zM9.6 22.4h1.6v1.6h-1.6v-1.6zM6.4 9.6h1.6v1.6h-1.6v-1.6zM6.4 12.8h1.6v1.6h-1.6v-1.6zM6.4 16h1.6v1.6h-1.6v-1.6zM6.4 19.2h1.6v1.6h-1.6v-1.6zM6.4 25.6h1.6v1.6h-1.6v-1.6zM6.4 22.4h1.6v1.6h-1.6v-1.6zM12.8 9.6h1.6v1.6h-1.6v-1.6zM12.8 12.8h1.6v1.6h-1.6v-1.6zM12.8 16h1.6v1.6h-1.6v-1.6zM12.8 19.2h1.6v1.6h-1.6v-1.6zM12.8 25.6h1.6v1.6h-1.6v-1.6zM12.8 22.4h1.6v1.6h-1.6v-1.6zM29.6 30.4h-0.8v-21.6c0-1.221-0.907-2.479-2.065-2.865l-7.535-2.512v-2.623c0-0.253-0.12-0.491-0.322-0.642s-0.465-0.197-0.707-0.124l-14.467 4.34c-1.179 0.354-2.103 1.595-2.103 2.826v23.2h-0.8c-0.442 0-0.8 0.358-0.8 0.8s0.358 0.8 0.8 0.8h28.8c0.442 0 0.8-0.358 0.8-0.8s-0.358-0.8-0.8-0.8zM26.229 7.453c0.508 0.169 0.971 0.811 0.971 1.347v21.6h-8v-25.29l7.029 2.343zM3.2 7.2c0-0.526 0.459-1.142 0.962-1.293l13.438-4.031v28.525h-14.4v-23.2z"></path>
</svg>
