<!-- Generated by IcoMoon.io -->
<svg version="1.1" xmlns="http://www.w3.org/2000/svg" width="36" height="32" viewBox="0 0 36 32">
<path d="M35.733 25.067v-2.453l-1.867-0.693c-0.107-0.373-0.267-0.747-0.48-1.12l0.8-1.813-1.76-1.76-1.813 0.8c-0.373-0.16-0.747-0.32-1.12-0.48l-0.693-1.813h-2.453l-0.747 1.867c-0.373 0.107-0.747 0.267-1.12 0.48l-1.813-0.8-1.76 1.76 0.8 1.813c-0.16 0.373-0.32 0.747-0.48 1.12l-1.867 0.693v2.4l1.867 0.693c0.107 0.373 0.267 0.747 0.48 1.12l-0.8 1.813 1.76 1.76 1.813-0.8c0.373 0.16 0.747 0.32 1.12 0.48l0.693 1.867h2.507l0.693-1.867c0.373-0.107 0.747-0.267 1.12-0.48l1.813 0.8 1.76-1.76-0.8-1.813c0.213-0.373 0.32-0.747 0.48-1.12l1.867-0.693zM32.907 24.96l-0.053 0.267c-0.107 0.48-0.32 0.907-0.587 1.387l-0.16 0.267 0.747 1.653-0.64 0.64-1.653-0.747-0.267 0.16c-0.427 0.267-0.907 0.427-1.387 0.587l-0.267 0.053-0.64 1.707h-0.907l-0.64-1.707-0.267-0.053c-0.48-0.107-0.96-0.32-1.387-0.587l-0.267-0.16-1.6 0.693-0.64-0.64 0.747-1.653-0.16-0.267c-0.267-0.427-0.427-0.907-0.587-1.387l-0.053-0.267-1.707-0.64v-0.907l1.707-0.64 0.053-0.267c0.107-0.48 0.32-0.96 0.587-1.387l0.16-0.267-0.747-1.6 0.64-0.64 1.653 0.747 0.267-0.16c0.427-0.267 0.907-0.427 1.387-0.587l0.267-0.053 0.64-1.707h0.907l0.64 1.707 0.267 0.053c0.48 0.107 0.96 0.32 1.387 0.587l0.267 0.16 1.653-0.747 0.64 0.64-0.747 1.653 0.16 0.267c0.267 0.427 0.427 0.907 0.587 1.387l0.053 0.267 1.707 0.64v0.907l-1.76 0.64zM27.573 20.373c-1.92 0-3.467 1.547-3.467 3.467s1.547 3.467 3.467 3.467c1.92 0 3.467-1.547 3.467-3.467s-1.547-3.467-3.467-3.467zM27.573 26.187c-1.28 0-2.347-1.067-2.347-2.347s1.067-2.347 2.347-2.347c1.28 0 2.347 1.067 2.347 2.347s-1.067 2.347-2.347 2.347zM0 14.987h3.2v1.12h-3.2v-1.12zM3.2 19.307h3.467v1.12h-3.467v-1.12zM3.2 21.493h3.467v1.12h-3.467v-1.12zM3.2 27.947h3.467v1.12h-3.467v-1.12zM3.2 30.080h3.467v1.12h-3.467v-1.12zM0 17.173h6.667v1.12h-6.667v-1.12zM0 23.627h3.2v1.12h-3.2v-1.12zM3.2 10.72h3.467v1.12h-3.467v-1.12zM3.2 12.853h3.467v1.12h-3.467v-1.12zM0 8.533h6.667v1.12h-6.667v-1.12zM0 25.76h6.667v1.12h-6.667v-1.12zM8 27.947h3.467v1.12h-3.467v-1.12zM8 30.080h6.667v1.12h-6.667v-1.12zM10.72 2.027h1.12v1.12h-1.12v-1.12zM12.96 2.027h1.12v1.12h-1.12v-1.12zM15.253 2.027h1.12v1.12h-1.12v-1.12zM9.067 5.12h20.213v10.080h1.12v-15.2h-22.453v26.88h10.507v-1.12h-9.387v-20.64zM9.067 1.12h20.213v2.88h-20.213v-2.88zM21.813 11.36c0.32-0.32 0.533-0.8 0.533-1.28s-0.16-0.907-0.533-1.28c-0.32-0.32-0.8-0.533-1.28-0.533h-2.027c-0.32 0-0.587 0.267-0.587 0.587v5.387h1.12v-2.4h1.44c0.587 0.053 1.013-0.16 1.333-0.48zM19.093 10.72v-1.28h1.44c0.16 0 0.32 0.053 0.48 0.213 0.107 0.107 0.213 0.267 0.213 0.48s-0.053 0.32-0.213 0.48c-0.107 0.107-0.267 0.213-0.48 0.213h-1.44zM16.853 14.293v0-4.16c0-0.48-0.16-0.907-0.533-1.28-0.32-0.32-0.8-0.533-1.28-0.533h-0.8c-0.48 0-0.907 0.16-1.28 0.533-0.32 0.32-0.533 0.8-0.533 1.28v4.213h1.12v-2.4h2.080v2.4l1.227-0.053zM13.653 10.72v-0.64c0-0.16 0.053-0.32 0.213-0.48 0.107-0.107 0.267-0.213 0.48-0.213h0.8c0.16 0 0.32 0.053 0.48 0.213 0.107 0.107 0.213 0.267 0.213 0.48v0.64h-2.187zM25.867 9.44v-1.12h-2.4v1.12h0.64v3.733h-0.64v1.12h2.4v-1.12h-0.64v-3.733z"></path>
</svg>
