<!-- Generated by IcoMoon.io -->
<svg version="1.1" xmlns="http://www.w3.org/2000/svg" width="27" height="32" viewBox="0 0 27 32">
<path d="M8.252 3.402c-0.315 0-0.63 0.252-0.63 0.63s0.252 0.63 0.63 0.63v0c0.315 0 0.63-0.252 0.63-0.63s-0.252-0.63-0.63-0.63z"></path>
<path d="M16 28.787c-0.315 0-0.63 0.252-0.63 0.63 0 0.315 0.252 0.63 0.63 0.63v0c0.315 0 0.63-0.252 0.63-0.63s-0.252-0.63-0.63-0.63z"></path>
<path d="M7.748 9.827l-2.142-1.26c-0.441-0.252-0.945-0.252-1.323 0-0.441 0.252-0.693 0.693-0.693 1.134v2.457c0 0.504 0.252 0.945 0.693 1.134 0.189 0.126 0.441 0.189 0.693 0.189s0.441-0.063 0.693-0.189l2.142-1.26c0.441-0.252 0.693-0.693 0.693-1.134-0.063-0.378-0.315-0.819-0.756-1.071zM7.118 11.087l-2.142 1.26c0 0-0.063 0-0.063 0-0.063 0-0.063-0.063-0.063-0.063v-2.457c0 0 0-0.063 0.063-0.063 0 0 0 0 0.063 0 0 0 0.063 0 0.063 0l2.142 1.26c0 0 0.063 0 0.063 0.063-0.063 0-0.126 0-0.126 0z"></path>
<path d="M26.898 11.276v-8.756c0-1.386-1.134-2.52-2.52-2.52h-16.756c-1.386 0-2.52 1.134-2.52 2.52v3.402h-4.472c-0.315 0-0.63 0.252-0.63 0.63v9.008c0 0.315 0.252 0.63 0.63 0.63h4.535v13.354c0 1.386 1.134 2.52 2.52 2.52h16.756c1.386 0 2.52-1.134 2.52-2.52v-4.976zM1.26 7.118h9.26v7.748h-9.26v-7.748zM24.378 30.74h-16.756c-0.693 0-1.26-0.567-1.26-1.26v-1.512h19.276v1.512c0 0.756-0.567 1.26-1.26 1.26zM25.638 24.504v2.268h-19.276v-10.646h4.724c0.315 0 0.63-0.252 0.63-0.63v-9.008c0-0.315-0.252-0.63-0.63-0.63h-4.724v-3.339c0-0.693 0.567-1.26 1.26-1.26h16.756c0.693 0 1.26 0.567 1.26 1.26v0.882h-14.866c-0.315 0-0.63 0.252-0.63 0.63s0.252 0.63 0.63 0.63h14.866v6.614z"></path>
<path d="M17.386 20.787h-8.378c-0.315 0-0.63 0.252-0.63 0.63s0.252 0.63 0.63 0.63h8.378c0.315 0 0.63-0.252 0.63-0.63s-0.252-0.63-0.63-0.63z"></path>
<path d="M13.165 23.244h-4.22c-0.315 0-0.63 0.252-0.63 0.63s0.252 0.63 0.63 0.63h4.22c0.315 0 0.63-0.252 0.63-0.63 0-0.315-0.252-0.63-0.63-0.63z"></path>
<path d="M15.685 23.244c-0.189 0-0.315 0.063-0.441 0.189s-0.189 0.252-0.189 0.441 0.063 0.315 0.189 0.441c0.126 0.126 0.252 0.189 0.441 0.189s0.315-0.063 0.441-0.189c0.126-0.126 0.189-0.252 0.189-0.441s-0.063-0.315-0.189-0.441c-0.126-0.126-0.252-0.189-0.441-0.189z"></path>
<path d="M14.488 7.118h8.378c0.315 0 0.63-0.252 0.63-0.63s-0.252-0.63-0.63-0.63h-8.378c-0.315 0-0.63 0.252-0.63 0.63s0.315 0.63 0.63 0.63z"></path>
<path d="M19.339 9.008c0-0.315-0.252-0.63-0.63-0.63h-4.22c-0.315 0-0.63 0.252-0.63 0.63 0 0.315 0.252 0.63 0.63 0.63h4.22c0.315 0 0.63-0.315 0.63-0.63z"></path>
</svg>
