<!-- Generated by IcoMoon.io -->
<svg version="1.1" xmlns="http://www.w3.org/2000/svg" width="32" height="32" viewBox="0 0 32 32">
<path d="M28.61 23.429c-0.040-0.020-4.009-2.050-4.009-5.978 0-3.842 2.747-4.833 2.861-4.872l0.59-0.197-0.278-0.556c-0.021-0.041-0.522-1.026-1.737-1.902-1.099-0.791-3.024-1.652-5.963-1.267-0.286 0.008-1.966 0.109-4.253 1.349-0.434-0.253-1.329-0.726-2.463-1.059-2.144-0.631-4.123-0.456-5.723 0.504-3.755 2.253-4.529 6.296-4.56 6.467l-0.005 0.030c-0.015 0.121-0.362 3.004 0.413 6.466 0.457 2.045 1.214 3.865 2.249 5.409 1.301 1.942 3.043 3.446 5.178 4.47l0.223 0.107 0.226-0.099c0.055-0.024 5.564-2.374 9.937-0.019l0.179 0.096 0.198-0.046c0.052-0.012 1.3-0.31 2.813-1.491 1.37-1.070 3.246-3.113 4.4-6.768l0.139-0.439-0.412-0.206zM23.87 29.952c-1.018 0.807-1.9 1.156-2.264 1.276-1.408-0.713-3.054-1.075-4.848-1.075-0.726 0-1.477 0.059-2.246 0.179-1.608 0.25-2.851 0.69-3.351 0.884-1.856-0.934-3.378-2.271-4.525-3.978-0.96-1.428-1.665-3.12-2.095-5.028-0.712-3.156-0.43-5.881-0.404-6.113 0.051-0.252 0.815-3.779 4.051-5.721 3.248-1.949 7.28 0.678 7.32 0.704l0.277 0.184 0.289-0.165c1.87-1.068 3.462-1.359 4.040-1.364h0.036l0.035-0.005c2.067-0.276 3.808 0.073 5.175 1.037 0.535 0.377 0.906 0.78 1.138 1.079-0.337 0.19-0.772 0.484-1.204 0.916-0.809 0.809-1.773 2.279-1.773 4.688 0 1.907 0.799 3.714 2.312 5.226 0.726 0.726 1.449 1.219 1.884 1.484-1.065 3.099-2.667 4.854-3.849 5.79zM22.984 0.948l-0.083-0.282-0.282-0.083c-0.097-0.029-2.406-0.686-4.229 0.679-1.358 1.016-2.046 2.84-2.046 5.422v0.539h0.539c2.582 0 4.406-0.688 5.422-2.046 1.364-1.823 0.707-4.131 0.679-4.229zM21.442 4.531c-0.733 0.98-2.080 1.518-4.008 1.602 0.084-1.923 0.62-3.268 1.595-4.003 0.689-0.518 1.5-0.649 2.144-0.649 0.342 0 0.638 0.037 0.842 0.073 0.104 0.586 0.22 1.917-0.573 2.977z"></path>
</svg>
