<!-- Generated by IcoMoon.io -->
<svg version="1.1" xmlns="http://www.w3.org/2000/svg" width="34" height="32" viewBox="0 0 34 32">
<path d="M30.862 11.953h-5.312l2.846-2.846c0.19-0.19 0.443-0.316 0.759-0.316 1.202 0 2.277-0.443 3.099-1.265 0.885-0.885 1.328-2.024 1.265-3.225 0-1.202-0.506-2.34-1.391-3.162-1.707-1.581-4.3-1.581-6.008 0-0.949 0.885-1.455 2.024-1.455 3.225 0 0.253-0.126 0.569-0.316 0.759l-6.957 6.83h-15.368c-1.138 0-2.024 0.885-2.024 2.024v4.047c0 1.707 0.379 3.415 1.202 4.996-0.126 0.126-0.126 0.316-0.126 0.506 0.126 1.707 1.012 3.225 2.466 4.174 0.316 0.19 0.632 0.379 0.949 0.506-0.443 0.506-0.696 1.012-0.696 1.644 0 1.202 0.949 2.15 2.15 2.15 0.063 0 0.19 0 2.719-0.506 0.569 0.506 1.391 0.632 2.15 0.379 0.253 0.063 0.506 0.126 0.759 0.126h9.992c1.075 0 1.96-0.885 1.96-1.96v-1.012c0.822-0.126 1.644-0.316 2.403-0.632 0.253-0.126 0.379-0.379 0.253-0.632s-0.379-0.379-0.632-0.253c-1.138 0.443-2.34 0.696-3.605 0.696h-6.008c0.19-0.126 0.379-0.19 0.569-0.379 1.391-0.949 2.34-2.466 2.466-4.174 0 0 0 0 0 0 0.063-0.443-0.19-0.759-0.632-0.885-1.644-0.506-3.415-0.253-4.806 0.696-0.632 0.443-1.138 0.949-1.581 1.581 0-0.063-0.063-0.126-0.063-0.19 0.506-0.822 0.759-1.771 0.759-2.783 0-1.707-0.759-3.289-2.087-4.364-0.316-0.253-0.759-0.253-1.075 0-1.328 1.075-2.087 2.656-2.087 4.364 0 1.012 0.253 1.96 0.759 2.846 0 0 0 0.063-0.063 0.063-0.379-0.632-0.949-1.138-1.581-1.581-1.328-0.885-2.909-1.202-4.427-0.822-0.696-1.391-1.075-2.909-1.075-4.49v-1.644h2.53c0.253 0 0.506-0.19 0.506-0.506 0-0.253-0.19-0.506-0.506-0.506h-2.53v-1.455c0-0.569 0.443-1.075 1.075-1.075h28.838c0.569 0 1.075 0.443 1.075 1.075v1.455h-26.245c-0.253 0-0.506 0.19-0.506 0.506 0 0.253 0.19 0.506 0.506 0.506h26.245v1.644c0 3.478-1.771 6.64-4.68 8.474-0.253 0.126-0.316 0.443-0.126 0.696 0.063 0.126 0.253 0.253 0.443 0.253 0.063 0 0.19 0 0.253-0.063 3.225-2.024 5.123-5.502 5.123-9.36v-2.15c0 0 0 0 0 0v-1.897c-0.063-1.138-1.012-2.087-2.15-2.087zM9.992 24.601c1.771 0 0.949 2.277 0.759 3.225-0.506-0.19-1.012-0.19-1.518 0-0.19-0.885-1.012-3.225 0.759-3.225zM13.344 25.992c0.759 0.316 0.885 1.265 0.379 1.834-0.443 0.506-1.202 0.822-1.771 1.202-0.063-0.19-0.19-0.379-0.379-0.569 0.126-0.569 0.316-1.581 0.443-2.15 0.316-0.379 0.885-0.506 1.328-0.316zM14.103 30.988c-0.063 0-0.443-0.063-2.087-0.379 0.063-0.126 0.063-0.316 0.126-0.443 0.696-0.443 1.391-0.949 2.087-1.391 1.391 0.063 1.265 2.213-0.126 2.213zM7.589 25.929c0.126 0.063 0.253 0.126 0.316 0.253 0.126 0.759 0.253 1.581 0.443 2.34-0.126 0.126-0.19 0.316-0.316 0.506-0.569-0.379-1.518-0.822-1.897-1.391-0.632-0.949 0.443-2.213 1.455-1.707zM4.743 29.85c0-0.569 0.569-1.202 1.202-1.138 0.443 0.316 1.265 0.885 1.96 1.328 0 0.19 0.063 0.379 0.126 0.506-0.949 0.253-3.289 1.075-3.289-0.696zM9.107 30.609c-0.885-1.012 0.506-2.53 1.581-1.644 1.202 1.075-0.506 2.846-1.581 1.644zM22.451 29.091v0.949c0 0.569-0.443 0.949-0.949 0.949h-5.628c0.19-0.316 0.316-0.759 0.316-1.138 0-0.253-0.063-0.506-0.126-0.759h6.387zM14.040 24.158c1.138-0.759 2.593-1.012 3.921-0.632-0.126 1.391-0.885 2.593-2.024 3.352-0.316 0.19-0.632 0.379-0.949 0.506 0.063-0.379 0.063-0.822-0.126-1.202l1.707-1.138c0.253-0.126 0.253-0.443 0.126-0.696s-0.443-0.253-0.696-0.126l-1.707 1.138c-0.316-0.253-0.696-0.443-1.075-0.506 0.19-0.19 0.506-0.443 0.822-0.696zM9.929 18.466c1.075 0.885 1.644 2.15 1.644 3.541 0 0.696-0.126 1.391-0.443 1.96-0.253-0.126-0.506-0.253-0.759-0.316 0-0.063 0-0.063 0-0.126v-3.162c0-0.253-0.19-0.506-0.506-0.506-0.253 0-0.506 0.19-0.506 0.506v3.162c0 0.063 0 0.063 0 0.126-0.253 0.063-0.506 0.19-0.696 0.316-0.316-0.632-0.443-1.328-0.443-2.024 0.063-1.328 0.632-2.593 1.707-3.478zM5.945 24.158c0.316 0.19 0.569 0.443 0.822 0.696-0.379 0.063-0.822 0.253-1.075 0.569l-1.644-1.138c-0.253-0.126-0.506-0.063-0.696 0.126-0.19 0.253-0.126 0.569 0.063 0.696l1.644 1.138c-0.126 0.379-0.19 0.822-0.063 1.202-0.316-0.126-0.696-0.316-0.949-0.506-1.138-0.759-1.897-2.024-2.024-3.415 1.328-0.316 2.783-0.126 3.921 0.632zM18.846 11.953l6.261-6.134c0.379-0.379 0.569-0.885 0.569-1.455 0-0.949 0.379-1.834 1.075-2.466 1.328-1.202 3.352-1.202 4.68 0 0.696 0.632 1.075 1.518 1.075 2.466s-0.316 1.834-1.012 2.466c-0.632 0.632-1.518 1.012-2.403 1.012-0.569 0-1.075 0.19-1.455 0.569l-3.541 3.541h-5.249z"></path>
</svg>
