<!-- Generated by IcoMoon.io -->
<svg version="1.1" xmlns="http://www.w3.org/2000/svg" width="32" height="32" viewBox="0 0 32 32">
<path d="M4.452 6.052c2.871-2.871 6.688-4.452 10.748-4.452s7.877 1.581 10.748 4.452 4.452 6.688 4.452 10.748-1.581 7.877-4.452 10.748-6.688 4.452-10.748 4.452-7.877-1.581-10.748-4.452-4.452-6.688-4.452-10.748 1.581-7.877 4.452-10.748zM15.2 30.4c7.499 0 13.6-6.101 13.6-13.6s-6.101-13.6-13.6-13.6c-7.499 0-13.6 6.101-13.6 13.6s6.101 13.6 13.6 13.6zM5.834 16.234l6.4-6.4c0.312-0.312 0.819-0.312 1.131 0s0.312 0.819 0 1.131l-5.034 5.034h16.469c0.442 0 0.8 0.358 0.8 0.8s-0.358 0.8-0.8 0.8h-16.469l5.034 5.034c0.312 0.312 0.312 0.819 0 1.131-0.156 0.156-0.361 0.234-0.566 0.234s-0.409-0.078-0.566-0.234l-6.4-6.4c-0.313-0.312-0.313-0.819 0-1.131z"></path>
</svg>
