<!-- Generated by IcoMoon.io -->
<svg version="1.1" xmlns="http://www.w3.org/2000/svg" width="32" height="32" viewBox="0 0 32 32">
<path d="M25.948 27.548c2.871-2.871 4.452-6.688 4.452-10.748s-1.581-7.877-4.452-10.748-6.688-4.452-10.748-4.452-7.877 1.581-10.748 4.452-4.452 6.688-4.452 10.748 1.581 7.877 4.452 10.748 6.688 4.452 10.748 4.452 7.877-1.581 10.748-4.452zM1.6 16.8c0-7.499 6.101-13.6 13.6-13.6s13.6 6.101 13.6 13.6c0 7.499-6.101 13.6-13.6 13.6s-13.6-6.101-13.6-13.6zM15.766 26.166l6.4-6.4c0.312-0.312 0.312-0.819 0-1.131s-0.819-0.312-1.131 0l-5.034 5.034v-16.469c0-0.442-0.358-0.8-0.8-0.8s-0.8 0.358-0.8 0.8v16.469l-5.034-5.034c-0.312-0.312-0.819-0.312-1.131 0-0.156 0.156-0.234 0.361-0.234 0.566s0.078 0.409 0.234 0.566l6.4 6.4c0.312 0.313 0.819 0.313 1.131 0z"></path>
</svg>
