<!-- Generated by IcoMoon.io -->
<svg version="1.1" xmlns="http://www.w3.org/2000/svg" width="32" height="32" viewBox="0 0 32 32">
<path d="M16.838 12.979c-2.271 0-4.119 1.848-4.119 4.119s1.848 4.119 4.119 4.119c2.271 0 4.119-1.848 4.119-4.119s-1.848-4.119-4.119-4.119zM16.838 19.658c-1.412 0-2.561-1.149-2.561-2.561s1.149-2.561 2.561-2.561c1.412 0 2.561 1.149 2.561 2.561s-1.149 2.561-2.561 2.561zM31.894 9.976c0.303-2.229-0.045-4.126-1.007-5.526 0.157-0.348 0.246-0.733 0.246-1.139 0-1.528-1.243-2.771-2.771-2.771-1.032 0-1.934 0.568-2.411 1.408-2.61-0.13-5.806 0.829-9.114 2.74-5.648-3.264-10.761-3.656-13.413-1.003-1.153 1.153-1.75 2.802-1.747 4.795-0.985 0.425-1.677 1.406-1.677 2.545 0 1.528 1.243 2.771 2.771 2.771 0.016 0 0.032-0.001 0.048-0.001 0.426 1.084 0.965 2.191 1.608 3.304-3.264 5.648-3.656 10.761-1.003 13.413 1.171 1.171 2.82 1.749 4.783 1.749 2.486-0 5.475-0.928 8.631-2.751 3.156 1.824 6.145 2.751 8.631 2.751 1.963 0 3.613-0.578 4.784-1.749 2.653-2.653 2.26-7.767-1.004-13.414 1.436-2.486 2.349-4.94 2.646-7.122zM28.362 2.099c0.668 0 1.212 0.544 1.212 1.212s-0.544 1.212-1.212 1.212-1.212-0.544-1.212-1.212 0.544-1.212 1.212-1.212zM25.598 3.494c0.095 1.442 1.298 2.587 2.764 2.587 0.531 0 1.027-0.15 1.449-0.41 0.577 1.048 0.763 2.444 0.539 4.095-0.241 1.771-0.943 3.762-2.041 5.814-1.252-1.899-2.757-3.733-4.488-5.464s-3.565-3.236-5.465-4.49c2.661-1.427 5.174-2.167 7.243-2.132zM2.771 12.237c-0.668 0-1.212-0.544-1.212-1.212s0.544-1.212 1.212-1.212 1.212 0.544 1.212 1.212c0 0.668-0.544 1.212-1.212 1.212zM4.311 13.326c0.741-0.498 1.23-1.344 1.23-2.302 0-1.369-0.998-2.509-2.305-2.731 0.032-1.485 0.471-2.689 1.29-3.507 1.993-1.993 6.151-1.643 10.793 0.84-1.9 1.253-3.733 2.758-5.464 4.489s-3.236 3.565-4.489 5.465c-0.407-0.76-0.759-1.514-1.055-2.254zM4.526 29.409c-1.993-1.993-1.643-6.151 0.84-10.793 1.253 1.9 2.758 3.733 4.489 5.464s3.564 3.236 5.464 4.489c-4.642 2.483-8.8 2.834-10.793 0.84zM10.957 22.978c-1.857-1.857-3.441-3.833-4.714-5.88 1.273-2.047 2.857-4.023 4.714-5.88s3.833-3.441 5.88-4.714c2.047 1.273 4.023 2.857 5.88 4.714s3.441 3.834 4.713 5.88c-1.272 2.046-2.856 4.023-4.713 5.88s-3.833 3.441-5.88 4.714c-2.047-1.273-4.023-2.857-5.88-4.714zM29.149 29.409c-1.994 1.993-6.152 1.643-10.794-0.84 1.9-1.253 3.733-2.758 5.464-4.489s3.236-3.565 4.488-5.464c2.484 4.642 2.835 8.8 0.842 10.793z"></path>
</svg>
