<!-- Generated by IcoMoon.io -->
<svg version="1.1" xmlns="http://www.w3.org/2000/svg" width="32" height="32" viewBox="0 0 32 32">
<path d="M19.231 13.681c-0.637 0.794-0.413 1.794 0.137 2.344l0.85 0.788c0.956 0.962 2.15 0.331 2.475 0l3.712-3.681c0.438-0.444 0.863-1.625 0-2.5l-0.85-0.787c-0.625-0.631-1.719-0.656-2.387-0.081l-5.056-5.006c0.4-0.506 0.7-1.581-0.1-2.388l-0.85-0.788c-0.65-0.656-1.825-0.656-2.475 0l-3.713 3.681c-0.806 0.813-0.588 1.906 0 2.5l0.85 0.787c0.831 0.844 1.85 0.463 2.313 0.137l0.931 0.912-14.381 14.281 3.125 3.156 14.431-14.325 0.988 0.969zM23.994 10.7c0.181-0.188 0.469-0.188 0.719 0.069l0.85 0.787c0.15 0.156 0.156 0.431 0 0.594l-3.712 3.681c-0.194 0.2-0.519 0.2-0.719 0l-0.85-0.787c-0.125-0.125-0.25-0.406 0-0.656l3.712-3.688zM22.294 10.631l-2.2 2.188-5-4.981 2.212-2.237 4.988 5.031zM13.456 7.569c-0.194 0.2-0.519 0.2-0.719 0l-0.85-0.787c-0.125-0.125-0.25-0.406 0-0.656l3.713-3.681c0.181-0.188 0.469-0.188 0.719 0.069l0.85 0.788c0.15 0.156 0.156 0.431 0 0.594l-3.713 3.675zM3.881 25.2l-1.369-1.319 13.463-13.394 1.356 1.331-13.45 13.381zM28.575 26.913v-3.488h-11.794v3.488h-2.738v4.8h17.269v-4.8h-2.738zM18.087 24.675h9.25v2.238h-9.25v-2.238zM30.075 30.394h-14.725v-2.169h14.725v2.169z"></path>
</svg>
