<!-- Generated by IcoMoon.io -->
<svg version="1.1" xmlns="http://www.w3.org/2000/svg" width="32" height="32" viewBox="0 0 32 32">
<path d="M20.615 32h-9.231c-8 0-11.385-3.385-11.385-11.385v-9.231c0-8 3.385-11.385 11.385-11.385h9.231c8 0 11.385 3.385 11.385 11.385v9.231c0 8-3.385 11.385-11.385 11.385zM11.385 1.231c-7.323 0-10.154 2.831-10.154 10.154v9.231c0 7.323 2.831 10.154 10.154 10.154h9.231c7.323 0 10.154-2.831 10.154-10.154v-9.231c0-7.323-2.831-10.154-10.154-10.154h-9.231z"></path>
<path d="M12.308 24.8c-2.154 0-3.877-1.723-3.877-3.877s1.723-3.877 3.877-3.877c2.154 0 3.877 1.723 3.877 3.877 0.062 2.092-1.723 3.877-3.877 3.877zM12.308 18.215c-1.477 0-2.646 1.169-2.646 2.646s1.169 2.646 2.646 2.646 2.646-1.169 2.646-2.646-1.169-2.646-2.646-2.646z"></path>
<path d="M15.631 21.538c-0.369 0-0.615-0.246-0.615-0.615v-11.446c0-0.369 0.246-0.615 0.615-0.615s0.615 0.246 0.615 0.615v11.446c0 0.308-0.308 0.615-0.615 0.615z"></path>
<path d="M21.415 14.585c-0.246 0-0.554-0.062-0.862-0.123l-3.569-1.169c-1.108-0.369-2.031-1.6-2.031-2.769v-0.985c0-0.8 0.308-1.477 0.862-1.908s1.292-0.492 2.031-0.246l3.569 1.231c1.108 0.369 2.031 1.6 2.031 2.769v0.923c0 0.8-0.308 1.477-0.862 1.908-0.308 0.246-0.738 0.369-1.169 0.369zM17.108 8.431c-0.185 0-0.369 0.062-0.492 0.123-0.246 0.185-0.369 0.492-0.369 0.862v1.046c0 0.677 0.554 1.415 1.169 1.6l3.631 1.231c0.369 0.123 0.738 0.123 0.923-0.062 0.246-0.185 0.369-0.492 0.369-0.862v-0.985c0-0.677-0.554-1.415-1.169-1.6l-3.569-1.231c0 0 0 0 0 0-0.246-0.062-0.369-0.123-0.492-0.123z"></path>
</svg>
