<!-- Generated by IcoMoon.io -->
<svg version="1.1" xmlns="http://www.w3.org/2000/svg" width="40" height="32" viewBox="0 0 40 32">
<path stroke-linejoin="miter" stroke-linecap="butt" stroke-miterlimit="4" stroke-width="0.3721" stroke="#000" fill="#000" d="M0.558 23.433c0 2.578 2.146 4.724 4.724 4.724 0.166 0 0.319-0.056 0.431-0.168s0.168-0.265 0.168-0.431c0-0.166-0.056-0.319-0.168-0.431s-0.265-0.168-0.431-0.168c-1.96 0-3.527-1.567-3.527-3.527v-14.851c0-1.96 1.567-3.527 3.527-3.527 0.166 0 0.319-0.056 0.431-0.168s0.168-0.265 0.168-0.431c0-0.166-0.056-0.319-0.168-0.431s-0.265-0.168-0.431-0.168c-2.578 0-4.724 2.146-4.724 4.724v14.851z"></path>
<path stroke-linejoin="miter" stroke-linecap="butt" stroke-miterlimit="4" stroke-width="0.3721" stroke="#000" fill="#000" d="M5.756 16.008c0 0.166 0.056 0.319 0.168 0.431s0.265 0.168 0.431 0.168c0.136 0 0.282-0.064 0.391-0.159 0.113-0.098 0.208-0.249 0.208-0.439v-10.726c0-1.96 1.567-3.527 3.527-3.527h15.594c0.166 0 0.319-0.056 0.431-0.168s0.168-0.265 0.168-0.431c0-0.166-0.056-0.319-0.168-0.431s-0.265-0.168-0.431-0.168h-15.594c-2.578 0-4.724 2.146-4.724 4.724v10.726z"></path>
<path stroke-linejoin="miter" stroke-linecap="butt" stroke-miterlimit="4" stroke-width="0.3721" stroke="#000" fill="#000" d="M10.232 31.457h24.752c2.576 0 4.726-2.144 4.641-4.727v-21.448c0-2.578-2.146-4.724-4.724-4.724h-2.64c-0.136 0-0.282 0.064-0.391 0.159-0.113 0.099-0.208 0.249-0.208 0.439 0 0.192 0.097 0.345 0.227 0.446 0.127 0.099 0.292 0.153 0.455 0.153h2.64c1.96 0 3.527 1.567 3.527 3.527v21.452c0 1.96-1.567 3.527-3.527 3.527h-24.752c-1.96 0-3.527-1.567-3.527-3.527v-5.445c0-0.166-0.056-0.319-0.168-0.431s-0.265-0.168-0.431-0.168c-0.166 0-0.319 0.056-0.431 0.168s-0.168 0.265-0.168 0.431v5.445c0 2.578 2.146 4.724 4.724 4.724z"></path>
<path d="M31.271 20.236h-18.151l4.765-6.466 3.176 4.197 4.311-5.672 5.899 7.941z"></path>
</svg>
