<!-- Generated by IcoMoon.io -->
<svg version="1.1" xmlns="http://www.w3.org/2000/svg" width="32" height="32" viewBox="0 0 32 32">
<path d="M23.663 9.838c-4.738 2.769-8.15 6.269-9.537 7.819l-3.556-2.656c-0.094-0.063-2.050 1.587-1.994 1.637l6.481 6.287c0.050 0.050 0.113 0.075 0.181 0.075 0.012 0 0.031 0 0.050-0.006 0.081-0.019 0.156-0.069 0.188-0.15 1.044-2.544 4.494-7.875 8.894-11.738 0.081-0.069 0.106-0.181 0.063-0.275 0-0.006-0.706-1.031-0.769-0.994zM27.913 4.281c-9.813 0-11.475-3.55-11.488-3.587-0.069-0.175-0.25-0.287-0.45-0.294 0 0-0.006 0-0.006 0-0.194 0-0.375 0.119-0.45 0.287-0.019 0.037-1.719 3.594-11.494 3.594-0.275 0-0.487 0.213-0.487 0.469v15.919c0 6.512 11.738 11.494 12.231 11.7 0.063 0.031 0.125 0.038 0.2 0.038 0.063 0 0.131-0.013 0.194-0.038 0.5-0.206 12.238-5.188 12.238-11.7v-15.925c0-0.256-0.219-0.463-0.488-0.463zM16.119 28.894c-0.050 0.025-0.106 0.031-0.15 0.031-0.056 0-0.106-0.006-0.156-0.031-0.387-0.163-9.581-4.063-9.581-9.156v-12.463c0-0.2 0.169-0.369 0.381-0.369 7.656 0 8.981-2.781 8.994-2.813 0.063-0.131 0.2-0.225 0.356-0.225 0 0 0.006 0 0.006 0 0.156 0 0.294 0.094 0.35 0.231 0.012 0.025 1.313 2.806 8.994 2.806 0.212 0 0.381 0.162 0.381 0.369v12.456c0.006 5.1-9.181 9-9.575 9.163z"></path>
</svg>
