<!-- Generated by IcoMoon.io -->
<svg version="1.1" xmlns="http://www.w3.org/2000/svg" width="32" height="32" viewBox="0 0 32 32">
<path d="M27.064 9.529c-0.074-0.496-0.496-0.843-0.992-0.843h-5.705v-2.332c0-2.406-1.96-4.366-4.366-4.366s-4.366 1.96-4.366 4.366v2.332h-5.705c-0.496 0-0.918 0.347-0.992 0.843l-3.324 20.093c-0.050 0.298 0.025 0.595 0.223 0.819s0.471 0.347 0.769 0.347h26.791c0 0 0 0 0.025 0 0.571 0 1.017-0.447 1.017-1.017 0-0.124-0.025-0.223-0.050-0.322l-3.324-19.919zM13.668 6.354c0-1.29 1.042-2.332 2.332-2.332s2.332 1.042 2.332 2.332v2.332h-4.664v-2.332zM3.795 28.778l3.002-18.059h4.837v5.681c0 0.571 0.447 1.017 1.017 1.017s1.017-0.447 1.017-1.017v-5.681h4.664v5.681c0 0.571 0.447 1.017 1.017 1.017s1.017-0.447 1.017-1.017v-5.681h4.837l3.002 18.059h-24.409z"></path>
</svg>
