<!-- Generated by IcoMoon.io -->
<svg version="1.1" xmlns="http://www.w3.org/2000/svg" width="32" height="32" viewBox="0 0 32 32">
<path d="M16.65 25.469v-21.025h8.119c0 0-4.406 12.031-4.325 12.206 0.256 2.631 2.544 4.65 5.262 4.65 2.712 0 4.931-2.012 5.25-4.637 0.087-0.181-4.319-12.219-4.319-12.219h0.756v-1.344h-10.75v-2.013h-1.306v2.013h-10.75v1.344h0.763c0 0-4.35 11.819-4.35 11.956 0.131 2.756 2.475 4.9 5.275 4.9s5.15-2.15 5.344-4.9c0-0.081-4.406-11.956-4.406-11.956h8.119v21.019h-14.644v6.25h30.625v-6.244h-14.663zM25.706 19.962c-1.887 0-3.456-1.275-3.913-2.956h7.819c-0.45 1.675-2.012 2.956-3.906 2.956zM21.931 15.731l3.781-10.075 3.712 10.075h-7.494zM6.294 19.962c-1.888 0-3.456-1.275-3.913-2.956h7.819c-0.456 1.675-2.019 2.956-3.906 2.956zM2.575 15.731l3.781-10.075 3.712 10.075h-7.494zM30.075 30.438h-28.081v-3.625h28.081v3.625z"></path>
</svg>
