<!-- Generated by IcoMoon.io -->
<svg version="1.1" xmlns="http://www.w3.org/2000/svg" width="32" height="32" viewBox="0 0 32 32">
<path d="M31.625 16.4l-4.18-8.518h3.37c0.322 0 0.584-0.261 0.584-0.584s-0.261-0.584-0.584-0.584h-13.356v-1.675c0.659-0.462 1.091-1.226 1.091-2.089 0-1.406-1.144-2.55-2.55-2.55s-2.55 1.144-2.55 2.55c0 0.864 0.432 1.628 1.091 2.089v1.675h-13.356c-0.322 0-0.584 0.261-0.584 0.584s0.261 0.584 0.584 0.584h3.37l-4.18 8.518c-0.039 0.080-0.060 0.168-0.060 0.257 0 2.854 2.322 5.176 5.176 5.176s5.176-2.322 5.176-5.176c0-0.089-0.020-0.177-0.060-0.257l-4.18-8.518h8.112v17.63c0 1.991-1.62 3.61-3.61 3.61-0.322 0-0.584 0.261-0.584 0.584v2.111c0 0.322 0.261 0.584 0.584 0.584h10.139c0.155 0 0.303-0.062 0.413-0.171s0.171-0.258 0.171-0.413v-2.111c0-0.322-0.261-0.584-0.584-0.584-1.991 0-3.61-1.619-3.61-3.61v-17.63h8.112l-4.18 8.518c-0.039 0.080-0.060 0.168-0.060 0.257 0 2.854 2.322 5.176 5.176 5.176s5.176-2.322 5.176-5.176c0-0.089-0.020-0.177-0.060-0.257zM5.492 20.666c-2.012 0-3.682-1.49-3.965-3.425h7.931c-0.284 1.935-1.953 3.425-3.965 3.425zM9.147 16.073h-7.311l3.656-7.45 3.656 7.45zM16 1.568c0.762 0 1.383 0.62 1.383 1.382s-0.62 1.383-1.383 1.383-1.383-0.62-1.383-1.383 0.62-1.383 1.383-1.383zM20.486 30.289v0.943h-8.971v-0.943h8.971zM17.944 29.121h-3.888c1.011-0.877 1.652-2.17 1.652-3.61v-20.029c0.096 0.011 0.193 0.017 0.292 0.017s0.196-0.006 0.292-0.017v20.028c0 1.44 0.641 2.733 1.652 3.61zM26.508 8.623l3.656 7.45h-7.311l3.656-7.45zM26.508 20.666c-2.012 0-3.682-1.49-3.965-3.425h7.931c-0.284 1.935-1.953 3.425-3.965 3.425z"></path>
</svg>
