<!-- Generated by IcoMoon.io -->
<svg version="1.1" xmlns="http://www.w3.org/2000/svg" width="31" height="32" viewBox="0 0 31 32">
<path d="M21.905 5.333h-4.254c-0.889 0-1.587 0.698-1.587 1.587v23.492c0 0.889 0.698 1.587 1.587 1.587h4.254c0.889 0 1.587-0.698 1.587-1.587v-3.556c1.079 1.587 2.921 2.476 4.825 2.476h2.667v-0.508c0-2.286-1.333-4.381-3.429-5.333 2.095-0.952 3.429-3.048 3.429-5.333v-0.508h-2.667c-1.905 0-3.683 0.952-4.825 2.54v-13.27c0-0.889-0.698-1.587-1.587-1.587zM22.413 21.905h-5.333v-6.984h5.333v6.984zM17.587 6.413h4.254c0.317 0 0.508 0.254 0.508 0.508v6.921h-5.333v-6.921c0.064-0.254 0.317-0.508 0.571-0.508zM22.413 30.413c0 0.317-0.254 0.508-0.508 0.508h-4.254c-0.317 0-0.508-0.254-0.508-0.508v-7.492h5.333v7.492zM29.841 28.254h-1.587c-2.476 0-4.508-1.841-4.762-4.254h1.587c2.476 0 4.508 1.841 4.762 4.254zM28.254 18.667h1.587c-0.254 2.413-2.349 4.254-4.762 4.254h-1.587c0.317-2.413 2.349-4.254 4.762-4.254z"></path>
<path d="M0 21.905v0.508h2.667c1.905 0 3.683-0.952 4.825-2.476v10.54c0 0.889 0.698 1.587 1.587 1.587h4.254c0.889 0 1.587-0.698 1.587-1.587v-28.889c0-0.889-0.698-1.587-1.587-1.587h-4.254c-0.889 0-1.587 0.698-1.587 1.587v11.556c-1.079-1.587-2.857-2.476-4.825-2.54h-2.667v0.508c0 2.286 1.333 4.381 3.429 5.333-2.095 1.079-3.429 3.111-3.429 5.46zM8.508 12.825h5.333v9.079h-5.333v-9.079zM13.333 30.984h-4.254c-0.317 0-0.508-0.254-0.508-0.508v-7.556h5.333v7.492c0 0.317-0.254 0.571-0.571 0.571zM9.079 1.079h4.254c0.317 0 0.508 0.254 0.508 0.508v10.159h-5.333v-10.159c0-0.254 0.254-0.508 0.571-0.508zM1.079 11.746h1.587c2.476 0 4.508 1.841 4.762 4.254h-1.587c-2.413 0-4.444-1.841-4.762-4.254zM5.841 17.079h1.587c-0.254 2.413-2.349 4.254-4.762 4.254h-1.587c0.317-2.413 2.349-4.254 4.762-4.254z"></path>
<path d="M11.746 2.159h1.079v8.508h-1.079v-8.508z"></path>
<path d="M11.746 26.159h1.079v3.746h-1.079v-3.746z"></path>
<path d="M11.746 24h1.079v1.079h-1.079v-1.079z"></path>
<path d="M18.159 19.746h1.079v1.079h-1.079v-1.079z"></path>
<path d="M18.159 26.159h1.079v3.746h-1.079v-3.746z"></path>
<path d="M18.159 24h1.079v1.079h-1.079v-1.079z"></path>
</svg>
