<!-- Generated by IcoMoon.io -->
<svg version="1.1" xmlns="http://www.w3.org/2000/svg" width="32" height="32" viewBox="0 0 32 32">
<path d="M31.442 28.386h-2.007v-1.895c0-0.308-0.25-0.558-0.558-0.558h-0.629v-10.592h0.629c0.308 0 0.558-0.25 0.558-0.557v-1.895h0.892c0.308 0 0.558-0.25 0.558-0.557v-2.23h0.558c0.308 0 0.558-0.25 0.558-0.557v-2.787c0-0.234-0.146-0.442-0.365-0.523l-15.442-5.686c-0.124-0.046-0.261-0.046-0.385 0l-15.443 5.686c-0.219 0.081-0.365 0.29-0.365 0.523v2.787c0 0.308 0.25 0.557 0.557 0.557h0.557v2.23c0 0.308 0.25 0.557 0.558 0.557h0.892v1.895c0 0.308 0.25 0.557 0.558 0.557h0.629v10.592h-0.629c-0.308 0-0.558 0.25-0.558 0.558v1.895h-2.007c-0.308 0-0.557 0.25-0.557 0.558v2.787c0 0.308 0.25 0.558 0.557 0.558h30.885c0.308 0 0.558-0.25 0.558-0.558v-2.787c0-0.308-0.25-0.558-0.558-0.558zM28.32 27.048v1.338h-5.575v-1.338h5.575zM19.345 25.933h-0.629v-10.592h0.629c0.308 0 0.558-0.25 0.558-0.557v-1.895h1.728v1.895c0 0.308 0.25 0.557 0.558 0.557h0.629v10.592h-0.629c-0.308 0-0.558 0.25-0.558 0.558v1.895h-1.728v-1.895c0-0.308-0.25-0.558-0.558-0.558zM9.812 25.933h-0.629v-10.592h0.629c0.308 0 0.557-0.25 0.557-0.557v-1.895h1.728v1.895c0 0.308 0.25 0.557 0.557 0.557h0.629v10.592h-0.629c-0.308 0-0.557 0.25-0.557 0.558v1.895h-1.728v-1.895c0-0.308-0.25-0.558-0.557-0.558zM13.213 14.226v-1.338h5.575v1.338h-5.575zM17.601 15.341v10.592h-3.201v-10.592h3.201zM13.213 27.048h5.575v1.338h-5.575v-1.338zM23.933 25.933v-10.592h3.201v10.592h-3.201zM28.32 14.226h-5.575v-1.338h5.575v1.338zM2.23 11.773v-1.672h1.912c0.308 0 0.558-0.25 0.558-0.557s-0.25-0.557-0.558-0.557h-3.027v-1.841l14.885-5.481 14.885 5.481v1.841h-23.445c-0.308 0-0.558 0.25-0.558 0.557s0.25 0.557 0.558 0.557h22.33v1.672h-27.54zM3.68 14.226v-1.338h5.575v1.338h-5.575zM8.067 15.341v10.592h-3.201v-10.592h3.201zM3.68 27.048h5.575v1.338h-5.575v-1.338zM30.885 31.173h-29.77v-1.672h29.77v1.672zM5.252 9.756c-0.014-0.033 0.014 0.034 0 0v0zM5.372 9.149c-0.155 0.16-0.208 0.4-0.12 0.607 0.028 0.068 0.069 0.129 0.12 0.181 0.22 0.213 0.569 0.214 0.789 0 0.213-0.219 0.213-0.569 0-0.789-0.219-0.213-0.569-0.213-0.789 0z"></path>
</svg>
