<!-- Generated by IcoMoon.io -->
<svg version="1.1" xmlns="http://www.w3.org/2000/svg" width="32" height="32" viewBox="0 0 32 32">
<path d="M31.606 10.375l-10.575-6.806c-0.212-0.138-0.494-0.075-0.631 0.138s-0.075 0.494 0.137 0.631l10.425 6.706h-2.431l-11.869-7.638c-0.406-0.263-0.925-0.263-1.331 0l-11.863 7.631h-2.431l14.963-9.625 2.119 1.362c0.212 0.138 0.494 0.075 0.631-0.138s0.075-0.494-0.137-0.631l-2.119-1.356c-0.3-0.194-0.681-0.194-0.981 0l-15.119 9.725c-0.325 0.206-0.469 0.594-0.356 0.963 0.106 0.369 0.438 0.613 0.819 0.613h2.294v2.944c0 0.363 0.256 0.662 0.6 0.738v0.8c0 0.413 0.338 0.75 0.75 0.75h0.063v5.569c0 0.25 0.206 0.456 0.456 0.456s0.456-0.206 0.456-0.456v-6.025c0-0.25-0.206-0.456-0.456-0.456h-0.362v-0.625h3.219v0.625h-0.362c-0.25 0-0.456 0.206-0.456 0.456v10.044c0 0.25 0.206 0.456 0.456 0.456h0.362v0.675h-3.219v-0.681h0.362c0.25 0 0.456-0.206 0.456-0.456v-1.163c0-0.25-0.206-0.456-0.456-0.456s-0.456 0.206-0.456 0.456v0.706h-0.063c-0.412 0-0.75 0.337-0.75 0.75v0.8c-0.344 0.069-0.6 0.375-0.6 0.738v0.919h-1.613c-0.5 0-0.912 0.406-0.912 0.913v0.956c0 0.5 0.406 0.912 0.912 0.912h28.925c0.5 0 0.913-0.406 0.913-0.913v-0.956c0-0.5-0.406-0.913-0.913-0.913h-1.613v-0.919c0-0.363-0.256-0.663-0.6-0.738v-0.8c0-0.413-0.337-0.75-0.75-0.75h-0.063v-9.131h0.063c0.413 0 0.75-0.337 0.75-0.75v-0.8c0.344-0.069 0.6-0.375 0.6-0.738v-2.944h2.294c0.381 0 0.712-0.244 0.819-0.613 0.113-0.363-0.031-0.75-0.356-0.956zM15.825 4.169c0.106-0.069 0.244-0.069 0.344 0l10.675 6.869h-21.694l10.675-6.869zM4.056 11.95h23.888v1.113h-23.887v-1.113zM18.519 27.863v-0.8c0-0.413-0.337-0.75-0.75-0.75h-0.063v-9.137h0.063c0.413 0 0.75-0.337 0.75-0.75v-0.8c0.344-0.069 0.6-0.375 0.6-0.738v-0.919h3.5v0.919c0 0.363 0.256 0.662 0.6 0.738v0.8c0 0.413 0.337 0.75 0.75 0.75h0.063v9.137h-0.063c-0.413 0-0.75 0.337-0.75 0.75v0.8c-0.344 0.069-0.6 0.375-0.6 0.738v0.919h-3.5v-0.919c0-0.363-0.256-0.663-0.6-0.738zM8.781 27.863v-0.8c0-0.413-0.338-0.75-0.75-0.75h-0.063v-9.137h0.063c0.412 0 0.75-0.337 0.75-0.75v-0.8c0.344-0.069 0.6-0.375 0.6-0.738v-0.919h3.5v0.919c0 0.363 0.256 0.662 0.6 0.738v0.8c0 0.413 0.338 0.75 0.75 0.75h0.063v9.137h-0.063c-0.412 0-0.75 0.337-0.75 0.75v0.8c-0.344 0.069-0.6 0.375-0.6 0.738v0.919h-3.5v-0.919c0-0.363-0.256-0.663-0.6-0.738zM17.25 27.219h0.363v0.681h-3.219v-0.681h0.363c0.25 0 0.456-0.206 0.456-0.456v-10.044c0-0.25-0.206-0.456-0.456-0.456h-0.363v-0.625h3.219v0.625h-0.363c-0.25 0-0.456 0.206-0.456 0.456v10.044c0 0.256 0.206 0.456 0.456 0.456zM13.938 14.731v0h-0.144v-0.762h4.412v0.762h-0.144c0 0 0 0 0 0s0 0 0 0h-4.125zM13.794 28.788c0.044 0.012 0.094 0.025 0.144 0.025h4.125c0.050 0 0.1-0.006 0.144-0.025v0.731h-4.412v-0.731zM4.2 14.731h-0.144v-0.762h4.412v0.762h-4.269zM4.056 28.788c0.044 0.012 0.094 0.025 0.144 0.025h4.131c0.050 0 0.1-0.006 0.144-0.025v0.731h-4.419v-0.731zM30.462 30.431v0.956c0 0 0 0 0 0h-28.925v-0.956h28.925zM27.8 28.813c0.050 0 0.1-0.006 0.144-0.025v0.731h-4.413v-0.731c0.044 0.012 0.094 0.025 0.144 0.025h4.125zM24.488 16.269h-0.363v-0.625h3.219v0.625h-0.363c-0.25 0-0.456 0.206-0.456 0.456v10.044c0 0.25 0.206 0.456 0.456 0.456h0.363v0.675h-3.219v-0.681h0.363c0.25 0 0.456-0.206 0.456-0.456v-10.044c-0.006-0.25-0.206-0.45-0.456-0.45zM27.944 14.731v0h-0.144c0 0 0 0 0 0s0 0 0 0h-4.269v-0.762h4.413v0.762z"></path>
</svg>
