<!-- Generated by IcoMoon.io -->
<svg version="1.1" xmlns="http://www.w3.org/2000/svg" width="32" height="32" viewBox="0 0 32 32">
<path d="M31.244 28.938h-30.488c-0.418 0-0.756 0.338-0.756 0.756s0.338 0.756 0.756 0.756h30.488c0.417 0 0.756-0.339 0.756-0.756s-0.338-0.756-0.756-0.756zM29.273 5.919h-5.309c-0.417 0-0.756 0.339-0.756 0.756v5.14h-3.797v-8.709c0-0.417-0.339-0.756-0.756-0.756h-5.309c-0.417 0-0.756 0.339-0.756 0.756v14.305h-3.797v-6.426c0-0.418-0.339-0.756-0.756-0.756h-5.309c-0.418 0-0.756 0.338-0.756 0.756v14.473c0 0.418 0.339 0.756 0.756 0.756h26.546c0.418 0 0.756-0.339 0.756-0.756v-18.783c0-0.417-0.338-0.756-0.756-0.756zM7.28 24.702h-3.797v-12.961h3.797v12.961zM12.589 24.702h-3.797v-5.779h3.797v5.779zM17.899 12.571v12.131h-3.797v-20.84h3.797v8.709zM23.208 24.702h-3.797v-11.375h3.797v11.375zM28.517 24.702h-3.797v-17.271h3.797v17.271z"></path>
</svg>
