<!-- Generated by IcoMoon.io -->
<svg version="1.1" xmlns="http://www.w3.org/2000/svg" width="32" height="32" viewBox="0 0 32 32">
<path d="M31.313 9.231h-5.994v-2.475h2.087c1.106 0 2.019-0.912 2.019-2.019v-1.631c0-1.106-0.913-2.019-2.019-2.019h-5.538c-1.106 0-2.019 0.913-2.019 2.019v1.631c0 1.106 0.913 2.019 2.019 2.019h2.15v2.475h-16.031v-2.475h2.088c1.106 0 2.019-0.912 2.088-2.019v-1.631c0-1.106-0.912-2.019-2.019-2.019h-5.544c-1.106 0-2.019 0.913-2.019 2.019v1.631c0 1.106 0.913 2.019 2.019 2.019h2.087v2.475h-6v8.863h3.781v13.619h5.531v-5.863h11.988v5.863h5.538v-13.619h3.788v-8.863zM21.212 4.737v-1.631c0-0.394 0.325-0.719 0.719-0.719h5.538c0.394 0 0.719 0.325 0.719 0.719v1.631c0 0.394-0.325 0.719-0.719 0.719h-5.538c-0.394 0-0.719-0.331-0.719-0.719zM3.881 4.737v-1.631c0-0.394 0.325-0.719 0.719-0.719h5.537c0.394 0 0.719 0.325 0.719 0.719v1.631c0 0.394-0.325 0.719-0.719 0.719h-5.537c-0.394 0-0.719-0.331-0.719-0.719zM9.588 16.794l3.362-6.256h9.469l-3.363 6.256h-9.469zM1.994 16.794v-6.256h9.481l-3.362 6.256h-6.119zM8.637 30.406h-2.931v-12.313h2.931v12.313zM10.006 24.544v-6.45h11.987v6.45h-11.988zM26.231 30.406h-2.931v-12.313h2.931v12.313zM30.075 16.794h-9.544l3.363-6.256h6.175v6.256z"></path>
</svg>
