<!-- Generated by IcoMoon.io -->
<svg version="1.1" xmlns="http://www.w3.org/2000/svg" width="36" height="32" viewBox="0 0 36 32">
<path d="M30.286 21.27c-1.587 0-3.048 0.635-4.064 1.841l-1.968-0.698c0.444-0.254 0.889-0.571 1.333-0.889l8.381-7.873c0.952-0.063 1.587-0.825 1.587-1.778 0-1.016-0.762-1.778-1.778-1.778h-1.905c-0.254-0.698-0.762-1.27-1.46-1.524 0.444-0.635 0.444-1.397 0.127-2.032-0.381-0.508-1.016-0.952-2.095-0.762 0.508-0.762 0.635-1.651 0.19-2.286-0.444-0.508-1.206-0.635-2.032-0.381 0-0.127 0-0.254-0.064-0.381-0.317-1.333-1.46-2.222-2.857-2.222-0.444 0-0.889 0.127-1.333 0.381-0.064 0-0.127-0.064-0.127-0.064-0.444-0.508-1.206-0.825-1.905-0.825-1.333 0-2.349 0.952-2.603 2.159-0.381 0-0.825 0.127-1.206 0.508s-0.444 0.889-0.444 1.524c-1.206-0.698-2.095-0.381-2.54 0.254-0.444 0.508-0.508 1.397-0.317 2.095-0.381 0-0.635 0.127-0.952 0.317-0.762 0.508-1.206 1.714-1.206 2.54-0.063 0.063-0.254 0.19-0.381 0.254-0.19 0.127-0.444 0.254-0.571 0.444h-0.825c-1.016 0-1.778 0.762-1.778 1.778 0 0.825 0.508 1.46 1.27 1.714l0.254 2.032c0.063 0.444 0.19 0.889 0.317 1.333l-6.857-2.54c-0.825-0.444-1.905-0.063-2.286 0.825-0.254 0.444-0.254 1.079-0.064 1.524s0.571 0.889 1.079 1.079l8.825 3.175v8.698c0 1.206 1.079 2.286 2.349 2.286 0.571 0 1.206-0.254 1.587-0.635l6.413-6.476 4.444 1.587c0 0.064 0 0.127 0 0.19 0 2.984 2.349 5.333 5.333 5.333s5.397-2.413 5.397-5.397c0.063-2.984-2.286-5.333-5.27-5.333zM29.524 27.746c0.508-0.127 1.016-0.508 1.206-1.079 0.254-0.635 0.127-1.333-0.317-1.841 0.889 0.127 1.587 0.825 1.587 1.778 0 1.016-0.762 1.778-1.778 1.778-0.508 0-1.016-0.254-1.333-0.571 0.254 0.064 0.444 0 0.635-0.064zM12.444 9.46c0-0.571 0.381-1.397 0.698-1.714 0.19-0.127 0.254-0.064 0.317-0.064 0.317 0.127 1.079 0.381 1.397-0.19 0.317-0.444 0-0.889-0.19-1.143-0.317-0.317-0.317-0.889-0.063-1.206 0.317-0.381 0.825-0.127 1.143 0.064l0.127 0.127c0.317 0.19 0.762 0.444 1.206 0.19 0.444-0.317 0.444-0.889 0.381-1.46 0-0.317 0-0.508 0.127-0.635 0.127-0.254 0.444-0.254 0.635-0.254s0.444 0 0.571-0.19l0.19-0.19v-0.19c0-0.825 0.635-1.46 1.46-1.46 0.381 0 0.762 0.19 1.079 0.444 0 0 0.698 0.698 1.333 0.381 0.317-0.19 0.571-0.254 0.889-0.254 0.762 0 1.46 0.508 1.651 1.27 0 0.063 0.064 0.317 0.064 0.508l0.254 0.317 0.317 0.317c0.19 0.127 0.508 0.317 0.889 0.127 0.444-0.19 0.762-0.127 0.825-0.064 0.127 0.127 0.127 0.571-0.254 1.206-0.444 0.444-0.254 1.333-0.064 1.587l0.317 0.381 0.444-0.19c0.762-0.317 1.333-0.19 1.46 0.064s0 0.635-0.381 1.016c-0.317 0.254-0.317 0.571-0.19 0.889l0.127 0.381h0.381c0.381 0.063 0.698 0.317 0.952 0.571h-18.286c0.127-0.254 0.19-0.444 0.19-0.635zM9.46 11.238h24.317c0.381 0 0.571 0.254 0.571 0.571s-0.254 0.571-0.571 0.571h-24.317c-0.381 0-0.571-0.254-0.571-0.571s0.19-0.571 0.571-0.571zM11.048 17.397c-0.444-0.571-0.698-1.27-0.762-1.968l-0.19-1.841h22.222l-7.556 6.984c-0.762 0.635-1.46 1.016-2.222 1.143l-11.429-4.254c0 0 0 0-0.063-0.064zM1.206 16.381c-0.127-0.254-0.064-0.444 0-0.571 0.127-0.254 0.381-0.444 0.635-0.444 0.127 0 0.19 0 0.254 0.063l27.111 10.095c0.317 0.127 0.444 0.444 0.381 0.762 0 0.064-0.064 0.127-0.127 0.19-0.19 0.127-0.381 0.19-0.571 0.127l-3.111-1.143c-0.127-0.064-0.19-0.064-0.317 0l-4.698-1.714c-0.064-0.064-0.127-0.064-0.19-0.127l-2.476-0.889c-0.064-0.064-0.127-0.064-0.254-0.064l-4.444-1.587c-0.063-0.064-0.127-0.127-0.19-0.127l-2.413-0.825c-0.063 0-0.063 0-0.127 0l-9.079-3.302c-0.127-0.064-0.317-0.254-0.381-0.444zM13.587 22.349l3.175 1.143-3.175 3.175v-4.317zM13.206 30.476c-0.254 0.19-0.444 0.317-0.762 0.317-0.571 0-1.206-0.444-1.206-1.079v-8.19l0.254 0.064 0.889 0.381v5.778c0 0.317 0.19 0.508 0.444 0.635s0.635 0.064 0.889-0.19l4.254-4.254 1.27 0.444-6.032 6.095zM30.222 30.794c-2.286 0-4.064-1.714-4.127-3.936l1.27 0.444c0.317 1.333 1.46 2.286 2.921 2.286 1.651 0 2.984-1.333 2.984-2.984s-1.333-2.984-2.984-2.984c-0.444 0-0.952 0.127-1.397 0.381l-1.333-0.508c0.698-0.698 1.714-1.079 2.73-1.079 2.286 0 4.127 1.841 4.127 4.127 0 2.413-1.841 4.254-4.19 4.254z"></path>
</svg>
