<!-- Generated by IcoMoon.io -->
<svg version="1.1" xmlns="http://www.w3.org/2000/svg" width="32" height="32" viewBox="0 0 32 32">
<path d="M2.824 11.101c0.031 0 0.063-0.003 0.095-0.010l1.339-0.275c0.254-0.052 0.417-0.301 0.365-0.554s-0.3-0.417-0.554-0.365l-1.339 0.276c-0.254 0.052-0.417 0.3-0.365 0.554 0.046 0.222 0.241 0.375 0.459 0.375z"></path>
<path d="M5.895 12.784c0.031 0 0.063-0.003 0.095-0.010l1.339-0.276c0.254-0.052 0.417-0.3 0.365-0.554s-0.301-0.417-0.554-0.365l-1.339 0.276c-0.254 0.052-0.417 0.3-0.365 0.554 0.046 0.222 0.241 0.375 0.459 0.375z"></path>
<path d="M31.394 13.859v-0.924c0-0.549-0.198-1.080-0.559-1.494l-1.486-1.71c-0.212-0.244-0.328-0.555-0.328-0.878v-2.018c0.441-0.020 0.794-0.385 0.794-0.831v-3.297c0-0.459-0.374-0.833-0.833-0.833h-5.325c-0.459 0-0.833 0.374-0.833 0.833v3.297c0 0.425 0.32 0.775 0.73 0.826v2.023c0 0.323-0.117 0.635-0.328 0.878l-1.419 1.632c-0.005-0.008-0.010-0.016-0.015-0.024l-0.613-0.927c0.284-0.136 0.481-0.425 0.481-0.76v-1.745c0-0.464-0.378-0.842-0.842-0.842h-6.415c-0.259 0-0.469 0.21-0.469 0.469s0.21 0.469 0.469 0.469h6.318v1.553h-10.416v-1.553h1.93c0.259 0 0.469-0.21 0.469-0.469s-0.21-0.469-0.469-0.469h-2.026c-0.464 0-0.842 0.378-0.842 0.842v1.745c0 0.335 0.197 0.624 0.481 0.76l-0.613 0.927c-0.010 0.015-0.018 0.030-0.027 0.045-0.108-0.689-0.244-1.279-0.375-1.751-0.411-1.487-1.661-2.555-3.186-2.722-0.253-0.028-0.493-0.035-0.707-0.032l0.699-1.286c0.124-0.228 0.039-0.512-0.188-0.636s-0.512-0.040-0.636 0.188l-0.505 0.929-0.356-1.729c-0.052-0.254-0.3-0.417-0.554-0.365s-0.417 0.3-0.365 0.554l0.356 1.729-0.831-0.654c-0.204-0.16-0.499-0.125-0.659 0.078s-0.125 0.499 0.078 0.659l1.15 0.906c-0.198 0.082-0.415 0.183-0.637 0.309-1.335 0.755-2.062 2.231-1.852 3.759 0.091 0.66 0.257 1.525 0.56 2.518h-0.418c-0.431 0-0.782 0.351-0.782 0.782v2.428c0 0.431 0.351 0.782 0.782 0.782h1.123l0.359 2.068c0.044 0.255 0.287 0.426 0.542 0.382s0.426-0.287 0.382-0.543l-0.331-1.907h26.286l-1.639 9.442c-0.188 1.084-1.123 1.87-2.223 1.87h-18.562c-1.1 0-2.035-0.786-2.223-1.87l-0.936-5.389c-0.044-0.255-0.287-0.427-0.542-0.382s-0.426 0.287-0.382 0.543l0.936 5.389c0.266 1.534 1.59 2.648 3.147 2.648h18.562c1.557 0 2.881-1.114 3.147-2.648l1.667-9.602h1.123c0.431 0 0.782-0.351 0.782-0.782v-2.428c0-0.37-0.259-0.681-0.606-0.761zM23.763 2.813h5.114v3.085h-5.114zM22.12 12.936c0-0.323 0.116-0.635 0.328-0.878l1.487-1.71c0.36-0.414 0.559-0.945 0.559-1.494v-2.016h3.589v2.016c0 0.549 0.198 1.079 0.559 1.494l1.487 1.71c0.212 0.244 0.328 0.555 0.328 0.878v0.903h-8.336zM9.848 12.427c0-0.203 0.059-0.4 0.171-0.57l0.9-1.362h9.191l0.9 1.362c0.112 0.169 0.171 0.366 0.171 0.57v1.412h-1.25v-1.085c0-0.431-0.351-0.782-0.782-0.782h-7.27c-0.431 0-0.782 0.351-0.782 0.782v1.085h-1.25zM18.993 12.909v0.929h-6.957v-0.929zM2.955 8.378c0.638-0.361 1.244-0.491 1.248-0.492s0.349-0.069 0.828-0.069c0.159 0 0.333 0.008 0.514 0.027 1.14 0.125 2.076 0.925 2.384 2.039 0.207 0.749 0.519 2.163 0.549 3.955h-6.292c-0.365-1.13-0.538-2.070-0.616-2.646-0.157-1.145 0.386-2.25 1.384-2.815zM31.062 16.892h-30.123v-2.114h8.302c0.044 0.013 0.090 0.021 0.138 0.021h12.158c0.037 0.009 0.075 0.015 0.114 0.015h9.275c0.047 0 0.093-0.007 0.136-0.020z"></path>
<path d="M8.087 27.119c0.029 0 0.059-0.003 0.089-0.009 0.254-0.049 0.421-0.294 0.373-0.549l-1.206-6.319c-0.049-0.255-0.295-0.422-0.549-0.373s-0.422 0.294-0.373 0.549l1.206 6.319c0.043 0.225 0.239 0.381 0.46 0.381z"></path>
<path d="M13.287 27.119c0.013 0 0.026-0 0.040-0.001 0.258-0.021 0.45-0.249 0.428-0.507l-0.528-6.319c-0.021-0.258-0.248-0.451-0.507-0.428s-0.45 0.248-0.428 0.507l0.527 6.319c0.021 0.245 0.226 0.43 0.467 0.43z"></path>
<path d="M23.913 27.119c0.221 0 0.417-0.157 0.46-0.381l1.206-6.319c0.049-0.254-0.118-0.5-0.373-0.549s-0.5 0.118-0.549 0.373l-1.206 6.319c-0.049 0.255 0.118 0.5 0.373 0.549 0.030 0.006 0.059 0.009 0.089 0.009z"></path>
<path d="M18.713 27.119c0.241 0 0.447-0.185 0.467-0.43l0.527-6.319c0.022-0.258-0.17-0.485-0.428-0.507s-0.485 0.17-0.507 0.429l-0.528 6.319c-0.021 0.258 0.17 0.485 0.428 0.507 0.013 0.001 0.027 0.001 0.040 0.001z"></path>
</svg>
