<!-- Generated by IcoMoon.io -->
<svg version="1.1" xmlns="http://www.w3.org/2000/svg" width="32" height="32" viewBox="0 0 32 32">
<path d="M30.604 12.679h-1.639v-2.501c0-1.155-0.94-2.095-2.095-2.095h-24.775c-1.155 0-2.095 0.94-2.095 2.095v12.444c0 1.155 0.94 2.095 2.095 2.095h24.775c1.155 0 2.095-0.94 2.095-2.095v-2.501h1.639c0.77 0 1.396-0.626 1.396-1.396v-4.649c-0-0.77-0.627-1.396-1.396-1.396zM22.046 23.32h-19.952c-0.385-0-0.698-0.313-0.698-0.698v-12.444c0-0.385 0.313-0.698 0.698-0.698h19.952v13.841zM26.87 23.32h-3.427v-13.841h3.427c0.385 0 0.698 0.313 0.698 0.698v12.444h0c-0 0.385-0.313 0.698-0.698 0.698zM30.604 18.724h-1.639v-4.649h1.639l0.001 4.648c-0 0-0 0-0.001 0z"></path>
</svg>
