<!-- Generated by IcoMoon.io -->
<svg version="1.1" xmlns="http://www.w3.org/2000/svg" width="17" height="32" viewBox="0 0 17 32">
<path d="M15.244 2.142h-3.465v-2.142h-6.425v2.142h-3.528c-1.008 0-1.827 0.819-1.827 1.827v26.205c0 1.008 0.819 1.827 1.827 1.827h13.417c1.008 0 1.827-0.819 1.827-1.827v-26.205c0.063-1.008-0.756-1.827-1.827-1.827v0zM6.425 1.071h4.283v1.071h-4.283v-1.071zM16 30.173c0 0.441-0.378 0.756-0.756 0.756v0h-13.417c-0.441 0-0.756-0.378-0.756-0.756v0-26.205c0-0.441 0.378-0.756 0.756-0.756h13.417c0.441 0 0.756 0.378 0.756 0.756v26.205z"></path>
<path d="M10.646 9.134c0-0.252-0.126-0.441-0.315-0.567l-0.441-0.126-0.252 0.315-5.795 9.386h3.087v6.866c0 0.252 0.126 0.441 0.315 0.567l0.441 0.189 0.252-0.315 5.228-9.953h-2.52v-6.362zM11.402 16.567l-3.402 6.488v-5.921h-2.268l3.843-6.173v5.669h1.827z"></path>
</svg>
