<!-- Generated by IcoMoon.io -->
<svg version="1.1" xmlns="http://www.w3.org/2000/svg" width="32" height="32" viewBox="0 0 32 32">
<path d="M16.938 7.625c-2.344 0-4.14 2.132-3.677 4.499 0.348 1.778 1.996 2.957 3.799 3.003 2.711 0.070 4.918 2.48 4.518 5.358-0.316 2.273-2.423 4.015-4.876 4.015h-1.64c-2.585 0-4.688-2.103-4.688-4.688v-16.063c0-2.068-1.682-3.75-3.75-3.75s-3.75 1.682-3.75 3.75v16.063c0 6.72 5.467 12.188 12.188 12.188h1.484c6.269-0 11.698-4.524 12.476-10.588 0.954-7.437-4.848-13.787-12.085-13.787zM27.163 21.173c-0.655 5.103-5.219 8.952-10.616 8.952h-1.484c-5.686 0-10.313-4.626-10.313-10.313v-16.063c0-1.034 0.841-1.875 1.875-1.875s1.875 0.841 1.875 1.875v16.063c0 3.619 2.944 6.563 6.563 6.563h1.64c3.369 0 6.286-2.412 6.733-5.632 0.555-3.999-2.511-7.393-6.327-7.491-0.857-0.022-1.822-0.54-2.007-1.489-0.241-1.231 0.692-2.264 1.837-2.264 6.015 0 11.048 5.258 10.225 11.673z"></path>
</svg>
