<!-- Generated by IcoMoon.io -->
<svg version="1.1" xmlns="http://www.w3.org/2000/svg" width="32" height="32" viewBox="0 0 32 32">
<path d="M27.313 0h-22.625c-2.585 0-4.688 2.103-4.688 4.688v22.625c0 2.585 2.103 4.688 4.688 4.688h22.625c2.585 0 4.688-2.103 4.688-4.688v-22.625c0-2.585-2.103-4.688-4.688-4.688zM30.125 27.313c0 1.551-1.262 2.813-2.813 2.813h-22.625c-1.551 0-2.813-1.262-2.813-2.813v-22.625c0-1.551 1.262-2.813 2.813-2.813h22.625c1.551 0 2.813 1.262 2.813 2.813z"></path>
<path d="M15.063 13.188c0-2.068-1.682-3.75-3.75-3.75h-5.625v13.125h5.625c2.068 0 3.75-1.682 3.75-3.75 0-1.119-0.493-2.125-1.274-2.813 0.78-0.688 1.274-1.693 1.274-2.813zM13.188 18.813c0 1.034-0.841 1.875-1.875 1.875h-3.75v-3.75h3.75c1.034 0 1.875 0.841 1.875 1.875zM7.563 15.063v-3.75h3.75c1.034 0 1.875 0.841 1.875 1.875s-0.841 1.875-1.875 1.875z"></path>
<path d="M21.625 13.188c-2.585 0-4.688 2.103-4.688 4.688s2.103 4.688 4.688 4.688c1.668 0 3.224-0.898 4.060-2.343l-1.623-0.939c-0.502 0.868-1.436 1.407-2.437 1.407-1.222 0-2.265-0.784-2.652-1.875h7.339v-0.938c0-2.585-2.103-4.688-4.688-4.688zM18.973 16.938c0.387-1.091 1.429-1.875 2.652-1.875s2.265 0.784 2.652 1.875z"></path>
<path d="M17.875 9.438h7.5v1.875h-7.5z"></path>
</svg>
