<!-- Generated by IcoMoon.io -->
<svg version="1.1" xmlns="http://www.w3.org/2000/svg" width="32" height="32" viewBox="0 0 32 32">
<path d="M12.915 15.327c0 0 3.028-0.225 3.028-3.776s-2.477-5.284-5.616-5.284h-10.327v19.846h10.327c0 0 6.304 0.199 6.304-5.857 0 0 0.275-4.928-3.716-4.928zM4.55 9.794h5.777c0 0 1.404 0 1.404 2.065s-0.826 2.364-1.762 2.364h-5.419v-4.428zM10.060 22.586h-5.51v-5.304h5.777c0 0 2.092-0.027 2.092 2.726 0 2.295-1.53 2.555-2.359 2.578zM20.77 7.436h8.188v2.444h-8.188v-2.444zM25.039 11.316c-7.632 0-7.625 7.624-7.625 7.624s-0.523 7.587 7.625 7.587c0 0 6.791 0.388 6.791-5.278h-3.493c0 0 0.117 2.135-3.182 2.135 0 0-3.492 0.233-3.492-3.454h10.283c0 0 1.125-8.614-6.908-8.614zM28.143 17.282h-6.519c0 0 0.427-3.059 3.492-3.059s3.027 3.059 3.027 3.059z"></path>
</svg>
