<!-- Generated by IcoMoon.io -->
<svg version="1.1" xmlns="http://www.w3.org/2000/svg" width="32" height="32" viewBox="0 0 32 32">
<path d="M27.388 26.346l-1.561-2.93v-7.236c0-4.473-3.004-8.257-7.1-9.442v-3.612c0-1.504-1.223-2.727-2.727-2.727s-2.727 1.223-2.727 2.727v3.612c-4.096 1.185-7.1 4.969-7.1 9.442v7.236l-1.561 2.93c-0.301 0.564-0.284 1.228 0.045 1.776s0.907 0.875 1.546 0.875h6.197c0.106 1.894 1.679 3.402 3.599 3.402s3.493-1.508 3.599-3.402h6.197c0.639 0 1.217-0.327 1.546-0.875s0.346-1.212 0.045-1.776zM14.716 3.127c0-0.708 0.576-1.284 1.284-1.284s1.284 0.576 1.284 1.284v3.311c-0.42-0.055-0.849-0.084-1.284-0.084s-0.864 0.029-1.284 0.084v-3.311zM7.616 16.181c0-4.623 3.761-8.384 8.384-8.384s8.384 3.761 8.384 8.384v6.639h-16.768v-6.639zM16 30.957c-1.124 0-2.050-0.862-2.152-1.959h4.305c-0.103 1.097-1.029 1.959-2.152 1.959zM26.106 27.38c-0.032 0.053-0.125 0.175-0.309 0.175h-19.593c-0.184 0-0.278-0.122-0.309-0.175s-0.096-0.193-0.009-0.355l1.472-2.762h17.286l1.472 2.762c0.087 0.163 0.022 0.303-0.009 0.355zM16 9.72c-3.563 0-6.461 2.899-6.461 6.461 0 0.398 0.323 0.721 0.721 0.721s0.721-0.323 0.721-0.721c0-2.767 2.251-5.018 5.018-5.018 0.398 0 0.721-0.323 0.721-0.721s-0.323-0.721-0.721-0.721z"></path>
</svg>
