<!-- Generated by IcoMoon.io -->
<svg version="1.1" xmlns="http://www.w3.org/2000/svg" width="32" height="32" viewBox="0 0 32 32">
<path d="M31.489 6.962h-1.597v-2.683c0-0.319-0.256-0.511-0.511-0.511h-3.194c-0.319 0-0.511 0.255-0.511 0.511v2.683h-2.108v-4.279c0-1.469-1.214-2.683-2.683-2.683h-9.581c-1.469 0-2.683 1.214-2.683 2.683v4.279h-2.236v-2.683c0-0.319-0.255-0.511-0.511-0.511h-3.194c-0.319 0-0.511 0.255-0.511 0.511v2.683h-1.661c-0.319 0-0.511 0.255-0.511 0.511v3.194c0 0.319 0.256 0.511 0.511 0.511h2.108v16.543h-1.533c-0.319 0-0.511 0.256-0.511 0.511v3.194c0 0.319 0.256 0.511 0.511 0.511h29.892c0.319 0 0.511-0.256 0.511-0.511v-3.194c0-0.319-0.256-0.511-0.511-0.511h-1.597v-16.543h2.108c0.319 0 0.511-0.255 0.511-0.511v-3.194c0-0.319-0.192-0.511-0.511-0.511zM26.699 4.79h2.108v2.108h-2.108v-2.108zM9.581 2.683c0-0.894 0.703-1.597 1.597-1.597h9.581c0.894 0 1.597 0.703 1.597 1.597v4.279h-1.086v-3.194c0-0.894-0.703-1.597-1.597-1.597h-7.409c-0.894 0-1.597 0.703-1.597 1.597v3.194h-1.086v-4.279zM11.752 6.962v-3.194c0-0.319 0.255-0.511 0.511-0.511h7.473c0.319 0 0.511 0.256 0.511 0.511v3.194h-8.495zM3.194 4.79h2.108v2.108h-2.108v-2.108zM30.403 30.978h-28.806v-2.108h28.806v2.108zM28.295 27.721h-24.591v-16.543h24.527v16.543zM30.978 10.156h-29.892v-2.108h29.892v2.108z"></path>
<path d="M11.242 20.503c0.064 0.192 0.255 0.319 0.511 0.319h2.363l-1.788 4.024c-0.128 0.256 0 0.511 0.192 0.639s0.511 0.128 0.703-0.064l6.962-6.387c0.192-0.128 0.192-0.383 0.128-0.575s-0.256-0.319-0.511-0.319h-2.938l1.788-4.024c0.128-0.255 0-0.511-0.192-0.639s-0.511-0.128-0.703 0.064l-6.387 6.387c-0.128 0.128-0.192 0.383-0.128 0.575zM16.479 16.287l-0.958 2.172c-0.064 0.192-0.064 0.383 0.064 0.511s0.255 0.256 0.447 0.256h2.363l-4.024 3.705 1.086-2.427c0.064-0.192 0.064-0.383-0.064-0.511s-0.255-0.256-0.447-0.256h-1.916l3.449-3.449z"></path>
<path d="M7.984 16.032h1.086v1.086c0 0.319 0.255 0.511 0.511 0.511s0.511-0.256 0.511-0.511v-1.086h1.086c0.319 0 0.511-0.255 0.511-0.511 0-0.319-0.255-0.511-0.511-0.511h-1.086v-1.086c0-0.319-0.255-0.511-0.511-0.511s-0.511 0.255-0.511 0.511v1.086h-1.086c-0.319 0-0.511 0.255-0.511 0.511s0.255 0.511 0.511 0.511z"></path>
<path d="M21.333 16.032h2.683c0.319 0 0.511-0.255 0.511-0.511 0-0.319-0.256-0.511-0.511-0.511h-2.683c-0.319 0-0.511 0.255-0.511 0.511s0.256 0.511 0.511 0.511z"></path>
<path d="M4.79 25.613h2.108v1.086h-2.108v-1.086z"></path>
<path d="M7.984 25.613h1.086v1.086h-1.086v-1.086z"></path>
<path d="M22.93 21.333h2.108v1.086h-2.108v-1.086z"></path>
<path d="M26.124 21.333h1.086v1.086h-1.086v-1.086z"></path>
<path d="M22.93 26.699h4.279v-3.194h-4.279v3.194zM24.016 24.527h2.108v1.086h-2.108v-1.086z"></path>
</svg>
