<!-- Generated by IcoMoon.io -->
<svg version="1.1" xmlns="http://www.w3.org/2000/svg" width="32" height="32" viewBox="0 0 32 32">
<path d="M8.8 14.403c-1.325 0-2.403-1.078-2.403-2.403s1.078-2.403 2.403-2.403 2.403 1.078 2.403 2.403-1.078 2.403-2.403 2.403zM8.8 11.197c-0.443 0-0.803 0.36-0.803 0.803s0.36 0.803 0.803 0.803 0.803-0.36 0.803-0.803-0.36-0.803-0.803-0.803zM15.2 27.2c-0.442 0-0.8-0.358-0.8-0.8v-4.797c0-1.235 0.93-2.469 2.118-2.809l2.4-0.687-5.216-3.477-2.736 2.736c-0.15 0.15-0.354 0.234-0.566 0.234h-3.203c-0.442 0-0.8-0.358-0.8-0.8s0.358-0.8 0.8-0.8h2.872l2.966-2.966c0.27-0.27 0.692-0.311 1.009-0.1l5.869 3.913c0.88 0.586 0.877 1.276 0.835 1.545s-0.249 0.927-1.266 1.218l-2.524 0.722c-0.502 0.144-0.958 0.75-0.958 1.271v4.797c0 0.442-0.358 0.8-0.8 0.8zM24 32c-3.529 0-6.4-2.871-6.4-6.4s2.871-6.4 6.4-6.4 6.4 2.871 6.4 6.4-2.871 6.4-6.4 6.4zM24 20.8c-2.647 0-4.8 2.153-4.8 4.8s2.153 4.8 4.8 4.8 4.8-2.153 4.8-4.8-2.153-4.8-4.8-4.8zM6.398 32c-3.528 0-6.398-2.87-6.398-6.398s2.87-6.398 6.398-6.398 6.398 2.87 6.398 6.398-2.87 6.398-6.398 6.398zM6.398 20.803c-2.646 0-4.798 2.153-4.798 4.798s2.153 4.798 4.798 4.798 4.798-2.153 4.798-4.798-2.153-4.798-4.798-4.798z"></path>
</svg>
