<!-- Generated by IcoMoon.io -->
<svg version="1.1" xmlns="http://www.w3.org/2000/svg" width="32" height="32" viewBox="0 0 32 32">
<path d="M9.117 32h13.061c0.938-0.001 1.697-0.761 1.699-1.698v-20.702c-0.001-0.938-0.761-1.697-1.699-1.698h-1.567v-1.409l3.538 0.056c0.105 0.002 0.207-0.039 0.281-0.113s0.117-0.175 0.117-0.28v-3.797c-0.002-1.303-1.057-2.359-2.36-2.36h-9.152c-1.298 0.002-2.35 1.053-2.352 2.351v5.55h-1.567c-0.938 0.001-1.697 0.761-1.699 1.698v20.702c0.001 0.938 0.761 1.697 1.699 1.698zM20.611 10.645h0.521v3.134h-0.521zM23.762 2.36v3.398l-3.152-0.050v-3.348c0-0.87 0.705-1.576 1.576-1.576s1.576 0.706 1.576 1.576zM11.468 2.351c0.001-0.865 0.702-1.566 1.567-1.567h7.396c-0.39 0.432-0.605 0.994-0.605 1.576v11.419h-8.358zM10.162 13.779v-3.133h0.521v3.134zM8.203 9.6c0.001-0.504 0.409-0.913 0.914-0.914h1.567v1.175h-0.914c-0.217 0-0.392 0.176-0.392 0.392v3.918c0 0.217 0.175 0.392 0.392 0.392h11.755c0.217 0 0.392-0.175 0.392-0.392v-3.918c0-0.217-0.176-0.392-0.392-0.392h-0.914v-1.175h1.567c0.505 0.001 0.913 0.409 0.914 0.914v20.702c-0.001 0.504-0.409 0.913-0.914 0.914h-13.061c-0.505-0-0.913-0.409-0.914-0.914z"></path>
<path d="M9.77 20.115h2.612c0.217 0 0.392-0.176 0.392-0.392v-2.612c0-0.217-0.175-0.392-0.392-0.392h-2.612c-0.217 0-0.392 0.175-0.392 0.392v2.612c0 0.217 0.175 0.392 0.392 0.392zM10.162 17.502h1.828v1.828h-1.828z"></path>
<path d="M14.145 20.115h2.612c0.217 0 0.392-0.176 0.392-0.392v-2.612c0-0.217-0.176-0.392-0.392-0.392h-2.612c-0.217 0-0.392 0.175-0.392 0.392v2.612c0 0.217 0.176 0.392 0.392 0.392zM14.537 17.502h1.828v1.828h-1.828z"></path>
<path d="M18.912 20.115h2.612c0.217 0 0.392-0.176 0.392-0.392v-2.612c0-0.217-0.176-0.392-0.392-0.392h-2.612c-0.217 0-0.392 0.175-0.392 0.392v2.612c0 0.217 0.176 0.392 0.392 0.392zM19.305 17.502h1.828v1.828h-1.828z"></path>
<path d="M9.77 24.686h2.612c0.217 0 0.392-0.176 0.392-0.392v-2.613c0-0.217-0.175-0.392-0.392-0.392h-2.612c-0.217 0-0.392 0.176-0.392 0.392v2.613c0 0.217 0.175 0.392 0.392 0.392zM10.162 22.074h1.828v1.828h-1.828z"></path>
<path d="M14.145 24.686h2.612c0.217 0 0.392-0.176 0.392-0.392v-2.613c0-0.217-0.176-0.392-0.392-0.392h-2.612c-0.217 0-0.392 0.176-0.392 0.392v2.613c0 0.217 0.176 0.392 0.392 0.392zM14.537 22.074h1.828v1.828h-1.828z"></path>
<path d="M18.912 24.686h2.612c0.217 0 0.392-0.176 0.392-0.392v-2.613c0-0.217-0.176-0.392-0.392-0.392h-2.612c-0.217 0-0.392 0.176-0.392 0.392v2.613c0 0.217 0.176 0.392 0.392 0.392zM19.305 22.074h1.828v1.828h-1.828z"></path>
<path d="M9.77 29.257h2.612c0.217 0 0.392-0.176 0.392-0.392v-2.612c0-0.217-0.175-0.392-0.392-0.392h-2.612c-0.217 0-0.392 0.175-0.392 0.392v2.612c0 0.217 0.175 0.392 0.392 0.392zM10.162 26.645h1.828v1.828h-1.828z"></path>
<path d="M14.145 29.257h2.612c0.217 0 0.392-0.176 0.392-0.392v-2.612c0-0.217-0.176-0.392-0.392-0.392h-2.612c-0.217 0-0.392 0.175-0.392 0.392v2.612c0 0.217 0.176 0.392 0.392 0.392zM14.537 26.645h1.828v1.828h-1.828z"></path>
<path d="M18.912 29.257h2.612c0.217 0 0.392-0.176 0.392-0.392v-2.612c0-0.217-0.176-0.392-0.392-0.392h-2.612c-0.217 0-0.392 0.175-0.392 0.392v2.612c0 0.217 0.176 0.392 0.392 0.392zM19.305 26.645h1.828v1.828h-1.828z"></path>
<path d="M13.49 11.775c-0.002 0-0.005 0-0.007 0s-0.005 0-0.007 0c-0.318-0.004-0.574-0.263-0.574-0.581 0-0.217-0.176-0.392-0.392-0.392s-0.392 0.176-0.392 0.392c0.001 0.603 0.396 1.134 0.973 1.308v0.245c0 0.217 0.176 0.392 0.392 0.392s0.392-0.175 0.392-0.392v-0.245c0.65-0.194 1.058-0.836 0.96-1.507s-0.674-1.168-1.352-1.167c-0.321 0-0.581-0.26-0.581-0.581s0.26-0.581 0.581-0.581 0.581 0.26 0.581 0.581c0 0.217 0.176 0.392 0.392 0.392s0.392-0.176 0.392-0.392c-0.001-0.603-0.396-1.134-0.973-1.308v-0.201c0-0.217-0.176-0.392-0.392-0.392s-0.392 0.175-0.392 0.392v0.201c-0.65 0.194-1.059 0.836-0.96 1.506s0.674 1.168 1.352 1.167c0.319 0.001 0.578 0.259 0.579 0.578s-0.254 0.58-0.573 0.585z"></path>
<path d="M17.845 4.672h0.813c0.217 0 0.392-0.175 0.392-0.392s-0.176-0.392-0.392-0.392h-0.813c-0.217 0-0.392 0.176-0.392 0.392s0.176 0.392 0.392 0.392z"></path>
<path d="M12.509 4.672h3.93c0.217 0 0.392-0.175 0.392-0.392s-0.176-0.392-0.392-0.392h-3.93c-0.217 0-0.392 0.176-0.392 0.392s0.175 0.392 0.392 0.392z"></path>
<path d="M17.192 12.474h1.466c0.217 0 0.392-0.176 0.392-0.392s-0.175-0.392-0.392-0.392h-1.466c-0.217 0-0.392 0.175-0.392 0.392s0.176 0.392 0.392 0.392z"></path>
<path d="M16.104 11.689h-0.218c-0.217 0-0.392 0.175-0.392 0.392s0.176 0.392 0.392 0.392h0.218c0.217 0 0.392-0.176 0.392-0.392s-0.175-0.392-0.392-0.392z"></path>
<path d="M12.509 6.631h3.93c0.217 0 0.392-0.176 0.392-0.392s-0.176-0.392-0.392-0.392h-3.93c-0.217 0-0.392 0.176-0.392 0.392s0.175 0.392 0.392 0.392z"></path>
<path d="M17.845 2.713h0.813c0.217 0 0.392-0.176 0.392-0.392s-0.176-0.392-0.392-0.392h-0.813c-0.217 0-0.392 0.175-0.392 0.392s0.176 0.392 0.392 0.392z"></path>
<path d="M12.509 2.713h3.93c0.217 0 0.392-0.176 0.392-0.392s-0.176-0.392-0.392-0.392h-3.93c-0.217 0-0.392 0.175-0.392 0.392s0.175 0.392 0.392 0.392z"></path>
</svg>
