<!-- Generated by IcoMoon.io -->
<svg version="1.1" xmlns="http://www.w3.org/2000/svg" width="32" height="32" viewBox="0 0 32 32">
<path d="M0 21.688c0 5.686 4.626 10.313 10.313 10.313h11.375c5.686 0 10.313-4.626 10.313-10.313v-10.438h-4.688c-0.517 0-0.938-0.421-0.938-0.938 0-5.686-4.626-10.313-10.313-10.313h-5.75c-5.686 0-10.313 4.626-10.313 10.313zM1.875 10.313c0-4.652 3.785-8.438 8.438-8.438h5.75c4.652 0 8.438 3.785 8.438 8.438 0 1.551 1.262 2.813 2.813 2.813h2.813v8.563c0 4.652-3.785 8.438-8.438 8.438h-11.375c-4.652 0-8.438-3.785-8.438-8.438z"></path>
<path d="M9.375 13.125h7.625c2.068 0 3.75-1.682 3.75-3.75s-1.682-3.75-3.75-3.75h-7.625c-2.068 0-3.75 1.682-3.75 3.75s1.682 3.75 3.75 3.75zM9.375 7.5h7.625c1.034 0 1.875 0.841 1.875 1.875s-0.841 1.875-1.875 1.875h-7.625c-1.034 0-1.875-0.841-1.875-1.875s0.841-1.875 1.875-1.875z"></path>
<path d="M9.375 26.375h13.25c2.068 0 3.75-1.682 3.75-3.75s-1.682-3.75-3.75-3.75h-13.25c-2.068 0-3.75 1.682-3.75 3.75s1.682 3.75 3.75 3.75zM9.375 20.75h13.25c1.034 0 1.875 0.841 1.875 1.875s-0.841 1.875-1.875 1.875h-13.25c-1.034 0-1.875-0.841-1.875-1.875s0.841-1.875 1.875-1.875z"></path>
</svg>
