<!-- Generated by IcoMoon.io -->
<svg version="1.1" xmlns="http://www.w3.org/2000/svg" width="32" height="32" viewBox="0 0 32 32">
<path d="M31.184 12.38c-0.676-0.288-3.574 0.032-4.378-0.694-0.568-0.524-0.604-1.472-0.826-2.736-0.372-2.118-0.526-2.598-0.912-3.432-1.406-2.972-4.774-5.518-7.834-5.518h-7.094c-5.58 0-10.14 4.554-10.14 10.114v11.792c0 5.55 4.56 10.094 10.14 10.094h11.654c5.58 0 10.11-4.544 10.142-10.094l0.064-8.166c0 0 0-1.010-0.816-1.36zM10.268 8.266h5.624c1.072 0 1.942 0.866 1.942 1.924 0 1.060-0.87 1.934-1.942 1.934h-5.624c-1.072 0-1.942-0.876-1.942-1.934 0-1.060 0.87-1.924 1.942-1.924zM21.698 23.682h-11.43c-1.072 0-1.942-0.876-1.942-1.924 0-1.058 0.87-1.924 1.942-1.924h11.43c1.062 0 1.932 0.866 1.932 1.924 0 1.048-0.87 1.924-1.932 1.924z"></path>
</svg>
