<!-- Generated by IcoMoon.io -->
<svg version="1.1" xmlns="http://www.w3.org/2000/svg" width="32" height="32" viewBox="0 0 32 32">
<path d="M21.831 20.999l-5.491-4.681 5.476-4.512c0.206-0.17 0.325-0.42 0.326-0.687s-0.116-0.518-0.321-0.69l-5.779-4.832c-0.269-0.225-0.634-0.273-0.953-0.124s-0.516 0.459-0.516 0.81v8.529l-3.702-3.156c-0.289-0.247-0.724-0.212-0.97 0.077s-0.212 0.724 0.077 0.97l4.219 3.597-4.21 3.468c-0.293 0.242-0.335 0.675-0.094 0.969s0.675 0.335 0.969 0.093l3.711-3.057v8.745c0 0.351 0.198 0.662 0.516 0.81 0.123 0.057 0.252 0.085 0.381 0.085 0.205 0 0.406-0.071 0.572-0.21l5.782-4.838c0.202-0.169 0.319-0.418 0.32-0.682s-0.113-0.514-0.314-0.685zM15.95 7.314l4.543 3.799-4.543 3.743v-7.542zM15.95 25.486v-7.692l4.554 3.883-4.554 3.81zM27.314 5.086c-3.022-3.022-7.040-4.686-11.314-4.686s-8.292 1.664-11.314 4.686c-3.022 3.022-4.686 7.040-4.686 11.314s1.664 8.292 4.686 11.314c3.022 3.022 7.040 4.686 11.314 4.686s8.292-1.664 11.314-4.686c3.022-3.022 4.686-7.040 4.686-11.314s-1.664-8.292-4.686-11.314zM16 31.024c-8.063 0-14.624-6.56-14.624-14.624s6.56-14.624 14.624-14.624 14.624 6.56 14.624 14.624-6.56 14.624-14.624 14.624z"></path>
</svg>
