<!-- Generated by IcoMoon.io -->
<svg version="1.1" xmlns="http://www.w3.org/2000/svg" width="32" height="32" viewBox="0 0 32 32">
<path d="M24.8 32c-0.229 0-0.453-0.099-0.608-0.279l-8.993-10.491-8.993 10.491c-0.218 0.254-0.571 0.346-0.885 0.23s-0.522-0.416-0.522-0.75v-28.8c0-0.442 0.358-0.8 0.8-0.8h19.2c0.442 0 0.8 0.358 0.8 0.8v28.8c0 0.335-0.208 0.634-0.522 0.75-0.091 0.034-0.184 0.050-0.277 0.050zM15.2 19.2c0.234 0 0.455 0.102 0.607 0.279l8.193 9.558v-25.837h-17.6v25.837l8.193-9.558c0.152-0.177 0.374-0.279 0.607-0.279z"></path>
</svg>
