<!-- Generated by IcoMoon.io -->
<svg version="1.1" xmlns="http://www.w3.org/2000/svg" width="32" height="32" viewBox="0 0 32 32">
<path d="M26.905 0.4h-18.553c-2.188 0-3.968 1.78-3.968 3.968v24.064c0 2.188 1.78 3.968 3.968 3.968h18.553c0.393 0 0.711-0.318 0.711-0.711 0-0.015-0.001-0.030-0.002-0.045 0.001-0.015 0.002-0.030 0.002-0.045v-30.488c-0-0.393-0.319-0.711-0.711-0.711zM7.641 30.876c-1.059-0.309-1.835-1.287-1.835-2.444v-21.023c0.517 0.433 1.145 0.737 1.835 0.862v22.605zM8.352 6.914c-1.404 0-2.546-1.142-2.546-2.546s1.142-2.546 2.546-2.546h15.512c-0.578 0.69-0.927 1.578-0.927 2.546s0.349 1.856 0.927 2.546h-15.512zM21.571 8.336v4.173l-0.849-0.632c-0.252-0.188-0.598-0.188-0.85 0l-0.858 0.64v-4.18h2.557zM26.194 30.978h-17.13v-22.641h8.528v5.598c0 0.269 0.152 0.515 0.392 0.636 0.101 0.051 0.21 0.075 0.319 0.075 0.151 0 0.3-0.048 0.425-0.141l1.569-1.17 1.56 1.162c0.216 0.161 0.504 0.186 0.744 0.065s0.392-0.367 0.392-0.636v-5.589h3.2v22.641zM26.194 6.812c-1.059-0.309-1.835-1.287-1.835-2.444s0.776-2.135 1.834-2.444v4.888zM21.117 17.429h-6.977c-0.393 0-0.711 0.318-0.711 0.711s0.319 0.711 0.711 0.711h6.977c0.393 0 0.711-0.318 0.711-0.711s-0.319-0.711-0.711-0.711zM23.105 21.885h-10.952c-0.393 0-0.711 0.318-0.711 0.711s0.318 0.711 0.711 0.711h10.952c0.393 0 0.711-0.318 0.711-0.711s-0.318-0.711-0.711-0.711z"></path>
</svg>
