<!-- Generated by IcoMoon.io -->
<svg version="1.1" xmlns="http://www.w3.org/2000/svg" width="32" height="32" viewBox="0 0 32 32">
<path d="M19.125 5.188c-0.345 0-0.625 0.28-0.625 0.625s0.28 0.625 0.625 0.625c0.345 0 0.625-0.28 0.625-0.625s-0.28-0.625-0.625-0.625z"></path>
<path d="M12.875 5.188c-0.345 0-0.625 0.28-0.625 0.625s0.28 0.625 0.625 0.625 0.625-0.28 0.625-0.625-0.28-0.625-0.625-0.625z"></path>
<path d="M29.57 18.68c0.536-0.805 0.805-1.81 0.805-2.68 0-1.312-0.583-2.531-1.583-3.358 0.221-0.529 0.333-1.079 0.333-1.642 0-1.741-1.016-3.363-2.527-4.12 0.229-1.901-1.009-3.643-2.845-4.088-0.718-1.661-2.317-2.792-4.003-2.792-1.569 0-2.977 0.915-3.75 2.251-0.773-1.336-2.181-2.251-3.75-2.251-1.686 0-3.285 1.131-4.003 2.792-1.847 0.447-3.074 2.198-2.845 4.088-1.51 0.757-2.527 2.379-2.527 4.12 0 0.563 0.112 1.113 0.333 1.642-1 0.827-1.583 2.046-1.583 3.358 0 0.875 0.271 1.878 0.805 2.68-0.522 0.737-0.805 1.61-0.805 2.507 0 1.163 0.472 2.272 1.306 3.095-0.429 2.593 1.639 5.218 4.319 5.218 0.019 0 0.038-0 0.057-0.001 0.888 1.533 2.538 2.501 4.318 2.501 1.855 0 3.514-1.114 4.375-2.718 0.861 1.605 2.52 2.718 4.375 2.718 1.78 0 3.429-0.968 4.318-2.501 0.019 0.001 0.038 0.001 0.057 0.001 2.372 0 4.375-2.089 4.375-4.563 0-0.211-0.018-0.427-0.056-0.655 0.834-0.823 1.306-1.931 1.306-3.095 0-0.897-0.283-1.771-0.805-2.507zM15.375 9.461c-0.368-0.213-0.795-0.336-1.25-0.336-0.345 0-0.625 0.28-0.625 0.625s0.28 0.625 0.625 0.625c0.689 0 1.25 0.561 1.25 1.25v11.886c-0.917-1.040-2.258-1.698-3.75-1.698-0.345 0-0.625 0.28-0.625 0.625s0.28 0.625 0.625 0.625c2.068 0 3.75 1.682 3.75 3.75 0 2.134-1.717 3.938-3.75 3.938-1.447 0-2.779-0.856-3.394-2.18-0.113-0.244-0.37-0.388-0.638-0.358-0.044 0.005-0.088 0.011-0.132 0.017-1.779 0.243-3.782-1.771-3.24-4.024 0.056-0.231-0.025-0.474-0.208-0.627-0.724-0.602-1.139-1.474-1.139-2.391 0-0.567 0.16-1.122 0.459-1.608 0.75 0.614 1.682 0.983 2.666 0.983 0.345 0 0.625-0.28 0.625-0.625s-0.28-0.625-0.625-0.625c-1.696 0-3.125-1.548-3.125-3.313 0-1.070 0.546-2.055 1.46-2.634 0.282-0.178 0.374-0.546 0.209-0.836-0.278-0.49-0.419-1.005-0.419-1.53 0-1.687 1.375-3.313 3.125-3.313 1.665 0 3.125 1.548 3.125 3.313 0 0.345 0.28 0.625 0.625 0.625s0.625-0.28 0.625-0.625c0-2.473-2.003-4.563-4.375-4.563-0.209 0-0.417 0.017-0.623 0.049-0-0.016-0.002-0.032-0.002-0.049 0-1.395 1.132-2.5 2.5-2.5 0.668 0 1.296 0.26 1.768 0.732 0.244 0.244 0.64 0.244 0.884-0s0.244-0.64-0-0.884c-0.57-0.57-1.291-0.933-2.073-1.053 0.551-0.818 1.468-1.482 2.546-1.482 1.665 0 3.125 1.548 3.125 3.313v4.899zM26 20.563c0.984 0 1.917-0.369 2.666-0.983 0.298 0.486 0.459 1.041 0.459 1.608 0 0.917-0.415 1.788-1.139 2.391-0.183 0.152-0.264 0.395-0.208 0.627 0.066 0.275 0.097 0.508 0.097 0.733 0 1.94-1.755 3.508-3.337 3.292-0.044-0.006-0.088-0.012-0.132-0.017-0.268-0.030-0.524 0.114-0.637 0.358-0.615 1.324-1.947 2.18-3.394 2.18-2.033 0-3.75-1.803-3.75-3.938 0-2.068 1.682-3.75 3.75-3.75 0.345 0 0.625-0.28 0.625-0.625s-0.28-0.625-0.625-0.625c-1.492 0-2.833 0.658-3.75 1.698v-11.886c0-0.689 0.561-1.25 1.25-1.25 0.345 0 0.625-0.28 0.625-0.625s-0.28-0.625-0.625-0.625c-0.455 0-0.882 0.123-1.25 0.336v-4.899c0-1.765 1.46-3.313 3.125-3.313 1.078 0 1.995 0.664 2.546 1.482-0.782 0.12-1.503 0.484-2.073 1.053-0.244 0.244-0.244 0.64-0.001 0.884s0.64 0.244 0.884 0c0.473-0.472 1.101-0.732 1.768-0.732 1.375 0 2.5 1.112 2.5 2.5 0 0.016-0.001 0.033-0.002 0.049-0.206-0.032-0.414-0.049-0.623-0.049-2.372 0-4.375 2.089-4.375 4.562 0 0.345 0.28 0.625 0.625 0.625s0.625-0.28 0.625-0.625c0-1.765 1.46-3.313 3.125-3.313 1.749 0 3.125 1.625 3.125 3.313 0 0.525-0.141 1.040-0.419 1.53-0.164 0.29-0.072 0.658 0.209 0.836 0.914 0.579 1.459 1.564 1.459 2.634 0 1.771-1.434 3.313-3.125 3.313-0.345 0-0.625 0.28-0.625 0.625s0.28 0.625 0.625 0.625z"></path>
<path d="M13.966 13.378c-0.23-0.257-0.625-0.279-0.883-0.049-2.004 1.793-5.208 0.36-5.208-2.329 0-0.345-0.28-0.625-0.625-0.625s-0.625 0.28-0.625 0.625c0 2.17 1.588 3.975 3.662 4.316-0.241 0.758-0.951 1.309-1.787 1.309-0.345 0-0.625 0.28-0.625 0.625s0.28 0.625 0.625 0.625c1.522 0 2.793-1.094 3.069-2.538 0.869-0.114 1.687-0.486 2.348-1.077 0.257-0.23 0.279-0.625 0.049-0.883z"></path>
<path d="M7.25 24.313c-0.345 0-0.625 0.28-0.625 0.625s0.28 0.625 0.625 0.625c1.665 0 3.125 1.548 3.125 3.313 0 0.345 0.28 0.625 0.625 0.625s0.625-0.28 0.625-0.625c0-2.473-2.003-4.563-4.375-4.563z"></path>
<path d="M12.25 19.313c-2.118 0-3.936 1.162-4.894 2.851-0.17 0.3-0.065 0.682 0.236 0.852s0.682 0.065 0.852-0.235c0.746-1.316 2.161-2.217 3.806-2.217 0.345 0 0.625-0.28 0.625-0.625s-0.28-0.625-0.625-0.625z"></path>
<path d="M23.5 16.625c-0.837 0-1.547-0.551-1.788-1.309 2.075-0.341 3.663-2.146 3.663-4.316 0-0.345-0.28-0.625-0.625-0.625s-0.625 0.28-0.625 0.625c0 1.723-1.402 3.125-3.125 3.125-0.77 0-1.51-0.283-2.083-0.796-0.257-0.23-0.652-0.208-0.883 0.049s-0.208 0.652 0.049 0.883c0.661 0.591 1.479 0.963 2.348 1.077 0.276 1.443 1.547 2.538 3.069 2.538 0.345 0 0.625-0.28 0.625-0.625s-0.28-0.625-0.625-0.625z"></path>
<path d="M24.75 24.313c-2.372 0-4.375 2.089-4.375 4.563 0 0.345 0.28 0.625 0.625 0.625s0.625-0.28 0.625-0.625c0-1.765 1.46-3.313 3.125-3.313 0.345 0 0.625-0.28 0.625-0.625s-0.28-0.625-0.625-0.625z"></path>
<path d="M24.644 22.163c-0.955-1.685-2.771-2.851-4.894-2.851-0.345 0-0.625 0.28-0.625 0.625s0.28 0.625 0.625 0.625c1.644 0 3.060 0.901 3.806 2.217 0.17 0.301 0.552 0.406 0.852 0.236s0.406-0.552 0.236-0.852z"></path>
</svg>
