<!-- Generated by IcoMoon.io -->
<svg version="1.1" xmlns="http://www.w3.org/2000/svg" width="32" height="32" viewBox="0 0 32 32">
<path d="M22.868 7.181c1.171 0 2.107-0.937 2.107-2.107s-0.937-2.107-2.107-2.107-2.107 0.937-2.107 2.107c0 1.171 0.937 2.107 2.107 2.107zM22.868 3.824c0.702 0 1.327 0.546 1.327 1.327 0 0.702-0.546 1.327-1.327 1.327s-1.327-0.546-1.327-1.327c0-0.78 0.624-1.327 1.327-1.327z"></path>
<path d="M12.878 21.151c0.078 0.078 0.156 0.078 0.312 0.078s0.234 0 0.312-0.078c0.156-0.156 0.156-0.39 0-0.546l-6.088-6.088c-0.156-0.156-0.39-0.156-0.546 0s-0.156 0.39 0 0.546l6.010 6.088z"></path>
<path d="M9.834 22.244c0.078 0 0.234 0 0.312-0.078 0.156-0.156 0.156-0.39 0-0.546l-3.746-3.746c-0.156-0.156-0.39-0.156-0.546 0s-0.156 0.39 0 0.546l3.746 3.746c0.078 0.078 0.156 0.078 0.234 0.078z"></path>
<path d="M31.922 8.273c0-2.263-1.795-4.137-4.059-4.215-0.078-2.263-1.951-4.059-4.293-4.059h-7.259c-1.171 0-2.263 0.468-3.044 1.249l-12.020 12.098c-0.78 0.78-1.249 1.873-1.249 3.044s0.468 2.263 1.249 3.044l7.337 7.337c0.078 0.078 0.156 0.156 0.312 0.234 0 0.078 0.078 0.078 0.078 0.156l3.668 3.668c0.78 0.78 1.873 1.249 3.044 1.249 0 0 0 0 0 0 1.171 0 2.263-0.468 3.044-1.249l12.020-12.098c0.78-0.78 1.249-1.951 1.249-3.044l-0.078-7.415zM1.795 18.81c-0.702-0.702-1.015-1.561-1.015-2.498s0.39-1.795 1.015-2.498l12.098-12.020c0.702-0.702 1.561-1.015 2.498-1.015h7.259c1.951 0 3.512 1.561 3.512 3.512l0.078 7.337c0 0.937-0.39 1.873-1.015 2.498l-12.098 12.020c-0.702 0.702-1.561 1.015-2.498 1.015 0 0 0 0 0 0-0.937 0-1.795-0.39-2.498-1.015l-7.337-7.337zM30.205 18.185l-12.098 12.020c-0.702 0.702-1.561 1.015-2.498 1.015 0 0 0 0 0 0-0.937 0-1.795-0.39-2.498-1.015l-2.185-2.263c0.234 0.078 0.468 0.078 0.702 0.078 0 0 0 0 0 0 1.171 0 2.263-0.468 3.044-1.249l12.020-12.020c0.78-0.78 1.249-1.951 1.249-3.044l-0.078-6.79c1.795 0.156 3.2 1.639 3.278 3.434l0.078 7.259c0 0.937-0.39 1.873-1.015 2.576z"></path>
<path d="M14.205 13.815h0.937c0 0 0.078 0 0.078 0.078l0.468 0.78c0.156 0.234 0.468 0.39 0.702 0.39 0 0 0.078 0 0.078 0 0.312 0 0.624-0.234 0.702-0.546l0.312-0.859c0 0 0-0.078 0.078-0.078l0.859-0.234c0.312-0.078 0.546-0.312 0.624-0.624s-0.078-0.624-0.312-0.859l-0.702-0.546c0 0 0-0.078 0-0.078l0.078-0.937c0-0.312-0.156-0.624-0.468-0.78s-0.624-0.156-0.859 0.078l-0.78 0.468c0 0-0.078 0-0.078 0l-0.859-0.312c-0.312-0.156-0.624-0.078-0.937 0.156-0.234 0.234-0.312 0.546-0.234 0.859l0.234 0.937-0.624 0.702c-0.234 0.234-0.234 0.624-0.156 0.937 0.234 0.234 0.546 0.468 0.859 0.468zM14.205 12.878l0.546-0.702c0.156-0.234 0.234-0.468 0.156-0.78l-0.234-0.859c0 0 0-0.078 0-0.078s0 0 0.078 0c0 0 0 0 0 0l0.859 0.312c0.234 0.078 0.546 0.078 0.781-0.078l0.78-0.468h0.078c0 0 0.078 0 0 0.078l-0.078 0.937c0 0.312 0.078 0.546 0.312 0.702l0.702 0.546c0 0 0 0.078 0 0.078s0 0.078-0.078 0.078l-0.859 0.234c-0.312 0.078-0.468 0.312-0.624 0.546l-0.312 0.859c0 0 0 0.078-0.078 0.078 0 0-0.078 0-0.078 0l-0.468-0.78c-0.156-0.234-0.39-0.39-0.702-0.39h-0.937c0 0-0.078 0-0.078-0.078 0.156-0.156 0.156-0.234 0.234-0.234z"></path>
</svg>
