<!-- Generated by IcoMoon.io -->
<svg version="1.1" xmlns="http://www.w3.org/2000/svg" width="32" height="32" viewBox="0 0 32 32">
<path d="M27.064 14.206c-0.282-0.094-0.554-0.184-0.814-0.27-1.992-0.65-3.192-1.044-3.192-2.654 0-1.306 0.97-2.252 2.306-2.252 1.024 0 1.788 0.442 2.472 1.438 0.064 0.092 0.186 0.126 0.284 0.072l2.010-1.066c0.054-0.028 0.096-0.078 0.112-0.14s0.010-0.126-0.018-0.182c-1.078-1.988-2.63-2.954-4.748-2.954-3.222 0-5.306 2.026-5.306 5.16 0 3.204 2.016 4.502 5.732 5.772 2.152 0.746 3.106 1.14 3.106 2.732 0 1.79-1.554 3.076-3.674 3-2.222-0.078-2.894-1.3-3.74-3.304-1.432-3.394-3.062-7.354-3.076-7.392-1.634-3.92-4.876-6.166-8.894-6.166-5.306 0-9.624 4.486-9.624 10.002 0 5.512 4.318 9.998 9.624 9.998 2.894 0 5.608-1.332 7.444-3.658 0.052-0.068 0.066-0.16 0.032-0.24l-1.212-2.908c-0.034-0.080-0.112-0.136-0.198-0.14-0.088-0.004-0.166 0.046-0.206 0.124-1.146 2.274-3.392 3.686-5.86 3.686-3.642 0-6.604-3.078-6.604-6.864s2.962-6.864 6.604-6.864c2.652 0 5.080 1.634 6.046 4.074l3.002 7.11 0.346 0.798c1.356 3.282 3.35 4.754 6.472 4.766 3.712 0 6.51-2.556 6.51-5.944 0-3.398-1.81-4.674-4.936-5.734z"></path>
</svg>
