<!-- Generated by IcoMoon.io -->
<svg version="1.1" xmlns="http://www.w3.org/2000/svg" width="32" height="32" viewBox="0 0 32 32">
<path d="M0.533 32.062h25.6c0.295 0 0.533-0.239 0.533-0.533v-4.8h3.733c0.295 0 0.533-0.239 0.533-0.533v-5.334c0-0.294-0.239-0.533-0.533-0.533h-3.733v-4.8c0-0.295-0.239-0.533-0.533-0.533h-0.979c0.075-0.349-0.004-0.713-0.218-0.999l-2.41-3.212 1.113-0.835c0.494-0.37 0.77-0.963 0.736-1.58l-0.053-0.96c-0.015-0.261 0.102-0.511 0.311-0.667l1.113-0.834 0.468 0.624c0.085 0.113 0.211 0.188 0.351 0.208 0.025 0.003 0.050 0.005 0.075 0.005 0.115 0 0.228-0.037 0.32-0.107l4.4-3.301c0.707-0.53 0.85-1.533 0.32-2.24l-0.296-0.395c-0.531-0.706-1.533-0.849-2.24-0.319l-4.4 3.301c-0.236 0.177-0.283 0.511-0.107 0.747l0.468 0.624-1.113 0.835c-0.494 0.37-0.771 0.963-0.736 1.58l0.053 0.96c0.015 0.261-0.102 0.511-0.311 0.667l-1.113 0.835-2.41-3.212c-0.252-0.342-0.662-0.53-1.085-0.499-0.404 0.029-0.765 0.264-0.957 0.621l-4.382 8.155h-12.519c-0.295 0-0.533 0.239-0.533 0.533v5.333c0 0.295 0.239 0.533 0.533 0.533h3.733v4.267h-3.733c-0.295 0-0.533 0.239-0.533 0.533v5.333c0 0.294 0.239 0.533 0.533 0.533zM29.784 1.235c0.235-0.177 0.57-0.129 0.747 0.106l0.296 0.395c0.177 0.236 0.129 0.57-0.107 0.746l-3.974 2.981-0.936-1.249zM9.6 26.729h7.467v4.267h-7.467zM13.867 21.395h7.467v4.267h-7.467zM25.6 30.995h-7.467v-4.267h7.467zM29.867 25.662h-7.467v-4.267h7.467zM25.6 20.329h-7.467v-3.106l5.459-1.161h2.008zM18.375 7.346c0.018-0.037 0.056-0.061 0.097-0.063l0.011-0c0.057 0.001 0.109 0.029 0.141 0.075l2.41 3.212-2.2 1.651c-0.236 0.177-0.283 0.511-0.107 0.747s0.511 0.283 0.747 0.107l2.2-1.651 2.41 3.212c0.038 0.047 0.050 0.11 0.029 0.167-0.013 0.040-0.046 0.069-0.087 0.076l-10.581 2.25c-0.066 0.010-0.132-0.018-0.169-0.073-0.042-0.051-0.051-0.123-0.022-0.183zM12.422 17.697c0.284 0.391 0.772 0.577 1.244 0.476l3.4-0.723v2.879h-7.467v-4.267h2.879l-0.165 0.308c-0.229 0.426-0.186 0.945 0.109 1.328zM1.067 18.195h1.067c0.295 0 0.533-0.239 0.533-0.533s-0.239-0.533-0.533-0.533h-1.067v-1.067h7.467v4.267h-7.467zM5.333 21.395h7.467v4.267h-7.467zM1.067 26.729h7.467v4.267h-7.467z"></path>
<path d="M6.933 17.662c0-0.294-0.239-0.533-0.533-0.533h-2.133c-0.294 0-0.533 0.239-0.533 0.533s0.239 0.533 0.533 0.533h2.133c0.295 0 0.533-0.239 0.533-0.533z"></path>
</svg>
