<!-- Generated by IcoMoon.io -->
<svg version="1.1" xmlns="http://www.w3.org/2000/svg" width="32" height="32" viewBox="0 0 32 32">
<path d="M22.063 5.906v-2.344c0-1.369-1.106-2.475-2.475-2.475h-7.044c-1.369 0-2.475 1.106-2.475 2.475v2.344h-9.381v8.669c0 0 0.744 0.181 1.106 0.262v16.875h28.538v-16.913c0.281-0.063 0.975-0.225 0.975-0.225v-8.669h-9.244zM11.306 3.563c0-0.719 0.588-1.237 1.238-1.237h7.037c0.719 0 1.238 0.587 1.238 1.237v2.344h-9.512v-2.344zM2.056 7.213h27.887v6.388c-1.512 0.363-6.244 1.35-10.363 1.8v-1.669h-6.969v1.694c-4.344-0.488-9.063-1.512-10.556-1.825v-6.388zM18.212 14.969v4.169h-4.369v-4.169h4.369zM29.1 30.406h-26.063v-15.294c2.2 0.481 6.044 1.244 9.581 1.575v3.75h6.969v-3.8c3.444-0.394 7.344-1.144 9.512-1.588v15.356z"></path>
</svg>
