<!-- Generated by IcoMoon.io -->
<svg version="1.1" xmlns="http://www.w3.org/2000/svg" width="32" height="32" viewBox="0 0 32 32">
<path d="M23.3 6.237v-2.675c0-1.337-1.044-2.475-2.413-2.475h-10.619c-1.306 0-2.412 1.069-2.412 2.475v2.675h-7.169v25.475h30.625v-25.475h-8.012zM9.025 3.563c0-0.737 0.588-1.269 1.238-1.269h10.619c0.719 0 1.238 0.6 1.238 1.269v2.675h-13.094v-2.675zM30.075 7.506v7.425h-3v-3.075h-4.95v3.075h-12.25v-3.075h-4.95v3.075h-3v-7.425h28.15zM25.906 13.125v4.613h-2.544v-4.613h2.544zM8.7 13.125v4.613h-2.537v-4.613h2.537zM1.925 30.444v-14.244h3v2.806h4.95v-2.806h12.25v2.806h4.95v-2.806h3v14.244h-28.15z"></path>
</svg>
