<!-- Generated by IcoMoon.io -->
<svg version="1.1" xmlns="http://www.w3.org/2000/svg" width="32" height="32" viewBox="0 0 32 32">
<path d="M28.319 6.169h-6.175v-1.563c0-1.956-1.563-3.519-3.512-3.519h-5.394c-1.95 0-3.512 1.563-3.512 3.519v1.563h-6.044c-1.688 0-2.994 1.369-2.994 3v19.544c0 1.631 1.363 3 2.994 3h24.575c1.625 0 2.994-1.369 3.056-3v-19.544c0-1.694-1.363-3-2.994-3zM10.963 4.606c0-1.237 1.037-2.281 2.275-2.281h5.394c1.238 0 2.275 1.044 2.275 2.281v1.563h-9.944v-1.563zM30.012 28.712c0 0.913-0.781 1.694-1.688 1.694h-24.644c-0.913 0-1.688-0.781-1.688-1.694v-19.544c0-0.912 0.781-1.694 1.688-1.694h24.644c0.913 0 1.688 0.781 1.688 1.694v19.544zM19.606 19.919c-0.65-0.519-1.625-0.913-2.925-1.238h-0.063v-3.256c0.913 0.131 1.688 0.456 2.469 0.975l1.106-1.631c-1.106-0.781-2.344-1.238-3.575-1.306v-0.912h-1.106v0.85c-1.106 0.063-2.019 0.394-2.731 1.044s-1.037 1.5-1.037 2.475c0 1.044 0.325 1.756 0.912 2.281 0.588 0.519 1.563 0.913 2.863 1.238v3.387c-1.037-0.131-2.019-0.65-2.994-1.5l-1.238 1.5c1.238 1.106 2.669 1.756 4.225 1.887v1.238h1.106v-1.238c1.169-0.063 2.144-0.394 2.863-1.044s1.038-1.431 1.038-2.475c0-0.975-0.262-1.756-0.913-2.275zM15.45 18.356c-0.65-0.194-1.037-0.456-1.3-0.65-0.194-0.194-0.325-0.519-0.325-0.913s0.131-0.719 0.456-0.975c0.325-0.262 0.713-0.394 1.169-0.456v2.994zM17.919 23.375c-0.325 0.262-0.781 0.456-1.363 0.519v-3.125c0.712 0.194 1.169 0.394 1.431 0.65 0.262 0.262 0.387 0.587 0.387 0.975 0 0.394-0.131 0.719-0.456 0.981z"></path>
</svg>
