<!-- Generated by IcoMoon.io -->
<svg version="1.1" xmlns="http://www.w3.org/2000/svg" width="32" height="32" viewBox="0 0 32 32">
<path d="M18.084 31.198h-2.034c-0.305 0-0.576 0.237-0.576 0.576 0 0.305 0.237 0.576 0.576 0.576h2.034c0.305 0 0.576-0.237 0.576-0.576 0-0.305-0.237-0.576-0.576-0.576zM21.068 31.198h-1.221c-0.305 0-0.576 0.237-0.576 0.576 0 0.305 0.237 0.576 0.576 0.576h1.221c0.305 0 0.576-0.237 0.576-0.576 0-0.305-0.237-0.576-0.576-0.576zM25.001 0.444c-0.339-0.102-0.678-0.034-1.085 0.271-0.644 0.441-1.628 1.628-2.814 3.289l-9.799 13.732c-1.187 0.237-2.272 0.848-3.086 1.831-1.458 1.763-1.865 3.798-1.695 5.73 0.203 2.848 1.661 5.493 2.611 6.544 0.441 0.509 0.746 0.644 1.085 0.509l4.001-0.068c0.305 0 0.576-0.237 0.576-0.576 0-0.305-0.237-0.576-0.576-0.576l-3.153 0.034c0.271-0.509 0.78-1.153 1.797-1.831 1.424-0.949 3.086-2.034 4.035-3.696 0.746-1.255 0.882-2.713 0.543-4.035-0.034-0.136-0.102-0.271-0.136-0.407l6.849-15.665c0.882-2.034 1.288-3.357 1.356-4.035 0.034-0.542-0.136-0.915-0.509-1.051zM15.948 25.128c-0.814 1.424-2.34 2.407-3.662 3.289-1.492 0.949-2.034 1.933-2.34 2.543-0.848-0.983-2.001-3.255-2.204-5.696-0.136-1.661 0.203-3.425 1.424-4.883 0.644-0.78 1.483-1.356 2.441-1.424 2.407-0.17 4.34 1.67 4.747 3.018 0.305 1.009 0.17 2.17-0.407 3.153zM16.524 19.771c-1.517-1.831-3.73-2.068-3.73-2.068l3.865-5.425 2.577 1.526-2.713 5.968zM23.069 5.123l-3.323 7.595-2.407-1.39 4.747-6.578c0.882-1.221 1.594-2.136 2.136-2.679-0.17 0.644-0.543 1.661-1.153 3.052z"></path>
</svg>
