<!-- Generated by IcoMoon.io -->
<svg version="1.1" xmlns="http://www.w3.org/2000/svg" width="32" height="32" viewBox="0 0 32 32">
<path d="M0.8 30.4c-0.36 0-0.675-0.24-0.771-0.586s0.051-0.715 0.359-0.899c2.705-1.623 3.828-3.982 4.226-5.086-2.94-2.252-4.614-5.367-4.614-8.628 0-1.647 0.413-3.242 1.229-4.742 0.778-1.431 1.888-2.713 3.298-3.809 2.859-2.224 6.65-3.449 10.673-3.449s7.814 1.225 10.674 3.449c1.41 1.097 2.52 2.378 3.298 3.809 0.815 1.499 1.229 3.095 1.229 4.742s-0.413 3.242-1.229 4.742c-0.778 1.431-1.888 2.713-3.298 3.809-2.86 2.224-6.65 3.449-10.674 3.449-1.653 0-3.275-0.207-4.826-0.616-0.687 0.457-1.97 1.269-3.503 2.031-2.38 1.184-4.423 1.784-6.071 1.784zM15.2 4.8c-7.499 0-13.6 4.665-13.6 10.4 0 2.905 1.607 5.699 4.41 7.668 0.275 0.193 0.4 0.537 0.313 0.862-0.187 0.698-0.824 2.612-2.527 4.46 2.083-0.729 4.326-1.995 5.982-3.134 0.197-0.135 0.444-0.176 0.673-0.11 1.517 0.434 3.115 0.654 4.749 0.654 7.499 0 13.6-4.665 13.6-10.4s-6.101-10.4-13.6-10.4z"></path>
</svg>
