<!-- Generated by IcoMoon.io -->
<svg version="1.1" xmlns="http://www.w3.org/2000/svg" width="32" height="32" viewBox="0 0 32 32">
<path d="M31.984 10.59c-0.002-0.036-0.008-0.072-0.017-0.107-0.003-0.007-0.006-0.014-0.009-0.021l-0.001-0.003c-3.828-10.338-15.837-10.458-15.957-10.458s-12.129 0.12-15.957 10.458l-0.001 0.003c-0.003 0.007-0.006 0.014-0.009 0.021-0.010 0.035-0.015 0.072-0.017 0.108-0.007 0.025-0.012 0.051-0.015 0.077l0.002 0.009c0.002 0.053 0.013 0.105 0.031 0.155 0.005 0.015 0.005 0.032 0.011 0.046 0.026 0.060 0.062 0.114 0.108 0.16l0.005 0.007c0.015 0.012 0.032 0.022 0.048 0.032 0.037 0.033 0.078 0.061 0.123 0.082l0.001 0.001c0.065 0.027 0.134 0.041 0.204 0.041h1.601c0.001 0.589 0.478 1.066 1.067 1.067h0.61l2.594 16.71c0.073 0.651 0.537 1.19 1.169 1.361v0.063c0.001 0.883 0.717 1.599 1.6 1.6h13.656c0.883-0.001 1.599-0.717 1.6-1.6v-0.063c0.626-0.165 1.088-0.695 1.166-1.338l2.597-16.733h0.61c0.589-0.001 1.066-0.478 1.067-1.067h1.6c0.071 0 0.14-0.014 0.205-0.041l0-0.001c0.045-0.021 0.087-0.049 0.124-0.083 0.016-0.010 0.032-0.021 0.047-0.032l0.005-0.008c0.045-0.046 0.082-0.1 0.107-0.159 0.006-0.015 0.006-0.032 0.011-0.047 0.018-0.050 0.029-0.102 0.031-0.154l0.002-0.009c-0.003-0.026-0.008-0.052-0.016-0.077zM16 1.067c0.095 0 6.19 0.063 10.836 3.915-4.75-2.803-10.493-2.849-10.836-2.849s-6.070 0.046-10.816 2.837c4.645-3.833 10.727-3.903 10.816-3.903zM22.828 30.933h-13.656c-0.294-0-0.533-0.239-0.533-0.533h14.723c-0 0.294-0.239 0.533-0.533 0.533zM24.536 28.859c-0.029 0.27-0.258 0.475-0.53 0.475h-16.014c-0.28-0.002-0.511-0.218-0.533-0.497l-2.571-16.569h22.222zM3.2 11.2c0.001-0.589 0.478-1.066 1.067-1.067h23.467c0.589 0.001 1.066 0.478 1.067 1.067zM29.57 10.133c-0.378-0.658-1.078-1.064-1.836-1.067h-23.467c-0.759 0.002-1.458 0.409-1.836 1.067h-1.017c3.918-6.84 14.477-6.933 14.587-6.933s10.665 0.084 14.587 6.933z"></path>
<path d="M18.667 14.4h6.4c0.295 0 0.533-0.239 0.533-0.533s-0.239-0.533-0.533-0.533h-6.4c-0.295 0-0.533 0.239-0.533 0.533s0.239 0.533 0.533 0.533z"></path>
<path d="M8.338 26.339l0.2 1.467c0.036 0.264 0.261 0.461 0.528 0.461 0.024 0 0.049-0.001 0.072-0.005 0.14-0.019 0.267-0.093 0.353-0.206s0.123-0.255 0.104-0.395l-0.2-1.467c-0.040-0.292-0.309-0.496-0.601-0.457s-0.496 0.309-0.457 0.601z"></path>
<path d="M8.038 24.139c0.036 0.264 0.261 0.461 0.528 0.461 0.024 0 0.049-0.002 0.072-0.005 0.14-0.019 0.267-0.093 0.353-0.206s0.123-0.255 0.104-0.395l-1.1-8.067c-0.026-0.189-0.15-0.35-0.327-0.422s-0.378-0.044-0.529 0.072c-0.151 0.117-0.228 0.305-0.202 0.494z"></path>
</svg>
