<!-- Generated by IcoMoon.io -->
<svg version="1.1" xmlns="http://www.w3.org/2000/svg" width="32" height="32" viewBox="0 0 32 32">
<path d="M28 19.2h-2.423c-0.1-1.759-0.527-3.445-1.249-4.963 1.658-0.488 2.872-2.023 2.872-3.837 0-0.442-0.358-0.8-0.8-0.8s-0.8 0.358-0.8 0.8c0 1.218-0.913 2.227-2.090 2.379-0.279-0.426-0.584-0.834-0.914-1.22-0.172-0.201-0.35-0.394-0.532-0.579 0.223-0.702 0.337-1.434 0.337-2.181 0-3.97-3.23-7.2-7.2-7.2s-7.2 3.23-7.2 7.2c0 0.747 0.113 1.478 0.337 2.181-0.182 0.185-0.36 0.378-0.532 0.579-0.331 0.386-0.635 0.794-0.914 1.22-1.177-0.153-2.090-1.161-2.090-2.379 0-0.442-0.358-0.8-0.8-0.8s-0.8 0.358-0.8 0.8c0 1.814 1.214 3.349 2.872 3.837-0.721 1.518-1.149 3.204-1.249 4.963h-2.423c-0.442 0-0.8 0.358-0.8 0.8s0.358 0.8 0.8 0.8h2.423c0.1 1.759 0.527 3.445 1.249 4.963-1.658 0.488-2.872 2.023-2.872 3.837 0 0.442 0.358 0.8 0.8 0.8s0.8-0.358 0.8-0.8c0-1.218 0.913-2.227 2.090-2.379 0.279 0.426 0.584 0.834 0.914 1.22 1.968 2.296 4.594 3.56 7.396 3.56s5.428-1.264 7.396-3.56c0.331-0.386 0.635-0.794 0.914-1.22 1.177 0.153 2.090 1.161 2.090 2.379 0 0.442 0.358 0.8 0.8 0.8s0.8-0.358 0.8-0.8c0-1.814-1.214-3.349-2.872-3.837 0.721-1.518 1.149-3.204 1.249-4.963h2.423c0.442 0 0.8-0.358 0.8-0.8s-0.358-0.8-0.8-0.8zM15.2 3.2c3.088 0 5.6 2.512 5.6 5.6 0 0.343-0.031 0.682-0.092 1.014-1.635-1.182-3.528-1.814-5.508-1.814s-3.874 0.633-5.508 1.814c-0.061-0.332-0.092-0.671-0.092-1.014 0-3.088 2.512-5.6 5.6-5.6zM6.4 20c0-5.416 3.521-9.877 8-10.357v20.713c-4.479-0.479-8-4.941-8-10.357zM16 30.357v-20.713c4.479 0.479 8 4.941 8 10.357s-3.521 9.877-8 10.357z"></path>
</svg>
