<!-- Generated by IcoMoon.io -->
<svg version="1.1" xmlns="http://www.w3.org/2000/svg" width="38" height="32" viewBox="0 0 38 32">
<path d="M17.905 24.914c0.381 0 0.61-0.305 0.61-0.61v-3.81c0-0.381-0.305-0.61-0.61-0.61h-3.81c-0.381 0-0.61 0.305-0.61 0.61v3.81c0 0.381 0.305 0.61 0.61 0.61h3.81zM14.705 21.105h2.59v2.59h-2.59v-2.59z"></path>
<path d="M20.495 24.914h3.81c0.381 0 0.61-0.305 0.61-0.61v-3.81c0-0.381-0.305-0.61-0.61-0.61h-3.81c-0.381 0-0.61 0.305-0.61 0.61v3.81c-0.076 0.381 0.229 0.61 0.61 0.61zM21.105 21.105h2.59v2.59h-2.59v-2.59z"></path>
<path d="M17.905 17.905c0.381 0 0.61-0.305 0.61-0.61v-3.81c0-0.381-0.305-0.61-0.61-0.61h-3.81c-0.381 0-0.61 0.305-0.61 0.61v3.81c0 0.381 0.305 0.61 0.61 0.61h3.81zM14.705 14.095h2.59v2.59h-2.59v-2.59z"></path>
<path d="M20.495 17.905h3.81c0.381 0 0.61-0.305 0.61-0.61v-3.81c0-0.381-0.305-0.61-0.61-0.61h-3.81c-0.381 0-0.61 0.305-0.61 0.61v3.81c-0.076 0.305 0.229 0.61 0.61 0.61zM21.105 14.095h2.59v2.59h-2.59v-2.59z"></path>
<path d="M33.905 20.495h-5.105c-0.381 0-0.61 0.305-0.61 0.61v2.59c0 0.381 0.305 0.61 0.61 0.61h5.105c0.381 0 0.61-0.305 0.61-0.61v-2.59c0-0.381-0.229-0.61-0.61-0.61zM33.295 23.010h-3.81v-1.295h3.81v1.295z"></path>
<path d="M33.905 25.6h-5.105c-0.381 0-0.61 0.305-0.61 0.61v2.59c0 0.381 0.305 0.61 0.61 0.61h5.105c0.381 0 0.61-0.305 0.61-0.61v-2.59c0-0.305-0.229-0.61-0.61-0.61zM33.295 28.114h-3.81v-1.295h3.81v1.295z"></path>
<path d="M9.6 20.495h-5.105c-0.381 0-0.61 0.305-0.61 0.61v2.59c0 0.381 0.305 0.61 0.61 0.61h5.105c0.381 0 0.61-0.305 0.61-0.61v-2.59c0-0.381-0.229-0.61-0.61-0.61zM8.99 23.010h-3.81v-1.295h3.81v1.295z"></path>
<path d="M9.6 25.6h-5.105c-0.381 0-0.686 0.305-0.686 0.61v2.59c0 0.381 0.305 0.61 0.61 0.61h5.105c0.381 0 0.61-0.305 0.61-0.61v-2.59c0.076-0.305-0.152-0.61-0.533-0.61zM8.99 28.114h-3.81v-1.295h3.81v1.295z"></path>
<path d="M36.495 30.705v-11.505h1.295c0.229 0 0.533-0.152 0.61-0.381s0-0.533-0.152-0.686l-6.4-5.79c-0.229-0.229-0.61-0.229-0.838 0l-3.429 3.048v-5.181h1.295c0.229 0 0.533-0.152 0.61-0.381s0-0.533-0.152-0.686l-1.752-1.6v-6.857c0-0.381-0.305-0.61-0.61-0.61h-3.2c-0.381 0-0.61 0.305-0.61 0.61v2.743l-3.429-3.2c-0.229-0.229-0.61-0.229-0.838 0l-9.752 8.914c-0.229 0.152-0.229 0.457-0.152 0.686s0.305 0.381 0.61 0.381h1.295v5.181l-3.429-3.048c-0.229-0.229-0.61-0.229-0.838 0l-6.4 5.79c-0.229 0.152-0.305 0.381-0.152 0.61s0.305 0.381 0.61 0.381h1.295v11.505h-1.981v1.371h38.4v-1.295h-1.905zM31.314 13.638l4.724 4.267h-9.448l4.724-4.267zM24.305 1.295h1.905v5.029l-1.905-1.752v-3.276zM19.2 1.524l8 7.467h-16l8-7.467zM7.010 13.638l4.724 4.267h-9.448l4.724-4.267zM3.2 19.2h7.695v11.505h-7.695v-11.505zM12.19 19.2h1.295c0.229 0 0.533-0.152 0.61-0.381s0-0.533-0.152-0.686l-1.676-1.524v-6.324h14.095v6.324l-1.676 1.524c-0.229 0.152-0.229 0.457-0.152 0.686s0.305 0.381 0.61 0.381h1.295v11.505h-3.81v-1.905c0-1.752-1.448-3.2-3.2-3.2s-3.429 1.448-3.429 3.2v1.905h-3.81v-11.505zM17.295 30.705v-1.905c0-1.067 0.838-1.905 1.905-1.905s1.905 0.838 1.905 1.905v1.905h-3.81zM27.505 30.705v-11.505h7.695v11.505h-7.695z"></path>
</svg>
