<!-- Generated by IcoMoon.io -->
<svg version="1.1" xmlns="http://www.w3.org/2000/svg" width="32" height="32" viewBox="0 0 32 32">
<path d="M31.022 4.959c-0.925-2.776-2.154-3.359-3.022-3.359-0.018 0-0.037 0-0.055 0.001-0.885 0.019-2.457 0.479-4.812 1.169-4.934 1.446-12.391 3.63-19.932 3.63-1.824 0-3.2 2.407-3.2 5.6s1.376 5.6 3.2 5.6c0.59 0 1.18 0.013 1.768 0.039l2.666 10.605c0.304 1.209 1.519 2.157 2.766 2.157h2.1c0.693 0 1.281-0.288 1.613-0.791s0.367-1.157 0.096-1.794l-4.123-9.676c5.017 0.74 9.635 2.092 13.046 3.092 2.355 0.69 3.927 1.15 4.812 1.169 0.019 0.001 0.037 0.001 0.055 0.001 0.868 0 2.096-0.583 3.022-3.359 0.631-1.893 0.978-4.393 0.978-7.041s-0.347-5.149-0.978-7.041zM25.6 12c0-0.821 0.035-1.624 0.103-2.394 0.822 0.083 1.497 1.145 1.497 2.394s-0.676 2.312-1.497 2.394c-0.068-0.77-0.103-1.573-0.103-2.394zM1.6 12c0-2.442 0.948-4 1.6-4 1.816 0 3.622-0.122 5.388-0.326-0.379 1.212-0.588 2.716-0.588 4.326s0.209 3.114 0.588 4.326c-1.766-0.205-3.572-0.326-5.388-0.326-0.652 0-1.6-1.558-1.6-4zM12.737 28.442c0.066 0.154 0.060 0.256 0.041 0.285s-0.111 0.073-0.278 0.073h-2.1c-0.511 0-1.090-0.451-1.214-0.947l-2.542-10.11c0.536 0.043 1.070 0.095 1.6 0.155l4.492 10.543zM10.383 16.564c-0.487-1.099-0.783-2.797-0.783-4.564 0-1.794 0.289-3.46 0.782-4.564 5.095-0.756 9.753-2.121 13.2-3.131 0.664-0.194 1.298-0.38 1.873-0.542-0.165 0.344-0.325 0.74-0.477 1.195-0.631 1.893-0.978 4.393-0.978 7.041s0.347 5.149 0.978 7.041c0.152 0.455 0.312 0.851 0.477 1.195-0.575-0.162-1.209-0.348-1.873-0.542-3.447-1.010-8.104-2.374-13.2-3.13zM29.504 18.535c-0.597 1.791-1.245 2.265-1.504 2.265s-0.907-0.473-1.504-2.265c-0.251-0.752-0.453-1.615-0.601-2.553 0.778-0.090 1.509-0.53 2.042-1.239 0.556-0.742 0.863-1.716 0.863-2.743s-0.306-2.001-0.863-2.743c-0.532-0.71-1.264-1.15-2.042-1.239 0.148-0.938 0.35-1.801 0.601-2.553 0.597-1.791 1.245-2.265 1.504-2.265s0.907 0.473 1.504 2.265c0.578 1.734 0.896 4.055 0.896 6.535s-0.318 4.801-0.896 6.535z"></path>
</svg>
