<!-- Generated by IcoMoon.io -->
<svg version="1.1" xmlns="http://www.w3.org/2000/svg" width="32" height="32" viewBox="0 0 32 32">
<path d="M1.664 19.328c-0.992 1.184-0.8 2.56-0.8 2.624 0.032 0.192 0.192 0.352 0.384 0.352 0.48 0 0.8 0.064 1.088 0.16v2.688c-0.384 0.128-0.704 0.352-0.96 0.672-0.416 0.48-0.576 1.12-0.48 1.76l0.256 1.472c0.288 1.696 1.792 2.944 3.584 2.944h22.496c1.792 0 3.296-1.248 3.584-2.944l0.256-1.472c0.096-0.608-0.064-1.248-0.48-1.76-0.288-0.32-0.64-0.576-1.056-0.704v-2.624c0.288-0.128 0.64-0.192 1.184-0.192 0.192 0 0.352-0.128 0.384-0.288 0.16-0.608 0.128-1.76-0.768-2.688 0.96-0.352 1.632-1.248 1.632-2.272v-1.056c0-1.088-0.896-1.952-1.888-2.304 0.128-0.096 0.256-0.192 0.384-0.288 0.992-0.928 1.504-2.464 1.504-4.512 0-2.56-1.376-4.896-3.84-6.56-2.176-1.504-5.088-2.336-7.968-2.336h-8.32c-2.88 0-5.824 0.832-8 2.304-2.464 1.664-3.84 4-3.84 6.56 0 2.080 0.512 3.616 1.504 4.544 0.128 0.128 0.256 0.224 0.384 0.32-0.992 0.32-1.888 1.184-1.888 2.272v1.024c0 1.088 0.704 1.984 1.664 2.304zM16.96 25.056c-1.568 0-2.272 0.192-3.392 1.28l-1.568 1.504-1.568-1.536c-1.12-1.088-1.824-1.28-3.392-1.28h-3.808c-0.032 0-0.064-0.032-0.096-0.032v-2.208c0.416 0.192 0.928 0.384 1.792 0.384 1.024 0 1.536-0.256 2.016-0.512 0.448-0.224 0.832-0.416 1.664-0.416s1.216 0.192 1.664 0.416c0.48 0.224 0.992 0.512 2.016 0.512s1.536-0.256 2.016-0.512c0.448-0.224 0.832-0.416 1.664-0.416s1.216 0.192 1.664 0.416c0.48 0.224 0.992 0.512 2.016 0.512s1.536-0.256 2.016-0.512c0.448-0.224 0.832-0.416 1.664-0.416s1.216 0.192 1.664 0.416c0.48 0.224 0.992 0.512 2.016 0.512 0.8 0 1.312-0.16 1.696-0.352v2.176h-11.744zM30.304 27.456l-0.256 1.472c-0.224 1.312-1.408 2.272-2.816 2.272h-22.496c-1.408 0-2.592-0.96-2.816-2.272l-0.256-1.472c-0.064-0.384 0.032-0.8 0.288-1.088 0.288-0.288 0.608-0.48 0.96-0.512h4.096c1.376 0 1.888 0.128 2.848 1.056l1.856 1.792c0.064 0.064 0.192 0.128 0.288 0.128s0.192-0.032 0.288-0.128l1.856-1.792c0.96-0.928 1.472-1.056 2.848-1.056h12.128c0.352 0.064 0.704 0.224 0.928 0.512s0.32 0.672 0.256 1.088zM30.368 21.536c-0.8 0.064-1.248 0.288-1.664 0.48-0.448 0.224-0.832 0.416-1.664 0.416s-1.216-0.192-1.664-0.416c-0.48-0.224-0.992-0.512-2.016-0.512s-1.536 0.256-2.016 0.512c-0.448 0.224-0.832 0.416-1.664 0.416s-1.216-0.192-1.664-0.416c-0.48-0.224-0.992-0.512-2.016-0.512s-1.536 0.256-2.016 0.512c-0.448 0.224-0.832 0.416-1.664 0.416s-1.216-0.192-1.664-0.416c-0.48-0.224-0.992-0.512-2.016-0.512s-1.536 0.256-2.016 0.512c-0.448 0.224-0.832 0.416-1.664 0.416s-1.216-0.192-1.664-0.416c-0.416-0.192-0.864-0.416-1.632-0.48 0.032-0.48 0.16-1.344 0.992-2.048h26.592c1.056 0.608 1.152 1.568 1.12 2.048zM0.8 8.864c0-4.96 5.728-8.064 11.040-8.064h8.32c5.312 0 11.040 3.104 11.040 8.064 0 1.824-0.416 3.136-1.248 3.936s-1.792 0.736-1.856 0.736h-24.192c0 0-0.032 0-0.032 0s-0.032 0-0.032 0h-0.032c-0.224 0-1.056-0.064-1.76-0.736-0.832-0.768-1.248-2.112-1.248-3.936zM0.8 16c0-0.928 1.088-1.664 1.984-1.664h0.992c0.032 0 0.032 0 0.032 0h25.376c0.992 0 1.984 0.832 1.984 1.664v1.024c0 0.896-0.768 1.632-1.696 1.632h-26.976c-0.928 0-1.696-0.736-1.696-1.632v-1.024zM2.752 17.504c0.224 0 0.384-0.192 0.384-0.384v-1.12c0-0.224-0.192-0.384-0.384-0.384s-0.416 0.16-0.416 0.384v1.088c0 0.224 0.192 0.416 0.416 0.416zM5.152 17.504c0.224 0 0.416-0.192 0.416-0.384v-1.12c0-0.224-0.192-0.384-0.416-0.384s-0.384 0.192-0.384 0.384v1.088c-0.032 0.224 0.16 0.416 0.384 0.416zM7.552 17.504c0.224 0 0.384-0.192 0.384-0.384v-1.12c0-0.224-0.192-0.384-0.384-0.384s-0.416 0.192-0.416 0.384v1.088c0 0.224 0.192 0.416 0.416 0.416zM9.952 17.504c0.224 0 0.416-0.192 0.416-0.384v-1.12c0-0.224-0.192-0.384-0.416-0.384s-0.384 0.192-0.384 0.384v1.088c0 0.224 0.16 0.416 0.384 0.416zM12.352 17.504c0.224 0 0.384-0.192 0.384-0.384v-1.12c0-0.224-0.192-0.384-0.384-0.384s-0.384 0.192-0.384 0.384v1.088c0 0.224 0.16 0.416 0.384 0.416zM14.752 17.504c0.224 0 0.384-0.192 0.384-0.384v-1.12c0-0.224-0.192-0.384-0.384-0.384-0.224 0-0.416 0.192-0.416 0.384v1.088c0.032 0.224 0.192 0.416 0.416 0.416zM17.152 17.504c0.224 0 0.416-0.192 0.416-0.384v-1.12c0-0.224-0.192-0.384-0.416-0.384s-0.384 0.192-0.384 0.384v1.088c0 0.224 0.16 0.416 0.384 0.416zM19.552 17.504c0.224 0 0.384-0.192 0.384-0.384v-1.12c0-0.224-0.192-0.384-0.384-0.384-0.224 0-0.416 0.192-0.416 0.384v1.088c0.032 0.224 0.192 0.416 0.416 0.416zM21.952 17.504c0.224 0 0.416-0.192 0.416-0.384v-1.12c0-0.224-0.192-0.384-0.416-0.384s-0.384 0.192-0.384 0.384v1.088c0 0.224 0.16 0.416 0.384 0.416zM24.352 17.504c0.224 0 0.384-0.192 0.384-0.384v-1.12c0-0.224-0.192-0.384-0.384-0.384s-0.416 0.192-0.416 0.384v1.088c0.032 0.224 0.192 0.416 0.416 0.416zM26.752 17.504c0.224 0 0.416-0.192 0.416-0.384v-1.12c0-0.224-0.192-0.384-0.416-0.384s-0.384 0.192-0.384 0.384v1.088c0 0.224 0.16 0.416 0.384 0.416zM29.152 17.504c0.224 0 0.384-0.192 0.384-0.384v-1.12c0-0.224-0.192-0.384-0.384-0.384s-0.384 0.192-0.384 0.384v1.088c0 0.224 0.16 0.416 0.384 0.416z"></path>
</svg>
