<!-- Generated by IcoMoon.io -->
<svg version="1.1" xmlns="http://www.w3.org/2000/svg" width="15" height="32" viewBox="0 0 15 32">
<path d="M13.034 23.571h-0.624c0.234-0.312 0.39-0.702 0.39-1.171v-7.727c0-1.093-0.859-1.951-1.951-1.951h-8.898c-1.093 0-1.951 0.859-1.951 1.951v7.727c0 1.093 0.859 1.951 1.951 1.951h0.234v7.649h8.585v-2.419h2.263c1.093 0 1.951-0.859 1.951-1.951v-2.107c0-1.093-0.859-1.951-1.951-1.951zM9.99 31.22h-3.122v-9.21c0-0.234-0.156-0.39-0.39-0.39s-0.39 0.156-0.39 0.39v9.21h-3.122v-14.517c0-0.234-0.156-0.39-0.39-0.39s-0.39 0.156-0.39 0.39v6.79h-0.234c-0.624 0-1.171-0.546-1.171-1.171v-7.727c0-0.624 0.546-1.171 1.171-1.171h8.976c0.624 0 1.171 0.546 1.171 1.171v7.727c0 0.624-0.546 1.171-1.171 1.171h-0.156v-6.79c0-0.234-0.156-0.39-0.39-0.39s-0.39 0.156-0.39 0.39v6.79h-0.702c-1.093 0-1.951 0.859-1.951 1.951v2.107c0 1.093 0.859 1.951 1.951 1.951h0.702v1.717zM14.205 27.551c0 0.624-0.546 1.171-1.171 1.171h-3.746c-0.624 0-1.171-0.546-1.171-1.171v-2.107c0-0.624 0.546-1.171 1.171-1.171h3.746c0.624 0 1.171 0.546 1.171 1.171v2.107z"></path>
<path d="M6.4 11.551c3.2 0 5.776-2.576 5.776-5.776s-2.576-5.776-5.776-5.776-5.776 2.576-5.776 5.776 2.576 5.776 5.776 5.776zM6.4 0.78c2.732 0 4.995 2.263 4.995 4.995s-2.263 4.995-4.995 4.995-4.995-2.185-4.995-4.995 2.263-4.995 4.995-4.995z"></path>
<path d="M9.522 6.946c0-0.234-0.156-0.39-0.39-0.39h-2.81v-3.59c0-0.234-0.156-0.39-0.39-0.39s-0.39 0.156-0.39 0.39v4.371h3.59c0.234 0 0.39-0.156 0.39-0.39z"></path>
</svg>
