<!-- Generated by IcoMoon.io -->
<svg version="1.1" xmlns="http://www.w3.org/2000/svg" width="32" height="32" viewBox="0 0 32 32">
<path d="M29.060 8.541h-6.612v-1.692c0-3.556-2.893-6.449-6.448-6.449s-6.448 2.893-6.448 6.449v1.692h-6.612l-2.176 23.859h30.473l-2.176-23.859zM10.832 6.849c0-2.85 2.318-5.169 5.168-5.169s5.168 2.319 5.168 5.169v1.692h-10.337v-1.692zM21.808 14.209c0.863 0 1.337 0.383 1.337 0.51s-0.474 0.511-1.337 0.511-1.337-0.384-1.337-0.511c0-0.127 0.474-0.51 1.337-0.51zM10.192 14.209c0.863 0 1.337 0.383 1.337 0.51s-0.474 0.511-1.337 0.511-1.337-0.384-1.337-0.511c0-0.127 0.474-0.51 1.337-0.51zM4.108 9.821h5.443v3.164c-1.16 0.186-1.977 0.867-1.977 1.735 0 1.021 1.125 1.791 2.617 1.791s2.617-0.77 2.617-1.791c0-0.868-0.817-1.549-1.977-1.735v-3.164h10.337v3.164c-1.16 0.186-1.977 0.867-1.977 1.735 0 1.021 1.125 1.791 2.617 1.791s2.617-0.77 2.617-1.791c0-0.868-0.817-1.549-1.977-1.735v-3.164h5.443l1.943 21.299h-27.669l1.943-21.299z"></path>
</svg>
