<!-- Generated by IcoMoon.io -->
<svg version="1.1" xmlns="http://www.w3.org/2000/svg" width="32" height="32" viewBox="0 0 32 32">
<path d="M8.002 15.618h2.082c0.259 0 0.469-0.21 0.469-0.469s-0.21-0.469-0.469-0.469h-2.082c-2.090 0-3.796-1.68-3.803-3.744-0.003-1.006 0.386-1.953 1.096-2.666s1.656-1.105 2.665-1.105h0.001c0.413 0 0.779-0.278 0.889-0.676 0.312-1.125 1.346-1.91 2.514-1.91 0.030 0 0.061 0 0.090 0.001 0.45 0.017 0.84-0.288 0.931-0.722 0.363-1.728 1.909-2.981 3.677-2.981s3.314 1.254 3.677 2.981c0.091 0.435 0.483 0.739 0.931 0.723 0.030-0.001 0.060-0.002 0.091-0.002 1.168 0 2.202 0.786 2.514 1.91 0.11 0.398 0.476 0.676 0.893 0.676h0.001c1.006 0 1.951 0.393 2.662 1.105s1.099 1.659 1.096 2.666c-0.007 2.064-1.713 3.744-3.803 3.744h-11.851c-0.259 0-0.469 0.21-0.469 0.469s0.21 0.469 0.469 0.469h11.852c2.605 0 4.732-2.099 4.741-4.679 0.004-1.258-0.482-2.44-1.369-3.331-0.885-0.888-2.062-1.378-3.318-1.381-0.438-1.559-1.895-2.635-3.524-2.585-0.462-2.148-2.389-3.704-4.59-3.704s-4.128 1.556-4.59 3.704c-0.036-0.001-0.072-0.002-0.109-0.002-1.585 0-2.988 1.063-3.415 2.587-1.255 0.002-2.433 0.492-3.319 1.381-0.887 0.891-1.374 2.074-1.369 3.331 0.009 2.58 2.136 4.679 4.741 4.679z"></path>
<path d="M17.704 25.927v-7.633c0-0.905-0.736-1.641-1.641-1.641s-1.641 0.736-1.641 1.641v7.633c-0.95 0.563-1.589 1.598-1.589 2.781 0 1.781 1.449 3.23 3.23 3.23s3.23-1.449 3.23-3.23c0-1.182-0.639-2.217-1.589-2.78zM15.359 18.294c0-0.388 0.315-0.703 0.703-0.703s0.703 0.315 0.703 0.703v7.261c-0.227-0.051-0.462-0.078-0.703-0.078s-0.477 0.027-0.703 0.078zM16.063 31c-1.264 0-2.292-1.028-2.292-2.292s1.028-2.292 2.292-2.292 2.292 1.028 2.292 2.292-1.028 2.292-2.292 2.292z"></path>
<path d="M11.286 16.653c-0.814 0-1.477 0.663-1.477 1.477v4.461c0 0.051-0.041 0.092-0.092 0.092h-2.604c-0.533-1.053-1.625-1.778-2.884-1.778-1.781 0-3.23 1.449-3.23 3.23s1.449 3.23 3.23 3.23c1.239 0 2.317-0.702 2.859-1.729h3.512c1.192 0 2.163-0.97 2.163-2.163v-5.345c0-0.814-0.663-1.477-1.477-1.477zM4.23 26.428c-1.264 0-2.292-1.028-2.292-2.292s1.028-2.292 2.292-2.292 2.292 1.028 2.292 2.292c0 1.264-1.028 2.292-2.292 2.292zM11.825 23.474c0 0.675-0.55 1.225-1.225 1.225h-3.19c0.032-0.183 0.050-0.371 0.050-0.563 0-0.175-0.014-0.347-0.041-0.515h2.299c0.568 0 1.030-0.462 1.030-1.030v-4.461c0-0.297 0.242-0.539 0.539-0.539s0.539 0.242 0.539 0.539z"></path>
<path d="M27.895 20.905c-1.259 0-2.351 0.724-2.884 1.778h-2.604c-0.051 0-0.092-0.041-0.092-0.092v-0.796c0-0.259-0.21-0.469-0.469-0.469s-0.469 0.21-0.469 0.469v0.796c0 0.568 0.462 1.030 1.030 1.030h2.299c-0.027 0.168-0.041 0.34-0.041 0.515 0 0.192 0.018 0.38 0.050 0.563h-3.19c-0.675 0-1.225-0.55-1.225-1.225v-5.345c0-0.297 0.242-0.539 0.539-0.539s0.539 0.242 0.539 0.539v1.487c0 0.259 0.21 0.469 0.469 0.469s0.469-0.21 0.469-0.469v-1.487c0-0.814-0.663-1.477-1.477-1.477s-1.477 0.663-1.477 1.477v5.345c0 1.192 0.97 2.163 2.163 2.163h3.511c0.541 1.027 1.619 1.729 2.859 1.729 1.781 0 3.23-1.449 3.23-3.23s-1.449-3.23-3.23-3.23zM27.895 26.428c-1.264 0-2.292-1.028-2.292-2.292s1.028-2.292 2.292-2.292 2.292 1.028 2.292 2.292c0 1.264-1.028 2.292-2.292 2.292z"></path>
</svg>
