<!-- Generated by IcoMoon.io -->
<svg version="1.1" xmlns="http://www.w3.org/2000/svg" width="32" height="32" viewBox="0 0 32 32">
<path d="M28.667 5.047h-4.987c-2.232-4.234-7.474-5.857-11.708-3.625-1.546 0.815-2.81 2.079-3.625 3.625h-5.013c-1.841 0-3.333 1.492-3.333 3.333v16c0 1.105 0.895 2 2 2h10v2.227c-1.028 0.417-1.762 1.344-1.933 2.44h-1.4v1.333h14.667v-1.333h-1.4c-0.171-1.096-0.905-2.023-1.933-2.44v-2.227h10c1.105 0 2-0.895 2-2v-16c-0-1.841-1.492-3.333-3.333-3.333zM10.003 4.83c1.373-1.953 3.61-3.116 5.997-3.117 4.050 0.002 7.332 3.286 7.33 7.336-0.001 2.387-1.164 4.624-3.117 5.997h-8.427c-3.314-2.329-4.112-6.903-1.784-10.216zM20.56 31.047h-9.12c0.219-0.849 1.021-1.413 1.893-1.333h2.667v-1.333h-2.667v-2h5.333v3.333c0.873-0.080 1.675 0.485 1.893 1.333zM30.667 24.38c0 0.368-0.299 0.667-0.667 0.667h-28c-0.368 0-0.667-0.299-0.667-0.667v-3.333h29.333v3.333zM30.667 19.713h-29.333v-11.333c0-1.105 0.895-2 2-2h4.427c-0.992 3.036-0.222 6.372 2 8.667h-4.427v1.333h21.333v-1.333h-4.433c2.222-2.295 2.992-5.63 2-8.667h4.433c1.105 0 2 0.895 2 2v11.333zM28.667 7.713h-2v1.333h1.333v1.333h1.333v-2c0-0.368-0.298-0.667-0.667-0.667zM5.333 7.713h-2c-0.368 0-0.667 0.299-0.667 0.667v2h1.333v-1.333h1.333v-1.333zM14.667 22.38h2.667v1.333h-2.667v-1.333zM14.667 11.713h0.667v1.333h1.333v-1.333h0.667c0.736 0 1.333-0.597 1.333-1.333v-1.333c0-0.736-0.597-1.333-1.333-1.333h-2.667v-1.333h2.667v0.667h1.333v-0.667c0-0.736-0.597-1.333-1.333-1.333h-0.667v-1.333h-1.333v1.333h-0.667c-0.736 0-1.333 0.597-1.333 1.333v1.333c0 0.736 0.597 1.333 1.333 1.333h2.667v1.333h-2.667v-0.667h-1.333v0.667c-0 0.736 0.597 1.333 1.333 1.333z"></path>
</svg>
