<!-- Generated by IcoMoon.io -->
<svg version="1.1" xmlns="http://www.w3.org/2000/svg" width="32" height="32" viewBox="0 0 32 32">
<path d="M16.839 23.517v4.312h-15.359v-24.222h15.359v4.64h1.482v-5.888c0-1.173-0.958-2.129-2.129-2.129h-14.063c-1.173 0-2.129 0.957-2.129 2.129v27.28c0 1.173 0.957 2.129 2.129 2.129h14.062c1.171 0 2.129-0.956 2.129-2.129v-6.122h-1.481zM6.91 1.768h4.499c0.142 0 0.258 0.113 0.258 0.256 0 0.141-0.115 0.258-0.258 0.258h-4.499c-0.142 0-0.257-0.117-0.257-0.258 0-0.142 0.114-0.256 0.257-0.256zM9.159 30.706c-0.587 0-1.065-0.478-1.065-1.067 0-0.587 0.478-1.065 1.065-1.065 0.589 0 1.067 0.478 1.067 1.065-0.001 0.589-0.478 1.067-1.067 1.067zM23.801 22.213h-15.238l-2.804-12.591h17.145l-0.465 1.804h-14.432l2.002 8.985h12.345l3.102-14.044h6.544v1.802h-5.096l-3.102 14.043zM13.613 24.608c0 0.929-0.755 1.683-1.682 1.683-0.929 0-1.683-0.754-1.683-1.683 0-0.927 0.754-1.682 1.683-1.682s1.682 0.754 1.682 1.682zM22.411 24.608c0 0.929-0.754 1.683-1.683 1.683-0.927 0-1.682-0.754-1.682-1.683 0-0.927 0.754-1.682 1.682-1.682 0.929 0 1.683 0.754 1.683 1.682z"></path>
</svg>
