<!-- Generated by IcoMoon.io -->
<svg version="1.1" xmlns="http://www.w3.org/2000/svg" width="53" height="32" viewBox="0 0 53 32">
<path d="M19.52 17.536c-0.416 0-0.768 0.352-0.768 0.768v1.152c0 0.416 0.352 0.768 0.768 0.768s0.768-0.352 0.768-0.768v-1.152c0-0.416-0.352-0.768-0.768-0.768v0zM14.688 10.592c0 0.416 0.32 0.736 0.736 0.736s0.736-0.32 0.736-0.736c0-0.416-0.32-0.736-0.736-0.736-0.384 0-0.736 0.352-0.736 0.736v0zM28.768 18.912c-0.32-0.288-0.8-0.256-1.088 0.064-0.32 0.352-0.768 0.576-1.248 0.576s-0.928-0.192-1.248-0.576c-0.288-0.32-0.768-0.352-1.088-0.064s-0.352 0.768-0.064 1.088c0.608 0.704 1.472 1.088 2.4 1.088s1.792-0.384 2.4-1.088c0.288-0.32 0.256-0.8-0.064-1.088v0zM36.928 8.8c0-0.416-0.32-0.736-0.736-0.736s-0.736 0.32-0.736 0.736c0 0.416 0.32 0.736 0.736 0.736s0.736-0.32 0.736-0.736v0zM33.344 17.536c-0.416 0-0.768 0.352-0.768 0.768v1.152c0 0.416 0.352 0.768 0.768 0.768s0.768-0.352 0.768-0.768v-1.152c0-0.416-0.352-0.768-0.768-0.768v0zM50.432 25.632h-1.12l-3.328-10.048c-0.384-1.152-1.248-2.016-2.368-2.368-0.16-1.504-0.768-2.912-1.728-4.064-0.672-0.8-1.504-1.408-2.432-1.824-0.864-3.104-3.744-5.28-7.008-5.28-0.48 0-0.928 0.032-1.408 0.128-1.728-1.408-3.936-2.176-6.176-2.176-1.888 0-3.744 0.544-5.344 1.536-0.352 0.224-0.48 0.704-0.224 1.056 0.224 0.352 0.704 0.48 1.056 0.224 1.344-0.864 2.912-1.312 4.512-1.312 1.952 0 3.808 0.64 5.312 1.888 0.32 0.256 0.736 0.352 1.12 0.288s0.768-0.128 1.152-0.128c2.56 0 4.832 1.728 5.504 4.192 0.128 0.416 0.416 0.768 0.832 0.96 0.736 0.352 1.408 0.832 1.952 1.44 0.704 0.8 1.152 1.792 1.312 2.848h-31.328c-0.096-1.568 0.48-3.104 1.536-4.224 0.928-0.992 2.208-1.632 3.584-1.76 0.672-0.064 1.28-0.48 1.632-1.088 0.16-0.288 0.32-0.544 0.512-0.8 0.256-0.352 0.16-0.832-0.192-1.088s-0.832-0.16-1.088 0.192c-0.224 0.288-0.416 0.608-0.576 0.928-0.096 0.16-0.256 0.288-0.416 0.288-1.728 0.192-3.36 0.992-4.544 2.24-1.376 1.472-2.080 3.488-1.952 5.472-1.088 0.352-1.984 1.216-2.336 2.368l-3.36 10.112h-1.088c-1.344 0-2.432 1.088-2.432 2.432v1.536c0 1.344 1.088 2.432 2.432 2.432h36.576c0.416 0 0.768-0.352 0.768-0.768s-0.352-0.768-0.768-0.768h-36.576c-0.48 0-0.864-0.384-0.864-0.864v-1.536c0-0.48 0.384-0.864 0.864-0.864h46.336c0 0 0 0 0 0s0 0 0 0h1.664c0.48 0 0.864 0.384 0.864 0.864v1.536c0 0.48-0.384 0.864-0.864 0.864h-7.808c-0.416 0-0.768 0.352-0.768 0.768s0.352 0.768 0.768 0.768h7.808c1.344 0 2.432-1.088 2.432-2.432v-1.536c0-1.344-1.088-2.432-2.432-2.432v0zM5.152 25.632l1.344-4.096c4.512-0.896 6.624 0.896 9.056 3.008 0.416 0.352 0.832 0.736 1.28 1.088h-11.68zM33.376 25.632h-13.888c-1.088-0.672-2.016-1.472-2.912-2.272-2.368-2.048-4.832-4.16-9.504-3.488l1.248-3.808c0.256-0.8 0.96-1.376 1.792-1.472 0 0 0.032 0 0.032 0 0.064 0 0.16 0 0.224 0h32.096c0.096 0 0.224 0 0.32 0.032 0 0 0.032 0 0.032 0 0.8 0.128 1.44 0.672 1.696 1.472l1.248 3.808c-4.704-0.672-7.136 1.44-9.504 3.488-0.864 0.768-1.824 1.568-2.88 2.24v0zM36 25.632c0.448-0.352 0.864-0.736 1.28-1.088 2.432-2.112 4.544-3.904 9.056-3.008l1.344 4.096h-11.68zM25.92 4.672c0-0.416-0.32-0.736-0.736-0.736s-0.736 0.32-0.736 0.736c0 0.416 0.32 0.736 0.736 0.736 0.416 0.032 0.736-0.32 0.736-0.736v0zM30.432 11.072c0-0.416-0.32-0.736-0.736-0.736s-0.736 0.32-0.736 0.736c0 0.416 0.32 0.736 0.736 0.736s0.736-0.352 0.736-0.736v0z"></path>
</svg>
