<!-- Generated by IcoMoon.io -->
<svg version="1.1" xmlns="http://www.w3.org/2000/svg" width="32" height="32" viewBox="0 0 32 32">
<path d="M3.319 1.119v30.563h25.294v-30.563h-25.294zM27.381 30.381h-22.762v-27.962h22.756v27.962zM25.3 4.5h-18.663v6.569h18.663v-6.569zM24.063 9.831h-16.125v-4.094h16.125v4.094zM7.938 15.162h2.469v1.3h-2.469v-1.3zM14.762 15.162h2.469v1.3h-2.469v-1.3zM21.525 15.162h2.469v1.3h-2.469v-1.3zM7.938 20.3h2.469v1.3h-2.469v-1.3zM14.762 20.3h2.469v1.3h-2.469v-1.3zM21.525 20.3h2.469v1.3h-2.469v-1.3zM7.938 25.375h2.469v1.3h-2.469v-1.3zM14.762 25.375h2.469v1.3h-2.469v-1.3zM21.525 25.375h2.469v1.3h-2.469v-1.3z"></path>
</svg>
