<!-- Generated by IcoMoon.io -->
<svg version="1.1" xmlns="http://www.w3.org/2000/svg" width="32" height="32" viewBox="0 0 32 32">
<path d="M26.944 31.706h-21.887v-30.613h21.881v30.613zM6.362 30.4h19.344v-28h-19.344v28zM23.944 11.906h-15.887v-7.362h15.894v7.362zM9.356 10.606h13.35v-4.756h-13.35v4.756zM8.706 15.356h2.863v1.3h-2.863v-1.3zM14.569 15.356h2.862v1.3h-2.863v-1.3zM20.431 15.356h2.863v1.3h-2.863v-1.3zM8.706 19.137h2.863v1.3h-2.863v-1.3zM14.569 19.137h2.862v1.3h-2.863v-1.3zM20.431 19.137h2.863v1.3h-2.863v-1.3zM8.706 22.975h2.863v1.3h-2.863v-1.3zM14.569 22.975h2.862v1.3h-2.863v-1.3zM8.706 26.819h2.863v1.3h-2.863v-1.3zM14.569 26.819h2.862v1.3h-2.863v-1.3zM21.275 22.719h1.3v5.406h-1.3v-5.406z"></path>
</svg>
