<!-- Generated by IcoMoon.io -->
<svg version="1.1" xmlns="http://www.w3.org/2000/svg" width="32" height="32" viewBox="0 0 32 32">
<path d="M28.087 0.4h-24.174c-1.045 0-1.894 0.85-1.894 1.894v28.211c0 1.045 0.85 1.894 1.894 1.894h24.174c1.045 0 1.894-0.85 1.894-1.894v-28.211c0-1.044-0.85-1.894-1.894-1.894zM3.534 2.294c0-0.209 0.17-0.379 0.379-0.379h24.174c0.209 0 0.379 0.17 0.379 0.379v6.569h-24.932v-6.569zM10.834 30.884h-6.921c-0.209 0-0.379-0.17-0.379-0.379v-9.118h7.3v9.497zM10.834 19.872h-7.3v-9.493h7.3v9.493zM19.65 30.885h-7.3v-9.497h7.3v9.497zM19.65 19.872h-7.3v-9.493h7.3v9.493zM28.466 30.506c0 0.209-0.17 0.379-0.379 0.379h-6.921v-20.506h7.3v20.127zM9.058 14.367h-1.116v-1.116c0-0.418-0.339-0.758-0.758-0.758s-0.758 0.339-0.758 0.758v1.116h-1.116c-0.418 0-0.758 0.339-0.758 0.758s0.339 0.758 0.758 0.758h1.116v1.116c0 0.419 0.339 0.758 0.758 0.758s0.758-0.339 0.758-0.758v-1.116h1.116c0.418 0 0.758-0.339 0.758-0.758s-0.339-0.758-0.758-0.758zM17.911 14.367h-3.822c-0.418 0-0.758 0.339-0.758 0.758s0.339 0.758 0.758 0.758h3.822c0.418 0 0.758-0.339 0.758-0.758s-0.339-0.758-0.758-0.758zM8.256 26.138l0.915-0.915c0.296-0.296 0.296-0.776 0-1.072s-0.776-0.296-1.072 0l-0.915 0.915-0.915-0.915c-0.296-0.296-0.776-0.296-1.072 0s-0.296 0.776 0 1.072l0.915 0.915-0.915 0.915c-0.296 0.296-0.296 0.776 0 1.072 0.148 0.148 0.342 0.222 0.536 0.222s0.388-0.074 0.536-0.222l0.915-0.915 0.915 0.915c0.148 0.148 0.342 0.222 0.536 0.222s0.388-0.074 0.536-0.222c0.296-0.296 0.296-0.776 0-1.072l-0.915-0.915zM17.986 24.152c-0.296-0.296-0.776-0.296-1.072 0l-2.901 2.901c-0.296 0.296-0.296 0.776 0 1.072 0.148 0.148 0.342 0.222 0.536 0.222s0.388-0.074 0.536-0.222l2.901-2.901c0.296-0.296 0.296-0.776 0-1.072zM15.196 24.688c0 0.357-0.289 0.646-0.646 0.646s-0.646-0.289-0.646-0.646c0-0.357 0.289-0.646 0.646-0.646s0.646 0.289 0.646 0.646zM18.097 27.588c0 0.357-0.289 0.646-0.646 0.646s-0.646-0.289-0.646-0.646c0-0.357 0.289-0.646 0.646-0.646s0.646 0.289 0.646 0.646zM26.73 18.551h-3.873c-0.418 0-0.758 0.339-0.758 0.758s0.339 0.758 0.758 0.758h3.873c0.418 0 0.758-0.339 0.758-0.758s-0.339-0.758-0.758-0.758zM26.73 21.196h-3.873c-0.418 0-0.758 0.339-0.758 0.758s0.339 0.758 0.758 0.758h3.873c0.418 0 0.758-0.339 0.758-0.758s-0.339-0.758-0.758-0.758z"></path>
</svg>
