<!-- Generated by IcoMoon.io -->
<svg version="1.1" xmlns="http://www.w3.org/2000/svg" width="32" height="32" viewBox="0 0 32 32">
<path d="M28.087 0.4h-24.175c-1.044 0-1.894 0.85-1.894 1.894v28.212c0 1.044 0.85 1.894 1.894 1.894h24.175c1.044 0 1.894-0.85 1.894-1.894v-28.212c0-1.044-0.85-1.894-1.894-1.894zM3.531 2.294c0-0.206 0.169-0.381 0.381-0.381h24.175c0.206 0 0.381 0.169 0.381 0.381v6.569h-24.938v-6.569zM10.838 30.887h-6.925c-0.206 0-0.381-0.169-0.381-0.381v-9.119h7.3v9.5zM10.838 19.869h-7.306v-9.488h7.3v9.488zM19.65 30.887h-7.3v-9.5h7.3v9.5zM19.65 19.869h-7.3v-9.488h7.3v9.488zM28.469 30.506c0 0.206-0.169 0.381-0.381 0.381h-6.925v-20.506h7.3v20.125zM9.056 14.369h-1.112v-1.113c0-0.419-0.338-0.756-0.756-0.756s-0.756 0.338-0.756 0.756v1.113h-1.119c-0.419 0-0.756 0.338-0.756 0.756s0.338 0.756 0.756 0.756h1.112v1.119c0 0.419 0.338 0.756 0.756 0.756s0.756-0.337 0.756-0.756v-1.119h1.112c0.419 0 0.756-0.338 0.756-0.756 0.006-0.419-0.331-0.756-0.75-0.756zM17.913 14.369h-3.819c-0.419 0-0.756 0.338-0.756 0.756s0.338 0.756 0.756 0.756h3.819c0.419 0 0.756-0.338 0.756-0.756s-0.337-0.756-0.756-0.756zM8.256 26.137l0.912-0.913c0.294-0.294 0.294-0.775 0-1.069s-0.775-0.294-1.069 0l-0.912 0.913-0.919-0.919c-0.294-0.294-0.775-0.294-1.069 0s-0.294 0.775 0 1.069l0.912 0.913-0.912 0.913c-0.294 0.294-0.294 0.775 0 1.069 0.15 0.15 0.344 0.225 0.537 0.225s0.388-0.075 0.537-0.225l0.906-0.9 0.912 0.913c0.15 0.15 0.344 0.225 0.537 0.225s0.387-0.075 0.537-0.225c0.294-0.294 0.294-0.775 0-1.069l-0.912-0.919zM17.988 24.15c-0.294-0.294-0.775-0.294-1.069 0l-2.9 2.9c-0.294 0.294-0.294 0.775 0 1.069 0.15 0.15 0.344 0.225 0.537 0.225s0.387-0.075 0.537-0.225l2.9-2.9c0.288-0.294 0.288-0.769-0.006-1.069zM15.194 24.688c0 0.356-0.288 0.644-0.644 0.644s-0.644-0.288-0.644-0.644c0-0.356 0.288-0.644 0.644-0.644s0.644 0.288 0.644 0.644zM18.094 27.587c0 0.356-0.288 0.644-0.644 0.644s-0.644-0.288-0.644-0.644c0-0.356 0.288-0.644 0.644-0.644s0.644 0.288 0.644 0.644zM26.731 18.55h-3.875c-0.419 0-0.756 0.337-0.756 0.756s0.337 0.756 0.756 0.756h3.875c0.419 0 0.756-0.337 0.756-0.756 0-0.413-0.337-0.756-0.756-0.756zM26.731 21.194h-3.875c-0.419 0-0.756 0.337-0.756 0.756s0.337 0.762 0.756 0.762h3.875c0.419 0 0.756-0.337 0.756-0.756s-0.337-0.762-0.756-0.762z"></path>
</svg>
