<!-- Generated by IcoMoon.io -->
<svg version="1.1" xmlns="http://www.w3.org/2000/svg" width="32" height="32" viewBox="0 0 32 32">
<path d="M26.65 12.858c0 0.425-0.344 0.769-0.769 0.769s-0.769-0.344-0.769-0.769c0-0.425 0.344-0.769 0.769-0.769s0.769 0.344 0.769 0.769zM21.71 12.858c0 0.425-0.344 0.769-0.769 0.769s-0.769-0.344-0.769-0.769c0-0.425 0.344-0.769 0.769-0.769s0.769 0.344 0.769 0.769zM16.769 12.858c0 0.425-0.344 0.769-0.769 0.769s-0.769-0.344-0.769-0.769c0-0.425 0.344-0.769 0.769-0.769s0.769 0.344 0.769 0.769zM11.829 12.858c0 0.425-0.344 0.769-0.769 0.769s-0.769-0.344-0.769-0.769c0-0.425 0.344-0.769 0.769-0.769s0.769 0.344 0.769 0.769zM6.889 12.858c0 0.425-0.344 0.769-0.769 0.769s-0.769-0.344-0.769-0.769c0-0.425 0.344-0.769 0.769-0.769s0.769 0.344 0.769 0.769zM26.65 17.798c0 0.425-0.344 0.769-0.769 0.769s-0.769-0.344-0.769-0.769c0-0.425 0.344-0.769 0.769-0.769s0.769 0.344 0.769 0.769zM21.71 17.798c0 0.425-0.344 0.769-0.769 0.769s-0.769-0.344-0.769-0.769c0-0.425 0.344-0.769 0.769-0.769s0.769 0.344 0.769 0.769zM16.769 17.798c0 0.425-0.344 0.769-0.769 0.769s-0.769-0.344-0.769-0.769c0-0.425 0.344-0.769 0.769-0.769s0.769 0.344 0.769 0.769zM6.889 17.798c0 0.425-0.344 0.769-0.769 0.769s-0.769-0.344-0.769-0.769c0-0.425 0.344-0.769 0.769-0.769s0.769 0.344 0.769 0.769zM26.65 22.739c0 0.425-0.344 0.769-0.769 0.769s-0.769-0.344-0.769-0.769c0-0.425 0.344-0.769 0.769-0.769s0.769 0.344 0.769 0.769zM21.71 22.739c0 0.425-0.344 0.769-0.769 0.769s-0.769-0.344-0.769-0.769c0-0.425 0.344-0.769 0.769-0.769s0.769 0.344 0.769 0.769zM16.769 22.739c0 0.425-0.344 0.769-0.769 0.769s-0.769-0.344-0.769-0.769c0-0.425 0.344-0.769 0.769-0.769s0.769 0.344 0.769 0.769zM11.829 22.739c0 0.425-0.344 0.769-0.769 0.769s-0.769-0.344-0.769-0.769c0-0.425 0.344-0.769 0.769-0.769s0.769 0.344 0.769 0.769zM6.889 22.739c0 0.425-0.344 0.769-0.769 0.769s-0.769-0.344-0.769-0.769c0-0.425 0.344-0.769 0.769-0.769s0.769 0.344 0.769 0.769zM13.381 14.816h-4.643c-0.365 0-0.661 0.296-0.661 0.661v4.643c0 0.365 0.296 0.661 0.661 0.661h4.643c0.365 0 0.661-0.296 0.661-0.661v-4.643c0-0.365-0.296-0.661-0.661-0.661zM12.72 19.459h-3.321v-3.321h3.321v3.321zM29.796 5.97h-4.857v-0.849c0-0.406-0.329-0.735-0.735-0.735s-0.735 0.329-0.735 0.735v0.849h-4v-0.849c0-0.406-0.329-0.735-0.735-0.735s-0.735 0.329-0.735 0.735v0.849h-4v-0.849c0-0.406-0.329-0.735-0.735-0.735s-0.735 0.329-0.735 0.735v0.849h-4v-0.849c0-0.406-0.329-0.735-0.735-0.735s-0.735 0.329-0.735 0.735v0.849h-4.857c-1.215 0-2.204 0.989-2.204 2.204v18.036c0 1.215 0.989 2.204 2.204 2.204h27.592c1.215 0 2.204-0.989 2.204-2.204v-18.036c-0-1.215-0.989-2.204-2.204-2.204zM29.796 26.944h-27.592c-0.405 0-0.735-0.33-0.735-0.735v-18.036c0-0.405 0.33-0.735 0.735-0.735h4.857v0.849c0 0.406 0.329 0.735 0.735 0.735s0.735-0.329 0.735-0.735v-0.849h4v0.849c0 0.406 0.329 0.735 0.735 0.735s0.735-0.329 0.735-0.735v-0.849h4v0.849c0 0.406 0.329 0.735 0.735 0.735s0.735-0.329 0.735-0.735v-0.849h4v0.849c0 0.406 0.329 0.735 0.735 0.735s0.735-0.329 0.735-0.735v-0.849h4.857c0.405 0 0.735 0.33 0.735 0.735v18.036h0c-0 0.405-0.33 0.735-0.735 0.735z"></path>
</svg>
