<!-- Generated by IcoMoon.io -->
<svg version="1.1" xmlns="http://www.w3.org/2000/svg" width="32" height="32" viewBox="0 0 32 32">
<path d="M30.4 2.533h-3.733v-1.6c0-0.295-0.238-0.533-0.533-0.533h-3.733c-0.295 0-0.533 0.238-0.533 0.533v1.6h-11.733v-1.6c0-0.295-0.238-0.533-0.533-0.533h-3.733c-0.295 0-0.533 0.238-0.533 0.533v1.6h-3.733c-0.295 0-0.533 0.238-0.533 0.533v28.8c0 0.295 0.238 0.533 0.533 0.533h28.8c0.295 0 0.533-0.238 0.533-0.533v-28.8c0-0.295-0.238-0.533-0.533-0.533zM22.933 1.467h2.667v3.2h-2.667v-3.2zM6.4 1.467h2.667v3.2h-2.667v-3.2zM2.133 3.6h3.2v1.6c0 0.295 0.238 0.533 0.533 0.533h3.733c0.295 0 0.533-0.238 0.533-0.533v-1.6h11.733v1.6c0 0.295 0.238 0.533 0.533 0.533h3.733c0.295 0 0.533-0.238 0.533-0.533v-1.6h3.2v4.8h-27.733v-4.8zM2.133 31.333v-21.867h27.733v21.867h-27.733zM20.267 12.667h-14.4v15.467h20.267v-15.467h-5.867zM16.533 13.733h3.733v3.733h-3.733v-3.733zM20.267 22.267h-3.733v-3.733h3.733v3.733zM11.733 18.533h3.733v3.733h-3.733v-3.733zM11.733 13.733h3.733v3.733h-3.733v-3.733zM6.933 13.733h3.733v3.733h-3.733v-3.733zM6.933 18.533h3.733v3.733h-3.733v-3.733zM10.667 27.067h-3.733v-3.733h3.733v3.733zM15.467 27.067h-3.733v-3.733h3.733v3.733zM20.267 27.067h-3.733v-3.733h3.733v3.733zM25.067 27.067h-3.733v-3.733h3.733v3.733zM25.067 22.267h-3.733v-3.733h3.733v3.733zM25.067 13.733v3.733h-3.733v-3.733h3.733z"></path>
</svg>
