<!-- Generated by IcoMoon.io -->
<svg version="1.1" xmlns="http://www.w3.org/2000/svg" width="32" height="32" viewBox="0 0 32 32">
<path d="M30.831 6.246c-0.209-1.012-0.698-1.919-1.396-2.617-0.209-0.209-0.454-0.419-0.733-0.593l-0.035-0.035c-0.035-0.035-0.070-0.035-0.105-0.070-0.105-0.070-0.209-0.14-0.314-0.174h-0.035c-0.733-0.384-1.535-0.593-2.443-0.593h-2.164v-1.501c0-0.349-0.279-0.663-0.663-0.663-0.349 0-0.663 0.279-0.663 0.663v1.431h-12.528v-1.431c0-0.349-0.314-0.663-0.663-0.663s-0.663 0.279-0.663 0.663v1.431h-2.164c-0.663 0-1.326 0.14-1.919 0.384-0.663 0.279-1.256 0.663-1.745 1.152-0.279 0.279-0.523 0.593-0.733 0.907-0.209 0.349-0.384 0.698-0.523 1.082-0.070 0.209-0.14 0.419-0.174 0.628-0.070 0.349-0.105 0.698-0.105 1.047v19.577c0 1.431 0.593 2.722 1.501 3.629 0.942 0.942 2.233 1.501 3.629 1.501h19.612c1.431 0 2.722-0.593 3.629-1.501 0.942-0.942 1.501-2.233 1.501-3.629v-19.577c0-0.349-0.035-0.698-0.105-1.047zM2.425 7.258c0-0.279 0.035-0.523 0.070-0.768s0.14-0.489 0.209-0.733c0.14-0.314 0.314-0.593 0.489-0.838 0.105-0.14 0.209-0.244 0.314-0.384 0.209-0.209 0.454-0.384 0.698-0.558 0.593-0.349 1.256-0.558 1.989-0.558h2.164v1.431c0 0.349 0.279 0.663 0.663 0.663 0.349 0 0.663-0.279 0.663-0.663v-1.431h12.702v1.431c0 0.349 0.279 0.663 0.663 0.663 0.349 0 0.663-0.279 0.663-0.663v-1.431h2.164c0.733 0 1.431 0.209 1.989 0.558 0.244 0.174 0.489 0.349 0.698 0.558 0.523 0.523 0.907 1.186 1.047 1.954 0.035 0.244 0.070 0.523 0.070 0.768v2.862h-27.254v-2.861zM29.714 26.835c0 1.082-0.419 2.059-1.117 2.757s-1.675 1.117-2.722 1.117h-19.612c-1.047 0-2.024-0.419-2.722-1.117s-1.117-1.675-1.117-2.722v-15.459h27.289v15.424z"></path>
</svg>
