<!-- Generated by IcoMoon.io -->
<svg version="1.1" xmlns="http://www.w3.org/2000/svg" width="32" height="32" viewBox="0 0 32 32">
<path d="M31.044 8.325c0-3.975-3.256-7.231-7.231-7.231-3.081 0-5.731 1.956-6.762 4.688h-11.012v-3.644h-1.306v3.65h-3.775v25.919h27.419v-17.788c1.625-1.325 2.669-3.344 2.669-5.594zM23.813 2.4c3.319 0 5.994 2.606 5.925 5.925 0 3.256-2.669 5.925-5.925 5.925s-5.925-2.669-5.925-5.925c0-3.256 2.669-5.925 5.925-5.925zM16.694 7.088c-0.069 0.4-0.106 0.819-0.106 1.238 0 1.606 0.531 3.094 1.431 4.3h-15.825v-5.537h14.5zM27.069 30.4h-24.875v-16.475l17.063-0.006c1.244 1.019 2.837 1.631 4.556 1.631 1.169 0 2.275-0.281 3.256-0.781v15.631zM27.2 9.694l-2.731-1.763v-4.95h-1.238v5.669l3.256 2.15zM8.444 19.137h1.631v7.031h1.887v-8.662h-3.519zM17.3 17.244c-1.175 0-2.081 0.394-2.669 1.238-0.588 0.781-0.912 1.887-0.912 3.256s0.325 2.413 0.912 3.256 1.5 1.238 2.669 1.238c1.238 0 2.081-0.394 2.669-1.238 0.587-0.781 0.913-1.887 0.913-3.256s-0.325-2.413-0.913-3.256c-0.581-0.844-1.494-1.238-2.669-1.238zM18.669 23.825c-0.325 0.519-0.719 0.781-1.3 0.781-0.587 0-1.044-0.262-1.3-0.781-0.262-0.519-0.394-1.238-0.394-2.081s0.131-1.563 0.394-2.081 0.65-0.781 1.3-0.781c0.587 0 1.044 0.262 1.3 0.781 0.262 0.519 0.394 1.238 0.394 2.081s-0.131 1.563-0.394 2.081z"></path>
</svg>
