<!-- Generated by IcoMoon.io -->
<svg version="1.1" xmlns="http://www.w3.org/2000/svg" width="32" height="32" viewBox="0 0 32 32">
<path d="M30.179 5.25c-0.452-0.452-0.988-0.679-1.607-0.679h-2.285v-1.714c0-0.786-0.28-1.458-0.839-2.018s-1.232-0.839-2.018-0.839h-1.143c-0.786 0-1.458 0.28-2.018 0.839s-0.839 1.232-0.839 2.018v1.714h-6.857v-1.714c0-0.786-0.28-1.458-0.839-2.018s-1.232-0.839-2.018-0.839h-1.143c-0.786 0-1.458 0.28-2.018 0.839s-0.839 1.232-0.839 2.018v1.714h-2.285c-0.619 0-1.155 0.226-1.607 0.679s-0.679 0.988-0.679 1.607v22.857c0 0.619 0.226 1.154 0.679 1.607s0.988 0.679 1.607 0.679h25.142c0.619 0 1.155-0.226 1.607-0.679s0.679-0.988 0.679-1.607v-22.857c-0-0.619-0.226-1.155-0.678-1.607zM21.715 2.857c0-0.167 0.053-0.304 0.16-0.411s0.244-0.161 0.411-0.161h1.143c0.167 0 0.304 0.053 0.411 0.161s0.161 0.244 0.161 0.411v5.143c0 0.167-0.053 0.304-0.161 0.411s-0.244 0.161-0.411 0.161h-1.143c-0.167 0-0.304-0.053-0.411-0.161s-0.16-0.244-0.16-0.411v-5.143zM8 2.857c0-0.167 0.053-0.304 0.161-0.411s0.244-0.161 0.411-0.161h1.143c0.167 0 0.304 0.053 0.411 0.161s0.161 0.244 0.161 0.411v5.143c0 0.167-0.053 0.304-0.161 0.411s-0.244 0.161-0.411 0.161h-1.143c-0.167 0-0.304-0.053-0.411-0.161s-0.161-0.244-0.161-0.411v-5.143zM28.571 29.714h-25.142v-18.286h25.142v18.286z"></path>
</svg>
