<!-- Generated by IcoMoon.io -->
<svg version="1.1" xmlns="http://www.w3.org/2000/svg" width="32" height="32" viewBox="0 0 32 32">
<path d="M26.425 5.55v-4.463h-1.3v4.463h-18.25v-4.463h-1.3v4.463h-4.888v26.163h30.625v-26.163h-4.887zM1.994 6.813h28.081v5.856h-28.081v-5.856zM30.075 30.45h-28.081v-16.512h28.081v16.512zM6.225 18.262h2.737v1.331h-2.737v-1.331zM14.631 18.262h2.737v1.331h-2.738v-1.331zM23.038 18.262h2.738v1.331h-2.738v-1.331zM6.225 24.525h2.737v1.331h-2.737v-1.331zM14.631 24.525h2.737v1.331h-2.738v-1.331zM23.038 24.525h2.738v1.331h-2.738v-1.331z"></path>
</svg>
