<!-- Generated by IcoMoon.io -->
<svg version="1.1" xmlns="http://www.w3.org/2000/svg" width="32" height="32" viewBox="0 0 32 32">
<path d="M30.609 27.285c-0 0-0 0-0 0-0.387-0-0.776-0.155-1.158-0.46l-5.501-4.401c-0.884-0.707-1.55-2.093-1.55-3.224v-4.8c0-1.131 0.666-2.518 1.55-3.224l5.501-4.401c0.382-0.305 0.771-0.46 1.158-0.46 0.692-0 1.391 0.521 1.391 1.685v17.6c0 0.445-0.102 0.819-0.304 1.111-0.252 0.365-0.648 0.574-1.087 0.574zM30.4 8.065l-5.451 4.361c-0.497 0.397-0.949 1.339-0.949 1.975v4.8c0 0.636 0.452 1.577 0.949 1.975l5.451 4.361v-17.471zM18.4 27.2h-16c-1.323 0-2.4-1.077-2.4-2.4v-16c0-1.323 1.077-2.4 2.4-2.4h16c1.323 0 2.4 1.077 2.4 2.4v16c0 1.323-1.077 2.4-2.4 2.4zM2.4 8c-0.441 0-0.8 0.359-0.8 0.8v16c0 0.441 0.359 0.8 0.8 0.8h16c0.441 0 0.8-0.359 0.8-0.8v-16c0-0.441-0.359-0.8-0.8-0.8h-16z"></path>
</svg>
