<!-- Generated by IcoMoon.io -->
<svg version="1.1" xmlns="http://www.w3.org/2000/svg" width="32" height="32" viewBox="0 0 32 32">
<path d="M15.2 24c-3.97 0-7.2-3.23-7.2-7.2s3.23-7.2 7.2-7.2c3.97 0 7.2 3.23 7.2 7.2s-3.23 7.2-7.2 7.2zM15.2 11.2c-3.088 0-5.6 2.512-5.6 5.6s2.512 5.6 5.6 5.6 5.6-2.512 5.6-5.6-2.512-5.6-5.6-5.6zM28 28.8h-25.6c-1.323 0-2.4-1.077-2.4-2.4v-16c0-1.323 1.077-2.4 2.4-2.4h2.4c0.664 0 1.696-0.428 2.166-0.897l0.937-0.937c0.779-0.779 2.196-1.366 3.297-1.366h8c1.101 0 2.519 0.587 3.297 1.366l0.937 0.937c0.47 0.47 1.502 0.897 2.166 0.897h2.4c1.323 0 2.4 1.077 2.4 2.4v16c0 1.323-1.077 2.4-2.4 2.4zM2.4 9.6c-0.441 0-0.8 0.359-0.8 0.8v16c0 0.441 0.359 0.8 0.8 0.8h25.6c0.441 0 0.8-0.359 0.8-0.8v-16c0-0.441-0.359-0.8-0.8-0.8h-2.4c-1.101 0-2.519-0.587-3.297-1.366l-0.937-0.937c-0.47-0.47-1.502-0.897-2.166-0.897h-8c-0.664 0-1.696 0.428-2.166 0.897l-0.937 0.937c-0.779 0.779-2.196 1.366-3.297 1.366h-2.4z"></path>
</svg>
