<!-- Generated by IcoMoon.io -->
<svg version="1.1" xmlns="http://www.w3.org/2000/svg" width="32" height="32" viewBox="0 0 32 32">
<path d="M18.556 16.027l12.169-12.169c0.706-0.706 0.706-1.85 0-2.555s-1.851-0.706-2.555 0l-12.169 12.169-12.167-12.169c-0.705-0.706-1.85-0.706-2.555 0s-0.706 1.85 0 2.555l12.167 12.169-12.915 12.915c-0.706 0.706-0.706 1.85 0 2.555 0.352 0.353 0.815 0.53 1.278 0.53s0.925-0.176 1.278-0.53l12.915-12.915 12.915 12.915c0.353 0.353 0.815 0.53 1.278 0.53s0.924-0.176 1.278-0.53c0.706-0.706 0.706-1.85 0-2.555l-12.915-12.915z"></path>
</svg>
