<!-- Generated by IcoMoon.io -->
<svg version="1.1" xmlns="http://www.w3.org/2000/svg" width="32" height="32" viewBox="0 0 32 32">
<path d="M31.951 21.512l-1.353-7.68c-0.137-0.78-0.815-1.36-1.607-1.36h-0.91l-0.345-3.589c-0.37-3.847-3.563-6.748-7.427-6.748h-8.62c-3.864 0-7.058 2.901-7.427 6.748l-0.345 3.589h-0.909c-0.792 0-1.47 0.58-1.607 1.36l-1.353 7.674c-0.168 0.95 0.1 1.929 0.72 2.668 0.596 0.711 1.464 1.136 2.395 1.168v1.274c0 1.805 1.449 3.25 3.252 3.25h1.027c1.803 0 3.265-1.445 3.265-3.25v-1.257h10.582v1.256c0 1.804 1.461 3.25 3.265 3.25h1.027c1.804 0 3.252-1.448 3.252-3.25v-1.272c0.93-0.032 1.798-0.451 2.395-1.163 0.621-0.741 0.89-1.717 0.722-2.668zM6.028 22.404c-1.522 0-2.757-1.235-2.757-2.759s1.234-2.757 2.757-2.757c1.522 0 2.757 1.233 2.757 2.757s-1.235 2.759-2.757 2.759zM6.715 12.473l0.319-3.318c0.232-2.412 2.234-4.227 4.657-4.227h0.489v1.047c0 0.904 0.727 1.648 1.631 1.648h4.38c0.905 0 1.631-0.744 1.631-1.648v-1.047h0.489c2.423 0 4.425 1.815 4.657 4.227l0.319 3.318h-18.572zM25.972 22.404c-1.523 0-2.757-1.235-2.757-2.759s1.234-2.757 2.757-2.757 2.757 1.233 2.757 2.757-1.234 2.759-2.757 2.759z"></path>
</svg>
