<!-- Generated by IcoMoon.io -->
<svg version="1.1" xmlns="http://www.w3.org/2000/svg" width="32" height="32" viewBox="0 0 32 32">
<path d="M16 0c-8.822 0-16 7.178-16 16s7.178 16 16 16c8.822 0 16-7.178 16-16s-7.178-16-16-16zM16 27.364c-6.276 0-11.364-5.088-11.364-11.364s5.088-11.364 11.364-11.364c6.276 0 11.364 5.088 11.364 11.364s-5.088 11.364-11.364 11.364z"></path>
<path d="M16 6.107c-5.455 0-9.893 4.438-9.893 9.893s4.438 9.893 9.893 9.893c5.455 0 9.893-4.438 9.893-9.893s-4.438-9.893-9.893-9.893zM24.626 15.369h-4.8c-0.098-0.607-0.338-1.166-0.683-1.644l3.389-3.389c1.19 1.37 1.955 3.115 2.095 5.033zM16.621 7.373c1.916 0.137 3.661 0.9 5.032 2.086l-3.388 3.388c-0.478-0.345-1.038-0.585-1.644-0.683v-4.791zM15.379 7.373v4.791c-0.606 0.098-1.166 0.338-1.644 0.683l-3.388-3.388c1.371-1.186 3.116-1.949 5.032-2.086zM9.468 10.336l3.389 3.389c-0.346 0.478-0.585 1.038-0.683 1.644h-4.8c0.139-1.918 0.905-3.663 2.094-5.033zM7.373 16.611h4.802c0.098 0.606 0.338 1.166 0.683 1.644l-3.398 3.398c-1.188-1.373-1.952-3.122-2.087-5.042zM15.379 24.627c-1.922-0.137-3.671-0.904-5.043-2.095l3.399-3.399c0.478 0.346 1.038 0.585 1.644 0.683v4.811zM15.379 18.539v0.009c-0.268-0.065-0.519-0.171-0.748-0.311l0.006-0.006c-0.358-0.218-0.659-0.519-0.878-0.878l-0.006 0.006c-0.14-0.229-0.246-0.48-0.311-0.748h0.009c-0.048-0.199-0.077-0.406-0.077-0.621s0.029-0.421 0.077-0.621h-0.009c0.065-0.268 0.171-0.519 0.311-0.748l0.006 0.006c0.219-0.358 0.52-0.659 0.878-0.878l-0.006-0.006c0.229-0.14 0.48-0.246 0.748-0.311v0.009c0.199-0.048 0.406-0.077 0.621-0.077s0.421 0.029 0.621 0.077v-0.009c0.268 0.065 0.519 0.171 0.748 0.311l-0.006 0.006c0.358 0.218 0.659 0.519 0.878 0.878l0.006-0.006c0.14 0.229 0.246 0.48 0.311 0.748h-0.009c0.048 0.199 0.077 0.406 0.077 0.621s-0.029 0.421-0.077 0.621h0.009c-0.065 0.268-0.171 0.519-0.311 0.748l-0.006-0.006c-0.218 0.358-0.52 0.659-0.878 0.878l0.006 0.006c-0.229 0.14-0.48 0.246-0.748 0.311v-0.009c-0.199 0.048-0.406 0.077-0.621 0.077s-0.421-0.028-0.621-0.077zM16.621 24.627v-4.811c0.606-0.098 1.166-0.338 1.644-0.683l3.399 3.399c-1.372 1.192-3.121 1.958-5.043 2.095zM22.541 21.653l-3.398-3.398c0.346-0.478 0.585-1.038 0.683-1.644h4.801c-0.135 1.92-0.898 3.669-2.087 5.042z"></path>
</svg>
