<!-- Generated by IcoMoon.io -->
<svg version="1.1" xmlns="http://www.w3.org/2000/svg" width="32" height="32" viewBox="0 0 32 32">
<path d="M30.776 12.82l-0.697-0.738-2.448-6.598c-0.417-1.115-1.484-1.853-2.674-1.86h-17.484c-1.19 0-2.256 0.745-2.674 1.86l-2.414 6.516-1.005 0.93c-0.875 0.745-1.381 1.839-1.381 2.988v9.614c0.007 1.573 1.285 2.844 2.858 2.844h1.805c1.573 0 2.851-1.272 2.858-2.844v-1.395h16.957v1.395c0.007 1.573 1.285 2.844 2.858 2.844h1.805c1.573 0 2.851-1.272 2.858-2.844v-9.867c-0.007-1.073-0.444-2.099-1.224-2.844zM6.085 5.949c0.219-0.581 0.773-0.957 1.388-0.957h17.491c0.615 0 1.169 0.383 1.388 0.957l2.133 5.744h-1.593c-0.376-2.564-2.762-4.335-5.326-3.952-2.044 0.301-3.651 1.908-3.952 3.952h-13.662l2.133-5.744zM25.497 11.692h-6.503c0.376-1.798 2.14-2.947 3.938-2.571 1.285 0.274 2.291 1.279 2.564 2.571zM6.154 25.532c-0.007 0.82-0.67 1.477-1.491 1.477h-1.805c-0.821 0-1.484-0.656-1.491-1.477v-1.791c0.41 0.267 0.95 0.397 1.491 0.397h3.296v1.395zM30.632 25.532c-0.007 0.82-0.67 1.477-1.491 1.477h-1.805c-0.82 0-1.484-0.663-1.491-1.477v-1.395h3.296c0.54 0 1.080-0.13 1.491-0.397v1.791zM29.142 22.769h-26.284c-0.814 0.007-1.484-0.643-1.491-1.463v-5.388c0-0.752 0.335-1.47 0.909-1.956 0.007-0.007 0.021-0.021 0.027-0.027l0.93-0.875h25.894l0.656 0.704c0.007 0.014 0.027 0.021 0.034 0.034 0.513 0.485 0.807 1.162 0.807 1.867v5.641h0.007c-0.007 0.814-0.677 1.47-1.491 1.463z"></path>
<path d="M9.026 15.795h-5.128c-0.376 0-0.684 0.308-0.684 0.684v3.556c0 0.376 0.308 0.684 0.684 0.684h5.128c0.376 0 0.684-0.308 0.684-0.684v-3.556c0-0.376-0.308-0.684-0.684-0.684zM8.342 19.35h-3.761v-2.188h3.761v2.188z"></path>
<path d="M28.103 15.795h-5.128c-0.376 0-0.684 0.308-0.684 0.684v3.556c0 0.376 0.308 0.684 0.684 0.684h5.128c0.376 0 0.684-0.308 0.684-0.684v-3.556c0-0.376-0.308-0.684-0.684-0.684zM27.419 19.35h-3.761v-2.188h3.761v2.188z"></path>
<path d="M19.303 18.667h-6.605c-0.376 0-0.684 0.308-0.684 0.684s0.308 0.684 0.684 0.684h6.605c0.376 0 0.684-0.308 0.684-0.684s-0.308-0.684-0.684-0.684z"></path>
<path d="M19.303 16.547h-6.605c-0.376 0-0.684 0.308-0.684 0.684s0.308 0.684 0.684 0.684h6.605c0.376 0 0.684-0.308 0.684-0.684s-0.308-0.684-0.684-0.684z"></path>
</svg>
