<!-- Generated by IcoMoon.io -->
<svg version="1.1" xmlns="http://www.w3.org/2000/svg" width="32" height="32" viewBox="0 0 32 32">
<path d="M31.559 8.504c-0.819 0-1.512-0.693-1.512-1.512 0-0.252-0.189-0.441-0.441-0.441s-0.441 0.189-0.441 0.441c0 0.819-0.693 1.512-1.512 1.512-0.252 0-0.441 0.189-0.441 0.441s0.189 0.441 0.441 0.441c0.819 0 1.512 0.693 1.512 1.512 0 0.252 0.189 0.441 0.441 0.441s0.441-0.189 0.441-0.441c0-0.819 0.693-1.512 1.512-1.512 0.252 0 0.441-0.189 0.441-0.441s-0.189-0.441-0.441-0.441zM29.543 9.575c-0.126-0.189-0.315-0.378-0.567-0.567 0.189-0.126 0.378-0.315 0.567-0.567 0.126 0.189 0.315 0.378 0.567 0.567-0.252 0.126-0.441 0.315-0.567 0.567z"></path>
<path d="M4.472 8.504c-0.819 0-1.512-0.693-1.512-1.512 0-0.252-0.189-0.441-0.441-0.441s-0.441 0.189-0.441 0.441c0 0.819-0.693 1.512-1.512 1.512-0.252 0-0.441 0.189-0.441 0.441s0.063 0.504 0.315 0.504c0.819 0 1.512 0.693 1.512 1.512 0 0.252 0.189 0.441 0.441 0.441s0.441-0.189 0.441-0.441c0-0.819 0.693-1.512 1.512-1.512 0.252 0 0.441-0.189 0.441-0.441s-0.063-0.504-0.315-0.504zM2.457 9.575c-0.126-0.189-0.315-0.378-0.567-0.567 0.189-0.126 0.378-0.315 0.567-0.567 0.126 0.189 0.315 0.378 0.567 0.567-0.189 0.126-0.378 0.315-0.567 0.567z"></path>
<path d="M18.52 2.52c-1.134 0-2.016-0.945-2.016-2.016 0-0.252-0.189-0.441-0.441-0.441s-0.441 0.189-0.441 0.441c0 1.134-0.945 2.016-2.016 2.016-0.252 0-0.441 0.189-0.441 0.441s0.189 0.441 0.441 0.441c1.134 0 2.016 0.945 2.016 2.016 0 0.252 0.189 0.441 0.441 0.441s0.441-0.189 0.441-0.441c0-1.134 0.945-2.016 2.016-2.016 0.252 0 0.441-0.189 0.441-0.441s-0.189-0.441-0.441-0.441zM16 3.905c-0.252-0.378-0.504-0.693-0.882-0.945 0.378-0.252 0.693-0.567 0.882-0.882 0.252 0.378 0.567 0.693 0.882 0.882-0.315 0.252-0.63 0.567-0.882 0.945z"></path>
<path d="M25.764 15.874l-1.827-5.228c-0.126-0.378-0.504-0.63-0.945-0.63h-14.173c-0.441 0-0.756 0.252-0.945 0.63l-1.827 5.165c-0.126 0.315 0.126 0.63 0.441 0.63h18.835c0.126 0 0.315-0.063 0.378-0.189 0.126-0.126 0.126-0.252 0.063-0.378zM7.181 15.559l1.638-4.535c0 0 0 0 0 0h14.236c0 0 0 0 0 0l1.638 4.535h-17.512z"></path>
<path d="M24.945 22.047c-1.638 0-2.961 0.882-2.961 1.953s1.323 1.953 2.961 1.953c1.638 0 2.961-0.882 2.961-1.953s-1.26-1.953-2.961-1.953zM24.945 25.071c-1.197 0-2.016-0.567-2.016-1.008 0-0.504 0.882-1.008 2.016-1.008 1.197 0 2.016 0.567 2.016 1.008 0.063 0.441-0.819 1.008-2.016 1.008z"></path>
<path d="M6.929 22.047c-1.638 0-2.961 0.882-2.961 1.953s1.323 1.953 2.961 1.953 2.961-0.882 2.961-1.953-1.323-1.953-2.961-1.953zM6.929 25.071c-1.197 0-2.016-0.567-2.016-1.008 0-0.504 0.882-1.008 2.016-1.008s2.016 0.567 2.016 1.008c0 0.441-0.882 1.008-2.016 1.008z"></path>
<path d="M30.992 15.055h-2.52c-0.189 0-0.378 0.126-0.441 0.378l-0.315 1.26-2.331-6.551c-0.378-1.008-1.26-1.638-2.331-1.638h-14.236c-1.071 0-2.016 0.693-2.331 1.638l-2.268 6.551-0.315-1.323c-0.063-0.189-0.252-0.378-0.441-0.378h-2.52c-0.252 0-0.441 0.189-0.441 0.441v2.016c0 0.252 0.189 0.441 0.441 0.441h2.583l-1.638 2.331c-0.315 0.441-0.441 0.945-0.441 1.449v5.858c0 0.819 0.378 1.512 1.008 2.016 0 0 0 0 0 0v1.512c0 0.567 0.441 0.945 0.945 0.945h3.024c0.567 0 0.945-0.441 0.945-0.945v-1.008h17.134v1.008c0 0.567 0.441 0.945 0.945 0.945h3.024c0.567 0 0.945-0.441 0.945-0.945v-1.512c0 0 0 0 0 0 0.63-0.441 1.008-1.197 1.008-2.016v-5.858c0-0.504-0.189-1.008-0.441-1.449l-1.575-2.268h2.583c0.252 0 0.441-0.189 0.441-0.441v-2.016c0-0.252-0.189-0.441-0.441-0.441zM1.386 17.071v-1.071h1.701l0.252 1.071h-1.953zM6.425 31.055c0 0 0 0 0 0h-3.024c0 0 0 0 0 0v-1.008h3.024c0-0.063 0 1.008 0 1.008zM28.535 31.055c0 0-0.063 0 0 0h-3.024c0 0 0 0 0 0v-1.008h3.024v1.008zM27.968 29.102h-24.063c-0.693 0-1.26-0.441-1.449-1.071h26.961c-0.189 0.567-0.756 1.071-1.449 1.071zM19.968 24v1.071h-8.063v-1.071h8.063zM11.969 23.055c0.189-0.63 0.756-1.071 1.449-1.071h5.039c0.693 0 1.26 0.441 1.449 1.071h-7.937zM19.968 26.016v1.071h-8.063v-1.071h8.063zM29.228 20.787c0.189 0.252 0.315 0.567 0.315 0.882v5.417h-8.63v-3.528c0-1.386-1.134-2.457-2.457-2.457h-5.039c-1.386 0-2.457 1.134-2.457 2.457v3.528h-8.567v-5.417c0-0.315 0.126-0.63 0.315-0.882l2.016-2.772h17.323c0.252 0 0.441-0.189 0.441-0.441s-0.189-0.441-0.441-0.441h-16.945l2.331-6.551c0.189-0.63 0.819-1.008 1.449-1.008h14.236c0.63 0 1.26 0.441 1.449 1.008l2.331 6.551h-2.835c-0.252 0-0.441 0.189-0.441 0.441s0.189 0.441 0.441 0.441h3.276l1.89 2.772zM30.488 17.071h-1.953l0.252-1.071h1.701v1.071z"></path>
<path d="M8.441 20.535h-3.024c-0.252 0-0.441 0.189-0.441 0.441s0.189 0.441 0.441 0.441h3.024c0.252 0 0.441-0.189 0.441-0.441 0-0.189-0.189-0.441-0.441-0.441z"></path>
<path d="M26.457 20.535h-3.024c-0.252 0-0.441 0.189-0.441 0.441s0.189 0.441 0.441 0.441h3.024c0.252 0 0.441-0.189 0.441-0.441 0.063-0.189-0.189-0.441-0.441-0.441z"></path>
</svg>
