<!-- Generated by IcoMoon.io -->
<svg version="1.1" xmlns="http://www.w3.org/2000/svg" width="37" height="32" viewBox="0 0 37 32">
<path d="M8.063 24.254c-2.159 0-3.873 1.714-3.873 3.873s1.714 3.873 3.873 3.873 3.873-1.714 3.873-3.873c0-2.159-1.714-3.873-3.873-3.873zM8.063 30.921c-1.524 0-2.794-1.27-2.794-2.794s1.27-2.794 2.794-2.794 2.794 1.27 2.794 2.794c0 1.524-1.27 2.794-2.794 2.794z"></path>
<path d="M8.063 26.159c-1.079 0-1.968 0.889-1.968 1.968s0.889 1.968 1.968 1.968c1.079 0 1.968-0.889 1.968-1.968s-0.889-1.968-1.968-1.968zM8.063 29.016c-0.508 0-0.889-0.381-0.889-0.889s0.381-0.889 0.889-0.889c0.508 0 0.889 0.381 0.889 0.889s-0.381 0.889-0.889 0.889z"></path>
<path d="M37.079 15.937l-2.476-6.476c-0.571-1.524-2.032-2.54-3.683-2.54h-9.651c-0.317 0-0.571 0.254-0.571 0.571v12.635h-1.143v-10.032c0 0 0 0 0 0s0 0 0 0v-4.317c0-0.317-0.254-0.571-0.571-0.571h-1.206c0.444-0.571 0.762-1.27 0.762-2.032 0-1.714-1.397-3.175-3.175-3.175s-3.175 1.397-3.175 3.175v0.508c-0.444-0.317-0.952-0.508-1.524-0.508s-1.079 0.19-1.524 0.508v-0.508c0-1.714-1.397-3.175-3.175-3.175s-3.175 1.397-3.175 3.175c0 0.762 0.317 1.524 0.762 2.032h-1.143c-0.317 0-0.571 0.254-0.571 0.571v14.349h-1.27c-0.317 0-0.571 0.254-0.571 0.571v7.429c0 0.317 0.254 0.571 0.571 0.571h2.032c0.317 0 0.571-0.254 0.571-0.571 0-2.73 2.222-4.889 4.889-4.889 2.73 0 4.889 2.222 4.889 4.889 0 0.317 0.254 0.571 0.571 0.571h9.778c0.317 0 0.571-0.254 0.571-0.571 0-2.73 2.222-4.889 4.889-4.889 1.079 0 2.032 0.317 2.921 0.952 0.254 0.19 0.571 0.127 0.762-0.127s0.127-0.571-0.127-0.762c-1.016-0.762-2.286-1.143-3.556-1.143-3.111 0-5.714 2.413-5.968 5.46h-1.016v-19.556h9.143c1.143 0 2.222 0.762 2.667 1.841l2.476 6.349v11.302h-1.206c-0.127-1.079-0.444-2.095-1.079-2.921-0.19-0.254-0.508-0.317-0.762-0.127s-0.317 0.508-0.127 0.762c0.571 0.825 0.889 1.841 0.889 2.857 0 0.317 0.254 0.571 0.571 0.571h2.286c0.317 0 0.571-0.254 0.571-0.571v-12c-0.063-0.064-0.063-0.127-0.127-0.19zM13.27 10.603h5.143v9.524h-5.143v-9.524zM18.413 9.524h-5.143v-3.175h5.143v3.175zM13.27 3.175c0-1.143 0.952-2.032 2.032-2.032s2.032 0.952 2.032 2.032-0.825 2.032-1.968 2.032h-2.032v-2.032zM10.667 4.254c0.635 0 1.206 0.381 1.397 0.952h-2.794c0.254-0.571 0.762-0.952 1.397-0.952zM3.937 3.175c0-1.143 0.952-2.032 2.032-2.032s2.032 0.952 2.032 2.032v2.032h-1.968c-1.143 0-2.095-0.889-2.095-2.032zM8.063 6.349v3.175h-5.143v-3.175h5.143zM2.921 10.603h5.143v2.984c0 0.317 0.254 0.571 0.571 0.571s0.571-0.254 0.571-0.571v-7.238h3.048v13.841h-3.048v-4.635c0-0.317-0.254-0.571-0.571-0.571s-0.571 0.254-0.571 0.571v4.635h-5.143v-9.587zM8.063 22.095c-3.111 0-5.714 2.413-5.968 5.46h-1.016v-6.349h19.619v6.349h-6.603c-0.317-3.048-2.921-5.46-6.032-5.46z"></path>
<path d="M34.603 16.444c0.127-0.127 0.127-0.317 0.063-0.508l-2.159-5.651c-0.254-0.635-0.889-1.079-1.587-1.079h-7.365c-0.317 0-0.571 0.254-0.571 0.571v6.349c0 0.317 0.254 0.571 0.571 0.571h10.603c0.19 0 0.317-0.127 0.444-0.254zM24.064 15.556v-5.27h6.857c0.254 0 0.444 0.127 0.508 0.381l1.905 4.889h-9.27z"></path>
<path d="M28.825 24.254c-2.159 0-3.873 1.714-3.873 3.873s1.714 3.873 3.873 3.873 3.873-1.714 3.873-3.873c0-2.159-1.778-3.873-3.873-3.873zM28.825 30.921c-1.524 0-2.794-1.27-2.794-2.794s1.27-2.794 2.794-2.794 2.794 1.27 2.794 2.794c-0.064 1.524-1.27 2.794-2.794 2.794z"></path>
<path d="M28.825 26.159c-1.079 0-1.968 0.889-1.968 1.968s0.889 1.968 1.968 1.968 1.968-0.889 1.968-1.968c0-1.079-0.889-1.968-1.968-1.968zM28.825 29.016c-0.508 0-0.889-0.381-0.889-0.889s0.381-0.889 0.889-0.889 0.889 0.381 0.889 0.889-0.444 0.889-0.889 0.889z"></path>
<path d="M19.175 22.857h-3.873c-0.317 0-0.571 0.254-0.571 0.571s0.254 0.571 0.571 0.571h3.873c0.317 0 0.571-0.254 0.571-0.571s-0.317-0.571-0.571-0.571z"></path>
<path d="M19.175 24.825h-3.873c-0.317 0-0.571 0.254-0.571 0.571s0.254 0.571 0.571 0.571h3.873c0.317 0 0.571-0.254 0.571-0.571s-0.317-0.571-0.571-0.571z"></path>
<path d="M23.556 17.778c-0.317 0-0.571 0.254-0.571 0.571s0.254 0.571 0.571 0.571h2.349c0.317 0 0.571-0.254 0.571-0.571s-0.317-0.571-0.635-0.571h-2.286z"></path>
</svg>
