<!-- Generated by IcoMoon.io -->
<svg version="1.1" xmlns="http://www.w3.org/2000/svg" width="32" height="32" viewBox="0 0 32 32">
<path d="M29.83 12.483l-6.097-2.444c-1.015-0.407-2.084-0.613-3.178-0.613h-3.737c-1.339 0-2.678 0.321-3.871 0.928l-5.524 2.809-3.963 0.578c-0.961 0.14-1.839 0.622-2.474 1.357s-0.984 1.673-0.984 2.644v2.339c0 0.361 0.293 0.654 0.654 0.654h2.807c0.141 0.637 0.463 1.219 0.94 1.684 0.633 0.616 1.469 0.955 2.353 0.955s1.719-0.34 2.353-0.955c0.477-0.465 0.8-1.049 0.94-1.684h11.729c0.141 0.637 0.463 1.219 0.94 1.683 0.633 0.616 1.468 0.956 2.352 0.956s1.72-0.34 2.353-0.955c0.477-0.465 0.8-1.047 0.94-1.684h2.984c0.361 0 0.654-0.293 0.654-0.654v-4.39c0-1.42-0.852-2.679-2.17-3.208zM23.246 11.254l4.706 1.887h-3.551l-1.563-2.036c0.137 0.046 0.273 0.096 0.408 0.149zM17.431 10.735h3.123c0.119 0 0.238 0.003 0.355 0.008l1.841 2.397h-5.32v-2.406zM13.539 11.521c0.804-0.409 1.686-0.664 2.584-0.751v2.371h-5.768l3.185-1.62zM3.546 15.054c-0.269 0.91-1.072 1.593-2.044 1.686 0.341-0.855 1.105-1.513 2.044-1.686zM6.754 22.065c-1.14 0-2.064-0.924-2.064-2.064s0.924-2.064 2.064-2.064 2.064 0.924 2.064 2.064c0 1.14-0.924 2.064-2.064 2.064zM25.069 22.065c-1.14 0-2.065-0.924-2.065-2.064s0.925-2.064 2.065-2.064c1.14 0 2.064 0.924 2.064 2.064s-0.924 2.064-2.064 2.064zM30.691 19.426h-2.3c-0.274-1.586-1.659-2.798-3.323-2.798s-3.048 1.211-3.322 2.798h-11.669c-0.274-1.586-1.66-2.798-3.323-2.798s-3.049 1.211-3.323 2.798h-2.123v-1.366c1.854-0.017 3.384-1.412 3.612-3.209l2.752-0.401h16.406c0 0 0 0 0.001 0s0 0 0.001 0h4.141v0.852c0 1.198 0.974 2.172 2.171 2.172h0.299v1.953zM30.691 16.164h-0.299c-0.475 0-0.863-0.387-0.863-0.863v-0.852h0.768c0.251 0.355 0.394 0.784 0.394 1.241v0.474zM18.137 16.283h-4.34c-0.361 0-0.654 0.293-0.654 0.654s0.293 0.654 0.654 0.654h4.34c0.361 0 0.654-0.293 0.654-0.654s-0.293-0.654-0.654-0.654zM6.754 19.133c-0.479 0-0.867 0.389-0.867 0.868s0.388 0.868 0.867 0.868c0.48 0 0.868-0.389 0.868-0.868s-0.388-0.868-0.868-0.868zM25.069 19.133c-0.48 0-0.868 0.389-0.868 0.868s0.388 0.868 0.868 0.868c0.479 0 0.867-0.389 0.867-0.868s-0.388-0.868-0.867-0.868z"></path>
</svg>
