<!-- Generated by IcoMoon.io -->
<svg version="1.1" xmlns="http://www.w3.org/2000/svg" width="32" height="32" viewBox="0 0 32 32">
<path d="M8.8 25.6c-1.323 0-2.4-1.077-2.4-2.4s1.077-2.4 2.4-2.4 2.4 1.077 2.4 2.4-1.077 2.4-2.4 2.4zM8.8 22.4c-0.441 0-0.8 0.359-0.8 0.8s0.359 0.8 0.8 0.8 0.8-0.359 0.8-0.8-0.359-0.8-0.8-0.8zM23.2 25.6c-1.323 0-2.4-1.077-2.4-2.4s1.077-2.4 2.4-2.4 2.4 1.077 2.4 2.4-1.077 2.4-2.4 2.4zM23.2 22.4c-0.441 0-0.8 0.359-0.8 0.8s0.359 0.8 0.8 0.8 0.8-0.359 0.8-0.8-0.359-0.8-0.8-0.8zM27.133 19.051c-0.208-1.267-0.884-5.143-1.617-6.609-0.488-0.977-1.74-1.723-3.721-2.218-1.609-0.402-3.667-0.624-5.794-0.624s-4.185 0.222-5.794 0.624c-1.981 0.495-3.233 1.242-3.722 2.218-0.733 1.466-1.41 5.342-1.617 6.609-1.118 0.766-1.667 1.875-1.667 3.349v4c0 1.043 0.669 1.932 1.6 2.262v1.738c0 0.882 0.718 1.6 1.6 1.6h1.6c0.882 0 1.6-0.718 1.6-1.6v-1.6h12.8v1.6c0 0.882 0.718 1.6 1.6 1.6h1.6c0.882 0 1.6-0.718 1.6-1.6v-1.738c0.931-0.33 1.6-1.22 1.6-2.262v-4c0-1.474-0.549-2.583-1.667-3.349zM7.916 13.158c0.475-0.949 3.469-1.958 8.084-1.958s7.61 1.009 8.084 1.958c0.46 0.92 0.97 3.353 1.286 5.093-0.156-0.046-0.318-0.089-0.485-0.129-0.427-0.102-0.889-0.183-1.381-0.249l-4.638-3.323c-0.359-0.257-0.859-0.175-1.116 0.184s-0.175 0.859 0.184 1.116l2.505 1.795c-1.36-0.045-2.852-0.045-4.439-0.045-0.187 0-0.373 0-0.558 0l-4.598-3.066c-0.368-0.245-0.864-0.146-1.109 0.222s-0.146 0.864 0.222 1.109l2.631 1.754c-2.145 0.039-4.011 0.155-5.472 0.502-0.167 0.040-0.329 0.083-0.485 0.129 0.316-1.739 0.826-4.172 1.286-5.093zM8 30.4h-1.6v-1.6h1.6v1.6zM24 30.4v-1.6h1.6v1.6h-1.6zM27.2 26.4c0 0.441-0.359 0.8-0.8 0.8h-20.8c-0.441 0-0.8-0.359-0.8-0.8v-4c0-1.479 0.778-2.268 2.685-2.722 2.009-0.478 5.024-0.478 8.515-0.478s6.506 0 8.515 0.478c1.907 0.454 2.685 1.243 2.685 2.722v4z"></path>
</svg>
