<!-- Generated by IcoMoon.io -->
<svg version="1.1" xmlns="http://www.w3.org/2000/svg" width="101" height="32" viewBox="0 0 101 32">
<path d="M7.134 4.931c-0.21-0.21-0.525-0.21-0.734 0l-6.4 5.666 6.4 5.77c0.105 0.105 0.21 0.105 0.315 0.105s0.315-0.105 0.42-0.21c0.21-0.21 0.21-0.525 0-0.734l-5.561-4.931 5.561-4.931c0.21-0.21 0.21-0.525 0-0.734z"></path>
<path d="M94.846 4.826c-0.21-0.21-0.525-0.21-0.734 0s-0.21 0.525 0 0.734l5.561 4.931-5.561 4.931c-0.21 0.21-0.21 0.525 0 0.734 0.105 0.105 0.21 0.21 0.42 0.21 0.105 0 0.21 0 0.315-0.105l6.4-5.771-6.4-5.666z"></path>
<path d="M29.272 0h-10.807c-2.938 0-5.246 2.308-5.246 5.246v10.807c0 2.938 2.308 5.246 5.246 5.246h10.807c2.938 0 5.246-2.308 5.246-5.246v-10.807c0-2.938-2.413-5.246-5.246-5.246zM29.272 20.249h-10.807c-1.154 0-2.098-0.42-2.833-1.154l6.19-5.875 3.987 3.357 5.141-6.4 2.413 2.728c0 0 0 0 0.105 0v3.148c0 2.308-1.889 4.197-4.197 4.197zM33.469 11.226l-2.518-2.833-5.246 6.505-3.882-3.252-6.82 6.505c-0.42-0.63-0.63-1.469-0.63-2.308v-10.597c0-2.308 1.889-4.197 4.197-4.197h10.702c2.308 0 4.197 1.889 4.197 4.197v5.98z"></path>
<path d="M19.41 5.351c-1.364 0-2.518 1.154-2.518 2.518s1.154 2.518 2.518 2.518 2.518-1.154 2.518-2.518c0-1.364-1.154-2.518-2.518-2.518zM19.41 9.443c-0.839 0-1.469-0.63-1.469-1.469s0.63-1.469 1.469-1.469 1.469 0.63 1.469 1.469-0.734 1.469-1.469 1.469z"></path>
<path d="M56.026 0h-10.702c-2.938 0-5.246 2.308-5.246 5.246v10.807c0 2.938 2.308 5.246 5.246 5.246h10.807c2.938 0 5.246-2.308 5.246-5.246v-10.807c-0.105-2.938-2.413-5.246-5.351-5.246zM56.026 20.249h-10.702c-1.154 0-2.098-0.42-2.833-1.154l6.19-5.875 3.987 3.357 5.036-6.505 2.413 2.728c0 0 0 0 0.105 0v3.148c0 2.413-1.889 4.302-4.197 4.302zM60.223 11.226l-2.518-2.728-5.246 6.505-3.882-3.252-6.82 6.505c-0.42-0.63-0.63-1.469-0.63-2.203v-10.807c0-2.308 1.889-4.197 4.197-4.197h10.702c2.308 0 4.197 1.889 4.197 4.197v5.98z"></path>
<path d="M46.164 5.351c-1.364 0-2.518 1.154-2.518 2.518s1.154 2.518 2.518 2.518c1.364 0 2.518-1.154 2.518-2.518s-1.154-2.518-2.518-2.518zM46.164 9.443c-0.839 0-1.469-0.63-1.469-1.469s0.63-1.469 1.469-1.469 1.469 0.63 1.469 1.469-0.63 1.469-1.469 1.469z"></path>
<path d="M82.78 0h-10.702c-2.938 0-5.246 2.308-5.246 5.246v10.807c0 2.938 2.308 5.246 5.246 5.246h10.807c2.938 0 5.246-2.308 5.246-5.246v-10.807c-0.105-2.938-2.413-5.246-5.351-5.246zM82.78 20.249h-10.702c-1.154 0-2.098-0.42-2.833-1.154l6.19-5.875 3.987 3.357 5.141-6.4 2.413 2.728c0 0 0 0 0.105 0v3.148c-0.105 2.308-1.889 4.197-4.302 4.197zM86.977 11.226l-2.518-2.833-5.246 6.505-3.882-3.252-6.82 6.505c-0.42-0.63-0.629-1.469-0.629-2.203v-10.702c0-2.308 1.889-4.197 4.197-4.197h10.702c2.308 0 4.197 1.889 4.197 4.197v5.98z"></path>
<path d="M72.918 5.351c-1.364 0-2.518 1.154-2.518 2.518s1.154 2.518 2.518 2.518 2.518-1.154 2.518-2.518c0-1.364-1.154-2.518-2.518-2.518zM72.918 9.443c-0.839 0-1.469-0.63-1.469-1.469s0.629-1.469 1.469-1.469c0.839 0 1.469 0.63 1.469 1.469s-0.629 1.469-1.469 1.469z"></path>
<path d="M48.472 30.951h-4.511c-0.315 0-0.525 0.21-0.525 0.525s0.21 0.525 0.525 0.525h4.511c0.315 0 0.525-0.21 0.525-0.525s-0.21-0.525-0.525-0.525z"></path>
<path d="M52.984 30.951h-0.734c-0.315 0-0.525 0.21-0.525 0.525s0.21 0.525 0.525 0.525h0.734c0.315 0 0.525-0.21 0.525-0.525s-0.21-0.525-0.525-0.525z"></path>
<path d="M57.39 30.951h-0.734c-0.315 0-0.525 0.21-0.525 0.525s0.21 0.525 0.525 0.525h0.734c0.315 0 0.525-0.21 0.525-0.525s-0.315-0.525-0.525-0.525z"></path>
</svg>
