<!-- Generated by IcoMoon.io -->
<svg version="1.1" xmlns="http://www.w3.org/2000/svg" width="32" height="32" viewBox="0 0 32 32">
<path d="M31.313 16.462h-10.819v-9.838h-6.969l-4.431 12.512v1.563h-0.85v-15.769h-1.306v17.788h-6.125v1.238h7.431v-1.956h0.85v1.956h2.169c-0.012 0.106-0.019 0.219-0.019 0.325 0 1.956 1.631 3.581 3.581 3.581 1.956 0 3.581-1.631 3.581-3.581 0-0.113-0.006-0.219-0.019-0.325h4.331c-0.012 0.106-0.019 0.219-0.019 0.325 0 1.956 1.631 3.581 3.581 3.581s3.581-1.631 3.581-3.581c0-0.113-0.006-0.219-0.019-0.325h1.469v-7.494zM14.825 26.563c-1.238 0-2.281-1.044-2.281-2.281s1.044-2.281 2.281-2.281c1.238 0 2.281 1.044 2.281 2.281s-1.044 2.281-2.281 2.281zM19.194 22.719h-1.15c-0.587-1.188-1.819-2.019-3.213-2.019s-2.625 0.831-3.213 2.019h-1.213v-3.387l4.031-11.4h4.756v14.787zM26.294 26.563c-1.238 0-2.281-1.044-2.281-2.281s1.044-2.281 2.281-2.281 2.281 1.044 2.281 2.281-1.044 2.281-2.281 2.281zM30.006 22.719h-0.5c-0.587-1.188-1.819-2.019-3.212-2.019s-2.625 0.831-3.212 2.019h-2.581v-4.95h9.512v4.95zM5.575 13.338h-4.888v8.013h4.888v-8.012zM4.269 20.050h-2.275v-5.406h2.281v5.406z"></path>
</svg>
