<!-- Generated by IcoMoon.io -->
<svg version="1.1" xmlns="http://www.w3.org/2000/svg" width="32" height="32" viewBox="0 0 32 32">
<path d="M23.8 20.48l3.916-15.333h4.284v-2.41h-6.156l-0.923 3.614-24.921-0.018 2.649 14.146 21.151 0zM24.306 8.761l-2.377 9.309h-17.278l-1.746-9.324 21.402 0.015z"></path>
<path d="M20.501 29.263c2.125 0 3.854-1.729 3.854-3.854s-1.729-3.854-3.854-3.854h-14.521c-2.125 0-3.854 1.729-3.854 3.854s1.729 3.854 3.854 3.854c2.125 0 3.854-1.729 3.854-3.854 0-0.51-0.1-0.998-0.281-1.444h7.375c-0.181 0.446-0.281 0.934-0.281 1.444 0 2.125 1.729 3.854 3.854 3.854zM7.424 25.409c0 0.796-0.648 1.444-1.444 1.444s-1.444-0.648-1.444-1.444c0-0.796 0.648-1.444 1.444-1.444s1.444 0.648 1.444 1.444zM21.945 25.409c0 0.796-0.648 1.444-1.444 1.444s-1.444-0.648-1.444-1.444c0-0.796 0.648-1.444 1.444-1.444s1.444 0.648 1.444 1.444z"></path>
</svg>
