<!-- Generated by IcoMoon.io -->
<svg version="1.1" xmlns="http://www.w3.org/2000/svg" width="32" height="32" viewBox="0 0 32 32">
<path d="M28.762 28.063l-1.831-20.631c-0.038-0.456-0.425-0.806-0.875-0.806h-3.769c-0.050-3.444-2.863-6.225-6.319-6.225s-6.269 2.781-6.319 6.225h-3.769c-0.456 0-0.838 0.35-0.875 0.806l-1.831 20.631c0 0.025-0.006 0.050-0.006 0.081 0 2.35 2.15 4.262 4.8 4.262h16c2.65 0 4.8-1.913 4.8-4.262 0-0.031 0-0.056-0.006-0.081zM15.969 2.169c2.481 0 4.5 1.987 4.55 4.456h-9.1c0.050-2.469 2.069-4.456 4.55-4.456zM23.969 30.631h-16c-1.662 0-3.006-1.1-3.037-2.456l1.75-19.781h2.956v2.688c0 0.488 0.394 0.881 0.881 0.881s0.881-0.394 0.881-0.881v-2.688h9.113v2.688c0 0.488 0.394 0.881 0.881 0.881s0.881-0.394 0.881-0.881v-2.688h2.956l1.769 19.788c-0.025 1.35-1.375 2.45-3.031 2.45z"></path>
</svg>
