<!-- Generated by IcoMoon.io -->
<svg version="1.1" xmlns="http://www.w3.org/2000/svg" width="32" height="32" viewBox="0 0 32 32">
<path d="M12.531 29.289c0.979 0 1.775-0.796 1.775-1.775s-0.796-1.775-1.775-1.775-1.775 0.796-1.775 1.775 0.796 1.775 1.775 1.775zM12.531 26.676c0.463 0 0.839 0.376 0.839 0.839s-0.376 0.839-0.839 0.839c-0.462 0-0.839-0.376-0.839-0.839s0.376-0.839 0.839-0.839z"></path>
<path d="M23.96 29.289c0.979 0 1.774-0.796 1.774-1.775s-0.796-1.775-1.774-1.775-1.775 0.796-1.775 1.775 0.796 1.775 1.775 1.775zM23.96 26.676c0.462 0 0.839 0.376 0.839 0.839s-0.376 0.839-0.839 0.839c-0.463 0-0.839-0.376-0.839-0.839s0.376-0.839 0.839-0.839z"></path>
<path d="M30.228 16.41h-0.511l2.209-9.598c0.416-1.809-0.958-3.535-2.814-3.535h-9.142c-0.259 0-0.468 0.209-0.468 0.468s0.209 0.468 0.468 0.468h9.142c1.256 0 2.183 1.168 1.902 2.389l-2.257 9.808h-1.601c0.24-1.044 1.994-8.665 2.316-10.064 0.067-0.293-0.155-0.573-0.456-0.573h-21.141l-0.552-1.56h10.9c0.259 0 0.468-0.209 0.468-0.468s-0.209-0.468-0.468-0.468h-11.231c-0.422-1.183-1.612-2.090-3.022-2.090h-2.254c-0.946 0-1.716 0.77-1.716 1.716s0.77 1.716 1.716 1.716h2.115l2.641 7.461c0.086 0.244 0.354 0.371 0.597 0.285s0.371-0.354 0.285-0.597c-2.583-7.296-2.693-7.61-2.702-7.632-0.116-0.274-0.384-0.452-0.682-0.452h-2.254c-0.43 0-0.78-0.35-0.78-0.78s0.35-0.78 0.78-0.78h2.254c0.922 0 1.749 0.546 2.113 1.391 0.558 1.577 3.751 10.596 4.225 11.936 0.344 0.973 1.468 1.895 2.831 1.895h17.089c0.43 0 0.78 0.35 0.78 0.78s-0.35 0.78-0.78 0.78h-17.089c-1.854 0-3.523-1.101-4.251-2.808l-0.949-2.681c-0.086-0.244-0.354-0.371-0.597-0.285s-0.371 0.354-0.285 0.597c0.76 1.941 0.792 2.818 1.712 3.99l-1.058 1.526c-1.589 2.293-0.189 5.437 2.541 5.822-2.209 2.059-0.764 5.796 2.28 5.796 3.017 0 4.477-3.683 2.319-5.759h6.791c-2.156 2.074-0.701 5.759 2.319 5.759 3.017 0 4.477-3.683 2.319-5.759h0.619c0.946 0 1.716-0.77 1.716-1.716s-0.77-1.716-1.716-1.716h-4.285c-0.259 0-0.468 0.21-0.468 0.468s0.209 0.468 0.468 0.468h4.285c0.43 0 0.78 0.35 0.78 0.78s-0.35 0.78-0.78 0.78h-16.122c-2.254 0-3.583-2.536-2.298-4.39l0.942-1.359c0.389 0.35 0.825 0.643 1.295 0.87l-0.955 1.378c-0.57 0.822 0.017 1.941 1.016 1.941h10.089c0.258 0 0.468-0.21 0.468-0.468s-0.209-0.468-0.468-0.468h-10.089c-0.245 0-0.387-0.27-0.247-0.472l1.087-1.569c1.317 0.373 0.642 0.139 18.61 0.211 0.946 0 1.716-0.77 1.716-1.716s-0.77-1.716-1.716-1.716zM9.516 10.411h1.553v2.844h-0.546zM12.005 10.411h2.844v2.844h-2.844zM27.123 12.377v-1.967h0.453zM26.188 13.254h-2.844v-2.844h2.844zM22.408 13.254h-2.844v-2.844h2.844zM23.344 9.475v-2.766h2.844v2.766zM22.408 9.475h-2.844v-2.766h2.844zM18.628 9.475h-2.844v-2.766h2.844zM14.849 9.475h-2.844v-2.766h2.844zM15.784 10.411h2.844v2.844h-2.844zM18.628 14.19v2.22h-2.844v-2.22zM19.564 14.19h2.844v2.22h-2.844zM23.344 14.19h2.844v2.22h-2.844zM27.791 9.475h-0.668v-2.766h1.304zM11.069 6.709v2.766h-1.884l-0.979-2.766zM10.854 14.19h0.215v0.607zM12.005 16.084v-1.894h2.844v2.22c-1.368-0.064-2.038 0.181-2.844-0.326zM26.372 27.515c0 1.33-1.082 2.411-2.411 2.411s-2.411-1.082-2.411-2.411c0-1.33 1.082-2.412 2.411-2.412s2.411 1.082 2.411 2.412zM14.942 27.515c0 1.33-1.082 2.411-2.411 2.411s-2.411-1.082-2.411-2.411c0-1.33 1.082-2.412 2.411-2.412s2.411 1.082 2.411 2.412z"></path>
</svg>
