<!-- Generated by IcoMoon.io -->
<svg version="1.1" xmlns="http://www.w3.org/2000/svg" width="32" height="32" viewBox="0 0 32 32">
<path d="M12.8 32c-1.764 0-3.2-1.436-3.2-3.2s1.435-3.2 3.2-3.2 3.2 1.436 3.2 3.2-1.435 3.2-3.2 3.2zM12.8 27.2c-0.882 0-1.6 0.718-1.6 1.6s0.718 1.6 1.6 1.6 1.6-0.718 1.6-1.6-0.718-1.6-1.6-1.6zM24 32c-1.764 0-3.2-1.436-3.2-3.2s1.436-3.2 3.2-3.2 3.2 1.436 3.2 3.2-1.436 3.2-3.2 3.2zM24 27.2c-0.882 0-1.6 0.718-1.6 1.6s0.718 1.6 1.6 1.6 1.6-0.718 1.6-1.6-0.718-1.6-1.6-1.6zM28.063 7.146c-0.402-0.474-1.008-0.747-1.663-0.747h-19.589l-0.159-0.953c-0.21-1.26-1.375-2.247-2.652-2.247h-1.6c-0.442 0-0.8 0.358-0.8 0.8s0.358 0.8 0.8 0.8h1.6c0.491 0 0.993 0.425 1.074 0.91l2.674 16.044c0.21 1.26 1.375 2.247 2.652 2.247h16c0.442 0 0.8-0.358 0.8-0.8s-0.358-0.8-0.8-0.8h-16c-0.491 0-0.993-0.425-1.074-0.91l-0.395-2.368 15.944-1.386c1.24-0.108 2.372-1.154 2.577-2.382l1.074-6.444c0.108-0.646-0.061-1.289-0.463-1.763zM26.948 8.647l-1.074 6.444c-0.084 0.506-0.626 1.007-1.137 1.051l-16.069 1.397-1.59-9.539h19.322c0.186 0 0.344 0.064 0.442 0.181s0.136 0.282 0.105 0.466z"></path>
</svg>
