<!-- Generated by IcoMoon.io -->
<svg version="1.1" xmlns="http://www.w3.org/2000/svg" width="32" height="32" viewBox="0 0 32 32">
<path d="M23.244 9.4l6.444 1.694 1.625-6.444-1.238-0.325-1.056 4.019c-2.7-4.356-7.519-7.256-13.019-7.256-8.456 0-15.313 6.856-15.313 15.312s6.856 15.313 15.313 15.313c5.644 0 10.569-3.050 13.225-7.594l-1.106-0.6c-2.444 4.15-6.956 6.938-12.119 6.938-7.762 0-14.056-6.294-14.056-14.056s6.294-14.056 14.056-14.056c5.206 0 9.756 2.831 12.181 7.044l-4.613-1.225-0.325 1.238zM16.675 23.194v-1.169c1.106-0.063 1.95-0.387 2.6-0.975s0.975-1.369 0.975-2.275c0-0.975-0.262-1.694-0.844-2.15-0.587-0.519-1.431-0.912-2.669-1.169h-0.063v-2.994c0.844 0.131 1.563 0.387 2.275 0.912l1.044-1.431c-1.044-0.719-2.15-1.106-3.319-1.169v-0.781h-0.975v0.781c-0.975 0.063-1.825 0.387-2.475 0.975s-0.975 1.369-0.975 2.275 0.262 1.625 0.844 2.081c0.519 0.456 1.431 0.844 2.6 1.106v3.056c-0.912-0.131-1.825-0.587-2.731-1.369l-1.169 1.369c1.169 1.044 2.475 1.625 3.906 1.756v1.169h0.975zM16.738 17.531c0.65 0.194 1.044 0.387 1.3 0.587 0.194 0.262 0.325 0.519 0.325 0.913s-0.131 0.65-0.456 0.913c-0.325 0.262-0.719 0.387-1.169 0.456v-2.869zM14.463 14.738c-0.194-0.194-0.325-0.519-0.325-0.844 0-0.387 0.131-0.65 0.387-0.912 0.325-0.262 0.65-0.387 1.169-0.456v2.8c-0.65-0.2-1.037-0.394-1.231-0.588z"></path>
</svg>
