<!-- Generated by IcoMoon.io -->
<svg version="1.1" xmlns="http://www.w3.org/2000/svg" width="33" height="32" viewBox="0 0 33 32">
<path d="M24.15 0.61v-0.002h-21.965c-0.418 0.001-0.819 0.168-1.115 0.464s-0.461 0.697-0.461 1.116v27.626c0 0.418 0.166 0.82 0.461 1.116s0.696 0.463 1.115 0.464h6.993c0.137 0 0.269-0.054 0.366-0.151s0.152-0.228 0.152-0.366-0.054-0.269-0.152-0.366c-0.097-0.097-0.228-0.151-0.366-0.151h-6.993c-0.144 0-0.283-0.057-0.385-0.159s-0.159-0.24-0.159-0.385v-27.628c0-0.144 0.057-0.283 0.159-0.385s0.24-0.159 0.385-0.159h21.933c0.137 0 0.269-0.054 0.366-0.151s0.151-0.228 0.151-0.366-0.054-0.269-0.151-0.366c-0.089-0.089-0.208-0.143-0.334-0.15z"></path>
<path d="M30.787 0.608h-4.73c-0.137 0-0.269 0.054-0.366 0.151s-0.151 0.229-0.151 0.366 0.054 0.269 0.151 0.366c0.097 0.097 0.228 0.151 0.366 0.151h4.73c0.144 0 0.283 0.057 0.385 0.159s0.159 0.24 0.159 0.385v27.628c0 0.144-0.057 0.283-0.159 0.385s-0.24 0.159-0.385 0.159h-19.54c-0.137 0-0.269 0.054-0.366 0.151s-0.152 0.228-0.152 0.366 0.054 0.269 0.152 0.366c0.097 0.097 0.228 0.151 0.366 0.151h19.541c0.418-0.001 0.819-0.168 1.115-0.464s0.461-0.697 0.461-1.116v-27.625c0-0.418-0.166-0.82-0.462-1.116s-0.696-0.463-1.115-0.464z"></path>
<path d="M28.299 6.027h-18.816c-0.231 0-0.452 0.092-0.615 0.256s-0.255 0.385-0.255 0.615v1.739c0 0.231 0.092 0.452 0.255 0.616s0.384 0.255 0.615 0.256h18.816c0.231-0 0.452-0.092 0.615-0.256s0.255-0.385 0.255-0.616v-1.739c-0-0.231-0.092-0.452-0.255-0.615s-0.384-0.255-0.615-0.256zM28.135 8.474h-18.487v-1.416h18.487v1.416z"></path>
<path d="M22.954 12.55h5.182v1.413h-18.488v-1.413h11.494c0.137 0 0.269-0.054 0.366-0.151s0.151-0.229 0.151-0.366-0.054-0.269-0.151-0.366c-0.097-0.097-0.228-0.152-0.366-0.152h-11.658c-0.231 0-0.452 0.092-0.615 0.256s-0.255 0.385-0.255 0.616v0 1.739c0 0.231 0.092 0.452 0.255 0.615s0.384 0.255 0.615 0.256h18.816c0.231-0 0.452-0.092 0.615-0.256s0.255-0.385 0.255-0.615v-1.739c-0-0.231-0.092-0.453-0.256-0.616s-0.385-0.255-0.616-0.255h-5.345c-0.068 0-0.135 0.013-0.198 0.039s-0.12 0.064-0.168 0.112c-0.048 0.048-0.086 0.105-0.112 0.168s-0.039 0.13-0.039 0.198 0.013 0.135 0.039 0.198c0.026 0.063 0.064 0.12 0.112 0.168s0.105 0.086 0.168 0.112 0.13 0.039 0.198 0.039z"></path>
<path d="M28.299 17.004h-18.816c-0.231 0-0.452 0.092-0.615 0.256s-0.255 0.385-0.255 0.616v0 1.739c0 0.231 0.092 0.452 0.255 0.616s0.384 0.255 0.615 0.256h18.816c0.231-0 0.452-0.092 0.615-0.256s0.255-0.385 0.255-0.616v-1.739c-0-0.231-0.092-0.452-0.255-0.616s-0.384-0.255-0.615-0.256zM28.135 19.452h-18.487v-1.413h18.487v1.413z"></path>
<path d="M28.299 22.493h-18.816c-0.231 0-0.452 0.092-0.615 0.256s-0.255 0.385-0.255 0.616v0 1.739c0 0.231 0.092 0.452 0.255 0.615s0.384 0.255 0.615 0.256h18.816c0.231-0 0.452-0.092 0.615-0.256s0.255-0.385 0.255-0.615v-1.739c-0-0.231-0.092-0.452-0.255-0.616s-0.384-0.255-0.615-0.256zM28.135 24.94h-18.487v-1.413h18.487v1.413z"></path>
<path d="M5.542 6.027h-0c-0.344 0-0.681 0.102-0.967 0.293s-0.509 0.463-0.641 0.781c-0.132 0.318-0.166 0.668-0.099 1.006s0.233 0.648 0.476 0.891 0.554 0.409 0.891 0.476c0.338 0.067 0.688 0.033 1.006-0.099s0.59-0.355 0.781-0.641 0.293-0.623 0.293-0.967v-0c-0-0.462-0.184-0.904-0.51-1.23s-0.769-0.51-1.23-0.51zM5.542 8.474c-0.14 0-0.276-0.041-0.393-0.119s-0.207-0.188-0.26-0.317c-0.053-0.129-0.067-0.271-0.040-0.408s0.095-0.263 0.193-0.362c0.099-0.099 0.225-0.166 0.362-0.193s0.279-0.013 0.408 0.040c0.129 0.053 0.239 0.144 0.317 0.26s0.119 0.253 0.119 0.393c-0 0.187-0.075 0.367-0.207 0.499s-0.312 0.207-0.499 0.207z"></path>
<path d="M5.542 11.516h-0c-0.344 0-0.681 0.102-0.967 0.293s-0.509 0.463-0.641 0.781c-0.132 0.318-0.166 0.668-0.099 1.006s0.233 0.648 0.476 0.891 0.554 0.409 0.891 0.476c0.338 0.067 0.688 0.033 1.006-0.099s0.59-0.355 0.781-0.641 0.293-0.623 0.293-0.967v0c-0-0.462-0.184-0.904-0.51-1.23s-0.769-0.51-1.23-0.51zM5.542 13.963c-0.14 0-0.276-0.041-0.393-0.119s-0.207-0.188-0.26-0.317c-0.053-0.129-0.067-0.271-0.040-0.408s0.095-0.263 0.193-0.362 0.225-0.166 0.362-0.193c0.137-0.027 0.279-0.013 0.408 0.040s0.239 0.144 0.317 0.26c0.078 0.116 0.119 0.253 0.119 0.392-0 0.187-0.075 0.367-0.207 0.499s-0.312 0.207-0.499 0.207z"></path>
<path d="M5.542 17.004h-0c-0.344 0-0.681 0.102-0.967 0.293s-0.509 0.463-0.641 0.781c-0.132 0.318-0.166 0.668-0.099 1.006s0.233 0.648 0.476 0.891 0.554 0.409 0.891 0.476c0.338 0.067 0.688 0.033 1.006-0.099s0.59-0.355 0.781-0.641 0.293-0.623 0.293-0.967v-0c-0-0.462-0.184-0.904-0.51-1.23s-0.769-0.51-1.23-0.51zM5.542 19.452c-0.14 0-0.276-0.041-0.393-0.119s-0.207-0.188-0.26-0.317c-0.053-0.129-0.067-0.271-0.040-0.408s0.095-0.263 0.193-0.362 0.225-0.166 0.362-0.193c0.137-0.027 0.279-0.013 0.408 0.040s0.239 0.144 0.317 0.26c0.078 0.116 0.119 0.253 0.119 0.392-0 0.187-0.075 0.367-0.207 0.499s-0.312 0.207-0.499 0.207z"></path>
<path d="M5.542 22.493h-0c-0.344 0-0.681 0.102-0.967 0.293s-0.509 0.463-0.641 0.781c-0.132 0.318-0.166 0.668-0.099 1.006s0.233 0.648 0.476 0.891 0.554 0.409 0.891 0.476c0.338 0.067 0.688 0.033 1.006-0.099s0.59-0.355 0.781-0.641 0.293-0.623 0.293-0.967v-0c-0-0.462-0.184-0.904-0.51-1.23s-0.769-0.51-1.23-0.51zM5.542 24.94c-0.14 0-0.276-0.041-0.393-0.119s-0.207-0.188-0.26-0.317c-0.053-0.129-0.067-0.271-0.040-0.408s0.095-0.263 0.193-0.362 0.225-0.166 0.362-0.193c0.137-0.027 0.279-0.013 0.408 0.040s0.239 0.144 0.317 0.26c0.078 0.116 0.119 0.253 0.119 0.392-0 0.187-0.075 0.367-0.207 0.499s-0.312 0.207-0.499 0.207z"></path>
</svg>
