<!-- Generated by IcoMoon.io -->
<svg version="1.1" xmlns="http://www.w3.org/2000/svg" width="32" height="32" viewBox="0 0 32 32">
<path d="M31.331 31.069h-30.663c-0.369 0-0.669 0.3-0.669 0.669s0.3 0.669 0.669 0.669h30.669c0.369 0 0.669-0.3 0.669-0.669-0.006-0.375-0.306-0.669-0.675-0.669zM6 23.069h-4c-0.369 0-0.669 0.3-0.669 0.669v8c0 0.369 0.3 0.669 0.669 0.669h4c0.369 0 0.669-0.3 0.669-0.669v-8c0-0.375-0.3-0.669-0.669-0.669zM5.331 31.069h-2.663v-6.669h2.669l-0.006 6.669zM14 16.4h-4c-0.369 0-0.669 0.3-0.669 0.669v14.669c0 0.369 0.3 0.669 0.669 0.669h4c0.369 0 0.669-0.3 0.669-0.669v-14.669c0-0.369-0.3-0.669-0.669-0.669zM13.331 31.069h-2.669v-13.337h2.669v13.337zM22 19.069h-4c-0.369 0-0.669 0.3-0.669 0.669v12c0 0.369 0.3 0.669 0.669 0.669h4c0.369 0 0.669-0.3 0.669-0.669v-12c0-0.375-0.3-0.669-0.669-0.669zM21.331 31.069h-2.669v-10.669h2.669v10.669zM30 11.069h-4c-0.369 0-0.669 0.3-0.669 0.669v20c0 0.369 0.3 0.669 0.669 0.669h4c0.369 0 0.669-0.3 0.669-0.669v-20c0-0.375-0.3-0.669-0.669-0.669zM29.331 31.069h-2.669v-18.669h2.669v18.669zM4 12.4c-1.469 0-2.669 1.194-2.669 2.669s1.194 2.669 2.669 2.669 2.669-1.194 2.669-2.669-1.2-2.669-2.669-2.669zM4 16.4c-0.737 0-1.331-0.6-1.331-1.331 0-0.738 0.6-1.331 1.331-1.331s1.331 0.6 1.331 1.331-0.594 1.331-1.331 1.331zM12 5.731c-1.469 0-2.669 1.194-2.669 2.669s1.194 2.669 2.669 2.669 2.669-1.194 2.669-2.669c0-1.469-1.2-2.669-2.669-2.669zM12 9.731c-0.738 0-1.331-0.6-1.331-1.331 0-0.737 0.6-1.331 1.331-1.331s1.331 0.6 1.331 1.331c0 0.738-0.594 1.331-1.331 1.331zM20 8.4c-1.469 0-2.669 1.194-2.669 2.669s1.194 2.669 2.669 2.669 2.669-1.194 2.669-2.669-1.2-2.669-2.669-2.669zM20 12.4c-0.738 0-1.331-0.6-1.331-1.331 0-0.738 0.6-1.331 1.331-1.331s1.331 0.6 1.331 1.331-0.594 1.331-1.331 1.331zM28 0.4c-1.469 0-2.669 1.194-2.669 2.669s1.194 2.669 2.669 2.669 2.669-1.194 2.669-2.669-1.2-2.669-2.669-2.669zM28 4.4c-0.738 0-1.331-0.6-1.331-1.331 0-0.737 0.6-1.331 1.331-1.331s1.331 0.6 1.331 1.331c0 0.731-0.594 1.331-1.331 1.331zM27.056 4.006c-0.262-0.263-0.681-0.263-0.944 0l-5.175 5.175c-0.262 0.262-0.262 0.681 0 0.944 0.131 0.131 0.3 0.194 0.475 0.194 0.169 0 0.337-0.063 0.469-0.194l5.175-5.175c0.262-0.256 0.262-0.681 0-0.944zM18.387 9.525l-4.281-1.219c-0.356-0.106-0.725 0.106-0.825 0.456-0.1 0.356 0.106 0.725 0.456 0.825l4.281 1.219c0.063 0.019 0.125 0.025 0.181 0.025 0.294 0 0.556-0.194 0.644-0.481 0.106-0.35-0.1-0.719-0.456-0.825zM10.963 9.231c-0.231-0.287-0.65-0.338-0.938-0.106l-5.025 4.006c-0.287 0.231-0.338 0.65-0.106 0.938 0.131 0.162 0.325 0.25 0.519 0.25 0.144 0 0.294-0.050 0.412-0.144l5.025-4.006c0.294-0.231 0.344-0.65 0.113-0.938z"></path>
</svg>
