<!-- Generated by IcoMoon.io -->
<svg version="1.1" xmlns="http://www.w3.org/2000/svg" width="32" height="32" viewBox="0 0 32 32">
<path d="M29.39 2.367h-26.78c-1.439 0-2.61 1.171-2.61 2.61v15.658c0 1.439 1.171 2.61 2.61 2.61h1.526v6.442c0 0.301 0.181 0.572 0.459 0.688 0.092 0.038 0.189 0.057 0.285 0.057 0.194 0 0.384-0.076 0.526-0.218l6.969-6.969h17.015c1.439 0 2.61-1.171 2.61-2.61v-15.658c0-1.439-1.171-2.61-2.61-2.61zM29.39 21.758h-17.324c-0.193 0-0.367 0.074-0.499 0.194-0.001 0.001-0.003 0.002-0.004 0.003-0.009 0.008-0.018 0.016-0.027 0.025l-5.912 5.912v-5.39c0-0.026-0.001-0.049-0.004-0.069-0.035-0.379-0.353-0.675-0.741-0.675h-2.27c-0.619 0-1.122-0.503-1.122-1.122v-15.658c0-0.619 0.503-1.122 1.122-1.122h26.78c0.619 0 1.122 0.503 1.122 1.122v15.658c0 0.619-0.503 1.122-1.122 1.122zM10.874 7.802h-4.337c-0.411 0-0.744 0.333-0.744 0.744s0.333 0.744 0.744 0.744h4.337c0.411 0 0.744-0.333 0.744-0.744s-0.333-0.744-0.744-0.744zM18.609 12.063h-12.072c-0.411 0-0.744 0.333-0.744 0.744s0.333 0.744 0.744 0.744h12.072c0.411 0 0.744-0.333 0.744-0.744s-0.333-0.744-0.744-0.744zM25.463 7.802h-10.244c-0.411 0-0.744 0.333-0.744 0.744s0.333 0.744 0.744 0.744h10.244c0.411 0 0.744-0.333 0.744-0.744s-0.333-0.744-0.744-0.744zM25.463 12.063h-2.694c-0.411 0-0.744 0.333-0.744 0.744s0.333 0.744 0.744 0.744h2.694c0.411 0 0.744-0.333 0.744-0.744s-0.333-0.744-0.744-0.744zM13.275 16.323h-6.739c-0.411 0-0.744 0.333-0.744 0.744s0.333 0.744 0.744 0.744h6.739c0.411 0 0.744-0.333 0.744-0.744s-0.333-0.744-0.744-0.744zM25.463 16.323h-8.234c-0.411 0-0.744 0.333-0.744 0.744s0.333 0.744 0.744 0.744h8.234c0.411 0 0.744-0.333 0.744-0.744s-0.333-0.744-0.744-0.744z"></path>
</svg>
