<!-- Generated by IcoMoon.io -->
<svg version="1.1" xmlns="http://www.w3.org/2000/svg" width="32" height="32" viewBox="0 0 32 32">
<path d="M23.268 3.572h-21.466c-0.994 0-1.802 0.808-1.802 1.802v12.879c0 0.994 0.808 1.802 1.802 1.802h1.392v4.794c0 0.305 0.184 0.581 0.466 0.697 0.093 0.039 0.192 0.058 0.289 0.058 0.196 0 0.39-0.077 0.534-0.221l5.328-5.328h1.069c0.417 0 0.755-0.338 0.755-0.755s-0.338-0.755-0.755-0.755c0 0-1.418 0.001-1.433 0.003-0.176 0.012-0.348 0.084-0.483 0.219l-4.261 4.261c0 0-0.001-3.774-0.004-3.794-0.034-0.385-0.357-0.688-0.752-0.688h-2.146c-0.161 0-0.292-0.131-0.292-0.292v-12.879c0-0.161 0.131-0.292 0.292-0.292h21.466c0.161 0 0.292 0.131 0.292 0.292v4.941c0 0.417 0.338 0.755 0.755 0.755s0.755-0.338 0.755-0.755v-4.941c0-0.994-0.808-1.802-1.802-1.802zM30.198 12.806h-15.026c-0.994 0-1.802 0.808-1.802 1.802v8.786c0 0.994 0.808 1.802 1.802 1.802h9.407l3.811 3.811c0.144 0.144 0.337 0.221 0.534 0.221 0.097 0 0.195-0.019 0.289-0.058 0.282-0.117 0.466-0.392 0.466-0.697v-3.277h0.519c0.994 0 1.802-0.808 1.802-1.802v-8.786c0-0.994-0.808-1.802-1.802-1.802zM30.49 23.393c0 0.161-0.131 0.292-0.292 0.292h-1.273c-0.397 0-0.722 0.307-0.752 0.697-0.002 0.017-0.003 2.268-0.003 2.268l-2.741-2.741c-0.003-0.003-0.006-0.006-0.009-0.008-0.011-0.011-0.021-0.020-0.031-0.028-0.133-0.116-0.306-0.188-0.497-0.188h-9.72c-0.161 0-0.292-0.131-0.292-0.292v-8.786c0-0.161 0.131-0.292 0.292-0.292h15.026c0.161 0 0.292 0.131 0.292 0.292v8.786zM22.685 18.246c-0.417 0-0.755 0.338-0.755 0.755s0.338 0.755 0.755 0.755c0.417 0 0.755-0.338 0.755-0.755s-0.338-0.755-0.755-0.755zM19.405 8.563c0 0-13.739 0-13.739 0-0.417 0-0.755 0.338-0.755 0.755s0.338 0.755 0.755 0.755h13.739c0.417 0 0.755-0.338 0.755-0.755s-0.338-0.755-0.755-0.755zM10.88 13.554h-5.214c-0.417 0-0.755 0.338-0.755 0.755s0.338 0.755 0.755 0.755h5.214c0.417 0 0.755-0.338 0.755-0.755s-0.338-0.755-0.755-0.755zM19.177 18.246c-0.417 0-0.755 0.338-0.755 0.755s0.338 0.755 0.755 0.755c0.417 0 0.755-0.338 0.755-0.755s-0.338-0.755-0.755-0.755zM26.192 18.246c-0.417 0-0.755 0.338-0.755 0.755s0.338 0.755 0.755 0.755c0.417 0 0.755-0.338 0.755-0.755s-0.338-0.755-0.755-0.755z"></path>
</svg>
