<!-- Generated by IcoMoon.io -->
<svg version="1.1" xmlns="http://www.w3.org/2000/svg" width="32" height="32" viewBox="0 0 32 32">
<path d="M28.107 15.39c-0.034-0.471-0.443-0.824-0.914-0.791s-0.825 0.443-0.791 0.914c0.021 0.291 0.032 0.589 0.032 0.887 0 6.816-5.545 12.362-12.362 12.362s-12.362-5.545-12.362-12.362 5.545-12.362 12.362-12.362c2.699 0 5.263 0.854 7.414 2.47 0.378 0.284 0.913 0.208 1.197-0.17s0.208-0.913-0.17-1.197c-2.449-1.84-5.368-2.813-8.441-2.813-7.759-0-14.072 6.313-14.072 14.072s6.313 14.072 14.072 14.072 14.072-6.312 14.072-14.072c0-0.338-0.012-0.678-0.036-1.010zM31.025 4.261c-1.3-1.3-3.417-1.3-4.717 0l-12.319 12.319-4.367-4.367c-1.3-1.3-3.417-1.3-4.717 0s-1.3 3.417 0 4.717l7.521 7.521c0.431 0.431 0.997 0.646 1.563 0.646s1.132-0.215 1.563-0.646l15.473-15.473c1.3-1.3 1.3-3.416 0-4.717zM29.816 7.769l-15.474 15.474c-0.195 0.195-0.512 0.195-0.707 0l-7.521-7.521c-0.634-0.634-0.634-1.665 0-2.299 0.317-0.317 0.733-0.475 1.149-0.475s0.833 0.158 1.149 0.475l4.493 4.493c0.29 0.289 0.674 0.449 1.084 0.449s0.794-0.159 1.084-0.449l12.445-12.445c0.634-0.634 1.665-0.634 2.299 0s0.634 1.665 0 2.299z"></path>
</svg>
