<!-- Generated by IcoMoon.io -->
<svg version="1.1" xmlns="http://www.w3.org/2000/svg" width="32" height="32" viewBox="0 0 32 32">
<path d="M23 9.45l-10.95 12.1-3.45-3.8c-0.35-0.4-1-0.45-1.4-0.050-0.4 0.35-0.45 1-0.050 1.4l4 4.45c0.2 0.25 0.5 0.4 0.8 0.4 0.050 0 0.050 0 0.1 0s0.050 0 0.050 0c0.3 0 0.6-0.15 0.8-0.35l11.6-12.8c0.35-0.4 0.35-1.050-0.050-1.4-0.45-0.4-1.050-0.35-1.45 0.050zM16 0.4c-8.8 0-16 7.2-16 16s7.2 16 16 16c8.8 0 16-7.2 16-16s-7.2-16-16-16zM16 30.4c-7.7 0-14-6.3-14-14s6.3-14 14-14c7.7 0 14 6.3 14 14s-6.3 14-14 14z"></path>
</svg>
