<!-- Generated by IcoMoon.io -->
<svg version="1.1" xmlns="http://www.w3.org/2000/svg" width="32" height="32" viewBox="0 0 32 32">
<path d="M15.2 32c-4.060 0-7.877-1.581-10.748-4.452s-4.452-6.688-4.452-10.748c0-4.060 1.581-7.877 4.452-10.748s6.688-4.452 10.748-4.452c4.060 0 7.877 1.581 10.748 4.452s4.452 6.688 4.452 10.748-1.581 7.877-4.452 10.748c-2.871 2.871-6.688 4.452-10.748 4.452zM15.2 3.2c-7.499 0-13.6 6.101-13.6 13.6s6.101 13.6 13.6 13.6 13.6-6.101 13.6-13.6-6.101-13.6-13.6-13.6zM12 23.2c-0.205 0-0.409-0.078-0.566-0.234l-4.8-4.8c-0.312-0.312-0.312-0.819 0-1.131s0.819-0.312 1.131 0l4.234 4.234 10.634-10.634c0.312-0.312 0.819-0.312 1.131 0s0.312 0.819 0 1.131l-11.2 11.2c-0.156 0.156-0.361 0.234-0.566 0.234z"></path>
</svg>
