<!-- Generated by IcoMoon.io -->
<svg version="1.1" xmlns="http://www.w3.org/2000/svg" width="32" height="32" viewBox="0 0 32 32">
<path d="M0.928 16c0-4.032 1.568-7.808 4.416-10.656s6.624-4.416 10.656-4.416c0.576 0 1.184 0.032 1.76 0.096-0.128 0.416-0.192 0.832-0.192 1.248 0 1.856 1.216 3.488 2.976 4.032 0 0.032 0 0.096 0 0.128 0 1.152 0.352 2.24 1.024 3.168 0.16 0.224 0.448 0.256 0.672 0.096s0.256-0.448 0.096-0.672c-0.544-0.768-0.832-1.664-0.832-2.624 0-0.128 0-0.288 0.032-0.448 0.032-0.256-0.128-0.448-0.384-0.512-1.504-0.288-2.624-1.632-2.624-3.2 0-0.512 0.096-0.992 0.32-1.44 0.064-0.128 0.064-0.288 0-0.416s-0.192-0.224-0.352-0.256c-0.832-0.064-1.664-0.128-2.496-0.128-4.288 0-8.288 1.664-11.328 4.672s-4.672 7.040-4.672 11.328c0 3.104 0.896 6.112 2.56 8.704 0.096 0.128 0.256 0.224 0.384 0.224 0.096 0 0.192-0.032 0.256-0.064 0.224-0.128 0.288-0.448 0.128-0.64-1.536-2.464-2.4-5.312-2.4-8.224zM31.936 14.592c0-0.16-0.096-0.288-0.224-0.352s-0.288-0.096-0.416-0.032c-0.416 0.16-0.832 0.224-1.28 0.224-1.76 0-3.296-1.312-3.52-3.072-0.032-0.224-0.224-0.416-0.48-0.416 0 0 0 0 0 0s-0.032 0-0.032 0c-0.768 0-1.536-0.192-2.176-0.576-0.224-0.128-0.512-0.032-0.64 0.192s-0.032 0.512 0.192 0.64c0.704 0.384 1.472 0.608 2.304 0.672 0.416 2.016 2.24 3.488 4.352 3.488 0.352 0 0.672-0.032 1.024-0.128 0 0.256 0.032 0.512 0.032 0.736 0 4.032-1.568 7.808-4.416 10.656-2.848 2.88-6.624 4.448-10.656 4.448-4.416 0-8.608-1.952-11.488-5.312-0.16-0.192-0.48-0.224-0.672-0.064s-0.224 0.48-0.064 0.672c3.104 3.584 7.552 5.632 12.224 5.632 4.288 0 8.288-1.664 11.328-4.672s4.672-7.040 4.672-11.328c0-0.448-0.032-0.928-0.064-1.408zM6.304 16.192c-1.408 0-2.56 1.152-2.56 2.56s1.152 2.56 2.56 2.56c1.408 0 2.56-1.152 2.56-2.56s-1.152-2.56-2.56-2.56zM6.304 20.352c-0.896 0-1.6-0.736-1.6-1.6s0.736-1.6 1.6-1.6c0.896 0 1.6 0.736 1.6 1.6s-0.736 1.6-1.6 1.6zM14.24 10.336c1.408 0 2.56-1.152 2.56-2.56s-1.152-2.56-2.56-2.56c-1.408 0-2.56 1.152-2.56 2.56s1.152 2.56 2.56 2.56zM14.24 6.144c0.896 0 1.632 0.736 1.632 1.632s-0.736 1.632-1.632 1.632c-0.896 0-1.632-0.736-1.632-1.632s0.736-1.632 1.632-1.632zM13.632 18.464c1.088 0 1.984-0.896 1.984-1.984s-0.896-1.984-1.984-1.984c-1.088 0-1.984 0.896-1.984 1.984 0.032 1.088 0.896 1.984 1.984 1.984zM13.632 15.456c0.576 0 1.024 0.48 1.024 1.024s-0.48 1.024-1.024 1.024-1.024-0.48-1.024-1.024 0.48-1.024 1.024-1.024zM6.88 7.264c-1.088 0-1.984 0.896-1.984 1.984s0.896 1.984 1.984 1.984 1.984-0.896 1.984-1.984-0.896-1.984-1.984-1.984zM6.88 10.272c-0.576 0-1.024-0.48-1.024-1.024s0.48-1.024 1.024-1.024 1.024 0.48 1.024 1.024-0.48 1.024-1.024 1.024zM15.008 28.16c1.44 0 2.592-1.152 2.592-2.592s-1.152-2.592-2.592-2.592-2.592 1.152-2.592 2.592 1.152 2.592 2.592 2.592zM15.008 23.936c0.896 0 1.664 0.736 1.664 1.664s-0.736 1.664-1.664 1.664-1.664-0.736-1.664-1.664 0.736-1.664 1.664-1.664zM21.088 21.888c0 1.088 0.896 1.952 1.952 1.952 1.088 0 1.952-0.864 1.952-1.952s-0.896-1.952-1.952-1.952c-1.088-0.032-1.952 0.864-1.952 1.952zM24.064 21.888c0 0.576-0.448 1.024-1.024 1.024s-1.024-0.448-1.024-1.024 0.448-1.024 1.024-1.024c0.544 0 1.024 0.448 1.024 1.024zM22.304 12.288c-1.504 0-2.72 1.216-2.72 2.72s1.216 2.72 2.72 2.72 2.72-1.216 2.72-2.72-1.248-2.72-2.72-2.72zM22.304 16.768c-0.96 0-1.76-0.8-1.76-1.76s0.8-1.76 1.76-1.76 1.76 0.8 1.76 1.76-0.8 1.76-1.76 1.76z"></path>
</svg>
