<!-- Generated by IcoMoon.io -->
<svg version="1.1" xmlns="http://www.w3.org/2000/svg" width="32" height="32" viewBox="0 0 32 32">
<path d="M21.567 13.805c-0.445 0-0.763 0.318-0.763 0.763s0.318 0.763 0.763 0.763c0.445 0 0.763-0.318 0.763-0.763 0-0.382-0.318-0.763-0.763-0.763z"></path>
<path d="M25.893 13.805c-0.445 0-0.763 0.318-0.763 0.763s0.318 0.763 0.763 0.763c0.445 0 0.763-0.318 0.763-0.763 0-0.382-0.318-0.763-0.763-0.763z"></path>
<path d="M6.044 13.805c-0.445 0-0.763 0.318-0.763 0.763s0.318 0.763 0.763 0.763c0.445 0 0.763-0.318 0.763-0.763 0-0.382-0.318-0.763-0.763-0.763z"></path>
<path d="M10.433 13.805c-0.445 0-0.763 0.318-0.763 0.763s0.318 0.763 0.763 0.763c0.445 0 0.763-0.318 0.763-0.763 0-0.382-0.382-0.763-0.763-0.763z"></path>
<path d="M31.682 24.62c-0.064-0.254-0.318-0.382-0.573-0.318s-0.382 0.318-0.318 0.573c0.127 0.445 0.191 0.891 0.191 1.4h-8.843c-0.127-0.064-0.254-0.064-0.382-0.127 0 0 0 0 0-0.064 0-2.099-1.081-3.944-2.736-4.962 0.7-0.636 1.527-1.081 2.418-1.336 0.318 0.954 1.272 1.59 2.29 1.59s1.972-0.636 2.29-1.59c1.718 0.573 3.245 1.781 4.135 3.435 0.127 0.254 0.445 0.318 0.7 0.191 0.191-0.127 0.254-0.382 0.127-0.636-0.382-0.7-0.827-1.272-1.336-1.845 0.445-0.318 0.827-0.827 1.145-1.463 1.209-2.608 1.209-7.571 0.382-9.861-0.573-1.527-1.59-2.799-2.926-3.69s-2.863-1.4-4.453-1.4c-1.909 0-3.753 0.7-5.217 1.972-0.191 0.191-0.191 0.445-0.064 0.636 0.191 0.191 0.445 0.191 0.636 0.064 1.272-1.145 2.926-1.718 4.581-1.718 1.4 0 2.799 0.445 3.944 1.209 1.145 0.827 2.036 1.909 2.545 3.245 0.763 2.036 0.763 6.744-0.318 9.097-0.254 0.573-0.636 1.018-0.954 1.209-0.827-0.636-1.718-1.145-2.736-1.463 1.909-0.954 3.245-2.926 3.245-5.153v-0.954c0-0.254-0.191-0.445-0.382-0.445-2.29-0.382-3.944-2.736-3.944-2.799-0.191-0.318-0.7-0.254-0.827 0.064 0 0-1.145 2.672-5.853 2.672-0.254 0-0.445 0.191-0.445 0.445v0.954c0 2.29 1.336 4.262 3.245 5.153-0.954 0.318-1.909 0.827-2.736 1.463-0.382-0.191-0.7-0.636-0.954-1.209-1.145-2.354-1.145-7.062-0.318-9.097 0.191-0.509 0.445-0.954 0.763-1.4 0.127-0.191 0.064-0.509-0.127-0.636s-0.509-0.064-0.636 0.127c-0.318 0.509-0.636 1.018-0.827 1.59-0.891 2.227-0.891 7.252 0.382 9.861 0.127 0.318 0.318 0.636 0.509 0.891-0.382-0.127-0.827-0.191-1.272-0.191-0.064-0.382-0.064-0.891 0-1.272 0.064-0.254-0.127-0.509-0.382-0.573s-0.509 0.127-0.573 0.382c-0.064 0.382-0.064 0.827-0.064 1.209-0.763-0.445-0.891-1.209-0.891-1.209-0.064-0.254-0.254-0.445-0.509-0.382s-0.445 0.254-0.382 0.509c0 0.064 0.191 0.891 0.954 1.59-0.127 0.064-0.318 0.064-0.445 0.127-0.891-0.763-1.909-1.4-2.99-1.718 0.954-0.445 1.781-1.209 2.418-2.099 0.254 0.127 0.509 0.191 0.763 0.191 0.954 0 1.718-0.763 1.718-1.718 0-0.382-0.127-0.7-0.318-0.954 1.209-3.563 0.7-5.662 0-6.744-0.7-1.145-1.781-1.845-3.181-2.036-0.954-0.127-1.781 0.127-2.227 0.318-0.636-0.763-1.4-1.209-2.926-1.209-1.781 0-4.262 0.891-5.598 2.926-1.463 2.227-0.954 4.835-0.191 6.744-0.191 0.254-0.318 0.573-0.318 0.954 0 0.954 0.763 1.718 1.718 1.718 0.254 0 0.573-0.064 0.763-0.191 0.573 0.891 1.4 1.654 2.354 2.099-1.272 0.382-2.481 1.145-3.435 2.163-0.191 0.191-0.191 0.445 0 0.636s0.509 0.254 0.7 0c0.827-0.891 1.845-1.527 2.99-1.909 0.318 0.954 1.272 1.59 2.29 1.59s1.972-0.636 2.29-1.59c0.827 0.254 1.59 0.7 2.29 1.272-1.718 1.018-2.863 2.926-2.863 5.089 0 0 0 0 0 0.064-0.127 0-0.254 0.064-0.382 0.127h-8.652c0.064-1.145 0.382-2.227 0.954-3.181 0.127-0.254 0.064-0.509-0.191-0.636s-0.509-0.064-0.636 0.191c-0.7 1.272-1.081 2.672-1.081 4.135v0c0 0.254 0.191 0.445 0.445 0.445h8.143c-0.064 0.191-0.127 0.382-0.127 0.636 0 0.954 0.763 1.718 1.718 1.718 0.254 0 0.509-0.064 0.7-0.127 1.082 1.59 2.863 2.672 4.962 2.672 2.036 0 3.881-1.081 4.962-2.672 0.191 0.127 0.445 0.127 0.7 0.127 0.954 0 1.718-0.763 1.718-1.718 0-0.254-0.064-0.445-0.127-0.636h8.461c0.254 0 0.445-0.191 0.445-0.445v0c0-0.763-0.127-1.463-0.318-2.099zM13.869 15.968c-0.127 0-0.254 0-0.318-0.064 0.191-0.445 0.318-0.954 0.382-1.463 0.382 0 0.7 0.382 0.7 0.763s-0.318 0.763-0.763 0.763zM2.099 7.952c1.145-1.718 3.308-2.481 4.835-2.481 1.463 0 1.909 0.445 2.418 1.145 0.127 0.191 0.445 0.254 0.636 0.127 0 0 0.827-0.573 1.972-0.382 1.082 0.127 1.972 0.7 2.481 1.59 0.763 1.336 0.763 3.245 0 5.662-0.191-0.064-0.318-0.127-0.509-0.127v-0.763c0-0.254-0.191-0.445-0.382-0.445-2.29-0.382-3.944-2.736-3.944-2.799-0.191-0.318-0.7-0.254-0.827 0.064 0 0-0.318 0.7-1.145 1.336-1.145 0.891-2.799 1.336-4.708 1.336-0.254 0-0.445 0.191-0.445 0.445v0.763c-0.191 0-0.382 0.064-0.573 0.127-0.827-2.227-0.763-4.072 0.191-5.598zM2.608 15.968c-0.445 0-0.763-0.318-0.763-0.763 0-0.382 0.318-0.763 0.7-0.763 0.064 0.509 0.191 1.018 0.382 1.463-0.127 0-0.191 0.064-0.318 0.064zM3.435 13.932c0 0 0 0 0 0 0-0.127 0-0.191 0-0.318v-0.509c3.563-0.127 5.217-1.718 5.853-2.608 0.636 0.763 1.972 2.099 3.753 2.545v0.573c0 0.127 0 0.191 0 0.318 0 0 0 0 0 0-0.191 2.481-2.227 4.453-4.771 4.453-2.608 0.064-4.644-1.909-4.835-4.453zM8.207 20.421c-0.636 0-1.145-0.382-1.4-0.891 0.445-0.064 0.891-0.127 1.4-0.127 0.445 0 0.954 0.064 1.4 0.127-0.254 0.509-0.763 0.891-1.4 0.891zM23.73 20.421c-0.636 0-1.145-0.382-1.4-0.891 0.445-0.064 0.891-0.127 1.4-0.127 0.445 0 0.954 0.064 1.4 0.127-0.254 0.509-0.763 0.891-1.4 0.891zM18.958 13.614v-0.509c3.563-0.127 5.217-1.718 5.853-2.608 0.636 0.763 1.972 2.099 3.753 2.545v0.573c0 2.672-2.163 4.835-4.835 4.835s-4.771-2.163-4.771-4.835zM10.179 28.565c-0.445 0-0.763-0.318-0.763-0.763 0-0.382 0.254-0.636 0.573-0.763 0.064 0.509 0.254 1.018 0.445 1.463-0.064 0.064-0.127 0.064-0.254 0.064zM15.841 31.046c-2.736 0-4.962-2.227-4.962-4.962s2.227-4.962 4.962-4.962 4.962 2.227 4.962 4.962-2.227 4.962-4.962 4.962zM21.503 28.565c-0.064 0-0.191 0-0.254-0.064 0.191-0.445 0.382-0.954 0.445-1.463 0.318 0.064 0.573 0.382 0.573 0.763 0 0.445-0.382 0.763-0.763 0.763z"></path>
<path d="M13.678 25.893c-0.445 0-0.763 0.318-0.763 0.763s0.318 0.763 0.763 0.763c0.445 0 0.763-0.318 0.763-0.763s-0.382-0.763-0.763-0.763z"></path>
<path d="M18.004 25.893c-0.445 0-0.763 0.318-0.763 0.763s0.318 0.763 0.763 0.763 0.763-0.318 0.763-0.763c0-0.445-0.318-0.763-0.763-0.763z"></path>
<path d="M14.759 4.517c0.7 0.636 1.463 1.018 1.527 1.018 0.127 0.064 0.254 0.064 0.382 0 0.064 0 0.763-0.382 1.527-1.018 1.018-0.891 1.527-1.845 1.4-2.799-0.127-1.145-0.954-1.654-1.718-1.654-0.509-0.064-1.081 0.127-1.4 0.445-0.382-0.318-0.891-0.509-1.4-0.445-0.7 0.064-1.527 0.509-1.718 1.654-0.127 0.954 0.382 1.909 1.4 2.799zM14.314 1.845c0.127-0.7 0.573-0.827 0.827-0.891 0 0 0.064 0 0.064 0 0.382 0 0.7 0.191 0.827 0.445 0.064 0.191 0.254 0.318 0.445 0.318s0.382-0.127 0.445-0.318c0.064-0.318 0.509-0.509 0.891-0.445 0.254 0 0.763 0.191 0.827 0.891 0.191 1.209-1.336 2.29-2.163 2.736-0.827-0.445-2.354-1.527-2.163-2.736z"></path>
</svg>
