<!-- Generated by IcoMoon.io -->
<svg version="1.1" xmlns="http://www.w3.org/2000/svg" width="50" height="32" viewBox="0 0 50 32">
<path d="M49.405 16.702c-0.234 0-0.39 0.156-0.39 0.39 0 7.805-6.322 14.127-14.127 14.127s-14.127-6.322-14.127-14.127c0-7.649 6.088-13.815 13.581-14.127l-1.483 1.483c-0.156 0.156-0.156 0.39 0 0.546 0.078 0.078 0.156 0.078 0.312 0.078s0.234 0 0.312-0.078l2.419-2.42-2.419-2.42c-0.156-0.156-0.39-0.156-0.546 0s-0.156 0.39 0 0.546l1.561 1.561c-3.668 0.156-6.946 1.561-9.522 3.824-2.732-2.498-6.244-3.824-9.99-3.824-8.273-0.078-14.985 6.634-14.985 14.829 0 3.356 1.093 6.4 2.966 8.898 0 0 0 0.078 0.078 0.078 0 0 0.078 0 0.078 0.078 2.732 3.59 7.024 5.932 11.863 5.932 3.746 0 7.259-1.405 9.99-3.824 2.654 2.419 6.166 3.824 9.99 3.824 8.195 0 14.907-6.712 14.907-14.907-0.078-0.312-0.234-0.468-0.468-0.468zM14.517 2.966v13.893l-11.161 8.351c-1.639-2.263-2.576-5.073-2.576-8.117 0-7.649 6.166-13.893 13.737-14.127zM3.824 25.834l11.473-8.585v-14.283c3.356 0.078 6.556 1.327 9.054 3.59-2.732 2.732-4.371 6.4-4.371 10.537s1.639 7.805 4.371 10.537c-2.576 2.341-5.932 3.59-9.444 3.59-4.449 0-8.429-2.107-11.083-5.385z"></path>
<path d="M31.61 16.312c1.405 0 2.498-1.171 2.498-2.498s-1.171-2.498-2.498-2.498-2.498 1.171-2.498 2.498 1.093 2.498 2.498 2.498zM31.61 12.020c0.937 0 1.717 0.78 1.717 1.717s-0.78 1.717-1.717 1.717-1.717-0.78-1.717-1.717c-0.078-0.937 0.702-1.717 1.717-1.717z"></path>
<path d="M38.166 17.873c-1.405 0-2.498 1.171-2.498 2.498s1.171 2.498 2.498 2.498 2.498-1.171 2.498-2.498-1.093-2.498-2.498-2.498zM38.166 22.166c-0.937 0-1.717-0.78-1.717-1.717s0.78-1.717 1.717-1.717 1.717 0.78 1.717 1.717-0.702 1.717-1.717 1.717z"></path>
<path d="M29.815 22.166c0.078 0.078 0.156 0.078 0.312 0.078s0.234 0 0.312-0.078l9.678-9.678c0.156-0.156 0.156-0.39 0-0.546s-0.39-0.156-0.546 0l-9.756 9.678c-0.156 0.156-0.156 0.39 0 0.546z"></path>
</svg>
