<!-- Generated by IcoMoon.io -->
<svg version="1.1" xmlns="http://www.w3.org/2000/svg" width="32" height="32" viewBox="0 0 32 32">
<path d="M20.283 20.787c0-0.315-0.252-0.504-0.504-0.504-0.315 0-0.504 0.252-0.504 0.504v1.071c0 0.315 0.252 0.504 0.504 0.504 0.315 0 0.504-0.252 0.504-0.504v-1.071z"></path>
<path d="M19.717 26.646c-0.315 0-0.504 0.252-0.504 0.504v2.142c0 0.315 0.252 0.504 0.504 0.504s0.504-0.252 0.504-0.504v-2.142c0.063-0.252-0.189-0.504-0.504-0.504z"></path>
<path d="M22.425 14.425c0-0.315-0.252-0.504-0.504-0.504s-0.504 0.252-0.504 0.504v1.071c0 0.315 0.252 0.504 0.504 0.504s0.504-0.252 0.504-0.504v-1.071z"></path>
<path d="M20.283 17.575c0-0.315-0.252-0.504-0.504-0.504-0.315 0-0.504 0.252-0.504 0.504v1.071c0 0.315 0.252 0.504 0.504 0.504 0.315 0 0.504-0.252 0.504-0.504v-1.071z"></path>
<path d="M20.283 24c0-0.315-0.252-0.504-0.504-0.504-0.315 0-0.504 0.252-0.504 0.504v1.071c0 0.315 0.252 0.504 0.504 0.504s0.504-0.252 0.504-0.504v-1.071z"></path>
<path d="M22.425 17.575c0-0.315-0.252-0.504-0.504-0.504s-0.504 0.252-0.504 0.504v1.071c0 0.315 0.252 0.504 0.504 0.504s0.504-0.252 0.504-0.504v-1.071z"></path>
<path d="M18.142 14.425c0-0.315-0.252-0.504-0.504-0.504-0.315 0-0.504 0.252-0.504 0.504v1.071c0 0.315 0.252 0.504 0.504 0.504 0.315 0 0.504-0.252 0.504-0.504v-1.071z"></path>
<path d="M20.283 14.425c0-0.315-0.252-0.504-0.504-0.504-0.315 0-0.504 0.252-0.504 0.504v1.071c0 0.315 0.252 0.504 0.504 0.504 0.315 0 0.504-0.252 0.504-0.504v-1.071z"></path>
<path d="M22.425 9.071v-1.071c0-0.315-0.252-0.504-0.504-0.504s-0.504 0.252-0.504 0.504v1.071c0 0.315 0.252 0.504 0.504 0.504s0.504-0.189 0.504-0.504z"></path>
<path d="M18.142 17.575c0-0.315-0.252-0.504-0.504-0.504-0.315 0-0.504 0.252-0.504 0.504v1.071c0 0.315 0.252 0.504 0.504 0.504 0.315 0 0.504-0.252 0.504-0.504v-1.071z"></path>
<path d="M24.504 8c0-0.315-0.252-0.504-0.504-0.504s-0.504 0.252-0.504 0.504v1.071c0 0.315 0.252 0.504 0.504 0.504s0.504-0.252 0.504-0.504v-1.071z"></path>
<path d="M17.575 20.283c-0.315 0-0.504 0.252-0.504 0.504v1.071c0 0.315 0.252 0.504 0.504 0.504 0.315 0 0.504-0.252 0.504-0.504v-1.071c0.063-0.315-0.189-0.504-0.504-0.504z"></path>
<path d="M26.646 24c0-0.315-0.252-0.504-0.504-0.504s-0.504 0.252-0.504 0.504v1.071c0 0.315 0.252 0.504 0.504 0.504s0.504-0.252 0.504-0.504v-1.071z"></path>
<path d="M26.142 26.646c-0.315 0-0.504 0.252-0.504 0.504v2.142c0 0.315 0.252 0.504 0.504 0.504s0.504-0.252 0.504-0.504v-2.142c0-0.252-0.252-0.504-0.504-0.504z"></path>
<path d="M28.283 20.283c-0.315 0-0.504 0.252-0.504 0.504v1.071c0 0.315 0.252 0.504 0.504 0.504s0.504-0.252 0.504-0.504v-1.071c0-0.315-0.252-0.504-0.504-0.504z"></path>
<path d="M19.717 9.575c0.315 0 0.504-0.252 0.504-0.504v-2.268l5.354-1.323v8.945c0 0.252 0.126 0.441 0.315 0.504l3.905 1.449v5.48c0 0.315 0.252 0.504 0.504 0.504s0.504-0.252 0.504-0.504v-5.858c0-0.252-0.126-0.441-0.315-0.504l-3.905-1.449v-10.331c0-0.315-0.252-0.504-0.504-0.504s-0.504 0.252-0.504 0.504v0.63l-5.984 1.512c-0.252 0.063-0.378 0.252-0.378 0.504v2.646c0 0.378 0.252 0.567 0.504 0.567z"></path>
<path d="M28.787 17.575c0-0.315-0.252-0.504-0.504-0.504s-0.567 0.252-0.567 0.504v1.071c0 0.315 0.252 0.504 0.504 0.504s0.504-0.252 0.504-0.504v-1.071z"></path>
<path d="M26.646 17.575c0-0.315-0.252-0.504-0.504-0.504s-0.504 0.252-0.504 0.504v1.071c0 0.315 0.252 0.504 0.504 0.504s0.504-0.252 0.504-0.504v-1.071z"></path>
<path d="M22.425 24c0-0.315-0.252-0.504-0.504-0.504s-0.504 0.252-0.504 0.504v1.071c0 0.315 0.252 0.504 0.504 0.504s0.504-0.252 0.504-0.504v-1.071z"></path>
<path d="M26.646 20.787c0-0.315-0.252-0.504-0.504-0.504s-0.504 0.252-0.504 0.504v1.071c0 0.315 0.252 0.504 0.504 0.504s0.504-0.252 0.504-0.504v-1.071z"></path>
<path d="M21.858 26.646c-0.315 0-0.504 0.252-0.504 0.504v2.142c0 0.315 0.252 0.504 0.504 0.504s0.504-0.252 0.504-0.504v-2.142c0.063-0.252-0.189-0.504-0.504-0.504z"></path>
<path d="M22.425 20.787c0-0.315-0.252-0.504-0.504-0.504s-0.504 0.252-0.504 0.504v1.071c0 0.315 0.252 0.504 0.504 0.504s0.504-0.252 0.504-0.504v-1.071z"></path>
<path d="M24 29.858c0.315 0 0.504-0.252 0.504-0.504v-17.071c0-0.252-0.189-0.441-0.378-0.504l-8.504-2.142c-0.189-0.063-0.315 0-0.441 0.126s-0.189 0.252-0.189 0.441v11.717c0 0.315 0.252 0.504 0.504 0.504 0.315 0 0.504-0.252 0.504-0.504v-11.087l7.496 1.89v16.63c-0.063 0.252 0.189 0.504 0.504 0.504z"></path>
<path d="M11.717 11.213c0-0.315-0.252-0.504-0.504-0.504-0.315 0-0.504 0.252-0.504 0.504v1.071c0 0.315 0.252 0.504 0.504 0.504 0.315 0 0.504-0.252 0.504-0.504v-1.071z"></path>
<path d="M11.717 8c0-0.315-0.252-0.504-0.504-0.504-0.315 0-0.504 0.252-0.504 0.504v1.071c0 0.315 0.252 0.504 0.504 0.504 0.315 0 0.504-0.252 0.504-0.504v-1.071z"></path>
<path d="M7.496 24c0-0.315-0.252-0.504-0.504-0.504-0.315 0-0.504 0.252-0.504 0.504v1.071c0 0.315 0.252 0.504 0.504 0.504 0.315 0 0.504-0.252 0.504-0.504v-1.071z"></path>
<path d="M2.646 19.213c0.315 0 0.504-0.252 0.504-0.504v-2.646h5.354v13.354c0 0.315 0.252 0.504 0.504 0.504s0.504-0.252 0.504-0.504v-13.858c0-0.315-0.252-0.504-0.504-0.504h-6.362c-0.315 0-0.504 0.252-0.504 0.504v3.213c0 0.189 0.252 0.441 0.504 0.441z"></path>
<path d="M8.504 11.213v1.071c0 0.315 0.252 0.504 0.504 0.504s0.504-0.252 0.504-0.504v-1.071c0-0.315-0.252-0.504-0.504-0.504-0.252-0.063-0.504 0.189-0.504 0.504z"></path>
<path d="M11.717 4.787c0-0.315-0.252-0.504-0.504-0.504-0.315 0-0.504 0.252-0.504 0.504v1.071c0 0.315 0.252 0.504 0.504 0.504 0.315 0 0.504-0.252 0.504-0.504v-1.071z"></path>
<path d="M6.929 26.646c-0.315 0-0.504 0.252-0.504 0.504v2.142c0 0.315 0.252 0.504 0.504 0.504 0.315 0 0.504-0.252 0.504-0.504v-2.142c0.063-0.252-0.189-0.504-0.504-0.504z"></path>
<path d="M31.433 30.929h-1.071v-3.276c0.945-0.252 1.575-1.071 1.575-2.079 0-1.197-0.945-2.142-2.142-2.142s-2.079 1.008-2.079 2.142c0 1.008 0.693 1.827 1.575 2.079v3.276h-13.291v-2.205c1.197-0.252 2.142-1.323 2.142-2.583 0-1.449-1.197-2.646-2.646-2.646s-2.646 1.197-2.646 2.646c0 1.26 0.945 2.394 2.142 2.583v2.205h-11.78v-5.417c1.197-0.252 2.142-1.323 2.142-2.583 0-1.449-1.197-2.646-2.646-2.646s-2.646 1.197-2.646 2.646c0 1.26 0.945 2.394 2.142 2.583v5.417h-1.701c-0.315 0-0.504 0.252-0.504 0.504 0 0.315 0.252 0.504 0.504 0.504h30.929c0.315 0 0.504-0.252 0.504-0.504s-0.189-0.504-0.504-0.504zM1.071 22.929c0-0.882 0.693-1.575 1.575-1.575s1.575 0.693 1.575 1.575c0 0.882-0.693 1.575-1.575 1.575s-1.575-0.693-1.575-1.575zM13.858 26.142c0-0.882 0.693-1.575 1.575-1.575s1.575 0.693 1.575 1.575-0.693 1.575-1.575 1.575c-0.882 0-1.575-0.693-1.575-1.575zM28.787 25.575c0-0.567 0.504-1.071 1.071-1.071s1.071 0.504 1.071 1.071c0 0.567-0.504 1.071-1.071 1.071s-1.071-0.441-1.071-1.071z"></path>
<path d="M4.283 27.213v2.142c0 0.315 0.252 0.504 0.504 0.504 0.315 0 0.504-0.252 0.504-0.504v-2.142c0-0.315-0.252-0.504-0.504-0.504-0.252-0.063-0.504 0.189-0.504 0.504z"></path>
<path d="M7.496 17.575c0-0.315-0.252-0.504-0.504-0.504-0.315 0-0.504 0.252-0.504 0.504v1.071c0 0.315 0.252 0.504 0.504 0.504 0.315 0 0.504-0.252 0.504-0.504v-1.071z"></path>
<path d="M7.496 20.787c0-0.315-0.252-0.504-0.504-0.504-0.315 0-0.504 0.252-0.504 0.504v1.071c0 0.315 0.252 0.504 0.504 0.504 0.315 0 0.504-0.252 0.504-0.504v-1.071z"></path>
<path d="M4.283 17.575v1.071c0 0.315 0.252 0.504 0.504 0.504 0.315 0 0.504-0.252 0.504-0.504v-1.071c0-0.315-0.252-0.504-0.504-0.504s-0.504 0.252-0.504 0.504z"></path>
<path d="M11.717 20.787c0-0.315-0.252-0.504-0.504-0.504-0.315 0-0.504 0.252-0.504 0.504v1.071c0 0.315 0.252 0.504 0.504 0.504 0.315 0 0.504-0.252 0.504-0.504v-1.071z"></path>
<path d="M13.858 14.425c0-0.315-0.252-0.504-0.504-0.504-0.315 0-0.504 0.252-0.504 0.504v1.071c0 0.315 0.252 0.504 0.504 0.504 0.315 0 0.504-0.252 0.504-0.504v-1.071z"></path>
<path d="M13.858 11.213c0-0.315-0.252-0.504-0.504-0.504-0.315 0-0.504 0.252-0.504 0.504v1.071c0 0.315 0.252 0.504 0.504 0.504 0.315 0 0.504-0.252 0.504-0.504v-1.071z"></path>
<path d="M13.858 17.575c0-0.315-0.252-0.504-0.504-0.504-0.315 0-0.504 0.252-0.504 0.504v1.071c0 0.315 0.252 0.504 0.504 0.504 0.315 0 0.504-0.252 0.504-0.504v-1.071z"></path>
<path d="M13.354 20.283c-0.315 0-0.504 0.252-0.504 0.504v1.071c0 0.315 0.252 0.504 0.504 0.504 0.315 0 0.504-0.252 0.504-0.504v-1.071c0-0.315-0.252-0.504-0.504-0.504z"></path>
<path d="M13.858 8c0-0.315-0.252-0.504-0.504-0.504-0.315 0-0.504 0.252-0.504 0.504v1.071c0 0.315 0.252 0.504 0.504 0.504 0.315 0 0.504-0.252 0.504-0.504v-1.071z"></path>
<path d="M11.717 24c0-0.315-0.252-0.504-0.504-0.504-0.315 0-0.504 0.252-0.504 0.504v1.071c0 0.315 0.252 0.504 0.504 0.504 0.315 0 0.504-0.252 0.504-0.504v-1.071z"></path>
<path d="M6.929 13.858c0.315 0 0.504-0.252 0.504-0.504v-3.905l1.827-0.945c0.189-0.063 0.315-0.252 0.315-0.504v-4.472l2.646-1.323 2.646 1.323v4.472c0 0.315 0.252 0.504 0.504 0.504 0.315 0 0.504-0.252 0.504-0.504v-4.787c0-0.189-0.126-0.378-0.315-0.504l-2.772-1.449v-0.756c0-0.315-0.252-0.504-0.504-0.504-0.315 0-0.504 0.252-0.504 0.504v0.756l-2.961 1.449c-0.189 0.063-0.315 0.252-0.315 0.504v4.472l-1.827 0.945c-0.189 0.063-0.315 0.252-0.315 0.504v4.283c0.063 0.189 0.252 0.441 0.567 0.441z"></path>
<path d="M11.717 17.575c0-0.315-0.252-0.504-0.504-0.504-0.315 0-0.504 0.252-0.504 0.504v1.071c0 0.315 0.252 0.504 0.504 0.504 0.315 0 0.504-0.252 0.504-0.504v-1.071z"></path>
<path d="M11.213 26.646c-0.315 0-0.504 0.252-0.504 0.504v2.142c0 0.315 0.252 0.504 0.504 0.504 0.315 0 0.504-0.252 0.504-0.504v-2.142c0-0.252-0.252-0.504-0.504-0.504z"></path>
<path d="M13.858 4.787c0-0.315-0.252-0.504-0.504-0.504-0.315 0-0.504 0.252-0.504 0.504v1.071c0 0.315 0.252 0.504 0.504 0.504 0.315 0 0.504-0.252 0.504-0.504v-1.071z"></path>
<path d="M11.717 14.425c0-0.315-0.252-0.504-0.504-0.504-0.315 0-0.504 0.252-0.504 0.504v1.071c0 0.315 0.252 0.504 0.504 0.504 0.315 0 0.504-0.252 0.504-0.504v-1.071z"></path>
</svg>
