<!-- Generated by IcoMoon.io -->
<svg version="1.1" xmlns="http://www.w3.org/2000/svg" width="32" height="32" viewBox="0 0 32 32">
<path d="M31.744 25.088h-1.664v-1.408c0-0.256-0.192-0.448-0.448-0.448s-0.448 0.192-0.448 0.448v7.36h-9.792c0.192-0.32 0.256-0.64 0.256-1.024 0-1.088-0.896-1.984-1.984-1.984h-0.832v-0.768c0-1.024-0.704-1.856-1.664-2.112v-6.080c0-0.512 0.064-1.024 0.192-1.536 1.024 1.344 2.624 2.24 4.416 2.24h1.536c1.28 0 2.368-1.024 2.432-2.304 0-0.64-0.192-1.28-0.704-1.728-0.448-0.448-1.088-0.704-1.728-0.704h-1.216c-0.576 0-1.024-0.448-1.024-1.024v-0.32c0.576-0.192 1.152-0.256 1.728-0.256h2.496c3.136 0 5.696 2.56 5.696 5.696v2.624c0 0.256 0.192 0.448 0.448 0.448s0.64-0.192 0.64-0.448v-2.688c0-3.648-3.008-6.656-6.656-6.656h-2.496c-0.576 0-1.216 0.064-1.728 0.256v-6.784c0-1.6-0.64-3.072-1.728-4.16-1.152-1.152-2.624-1.728-4.224-1.728-3.2 0-5.824 2.688-5.824 5.952v4.928c0 0.256 0.192 0.448 0.448 0.448s0.448-0.192 0.448-0.448v-4.544h2.88v18.752h-2.88v-12.288c0-0.256-0.192-0.448-0.448-0.448s-0.448 0.192-0.448 0.448v12.288h-2.432c-1.216 0-2.24 1.024-2.24 2.24v0.768h-0.768c-1.088 0-1.984 0.896-1.984 1.984s0.896 1.92 1.984 1.92h29.76c0.256 0 0.448-0.192 0.448-0.448v-5.952c0-0.32-0.192-0.512-0.448-0.512zM13.248 0.96c1.344 0 2.56 0.512 3.52 1.408 0.96 0.96 1.472 2.176 1.472 3.52v8.128c0 1.088 0.896 1.984 1.984 1.984h1.216c0.384 0 0.768 0.128 1.024 0.448 0.256 0.256 0.448 0.64 0.384 1.024 0 0.768-0.704 1.408-1.472 1.408h-1.536c-2.496 0-4.48-2.048-4.48-4.48v-8.512c0-0.576-0.256-1.088-0.64-1.472s-0.896-0.576-1.472-0.576c-0.96 0-1.728 0.704-1.984 1.536h-2.88c0.32-2.432 2.368-4.416 4.864-4.416zM12.224 5.888c0-0.576 0.512-1.088 1.088-1.088 0.256 0 0.576 0.128 0.768 0.32s0.32 0.512 0.32 0.832v8.448c0 0.768 0.128 1.472 0.448 2.112-0.384 0.832-0.576 1.728-0.576 2.624v5.952h-2.048v-19.2zM3.712 27.264c0-0.704 0.576-1.28 1.28-1.28h9.664c0.704 0 1.28 0.576 1.28 1.28v0.768h-12.16v-0.768zM0.96 30.016c0-0.576 0.448-1.024 1.024-1.024h15.68c0.576 0 1.024 0.448 1.024 1.024s-0.448 1.024-1.024 1.024h-2.944c0 0 0 0 0 0h-12.8c-0.512 0-0.96-0.448-0.96-1.024zM31.232 31.040h-1.152v-4.992h1.152v4.992z"></path>
<path d="M25.984 20.864h-7.68c-1.024 0-1.92 0.832-1.92 1.92 0 1.024 0.832 1.92 1.92 1.92h7.68c1.024 0 1.92-0.832 1.92-1.92s-0.832-1.92-1.92-1.92zM17.408 22.784c0-0.512 0.448-0.96 0.96-0.96h3.328v1.92h-3.328c-0.512 0-0.96-0.448-0.96-0.96zM25.984 23.744h-3.328v-1.92h3.328c0.512 0 0.96 0.448 0.96 0.96s-0.384 0.96-0.96 0.96z"></path>
</svg>
