<!-- Generated by IcoMoon.io -->
<svg version="1.1" xmlns="http://www.w3.org/2000/svg" width="32" height="32" viewBox="0 0 32 32">
<path d="M28.225 31.681h-24.45v-29h4.55v1.3h-3.25v26.4h21.85v-26.4h-3.319v-1.3h4.619zM24.906 6.844h-17.813l1.238-5.719h15.344l1.231 5.719zM8.719 5.544h14.631l-0.712-3.119h-13.269l-0.65 3.119zM13.137 16.856h-5.594v-5.981h5.594v5.981zM8.85 15.556h2.994v-3.381h-2.994v3.381zM15.544 13.213h8.256v1.3h-8.256v-1.3zM13.137 25.569h-5.594v-5.981h5.594v5.981zM8.85 24.269h2.994v-3.381h-2.994v3.381zM15.544 21.925h8.256v1.3h-8.256v-1.3z"></path>
</svg>
