<!-- Generated by IcoMoon.io -->
<svg version="1.1" xmlns="http://www.w3.org/2000/svg" width="32" height="32" viewBox="0 0 32 32">
<path d="M28.174 31.813l-0.909-15.131c-0.018-0.293-0.26-0.521-0.553-0.521h-7.632l-0.817-4.056c-0.217-1.077 0.166-2.191 0.999-2.907 1.253-1.077 1.892-2.701 1.711-4.344s-1.161-3.087-2.619-3.865c-1.474-0.786-3.235-0.786-4.709 0-1.458 0.778-2.437 2.222-2.619 3.865s0.458 3.266 1.711 4.344c0.833 0.716 1.215 1.83 0.999 2.907l-0.816 4.056h-7.632c-0.293 0-0.535 0.228-0.553 0.521l-0.909 15.131c-0.009 0.152 0.045 0.302 0.15 0.413s0.251 0.174 0.403 0.174h23.242c0.153 0 0.299-0.063 0.403-0.174s0.159-0.261 0.15-0.413zM13.46 8.358c-0.99-0.851-1.475-2.084-1.332-3.382s0.887-2.394 2.039-3.009c1.148-0.612 2.518-0.612 3.666 0 1.152 0.614 1.895 1.711 2.039 3.009s-0.342 2.53-1.332 3.382c-1.136 0.977-1.658 2.497-1.362 3.966l0.772 3.837h-3.9l0.772-3.837c0.296-1.469-0.226-2.988-1.362-3.966zM13.827 17.269h4.346l2.271 11.282h-8.888l2.271-11.282zM5.81 17.269h6.887l-2.271 11.282h-5.294l0.678-11.282zM4.967 31.292l0.098-1.632h5.137l-0.097 0.481c-0.060 0.3 0.134 0.592 0.434 0.652s0.592-0.134 0.652-0.434l0.141-0.7h9.334l0.141 0.7c0.053 0.263 0.284 0.445 0.543 0.445 0.036 0 0.073-0.004 0.11-0.011 0.3-0.060 0.494-0.352 0.434-0.652l-0.097-0.481h0.836c0.306 0 0.554-0.248 0.554-0.554s-0.248-0.554-0.554-0.554h-1.059l-2.271-11.282h6.887l0.678 11.283h-0.674c-0.306 0-0.554 0.248-0.554 0.554s0.248 0.554 0.554 0.554h0.741l0.098 1.632h-22.066zM24.426 28.552c-0.24 0.008-0.451 0.174-0.516 0.406-0.135 0.482 0.418 0.883 0.836 0.611 0.219-0.143 0.311-0.434 0.209-0.676-0.089-0.21-0.3-0.349-0.529-0.341zM24.955 28.894c0.014 0.033-0.014-0.033 0 0v0z"></path>
</svg>
