<!-- Generated by IcoMoon.io -->
<svg version="1.1" xmlns="http://www.w3.org/2000/svg" width="32" height="32" viewBox="0 0 32 32">
<path d="M25.851 2.338h-2.189c-0.243 0-0.439 0.197-0.439 0.439s0.197 0.439 0.439 0.439h0.272v24.266h-16.406v-24.266h1.829v0.998c0 0.765 0.622 1.388 1.388 1.388h2.078c0.208 1.147 1.214 2.019 2.419 2.019h0.979c1.205 0 2.211-0.872 2.419-2.019h2.078c0.765 0 1.388-0.623 1.388-1.388v-1.896c0-0.765-0.623-1.388-1.388-1.388h-9.972c-0.765 0-1.388 0.623-1.388 1.388v0.019h-3.747c-0.966 0-1.753 0.786-1.753 1.752v17.641c0 0.243 0.197 0.439 0.439 0.439s0.439-0.197 0.439-0.439v-17.641c0-0.482 0.392-0.874 0.874-0.874h1.039v24.705c0 0.243 0.197 0.439 0.439 0.439h17.285c0.243 0 0.439-0.197 0.439-0.439v-24.705h1.039c0.482 0 0.874 0.392 0.874 0.874v25.088c0 0.482-0.392 0.874-0.874 0.874h-20.241c-0.481 0-0.874-0.392-0.874-0.874v-5.375c0-0.242-0.197-0.439-0.439-0.439s-0.439 0.197-0.439 0.439v5.375c0 0.967 0.786 1.753 1.753 1.753h20.241c0.966 0 1.752-0.786 1.752-1.753v-25.088c0-0.966-0.786-1.752-1.752-1.752zM10.236 2.319c0-0.281 0.228-0.509 0.509-0.509h9.972c0.281 0 0.509 0.228 0.509 0.509v1.896c0 0.281-0.228 0.509-0.509 0.509h-2.477c-0.243 0-0.439 0.197-0.439 0.439 0 0.871-0.709 1.579-1.58 1.579h-0.979c-0.871 0-1.579-0.708-1.579-1.579 0-0.243-0.197-0.439-0.439-0.439h-2.478c-0.281 0-0.509-0.228-0.509-0.509z"></path>
<path d="M21.328 12.955h-2.324l-1.485-4.055c-0.147-0.403-0.732-0.376-0.838 0.043l-1.595 6.281-1.54-4.48c-0.123-0.358-0.613-0.403-0.799-0.072l-1.281 2.284h-1.333c-0.243 0-0.439 0.197-0.439 0.439s0.196 0.439 0.439 0.439h1.591c0.159 0 0.306-0.086 0.383-0.225l0.927-1.653 1.7 4.945c0.142 0.412 0.735 0.388 0.842-0.035l1.608-6.331 1.102 3.009c0.063 0.173 0.228 0.288 0.413 0.288h2.631c0.243 0 0.439-0.197 0.439-0.439s-0.197-0.439-0.439-0.439z"></path>
<path d="M21.328 20.202h-11.195c-0.243 0-0.439 0.197-0.439 0.439s0.197 0.439 0.439 0.439h11.195c0.243 0 0.439-0.197 0.439-0.439s-0.197-0.439-0.439-0.439z"></path>
<path d="M21.328 24.074h-11.195c-0.243 0-0.439 0.197-0.439 0.439s0.197 0.439 0.439 0.439h11.195c0.243 0 0.439-0.197 0.439-0.439s-0.197-0.439-0.439-0.439z"></path>
</svg>
