<!-- Generated by IcoMoon.io -->
<svg version="1.1" xmlns="http://www.w3.org/2000/svg" width="32" height="32" viewBox="0 0 32 32">
<path d="M19.5 29.881l-15.269-15.369c-3.044-3.063-3.044-8.075 0-11.137 3.65-3.675 8.631-2.388 11 0l13.456 13.544-0.906 0.913-13.394-13.544c-1.85-1.962-6.113-3.094-9.319 0-2.525 2.537-2.525 6.775 0 9.313l15.269 15.369c1.944 1.956 5.050 1.956 6.925 0 1.944-1.956 1.944-5.081 0-6.969l-13-13.156c-1.231-1.237-3.3-1.237-4.531 0s-1.231 3.319 0 4.556l11.325 11.4-0.906 0.913-11.325-11.394c-1.75-1.756-1.75-4.625 0-6.381s4.594-1.756 6.344 0l13.069 13.15c3.238 3.256 1.519 7.344 0 8.856-2.044 2.15-6.25 2.55-8.738-0.063z"></path>
</svg>
