<!-- Generated by IcoMoon.io -->
<svg version="1.1" xmlns="http://www.w3.org/2000/svg" width="32" height="32" viewBox="0 0 32 32">
<path d="M26.078 0.4h-20.156c-0.977 0-1.772 0.795-1.772 1.772v28.455c0 0.977 0.795 1.773 1.772 1.773h20.156c0.977 0 1.773-0.795 1.773-1.772v-28.455c0-0.977-0.795-1.772-1.773-1.772zM11.343 1.597h9.313v2.364c0 0.407-0.331 0.738-0.738 0.738h-7.838c-0.407 0-0.738-0.331-0.738-0.738v-2.364zM12.081 5.896h7.838c1.067 0 1.935-0.868 1.935-1.935v-0.21h2.645v19.88h-4.818c-0.331 0-0.599 0.268-0.599 0.599v4.818h-11.581v-25.297h2.645v0.21c0 1.067 0.868 1.935 1.935 1.935zM23.653 24.829l-3.373 3.373v-3.373h3.373zM26.653 30.628v0c-0 0.317-0.258 0.575-0.576 0.575h-20.156c-0.317 0-0.575-0.258-0.575-0.575v-28.455c0-0.317 0.258-0.575 0.575-0.575h4.224v0.958h-3.243c-0.331 0-0.599 0.268-0.599 0.599v26.494c0 0.331 0.268 0.599 0.598 0.599h12.778c0.159 0 0.311-0.063 0.423-0.175l5.417-5.417c0.112-0.112 0.175-0.264 0.175-0.423v-21.077c0-0.331-0.268-0.599-0.599-0.599h-3.244v-0.958h4.224c0.317 0 0.576 0.258 0.576 0.575v28.455zM18.799 3.382c0.006 0.014 0.005 0.011 0.002 0.005 0.030 0.070 0.073 0.136 0.128 0.189 0.225 0.231 0.621 0.231 0.846 0 0.341-0.331 0.145-0.924-0.312-1.011-0.46-0.088-0.834 0.382-0.665 0.813-0.003-0.007-0.005-0.011 0.001 0.004zM12.648 3.752h4.908c0.331 0 0.599-0.268 0.599-0.599s-0.268-0.599-0.599-0.599h-4.908c-0.331 0-0.598 0.268-0.598 0.599s0.268 0.599 0.598 0.599z"></path>
</svg>
