<!-- Generated by IcoMoon.io -->
<svg version="1.1" xmlns="http://www.w3.org/2000/svg" width="32" height="32" viewBox="0 0 32 32">
<path d="M26.112 27.38c2.767-2.851 4.288-6.599 4.288-10.58 0-3.792-1.38-7.372-3.901-10.168l1.101-1.101 1.034 1.034c0.156 0.156 0.361 0.234 0.566 0.234s0.409-0.078 0.566-0.234c0.313-0.312 0.313-0.819 0-1.131l-3.2-3.2c-0.312-0.312-0.819-0.312-1.131 0s-0.312 0.819 0 1.131l1.034 1.034-1.101 1.101c-2.795-2.521-6.375-3.901-10.168-3.901s-7.372 1.38-10.168 3.901l-1.101-1.101 1.034-1.034c0.312-0.312 0.312-0.819 0-1.131s-0.819-0.312-1.131 0l-3.2 3.2c-0.312 0.312-0.312 0.819 0 1.131 0.156 0.156 0.361 0.234 0.566 0.234s0.409-0.078 0.566-0.234l1.034-1.034 1.101 1.101c-2.521 2.795-3.901 6.375-3.901 10.168 0 3.982 1.522 7.729 4.288 10.58l-3.254 3.254c-0.312 0.312-0.312 0.819 0 1.131 0.156 0.156 0.361 0.234 0.566 0.234s0.409-0.078 0.566-0.234l3.295-3.295c2.728 2.285 6.138 3.53 9.739 3.53s7.011-1.245 9.739-3.53l3.295 3.295c0.156 0.156 0.361 0.234 0.566 0.234s0.409-0.078 0.566-0.234c0.313-0.312 0.313-0.819 0-1.131l-3.254-3.254zM1.6 16.8c0-7.499 6.101-13.6 13.6-13.6s13.6 6.101 13.6 13.6c0 7.499-6.101 13.6-13.6 13.6s-13.6-6.101-13.6-13.6zM24.207 11.6c-0.221-0.383-0.71-0.514-1.093-0.293l-7.872 4.545-6.136-4.296c-0.362-0.253-0.861-0.165-1.114 0.196s-0.165 0.861 0.196 1.114l6.553 4.589c0.001 0.001 0.003 0.002 0.004 0.003 0.014 0.010 0.028 0.019 0.043 0.028 0.003 0.002 0.007 0.004 0.010 0.006 0.014 0.008 0.029 0.016 0.044 0.023 0.003 0.002 0.006 0.003 0.010 0.005 0.016 0.008 0.033 0.015 0.049 0.022 0.010 0.004 0.021 0.008 0.031 0.011 0.007 0.002 0.014 0.005 0.021 0.007 0.011 0.004 0.023 0.007 0.034 0.010 0.006 0.002 0.012 0.003 0.019 0.005 0.011 0.003 0.023 0.005 0.034 0.008 0.007 0.001 0.013 0.003 0.020 0.004 0.011 0.002 0.022 0.004 0.033 0.005 0.008 0.001 0.016 0.002 0.024 0.003 0.010 0.001 0.020 0.002 0.030 0.003 0.015 0.001 0.029 0.001 0.044 0.002 0.003 0 0.007 0 0.010 0 0 0 0-0 0.001-0s0.001 0 0.001 0c0.030 0 0.060-0.002 0.090-0.005 0.001-0 0.003-0 0.004-0 0.029-0.003 0.058-0.009 0.087-0.015 0.003-0.001 0.005-0.001 0.008-0.002 0.027-0.007 0.054-0.015 0.081-0.024 0.005-0.002 0.009-0.003 0.014-0.005 0.025-0.009 0.049-0.020 0.074-0.032 0.006-0.003 0.011-0.006 0.017-0.009 0.008-0.005 0.017-0.009 0.025-0.014l8.314-4.8c0.383-0.221 0.514-0.71 0.293-1.093z"></path>
</svg>
