<!-- Generated by IcoMoon.io -->
<svg version="1.1" xmlns="http://www.w3.org/2000/svg" width="32" height="32" viewBox="0 0 32 32">
<path d="M23.244 9.394l6.444 1.694 1.625-6.444-1.238-0.325-1.063 4.056c-2.694-4.369-7.519-7.275-13.025-7.275-8.45 0-15.3 6.856-15.3 15.313s6.85 15.313 15.3 15.313c5.638 0 10.562-3.050 13.219-7.594l-1.206-0.581c-2.438 4.094-6.9 6.838-12.006 6.838-7.713 0-13.969-6.256-13.969-13.975s6.25-13.981 13.963-13.981c5.137 0 9.631 2.775 12.056 6.912l-4.475-1.188-0.325 1.238zM13.938 6.006v11.594l7.488 3.644 0.581-1.169-6.762-3.256v-10.813z"></path>
</svg>
