<!-- Generated by IcoMoon.io -->
<svg version="1.1" xmlns="http://www.w3.org/2000/svg" width="32" height="32" viewBox="0 0 32 32">
<path d="M31.853 16.249l-0.537-0.639c-0.107-0.127-0.26-0.207-0.425-0.221-0.164-0.014-0.329 0.038-0.457 0.144l-1.727 1.451c0.193-2.77-0.421-5.548-1.796-8.005-2.537-4.534-7.351-7.351-12.563-7.351-2.439 0-4.857 0.632-6.994 1.827-3.344 1.871-5.762 4.939-6.806 8.636s-0.589 7.576 1.282 10.921c2.539 4.538 7.341 7.357 12.532 7.357 0.529 0 1.064-0.030 1.591-0.088 0.343-0.038 0.591-0.347 0.553-0.691l-0.092-0.829c-0.038-0.343-0.346-0.591-0.691-0.553-0.451 0.050-0.909 0.075-1.361 0.075-4.438 0-8.543-2.41-10.713-6.289-3.307-5.911-1.189-13.411 4.722-16.718 1.826-1.022 3.893-1.562 5.977-1.562 4.457 0 8.573 2.408 10.742 6.284 1.183 2.115 1.707 4.508 1.532 6.892l-1.529-1.82c-0.222-0.265-0.617-0.299-0.881-0.076l-0.639 0.537c-0.127 0.107-0.206 0.26-0.221 0.425s0.037 0.33 0.144 0.457l3.378 4.019c0.124 0.147 0.301 0.223 0.479 0.223 0.142 0 0.285-0.048 0.402-0.147l4.020-3.378c0.127-0.107 0.206-0.26 0.221-0.425s-0.038-0.33-0.144-0.457z"></path>
<path d="M21.873 27.848h-1.975l1.175-1.463c1.521-1.792 1.457-3.017 1.136-3.728-0.338-0.747-1.122-1.221-2.047-1.236-1.064-0.017-2.048 0.568-2.499 1.483-0.044 0.089-0.051 0.192-0.019 0.286s0.1 0.171 0.189 0.215l0.671 0.331c0.185 0.091 0.41 0.015 0.501-0.17 0.236-0.479 0.744-0.648 1.108-0.648l0.023 0c0.345 0.006 0.61 0.139 0.708 0.356 0.153 0.338-0.009 1.080-0.919 2.15-0.002 0.003-0.005 0.005-0.007 0.008l-2.654 3.305c-0.090 0.112-0.108 0.266-0.046 0.396s0.194 0.212 0.338 0.212h4.316c0.207 0 0.374-0.168 0.374-0.374v-0.748c0-0.206-0.167-0.374-0.374-0.374z"></path>
<path d="M28.196 26.296h-0.351v-4.282c0-0.207-0.167-0.374-0.374-0.374h-0.753c-0.122 0-0.236 0.059-0.306 0.158l-3.814 5.404c-0.081 0.114-0.091 0.264-0.026 0.388s0.192 0.202 0.332 0.202h3.445v1.111c0 0.207 0.168 0.374 0.374 0.374h0.749c0.207 0 0.374-0.168 0.374-0.374v-1.111h0.351c0.207 0 0.374-0.168 0.374-0.374v-0.748c0-0.207-0.167-0.374-0.374-0.374zM26.349 26.296h-1.278l1.278-1.811v1.811z"></path>
<path d="M21.849 9.109l-0.59-0.59c-0.078-0.078-0.184-0.122-0.295-0.122s-0.217 0.044-0.295 0.122l-6.298 6.298-3.915-3.915c-0.078-0.078-0.184-0.122-0.295-0.122s-0.217 0.044-0.295 0.122l-0.59 0.59c-0.163 0.163-0.163 0.427 0 0.59l4.8 4.8c0.078 0.078 0.184 0.122 0.295 0.122s0.217-0.044 0.295-0.122l7.183-7.183c0.163-0.163 0.163-0.427 0-0.59z"></path>
</svg>
