<!-- Generated by IcoMoon.io -->
<svg version="1.1" xmlns="http://www.w3.org/2000/svg" width="32" height="32" viewBox="0 0 32 32">
<path d="M27.313 5.088c-3.025-3.025-7.038-4.688-11.313-4.688s-8.294 1.663-11.313 4.688c-3.025 3.025-4.688 7.037-4.688 11.312s1.663 8.294 4.688 11.313c3.025 3.025 7.037 4.688 11.313 4.688s8.294-1.663 11.313-4.688c3.025-3.025 4.688-7.038 4.688-11.313s-1.663-8.294-4.688-11.313zM16 31.125c-8.119 0-14.725-6.606-14.725-14.725s6.606-14.725 14.725-14.725 14.725 6.606 14.725 14.725-6.606 14.725-14.725 14.725zM16 2.913c-7.438 0-13.488 6.050-13.488 13.488s6.050 13.488 13.488 13.488 13.488-6.050 13.488-13.488-6.050-13.488-13.488-13.488zM26.881 21.944l-1.837-1.063c-0.306-0.175-0.694-0.069-0.869 0.231-0.175 0.306-0.069 0.694 0.231 0.869l1.837 1.063c-0.931 1.431-2.156 2.656-3.594 3.594l-1.063-1.837c-0.175-0.306-0.569-0.413-0.869-0.231-0.306 0.175-0.406 0.569-0.231 0.869l1.063 1.837c-1.488 0.762-3.15 1.225-4.906 1.319v-2.125c0-0.35-0.288-0.637-0.637-0.637s-0.637 0.288-0.637 0.637v2.125c-1.756-0.094-3.419-0.556-4.906-1.319l1.063-1.837c0.175-0.306 0.069-0.694-0.231-0.869-0.306-0.175-0.694-0.069-0.869 0.231l-1.063 1.837c-1.431-0.931-2.656-2.156-3.594-3.594l1.838-1.063c0.306-0.175 0.406-0.569 0.231-0.869-0.175-0.306-0.569-0.406-0.869-0.231l-1.837 1.063c-0.763-1.488-1.225-3.15-1.319-4.906h2.125c0.35 0 0.638-0.288 0.638-0.637s-0.287-0.637-0.638-0.637h-2.125c0.094-1.756 0.556-3.419 1.319-4.906l1.838 1.063c0.1 0.056 0.213 0.088 0.319 0.088 0.219 0 0.438-0.113 0.55-0.319 0.175-0.306 0.069-0.694-0.231-0.869l-1.838-1.063c0.931-1.431 2.156-2.656 3.594-3.594l1.063 1.838c0.119 0.206 0.331 0.319 0.55 0.319 0.106 0 0.219-0.025 0.319-0.088 0.306-0.175 0.412-0.569 0.231-0.869l-1.063-1.838c1.488-0.763 3.15-1.225 4.906-1.319v2.125c0 0.35 0.287 0.638 0.637 0.638s0.637-0.287 0.637-0.638v-2.125c1.756 0.094 3.419 0.556 4.906 1.319l-1.063 1.838c-0.175 0.306-0.069 0.694 0.231 0.869 0.1 0.056 0.212 0.088 0.319 0.088 0.219 0 0.438-0.113 0.55-0.319l1.063-1.838c1.431 0.931 2.656 2.156 3.594 3.594l-1.837 1.063c-0.306 0.175-0.406 0.569-0.231 0.869 0.119 0.206 0.331 0.319 0.55 0.319 0.106 0 0.219-0.025 0.319-0.088l1.837-1.063c0.762 1.488 1.225 3.15 1.319 4.906h-2.125c-0.35 0-0.637 0.288-0.637 0.637s0.288 0.637 0.637 0.637h2.125c-0.094 1.756-0.563 3.419-1.319 4.906zM16.637 14.625v-4.088c0-0.35-0.288-0.637-0.637-0.637s-0.637 0.287-0.637 0.637v4.088c-0.725 0.262-1.25 0.956-1.25 1.775 0 0.462 0.169 0.887 0.45 1.219l-1.012 1.75c-0.175 0.306-0.069 0.694 0.231 0.869 0.1 0.056 0.213 0.087 0.319 0.087 0.219 0 0.438-0.113 0.55-0.319l1.012-1.75c0.106 0.019 0.219 0.031 0.338 0.031 1.038 0 1.887-0.844 1.887-1.887 0-0.819-0.525-1.512-1.25-1.775zM16 17.012c-0.338 0-0.613-0.275-0.613-0.613s0.275-0.613 0.613-0.613c0.337 0 0.613 0.275 0.613 0.613s-0.275 0.613-0.613 0.613zM16 7.794c-0.35 0-0.637 0.288-0.637 0.638v0.256c0 0.35 0.287 0.637 0.637 0.637s0.637-0.287 0.637-0.637v-0.256c0-0.35-0.288-0.638-0.637-0.638z"></path>
</svg>
