<!-- Generated by IcoMoon.io -->
<svg version="1.1" xmlns="http://www.w3.org/2000/svg" width="32" height="32" viewBox="0 0 32 32">
<path d="M25.61 25.6h-16.010c-5.293 0-9.6-4.307-9.6-9.6s4.307-9.6 9.6-9.6c2.564 0 5.018 1.029 6.816 2.84 0.14-0.311 0.314-0.608 0.52-0.888 0.902-1.222 2.347-1.952 3.864-1.952 2.647 0 4.8 2.153 4.8 4.8 0 0.561-0.097 1.11-0.284 1.627 0.098-0.004 0.196-0.007 0.294-0.007 3.523 0 6.39 2.867 6.39 6.39s-2.867 6.39-6.39 6.39zM9.6 8c-4.411 0-8 3.589-8 8s3.589 8 8 8h16.010c2.641 0 4.79-2.149 4.79-4.79s-2.149-4.79-4.79-4.79c-0.567 0-1.119 0.097-1.641 0.288-0.349 0.128-0.74-0.002-0.944-0.312s-0.167-0.721 0.089-0.99c0.571-0.601 0.886-1.385 0.886-2.206 0-1.764-1.436-3.2-3.2-3.2-1.027 0-1.966 0.475-2.577 1.302-0.369 0.5-0.583 1.085-0.621 1.692-0.021 0.339-0.254 0.628-0.58 0.72s-0.677-0.031-0.872-0.309c-0.176-0.25-0.367-0.491-0.566-0.716-1.518-1.709-3.699-2.69-5.983-2.69z"></path>
</svg>
