<!-- Generated by IcoMoon.io -->
<svg version="1.1" xmlns="http://www.w3.org/2000/svg" width="32" height="32" viewBox="0 0 32 32">
<path d="M27.357 6.71h-2.602c-0.265-2.892-2.697-5.16-5.658-5.16-0.901 0-1.783 0.214-2.583 0.624-1.361-1.386-3.213-2.174-5.16-2.174-3.818-0.006-6.956 2.974-7.208 6.729-2.325 0.252-4.146 2.23-4.146 4.625 0 2.558 2.085 4.643 4.643 4.643h22.713c2.564 0 4.643-2.085 4.643-4.643s-2.085-4.643-4.643-4.643zM27.357 14.964h-22.713c-1.991 0-3.616-1.619-3.616-3.616s1.626-3.61 3.616-3.61h0.517v-0.517c0-3.415 2.779-6.193 6.193-6.193 1.789 0 3.49 0.775 4.669 2.13l0.284 0.328 0.372-0.227c0.731-0.447 1.569-0.687 2.419-0.687 2.564 0 4.643 2.085 4.643 4.643v0.517h3.616c1.991 0 3.616 1.619 3.616 3.616s-1.619 3.616-3.616 3.616z"></path>
<path d="M23.74 29.933v-9.293h-13.42v9.293h4.65v1.033h-1.55v1.033h7.227v-1.033h-1.55v-1.033h4.643zM18.070 30.967h-2.067v-1.033h2.067v1.033zM14.976 28.9h-3.616v-7.227h11.36v7.227h-7.743z"></path>
<path d="M0.517 21.674v10.326h7.227v-10.326h-7.227zM6.71 30.967h-5.16v-8.26h5.16v8.26z"></path>
<path d="M26.33 23.74v8.26h5.16v-8.26h-5.16zM27.357 24.773h3.1v4.127h-3.1v-4.127zM30.463 30.967h-3.1v-1.033h3.1v1.033z"></path>
<path d="M3.616 29.417h1.033v1.033h-1.033v-1.033z"></path>
<path d="M9.81 17.030v1.033h-6.193v2.577h1.027v-1.544h6.2v-2.067z"></path>
<path d="M23.23 18.063v-1.033h-1.033v2.067h6.193v1.544h1.033v-2.577z"></path>
<path d="M16.52 17.030h1.033v3.1h-1.033v-3.1z"></path>
</svg>
