<!-- Generated by IcoMoon.io -->
<svg version="1.1" xmlns="http://www.w3.org/2000/svg" width="32" height="32" viewBox="0 0 32 32">
<path d="M28.209 8.006c-0.389-0-0.776 0.059-1.147 0.177 0.035-0.28 0.053-0.561 0.053-0.843-0.069-4.122-3.467-7.408-7.589-7.338-3.008 0.051-5.692 1.902-6.807 4.696-2.157-1.338-4.991-0.673-6.328 1.484-0.436 0.702-0.674 1.509-0.689 2.335-0.581-0.335-1.24-0.511-1.91-0.51-2.061 0-3.732 1.671-3.732 3.732s1.671 3.732 3.732 3.732c0.294 0 0.533-0.239 0.533-0.533s-0.239-0.533-0.533-0.533c-1.472-0.024-2.646-1.237-2.622-2.709s1.237-2.646 2.709-2.622c0.896 0.015 1.725 0.478 2.206 1.235 0.161 0.246 0.492 0.315 0.738 0.154 0.213-0.139 0.298-0.41 0.202-0.646-0.168-0.405-0.256-0.839-0.258-1.277 0.021-1.932 1.603-3.483 3.535-3.466 0.861 0.003 1.692 0.319 2.338 0.887 0.222 0.194 0.559 0.17 0.752-0.051 0.052-0.060 0.091-0.131 0.112-0.208 0.976-3.395 4.519-5.356 7.913-4.38 2.695 0.775 4.572 3.215 4.628 6.019-0.002 0.559-0.080 1.115-0.232 1.653-0.079 0.284 0.087 0.578 0.371 0.656 0.154 0.043 0.318 0.014 0.449-0.077 0.461-0.325 1.012-0.5 1.576-0.5 1.472 0 2.666 1.194 2.666 2.666s-1.194 2.666-2.666 2.666c-0.294 0-0.533 0.239-0.533 0.533s0.239 0.533 0.533 0.533c2.061 0 3.732-1.671 3.732-3.732s-1.671-3.732-3.732-3.732z"></path>
<path d="M25.063 20.27h-18.129c-0.883 0-1.6 0.716-1.6 1.6v2.133c0 0.883 0.716 1.6 1.6 1.6h18.129c0.883 0 1.6-0.716 1.6-1.6v-2.133c0-0.883-0.716-1.6-1.6-1.6zM25.596 24.002c0 0.294-0.239 0.533-0.533 0.533h-18.129c-0.294 0-0.533-0.239-0.533-0.533v-2.133c0-0.294 0.239-0.533 0.533-0.533h18.129c0.294 0 0.533 0.239 0.533 0.533v2.133z"></path>
<path d="M23.584 21.902c-0.568 0.004-1.027 0.465-1.027 1.033 0.003 0.572 0.468 1.034 1.040 1.033 0.571-0.004 1.030-0.469 1.027-1.040s-0.469-1.030-1.040-1.027zM23.597 22.969c-0.016 0-0.027-0.018-0.027-0.034l0.027-0.033v0.067z"></path>
<path d="M18.025 22.402h-10.131c-0.294 0-0.533 0.239-0.533 0.533s0.239 0.533 0.533 0.533h10.131c0.294 0 0.533-0.239 0.533-0.533s-0.239-0.533-0.533-0.533z"></path>
<path d="M21.317 22.402h-1.418c-0.294 0-0.533 0.239-0.533 0.533s0.239 0.533 0.533 0.533h1.418c0.294 0 0.533-0.239 0.533-0.533s-0.239-0.533-0.533-0.533z"></path>
<path d="M25.063 26.668h-18.129c-0.883 0-1.6 0.716-1.6 1.6v2.133c0 0.883 0.716 1.6 1.6 1.6h18.129c0.883 0 1.6-0.716 1.6-1.6v-2.133c0-0.883-0.716-1.6-1.6-1.6zM25.596 30.4c0 0.294-0.239 0.533-0.533 0.533h-18.129c-0.294 0-0.533-0.239-0.533-0.533v-2.133c0-0.294 0.239-0.533 0.533-0.533h18.129c0.294 0 0.533 0.239 0.533 0.533v2.133z"></path>
<path d="M23.584 28.301c-0.568 0.004-1.027 0.465-1.027 1.033 0.003 0.572 0.468 1.034 1.040 1.033 0.571-0.004 1.030-0.469 1.027-1.040s-0.469-1.030-1.040-1.027zM23.597 29.368c-0.016 0-0.027-0.018-0.027-0.034l0.027-0.033v0.067z"></path>
<path d="M18.025 28.801h-10.131c-0.294 0-0.533 0.239-0.533 0.533s0.239 0.533 0.533 0.533h10.131c0.294 0 0.533-0.239 0.533-0.533s-0.239-0.533-0.533-0.533z"></path>
<path d="M21.317 28.801h-1.418c-0.294 0-0.533 0.239-0.533 0.533s0.239 0.533 0.533 0.533h1.418c0.294 0 0.533-0.239 0.533-0.533s-0.239-0.533-0.533-0.533z"></path>
<path d="M25.063 13.871h-18.129c-0.883 0-1.6 0.716-1.6 1.6v2.133c0 0.883 0.716 1.6 1.6 1.6h18.129c0.883 0 1.6-0.716 1.6-1.6v-2.133c0-0.883-0.716-1.6-1.6-1.6zM25.596 17.604c0 0.294-0.239 0.533-0.533 0.533h-18.129c-0.294 0-0.533-0.239-0.533-0.533v-2.133c0-0.294 0.239-0.533 0.533-0.533h18.129c0.294 0 0.533 0.239 0.533 0.533v2.133z"></path>
<path d="M24.456 16.392c-0.103-0.566-0.645-0.942-1.212-0.84-0.268 0.049-0.507 0.201-0.665 0.423s-0.22 0.501-0.172 0.77c0.090 0.496 0.522 0.857 1.026 0.858 0.058-0 0.116-0.005 0.174-0.014 0.274-0.045 0.518-0.199 0.677-0.427 0.159-0.223 0.221-0.501 0.172-0.771zM23.407 16.579l0.024-0.042 0.003 0.067c-0.024 0-0.026-0.013-0.027-0.025z"></path>
<path d="M17.918 16.004h-10.131c-0.294 0-0.533 0.239-0.533 0.533s0.239 0.533 0.533 0.533h10.131c0.294 0 0.533-0.239 0.533-0.533s-0.239-0.533-0.533-0.533z"></path>
<path d="M20.977 16.004h-1.418c-0.294 0-0.533 0.239-0.533 0.533s0.239 0.533 0.533 0.533h1.418c0.294 0 0.533-0.239 0.533-0.533s-0.239-0.533-0.533-0.533z"></path>
<path d="M13.71 8.695l-1.6-1.6c-0.208-0.208-0.546-0.208-0.754 0l-1.6 1.6c-0.205 0.212-0.199 0.549 0.013 0.754 0.207 0.2 0.534 0.2 0.741 0l0.689-0.689v3.512c0 0.294 0.239 0.533 0.533 0.533s0.533-0.239 0.533-0.533v-3.512l0.689 0.689c0.212 0.205 0.549 0.199 0.754-0.013 0.2-0.207 0.2-0.534 0-0.741z"></path>
<path d="M22.228 10.295c-0.207-0.2-0.534-0.2-0.741 0l-0.689 0.689v-3.512c0-0.294-0.239-0.533-0.533-0.533s-0.533 0.239-0.533 0.533v3.512l-0.689-0.689c-0.212-0.205-0.549-0.199-0.754 0.013-0.2 0.207-0.2 0.534 0 0.741l1.6 1.6c0.208 0.208 0.546 0.208 0.754 0l1.6-1.6c0.205-0.212 0.199-0.549-0.013-0.754z"></path>
</svg>
