<!-- Generated by IcoMoon.io -->
<svg version="1.1" xmlns="http://www.w3.org/2000/svg" width="32" height="32" viewBox="0 0 32 32">
<path d="M13.787 27.635v-8.184c0-0.282-0.229-0.511-0.511-0.511h-3.404c-0.282 0-0.511 0.229-0.511 0.511s0.229 0.511 0.511 0.511h2.894v7.674c-0.975 0.231-1.702 1.108-1.702 2.153 0 1.22 0.993 2.213 2.213 2.213s2.213-0.993 2.213-2.213c0-1.044-0.727-1.921-1.702-2.153zM13.277 30.979c-0.657 0-1.191-0.535-1.191-1.192s0.535-1.192 1.191-1.192 1.191 0.535 1.191 1.192-0.535 1.192-1.191 1.192z"></path>
<path d="M19.234 27.635v-8.184c0-0.282-0.229-0.511-0.511-0.511h-3.404c-0.282 0-0.511 0.229-0.511 0.511s0.229 0.511 0.511 0.511h2.894v7.674c-0.975 0.231-1.702 1.108-1.702 2.153 0 1.22 0.993 2.213 2.213 2.213s2.213-0.993 2.213-2.213c0-1.044-0.727-1.921-1.702-2.153zM18.723 30.979c-0.657 0-1.192-0.535-1.192-1.192s0.535-1.192 1.192-1.192 1.192 0.535 1.192 1.192-0.535 1.192-1.192 1.192z"></path>
<path d="M27.915 24.17c-1.044 0-1.921 0.727-2.153 1.702h-1.081v-6.422c0-0.282-0.229-0.511-0.511-0.511h-3.404c-0.282 0-0.511 0.229-0.511 0.511s0.229 0.511 0.511 0.511h2.894v6.422c0 0.282 0.229 0.511 0.511 0.511h1.592c0.231 0.975 1.108 1.702 2.153 1.702 1.22 0 2.213-0.993 2.213-2.213s-0.993-2.213-2.213-2.213zM27.915 27.574c-0.657 0-1.192-0.535-1.192-1.192s0.535-1.192 1.192-1.192 1.192 0.535 1.192 1.192-0.535 1.192-1.192 1.192z"></path>
<path d="M30.784 11c-0.688-0.854-1.623-1.488-2.663-1.811-0.117-2.417-1.12-4.673-2.849-6.387-1.822-1.807-4.239-2.802-6.806-2.802-3.37 0-6.489 1.757-8.243 4.615-0.427-0.134-0.87-0.202-1.323-0.202-2.086 0-3.88 1.472-4.312 3.479-2.679 0.695-4.588 3.137-4.588 5.936 0 3.382 2.751 6.133 6.133 6.133h1.187v5.912h-1.081c-0.231-0.975-1.108-1.702-2.153-1.702-1.22 0-2.213 0.993-2.213 2.213s0.993 2.213 2.213 2.213c1.044 0 1.921-0.727 2.153-1.702h1.592c0.282 0 0.511-0.229 0.511-0.511v-6.933c0-0.282-0.229-0.511-0.511-0.511h-1.697c-2.818 0-5.111-2.293-5.111-5.111 0-2.432 1.729-4.54 4.111-5.013 0.215-0.043 0.379-0.217 0.407-0.435 0.22-1.68 1.665-2.946 3.361-2.946 0.467 0 0.919 0.093 1.345 0.278 0.241 0.104 0.523 0.008 0.65-0.222 1.524-2.757 4.425-4.469 7.571-4.469 4.724 0 8.602 3.843 8.645 8.566 0.002 0.236 0.166 0.44 0.395 0.493 2.044 0.473 3.472 2.271 3.472 4.371 0 2.475-2.013 4.488-4.488 4.488h-0.278c-0.282 0-0.511 0.229-0.511 0.511s0.229 0.511 0.511 0.511h0.278c3.038 0 5.509-2.472 5.509-5.509 0-1.252-0.432-2.478-1.216-3.452zM4.085 27.574c-0.657 0-1.192-0.535-1.192-1.192s0.535-1.192 1.192-1.192 1.191 0.535 1.191 1.192-0.535 1.192-1.191 1.192z"></path>
<path d="M24.898 10.118h0.005c0.282-0.003 0.509-0.233 0.506-0.515-0.008-0.841-0.166-1.664-0.472-2.446-0.103-0.263-0.399-0.393-0.661-0.29s-0.392 0.399-0.29 0.661c0.26 0.666 0.395 1.367 0.402 2.084 0.003 0.28 0.231 0.506 0.511 0.506z"></path>
<path d="M23.032 5.907c0.101 0.122 0.247 0.185 0.394 0.185 0.115 0 0.23-0.038 0.325-0.117 0.217-0.18 0.248-0.501 0.069-0.719-1.33-1.61-3.281-2.533-5.352-2.533-0.282 0-0.511 0.229-0.511 0.511s0.229 0.511 0.511 0.511c1.766 0 3.43 0.788 4.565 2.162z"></path>
</svg>
