<!-- Generated by IcoMoon.io -->
<svg version="1.1" xmlns="http://www.w3.org/2000/svg" width="32" height="32" viewBox="0 0 32 32">
<path d="M25.373 12.117c-0.067-4.879-4.056-8.827-8.951-8.827-2.177 0-4.275 0.792-5.906 2.23-1.456 1.283-2.452 2.999-2.846 4.882-0.029-0-0.057-0.001-0.086-0.001-4.182 0-7.584 3.402-7.584 7.584s3.402 7.584 7.584 7.584h2.783c0.377 0 0.682-0.305 0.682-0.682s-0.306-0.682-0.682-0.682h-2.783c-3.429 0-6.219-2.79-6.219-6.219s2.79-6.219 6.219-6.219c0.183 0 0.376 0.010 0.591 0.030 0.364 0.034 0.691-0.225 0.74-0.587 0.246-1.801 1.135-3.458 2.504-4.665 1.382-1.218 3.159-1.889 5.003-1.889 4.183 0 7.587 3.403 7.587 7.587 0 0.151-0.028 0.54-0.028 0.54-0.014 0.201 0.061 0.398 0.205 0.538s0.343 0.209 0.544 0.189c0.181-0.018 0.365-0.027 0.544-0.027 2.956 0 5.361 2.405 5.361 5.361s-2.405 5.361-5.361 5.361h-3.056c-0.377 0-0.682 0.305-0.682 0.682s0.306 0.682 0.682 0.682h3.056c3.709 0 6.726-3.017 6.726-6.726-0-3.675-2.964-6.672-6.627-6.725zM16.422 6.497c-2.854 0-5.296 2.133-5.682 4.96-0.051 0.373 0.211 0.716 0.584 0.768 0.398 0.056 0.722-0.242 0.768-0.584 0.294-2.155 2.155-3.78 4.33-3.78 0.377 0 0.682-0.306 0.682-0.682s-0.306-0.683-0.682-0.683zM19.58 26.043c-0.251-0.281-0.683-0.305-0.964-0.054l-1.642 1.466v-8.396c0-0.377-0.306-0.682-0.682-0.682s-0.682 0.305-0.682 0.682v8.396l-1.642-1.466c-0.281-0.251-0.713-0.227-0.964 0.054s-0.227 0.712 0.054 0.964l2.482 2.218c0.214 0.191 0.482 0.287 0.751 0.287s0.537-0.096 0.751-0.287l2.482-2.218c0.281-0.251 0.305-0.683 0.054-0.964z"></path>
</svg>
