<!-- Generated by IcoMoon.io -->
<svg version="1.1" xmlns="http://www.w3.org/2000/svg" width="32" height="32" viewBox="0 0 32 32">
<path d="M25.61 12.82c-0.098 0-0.195 0.002-0.292 0.007 0.186-0.516 0.282-1.065 0.282-1.627 0-2.647-2.153-4.8-4.8-4.8-1.518 0-2.962 0.73-3.864 1.952-0.206 0.279-0.379 0.577-0.519 0.889-1.798-1.812-4.253-2.841-6.817-2.841-5.293 0-9.6 4.307-9.6 9.6s4.307 9.6 9.6 9.6h16.010c3.523 0 6.39-2.867 6.39-6.39s-2.867-6.39-6.39-6.39zM25.61 24h-16.010c-4.411 0-8-3.589-8-8s3.589-8 8-8c2.284 0 4.465 0.98 5.983 2.69 0.2 0.225 0.389 0.464 0.561 0.708l0.007 0.011c0.195 0.279 0.545 0.404 0.872 0.312s0.561-0.381 0.582-0.721c0.038-0.615 0.251-1.201 0.617-1.697 0.611-0.828 1.55-1.302 2.577-1.302 1.764 0 3.2 1.435 3.2 3.2 0 0.824-0.312 1.607-0.88 2.204-0.256 0.269-0.293 0.679-0.089 0.989s0.594 0.44 0.943 0.314c0.523-0.19 1.074-0.287 1.637-0.287 2.641 0 4.79 2.149 4.79 4.79s-2.149 4.79-4.79 4.79zM10.246 19.135c-0.211 0.043-0.428 0.065-0.646 0.065-1.764 0-3.2-1.436-3.2-3.2v-0.469l0.234 0.234c0.156 0.156 0.361 0.234 0.566 0.234s0.409-0.078 0.566-0.234c0.312-0.312 0.312-0.819 0-1.131l-1.6-1.6c-0.312-0.312-0.819-0.312-1.131 0l-1.6 1.6c-0.312 0.312-0.312 0.819 0 1.131s0.819 0.312 1.131 0l0.234-0.234v0.469c0 2.647 2.153 4.8 4.8 4.8 0.325 0 0.65-0.033 0.966-0.097 0.433-0.089 0.712-0.511 0.623-0.944s-0.511-0.712-0.944-0.623zM14.634 16.234l-0.234 0.234v-0.469c0-2.647-2.153-4.8-4.8-4.8-0.325 0-0.65 0.033-0.966 0.098-0.433 0.089-0.712 0.511-0.623 0.944s0.511 0.712 0.944 0.623c0.211-0.043 0.428-0.065 0.646-0.065 1.764 0 3.2 1.435 3.2 3.2v0.469l-0.234-0.234c-0.312-0.312-0.819-0.312-1.131 0s-0.312 0.819 0 1.131l1.6 1.6c0.156 0.156 0.361 0.234 0.566 0.234s0.409-0.078 0.566-0.234l1.6-1.6c0.312-0.312 0.312-0.819 0-1.131s-0.819-0.312-1.131 0z"></path>
</svg>
