<!-- Generated by IcoMoon.io -->
<svg version="1.1" xmlns="http://www.w3.org/2000/svg" width="32" height="32" viewBox="0 0 32 32">
<path d="M25.6 25.6h-15.2c-0.442 0-0.8-0.358-0.8-0.8s0.358-0.8 0.8-0.8h15.2c2.647 0 4.8-2.153 4.8-4.8s-2.153-4.8-4.8-4.8c-0.549 0-1.087 0.092-1.599 0.273-0.347 0.123-0.733-0.007-0.935-0.315s-0.168-0.713 0.082-0.983c0.55-0.593 0.853-1.366 0.853-2.175 0-1.764-1.436-3.2-3.2-3.2-1.687 0-3.090 1.318-3.194 3-0.021 0.339-0.254 0.628-0.581 0.721s-0.677-0.032-0.872-0.31c-1.499-2.135-3.948-3.41-6.553-3.41-4.411 0-8 3.589-8 8 0 0.243 0.011 0.488 0.033 0.728 0.040 0.44-0.285 0.829-0.725 0.869s-0.829-0.285-0.869-0.725c-0.026-0.288-0.039-0.581-0.039-0.872 0-5.293 4.307-9.6 9.6-9.6 2.578 0 5.029 1.040 6.817 2.842 0.753-1.68 2.442-2.842 4.383-2.842 2.647 0 4.8 2.153 4.8 4.8 0 0.553-0.095 1.095-0.276 1.606 0.092-0.004 0.183-0.006 0.276-0.006 3.529 0 6.4 2.871 6.4 6.4s-2.871 6.4-6.4 6.4zM5.6 24.8c-0.205 0-0.409-0.078-0.566-0.234l-3.2-3.2c-0.312-0.312-0.312-0.819 0-1.131s0.819-0.312 1.131 0l2.634 2.634 7.434-7.434c0.312-0.312 0.819-0.312 1.131 0s0.312 0.819 0 1.131l-8 8c-0.156 0.156-0.361 0.234-0.566 0.234z"></path>
</svg>
