<!-- Generated by IcoMoon.io -->
<svg version="1.1" xmlns="http://www.w3.org/2000/svg" width="32" height="32" viewBox="0 0 32 32">
<path d="M25.61 25.6h-4.010c-0.442 0-0.8-0.358-0.8-0.8s0.358-0.8 0.8-0.8h4.010c2.641 0 4.79-2.149 4.79-4.79s-2.149-4.79-4.79-4.79c-0.563 0-1.113 0.096-1.637 0.287-0.349 0.127-0.739-0.003-0.943-0.314s-0.166-0.72 0.089-0.989c0.567-0.597 0.88-1.38 0.88-2.204 0-1.764-1.436-3.2-3.2-3.2-1.027 0-1.966 0.475-2.577 1.302-0.366 0.496-0.579 1.082-0.617 1.697-0.021 0.34-0.254 0.629-0.582 0.721s-0.678-0.033-0.872-0.312l-0.007-0.011c-0.172-0.244-0.361-0.483-0.561-0.708-1.518-1.709-3.699-2.689-5.983-2.689-4.411 0-8 3.589-8 8s3.589 8 8 8h2.4c0.442 0 0.8 0.358 0.8 0.8s-0.358 0.8-0.8 0.8h-2.4c-5.293 0-9.6-4.307-9.6-9.6s4.307-9.6 9.6-9.6c2.564 0 5.019 1.029 6.817 2.841 0.14-0.312 0.313-0.61 0.519-0.889 0.902-1.222 2.347-1.952 3.864-1.952 2.647 0 4.8 2.153 4.8 4.8 0 0.562-0.097 1.111-0.282 1.627 0.097-0.004 0.195-0.007 0.292-0.007 3.523 0 6.39 2.867 6.39 6.39s-2.867 6.39-6.39 6.39zM20.566 21.034c-0.312-0.312-0.819-0.312-1.131 0l-1.834 1.834v-6.069c0-0.442-0.358-0.8-0.8-0.8s-0.8 0.358-0.8 0.8v6.069l-1.834-1.834c-0.312-0.312-0.819-0.312-1.131 0s-0.312 0.819 0 1.131l3.2 3.2c0.156 0.156 0.361 0.234 0.566 0.234s0.409-0.078 0.566-0.234l3.2-3.2c0.312-0.312 0.312-0.819 0-1.131z"></path>
</svg>
