<!-- Generated by IcoMoon.io -->
<svg version="1.1" xmlns="http://www.w3.org/2000/svg" width="32" height="32" viewBox="0 0 32 32">
<path d="M25.373 14.088c-0.067-4.879-4.056-8.827-8.951-8.827-2.177 0-4.275 0.792-5.906 2.23-1.456 1.283-2.452 2.999-2.846 4.882-0.029-0-0.057-0.001-0.086-0.001-4.182 0-7.584 3.402-7.584 7.584s3.402 7.584 7.584 7.584h17.69c3.709 0 6.726-3.017 6.726-6.726 0-3.676-2.964-6.672-6.627-6.725zM25.274 26.174h-17.69c-3.429 0-6.219-2.79-6.219-6.219s2.79-6.219 6.219-6.219c0.183 0 0.376 0.010 0.59 0.030 0.364 0.035 0.691-0.225 0.74-0.587 0.246-1.801 1.135-3.458 2.504-4.665 1.382-1.218 3.159-1.889 5.004-1.889 4.183 0 7.587 3.403 7.587 7.587 0 0.151-0.011 0.306-0.023 0.47l-0.005 0.070c-0.014 0.201 0.061 0.398 0.205 0.538s0.343 0.209 0.544 0.189c0.181-0.018 0.364-0.027 0.544-0.027 2.956 0 5.361 2.405 5.361 5.361s-2.405 5.361-5.361 5.361zM16.422 8.468c-2.854 0-5.296 2.133-5.682 4.96-0.051 0.373 0.211 0.717 0.584 0.768 0.031 0.004 0.062 0.006 0.093 0.006 0.336 0 0.629-0.248 0.675-0.59 0.294-2.155 2.155-3.78 4.33-3.78 0.377 0 0.682-0.306 0.682-0.682s-0.305-0.682-0.682-0.682z"></path>
</svg>
