<!-- Generated by IcoMoon.io -->
<svg version="1.1" xmlns="http://www.w3.org/2000/svg" width="32" height="32" viewBox="0 0 32 32">
<path d="M20.103 4.155l0.73-0.73c-1.811-1.812-4.758-1.812-6.569 0l0.73 0.73c1.409-1.409 3.701-1.409 5.11 0z"></path>
<path d="M26.839 9.29c0-1.139-0.926-2.065-2.065-2.065v1.032c0.569 0 1.032 0.463 1.032 1.032s-0.463 1.032-1.032 1.032v1.032c1.139 0 2.065-0.926 2.065-2.065z"></path>
<path d="M29.419 8.258h-0.652c-0.46-1.778-2.073-3.097-3.993-3.097-0.231 0-0.462 0.020-0.69 0.058-0.685-3.013-3.401-5.22-6.536-5.22-2.17 0-4.172 1.033-5.434 2.784-0.412-0.135-0.839-0.203-1.275-0.203-1.684 0-3.205 1.046-3.828 2.586-1.825 0.094-3.336 1.38-3.778 3.091h-0.651c-1.423 0-2.581 1.158-2.581 2.581v15.484c0 1.423 1.158 2.581 2.581 2.581h6.71v2.065h-2.065v1.032h17.548v-1.032h-2.065v-2.065h6.71c1.423 0 2.581-1.158 2.581-2.581v-15.484c0-1.423-1.158-2.581-2.581-2.581zM2.581 9.29h0.516c0 2.277 1.852 4.129 4.129 4.129h3.097v-1.032h-3.097c-1.708 0-3.097-1.389-3.097-3.097s1.389-3.097 3.097-3.097l0.53 0.023 0.114-0.386c0.386-1.306 1.607-2.218 2.968-2.218 0.436 0 0.86 0.091 1.262 0.271l0.409 0.183 0.239-0.378c1.049-1.663 2.843-2.656 4.8-2.656 2.813 0 5.227 2.101 5.615 4.888l0.085 0.606 0.583-0.185c0.307-0.098 0.623-0.148 0.943-0.148 1.708 0 3.097 1.389 3.097 3.097s-1.389 3.097-3.097 3.097h-3.097v1.032h3.097c2.277 0 4.129-1.852 4.129-4.129h0.516c0.854 0 1.548 0.695 1.548 1.548v13.935h-29.935v-13.935c0-0.854 0.695-1.548 1.548-1.548zM21.677 30.968h-11.355v-2.065h11.355zM29.419 27.871h-26.839c-0.854 0-1.548-0.695-1.548-1.548v-0.516h29.935v0.516c0 0.854-0.695 1.548-1.548 1.548z"></path>
<path d="M16.516 20.74v-2.676h-1.032v2.676c-0.599 0.214-1.032 0.782-1.032 1.453 0 0.854 0.695 1.548 1.548 1.548s1.548-0.695 1.548-1.548c0-0.672-0.433-1.24-1.032-1.453zM16 22.71c-0.284 0-0.516-0.231-0.516-0.516s0.232-0.516 0.516-0.516 0.516 0.231 0.516 0.516-0.232 0.516-0.516 0.516z"></path>
<path d="M15.484 9.806h1.032v7.226h-1.032z"></path>
<path d="M20.645 11.871h-1.032v8.258h5.256c0.214 0.599 0.782 1.032 1.453 1.032 0.854 0 1.548-0.695 1.548-1.548s-0.695-1.548-1.548-1.548c-0.672 0-1.24 0.433-1.453 1.032h-4.224zM26.323 19.097c0.284 0 0.516 0.231 0.516 0.516s-0.232 0.516-0.516 0.516-0.516-0.231-0.516-0.516 0.232-0.516 0.516-0.516z"></path>
<path d="M19.613 9.806h1.032v1.032h-1.032z"></path>
<path d="M5.677 21.161c0.672 0 1.24-0.433 1.453-1.032h5.256v-5.677h-1.032v4.645h-4.224c-0.214-0.599-0.782-1.032-1.453-1.032-0.854 0-1.548 0.695-1.548 1.548s0.695 1.548 1.548 1.548zM5.677 19.097c0.284 0 0.516 0.231 0.516 0.516s-0.232 0.516-0.516 0.516-0.516-0.231-0.516-0.516 0.232-0.516 0.516-0.516z"></path>
<path d="M11.355 9.806h1.032v3.613h-1.032z"></path>
</svg>
