<!-- Generated by IcoMoon.io -->
<svg version="1.1" xmlns="http://www.w3.org/2000/svg" width="31" height="32" viewBox="0 0 31 32">
<path d="M28.11 27.545h-6.651c1.694-0.69 3.012-1.631 4.016-2.824 4.078-0.627 5.898-4.016 5.898-7.090 0-2.196-1.192-4.016-2.824-4.329 0 0 0-0.063 0-0.063 0-0.251-0.125-0.565-0.314-0.753-0.188-0.251-0.502-0.314-0.753-0.314h-25.286c-0.251 0-0.565 0.126-0.753 0.314-0.188 0.251-0.314 0.502-0.314 0.753 0.063 5.898 1.067 11.922 7.090 14.306h-6.776c-0.816 0-1.443 0.69-1.443 1.443 0 0.69 0.439 1.129 1.255 1.318l6.902 0.565c0.251 0 0.314 0.125 0.376 0.251 0.251 0.565 0.816 0.878 1.443 0.878h9.098c0.627 0 1.129-0.314 1.318-0.878 0.063-0.125 0.188-0.251 0.376-0.251l7.592-0.565c0.753-0.188 1.192-0.69 1.192-1.318 0-0.753-0.565-1.443-1.443-1.443zM30.18 17.631c0 2.133-1.004 4.769-3.702 5.71 1.631-2.698 1.945-6.024 2.071-8.847 0.878 0.251 1.631 1.631 1.631 3.137zM21.396 16.188l1.631 1.631v3.639h-3.263v-3.639l1.631-1.631zM2.196 13.239h18.635v2.008l-2.008 2.008c-0.125 0.125-0.188 0.251-0.188 0.376v4.392c0 0.314 0.188 0.565 0.565 0.565h4.392c0.314 0 0.565-0.251 0.565-0.565v-4.392c0-0.188-0.063-0.251-0.188-0.376l-2.008-2.008v-2.008h5.459c-0.063 7.467-1.631 14.306-12.612 14.306s-12.549-6.902-12.612-14.306zM28.298 29.239l-7.467 0.565c-0.565 0.063-1.067 0.314-1.255 0.816-0.125 0.188-0.251 0.251-0.439 0.251h-9.161c-0.188 0-0.314-0.125-0.439-0.251-0.188-0.502-0.69-0.753-1.255-0.816l-6.902-0.565c-0.251-0.063-0.251-0.188-0.251-0.251 0-0.188 0.188-0.314 0.314-0.314h26.792c0.188 0 0.314 0.188 0.314 0.314 0 0.063 0 0.188-0.251 0.251z"></path>
<path d="M13.867 4.58c-0.816 0.816-1.255 1.631-1.255 2.51s0.439 1.757 1.255 2.635c0.126 0.126 0.188 0.188 0.376 0.188 0.126 0 0.251-0.063 0.376-0.188 0.188-0.251 0.188-0.565 0-0.753-0.627-0.69-0.941-1.255-0.941-1.882s0.314-1.192 0.941-1.757c0.816-0.753 1.255-1.631 1.255-2.51 0-0.941-0.439-1.82-1.255-2.635-0.188-0.251-0.565-0.251-0.753 0s-0.188 0.565 0 0.753c0.627 0.69 0.941 1.255 0.941 1.882s-0.314 1.192-0.941 1.757z"></path>
<path d="M20.455 4.58c-0.816 0.816-1.255 1.631-1.255 2.51s0.439 1.757 1.255 2.635c0.125 0.126 0.188 0.188 0.376 0.188 0.125 0 0.251-0.063 0.376-0.188 0.188-0.251 0.188-0.565 0-0.753-0.627-0.69-0.941-1.255-0.941-1.882s0.314-1.192 0.941-1.757c0.816-0.753 1.255-1.631 1.255-2.51 0-0.941-0.439-1.82-1.255-2.635-0.188-0.251-0.565-0.251-0.753 0s-0.188 0.565 0 0.753c0.627 0.69 0.941 1.255 0.941 1.882s-0.314 1.192-0.941 1.757z"></path>
<path d="M8.408 4.58c-0.816 0.816-1.255 1.631-1.255 2.51s0.439 1.757 1.255 2.635c0.126 0.126 0.188 0.188 0.376 0.188 0.126 0 0.251-0.063 0.376-0.188 0.188-0.251 0.188-0.565 0-0.753-0.627-0.69-0.941-1.255-0.941-1.882s0.314-1.192 0.941-1.757c0.816-0.753 1.255-1.631 1.255-2.51 0-0.941-0.439-1.82-1.255-2.635-0.188-0.251-0.565-0.251-0.753 0s-0.188 0.565 0 0.753c0.627 0.69 0.941 1.255 0.941 1.882s-0.376 1.192-0.941 1.757z"></path>
<path d="M11.608 24.784c-3.89-0.627-5.835-2.824-6.651-7.278-0.063-0.251-0.376-0.502-0.627-0.439s-0.502 0.376-0.439 0.69c0.878 4.894 3.263 7.404 7.592 8.157 0.063 0 0.063 0 0.126 0 0.251 0 0.502-0.188 0.565-0.439-0.063-0.314-0.251-0.627-0.565-0.69z"></path>
</svg>
