<!-- Generated by IcoMoon.io -->
<svg version="1.1" xmlns="http://www.w3.org/2000/svg" width="32" height="32" viewBox="0 0 32 32">
<path d="M12.21 31.524c-0.066 0-0.133-0.008-0.199-0.025-1.437-0.369-2.817-0.939-4.103-1.694-0.373-0.219-0.504-0.694-0.297-1.073 0.255-0.466 0.389-0.996 0.389-1.531 0-1.765-1.436-3.2-3.2-3.2-0.535 0-1.065 0.135-1.531 0.389-0.379 0.207-0.854 0.076-1.073-0.297-0.755-1.286-1.325-2.666-1.694-4.103-0.104-0.406 0.123-0.823 0.52-0.957 1.303-0.439 2.179-1.657 2.179-3.032s-0.876-2.594-2.179-3.033c-0.397-0.134-0.624-0.551-0.52-0.957 0.369-1.437 0.939-2.817 1.694-4.103 0.219-0.373 0.694-0.504 1.073-0.297 0.466 0.255 0.996 0.389 1.531 0.389 1.764 0 3.2-1.436 3.2-3.2 0-0.535-0.135-1.065-0.389-1.531-0.207-0.379-0.076-0.854 0.297-1.073 1.286-0.755 2.666-1.325 4.103-1.694 0.406-0.104 0.823 0.123 0.957 0.52 0.439 1.303 1.657 2.179 3.033 2.179s2.594-0.876 3.032-2.179c0.134-0.397 0.551-0.624 0.957-0.52 1.437 0.369 2.817 0.939 4.103 1.694 0.373 0.219 0.504 0.694 0.297 1.073-0.255 0.466-0.389 0.996-0.389 1.531 0 1.764 1.436 3.2 3.2 3.2 0.535 0 1.065-0.135 1.531-0.389 0.379-0.207 0.854-0.076 1.073 0.297 0.755 1.286 1.325 2.666 1.694 4.103 0.104 0.406-0.122 0.823-0.52 0.957-1.303 0.439-2.179 1.657-2.179 3.033s0.876 2.594 2.179 3.032c0.397 0.134 0.624 0.551 0.52 0.957-0.369 1.437-0.939 2.817-1.694 4.103-0.219 0.373-0.694 0.504-1.073 0.297-0.466-0.255-0.996-0.389-1.531-0.389-1.765 0-3.2 1.436-3.2 3.2 0 0.535 0.135 1.065 0.389 1.531 0.207 0.379 0.076 0.854-0.297 1.073-1.286 0.755-2.666 1.325-4.103 1.694-0.406 0.104-0.823-0.122-0.957-0.52-0.439-1.303-1.657-2.179-3.032-2.179s-2.594 0.876-3.033 2.179c-0.112 0.332-0.422 0.545-0.758 0.545zM16 27.2c1.804 0 3.428 1.004 4.247 2.563 0.832-0.257 1.641-0.59 2.416-0.995-0.173-0.502-0.263-1.034-0.263-1.568 0-2.647 2.153-4.8 4.8-4.8 0.535 0 1.066 0.090 1.568 0.263 0.405-0.775 0.738-1.583 0.995-2.416-1.559-0.82-2.563-2.444-2.563-4.247s1.004-3.428 2.563-4.247c-0.257-0.832-0.59-1.641-0.995-2.416-0.502 0.173-1.034 0.263-1.568 0.263-2.647 0-4.8-2.153-4.8-4.8 0-0.535 0.090-1.066 0.263-1.568-0.775-0.405-1.583-0.738-2.416-0.995-0.82 1.559-2.444 2.563-4.247 2.563s-3.428-1.004-4.247-2.563c-0.832 0.257-1.641 0.59-2.416 0.995 0.173 0.502 0.263 1.033 0.263 1.568 0 2.647-2.153 4.8-4.8 4.8-0.535 0-1.066-0.090-1.568-0.263-0.405 0.775-0.738 1.583-0.995 2.416 1.559 0.82 2.563 2.444 2.563 4.247s-1.004 3.428-2.563 4.247c0.257 0.832 0.59 1.641 0.995 2.416 0.502-0.173 1.034-0.263 1.568-0.263 2.647 0 4.8 2.153 4.8 4.8 0 0.535-0.090 1.066-0.263 1.568 0.775 0.405 1.583 0.738 2.416 0.995 0.82-1.559 2.444-2.563 4.247-2.563zM16 20.8c-2.647 0-4.8-2.153-4.8-4.8s2.153-4.8 4.8-4.8 4.8 2.153 4.8 4.8-2.153 4.8-4.8 4.8zM16 12.8c-1.764 0-3.2 1.435-3.2 3.2s1.435 3.2 3.2 3.2c1.764 0 3.2-1.436 3.2-3.2s-1.436-3.2-3.2-3.2z"></path>
</svg>
