<!-- Generated by IcoMoon.io -->
<svg version="1.1" xmlns="http://www.w3.org/2000/svg" width="32" height="32" viewBox="0 0 32 32">
<path d="M17.934 32.4h-3.868c-0.773 0-1.412-0.579-1.488-1.346l-0.397-2.376c-0.745-0.232-1.469-0.532-2.161-0.896l-1.99 1.421c-0.238 0.197-0.574 0.318-0.919 0.318-0.4 0-0.775-0.156-1.058-0.439l-2.735-2.735c-0.546-0.546-0.589-1.408-0.099-2.006l1.4-1.961c-0.365-0.693-0.665-1.417-0.896-2.16l-2.411-0.402c-0.732-0.070-1.311-0.71-1.311-1.484v-3.867c0-0.773 0.579-1.412 1.346-1.489l2.376-0.398c0.232-0.746 0.533-1.47 0.896-2.159l-1.421-1.99c-0.469-0.568-0.426-1.43 0.121-1.976l2.735-2.736c0.527-0.526 1.43-0.57 2.004-0.1l1.964 1.401c0.689-0.363 1.413-0.664 2.159-0.896l0.401-2.411c0.071-0.733 0.712-1.312 1.484-1.312h3.868c0.771 0 1.411 0.578 1.489 1.345l0.397 2.377c0.746 0.232 1.469 0.532 2.159 0.896l1.991-1.421c0.237-0.197 0.574-0.317 0.918-0.317 0.4 0 0.775 0.155 1.058 0.438l2.735 2.736c0.546 0.544 0.59 1.405 0.102 2.003l-1.401 1.963c0.364 0.69 0.664 1.413 0.896 2.159l2.411 0.402c0.733 0.072 1.311 0.712 1.311 1.484v3.867c0 0.774-0.579 1.413-1.347 1.487l-2.375 0.397c-0.232 0.747-0.532 1.471-0.896 2.161l1.421 1.99c0.468 0.57 0.424 1.433-0.123 1.978l-2.734 2.734c-0.525 0.526-1.43 0.572-2.006 0.1l-1.961-1.4c-0.692 0.364-1.415 0.665-2.159 0.896l-0.403 2.412c-0.072 0.732-0.712 1.311-1.484 1.311zM9.982 26.63c0.089 0 0.178 0.022 0.259 0.068 0.806 0.452 1.663 0.807 2.551 1.059 0.197 0.056 0.344 0.22 0.378 0.422l0.455 2.737c0.026 0.255 0.218 0.428 0.441 0.428h3.868c0.223 0 0.414-0.172 0.436-0.393l0.462-2.772c0.033-0.201 0.181-0.366 0.378-0.421 0.886-0.251 1.743-0.607 2.55-1.059 0.178-0.1 0.399-0.088 0.566 0.031l2.258 1.613c0.228 0.183 0.46 0.145 0.614-0.008l2.735-2.735c0.161-0.16 0.173-0.412 0.031-0.587l-1.635-2.286c-0.12-0.167-0.131-0.387-0.031-0.566 0.452-0.803 0.807-1.66 1.058-2.55 0.056-0.197 0.22-0.344 0.422-0.378l2.737-0.456c0.255-0.026 0.428-0.217 0.428-0.44v-3.867c0-0.223-0.172-0.415-0.393-0.436l-2.772-0.461c-0.203-0.034-0.366-0.181-0.422-0.378-0.251-0.889-0.607-1.747-1.058-2.549-0.1-0.179-0.088-0.4 0.031-0.566l1.614-2.259c0.163-0.202 0.15-0.454-0.010-0.613l-2.735-2.736c-0.154-0.154-0.419-0.167-0.586-0.030l-2.287 1.635c-0.167 0.12-0.388 0.131-0.566 0.031-0.803-0.451-1.661-0.807-2.55-1.059-0.197-0.055-0.344-0.22-0.378-0.422l-0.456-2.737c-0.028-0.26-0.216-0.429-0.442-0.429h-3.868c-0.227 0-0.414 0.169-0.436 0.393l-0.46 2.771c-0.033 0.202-0.181 0.366-0.378 0.422-0.89 0.252-1.748 0.608-2.549 1.059-0.18 0.1-0.4 0.088-0.566-0.031l-2.261-1.614c-0.227-0.182-0.461-0.145-0.614 0.010l-2.735 2.735c-0.16 0.16-0.172 0.411-0.029 0.585l1.634 2.288c0.12 0.167 0.131 0.388 0.031 0.566-0.45 0.802-0.806 1.659-1.059 2.549-0.055 0.197-0.22 0.344-0.422 0.378l-2.737 0.456c-0.259 0.027-0.428 0.215-0.428 0.442v3.867c0 0.226 0.168 0.413 0.392 0.435l2.772 0.461c0.202 0.033 0.366 0.181 0.422 0.378 0.25 0.885 0.606 1.743 1.059 2.551 0.1 0.179 0.088 0.399-0.031 0.565l-1.613 2.258c-0.165 0.203-0.152 0.455 0.008 0.615l2.735 2.735c0.155 0.155 0.419 0.169 0.586 0.030l2.287-1.634c0.092-0.065 0.2-0.098 0.308-0.098zM16.001 22.729c-3.491 0-6.331-2.839-6.331-6.33s2.84-6.331 6.331-6.331 6.33 2.84 6.33 6.331c-0.001 3.49-2.84 6.33-6.33 6.33zM16.001 11.126c-2.908 0-5.273 2.366-5.273 5.273s2.366 5.272 5.273 5.272c2.907 0 5.273-2.365 5.273-5.272s-2.366-5.273-5.273-5.273z"></path>
</svg>
