<!-- Generated by IcoMoon.io -->
<svg version="1.1" xmlns="http://www.w3.org/2000/svg" width="32" height="32" viewBox="0 0 32 32">
<path d="M31.313 19.2v-5.731h-2.831c-0.331-1.4-0.894-2.706-1.65-3.881l2.056-2.044-4.056-4.037-2.087 2.081c-1.175-0.719-2.475-1.244-3.863-1.55v-2.95h-5.756v3.019c-1.375 0.338-2.662 0.9-3.819 1.65l-2.138-2.125-4.056 4.037 2.206 2.2c-0.175 0.287-0.331 0.575-0.481 0.875-0.469 0.894-0.825 1.875-1.069 2.856h-3.081v5.731h3.144c0.094 0.375 0.206 0.744 0.331 1.113 0.006 0.025 0.019 0.050 0.025 0.075 0 0.006 0.006 0.012 0.006 0.025 0.306 0.887 0.706 1.731 1.194 2.512l-2.219 2.206 4.056 4.038 2.194-2.181c1.144 0.719 2.412 1.262 3.763 1.587v3.006h5.694v-2.944c1.419-0.313 2.75-0.856 3.944-1.6l2.012 2 4.056-4.038-2.006-1.994c0.75-1.194 1.306-2.519 1.625-3.931h2.806zM25.387 23.2l1.869 1.863-2.288 2.281-1.844-1.837c-1.544 1.181-3.4 1.981-5.419 2.25v2.65h-3.206v-2.669c-1.969-0.288-3.775-1.075-5.287-2.231l-1.975 1.969-2.287-2.281 2.025-1.956c-1.119-1.5-1.875-3.275-2.15-5.213h-2.831v-3.194h2.75l0.094-0.225c0.294-1.856 1.031-3.569 2.1-5.019l-2-1.994 2.287-2.281 1.938 1.994c1.5-1.156 3.3-1.95 5.256-2.25v-2.669h3.206v2.644c2 0.256 3.831 1.025 5.375 2.175l1.894-1.881 2.225 2.281-1.85 1.844c1.137 1.488 1.919 3.263 2.219 5.194h2.837v3.194h-2.794c-0.244 1.988-1.006 3.819-2.144 5.363zM16.063 9.363c-3.863 0-7.069 3.125-7.069 7.037s3.213 7.038 7.069 7.038 7.069-3.194 7.069-7.038-3.206-7.037-7.069-7.037zM16.063 22.131c-3.206 0-5.756-2.544-5.756-5.731 0-3.194 2.619-5.731 5.756-5.731s5.756 2.544 5.756 5.731c0.006 3.194-2.613 5.731-5.756 5.731z"></path>
</svg>
