<!-- Generated by IcoMoon.io -->
<svg version="1.1" xmlns="http://www.w3.org/2000/svg" width="32" height="32" viewBox="0 0 32 32">
<path d="M13.536 13.936c-1.356 1.356-2.104 3.16-2.104 5.078s0.747 3.722 2.104 5.078c1.357 1.356 3.16 2.104 5.078 2.104s3.722-0.747 5.078-2.104c2.8-2.8 2.8-7.356 0-10.157s-7.356-2.8-10.157 0zM22.881 23.281c-1.14 1.14-2.655 1.768-4.267 1.768s-3.127-0.628-4.267-1.767c-1.14-1.14-1.767-2.655-1.767-4.267s0.628-3.127 1.767-4.267c1.177-1.177 2.722-1.765 4.267-1.765s3.091 0.588 4.267 1.765c2.353 2.353 2.353 6.181 0 8.534zM31.669 16.042c-0.059-0.261-0.292-0.447-0.56-0.447h-1.566c-0.204-0.654-0.466-1.287-0.782-1.892l1.107-1.107c0.189-0.189 0.222-0.484 0.080-0.711-0.528-0.84-1.156-1.626-1.868-2.338s-1.498-1.34-2.338-1.868c-0.227-0.143-0.522-0.109-0.711 0.080l-1.107 1.107c-0.604-0.316-1.237-0.578-1.891-0.782l0-1.565c0-0.268-0.185-0.5-0.447-0.56-0.777-0.176-1.571-0.281-2.368-0.317 0.022-0.135-0.002-0.276-0.079-0.399-0.41-0.651-0.896-1.259-1.446-1.809s-1.159-1.037-1.809-1.446c-0.227-0.143-0.522-0.109-0.711 0.080l-0.776 0.776c-0.413-0.21-0.842-0.387-1.284-0.531l-0-1.097c-0-0.268-0.185-0.5-0.446-0.559-1.507-0.343-3.099-0.343-4.605 0.001-0.261 0.060-0.446 0.292-0.446 0.559v1.096c-0.442 0.143-0.871 0.321-1.284 0.531l-0.776-0.776c-0.189-0.19-0.485-0.223-0.711-0.080-0.65 0.409-1.259 0.896-1.81 1.447s-1.037 1.159-1.446 1.809c-0.143 0.227-0.11 0.522 0.080 0.711l0.776 0.776c-0.21 0.413-0.388 0.842-0.531 1.284l-1.096-0c-0 0-0 0-0 0-0.268 0-0.5 0.185-0.559 0.446-0.343 1.505-0.344 3.097-0.001 4.605 0.059 0.261 0.292 0.447 0.559 0.447h1.097c0.143 0.442 0.321 0.871 0.531 1.284l-0.776 0.776c-0.189 0.189-0.223 0.485-0.080 0.711 0.409 0.65 0.896 1.259 1.446 1.81s1.159 1.037 1.809 1.446c0.094 0.059 0.2 0.088 0.305 0.088 0.031 0 0.062-0.003 0.093-0.008 0.036 0.797 0.14 1.591 0.317 2.367 0.059 0.261 0.292 0.447 0.559 0.447h1.565c0.204 0.653 0.466 1.287 0.782 1.891l-1.107 1.107c-0.189 0.189-0.223 0.484-0.080 0.711 0.528 0.84 1.157 1.627 1.868 2.338s1.498 1.34 2.338 1.868c0.227 0.143 0.522 0.109 0.711-0.080l1.107-1.107c0.604 0.316 1.238 0.578 1.892 0.782v1.566c0 0.268 0.186 0.5 0.447 0.56 0.972 0.22 1.972 0.331 2.972 0.331 1.001 0 2.002-0.111 2.975-0.332 0.261-0.059 0.447-0.292 0.447-0.559v-1.565c0.653-0.204 1.286-0.466 1.891-0.782l1.107 1.107c0.189 0.189 0.484 0.223 0.711 0.080 0.84-0.528 1.626-1.156 2.338-1.868s1.34-1.498 1.868-2.338c0.142-0.227 0.109-0.522-0.080-0.711l-1.107-1.107c0.316-0.604 0.578-1.237 0.782-1.891h1.565c0.268 0 0.5-0.185 0.559-0.447 0.442-1.944 0.442-4 0.001-5.946zM5.561 16.041c-0.157 0.687-0.257 1.389-0.303 2.095l-0.181 0.181c-0.437-0.307-0.849-0.653-1.23-1.034s-0.728-0.794-1.034-1.23l0.746-0.746c0.183-0.183 0.221-0.467 0.092-0.692-0.328-0.571-0.582-1.185-0.754-1.824-0.067-0.25-0.295-0.424-0.554-0.424h-1.056c-0.185-1.056-0.185-2.148 0.001-3.203l1.054 0c0 0 0 0 0 0 0.259 0 0.486-0.174 0.554-0.424 0.173-0.64 0.427-1.254 0.755-1.825 0.129-0.225 0.092-0.508-0.092-0.692l-0.747-0.747c0.307-0.437 0.653-0.849 1.034-1.23s0.794-0.728 1.231-1.035l0.747 0.747c0.183 0.183 0.467 0.221 0.692 0.092 0.571-0.328 1.185-0.582 1.824-0.754 0.25-0.067 0.424-0.295 0.424-0.554v-1.055c1.055-0.185 2.147-0.186 3.202-0l0 1.056c0 0.259 0.174 0.486 0.424 0.554 0.639 0.173 1.253 0.427 1.825 0.755 0.225 0.129 0.508 0.091 0.691-0.092l0.746-0.746c0.436 0.306 0.849 0.653 1.23 1.034s0.728 0.793 1.034 1.23l-0.182 0.182c-0.706 0.046-1.407 0.146-2.095 0.303-0.261 0.059-0.446 0.292-0.446 0.559v1.364c-0.237-0.397-0.522-0.764-0.854-1.096-1.062-1.062-2.474-1.647-3.976-1.647s-2.914 0.585-3.977 1.647c-2.192 2.192-2.192 5.76 0.001 7.952 0.332 0.332 0.699 0.617 1.096 0.854h-1.365c-0.268 0-0.5 0.185-0.559 0.446zM7.36 12.597l1.107 1.107c-0.152 0.291-0.291 0.589-0.418 0.892-0.306-0.186-0.591-0.408-0.848-0.665-1.745-1.745-1.745-4.585-0.001-6.33 0.845-0.846 1.97-1.311 3.165-1.311s2.32 0.466 3.165 1.311c0.258 0.258 0.48 0.542 0.666 0.848-0.303 0.127-0.601 0.266-0.892 0.418l-1.107-1.107c-0.189-0.189-0.484-0.223-0.711-0.080-0.84 0.528-1.627 1.157-2.338 1.868s-1.34 1.498-1.868 2.338c-0.143 0.227-0.109 0.522 0.080 0.711zM30.642 21.287h-1.529c-0.259 0-0.486 0.174-0.554 0.424-0.23 0.852-0.568 1.669-1.005 2.43-0.129 0.225-0.091 0.508 0.092 0.691l1.081 1.081c-0.427 0.625-0.916 1.214-1.458 1.756s-1.131 1.031-1.756 1.458l-1.081-1.081c-0.183-0.183-0.467-0.221-0.692-0.092-0.76 0.437-1.578 0.775-2.43 1.005-0.25 0.068-0.424 0.295-0.424 0.554v1.529c-1.495 0.281-3.049 0.281-4.545 0.001v-1.529c0-0.259-0.174-0.486-0.424-0.554-0.852-0.23-1.67-0.568-2.431-1.005-0.225-0.129-0.508-0.091-0.691 0.092l-1.081 1.081c-0.625-0.427-1.214-0.916-1.756-1.458s-1.031-1.131-1.458-1.756l1.081-1.081c0.183-0.183 0.221-0.467 0.092-0.691-0.437-0.76-0.775-1.578-1.005-2.43-0.068-0.25-0.295-0.424-0.554-0.424h-1.529c-0.281-1.496-0.281-3.050 0.001-4.545h1.528c0.259 0 0.486-0.174 0.554-0.424 0.23-0.852 0.568-1.67 1.005-2.431 0.129-0.225 0.091-0.508-0.092-0.691l-1.081-1.081c0.427-0.625 0.916-1.214 1.458-1.756s1.131-1.031 1.756-1.458l1.081 1.081c0.183 0.183 0.467 0.221 0.691 0.092 0.761-0.437 1.578-0.775 2.431-1.005 0.25-0.068 0.424-0.295 0.424-0.554v-1.528c1.495-0.281 3.049-0.282 4.545-0.001l-0 1.529c0 0.259 0.174 0.486 0.424 0.554 0.852 0.23 1.669 0.568 2.43 1.005 0.225 0.129 0.508 0.091 0.692-0.092l1.081-1.081c0.625 0.427 1.214 0.916 1.756 1.458s1.031 1.131 1.458 1.756l-1.081 1.081c-0.183 0.183-0.221 0.467-0.092 0.691 0.437 0.76 0.775 1.578 1.005 2.431 0.068 0.25 0.295 0.424 0.554 0.424h1.529c0.28 1.496 0.28 3.050-0.001 4.545zM16.589 16.989c-1.116 1.116-1.116 2.933 0 4.050 0.558 0.558 1.292 0.837 2.025 0.837s1.467-0.279 2.025-0.837c1.116-1.116 1.116-2.933-0-4.050s-2.933-1.116-4.050 0zM19.828 20.228c-0.669 0.669-1.758 0.669-2.427 0s-0.669-1.758-0-2.427c0.335-0.335 0.774-0.502 1.213-0.502s0.879 0.167 1.213 0.502c0.669 0.669 0.669 1.758 0 2.427z"></path>
</svg>
