<!-- Generated by IcoMoon.io -->
<svg version="1.1" xmlns="http://www.w3.org/2000/svg" width="32" height="32" viewBox="0 0 32 32">
<path d="M26.013 5.635l-0.336-2.4c-0.017-0.121-0.081-0.23-0.179-0.303s-0.221-0.103-0.341-0.085l-2.643 0.405c-0.249 0.038-0.42 0.271-0.382 0.52s0.271 0.42 0.52 0.382l1.54-0.236c-2.060 2.547-4.276 4.716-6.596 6.454-2.019 1.512-4.122 2.705-6.25 3.543-3.621 1.427-6.094 1.334-6.118 1.333-0.252-0.013-0.465 0.182-0.477 0.434s0.182 0.466 0.433 0.478c0.015 0.001 0.077 0.003 0.184 0.003 0.657 0 2.995-0.101 6.255-1.376 2.21-0.865 4.392-2.096 6.484-3.658 2.404-1.795 4.695-4.037 6.82-6.67l0.182 1.302c0.032 0.228 0.227 0.393 0.451 0.393 0.021 0 0.042-0.001 0.064-0.004 0.25-0.035 0.423-0.266 0.389-0.515zM31.158 27.447h-3.686c0.303-0.202 0.589-0.435 0.853-0.698 1.039-1.039 1.611-2.42 1.611-3.889s-0.572-2.85-1.611-3.889c-0.37-0.37-0.781-0.675-1.217-0.917v-1.841c0-0.252-0.204-0.456-0.456-0.456s-0.456 0.204-0.456 0.456v1.436c-1.249-0.423-2.604-0.382-3.823 0.112v-5.603c0-0.059 0.048-0.107 0.107-0.107h3.61c0.059 0 0.107 0.048 0.107 0.107v1.132c0 0.252 0.204 0.456 0.456 0.456s0.456-0.204 0.456-0.456v-1.132c0-0.562-0.457-1.019-1.019-1.019h-3.61c-0.562 0-1.019 0.457-1.019 1.019v6.078c-0.323 0.208-0.63 0.452-0.912 0.735-1.039 1.039-1.611 2.42-1.611 3.889s0.572 2.85 1.611 3.889c0.264 0.264 0.549 0.497 0.853 0.698h-2.88v-11.149c0-0.562-0.457-1.019-1.019-1.019h-3.609c-0.562 0-1.019 0.457-1.019 1.019v11.149h-2.94v-7.397c0-0.562-0.457-1.019-1.019-1.019h-3.61c-0.562 0-1.019 0.457-1.019 1.019v7.397h-1.879v-23.459c0-0.464-0.378-0.842-0.842-0.842h-0.722c-0.464 0-0.842 0.378-0.842 0.842v3.238c0 0.252 0.204 0.456 0.456 0.456s0.456-0.204 0.456-0.456v-3.168h0.58v23.459c0 0.464 0.378 0.842 0.842 0.842h28.753v0.686h-30.175v-18.936c0-0.252-0.204-0.456-0.456-0.456s-0.456 0.204-0.456 0.456v19.007c0 0.464 0.378 0.842 0.842 0.842h30.317c0.464 0 0.842-0.378 0.842-0.842v-0.828c0-0.464-0.378-0.842-0.842-0.842zM9.020 27.447v0h-3.824v-7.397c0-0.059 0.048-0.107 0.107-0.107h3.61c0.059 0 0.107 0.048 0.107 0.107v7.397zM13.784 27.447v-11.149c0-0.059 0.048-0.107 0.107-0.107h3.609c0.059 0 0.107 0.048 0.107 0.107v11.149h-3.823zM26.451 26.98c-0.462 0.226-0.964 0.373-1.475 0.434-0.009 0.001-0.017 0.002-0.026 0.003-0.035 0.004-0.070 0.007-0.105 0.011-0.053 0.005-0.107 0.009-0.16 0.012-0.017 0.001-0.034 0.001-0.051 0.002-0.066 0.003-0.132 0.005-0.198 0.005s-0.132-0.002-0.198-0.005c-0.021-0.001-0.042-0.002-0.062-0.003-0.050-0.003-0.099-0.007-0.149-0.011-0.041-0.004-0.082-0.008-0.123-0.013-0.029-0.003-0.058-0.007-0.087-0.011-0.042-0.006-0.083-0.012-0.124-0.018-0.005-0.001-0.011-0.002-0.016-0.003-0.538-0.090-1.058-0.276-1.532-0.55-0.003-0.001-0.005-0.002-0.008-0.004-0.34-0.198-0.658-0.44-0.944-0.726-0.866-0.866-1.343-2.018-1.343-3.244s0.477-2.377 1.343-3.244c0.332-0.332 0.702-0.602 1.097-0.81 0.011-0.006 0.022-0.012 0.034-0.017 0.66-0.342 1.387-0.514 2.113-0.514 0.581 0 1.162 0.11 1.708 0.328 0.009 0.004 0.019 0.007 0.029 0.011 0.057 0.023 0.113 0.048 0.169 0.073 0.022 0.010 0.045 0.021 0.067 0.031 0.46 0.218 0.891 0.517 1.271 0.897 1.788 1.788 1.788 4.698 0 6.487-0.36 0.36-0.769 0.651-1.212 0.87-0.006 0.002-0.011 0.004-0.017 0.007zM24.648 22.418v-1.625c0.56 0.040 0.768 0.296 0.96 0.296 0.24 0 0.352-0.304 0.352-0.456 0-0.392-0.768-0.56-1.313-0.576v-0.216c0-0.096-0.12-0.184-0.24-0.184-0.136 0-0.232 0.088-0.232 0.184v0.232c-0.76 0.080-1.521 0.48-1.521 1.489 0 1.024 0.8 1.313 1.521 1.569v1.881c-0.816-0.064-1.032-0.624-1.297-0.624-0.2 0-0.368 0.264-0.368 0.456 0 0.392 0.672 0.928 1.665 0.944h-0v0.248c0 0.096 0.096 0.184 0.232 0.184 0.12 0 0.24-0.088 0.24-0.184v-0.272c0.864-0.12 1.457-0.664 1.457-1.649 0-1.088-0.76-1.441-1.457-1.697zM24.224 22.266c-0.424-0.16-0.768-0.328-0.768-0.784 0-0.416 0.32-0.616 0.768-0.672v1.457zM24.6 24.995v-1.689c0.392 0.168 0.704 0.392 0.704 0.896 0 0.456-0.272 0.712-0.704 0.792z"></path>
</svg>
