<!-- Generated by IcoMoon.io -->
<svg version="1.1" xmlns="http://www.w3.org/2000/svg" width="32" height="32" viewBox="0 0 32 32">
<path d="M29.333 11.756c-0.294 0-0.533 0.238-0.533 0.533v0.533c0 0.295 0.239 0.533 0.533 0.533s0.533-0.238 0.533-0.533v-0.533c0-0.295-0.239-0.533-0.533-0.533zM29.333 7.401c-0.294 0-0.533 0.238-0.533 0.533v1.244c0 0.295 0.239 0.533 0.533 0.533s0.533-0.238 0.533-0.533v-1.244c0-0.295-0.239-0.533-0.533-0.533zM28.8 4.823c0 0.295 0.239 0.533 0.533 0.533s0.533-0.238 0.533-0.533v-1.067h-1.067c-0.294 0-0.533 0.238-0.533 0.533s0.239 0.533 0.533 0.533zM9.736 4.823h1.089c0.294 0 0.533-0.238 0.533-0.533s-0.239-0.533-0.533-0.533h-1.089c-0.294 0-0.533 0.238-0.533 0.533s0.239 0.533 0.533 0.533zM13.549 4.823h1.089c0.294 0 0.533-0.238 0.533-0.533s-0.239-0.533-0.533-0.533h-1.089c-0.294 0-0.533 0.238-0.533 0.533s0.239 0.533 0.533 0.533zM17.362 4.823h1.089c0.294 0 0.533-0.238 0.533-0.533s-0.239-0.533-0.533-0.533h-1.089c-0.294 0-0.533 0.238-0.533 0.533s0.239 0.533 0.533 0.533zM24.987 4.823h1.089c0.294 0 0.533-0.238 0.533-0.533s-0.239-0.533-0.533-0.533h-1.089c-0.294 0-0.533 0.238-0.533 0.533s0.239 0.533 0.533 0.533zM21.174 4.823h1.089c0.294 0 0.533-0.238 0.533-0.533s-0.239-0.533-0.533-0.533h-1.089c-0.294 0-0.533 0.238-0.533 0.533s0.239 0.533 0.533 0.533zM5.923 4.823h1.089c0.294 0 0.533-0.238 0.533-0.533s-0.239-0.533-0.533-0.533h-1.089c-0.294 0-0.533 0.238-0.533 0.533s0.239 0.533 0.533 0.533zM2.667 5.356c0.294 0 0.533-0.238 0.533-0.533 0.294 0 0.533-0.238 0.533-0.533s-0.239-0.533-0.533-0.533h-1.067v1.067c0 0.295 0.239 0.533 0.533 0.533zM2.667 9.203c0.294 0 0.533-0.238 0.533-0.533v-1.099c0-0.295-0.239-0.533-0.533-0.533s-0.533 0.238-0.533 0.533v1.099c0 0.295 0.239 0.533 0.533 0.533zM2.667 20.742c0.294 0 0.533-0.238 0.533-0.533v-1.099c0-0.295-0.239-0.533-0.533-0.533s-0.533 0.238-0.533 0.533v1.099c0 0.294 0.239 0.533 0.533 0.533zM2.667 13.049c0.294 0 0.533-0.238 0.533-0.533v-1.099c0-0.295-0.239-0.533-0.533-0.533s-0.533 0.238-0.533 0.533v1.099c0 0.295 0.239 0.533 0.533 0.533zM2.667 16.895c0.294 0 0.533-0.238 0.533-0.533v-1.099c0-0.295-0.239-0.533-0.533-0.533s-0.533 0.238-0.533 0.533v1.099c0 0.294 0.239 0.533 0.533 0.533zM3.733 23.49c0-0.295-0.239-0.533-0.533-0.533 0-0.295-0.239-0.533-0.533-0.533s-0.533 0.238-0.533 0.533v1.067h1.067c0.294 0 0.533-0.238 0.533-0.533zM14.4 22.956h-1.067c-0.294 0-0.533 0.238-0.533 0.533s0.239 0.533 0.533 0.533h1.067c0.294 0 0.533-0.238 0.533-0.533s-0.239-0.533-0.533-0.533zM5.867 24.023h1.067c0.294 0 0.533-0.238 0.533-0.533s-0.239-0.533-0.533-0.533h-1.067c-0.294 0-0.533 0.238-0.533 0.533s0.239 0.533 0.533 0.533zM10.667 22.956h-1.067c-0.294 0-0.533 0.238-0.533 0.533s0.239 0.533 0.533 0.533h1.067c0.294 0 0.533-0.238 0.533-0.533s-0.239-0.533-0.533-0.533zM17.6 22.956h-0.533c-0.294 0-0.533 0.238-0.533 0.533s0.239 0.533 0.533 0.533h0.533c0.294 0 0.533-0.238 0.533-0.533s-0.239-0.533-0.533-0.533zM32 1.623h-32v24.533h20.267v5.021l3.733-3.733 3.733 3.733v-5.021h4.267v-24.533zM26.667 28.602l-2.667-2.667-2.667 2.667v-5.832c0.006 0.004 0.014 0.006 0.020 0.010 0.781 0.449 1.683 0.709 2.646 0.709s1.866-0.261 2.646-0.709c0.006-0.004 0.014-0.006 0.020-0.010v5.832zM26.823 21.347c-0.084 0.074-0.17 0.144-0.258 0.211-0.017 0.013-0.034 0.026-0.051 0.038-0.088 0.065-0.178 0.125-0.27 0.182-0.021 0.013-0.042 0.026-0.063 0.038-0.090 0.054-0.181 0.105-0.274 0.151-0.027 0.013-0.054 0.026-0.081 0.039-0.090 0.043-0.18 0.083-0.272 0.119-0.035 0.014-0.071 0.026-0.107 0.039-0.086 0.031-0.173 0.061-0.261 0.087-0.047 0.014-0.095 0.025-0.143 0.037-0.079 0.020-0.158 0.040-0.238 0.055-0.068 0.013-0.137 0.022-0.206 0.031-0.063 0.009-0.125 0.020-0.189 0.026-0.135 0.013-0.272 0.021-0.41 0.021s-0.275-0.008-0.41-0.021c-0.063-0.006-0.126-0.017-0.189-0.026-0.069-0.010-0.138-0.019-0.206-0.031-0.080-0.015-0.159-0.036-0.238-0.055-0.048-0.012-0.096-0.023-0.143-0.037-0.088-0.026-0.174-0.055-0.261-0.087-0.036-0.013-0.071-0.025-0.107-0.039-0.092-0.036-0.182-0.076-0.272-0.119-0.027-0.013-0.054-0.026-0.081-0.039-0.093-0.047-0.185-0.098-0.274-0.151-0.021-0.013-0.042-0.025-0.063-0.038-0.092-0.057-0.182-0.118-0.27-0.182-0.017-0.013-0.034-0.025-0.051-0.038-0.088-0.067-0.174-0.137-0.258-0.211-0.882-0.782-1.443-1.921-1.443-3.19 0-2.353 1.914-4.267 4.267-4.267s4.267 1.914 4.267 4.267c0 1.27-0.561 2.409-1.444 3.19zM30.933 25.090h-3.2v-3.131c0.986-0.969 1.6-2.314 1.6-3.802 0-2.941-2.393-5.333-5.333-5.333s-5.333 2.393-5.333 5.333c0 1.488 0.614 2.834 1.6 3.802v3.131h-19.2v-22.4h29.867v22.4zM6.497 8.435c-0.326 0.385-0.477 0.878-0.423 1.388 0.054 0.522 0.323 1.006 0.738 1.329l1.189 0.925v2.9c-0.619-0.221-1.067-0.807-1.067-1.502 0-0.295-0.239-0.533-0.533-0.533s-0.533 0.238-0.533 0.533c0 1.287 0.918 2.365 2.133 2.613v0.468c0 0.295 0.239 0.533 0.533 0.533s0.533-0.238 0.533-0.533v-0.47c0.582-0.118 1.112-0.427 1.503-0.89 0.326-0.386 0.476-0.879 0.423-1.389-0.055-0.522-0.323-1.005-0.738-1.327l-1.189-0.924v-2.9c0.619 0.221 1.067 0.807 1.067 1.502 0 0.295 0.239 0.533 0.533 0.533s0.533-0.238 0.533-0.533c0-1.287-0.918-2.365-2.133-2.613v-0.587c0-0.295-0.239-0.533-0.533-0.533s-0.533 0.238-0.533 0.533v0.589c-0.582 0.118-1.112 0.427-1.503 0.889zM9.601 13.322c0.186 0.145 0.307 0.363 0.332 0.596 0.023 0.219-0.040 0.428-0.177 0.589-0.186 0.219-0.426 0.373-0.689 0.467v-2.068l0.534 0.416zM7.466 10.31c-0.187-0.145-0.307-0.363-0.332-0.597-0.022-0.218 0.040-0.427 0.177-0.589 0.186-0.219 0.426-0.373 0.689-0.467v2.068l-0.534-0.415zM13.333 9.623h12.267c0.294 0 0.533-0.238 0.533-0.533s-0.239-0.533-0.533-0.533h-12.267c-0.294 0-0.533 0.238-0.533 0.533s0.239 0.533 0.533 0.533zM13.333 12.823h5.867c0.294 0 0.533-0.238 0.533-0.533s-0.239-0.533-0.533-0.533h-5.867c-0.294 0-0.533 0.238-0.533 0.533s0.239 0.533 0.533 0.533zM13.333 16.023h4.267c0.294 0 0.533-0.238 0.533-0.533s-0.239-0.533-0.533-0.533h-4.267c-0.294 0-0.533 0.238-0.533 0.533s0.239 0.533 0.533 0.533zM5.867 19.756h11.2c0.294 0 0.533-0.238 0.533-0.533s-0.239-0.533-0.533-0.533h-11.2c-0.294 0-0.533 0.238-0.533 0.533s0.239 0.533 0.533 0.533z"></path>
</svg>
