<!-- Generated by IcoMoon.io -->
<svg version="1.1" xmlns="http://www.w3.org/2000/svg" width="36" height="32" viewBox="0 0 36 32">
<path d="M35.591 10.709c-0.063-1.008-1.26-1.827-3.654-2.394 0.063-0.189 0.126-0.378 0.126-0.567v-4.157c-0.252-3.465-14.425-3.591-16.063-3.591s-15.748 0.126-16 3.591v0 4.157c0 1.134 1.449 2.016 3.591 2.646 0 0.126-0.063 0.189-0.063 0.315v0 4.157c-2.331 0.63-3.465 1.386-3.528 2.394v0 4.157c0 0.756 0.693 1.449 1.89 2.016-0.063 0.126-0.063 0.252-0.063 0.378v0 4.157c0 1.953 4.472 3.213 9.386 3.78 0.063 0 0.063 0 0.126 0 0 0 0 0 0.063 0 0.945 0.126 1.89 0.189 2.898 0.252 0 0 0.063 0 0.063 0s0 0 0 0c1.197 0.063 2.394 0.126 3.528 0.126s2.331-0.063 3.528-0.126c0 0 0 0 0 0s0.063 0 0.063 0c0.945-0.063 1.953-0.126 2.898-0.252 0 0 0 0 0.063 0s0.063 0 0.126 0c4.913-0.567 9.386-1.827 9.386-3.78v-4.157c-0.063-0.756-0.63-1.323-1.89-1.827 0.063-0.189 0.126-0.378 0.126-0.504v-3.905c2.142-0.63 3.528-1.512 3.591-2.646l-0.189-4.22zM30.803 21.543l-0.189 0.189c-0.315 0.252-0.819 0.567-1.512 0.819v-2.835c0.693-0.252 1.323-0.504 1.764-0.819v2.457c0 0.063-0.063 0.126-0.063 0.189zM17.512 24.315c-0.063 0-0.189 0-0.252 0-0.189 0-0.441 0-0.63 0v-2.961c0.189 0 0.315 0 0.504 0 0 0 0.063 0 0.063 0 0.567 0 1.197 0 1.764-0.063v2.961c-0.126 0-0.252 0-0.378 0-0.315 0-0.693 0.063-1.071 0.063zM14.929 24.315c-0.252 0-0.567 0-0.819 0-0.063 0-0.063 0-0.126 0-0.315 0-0.63 0-0.945-0.063v-2.961c0.567 0 1.197 0.063 1.764 0.063 0 0 0.063 0 0.063 0 0.189 0 0.315 0 0.504 0v2.961c-0.126 0-0.252 0-0.315 0 0 0-0.063 0-0.126 0zM4.22 22.929c0 0-0.063 0 0 0l-0.063-2.898c0.567 0.126 1.134 0.315 1.764 0.441v2.898c-0.567-0.126-1.071-0.252-1.512-0.378-0.063 0-0.126 0-0.189-0.063zM16.693 27.843c0.189 0 0.315 0 0.504 0v3.024c-0.819 0-1.638 0-2.394-0.063v-2.961c0.567 0 1.197 0.063 1.764 0.063 0.063-0.063 0.126-0.063 0.126-0.063zM18.961 27.843c0.567 0 1.197 0 1.764-0.063v2.961c-0.756 0.063-1.575 0.063-2.394 0.063v-2.961c0.189 0 0.315 0 0.504 0 0.063 0 0.126 0 0.126 0zM23.748 27.591v2.961c-0.567 0.063-1.134 0.126-1.764 0.126v-2.961c0.567 0 1.134-0.063 1.764-0.126zM24.882 27.465c0.63-0.063 1.197-0.126 1.764-0.252v2.898c-0.567 0.126-1.134 0.189-1.764 0.252v-2.898zM27.905 27.024c0.63-0.126 1.197-0.252 1.764-0.441v2.835c-0.504 0.126-1.134 0.315-1.764 0.441v-2.835zM7.685 27.024v2.898c-0.63-0.126-1.26-0.315-1.764-0.441v-2.835c0.567 0.126 1.134 0.252 1.764 0.378zM8.882 27.213c0.567 0.063 1.197 0.189 1.764 0.252v2.961c-0.63-0.063-1.197-0.189-1.764-0.252v-2.961zM11.843 27.591c0.567 0.063 1.197 0.126 1.764 0.126v2.961c-0.63-0.063-1.197-0.126-1.764-0.126v-2.961zM10.394 24.063c-0.063 0-0.126 0-0.189 0s-0.063 0-0.126 0v-2.961c0.567 0.063 1.197 0.126 1.764 0.126v2.961c-0.504-0.063-0.945-0.063-1.449-0.126zM8.882 20.976v2.961c-0.63-0.063-1.197-0.189-1.764-0.252v-2.898c0.567 0 1.197 0.063 1.764 0.189zM20.535 24.126c-0.126 0-0.252 0-0.378 0v-2.961c0.63-0.063 1.197-0.063 1.764-0.126v2.961c-0.378 0.063-0.756 0.063-1.134 0.126-0.063 0-0.126 0-0.252 0zM23.118 23.874v-2.961c0.63-0.063 1.197-0.126 1.764-0.252v2.898c-0.504 0.126-1.134 0.252-1.764 0.315zM26.079 20.472c0.63-0.126 1.197-0.252 1.764-0.441v2.835c-0.504 0.126-1.134 0.315-1.764 0.441v-2.835zM18.016 17.764c-0.441 0-0.882 0-1.323-0.063 0 0-0.063 0-0.063 0v-2.961c0.567 0 1.197 0.063 1.764 0.063 0 0 0.063 0 0.063 0 0.189 0 0.315 0 0.504 0v2.961c-0.315 0-0.567 0-0.882 0 0 0-0.063 0-0.063 0zM4.157 9.323v-2.835c0.567 0.126 1.134 0.315 1.764 0.441v2.898c-0.063 0-0.126 0-0.189-0.063-0.315-0.063-0.63-0.126-0.945-0.189-0.189-0.189-0.441-0.189-0.63-0.252zM14.929 7.685c0.189 0 0.315 0 0.504 0v2.961c-0.819 0-1.575 0-2.394-0.063v-2.961c0.567 0 1.197 0.063 1.764 0.063 0.063 0 0.126 0 0.126 0zM17.197 7.685c0.567 0 1.197 0 1.764-0.063v2.961c-0.126 0-0.189 0-0.315 0 0 0 0 0 0 0-0.378 0-0.819 0-1.197 0.063-0.063 0-0.126 0-0.189 0-0.189 0-0.441 0-0.63 0v-2.961c0.189 0 0.315 0 0.504 0 0 0 0 0 0.063 0zM30.74 8v0l-0.252 0.189c-0.315 0.252-0.819 0.504-1.386 0.756v-2.898c0.693-0.252 1.323-0.504 1.764-0.819v2.457c0 0.126-0.063 0.189-0.126 0.315zM23.118 10.205v-2.961c0.63-0.063 1.197-0.126 1.764-0.252v2.898c-0.504 0.189-1.134 0.252-1.764 0.315zM26.079 9.701v-2.898c0.63-0.126 1.197-0.252 1.764-0.441v2.835c-0.504 0.252-1.071 0.378-1.764 0.504zM21.921 7.433v2.961c-0.567 0.063-1.197 0.126-1.764 0.126v-2.961c0.63 0 1.197-0.063 1.764-0.126zM10.079 10.394v-2.961c0.567 0.063 1.197 0.126 1.764 0.126v2.961c-0.567-0.063-1.197-0.063-1.764-0.126zM8.882 7.307v2.961c-0.126 0-0.252 0-0.378-0.063-0.063 0-0.126 0-0.252-0.063-0.315-0.063-0.693-0.126-1.008-0.126-0.063 0-0.126 0-0.189-0.063v-2.898c0.63 0.063 1.26 0.189 1.827 0.252zM15.244 17.638c-0.063 0-0.189 0-0.252 0-0.378 0-0.756-0.063-1.134-0.126-0.063 0-0.126 0-0.252 0 0 0 0 0-0.063 0v-2.961c0.567 0.063 1.197 0.126 1.764 0.126v2.961c0.063 0 0 0-0.063 0zM11.339 17.197c-0.252-0.063-0.441-0.063-0.693-0.126v-2.898c0.567 0.063 1.197 0.189 1.764 0.252v2.961c-0.315-0.063-0.693-0.126-1.071-0.189 0.063 0 0 0 0 0zM9.512 13.984v2.898c-0.63-0.126-1.26-0.315-1.764-0.441v-2.835c0.504 0.063 1.134 0.252 1.764 0.378zM6.551 13.165v2.835c-0.945-0.378-1.512-0.756-1.701-1.071l-0.063-0.063c0 0 0-0.063 0-0.063v-2.457c0.441 0.315 1.008 0.567 1.764 0.819zM20.724 14.803c0.567 0 1.197 0 1.764-0.063v2.961c-0.756 0.063-1.575 0.063-2.394 0.063v-2.961c0.189 0 0.315 0 0.504 0 0.063 0 0.126 0 0.126 0zM28.409 17.071c-0.252 0.063-0.504 0.063-0.819 0.126-0.126 0-0.315 0.063-0.441 0.063s-0.315 0.063-0.441 0.063v-2.961c0.63-0.063 1.197-0.126 1.764-0.252l-0.063 2.961c0.063 0 0 0 0 0zM24.378 17.575c-0.252 0-0.441 0-0.693 0.063v-2.961c0.63-0.063 1.197-0.063 1.764-0.126v2.961c-0.315 0-0.63 0.063-1.071 0.063 0.063 0 0.063 0 0 0zM31.181 16.504c-0.315 0.063-0.63 0.189-0.945 0.252-0.126 0.063-0.315 0.063-0.441 0.126-0.063 0-0.063 0-0.126 0v-2.898c0.63-0.126 1.197-0.252 1.764-0.441v2.835c-0.063 0.063-0.189 0.063-0.252 0.126zM34.394 10.709c-0.063 0.378-0.945 0.945-2.583 1.449v0c-2.079 0.63-5.354 1.26-9.575 1.449-0.189 0-0.441 0-0.63 0s-0.378 0-0.567 0c-0.504 0-1.008 0-1.512 0s-1.008 0-1.512 0c-0.189 0-0.378 0-0.567 0s-0.441 0-0.63 0c-4.157-0.189-7.433-0.756-9.575-1.449v0c-1.638-0.504-2.52-1.008-2.583-1.449 0 0 0 0 0-0.063 0.063 0 0.063 0 0.126 0 0.252 0.063 0.441 0.126 0.693 0.189 1.197 0.252 2.457 0.441 3.905 0.63 0 0 0 0 0 0s0 0 0 0c0.945 0.126 1.953 0.189 2.961 0.252 0 0 0 0 0 0s0 0 0 0c0.756 0.063 1.449 0.063 2.205 0.063 0.441 0 0.882 0 1.323 0 0.315 0 0.63 0 0.945 0 4.283-0.063 8.315-0.567 11.087-1.386 0.126-0.063 0.252-0.063 0.378-0.126 0.063 0 0.126-0.063 0.252-0.063 0.189-0.063 0.441-0.126 0.63-0.189 0.063 0 0.063 0 0.126-0.063 0.189-0.063 0.315-0.126 0.504-0.189 0.063 0 0.063-0.063 0.126-0.063 0.189-0.063 0.315-0.126 0.441-0.252 0.063-0.063 0.126-0.063 0.189-0.126s0.126-0.063 0.189-0.126c0.063 0 0.063-0.063 0.126-0.063 2.772 0.693 3.465 1.323 3.528 1.575zM16 1.197c9.827 0 14.74 1.512 14.866 2.394-0.063 0.378-1.008 0.945-2.583 1.449v0c-2.079 0.63-5.354 1.26-9.575 1.449-0.189 0-0.441 0-0.63 0s-0.378 0-0.567 0c-0.504 0-1.008 0-1.512 0s-1.008 0-1.512 0c-0.189 0-0.378 0-0.567 0s-0.441 0-0.63 0c-4.095-0.189-7.433-0.819-9.512-1.449v0c-1.575-0.504-2.52-1.008-2.583-1.449 0.063-0.882 5.039-2.394 14.803-2.394zM1.197 7.685v-2.457c0.504 0.315 1.071 0.567 1.764 0.819v2.835c-1.134-0.378-1.764-0.819-1.764-1.197zM4.032 15.937c0.063 0 0.063 0 0 0 0.819 0.819 2.52 1.512 4.598 1.953 0.063 0 0.126 0 0.126 0.063 0.126 0.063 0.315 0.063 0.441 0.126 1.953 0.378 4.22 0.693 6.74 0.882 0 0 0 0 0 0s0 0 0 0c0.819 0.063 1.638 0.063 2.457 0.063 0.378 0 0.756 0 1.071 0 0.378 0 0.819 0 1.26 0 0.756 0 1.512-0.063 2.268-0.063 0 0 0 0 0 0s0 0 0 0c2.52-0.126 4.85-0.441 6.866-0.882-0.441 0.252-1.008 0.441-1.764 0.693v0c-2.205 0.693-5.732 1.323-10.268 1.449-0.126 0-0.252 0-0.378 0s-0.315 0-0.441 0c-0.378 0-0.756 0-1.134 0-0.504 0-1.008 0-1.512 0-0.189 0-0.378 0-0.567 0s-0.441 0-0.63 0c-3.969-0.315-7.307-0.882-9.386-1.512v0c-1.638-0.504-2.52-1.071-2.583-1.449 0.063-0.252 0.693-0.819 2.835-1.323zM1.197 21.354v-2.457c0.504 0.315 1.071 0.567 1.764 0.819v2.835l-0.315-0.126c-0.945-0.378-1.449-0.756-1.449-1.071zM2.961 27.905v-2.457c0.504 0.315 1.071 0.567 1.764 0.819v2.835c-1.134-0.441-1.764-0.882-1.764-1.197zM30.866 29.102v-2.835c0.693-0.252 1.323-0.504 1.764-0.819v2.457c0 0.315-0.63 0.756-1.764 1.197zM32.63 23.748c-0.063 0.378-0.945 0.945-2.583 1.449v0c-2.079 0.63-5.354 1.26-9.575 1.449-0.189 0-0.441 0-0.63 0s-0.378 0-0.567 0c-0.504 0-1.008 0-1.512 0s-1.008 0-1.512 0c-0.189 0-0.378 0-0.504 0-0.189 0-0.441 0-0.63 0-4.157-0.189-7.433-0.819-9.575-1.449v0c-1.575-0.504-2.457-1.008-2.583-1.386 0.189 0.063 0.378 0.126 0.567 0.189 0 0 0.063 0 0.063 0 0.189 0.063 0.315 0.126 0.504 0.126 0.063 0 0.126 0.063 0.189 0.063 0.126 0 0.189 0.063 0.315 0.063 2.142 0.567 4.913 0.945 7.874 1.134 0 0 0 0 0 0s0 0 0 0c0.945 0.063 1.89 0.063 2.835 0.126 0.252 0 0.504 0 0.756 0 0.315 0 0.63 0 1.008 0 0.882 0 1.701-0.063 2.583-0.126 0 0 0 0 0 0s0 0 0 0c1.008-0.063 2.016-0.126 2.961-0.252 0 0 0 0 0 0s0 0 0.063 0c1.071-0.126 2.079-0.252 2.961-0.441 0.189-0.063 0.378-0.063 0.567-0.126 0.063 0 0.063 0 0.126 0 1.764-0.378 3.276-0.819 4.283-1.386 0.063 0 0.126-0.063 0.189-0.063 0.063-0.063 0.126-0.063 0.189-0.126s0.126-0.063 0.189-0.126c1.071 0.378 1.386 0.756 1.449 0.882zM32.63 16v-2.835c0.693-0.252 1.323-0.504 1.764-0.819v2.457c0 0.378-0.63 0.819-1.764 1.197z"></path>
</svg>
