<!-- Generated by IcoMoon.io -->
<svg version="1.1" xmlns="http://www.w3.org/2000/svg" width="32" height="32" viewBox="0 0 32 32">
<path d="M16 1.119c-5.525 0-11.119 1.369-11.119 3.969v4.938c0 2.6 5.594 3.969 11.119 3.969s11.119-1.363 11.119-3.969v-4.938c0-2.6-5.594-3.969-11.119-3.969zM16 2.419c5.981 0 9.819 1.563 9.819 2.669s-3.837 2.669-9.819 2.669c-5.981 0-9.819-1.563-9.819-2.669s3.838-2.669 9.819-2.669zM16 12.694c-5.981 0-9.819-1.563-9.819-2.669v-2.975c1.975 1.319 5.912 2 9.819 2s7.844-0.681 9.819-2v2.975c0 1.106-3.837 2.669-9.819 2.669zM16 16.594c-5.981 0-9.819-1.563-9.819-2.669h-1.3v4.944c0 2.6 5.594 3.969 11.119 3.969s11.119-1.363 11.119-3.969v-4.944h-1.3c0 1.113-3.837 2.669-9.819 2.669zM25.819 18.869c0 1.106-3.837 2.669-9.819 2.669s-9.819-1.563-9.819-2.669v-2.994c3.9 2.669 15.738 2.669 19.638 0v2.994zM16 25.438c-5.981 0-9.819-1.563-9.819-2.669h-1.3v4.944c0 2.6 5.594 3.969 11.119 3.969s11.119-1.363 11.119-3.969v-4.938h-1.3c0 1.1-3.837 2.663-9.819 2.663zM25.819 27.712c0 1.106-3.837 2.669-9.819 2.669s-9.819-1.563-9.819-2.669v-2.994c3.9 2.669 15.738 2.669 19.638 0v2.994z"></path>
</svg>
