<!-- Generated by IcoMoon.io -->
<svg version="1.1" xmlns="http://www.w3.org/2000/svg" width="32" height="32" viewBox="0 0 32 32">
<path d="M13.531 13.166c-0.274-0.183-0.64-0.091-0.823 0.274v0c-0.183 0.274-0.091 0.64 0.274 0.823 0.091 0.091 0.183 0.091 0.274 0.091 0.183 0 0.457-0.091 0.549-0.274v0c0.091-0.366 0-0.823-0.274-0.914zM30.811 18.103l-4.754-8.32c0.549-0.366 1.006-1.006 1.006-1.829 0-0.366-0.091-0.731-0.274-1.006 2.194-0.549 3.931-2.469 3.931-4.846 0-0.366-0.274-0.64-0.64-0.64s-0.64 0.274-0.64 0.64c0 1.92-1.463 3.566-3.383 3.749l0.914-1.28c0.64-0.823 0.64-1.829 0.091-2.743-0.549-0.823-1.554-1.28-2.56-1.006l-1.189 0.274c-0.274 0.091-0.549 0-0.823-0.091l-1.006-0.549c-0.731-0.457-1.737-0.457-2.469 0l-0.914 0.457c-0.274 0.183-0.549 0.183-0.823 0.091l-1.189-0.274c-1.006-0.274-2.011 0.183-2.56 1.006s-0.549 1.92 0.091 2.743l1.189 1.554c-0.64 0.366-1.097 1.097-1.097 1.92 0 0.731 0.366 1.371 1.006 1.829l-0.914 1.554c-0.183 0.274-0.091 0.64 0.274 0.823 0.274 0.183 0.64 0.091 0.823-0.274l1.006-1.829h8.777l4.937 8.686c2.194 3.749 0.914 8.686-2.834 10.88-1.28 0.731-2.651 1.097-4.114 1.097h-4.754c-1.463 0-2.834-0.366-4.114-1.097l-0.091 0.183v-0.823h1.28c0.366 0 0.64-0.274 0.64-0.64v-3.017c0-0.366-0.274-0.64-0.64-0.64h-1.28v-1.737h1.28c0.366 0 0.64-0.274 0.64-0.64v-3.017c0-0.366-0.274-0.64-0.64-0.64h-4.023l1.371-2.469c0.183-0.274 0.091-0.64-0.274-0.823-0.274-0.183-0.64-0.091-0.823 0.274l-1.371 2.469c-0.091 0.183-0.183 0.366-0.366 0.64h-7.040c-0.366 0-0.64 0.274-0.64 0.64v2.377h-1.189c-0.366 0-0.64 0.274-0.64 0.64v3.017c0 0.366 0.274 0.64 0.64 0.64h1.28v1.737h-1.28c-0.366 0-0.64 0.274-0.64 0.549v3.017c0 0.366 0.274 0.64 0.64 0.64h12.526c0.366 0 0.64-0.274 0.64-0.64v-0.366c1.28 0.64 2.743 1.006 4.206 1.006h4.754c1.646 0 3.291-0.457 4.754-1.28 2.103-1.28 3.566-3.2 4.206-5.577 0.549-2.377 0.274-4.846-0.914-7.040zM15.36 8.686c-0.183-0.183-0.366-0.457-0.366-0.731 0-0.457 0.366-0.914 0.914-0.914h0.183c0 0 0 0 0 0s0 0 0 0h0.914l-1.646 1.646zM18.743 8.869h-1.737l1.737-1.737c0 0 0 0 0.091-0.091h1.737l-1.829 1.829zM22.217 8.869h-1.737l1.737-1.737c0 0 0 0 0.091-0.091h1.737l-1.829 1.829zM24.869 8.869h-0.823l1.463-1.463c0.183 0.183 0.274 0.366 0.274 0.64-0.091 0.457-0.457 0.823-0.914 0.823zM24.411 5.851h-8.137l-1.554-2.103c-0.366-0.457-0.274-1.006 0-1.28 0.183-0.274 0.64-0.64 1.189-0.457l1.189 0.274c0.64 0.183 1.28 0 1.737-0.274l1.006-0.549c0.366-0.183 0.823-0.183 1.189 0l1.006 0.549c0.549 0.366 1.189 0.457 1.737 0.274l1.189-0.274c0.549-0.091 1.006 0.183 1.189 0.457s0.274 0.823 0 1.28l-1.737 2.103zM3.109 20.023v0h6.857c0 0 0 0 0 0s0 0 0 0h4.389v1.737h-1.92v-0.64c0-0.366-0.274-0.64-0.64-0.64s-0.64 0.274-0.64 0.64v0.64h-1.92v-0.64c0-0.366-0.274-0.64-0.64-0.64s-0.64 0.274-0.64 0.64v0.64h-1.737v-0.64c0-0.366-0.274-0.64-0.64-0.64s-0.64 0.274-0.64 0.64v0.64h-1.829v-1.737zM1.28 24.777v-1.737h11.246v1.737h-1.92v-0.366c0-0.366-0.274-0.64-0.64-0.64s-0.64 0.274-0.64 0.64v0.366h-1.829v-0.366c0-0.366-0.274-0.64-0.64-0.64s-0.64 0.274-0.64 0.64v0.366h-1.829v-0.366c0-0.366-0.274-0.64-0.64-0.64s-0.64 0.274-0.64 0.64v0.366h-1.829zM12.526 30.72h-1.92v-0.549c0-0.366-0.274-0.64-0.64-0.64s-0.64 0.274-0.64 0.64v0.549h-1.829v-0.549c0-0.366-0.274-0.64-0.64-0.64s-0.64 0.274-0.64 0.64v0.549h-1.829v-0.549c0-0.366-0.274-0.64-0.64-0.64s-0.64 0.274-0.64 0.64v0.549h-1.829v-1.737h11.246v1.737zM12.526 27.794v-0.457c0-0.366-0.274-0.64-0.64-0.64s-0.64 0.274-0.64 0.64v0.457h-1.92v-0.457c0-0.366-0.274-0.64-0.64-0.64s-0.64 0.274-0.64 0.64v0.457h-1.829v-0.457c0-0.366-0.274-0.64-0.64-0.64s-0.64 0.274-0.64 0.64v0.457h-1.829v-1.737h11.246v1.737h-1.829zM20.297 21.12c-0.549 0-1.097-0.366-1.097-0.914 0-0.457 0.457-0.914 1.097-0.914 0.549 0 1.097 0.366 1.097 0.914 0 0.366 0.274 0.64 0.64 0.64s0.64-0.274 0.64-0.64c0-1.006-0.731-1.829-1.646-2.103v-0.091c0-0.366-0.274-0.64-0.64-0.64s-0.64 0.274-0.64 0.64v0.091c-1.006 0.274-1.646 1.097-1.646 2.103 0 1.189 1.006 2.103 2.286 2.103 0.549 0 1.097 0.366 1.097 0.914 0 0.457-0.457 0.823-1.006 0.914 0 0-0.091 0-0.091 0s-0.091 0-0.091 0c-0.549 0-1.006-0.457-1.006-0.914 0-0.366-0.274-0.64-0.64-0.64s-0.64 0.274-0.64 0.64c0 1.006 0.731 1.829 1.646 2.103v0.183c0 0.366 0.274 0.64 0.64 0.64s0.64-0.274 0.64-0.64v-0.183c1.006-0.274 1.646-1.097 1.646-2.103 0.091-1.189-1.006-2.103-2.286-2.103zM25.051 17.097c-2.469-2.469-6.491-2.56-9.143-0.183-0.274 0.274-0.274 0.64 0 0.914s0.64 0.274 0.914 0c2.103-1.92 5.394-1.829 7.406 0.183 2.103 2.103 2.103 5.486 0 7.589-1.097 1.097-2.651 1.737-4.297 1.554-0.366 0-0.64 0.183-0.64 0.549s0.183 0.64 0.549 0.64c0.183 0 0.366 0 0.64 0 1.737 0 3.474-0.731 4.663-1.92 2.469-2.56 2.469-6.766-0.091-9.326zM18.011 26.606c0 0 0 0 0 0-0.274-0.183-0.731 0-0.823 0.274-0.183 0.274 0 0.64 0.274 0.823v0c0.091 0 0.183 0.091 0.274 0.091 0.274 0 0.457-0.091 0.549-0.366 0.183-0.366 0-0.731-0.274-0.823z"></path>
</svg>
