<!-- Generated by IcoMoon.io -->
<svg version="1.1" xmlns="http://www.w3.org/2000/svg" width="32" height="32" viewBox="0 0 32 32">
<path d="M30.137 7.537h-20.13l-0.531-2.145c-0.231-0.936-1.065-1.59-2.030-1.59h-0.59v-0.575c0-0.538-0.438-0.976-0.976-0.976h-3.681c-1.212 0-2.199 0.987-2.199 2.199s0.987 2.199 2.199 2.199h3.681c0.538 0 0.976-0.438 0.976-0.976v-0.621h0.589c0.388 0 0.723 0.263 0.816 0.64 0.002 0.007 3.909 15.91 4.782 19.309-0.843 0.392-1.429 1.247-1.429 2.236 0 1.359 1.106 2.465 2.465 2.465 1.144 0 2.107-0.782 2.385-1.84h9.652c0.277 1.058 1.241 1.84 2.385 1.84 1.359 0 2.465-1.106 2.465-2.465s-1.106-2.465-2.465-2.465c-1.144 0-2.107 0.783-2.385 1.84h-9.652c-0.261-0.996-1.132-1.748-2.188-1.832l-0.308-1.243c0.359 0.145 0.751 0.225 1.158 0.225h12.235c1.532 0 2.845-1.145 3.053-2.663 0.475-3.468 1.455-10.626 1.568-11.446 0.153-1.119-0.718-2.116-1.846-2.116zM5.606 5.398h-3.407c-0.523 0-0.949-0.426-0.949-0.949s0.426-0.949 0.949-0.949h3.407zM28.502 26.021c0.67 0 1.215 0.545 1.215 1.215s-0.545 1.215-1.215 1.215c-0.67 0-1.215-0.545-1.215-1.215s0.545-1.215 1.215-1.215zM15.296 27.236c0 0.67-0.545 1.215-1.215 1.215s-1.216-0.545-1.216-1.215c0-0.67 0.545-1.215 1.216-1.215s1.215 0.545 1.215 1.215zM29.176 20.929c-0.124 0.902-0.904 1.582-1.814 1.582h-12.235c-0.753 0-1.416-0.456-1.693-1.137l-2.387-9.637h11.354c0.345 0 0.625-0.28 0.625-0.625s-0.28-0.625-0.625-0.625h-11.664l-0.421-1.701h19.821c0.371 0 0.658 0.326 0.607 0.696l-0.138 1.005h-3.206c-0.345 0-0.625 0.28-0.625 0.625s0.28 0.625 0.625 0.625h3.034z"></path>
<path d="M21.199 12.971c-0.345 0-0.625 0.28-0.625 0.625v6c0 0.345 0.28 0.625 0.625 0.625s0.625-0.28 0.625-0.625v-6c0-0.345-0.28-0.625-0.625-0.625z"></path>
<path d="M15.172 14.269c-0.075-0.337-0.409-0.549-0.746-0.475s-0.55 0.409-0.475 0.746l1.154 5.191c0.065 0.291 0.323 0.489 0.61 0.489 0.4 0 0.698-0.37 0.611-0.761z"></path>
<path d="M27.475 13.784c-0.343-0.041-0.654 0.204-0.695 0.546l-0.624 5.211c-0.041 0.343 0.204 0.654 0.546 0.695 0.025 0.003 0.050 0.004 0.075 0.004 0.312 0 0.582-0.233 0.62-0.551l0.624-5.211c0.041-0.343-0.204-0.654-0.546-0.695z"></path>
<path d="M24.902 10.487h-0.001c-0.345 0-0.624 0.28-0.624 0.625s0.281 0.625 0.626 0.625 0.625-0.28 0.625-0.625c0-0.345-0.28-0.625-0.625-0.625z"></path>
</svg>
