<!-- Generated by IcoMoon.io -->
<svg version="1.1" xmlns="http://www.w3.org/2000/svg" width="32" height="32" viewBox="0 0 32 32">
<path d="M16 0.8c-8.822 0-16 6.46-16 14.4 0 2.776 0.878 5.465 2.543 7.789-0.315 3.486-1.16 6.075-2.387 7.301-0.162 0.162-0.203 0.41-0.1 0.615 0.091 0.183 0.277 0.295 0.477 0.295 0.025 0 0.050-0.002 0.075-0.005 0.216-0.030 5.234-0.753 8.862-2.847 2.061 0.831 4.257 1.252 6.53 1.252 8.822 0 16-6.46 16-14.4s-7.178-14.4-16-14.4zM16 28.533c-1.86 0-3.661-0.304-5.373-0.896 2.173-1.358 2.179-1.454 2.177-1.769-0.001-0.186-0.102-0.364-0.262-0.459-0.243-0.146-0.556-0.076-0.713 0.155-0.293 0.232-1.55 1.038-2.675 1.733v0c-2.381 1.438-5.587 2.241-7.365 2.603 1.174-1.957 1.649-4.793 1.835-7.019 0.011-0.129-0.026-0.257-0.102-0.361-1.605-2.177-2.454-4.708-2.454-7.32 0-7.352 6.699-13.333 14.933-13.333s14.933 5.981 14.933 13.333-6.699 13.333-14.933 13.333z"></path>
</svg>
