<!-- Generated by IcoMoon.io -->
<svg version="1.1" xmlns="http://www.w3.org/2000/svg" width="32" height="32" viewBox="0 0 32 32">
<path d="M12.633 0l6.733 0.035c3.54 0 6.525 1.215 8.989 3.644 2.43 2.429 3.679 5.414 3.679 8.954v0.035c0 1.909-0.451 3.748-1.319 5.553s-2.082 3.367-3.61 4.685c-1.909 1.631-6.282 4.581-13.085 8.92-0.208 0.139-0.416 0.174-0.659 0.174-0.451 0-0.798-0.174-1.041-0.555-0.139-0.208-0.174-0.416-0.174-0.659v-6.178c-3.471-0.139-6.351-1.319-8.642-3.575-2.36-2.291-3.505-5.067-3.505-8.399 0-3.54 1.215-6.525 3.679-8.989 2.429-2.429 5.414-3.644 8.954-3.644zM25.51 21.033c1.249-1.076 2.256-2.36 2.985-3.852s1.076-2.985 1.076-4.547c0-2.846-0.972-5.276-2.95-7.219-1.978-1.978-4.408-2.95-7.254-2.95l-6.733-0.035c-2.846 0-5.276 0.972-7.254 2.95s-2.95 4.408-2.95 7.254c0 2.742 0.972 5.033 2.915 6.837s4.373 2.707 7.358 2.707h0.659c0.312 0 0.625 0.104 0.868 0.347s0.347 0.521 0.347 0.868v5.171c6.039-3.991 9.683-6.49 10.933-7.531z"></path>
</svg>
