<!-- Generated by IcoMoon.io -->
<svg version="1.1" xmlns="http://www.w3.org/2000/svg" width="32" height="32" viewBox="0 0 32 32">
<path d="M18.884 20.89c1.935-0.815 3.461-1.925 4.58-3.33s1.679-2.934 1.679-4.589c0-1.655-0.56-3.184-1.679-4.589s-2.646-2.515-4.58-3.331c-1.935-0.816-4.039-1.223-6.313-1.223s-4.378 0.408-6.313 1.223c-1.934 0.816-3.461 1.926-4.58 3.33s-1.679 2.934-1.679 4.589c0 1.417 0.423 2.75 1.268 4s2.006 2.304 3.482 3.161c-0.119 0.286-0.241 0.548-0.366 0.786s-0.274 0.467-0.447 0.687c-0.173 0.22-0.306 0.393-0.402 0.518s-0.25 0.301-0.464 0.527c-0.214 0.226-0.351 0.375-0.411 0.446 0-0.012-0.024 0.015-0.071 0.081s-0.075 0.095-0.080 0.090c-0.006-0.006-0.030 0.023-0.071 0.089s-0.063 0.098-0.063 0.098l-0.045 0.089c-0.018 0.036-0.030 0.071-0.036 0.107s-0.009 0.074-0.009 0.116 0.006 0.080 0.018 0.116c0.024 0.155 0.092 0.279 0.205 0.375s0.235 0.143 0.366 0.143h0.054c0.595-0.083 1.107-0.178 1.536-0.286 1.833-0.476 3.488-1.238 4.964-2.286 1.071 0.191 2.119 0.286 3.143 0.286 2.274 0.001 4.378-0.407 6.313-1.222zM8.893 19.4l-0.786 0.553c-0.333 0.226-0.702 0.459-1.107 0.697l0.625-1.5-1.732-1c-1.143-0.666-2.030-1.452-2.661-2.357s-0.946-1.845-0.946-2.822c0-1.214 0.467-2.351 1.402-3.411s2.193-1.899 3.777-2.518c1.583-0.619 3.286-0.929 5.107-0.929s3.524 0.31 5.107 0.929c1.583 0.619 2.842 1.459 3.777 2.518s1.402 2.196 1.402 3.411c0 1.214-0.467 2.351-1.402 3.411s-2.194 1.899-3.777 2.518c-1.583 0.619-3.286 0.929-5.107 0.929-0.893 0-1.803-0.084-2.732-0.25l-0.946-0.178zM30.732 21.55c0.846-1.244 1.268-2.58 1.268-4.009 0-1.464-0.447-2.834-1.339-4.107s-2.107-2.333-3.643-3.179c0.274 0.893 0.41 1.798 0.41 2.714 0 1.595-0.398 3.107-1.196 4.536s-1.941 2.69-3.429 3.786c-1.381 1-2.953 1.768-4.715 2.304s-3.601 0.804-5.518 0.804c-0.357 0-0.881-0.024-1.571-0.071 2.393 1.571 5.202 2.357 8.429 2.357 1.024 0 2.071-0.095 3.143-0.286 1.476 1.048 3.131 1.81 4.964 2.286 0.429 0.107 0.941 0.202 1.536 0.286 0.143 0.012 0.274-0.030 0.393-0.125s0.197-0.226 0.232-0.393c-0.006-0.072 0-0.111 0.018-0.116s0.015-0.045-0.009-0.116c-0.024-0.072-0.036-0.107-0.036-0.107l-0.045-0.089c-0.012-0.024-0.033-0.056-0.062-0.098s-0.053-0.071-0.072-0.089c-0.017-0.018-0.044-0.048-0.080-0.089s-0.059-0.068-0.072-0.080c-0.059-0.072-0.196-0.22-0.411-0.447s-0.369-0.402-0.464-0.527c-0.095-0.125-0.229-0.298-0.402-0.518s-0.322-0.449-0.447-0.687c-0.125-0.238-0.247-0.5-0.366-0.786 1.476-0.858 2.637-1.908 3.481-3.153z"></path>
</svg>
