<!-- Generated by IcoMoon.io -->
<svg version="1.1" xmlns="http://www.w3.org/2000/svg" width="32" height="32" viewBox="0 0 32 32">
<path d="M26.020 17.433h-10.020c-0.259 0-0.47 0.21-0.47 0.47v5.511c0 0.259 0.21 0.47 0.47 0.47h10.020c0.259 0 0.47-0.21 0.47-0.47v-5.511c0-0.259-0.21-0.47-0.47-0.47zM20.54 22.944h-4.070v-4.571h4.070v4.571zM25.55 22.944h-4.070v-4.571h4.070v4.571zM12.493 22.944c-0.259 0-0.47 0.21-0.47 0.47v1.503c0 0.259 0.21 0.47 0.47 0.47s0.47-0.21 0.47-0.47v-1.503c0-0.259-0.21-0.47-0.47-0.47zM30.027 5.41h-9.55v-0.564h3.538c0.259 0 0.47-0.21 0.47-0.47v-3.507c0-0.259-0.21-0.47-0.47-0.47h-16.031c-0.259 0-0.47 0.21-0.47 0.47v3.507c0 0.259 0.21 0.47 0.47 0.47h3.538v0.564h-9.55c-0.259 0-0.47 0.21-0.47 0.47v8.015c0 1.203 0.864 2.208 2.004 2.428v2.143c0 0.259 0.21 0.47 0.47 0.47s0.47-0.21 0.47-0.47v-2.143c0.628-0.121 1.172-0.481 1.534-0.981 0.45 0.621 1.18 1.026 2.004 1.026s1.554-0.405 2.004-1.026c0.45 0.621 1.18 1.026 2.004 1.026s1.554-0.405 2.004-1.026c0.45 0.621 1.18 1.026 2.004 1.026s1.554-0.405 2.004-1.026c0.45 0.621 1.18 1.026 2.004 1.026s1.554-0.405 2.004-1.026c0.45 0.621 1.18 1.026 2.004 1.026s1.554-0.405 2.004-1.026c0.362 0.5 0.906 0.859 1.534 0.981v15.137h-1.065v-1.534c0-0.259-0.21-0.47-0.47-0.47h-1.101c0.646-0.447 1.070-1.192 1.070-2.035 0-1.364-1.11-2.474-2.474-2.474s-2.474 1.11-2.474 2.474c0 0.843 0.424 1.588 1.070 2.035h-2.203c0.646-0.447 1.070-1.192 1.070-2.035 0-1.364-1.11-2.474-2.474-2.474s-2.474 1.11-2.474 2.474c0 0.843 0.424 1.588 1.070 2.035h-1.102c-0.259 0-0.47 0.21-0.47 0.47v1.534h-1.065v-13.558c0-0.259-0.21-0.47-0.47-0.47h-8.016c-0.259 0-0.47 0.21-0.47 0.47v13.558h-1.065v-10.74c0-0.259-0.21-0.47-0.47-0.47s-0.47 0.21-0.47 0.47v11.209c0 0.259 0.21 0.47 0.47 0.47h24.047c0.259 0 0.47-0.21 0.47-0.47v-15.607c1.14-0.22 2.004-1.225 2.004-2.428v-8.016c0-0.259-0.21-0.47-0.47-0.47zM5.511 13.895c0 0.846-0.688 1.534-1.534 1.534s-1.534-0.688-1.534-1.534v-0.532h3.069v0.532zM5.511 12.424h-3.068v-6.074h3.068v6.074zM9.519 13.895c0 0.846-0.688 1.534-1.534 1.534s-1.534-0.688-1.534-1.534v-0.532h3.069v0.532zM9.519 12.424h-3.069v-6.074h3.069v6.074zM8.454 3.907v-2.567h15.092v2.567h-15.092zM13.526 13.895c0 0.846-0.688 1.534-1.534 1.534s-1.534-0.688-1.534-1.534v-0.532h3.069v0.532zM13.526 12.424h-3.069v-6.074h3.069v6.074zM17.534 13.895c0 0.846-0.688 1.534-1.534 1.534s-1.534-0.688-1.534-1.534v-0.532h3.069v0.532zM17.534 12.424h-3.069v-6.074h3.069v6.074zM12.462 5.41v-0.564h7.076v0.564h-7.076zM21.542 13.895c0 0.846-0.688 1.534-1.534 1.534s-1.534-0.688-1.534-1.534v-0.532h3.069v0.532zM21.542 12.424h-3.069v-6.074h3.069v6.074zM25.55 13.895c0 0.846-0.688 1.534-1.534 1.534s-1.534-0.688-1.534-1.534v-0.532h3.069v0.532zM25.55 12.424h-3.069v-6.074h3.069v6.074zM13.526 31.461h-7.076v-13.088h7.076v13.088zM21.98 27.422c0-0.846 0.688-1.534 1.534-1.534s1.534 0.688 1.534 1.534-0.688 1.534-1.534 1.534c-0.846 0-1.534-0.688-1.534-1.534zM16.971 27.422c0-0.846 0.688-1.534 1.534-1.534s1.534 0.688 1.534 1.534-0.688 1.534-1.534 1.534c-0.846 0-1.534-0.688-1.534-1.534zM25.55 31.461h-9.080v-1.065h9.080v1.065zM29.558 13.895c0 0.846-0.688 1.534-1.534 1.534s-1.534-0.688-1.534-1.534v-0.532h3.069v0.532zM29.558 12.424h-3.069v-6.074h3.069v6.074z"></path>
</svg>
