<!-- Generated by IcoMoon.io -->
<svg version="1.1" xmlns="http://www.w3.org/2000/svg" width="32" height="32" viewBox="0 0 32 32">
<path d="M17.061 21.465h8.531c0.32 0 0.533-0.213 0.533-0.533v-4.799c0-0.32-0.213-0.533-0.533-0.533h-8.531c-0.32 0-0.533 0.213-0.533 0.533v4.799c-0 0.32 0.213 0.533 0.533 0.533zM17.595 16.667h7.464v3.732h-7.464v-3.732zM2.666 14.534h4.265c0.32 0 0.533-0.213 0.533-0.533s-0.213-0.533-0.533-0.533h-4.265c-0.32 0-0.533 0.213-0.533 0.533s0.213 0.533 0.533 0.533zM9.064 14.534h4.265c0.32 0 0.533-0.213 0.533-0.533s-0.213-0.533-0.533-0.533h-4.265c-0.32 0-0.533 0.213-0.533 0.533s0.213 0.533 0.533 0.533zM2.666 16.667h6.931c0.32 0 0.533-0.213 0.533-0.533s-0.213-0.533-0.533-0.533h-6.931c-0.32 0-0.533 0.213-0.533 0.533s0.213 0.533 0.533 0.533zM13.329 15.6h-1.599c-0.32 0-0.533 0.213-0.533 0.533s0.213 0.533 0.533 0.533h1.599c0.32 0 0.533-0.213 0.533-0.533s-0.213-0.533-0.533-0.533zM31.51 8.989c-0.373-0.48-0.853-0.746-1.44-0.8l-1.28-0.155v-2.564c0-1.173-0.96-2.133-2.133-2.133h-24.526c-1.173-0-2.133 0.96-2.133 2.133v17.061c0 0.963 0.647 1.782 1.528 2.044-0.027 1.079 0.789 2.015 1.884 2.114l24.632 2.772c0.053 0 0.16 0 0.213 0 1.066 0 2.026-0.8 2.133-1.813l1.599-17.115c0.053-0.533-0.107-1.12-0.48-1.546zM1.066 7.070h26.658v3.199h-26.658v-3.199zM2.133 4.404h24.526c0.587 0 1.066 0.48 1.066 1.066v0.533h-26.658v-0.533c0-0.587 0.48-1.066 1.066-1.066zM1.066 22.531v-11.197h26.658v11.197c0 0.587-0.48 1.066-1.066 1.066h-24.526c-0.587 0-1.066-0.48-1.066-1.066zM30.924 10.322l-1.599 17.115c-0.053 0.587-0.587 1.013-1.173 0.96l-24.579-2.772c-0.533-0.053-0.906-0.48-0.96-0.96h24.046c1.173 0 2.133-0.96 2.133-2.133v-13.489l1.226 0.107c0.267 0 0.533 0.16 0.693 0.373s0.267 0.533 0.213 0.8z"></path>
</svg>
