<!-- Generated by IcoMoon.io -->
<svg version="1.1" xmlns="http://www.w3.org/2000/svg" width="32" height="32" viewBox="0 0 32 32">
<path d="M28.8 1.067h-25.6c-1.734 0-3.2 1.466-3.2 3.2v17.6c0 1.734 1.466 3.2 3.2 3.2h4.267v5.333c0 0.22 0.135 0.418 0.341 0.498 0.063 0.024 0.128 0.036 0.193 0.036 0.147 0 0.292-0.061 0.395-0.174l5.174-5.692h15.231c1.734 0 3.2-1.466 3.2-3.2v-17.6c0-1.734-1.466-3.2-3.2-3.2zM30.933 21.867c0 1.156-0.977 2.133-2.133 2.133h-14.305l1.909-2.219c0.192-0.223 0.167-0.56-0.057-0.752s-0.561-0.166-0.753 0.057l-2.666 3.099-4.396 4.836v-4.487c0-0.294-0.239-0.533-0.533-0.533h-4.8c-1.156 0-2.133-0.977-2.133-2.133v-17.6c0-1.156 0.977-2.133 2.133-2.133h25.6c1.156 0 2.133 0.977 2.133 2.133v17.6z"></path>
</svg>
