<!-- Generated by IcoMoon.io -->
<svg version="1.1" xmlns="http://www.w3.org/2000/svg" width="32" height="32" viewBox="0 0 32 32">
<path d="M30.532 11.762h-3.148l-1.591-6.24c-0.2-0.784-1.001-1.259-1.785-1.059l-3.628 0.925c-0.245 0.062-0.392 0.311-0.33 0.556s0.311 0.392 0.556 0.33l3.628-0.925c0.296-0.075 0.597 0.104 0.672 0.399l0.176 0.691-23.975 6.114-0.176-0.691c-0.036-0.143-0.015-0.292 0.060-0.419s0.196-0.217 0.339-0.254l16.491-4.205c0.245-0.062 0.392-0.311 0.33-0.556s-0.311-0.392-0.556-0.33l-16.491 4.205c-0.784 0.2-1.259 1.001-1.059 1.785l3.382 13.262c0.169 0.663 0.767 1.105 1.422 1.105 0.12 0 0.241-0.015 0.362-0.046l0.216-0.055v0.563c0 0.809 0.658 1.468 1.468 1.468h23.637c0.809 0 1.468-0.658 1.468-1.468v-13.686c0-0.809-0.658-1.467-1.468-1.467zM5.429 25.409l-0.442 0.113c-0.295 0.075-0.597-0.104-0.673-0.399l-2.070-8.118 3.185-0.812v9.216zM5.429 13.23v2.020l-3.411 0.87-0.684-2.681 4.418-1.127c-0.202 0.252-0.324 0.571-0.324 0.918zM26.441 11.762h-3.635l3.413-0.87 0.222 0.87zM25.309 7.325l0.684 2.681-6.888 1.756h-11.197l17.401-4.437zM30.532 27.469h-23.636c-0.305 0-0.553-0.248-0.553-0.553v-13.686c0-0.305 0.248-0.553 0.553-0.553h23.636c0.305 0 0.553 0.248 0.553 0.553v13.686c0 0.305-0.248 0.553-0.553 0.553zM18.209 23.018h-9.963c-0.253 0-0.457 0.205-0.457 0.457s0.205 0.457 0.457 0.457h9.963c0.253 0 0.457-0.205 0.457-0.457s-0.205-0.457-0.457-0.457zM25.828 14.978c-0.657 0-1.264 0.212-1.76 0.57-0.51-0.37-1.123-0.57-1.762-0.57-1.66 0-3.010 1.35-3.010 3.010s1.351 3.010 3.010 3.010c0.639 0 1.251-0.201 1.762-0.57 0.495 0.358 1.103 0.57 1.76 0.57 1.66 0 3.010-1.35 3.010-3.010s-1.35-3.010-3.010-3.010zM22.822 18.131c0.001 0.012 0.001 0.023 0.002 0.035 0.002 0.038 0.005 0.076 0.009 0.115 0.001 0.009 0.002 0.018 0.003 0.027 0.056 0.535 0.251 1.037 0.569 1.466-0.328 0.202-0.705 0.31-1.097 0.31-1.156 0-2.096-0.94-2.096-2.096s0.94-2.096 2.096-2.096c0.392 0 0.77 0.108 1.097 0.31-0.318 0.429-0.513 0.931-0.569 1.466-0.001 0.009-0.002 0.018-0.003 0.027-0.004 0.038-0.006 0.076-0.009 0.115-0.001 0.012-0.002 0.023-0.002 0.035-0.002 0.047-0.004 0.095-0.004 0.143s0.001 0.095 0.004 0.143zM25.829 20.084c-0.572 0-1.091-0.231-1.47-0.604-0.008-0.008-0.015-0.015-0.023-0.023-0.017-0.018-0.035-0.036-0.052-0.054-0.005-0.005-0.009-0.010-0.014-0.015-0.020-0.022-0.039-0.044-0.058-0.067-0-0-0-0-0-0-0.299-0.362-0.479-0.827-0.479-1.332s0.18-0.97 0.479-1.332c0-0 0-0 0-0 0.019-0.023 0.038-0.045 0.058-0.067 0.005-0.005 0.009-0.010 0.014-0.015 0.017-0.018 0.034-0.036 0.052-0.054 0.008-0.008 0.015-0.015 0.023-0.023 0.379-0.373 0.898-0.604 1.47-0.604 1.156 0 2.096 0.94 2.096 2.096s-0.94 2.096-2.096 2.096zM11.504 15.275h-2.005c-0.943 0-1.71 0.767-1.71 1.71v2.005c-0 0.943 0.767 1.71 1.71 1.71h2.005c0.943 0 1.71-0.767 1.71-1.71v-2.005c0-0.943-0.767-1.71-1.71-1.71zM12.3 18.234h-0.975c-0.252 0-0.457 0.205-0.457 0.457s0.205 0.457 0.457 0.457h0.96c-0.073 0.364-0.395 0.638-0.78 0.638h-2.005c-0.385 0-0.707-0.275-0.78-0.638h0.96c0.252 0 0.457-0.205 0.457-0.457s-0.205-0.457-0.457-0.457h-0.975v-0.396h0.975c0.252 0 0.457-0.205 0.457-0.457s-0.205-0.457-0.457-0.457h-0.972c0.032-0.41 0.375-0.733 0.793-0.733h2.005c0.418 0 0.761 0.324 0.793 0.733h-0.972c-0.252 0-0.457 0.205-0.457 0.457s0.205 0.457 0.457 0.457h0.975v0.396zM28.945 25.030h-15.921c-0.252 0-0.457 0.205-0.457 0.457s0.205 0.457 0.457 0.457h15.921c0.253 0 0.457-0.205 0.457-0.457s-0.205-0.457-0.457-0.457zM10.109 25.030h-1.863c-0.253 0-0.457 0.205-0.457 0.457s0.205 0.457 0.457 0.457h1.863c0.252 0 0.457-0.205 0.457-0.457s-0.205-0.457-0.457-0.457z"></path>
</svg>
