<!-- Generated by IcoMoon.io -->
<svg version="1.1" xmlns="http://www.w3.org/2000/svg" width="32" height="32" viewBox="0 0 32 32">
<path d="M31.76 24c-0.36-0.46-0.7-0.8-1.16-1l-2.9-1.46c-0.060-0.040-0.2-0.26-0.2-0.54v-0.36c0.66-0.7 1-1.66 1-2.66v-1c0-0.8-0.3-1.56-0.9-2.1-0.54-0.6-1.3-0.9-2.1-0.9s-1.54 0.3-2.1 0.9c-0.6 0.56-0.9 1.3-0.9 2.1v1c0 0.96 0.36 1.96 1 2.66v0.36c0 0.3-0.14 0.5-0.2 0.54l-1.56 0.76-2.54-1.26c-0.060-0.040-0.2-0.2-0.2-0.54v-1.7c0.9-0.9 1.4-2.16 1.5-3.4 0.1-0.060 0.16-0.1 0.2-0.14 0.2-0.26 0.3-0.5 0.3-0.76v-2.5c0-1.36-0.5-2.6-1.46-3.56-0.94-0.94-2.2-1.44-3.54-1.44-1.36 0-2.6 0.5-3.56 1.46-0.94 0.94-1.44 2.2-1.44 3.54v2.5c0 0.26 0.1 0.5 0.3 0.7 0.060 0.060 0.14 0.1 0.2 0.16 0.1 1.26 0.6 2.54 1.5 3.4v1.76c0 0.36-0.14 0.5-0.2 0.54l-2.56 1.26-1.56-0.76c-0.060-0.040-0.2-0.26-0.2-0.54v-0.36c0.66-0.7 1-1.66 1-2.66v-1c0-0.8-0.3-1.56-0.9-2.1-0.56-0.6-1.3-0.9-2.1-0.9s-1.56 0.3-2.1 0.9c-0.6 0.56-0.9 1.3-0.9 2.1v1c0 0.96 0.36 1.96 1 2.66v0.36c0 0.3-0.16 0.5-0.2 0.54l-2.88 1.44c-0.4 0.2-0.76 0.54-1 0.9-0.26 0.4-0.4 0.86-0.4 1.36v1.56l0.66 0.3c0.9 0.46 1.86 0.8 2.86 1 0.66 0.16 1.36 0.26 2.060 0.3v3.6h1v-4.5c0-2.2 1.56-2.96 3.7-4.060h0.12v-0.060l2.3-1.14c0.3 1.54 1.7 2.74 3.36 2.74s3.060-1.16 3.4-2.76l2.3 1.14v0.060h0.1c2.16 1.1 3.7 1.86 3.7 4.060v4.5h1v-3.54c0.7-0.060 1.4-0.16 2.060-0.3 1-0.26 1.96-0.6 2.86-1l0.66-0.3v-1.56c-0.040-0.44-0.18-0.9-0.38-1.3zM4.5 17c0-0.56 0.2-1.060 0.6-1.4 0.4-0.4 0.9-0.6 1.4-0.6s1.060 0.2 1.4 0.6c0.4 0.4 0.6 0.9 0.6 1.4v1c0 1.040-0.6 2.5-2 2.5s-2-1.46-2-2.5v-1zM5.5 27.46c-0.6-0.060-1.26-0.16-1.8-0.3-0.9-0.2-1.8-0.54-2.6-0.96h-0.1v-0.96c0-0.3 0.1-0.56 0.2-0.8 0.16-0.26 0.36-0.46 0.6-0.54l2.9-1.46c0.3-0.14 0.66-0.54 0.76-1.14 0.3 0.14 0.66 0.2 1.060 0.2s0.7-0.040 1.060-0.2c0.1 0.54 0.44 1 0.76 1.14l0.86 0.46c-2 0.96-3.7 2.060-3.7 4.56zM13.16 9.16c0.74-0.76 1.74-1.16 2.84-1.16 1.060 0 2.060 0.4 2.86 1.16 0.7 0.7 1.1 1.6 1.14 2.6-0.3-0.14-0.64-0.26-1-0.26h-0.5c-0.14 0-0.26-0.060-0.36-0.14-0.1-0.1-0.16-0.2-0.16-0.36 0-0.2-0.1-0.4-0.3-0.46-0.2-0.1-0.4-0.060-0.56 0.1l-0.86 0.86h-3.26c-0.36 0-0.7 0.1-1 0.26 0.060-0.96 0.46-1.9 1.16-2.6zM12.5 15c0-0.3-0.2-0.5-0.5-0.5v-1c0-0.26 0.1-0.5 0.3-0.7s0.44-0.3 0.7-0.3h3.5c0.16 0 0.26-0.060 0.36-0.14l0.46-0.46c0.060 0.060 0.1 0.1 0.16 0.16 0.3 0.3 0.66 0.44 1.040 0.44h0.48c0.26 0 0.5 0.1 0.7 0.3s0.3 0.46 0.3 0.7v1c-0.3 0-0.5 0.2-0.5 0.5 0 1.56-0.96 4-3.5 4s-3.5-2.44-3.5-4zM16 24c-1.3 0-2.36-1-2.5-2.26 0.3-0.3 0.5-0.76 0.5-1.26v-1c0.56 0.3 1.26 0.5 2 0.5s1.46-0.2 2-0.5v1c0 0.5 0.2 0.96 0.5 1.26-0.14 1.26-1.2 2.26-2.5 2.26zM23.5 17c0-0.56 0.2-1.060 0.6-1.4 0.4-0.4 0.9-0.6 1.4-0.6s1.060 0.2 1.4 0.6c0.4 0.4 0.6 0.9 0.6 1.4v1c0 1.040-0.6 2.5-2 2.5s-2-1.46-2-2.5v-1zM31 26.2l-0.1 0.060c-0.86 0.4-1.7 0.76-2.6 0.96-0.6 0.16-1.2 0.26-1.8 0.3 0-2.5-1.7-3.6-3.64-4.6l0.86-0.46c0.3-0.16 0.66-0.54 0.76-1.16 0.3 0.16 0.66 0.2 1.040 0.2 0.4 0 0.7-0.060 1.060-0.2 0.1 0.56 0.46 1 0.76 1.16l2.9 1.46c0.26 0.1 0.46 0.3 0.6 0.54s0.2 0.5 0.2 0.8v0.94zM9.5 29h1v3h-1v-3zM21.5 29h1v3h-1v-3zM23 8h1v1h-1v-1zM25 8h1v1h-1v-1zM27 8h1v1h-1v-1zM20 5.5h11v6h-1.5v1.3l-1.16-1.14c-0.1-0.1-0.2-0.14-0.36-0.14h-6v1h5.8l1.86 1.86c0.1 0.1 0.2 0.16 0.36 0.16 0.060 0 0.16 0 0.2-0.060 0.2-0.1 0.3-0.26 0.3-0.46v-1.5h1.5v-8h-13v2.48h1v-1.5zM3 3h10v1h-10v-1zM3 5h10v1h-10v-1zM3 7h7v1h-7v-1zM1.5 12.5c0 0.2 0.1 0.4 0.3 0.46 0.060 0.040 0.16 0.040 0.2 0.040 0.16 0 0.26-0.060 0.36-0.14l1.84-1.86h5.8v-1h-6c-0.16 0-0.26 0.060-0.34 0.16l-1.16 1.16v-1.32h-1.5v-9h14v5h1v-6h-16v11h1.5v1.5z"></path>
</svg>
