<!-- Generated by IcoMoon.io -->
<svg version="1.1" xmlns="http://www.w3.org/2000/svg" width="32" height="32" viewBox="0 0 32 32">
<path d="M27.685 0.956h-23.369c-2.378 0-4.315 1.937-4.315 4.315v15.765c0 2.378 1.937 4.315 4.315 4.315h0.499l-0.048 6.502 9.407-6.502h13.502c2.378 0 4.315-1.937 4.315-4.315v-15.765c0.010-2.378-1.927-4.315-4.306-4.315zM30.763 21.037c0 1.697-1.381 3.078-3.078 3.078h-13.886l-7.777 5.37 0.038-5.37h-1.745c-1.697 0-3.078-1.381-3.078-3.078v-15.765c0-1.697 1.381-3.078 3.078-3.078h23.369c1.697 0 3.078 1.381 3.078 3.078v15.765zM6.53 7.333h18.949v1.237h-18.949v-1.237zM6.53 12.55h18.949v1.237h-18.949v-1.237zM6.53 17.767h14.020v1.237h-14.020v-1.237z"></path>
</svg>
