<!-- Generated by IcoMoon.io -->
<svg version="1.1" xmlns="http://www.w3.org/2000/svg" width="33" height="32" viewBox="0 0 33 32">
<path d="M30.914 0h-28.742c-1.15 0-2.172 1.022-2.172 2.236v18.204c0 0.319 0.256 0.575 0.575 0.575h32c0.319 0 0.575-0.256 0.575-0.575v-18.204c0-1.214-1.022-2.236-2.236-2.236zM32 19.864h-30.914v-17.629c0-0.639 0.511-1.086 1.086-1.086h28.742c0.639 0 1.086 0.511 1.086 1.086v17.629z"></path>
<path d="M32.575 19.864h-32c-0.319 0-0.575 0.256-0.575 0.575v2.747c0 1.214 1.022 2.236 2.236 2.236h28.742c1.214 0 2.236-1.022 2.236-2.236v-2.747c-0.064-0.319-0.319-0.575-0.639-0.575zM32 23.186c0 0.639-0.511 1.086-1.086 1.086h-28.742c-0.639 0-1.086-0.511-1.086-1.086v-2.236h30.914v2.236z"></path>
<path d="M18.204 22.1h-3.321c-0.319 0-0.575 0.256-0.575 0.575s0.255 0.575 0.575 0.575h3.321c0.319 0 0.575-0.256 0.575-0.575s-0.256-0.575-0.575-0.575z"></path>
<path d="M30.339 2.236h-27.593c-0.319 0-0.575 0.256-0.575 0.575v17.629c0 0.319 0.256 0.575 0.575 0.575h27.593c0.319 0 0.575-0.256 0.575-0.575v-17.693c0-0.319-0.256-0.511-0.575-0.511zM29.828 19.864h-26.507v-16.543h26.507v16.543z"></path>
<path d="M23.76 28.742h-14.371c-0.894 0-1.661 0.766-1.661 1.661s0.766 1.661 1.661 1.661h14.371c0.894 0 1.661-0.766 1.661-1.661 0-0.958-0.766-1.661-1.661-1.661zM23.76 30.914h-14.371c-0.319 0-0.575-0.256-0.575-0.575s0.255-0.575 0.575-0.575h14.371c0.319 0 0.575 0.256 0.575 0.575s-0.319 0.575-0.575 0.575z"></path>
<path d="M22.611 28.742c-1.852 0-2.747-1.277-2.747-3.896 0-0.319-0.256-0.575-0.575-0.575h-5.493c-0.319 0-0.575 0.256-0.575 0.575 0 2.555-0.958 3.896-2.746 3.896-0.319 0-0.575 0.256-0.575 0.575s0.255 0.575 0.575 0.575h12.136c0.319 0 0.575-0.256 0.575-0.575s-0.256-0.575-0.575-0.575zM13.158 28.742c0.703-0.766 1.086-1.852 1.15-3.321h4.471c0.064 1.469 0.511 2.555 1.15 3.321h-6.77z"></path>
<path d="M26.379 16.287l-1.341-1.341 0.766-0.766c0.128-0.128 0.192-0.319 0.128-0.511s-0.192-0.319-0.383-0.383l-5.493-1.661c-0.192-0.064-0.383 0-0.575 0.128-0.128 0.128-0.192 0.383-0.128 0.575l1.661 5.493c0.064 0.192 0.192 0.319 0.383 0.383s0.383 0 0.511-0.128l0.766-0.766 1.341 1.341c0.128 0.128 0.256 0.192 0.383 0.192s0.256-0.064 0.383-0.192l1.533-1.533c0.256-0.256 0.256-0.639 0.064-0.83zM24.463 17.437l-1.214-1.214c-0.128-0.128-0.319-0.192-0.511-0.192s-0.383 0.064-0.511 0.192l-0.447 0.383-1.086-3.641 3.641 1.086-0.447 0.447c-0.128 0.128-0.192 0.255-0.192 0.447s0.064 0.319 0.192 0.447l1.277 1.277-0.703 0.766z"></path>
<path d="M23.186 4.407h-15.457c-0.319 0-0.575 0.255-0.575 0.575v2.747c0 0.319 0.255 0.575 0.575 0.575h15.457c0.319 0 0.575-0.255 0.575-0.575v-2.747c0-0.319-0.256-0.575-0.575-0.575zM22.611 7.154h-14.307v-1.661h14.371v1.661z"></path>
<path d="M14.371 10.475h-4.407c-0.319 0-0.575 0.255-0.575 0.575v2.236c0 0.319 0.255 0.575 0.575 0.575h4.407c0.319 0 0.575-0.255 0.575-0.575v-2.236c-0.064-0.319-0.255-0.575-0.575-0.575zM13.796 12.711h-3.321v-1.086h3.321v1.086z"></path>
<path d="M23.186 4.407h-15.457c-0.319 0-0.575 0.255-0.575 0.575v10.475c0 0.319 0.255 0.575 0.575 0.575h13.158c0.192 0 0.319-0.064 0.447-0.192s0.128-0.319 0.064-0.511l-0.703-2.299 2.299 0.703c0.192 0.064 0.319 0 0.511-0.064 0.128-0.128 0.192-0.255 0.192-0.447v-8.24c0.064-0.319-0.192-0.575-0.511-0.575zM22.611 12.391l-2.619-0.766c-0.192-0.064-0.383 0-0.575 0.128-0.128 0.128-0.192 0.383-0.128 0.575l0.766 2.619h-11.752v-9.453h14.371v6.898z"></path>
</svg>
