<!-- Generated by IcoMoon.io -->
<svg version="1.1" xmlns="http://www.w3.org/2000/svg" width="32" height="32" viewBox="0 0 32 32">
<path d="M16 8.706c-5.523 0-10.016 4.493-10.016 10.016s4.493 10.016 10.016 10.016 10.016-4.493 10.016-10.016c0-5.523-4.493-10.016-10.016-10.016zM16.649 27.416v-0.836c0-0.358-0.29-0.649-0.649-0.649s-0.649 0.29-0.649 0.649v0.836c-4.291-0.317-7.728-3.754-8.045-8.045h0.836c0.358 0 0.649-0.291 0.649-0.649s-0.29-0.649-0.649-0.649h-0.836c0.317-4.291 3.754-7.728 8.045-8.045v0.836c0 0.358 0.29 0.649 0.649 0.649s0.649-0.29 0.649-0.649v-0.836c4.291 0.317 7.728 3.754 8.045 8.045h-0.836c-0.358 0-0.649 0.29-0.649 0.649s0.29 0.649 0.649 0.649h0.836c-0.317 4.291-3.754 7.728-8.045 8.045zM16.649 5.059v-0.843h1.042c0.358 0 0.649-0.29 0.649-0.649v-2.519c0-0.358-0.29-0.649-0.649-0.649h-3.382c-0.358 0-0.649 0.29-0.649 0.649v2.519c0 0.358 0.29 0.649 0.649 0.649h1.043v0.843c-7.242 0.34-13.030 6.338-13.030 13.663 0 7.542 6.136 13.678 13.678 13.678s13.678-6.136 13.678-13.678c0-7.325-5.788-13.323-13.030-13.663zM14.957 2.919v-1.221h2.085v1.221h-2.085zM16 31.034c-6.789 0-12.313-5.523-12.313-12.313s5.523-12.313 12.313-12.313 12.313 5.523 12.313 12.313c0 6.789-5.523 12.313-12.313 12.313zM20.776 13.946c-0.191-0.191-0.481-0.244-0.727-0.132l-5.936 2.698c-0.005 0.002-0.010 0.005-0.014 0.007-0.010 0.005-0.020 0.010-0.029 0.015s-0.017 0.010-0.026 0.015c-0.009 0.005-0.017 0.011-0.026 0.016-0.010 0.007-0.020 0.014-0.029 0.022-0.006 0.005-0.013 0.010-0.019 0.015-0.032 0.026-0.061 0.056-0.088 0.088-0.005 0.006-0.010 0.013-0.015 0.020-0.007 0.010-0.015 0.019-0.021 0.029-0.006 0.009-0.011 0.017-0.017 0.026s-0.010 0.017-0.015 0.025c-0.005 0.010-0.010 0.020-0.015 0.030-0.002 0.005-0.005 0.009-0.007 0.014l-2.698 5.936c-0.112 0.246-0.059 0.536 0.132 0.727 0.124 0.124 0.29 0.19 0.459 0.19 0.091 0 0.182-0.019 0.268-0.058l5.936-2.698c0.005-0.002 0.009-0.005 0.014-0.007 0.010-0.005 0.020-0.010 0.030-0.015 0.009-0.005 0.017-0.010 0.025-0.015s0.018-0.011 0.026-0.016c0.010-0.007 0.020-0.014 0.029-0.021 0.007-0.005 0.013-0.010 0.020-0.015 0.032-0.026 0.061-0.056 0.088-0.088 0.005-0.007 0.010-0.014 0.015-0.020 0.007-0.009 0.014-0.019 0.021-0.028 0.006-0.009 0.011-0.018 0.017-0.027s0.010-0.016 0.015-0.025c0.005-0.010 0.010-0.020 0.015-0.030 0.002-0.005 0.005-0.009 0.007-0.014l2.698-5.936c0.112-0.246 0.059-0.536-0.132-0.727zM12.989 21.732l1.595-3.509 1.914 1.914-3.509 1.595zM17.416 19.22l-1.914-1.914 3.509-1.595-1.595 3.509z"></path>
</svg>
