<!-- Generated by IcoMoon.io -->
<svg version="1.1" xmlns="http://www.w3.org/2000/svg" width="32" height="32" viewBox="0 0 32 32">
<path d="M23.278 17.318c0.063 0.063 0.188 0.063 0.251 0.063 0.251 0 0.502-0.125 0.565-0.376v0c0.125-0.314 0-0.69-0.376-0.816-0.314-0.125-0.69 0-0.816 0.376v0c-0.063 0.251 0.063 0.627 0.376 0.753z"></path>
<path d="M31.498 20.078h-0.565v-5.333c0-1.318-0.502-2.573-1.38-3.514-0.565-0.627-1.255-1.067-2.008-1.38 1.067-1.067 1.757-2.51 1.757-4.141 0-3.2-2.573-5.773-5.773-5.773s-5.773 2.573-5.773 5.773c0 1.82 0.816 3.451 2.133 4.455-0.188 0.188-0.376 0.314-0.502 0.439 0 0 0 0 0 0l-3.89 3.89-3.89-3.89c0 0 0 0 0 0-0.188-0.126-0.314-0.314-0.502-0.439 1.318-1.067 2.133-2.698 2.133-4.455-0.063-3.137-2.635-5.71-5.835-5.71-3.137 0-5.773 2.573-5.773 5.773 0 1.631 0.69 3.075 1.757 4.141-0.753 0.314-1.443 0.753-2.008 1.38-0.878 0.941-1.38 2.196-1.38 3.451 0 0.376 0.314 0.627 0.627 0.627s0.627-0.314 0.627-0.627c0-2.008 1.443-3.639 3.388-3.953 0.627 0.314 1.318 0.565 2.071 0.627v5.208c0 0.376 0.314 0.627 0.627 0.627s0.627-0.314 0.627-0.627v-5.208c0.69-0.063 1.318-0.251 1.882-0.565 0.251 0.251 0.502 0.439 0.753 0.69l3.89 3.827-0.627 0.627c-0.251 0.251-0.376 0.502-0.502 0.816l-1.882-1.882c-0.188-0.188-0.439-0.251-0.69-0.126s-0.376 0.314-0.376 0.565v4.706h-6.086v-4.329c0-0.376-0.314-0.627-0.627-0.627s-0.627 0.314-0.627 0.627v3.89c0 0.502-0.376 0.878-0.878 0.878-0.439 0-0.816-0.376-0.878-0.816-0.063-0.376-0.376-0.627-0.69-0.565-0.376 0.063-0.627 0.376-0.565 0.69 0.126 1.129 1.067 1.945 2.133 1.945 0.314 0 0.627-0.063 0.878-0.188v9.788c0 0.376 0.314 0.627 0.627 0.627h7.404c0.376 0 0.627-0.314 0.627-0.627v-10.541c0 0 0-0.063 0-0.125v-3.702l2.196 2.196c0.376 0.376 0.941 0.627 1.443 0.627 0.063 0 0.063 0 0.126 0 0.565 0 1.129-0.251 1.506-0.627l2.196-2.196v3.702c0 0.063 0 0.063 0 0.125v10.541c0 0.376 0.314 0.627 0.627 0.627h7.404c0.376 0 0.627-0.314 0.627-0.627v-4.643h3.639c0.376 0 0.627-0.314 0.627-0.627v-5.396c0-0.314-0.251-0.627-0.627-0.627zM2.949 5.773c0-2.51 2.008-4.518 4.518-4.518s4.455 2.008 4.455 4.518c0 2.51-2.008 4.518-4.518 4.518s-4.455-2.071-4.455-4.518zM10.478 30.745h-2.447v-6.4c0-0.376-0.314-0.627-0.627-0.627s-0.627 0.314-0.627 0.627v6.4h-2.447v-9.412h6.149v9.412zM19.012 5.773c0-2.51 2.008-4.518 4.518-4.518s4.518 2.008 4.518 4.518c0 2.51-2.008 4.518-4.518 4.518s-4.518-2.071-4.518-4.518zM16.188 18.196c-0.063 0-0.063 0.063-0.125 0.063-0.188 0.188-0.376 0.251-0.627 0.251s-0.439-0.125-0.627-0.251c-0.188-0.188-0.251-0.376-0.251-0.627s0.063-0.439 0.251-0.627l5.396-5.396c0.251-0.188 0.502-0.439 0.753-0.69 0.565 0.251 1.192 0.439 1.882 0.565v2.698c0 0.376 0.314 0.627 0.627 0.627 0.376 0 0.627-0.314 0.627-0.627v-2.698c0.753-0.063 1.443-0.314 2.071-0.627 1.945 0.251 3.388 1.945 3.388 3.953v5.271h-1.82v-4.329c0-0.376-0.314-0.627-0.627-0.627s-0.627 0.314-0.627 0.627v4.329h-6.149v-4.58c0-0.251-0.125-0.502-0.376-0.565-0.251-0.126-0.502-0.063-0.69 0.126l-3.075 3.137zM20.455 21.333h2.447v4.769c0 0 0 0.063 0 0.063v4.58h-2.447v-9.412zM26.604 30.745h-2.447v-4.016h2.447v4.016zM30.871 25.474h-6.714v-1.129c0 0 0-0.063 0-0.063v-2.949h6.714v4.141z"></path>
<path d="M28.988 22.776h-3.012c-0.376 0-0.627 0.314-0.627 0.627 0 0.376 0.314 0.627 0.627 0.627h3.012c0.376 0 0.627-0.314 0.627-0.627 0.063-0.376-0.251-0.627-0.627-0.627z"></path>
<path d="M0.376 17.882c0.063 0.063 0.188 0.063 0.251 0.063 0.251 0 0.502-0.125 0.565-0.376v0c0.125-0.314 0-0.69-0.376-0.816s-0.69 0-0.816 0.376v0c-0.063 0.251 0.063 0.627 0.376 0.753z"></path>
</svg>
