<!-- Generated by IcoMoon.io -->
<svg version="1.1" xmlns="http://www.w3.org/2000/svg" width="32" height="32" viewBox="0 0 32 32">
<path d="M26.875 5.525c-0.25-0.25-0.65-0.25-0.9 0l-0.206 0.206c-0.25 0.25-0.25 0.65 0 0.9 0.125 0.125 0.288 0.188 0.45 0.188s0.325-0.063 0.45-0.188l0.206-0.206c0.25-0.25 0.25-0.65 0-0.9zM31.225 0.4h-4.044c-0.35 0-0.637 0.287-0.637 0.638s0.288 0.637 0.637 0.637h2.644l-2.206 2.206c-0.25 0.25-0.25 0.65 0 0.9 0.125 0.125 0.288 0.188 0.45 0.188s0.325-0.063 0.45-0.188l2.069-2.069v2.369c0 0.35 0.288 0.638 0.637 0.638s0.637-0.287 0.637-0.638v-4.044c0-0.35-0.288-0.637-0.637-0.637zM31.225 27.081c-0.35 0-0.637 0.288-0.637 0.637v2.369l-5.194-5.194c2.038-2.25 3.275-5.231 3.275-8.494 0-6.988-5.688-12.675-12.675-12.675-3.262 0-6.244 1.244-8.494 3.275l-5.331-5.331h2.644c0.35 0 0.638-0.288 0.638-0.637s-0.287-0.637-0.638-0.637h-4.044c-0.35 0-0.637 0.287-0.637 0.637v4.044c0 0.35 0.287 0.638 0.637 0.638s0.637-0.287 0.637-0.638v-2.362l5.194 5.194c-2.031 2.25-3.275 5.231-3.275 8.494s1.244 6.244 3.275 8.494l-5.188 5.194v-2.369c0-0.35-0.288-0.637-0.637-0.637s-0.637 0.288-0.637 0.637v4.044c0 0.35 0.287 0.637 0.637 0.637h4.044c0.35 0 0.638-0.288 0.638-0.637s-0.287-0.637-0.638-0.637h-2.644l5.331-5.331c2.25 2.038 5.231 3.275 8.494 3.275s6.244-1.244 8.494-3.275l5.331 5.331h-2.644c-0.35 0-0.637 0.288-0.637 0.637s0.288 0.637 0.637 0.637h4.044c0.35 0 0.637-0.288 0.637-0.637v-4.044c0-0.356-0.288-0.637-0.637-0.637zM16 27.8c-6.287 0-11.4-5.113-11.4-11.4s5.112-11.4 11.4-11.4 11.4 5.112 11.4 11.4-5.113 11.4-11.4 11.4zM18.544 8.769c-0.45-0.481-1.081-0.756-1.738-0.756h-1.606c-0.656 0-1.287 0.275-1.738 0.756s-0.681 1.131-0.637 1.787l0.069 1.094 0.169 2.556c0.069 1.012 0.637 1.906 1.525 2.394 0.444 0.244 0.931 0.369 1.419 0.369s0.975-0.125 1.419-0.369c0.887-0.488 1.456-1.381 1.525-2.394l0.188-2.925 0.050-0.731c0.038-0.656-0.194-1.306-0.644-1.781zM14.088 10.469c-0.019-0.306 0.088-0.606 0.3-0.831s0.5-0.35 0.806-0.35h1.194l-0.231 0.619c-0.081 0.119-0.6 0.769-2.037 1l-0.031-0.438zM17.669 14.119c-0.038 0.575-0.363 1.081-0.863 1.356-0.506 0.275-1.106 0.275-1.613 0s-0.825-0.787-0.863-1.356l-0.125-1.944c1.188-0.162 1.956-0.575 2.431-0.95 0.094 0.069 0.194 0.131 0.306 0.188 0.2 0.106 0.494 0.206 0.887 0.313l-0.163 2.394zM17.525 10.281c-0.050-0.025-0.094-0.050-0.125-0.069l0.212-0.569c0.2 0.213 0.306 0.494 0.294 0.787-0.219-0.075-0.331-0.125-0.381-0.15zM22.994 21.137c-0.325-1.8-1.756-3.238-3.55-3.575-0.269-0.050-0.55-0.075-0.825-0.075h-0.8c-0.169 0-0.331 0.069-0.45 0.188l-1.369 1.363-1.369-1.369c-0.119-0.119-0.281-0.188-0.45-0.188h-0.8c-0.275 0-0.556 0.025-0.825 0.075-1.8 0.337-3.225 1.775-3.55 3.575-0.1 0.55 0.050 1.113 0.406 1.544s0.887 0.675 1.444 0.675h10.281c0.563 0 1.087-0.244 1.444-0.675 0.363-0.425 0.512-0.988 0.413-1.538zM21.606 21.863c-0.069 0.081-0.219 0.219-0.469 0.219h-10.275c-0.25 0-0.4-0.137-0.469-0.219s-0.175-0.256-0.131-0.5c0.231-1.288 1.25-2.313 2.531-2.55 0.194-0.038 0.394-0.056 0.588-0.056h0.537l1.631 1.631c0.119 0.119 0.281 0.188 0.45 0.188s0.331-0.069 0.45-0.188l1.631-1.631h0.538c0.2 0 0.394 0.019 0.587 0.056 1.281 0.244 2.3 1.269 2.531 2.55 0.044 0.244-0.063 0.419-0.131 0.5z"></path>
</svg>
