<!-- Generated by IcoMoon.io -->
<svg version="1.1" xmlns="http://www.w3.org/2000/svg" width="32" height="32" viewBox="0 0 32 32">
<path d="M31.635 29.288v-2.074c0-1.41-0.824-2.234-2.234-2.234h-14.039c-1.895 0-2.872 0.897-2.872 2.234v2.692c0 1.396 0.937 2.094 2.872 2.094h14.039c1.41 0 2.234-0.937 2.234-2.712zM29.082 29.447h-14.039v-1.914h14.039v1.914z"></path>
<path d="M20.786 10.303v6.108l0.813 2.188h-1.368l-13.349-18.599-2.941 1.774 0.891 1.563v8.242h-0.942l0.633 4.467h0.309v1.35c-0.574 0.261-1.212 0.821-1.212 1.828 0 0.676 0.264 1.169 0.649 1.498l-3.461 2.982h0.978l3.065-2.641c0.278 0.108 0.574 0.168 0.868 0.168 0.295 0 0.588-0.078 0.852-0.221l3.323 2.694h0.996l0.007-0.009-3.822-3.098c0.259-0.312 0.431-0.731 0.431-1.266 0-0.353-0.286-0.638-0.638-0.638s-0.638 0.285-0.638 0.638c0 0.229-0.062 0.373-0.143 0.465l-0.175-0.142c-0.119-0.096-0.292-0.095-0.409 0.006l-0.239 0.206c-0.207-0.096-0.366-0.283-0.366-0.643 0-0.577 0.572-0.717 0.68-0.737 0.308-0.053 0.532-0.318 0.532-0.63v-1.811h0.708l0.893-4.467h-0.963v-4.632l7.658 14.738v0.742h2.553v1.276h9.572v-1.276h3.829v-12.125h-9.572zM15.266 13.621l0.008 0.011-2.604 1.694 1.339-3.435 1.257 1.729zM6.109 11.579h-0.638v-7.039l0.638 1.204v5.835zM6.664 5.074l-1.101-2.092 1.717-1.129-0.616 3.221zM8.157 3.156l1.224 2.124-1.976 1.272 0.752-3.396zM8.353 7.773l1.861-1.211-0.729 3.315-1.133-2.105zM11.001 7.644l1.373 2.002-2.064 1.322 0.691-3.323zM10.79 12.492l2.306-1.58-1.313 3.517-0.993-1.937zM14.203 18.561l-1.112-1.963 2.761-1.972-1.649 3.935zM15.070 19.955l1.888-4.068 1.535 2.094-3.423 1.974zM27.806 16.684h-4.467v-3.829h4.467v3.829z"></path>
<path d="M1.004 27.533h-0.638v1.276h10.21v-1.276h-1.276v-1.914h1.276v-1.276h-10.21v1.276h1.276v1.914z"></path>
</svg>
