<!-- Generated by IcoMoon.io -->
<svg version="1.1" xmlns="http://www.w3.org/2000/svg" width="32" height="32" viewBox="0 0 32 32">
<path d="M29.962 3.425h-21.050c-1.119 0-2.037 0.912-2.037 2.038v6.256c-0.563 0.113-1.081 0.394-1.475 0.819-0.519 0.556-0.787 1.306-0.737 2.063l0.088 1.331 0.2 3.106c0.075 1.181 0.744 2.225 1.775 2.794 0.519 0.288 1.088 0.431 1.662 0.431 0.569 0 1.137-0.144 1.662-0.431 0.294-0.163 0.55-0.363 0.781-0.587h19.131c1.125 0 2.038-0.913 2.038-2.038v-13.744c0-1.125-0.913-2.038-2.038-2.038zM5.981 15.194l-0.044-0.675c-0.025-0.412 0.112-0.806 0.4-1.106 0.281-0.3 0.669-0.469 1.081-0.469h1.644l-0.356 0.95c-0.1 0.144-0.769 1.037-2.725 1.3zM10.55 18.956c-0.050 0.744-0.469 1.4-1.119 1.756-0.656 0.363-1.438 0.363-2.088 0-0.65-0.356-1.069-1.019-1.119-1.756l-0.162-2.488c1.55-0.194 2.519-0.738 3.081-1.213 0.125 0.1 0.275 0.2 0.444 0.287 0.256 0.131 0.637 0.262 1.156 0.4l-0.194 3.013zM10.844 14.519l-0.006 0.125c-0.381-0.106-0.569-0.188-0.656-0.231-0.131-0.069-0.206-0.125-0.25-0.162l0.369-0.975c0.050 0.044 0.1 0.088 0.15 0.137 0.275 0.3 0.419 0.694 0.394 1.106zM30.725 19.2c0 0.419-0.344 0.762-0.762 0.762h-18.331c0.106-0.294 0.169-0.606 0.194-0.931l0.006-0.050h16.4c0.35 0 0.637-0.288 0.637-0.637s-0.288-0.637-0.637-0.637h-0.694v-10.5c0-0.35-0.288-0.638-0.637-0.638h-3.075c-0.35 0-0.637 0.287-0.637 0.638v10.506h-0.794v-4.563c0-0.35-0.288-0.637-0.637-0.637h-3.075c-0.35 0-0.637 0.287-0.637 0.637v4.563h-0.744v-8c0-0.35-0.288-0.637-0.637-0.637h-3.075c-0.35 0-0.637 0.287-0.637 0.637v8h-1.031l0.144-2.225 0.056-0.887c0.044-0.706-0.188-1.412-0.637-1.95v-6.3c0-0.35-0.287-0.638-0.637-0.638s-0.637 0.287-0.637 0.638v5.45c-0.269-0.088-0.55-0.131-0.838-0.131h-1.219v-6.206c0-0.419 0.344-0.763 0.762-0.763h21.044c0.419 0 0.762 0.344 0.762 0.763l0.006 13.738zM14.213 17.712v-7.363h1.8v7.363h-1.8zM19.313 17.712v-3.925h1.8v3.925h-1.8zM24.462 17.712v-9.869h1.8v9.869h-1.8zM16.744 26.837c-0.387-2.131-2.075-3.831-4.2-4.231-0.319-0.063-0.65-0.094-0.975-0.094h-0.975c-0.169 0-0.331 0.069-0.45 0.188l-1.756 1.756-1.756-1.756c-0.119-0.119-0.281-0.188-0.45-0.188h-0.969c-0.325 0-0.656 0.031-0.975 0.094-2.125 0.4-3.813 2.1-4.2 4.231-0.113 0.631 0.056 1.269 0.463 1.762 0.412 0.488 1.013 0.775 1.65 0.775h12.475c0.637 0 1.244-0.281 1.65-0.775 0.413-0.488 0.581-1.131 0.469-1.762zM15.3 27.788c-0.169 0.2-0.412 0.313-0.675 0.313h-12.475c-0.262 0-0.506-0.113-0.675-0.313s-0.238-0.462-0.188-0.719c0.294-1.613 1.569-2.906 3.181-3.206 0.244-0.044 0.494-0.069 0.737-0.069h0.706l2.025 2.019c0.25 0.25 0.65 0.25 0.9 0l2.019-2.019h0.706c0.25 0 0.494 0.025 0.738 0.069 1.613 0.306 2.887 1.594 3.181 3.206v0c0.056 0.256-0.012 0.519-0.181 0.719zM29.512 5.3c-0.35 0-0.637 0.287-0.637 0.638v2.425c0 0.35 0.288 0.637 0.637 0.637s0.637-0.287 0.637-0.637v-2.425c0-0.35-0.281-0.638-0.637-0.638zM29.512 9.762c-0.35 0-0.637 0.287-0.637 0.637v0.319c0 0.35 0.288 0.637 0.637 0.637s0.637-0.287 0.637-0.637v-0.319c0-0.35-0.281-0.637-0.637-0.637z"></path>
</svg>
