<!-- Generated by IcoMoon.io -->
<svg version="1.1" xmlns="http://www.w3.org/2000/svg" width="43" height="32" viewBox="0 0 43 32">
<path d="M37.987 2.581h-6.297c-0.31 0-0.516 0.206-0.516 0.516s0.206 0.516 0.516 0.516h6.297c2.065 0 3.819 1.652 3.819 3.819v19.716c0 2.065-1.652 3.819-3.819 3.819h-33.135c-2.065 0-3.819-1.652-3.819-3.819v-19.716c0-2.065 1.652-3.819 3.819-3.819h18.581l-1.755 1.755c-0.206 0.206-0.206 0.516 0 0.723 0 0.103 0.206 0.206 0.31 0.206s0.31 0 0.413-0.103l2.89-3.097-2.994-2.994c-0.206-0.206-0.516-0.206-0.723 0s-0.206 0.516 0 0.723l1.755 1.755h-18.581c-2.581 0-4.748 2.168-4.748 4.852v19.716c0 2.684 2.168 4.852 4.852 4.852h33.135c2.684 0 4.852-2.168 4.852-4.852v-19.716c0-2.684-2.168-4.852-4.852-4.852z"></path>
<path d="M37.677 8.052c-0.206-0.206-0.516-0.206-0.723-0.103l-10.116 8.568c-3.2 2.684-7.123 2.684-10.323 0.103l-10.735-8.671c-0.206-0.206-0.516-0.103-0.723 0.103-0.103 0.206-0.103 0.516 0.103 0.723l10.529 8.568-10.529 8.568c-0.206 0.206-0.206 0.516-0.103 0.723 0.103 0.103 0.31 0.206 0.413 0.206s0.206 0 0.31-0.103l10.735-8.774c0 0 0 0 0 0 1.548 1.135 3.303 1.652 5.058 1.652s3.406-0.516 5.058-1.652c0.103 0 0.103 0.103 0.206 0.103l10.116 8.568c0.103 0.103 0.206 0.103 0.31 0.103s0.31-0.103 0.413-0.206c0.206-0.206 0.206-0.516-0.103-0.723l-10.219-8.568 10.116-8.568c0.413-0.103 0.413-0.413 0.206-0.619z"></path>
</svg>
