<!-- Generated by IcoMoon.io -->
<svg version="1.1" xmlns="http://www.w3.org/2000/svg" width="110" height="32" viewBox="0 0 110 32">
<path d="M11.52 31.232h-3.84c-0.384 0-0.64-0.128-0.896-0.384-5.632-1.024-6.784-4.736-6.784-11.136v-8.192c0-6.4 1.152-10.112 6.784-11.136 0.256-0.256 0.512-0.384 0.896-0.384h3.84c0.384 0 0.64 0.128 0.896 0.384 5.632 1.024 6.784 4.736 6.784 11.136v8.192c0 6.4-1.152 10.112-6.784 11.136-0.256 0.256-0.512 0.384-0.896 0.384zM9.6 2.56c-0.512 0-0.896 0.128-1.28 0.128-4.224 0.512-5.76 1.92-5.76 8.832v8.192c0 6.912 1.536 8.32 5.76 8.832 0.384 0 0.896 0.128 1.28 0.128 0.512 0 0.896-0.128 1.28-0.128 4.224-0.512 5.76-1.92 5.76-8.832v-8.192c0-6.912-1.536-8.32-5.76-8.832-0.384 0-0.768 0-1.28-0.128z"></path>
<path d="M98.56 31.232h-64c-1.536 0-2.688 0-3.584-0.256-6.656-0.64-7.936-4.48-7.936-11.264v-8.192c0-6.784 1.28-10.624 7.936-11.392 0.896-0.128 2.048-0.128 3.584-0.128h64c1.536 0 2.688 0 3.584 0.256 6.656 0.64 7.936 4.48 7.936 11.264v8.192c0 6.784-1.28 10.624-7.936 11.392-0.896 0.128-2.048 0.128-3.584 0.128zM34.56 2.56c-1.408 0-2.432 0-3.2 0.128-4.224 0.512-5.76 1.92-5.76 8.832v8.192c0 6.912 1.536 8.32 5.76 8.832 0.896 0.128 1.92 0.128 3.2 0.128h64c1.408 0 2.432 0 3.2-0.128 4.224-0.512 5.76-1.92 5.76-8.832v-8.192c0-6.912-1.536-8.32-5.76-8.832-0.768-0.128-1.792-0.128-3.2-0.128h-64z"></path>
<path d="M50.944 16.896h-15.36c-0.768 0-1.28-0.512-1.28-1.28s0.512-1.28 1.28-1.28h15.36c0.768 0 1.28 0.512 1.28 1.28s-0.512 1.28-1.28 1.28z"></path>
<path d="M92.416 16.896h-33.28c-0.768 0-1.28-0.512-1.28-1.28s0.512-1.28 1.28-1.28h33.28c0.768 0 1.28 0.512 1.28 1.28s-0.512 1.28-1.28 1.28z"></path>
</svg>
