<!-- Generated by IcoMoon.io -->
<svg version="1.1" xmlns="http://www.w3.org/2000/svg" width="32" height="32" viewBox="0 0 32 32">
<path d="M5.206 8.6h14.825v1.3h-14.825v-1.3zM5.206 15.75h13.394v1.3h-13.394v-1.3zM5.206 22.9h9.95v1.3h-9.95v-1.3zM30.887 5.088c0-2.188-1.719-3.931-3.9-3.962h-23.012c-1.563 0-2.862 1.3-2.862 2.862v27.694h23.144v-16.844h6.631v-9.75zM22.956 30.381h-20.613v-26.4c0-0.844 0.712-1.563 1.625-1.563h20c-0.631 0.7-1.012 1.631-1.012 2.669v25.294zM29.656 13.537h-5.394l-0.063-8.45c0-1.294 0.925-2.394 2.144-2.669h0.65v-0.063c1.469 0.038 2.669 1.256 2.669 2.731v8.45z"></path>
</svg>
