<!-- Generated by IcoMoon.io -->
<svg version="1.1" xmlns="http://www.w3.org/2000/svg" width="32" height="32" viewBox="0 0 32 32">
<path d="M31.273 4.764h-30.545c-0.402 0-0.727 0.325-0.727 0.727v21.818c0 0.402 0.325 0.727 0.727 0.727h30.545c0.401 0 0.727-0.325 0.727-0.727v-21.818c0-0.402-0.326-0.727-0.727-0.727zM30.545 24.823l-9.009-9.009-1.028 1.028 9.74 9.74h-28.495l9.74-9.74-1.028-1.028-9.009 9.009v-18.604h29.091v18.604zM29.076 6.218l-13.076 13.076-13.076-13.076h-1.47v0.587l14.031 14.031c0.284 0.284 0.744 0.284 1.028 0l14.031-14.031v-0.587h-1.47z"></path>
</svg>
