<!-- Generated by IcoMoon.io -->
<svg version="1.1" xmlns="http://www.w3.org/2000/svg" width="32" height="32" viewBox="0 0 32 32">
<path d="M16 0c8.837 0 16 7.163 16 16s-7.163 16-16 16c-8.837 0-16-7.163-16-16s7.163-16 16-16zM16 1.524c-7.995 0-14.476 6.481-14.476 14.476s6.481 14.476 14.476 14.476c7.995 0 14.476-6.481 14.476-14.476s-6.481-14.476-14.476-14.476zM17.524 9.143c2.104 0 3.81 1.706 3.81 3.81 0 0.421-0.341 0.762-0.762 0.762s-0.762-0.341-0.762-0.762c0-1.262-1.023-2.286-2.286-2.286h-3.048c-1.262 0-2.286 1.023-2.286 2.286v6.095c0 1.262 1.023 2.286 2.286 2.286h3.048c1.262 0 2.286-1.023 2.286-2.286 0-0.421 0.341-0.762 0.762-0.762s0.762 0.341 0.762 0.762c0 2.104-1.706 3.81-3.81 3.81h-3.048c-2.104 0-3.81-1.706-3.81-3.81v-6.095c0-2.104 1.706-3.81 3.81-3.81h3.048z"></path>
</svg>
