<!-- Generated by IcoMoon.io -->
<svg version="1.1" xmlns="http://www.w3.org/2000/svg" width="32" height="32" viewBox="0 0 32 32">
<path d="M9.287 14.768h-0.351v-2.842c0-0.337-0.273-0.61-0.61-0.61h-0.052v-5.816c0-0.231-0.13-0.442-0.337-0.546l-4.721-2.361c-0.189-0.095-0.414-0.084-0.594 0.027s-0.289 0.307-0.289 0.519v8.177h-0.052c-0.337 0-0.61 0.273-0.61 0.61v2.842h-0.351c-0.337 0-0.61 0.273-0.61 0.61v16.012c0 0.337 0.273 0.61 0.61 0.61h7.967c0.337 0 0.61-0.273 0.61-0.61v-16.012c0-0.337-0.273-0.61-0.61-0.61zM3.553 4.126l3.501 1.751v5.439h-3.501v-7.189zM2.891 12.535h4.825v2.232h-4.825v-2.232zM8.677 30.78h-6.747v-14.792h6.747v14.792z"></path>
<path d="M30.68 24.748h-19.814c-0.337 0-0.61 0.273-0.61 0.61s0.273 0.61 0.61 0.61h18.843l-0.14 0.29c-0.766 1.592-2.403 2.621-4.17 2.621h-14.533c-0.337 0-0.61 0.273-0.61 0.61s0.273 0.61 0.61 0.61h14.533c2.233 0 4.301-1.3 5.27-3.312l0.56-1.164c0.091-0.189 0.078-0.412-0.033-0.589s-0.307-0.285-0.516-0.285z"></path>
<path d="M9.458 4.486c2.275-2.106 5.236-3.266 8.338-3.266 6.768 0 12.275 5.506 12.275 12.275 0 3.649-1.608 7.085-4.411 9.427-0.259 0.216-0.293 0.601-0.077 0.859 0.121 0.144 0.294 0.219 0.468 0.219 0.138 0 0.277-0.047 0.391-0.142 3.082-2.574 4.849-6.351 4.849-10.363-0-7.441-6.054-13.495-13.495-13.495-3.41 0-6.666 1.275-9.166 3.59-0.247 0.229-0.262 0.615-0.033 0.862s0.615 0.262 0.862 0.033z"></path>
<path d="M17.795 3.757c5.369 0 9.738 4.368 9.738 9.738s-4.368 9.738-9.738 9.738c-2.414 0-4.729-0.89-6.52-2.505-0.25-0.226-0.636-0.206-0.862 0.044s-0.206 0.636 0.044 0.861c2.015 1.818 4.621 2.819 7.337 2.819 6.042 0 10.958-4.916 10.958-10.958s-4.916-10.958-10.958-10.958c-3.47 0-6.771 1.671-8.831 4.469-0.2 0.271-0.142 0.653 0.13 0.853s0.653 0.142 0.853-0.13c1.83-2.487 4.764-3.972 7.848-3.972z"></path>
<path d="M24.506 8.689l-11.132 11.132c-0.238 0.238-0.238 0.625 0 0.863 0.119 0.119 0.275 0.179 0.431 0.179s0.312-0.060 0.431-0.179l11.132-11.132c0.238-0.238 0.238-0.624 0-0.863s-0.625-0.238-0.863 0z"></path>
<path d="M16.764 19.897c-0.238 0.238-0.238 0.625 0 0.863 0.119 0.119 0.275 0.179 0.431 0.179s0.312-0.060 0.431-0.179l8.358-8.358c0.238-0.238 0.238-0.624 0-0.863s-0.625-0.238-0.863 0l-8.358 8.358z"></path>
</svg>
