<!-- Generated by IcoMoon.io -->
<svg version="1.1" xmlns="http://www.w3.org/2000/svg" width="32" height="32" viewBox="0 0 32 32">
<path d="M25.664 9.472c-0.128-0.128-0.256-0.128-0.384-0.128h-8.064l-0.896-0.896c-0.192-0.192-0.512-0.192-0.704 0l-0.896 0.896h-8c-0.128 0-0.256 0.064-0.384 0.128l-6.208 6.208c-0.128 0.128-0.192 0.32-0.064 0.512 0.064 0.192 0.256 0.32 0.448 0.32h1.024v12.928c0 0.256 0.256 0.512 0.512 0.512h2.048c0.256 0 0.512-0.256 0.512-0.512v-2.56h4.16v2.048h-0.512c-0.256 0-0.512 0.256-0.512 0.512v2.048c0 0.256 0.256 0.512 0.512 0.512h15.488c0.256 0 0.512-0.256 0.512-0.512v-2.048c0-0.256-0.256-0.512-0.512-0.512h-0.512v-2.048h4.16v2.56c0 0.256 0.256 0.512 0.512 0.512h2.048c0.256 0 0.512-0.256 0.512-0.512v-12.928h1.024c0.192 0 0.384-0.128 0.448-0.32s0.064-0.384-0.128-0.576l-6.144-6.144zM25.088 10.304l5.184 5.184h-6.848l-5.184-5.184h6.848zM18.048 26.816h-4.16v-4.16h4.16v4.16zM18.56 21.696h-5.12c-0.256 0-0.512 0.256-0.512 0.512v4.672h-3.072v-9.344h12.416v9.28h-3.072v-4.672c-0.128-0.256-0.32-0.448-0.64-0.448zM16 9.536l7.040 7.040h-14.080l7.040-7.040zM6.912 10.304h6.784l-5.184 5.184h-6.72l5.12-5.184zM3.584 28.928h-1.024v-2.048h1.024v2.048zM4.16 25.792h-1.6v-9.28h4.928l-0.128 0.128c-0.128 0.128-0.192 0.384-0.128 0.576s0.256 0.32 0.448 0.32h1.024v8.256h-4.544zM23.232 30.976h-14.464v-1.024h14.464v1.024zM9.792 28.928v-1.024h12.352v1.024h-12.352zM29.44 28.928h-1.024v-2.048h1.024v2.048zM29.44 25.792h-6.208v-8.256h1.024c0.192 0 0.384-0.128 0.448-0.32s0.064-0.384-0.128-0.576l-0.128-0.128h4.992v9.28z"></path>
<path d="M7.232 18.56h-3.072c-0.256 0-0.512 0.256-0.512 0.512v4.16c0 0.256 0.256 0.512 0.512 0.512h3.072c0.256 0 0.512-0.256 0.512-0.512v-4.16c0-0.256-0.256-0.512-0.512-0.512zM6.72 19.584v1.024h-2.048v-1.024h2.048zM4.672 22.72v-1.024h2.048v1.024h-2.048z"></path>
<path d="M24.256 19.072v4.16c0 0.256 0.256 0.512 0.512 0.512h3.072c0.256 0 0.512-0.256 0.512-0.512v-4.16c0-0.256-0.256-0.512-0.512-0.512h-3.072c-0.256 0-0.512 0.256-0.512 0.512zM25.28 22.72v-1.024h2.048v1.024h-2.048zM27.328 19.584v1.024h-2.048v-1.024h2.048z"></path>
<path d="M2.048 7.232c0.448 0 0.832-0.128 1.216-0.384 0.832 0.512 1.92 0.512 2.752 0 0.704 0.512 1.728 0.512 2.432 0 0.832 0.512 1.92 0.512 2.752 0 0.32 0.256 0.768 0.384 1.216 0.384 0.576 0 1.152-0.256 1.536-0.704 0.576 0.448 1.344 0.704 2.112 0.704s1.472-0.256 2.112-0.704c0.384 0.384 0.896 0.704 1.536 0.704 0.448 0 0.832-0.128 1.216-0.384 0.832 0.512 1.92 0.512 2.752 0 0.704 0.512 1.728 0.512 2.432 0 0.832 0.512 1.92 0.512 2.752 0 0.32 0.256 0.768 0.384 1.216 0.384 1.152 0 2.048-0.896 2.048-2.048s-0.896-2.048-2.048-2.048c-0.192 0-0.32 0-0.448 0.064-0.384-0.576-1.024-0.96-1.728-1.088-0.64-1.28-1.792-2.112-3.136-2.112s-2.496 0.832-2.944 2.112c-0.704 0.064-1.344 0.448-1.728 1.024-0.128-0.064-0.32-0.064-0.448-0.064 0 0 0 0-0.064 0-0.256-1.728-1.792-3.072-3.584-3.072s-3.328 1.344-3.584 3.072c0 0 0 0-0.064 0-0.192 0-0.32 0-0.448 0.064-0.384-0.576-1.024-0.96-1.728-1.024-0.448-1.28-1.6-2.112-2.944-2.112s-2.496 0.832-2.944 2.112c-0.704 0.064-1.344 0.448-1.728 1.024-0.192 0-0.32-0.064-0.512-0.064-1.152 0-2.048 0.96-2.048 2.112s0.896 2.048 2.048 2.048zM20.096 4.224c0.128 0.064 0.256 0.064 0.384 0s0.256-0.128 0.32-0.256c0.256-0.576 0.832-0.896 1.344-0.896 0 0 0.064 0 0.064 0 0.256 0 0.448-0.192 0.512-0.384 0.192-0.96 1.024-1.664 2.048-1.664 0.96 0 1.856 0.704 2.048 1.664 0.064 0.256 0.256 0.448 0.512 0.384 0 0 0.064 0 0.064 0 0.576 0 1.152 0.384 1.408 0.896 0.064 0.128 0.192 0.256 0.32 0.256 0.128 0.064 0.256 0.064 0.384 0 0.704-0.384 1.472 0.192 1.472 0.896 0 0.576-0.448 1.024-1.024 1.024-0.32 0-0.576-0.128-0.768-0.384-0.064-0.128-0.192-0.192-0.384-0.192 0 0 0 0 0 0-0.128 0-0.256 0.064-0.32 0.128-0.576 0.512-1.536 0.512-2.112 0-0.128-0.128-0.256-0.128-0.384-0.128s-0.256 0.064-0.384 0.192c-0.384 0.448-1.152 0.448-1.6 0-0.064-0.128-0.192-0.192-0.384-0.192-0.128 0-0.256 0.064-0.384 0.128-0.576 0.512-1.536 0.512-2.112 0-0.128-0.128-0.256-0.128-0.384-0.128s-0.256 0.064-0.384 0.192c-0.192 0.256-0.512 0.384-0.768 0.384-0.512 0.064-1.024-0.384-1.024-0.96 0-0.768 0.832-1.28 1.536-0.96zM16 1.024c1.344 0 2.432 1.024 2.56 2.368-0.576 0.384-1.024 1.024-1.024 1.792 0 0.192 0 0.32 0.064 0.448-0.448 0.384-1.024 0.576-1.6 0.576s-1.152-0.192-1.6-0.576c0.064-0.128 0.064-0.32 0.064-0.448 0-0.768-0.384-1.408-1.024-1.792 0.128-1.344 1.216-2.368 2.56-2.368zM2.56 4.224c0.128 0.064 0.256 0.064 0.384 0 0.128 0 0.256-0.064 0.32-0.192 0.256-0.576 0.832-0.896 1.344-0.896 0 0 0.064 0 0.064 0 0.256 0 0.448-0.192 0.512-0.384 0.192-0.96 1.024-1.664 2.048-1.664s1.856 0.704 2.048 1.664c0.064 0.256 0.256 0.448 0.512 0.384 0 0 0.064 0 0.064 0 0.576 0 1.152 0.384 1.408 0.896 0.064 0.128 0.192 0.256 0.32 0.256 0.128 0.064 0.256 0.064 0.384 0 0.64-0.384 1.472 0.128 1.472 0.896 0 0.576-0.448 1.024-1.024 1.024-0.32 0-0.576-0.128-0.768-0.384-0.064-0.128-0.192-0.192-0.384-0.192 0 0 0 0 0 0-0.128 0-0.256 0.064-0.32 0.128-0.576 0.512-1.536 0.512-2.112 0-0.128-0.128-0.256-0.128-0.384-0.128s-0.256 0.064-0.384 0.192c-0.384 0.448-1.152 0.448-1.6 0-0.128-0.128-0.256-0.192-0.384-0.192s-0.256 0.064-0.384 0.128c-0.576 0.576-1.536 0.576-2.112 0-0.064-0.064-0.256-0.128-0.384-0.128s-0.256 0.064-0.384 0.192c-0.192 0.256-0.448 0.384-0.768 0.384-0.576 0-1.024-0.448-1.024-1.024 0-0.768 0.768-1.28 1.536-0.96z"></path>
</svg>
