<!-- Generated by IcoMoon.io -->
<svg version="1.1" xmlns="http://www.w3.org/2000/svg" width="28" height="32" viewBox="0 0 28 32">
<path d="M28.059 15.685c-0.788-3.547-2.837-6.542-5.832-8.591-2.128-1.419-4.571-2.128-7.094-2.207v-4.020c0 0 0-0.079 0-0.079h3.941c0.236 0 0.394-0.158 0.394-0.394s-0.158-0.394-0.394-0.394h-8.828c-0.236 0-0.394 0.158-0.394 0.394s0.158 0.394 0.394 0.394h4.099c0 0 0 0.079 0 0.079v4.099c-0.788 0-1.498 0.079-2.286 0.236-0.236 0.079-0.315 0.236-0.315 0.473 0.079 0.236 0.236 0.315 0.473 0.315 0.709-0.158 1.419-0.236 2.128-0.236v1.498c0 0.236 0.158 0.394 0.394 0.394s0.394-0.158 0.394-0.394v-1.498c2.365 0.079 4.65 0.709 6.621 2.049 2.837 1.892 4.808 4.729 5.517 8.039 0.158 0.709 0.236 1.498 0.236 2.207h-1.655c-0.236 0-0.394 0.158-0.394 0.394s0.158 0.394 0.394 0.394h1.655c-0.079 2.286-0.788 4.571-2.049 6.542-1.892 2.837-4.729 4.808-8.039 5.517-0.788 0.158-1.498 0.236-2.286 0.236v-1.498c0-0.236-0.158-0.394-0.394-0.394s-0.394 0.158-0.394 0.394v1.498c-5.675-0.158-10.719-4.256-11.98-10.089-0.158-0.709-0.236-1.498-0.236-2.207h1.576c0.236 0 0.394-0.158 0.394-0.394s-0.158-0.394-0.394-0.394h-1.576c0.079-1.813 0.473-3.547 1.261-5.202l0.788 2.049c0.079 0.158 0.236 0.236 0.394 0.236 0.079 0 0.079 0 0.158 0 0.236-0.079 0.315-0.315 0.236-0.552l-1.34-3.232-3.31 1.025c-0.236 0.079-0.315 0.315-0.236 0.473 0.079 0.236 0.315 0.315 0.473 0.236l2.207-0.709c-1.419 2.759-1.813 5.911-1.182 8.828 1.34 6.384 6.936 10.798 13.241 10.798 0.946 0 1.813-0.079 2.759-0.315 3.547-0.709 6.542-2.837 8.591-5.832 1.97-2.995 2.601-6.621 1.892-10.168z"></path>
<path d="M9.773 23.409c0.079 0 0.158 0 0.236-0.079l3.704-3.389c0.315 0.236 0.631 0.315 1.025 0.315 1.025 0 1.892-0.867 1.892-1.892s-0.867-1.892-1.892-1.892-1.892 0.867-1.892 1.892c0 0.394 0.079 0.709 0.315 1.025l-3.704 3.31c-0.158 0.158-0.158 0.394 0 0.552 0.079 0.079 0.236 0.158 0.315 0.158zM14.818 17.261c0.631 0 1.103 0.473 1.103 1.103s-0.473 1.103-1.103 1.103c-0.631 0-1.103-0.473-1.103-1.103s0.473-1.103 1.103-1.103z"></path>
</svg>
