<!-- Generated by IcoMoon.io -->
<svg version="1.1" xmlns="http://www.w3.org/2000/svg" width="30" height="32" viewBox="0 0 30 32">
<path d="M22.4 31.767h-14.545c-6.167 0-7.855-1.687-7.855-7.855v-0.698c0-0.349 0.233-0.582 0.582-0.582 1.687 0 3.084-1.396 3.084-3.084s-1.396-3.084-3.084-3.084c-0.349 0-0.582-0.233-0.582-0.582v-0.698c0-6.167 1.687-7.855 7.855-7.855h14.545c6.167 0 7.855 1.687 7.855 7.855v1.455c0 0.349-0.233 0.582-0.582 0.582-1.687 0-3.025 1.338-3.025 3.025s1.396 3.025 3.084 3.025c0.349 0 0.582 0.233 0.582 0.582-0.058 6.225-1.745 7.913-7.913 7.913zM1.164 23.738v0.175c0 5.527 1.164 6.691 6.691 6.691h14.545c5.295 0 6.633-1.105 6.691-6.167-2.036-0.291-3.665-2.036-3.665-4.189s1.571-3.898 3.607-4.189v-0.931c0-5.527-1.164-6.691-6.691-6.691h-14.545c-5.411 0.058-6.633 1.222-6.633 6.749v0.175c2.036 0.291 3.665 2.036 3.665 4.189 0 2.095-1.629 3.898-3.665 4.189z"></path>
<path d="M21.818 8.495h-14.080c-0.233 0-0.465-0.116-0.524-0.349-0.116-0.233-0.058-0.465 0.116-0.64l4.538-4.538c2.095-2.095 3.549-2.967 5.062-2.967s2.967 0.873 5.062 2.967l0.931 0.931c0.116 0.116 0.175 0.233 0.175 0.407s-0.058 0.291-0.175 0.407c-0.756 0.756-0.989 1.978-0.524 2.967 0.058 0.175 0.058 0.407-0.058 0.582-0.116 0.116-0.291 0.233-0.524 0.233zM9.135 7.331h11.869c-0.233-1.047 0-2.153 0.64-3.025l-0.524-0.524c-1.804-1.862-3.084-2.618-4.189-2.618s-2.385 0.756-4.247 2.618l-3.549 3.549z"></path>
<path d="M12.044 28.858c-0.349 0-0.582-0.233-0.582-0.582v-2.909c0-0.349 0.233-0.582 0.582-0.582s0.582 0.233 0.582 0.582v2.909c0 0.291-0.291 0.582-0.582 0.582zM12.044 23.040c-0.349 0-0.582-0.233-0.582-0.582v-2.909c0-0.349 0.233-0.582 0.582-0.582s0.582 0.233 0.582 0.582v2.909c0 0.291-0.291 0.582-0.582 0.582zM12.044 17.222c-0.349 0-0.582-0.233-0.582-0.582v-2.909c0-0.349 0.233-0.582 0.582-0.582s0.582 0.233 0.582 0.582v2.909c0 0.291-0.291 0.582-0.582 0.582zM12.044 11.404c-0.349 0-0.582-0.233-0.582-0.582v-2.909c0-0.349 0.233-0.582 0.582-0.582s0.582 0.233 0.582 0.582v2.909c0 0.291-0.291 0.582-0.582 0.582z"></path>
</svg>
