<!-- Generated by IcoMoon.io -->
<svg version="1.1" xmlns="http://www.w3.org/2000/svg" width="32" height="32" viewBox="0 0 32 32">
<path d="M24.512 7.669l-4.75 7.494v9.056h-3.231v-3.844h-3.35l-6.95-19.288-3.962 1.237 0.2 0.569v8.55c-0.988 0.331-1.781 1.306-1.781 2.481 0 1.369 1.125 2.544 2.444 2.544s2.444-1.175 2.444-2.544h-1.325c0 0.719-0.525 1.306-1.125 1.306-0.594 0-1.125-0.588-1.125-1.306s0.462-1.306 1.125-1.306h0.663v-5.925l5.019 14.438v3.081h-4.094v7.5h26.6v-24.044h-6.8zM15.275 21.613v2.606h-5.15v-2.606h5.15zM5.438 2.65l6.338 17.725h-1.912l-5.938-17.2 1.513-0.525zM30.056 30.406h-24.025v-4.881h24.025v4.881zM21.019 15.488l4.225-6.581h4.75v14.988h-8.975v-8.406zM23.063 13.925v2.212h5.938v-6.188h-3.3l-2.637 3.975zM27.75 11.188v3.65h-3.369v-0.519l2.044-3.125h1.325z"></path>
</svg>
