<!-- Generated by IcoMoon.io -->
<svg version="1.1" xmlns="http://www.w3.org/2000/svg" width="32" height="32" viewBox="0 0 32 32">
<path d="M26.667 16c0.295 0 0.533-0.239 0.533-0.533v-7.467h4.267c0.295 0 0.533-0.239 0.533-0.533v-2.133c-0.003-0.020-0.007-0.039-0.012-0.059-0.003-0.039-0.011-0.077-0.023-0.114-0.010-0.027-0.022-0.053-0.036-0.078-0.048-0.091-0.122-0.165-0.213-0.213-0.027-0.015-0.055-0.027-0.084-0.037-0.015-0.005-0.028-0.015-0.044-0.019l-20.267-4.8c-0.040-0.009-0.081-0.013-0.122-0.013h-2.133c-0.063 0.001-0.125 0.014-0.184 0.037-0.014 0.005-0.028 0.010-0.042 0.017s-0.025 0.008-0.036 0.014l-8.533 4.8c-0.026 0.018-0.051 0.038-0.074 0.060-0.018 0.012-0.034 0.026-0.050 0.041-0.045 0.045-0.081 0.099-0.107 0.157v0.006c-0.023 0.059-0.036 0.121-0.037 0.184 0 0.006-0.004 0.012-0.004 0.018v2.133c0 0.295 0.239 0.533 0.533 0.533h7.467v9.912l-1.977 1.977c-0.1 0.1-0.156 0.236-0.156 0.377v8.533h-1.067v3.2h10.667v-3.2h-1.067v-8.533c0-0.141-0.056-0.277-0.156-0.377l-1.977-1.977v-9.913h10.667v7.467c0 0.295 0.239 0.533 0.533 0.533h1.067v1.6c0 0.295 0.239 0.533 0.533 0.533 0.589 0 1.067 0.478 1.067 1.067s-0.478 1.067-1.067 1.067-1.067-0.478-1.067-1.067v-0.533h-1.067v0.533c0.003 0.779 0.431 1.493 1.116 1.863l-4.003 4.003h-1.379c-0.295 0-0.533 0.239-0.533 0.533v4.8c0 0.295 0.239 0.533 0.533 0.533h12.8c0.295 0 0.533-0.239 0.533-0.533v-4.8c0-0.295-0.239-0.533-0.533-0.533h-1.379l-4.003-4.003c1.033-0.557 1.419-1.846 0.862-2.879-0.282-0.523-0.77-0.904-1.347-1.051v-1.134h1.067zM27.2 5.867h3.733v1.067h-3.733v-1.067zM30.933 26.133v3.733h-11.733v-3.733h11.733zM28.579 25.067h-7.025l3.513-3.512 3.513 3.512zM26.133 12.8h-2.133v-4.8h2.133v4.8zM26.133 6.933h-2.133v-1.067h2.133v1.067zM9.6 1.067h1.067v3.733h-1.067v-3.733zM9.067 5.867h2.133v0.846l-0.221 0.221h-1.913v-1.067zM11.2 8.221v3.825l-1.913-1.913 1.913-1.913zM9.067 8h0.846l-0.846 0.846v-0.846zM9.067 11.421l1.913 1.912-1.913 1.913v-3.825zM11.2 14.621v3.825l-1.913-1.913 1.913-1.912zM9.067 18.133v-0.313l1.913 1.913-1.913 1.913v-3.513zM11.2 21.021v3.825l-1.913-1.913 1.913-1.912zM9.067 24.221l1.913 1.912-1.913 1.913v-3.825zM11.2 27.421v1.379h-1.379l1.379-1.379zM8.533 1.445v3.355h-5.964l5.964-3.355zM1.067 6.933v-1.067h6.933v1.067h-6.933zM6.933 20.488l1.067-1.067v9.379h-1.067v-8.312zM14.4 29.867v1.067h-8.533v-1.067h8.533zM13.333 20.488v8.312h-1.067v-9.379l1.067 1.067zM22.933 6.933h-10.667v-1.067h10.667v1.067zM11.733 4.8v-3.593l15.167 3.593h-15.167zM24 14.933v-1.067h2.133v1.067h-2.133z"></path>
</svg>
