<!-- Generated by IcoMoon.io -->
<svg version="1.1" xmlns="http://www.w3.org/2000/svg" width="32" height="32" viewBox="0 0 32 32">
<path d="M23.363 15.669l-4.669-3.406c0.15-0.363 0.238-0.762 0.238-1.188h-1.306c0 0.931-0.719 1.662-1.631 1.662s-1.631-0.731-1.631-1.662c0-0.931 0.719-1.662 1.631-1.662h0.65v-8.325h-1.306v7.063c-1.306 0.331-2.281 1.531-2.281 2.931 0 0.4 0.075 0.787 0.213 1.131l-4.738 3.463h-7.844v16.038h30.625v-16.044h-7.95zM14.031 13.3c0.519 0.481 1.206 0.769 1.969 0.769 0.744 0 1.413-0.275 1.925-0.731l3.194 2.331h-10.331l3.244-2.369zM30.075 30.45h-28.081v-13.519h28.081v13.519z"></path>
</svg>
