<!-- Generated by IcoMoon.io -->
<svg version="1.1" xmlns="http://www.w3.org/2000/svg" width="32" height="32" viewBox="0 0 32 32">
<path d="M4.787 11.717h1.071v2.142h-1.071v-2.142z"></path>
<path d="M0 30.929h1.071v1.071h-1.071v-1.071z"></path>
<path d="M27.213 20.283v-8h3.717c0.315 0 0.504-0.252 0.504-0.504v-1.575c0-0.126-0.063-0.252-0.126-0.378l-1.575-1.638c-0.063-0.063-0.126-0.063-0.189-0.126v0l-19.213-8c0 0 0 0 0 0s-0.063 0-0.063 0-0.063 0-0.126 0c0 0 0 0 0 0s0 0-0.063 0-0.063 0-0.126 0c0 0-0.063 0-0.063 0-0.063 0-0.063 0-0.063 0.063 0 0-0.063 0-0.063 0.063 0 0 0 0 0 0l-9.071 7.937c-0.126 0.126-0.189 0.252-0.189 0.378v6.425c0 0.315 0.252 0.504 0.504 0.504h2.142c0.315 0 0.504-0.252 0.504-0.504v-2.646h1.071v1.575h1.071v-1.575h1.134v1.071c0 0.315 0.252 0.504 0.504 0.504h0.504v14.929h-3.654c-0.315 0-0.504 0.252-0.504 0.504v1.575h-1.638v1.071h29.858v-1.071h-15.433v-1.575c0-0.315-0.252-0.504-0.504-0.504h-3.717v-14.929h0.504c0.315 0 0.504-0.252 0.504-0.504v-1.071h10.646v8zM9.071 18.457v-3.843l1.89 1.89-1.89 1.953zM11.213 17.827v3.843l-1.89-1.89 1.89-1.953zM10.961 22.929l-1.89 1.89v-3.843l1.89 1.953zM11.213 24.252v3.843l-1.89-1.89 1.89-1.953zM11.213 15.244l-1.386-1.386h1.386v1.386zM12.283 12.787h-4.283v-5.354h1.575v2.646c0 0.189 0.126 0.441 0.315 0.504l2.331 0.945v1.26zM3.213 11.213h-0.882l1.89-1.89 1.89 1.89h-2.898zM1.575 10.457v-1.386h1.386l-1.386 1.386zM5.543 9.071h1.386v1.386l-1.386-1.386zM6.929 6.929v1.071h-4.472l6.74-5.921-1.071 4.346h-0.63c-0.315 0-0.567 0.189-0.567 0.504zM9.197 6.425l0.945-3.654 0.945 3.654h-1.89zM10.646 7.496h1.575v2.961l-1.575-0.63v-2.331zM13.354 9.071h1.386l-1.386 1.386v-1.386zM16 9.323l1.89 1.89h-3.843l1.953-1.89zM17.323 9.071h3.843l-1.89 1.89-1.953-1.89zM22.425 9.323l1.89 1.89h-3.843l1.953-1.89zM23.685 9.071h3.843l-1.89 1.89-1.953-1.89zM13.354 8v-1.071c0-0.315-0.252-0.504-0.504-0.504h-0.63l-1.26-4.976 15.748 6.551h-13.354zM26.142 20.283h-1.071v-8h1.071v8zM30.425 10.331v0.819h-3.528l2.142-2.142h0.063l1.323 1.323zM2.646 14.425h-1.071v-2.142h1.071v2.142zM9.071 27.465l1.386 1.386h-1.386v-1.386zM4.787 30.929v-1.071h10.646v1.071h-10.646z"></path>
<path d="M15.265 1.091l0.412-0.988 1.047 0.436-0.412 0.988-1.047-0.436z"></path>
<path d="M17.406 2.024l0.412-0.988 11.745 4.896-0.412 0.988-11.745-4.896z"></path>
<path d="M25.071 18.268v2.016l-3.78 2.709c-0.126 0.126-0.252 0.252-0.252 0.441v6.299c0 0.315 0.252 0.567 0.567 0.567h8c0.315 0 0.504-0.252 0.504-0.567v-6.299c0-0.189-0.063-0.315-0.252-0.441l-3.78-2.709v-2.016zM25.638 21.228l2.331 1.638h-4.661l2.331-1.638zM29.102 29.165h-6.929v-5.228h6.929v5.228z"></path>
</svg>
