<!-- Generated by IcoMoon.io -->
<svg version="1.1" xmlns="http://www.w3.org/2000/svg" width="32" height="32" viewBox="0 0 32 32">
<path d="M29.328 11.369h-3.256v-4.596c0-1.473-1.198-2.671-2.672-2.671h-20.729c-1.473 0-2.671 1.199-2.671 2.672v11.987c0 1.473 1.198 2.672 2.671 2.672h3.256v4.597c0 1.473 1.198 2.671 2.671 2.671h20.729c1.473 0 2.671-1.198 2.671-2.672v-11.987c0-1.473-1.198-2.671-2.672-2.671zM1.527 6.773c0-0.631 0.514-1.145 1.145-1.145h20.729c0.631 0 1.145 0.514 1.145 1.145v1.066h-23.019v-1.066zM5.928 14.040v5.864h-3.256c-0.631 0-1.145-0.514-1.145-1.145v-5.859h4.657c-0.164 0.346-0.256 0.733-0.256 1.14zM1.527 11.374v-2.009h23.019v2.004h-15.946c-0.052 0-0.103 0.002-0.154 0.005h-6.919zM29.328 27.172h-20.729c-0.631 0-1.145-0.514-1.145-1.145v-11.987c0-0.6 0.464-1.092 1.051-1.14h16.803c0.028 0 0.056-0.002 0.083-0.005h3.936c0.631 0 1.145 0.514 1.145 1.145v11.987h0c0 0.631-0.514 1.145-1.145 1.145zM21.263 16.355c-0.868 0-1.667 0.303-2.297 0.808-0.646-0.52-1.451-0.808-2.302-0.808-2.029 0-3.68 1.651-3.68 3.68s1.651 3.68 3.68 3.68c0.851 0 1.656-0.288 2.302-0.808 0.63 0.505 1.428 0.808 2.297 0.808 2.029 0 3.679-1.651 3.679-3.68s-1.651-3.679-3.679-3.679zM17.997 21.725c-0.376 0.297-0.841 0.462-1.332 0.462-1.187 0-2.153-0.966-2.153-2.153s0.966-2.153 2.153-2.153c0.492 0 0.957 0.165 1.332 0.462-0.264 0.507-0.413 1.082-0.413 1.691s0.15 1.184 0.413 1.691zM21.263 22.187c-1.187 0-2.153-0.966-2.153-2.153s0.966-2.153 2.153-2.153c1.187 0 2.153 0.966 2.153 2.153s-0.966 2.153-2.153 2.153z"></path>
</svg>
