<!-- Generated by IcoMoon.io -->
<svg version="1.1" xmlns="http://www.w3.org/2000/svg" width="32" height="32" viewBox="0 0 32 32">
<path d="M31.238 7.15c0-1.044-0.844-1.888-1.887-1.888h-26.769c-1.044 0-1.887 0.844-1.887 1.888v18.5c0 1.044 0.844 1.887 1.887 1.887h26.831c1.044 0 1.887-0.844 1.825-1.956v-18.431zM30 13.537h-28v-1.887h28v1.887zM1.931 7.219c0-0.394 0.325-0.65 0.65-0.65v-0.063h26.769c0.394 0 0.65 0.325 0.65 0.65v3.256h-28.069v-3.194zM30 25.65c0 0.394-0.325 0.65-0.65 0.65h-26.769c-0.394 0-0.65-0.325-0.65-0.65v-10.813h28.069v10.813z"></path>
</svg>
