<!-- Generated by IcoMoon.io -->
<svg version="1.1" xmlns="http://www.w3.org/2000/svg" width="32" height="32" viewBox="0 0 32 32">
<path d="M22.931 22.602l-6.527-5.802 6.527-5.802c0.33-0.294 0.36-0.799 0.066-1.129s-0.799-0.36-1.129-0.066l-6.668 5.928-6.668-5.928c-0.33-0.293-0.836-0.264-1.129 0.066s-0.264 0.836 0.066 1.129l6.527 5.802-6.527 5.802c-0.33 0.294-0.36 0.799-0.066 1.129 0.158 0.178 0.378 0.268 0.598 0.268 0.189 0 0.379-0.067 0.531-0.202l6.669-5.928 6.668 5.928c0.152 0.135 0.342 0.202 0.531 0.202 0.221 0 0.44-0.091 0.598-0.268 0.294-0.33 0.264-0.836-0.066-1.129zM15.2 32c-4.060 0-7.877-1.581-10.748-4.452s-4.452-6.688-4.452-10.748c0-4.060 1.581-7.877 4.452-10.748s6.688-4.452 10.748-4.452c4.060 0 7.877 1.581 10.748 4.452s4.452 6.688 4.452 10.748-1.581 7.877-4.452 10.748c-2.871 2.871-6.688 4.452-10.748 4.452zM15.2 3.2c-7.499 0-13.6 6.101-13.6 13.6s6.101 13.6 13.6 13.6 13.6-6.101 13.6-13.6-6.101-13.6-13.6-13.6z"></path>
</svg>
