<!-- Generated by IcoMoon.io -->
<svg version="1.1" xmlns="http://www.w3.org/2000/svg" width="32" height="32" viewBox="0 0 32 32">
<path d="M12.494 19.594h-5.206c-3.519 0-6.313 2.8-6.381 6.256-0.194 1.044-0.456 2.869 0.194 3.519 1.756 1.694 5.731 2.344 8.787 2.344 3.125 0 7.031-0.65 8.787-2.344 0.65-0.65 0.394-2.475 0.194-3.519-0.056-3.456-2.919-6.256-6.375-6.256zM17.837 28.387c-1.238 1.238-4.3 2.019-7.875 2.019-3.581 0-6.706-0.781-7.875-1.956-0.131-0.262-0.756-7.331 5.206-7.625 1.356-0.069 5.275 0 5.275 0 5.844 0.006 5.4 7.369 5.269 7.563zM9.825 18.419c2.863 0 5.206-2.344 5.144-5.15 0-2.869-2.281-5.15-5.144-5.15-2.8 0-5.144 2.344-5.144 5.15 0 2.869 2.281 5.15 5.144 5.15zM9.825 9.425c2.15 0 3.906 1.756 3.906 3.844s-1.756 3.844-3.906 3.844c-2.15 0-3.906-1.756-3.906-3.844s1.763-3.844 3.906-3.844zM15.819 1.087v9.45h2.019v4.625l4.625-4.625h8.85v-9.45h-15.494zM30.075 9.3h-8.075l-2.863 2.869v-2.869h-2.019v-6.906h12.956v6.906zM23.438 4.213c0.063-0.131 0.194-0.194 0.325-0.194s0.262 0.063 0.262 0.063c0.063 0.131 0.131 0.263 0.131 0.394 0 0.194-0.063 0.325-0.131 0.394l-0.519 0.588c-0.131 0.194-0.262 0.325-0.325 0.456s-0.063 0.325-0.063 0.519v0.588h1.175v-0.519c0-0.131 0-0.263 0.063-0.325s0.131-0.131 0.262-0.263c0.131-0.131 0.262-0.263 0.394-0.394 0-0.063 0.063-0.131 0.131-0.194 0.063-0.063 0.131-0.131 0.131-0.194 0.063 0 0.063-0.063 0.131-0.194 0.063-0.063 0.063-0.263 0.063-0.456 0-0.456-0.131-0.85-0.456-1.106-0.325-0.263-0.719-0.394-1.238-0.394-0.456 0-0.913 0.131-1.238 0.456-0.325 0.263-0.519 0.719-0.587 1.237h1.3c0.056-0.2 0.119-0.331 0.188-0.463zM23.762 7.275c-0.194 0-0.394 0.063-0.519 0.194-0.131 0.131-0.194 0.325-0.194 0.519s0.063 0.394 0.194 0.519c0.131 0.131 0.262 0.194 0.519 0.194 0.194 0 0.394-0.063 0.519-0.194 0.131-0.131 0.194-0.325 0.194-0.519s-0.063-0.394-0.194-0.519c-0.131-0.125-0.325-0.194-0.519-0.194z"></path>
</svg>
