<!-- Generated by IcoMoon.io -->
<svg version="1.1" xmlns="http://www.w3.org/2000/svg" width="36" height="32" viewBox="0 0 36 32">
<path d="M35.675 25.093v-2.471l-1.901-0.697c-0.127-0.38-0.253-0.76-0.444-1.077l0.824-1.838-1.711-1.711-1.838 0.824c-0.38-0.19-0.697-0.317-1.077-0.444l-0.697-1.901h-2.471l-0.697 1.901c-0.38 0.127-0.76 0.253-1.077 0.444l-1.838-0.824-1.838 1.648 0.824 1.838c-0.19 0.38-0.317 0.697-0.444 1.077l-1.901 0.697v2.471l1.901 0.697c0.127 0.38 0.253 0.76 0.444 1.077l-0.824 1.901 1.711 1.711 1.838-0.824c0.38 0.19 0.697 0.317 1.077 0.444l0.697 1.901h2.471l0.697-1.901c0.38-0.127 0.76-0.253 1.077-0.444l1.838 0.824 1.711-1.711-0.824-1.838c0.19-0.38 0.317-0.697 0.444-1.077l2.028-0.697zM32.887 24.903l-0.063 0.253c-0.127 0.444-0.317 0.951-0.57 1.331l-0.127 0.253 0.76 1.648-0.634 0.634-1.648-0.76-0.317 0.253c-0.444 0.253-0.887 0.444-1.331 0.57l-0.317 0.063-0.634 1.711h-0.887l-0.634-1.711-0.253-0.063c-0.507-0.127-0.951-0.317-1.331-0.57l-0.253-0.127-1.648 0.76-0.634-0.634 0.76-1.648-0.127-0.253c-0.253-0.444-0.444-0.887-0.57-1.331l-0.063-0.253-1.711-0.634v-0.887l1.711-0.634 0.063-0.253c0.127-0.507 0.317-0.951 0.57-1.331l0.127-0.253-0.76-1.648 0.634-0.634 1.648 0.76 0.253-0.127c0.444-0.253 0.887-0.444 1.331-0.57l0.253-0.063 0.634-1.711h0.887l0.634 1.711 0.253 0.063c0.507 0.127 0.951 0.317 1.331 0.57l0.253 0.127 1.648-0.76 0.634 0.634-0.76 1.648 0.127 0.253c0.253 0.444 0.444 0.887 0.57 1.331l0.063 0.253 1.711 0.634v0.887l-1.584 0.507z"></path>
<path d="M27.564 20.341c-1.901 0-3.485 1.584-3.485 3.485s1.584 3.485 3.485 3.485c1.901 0 3.485-1.584 3.485-3.485-0.063-1.901-1.584-3.485-3.485-3.485zM27.564 26.17c-1.267 0-2.345-1.077-2.345-2.345s1.077-2.345 2.345-2.345c1.267 0 2.345 1.077 2.345 2.345-0.063 1.267-1.077 2.345-2.345 2.345z"></path>
<path d="M0 15.018h3.232v1.141h-3.232v-1.141z"></path>
<path d="M3.232 19.327h3.422v1.141h-3.422v-1.141z"></path>
<path d="M3.232 21.418h3.422v1.141h-3.422v-1.141z"></path>
<path d="M3.232 27.881h3.422v1.141h-3.422v-1.141z"></path>
<path d="M3.232 30.036h3.422v1.141h-3.422v-1.141z"></path>
<path d="M0 17.172h6.653v1.141h-6.653v-1.141z"></path>
<path d="M0 23.572h3.232v1.141h-3.232v-1.141z"></path>
<path d="M3.232 10.709h3.422v1.141h-3.422v-1.141z"></path>
<path d="M3.232 12.863h3.422v1.141h-3.422v-1.141z"></path>
<path d="M0 8.554h6.653v1.141h-6.653v-1.141z"></path>
<path d="M0 25.727h6.653v1.141h-6.653v-1.141z"></path>
<path d="M7.984 27.881h3.422v1.141h-3.422v-1.141z"></path>
<path d="M7.984 30.036h6.653v1.141h-6.653v-1.141z"></path>
<path d="M10.709 2.028h1.141v1.141h-1.141v-1.141z"></path>
<path d="M12.99 2.028h1.141v1.141h-1.141v-1.141z"></path>
<path d="M15.208 2.028h1.141v1.141h-1.141v-1.141z"></path>
<path d="M9.061 5.133h20.214v10.075h1.141v-15.208h-22.495v26.867h10.519v-1.141h-9.378v-20.594zM9.061 1.141h20.214v2.852h-20.214v-2.852z"></path>
<path d="M21.798 11.343c0.317-0.317 0.507-0.76 0.507-1.267 0-0.444-0.19-0.887-0.507-1.267-0.317-0.317-0.76-0.507-1.267-0.507h-2.028c-0.317 0-0.57 0.253-0.57 0.57v5.386h1.141v-2.408h1.457c0.507 0 0.951-0.19 1.267-0.507zM19.073 10.709v-1.267h1.457c0.19 0 0.317 0.063 0.444 0.19s0.19 0.253 0.19 0.444c0 0.19-0.063 0.317-0.19 0.444s-0.253 0.19-0.444 0.19h-1.457z"></path>
<path d="M16.855 14.257v0-4.182c0-0.444-0.19-0.887-0.507-1.267-0.317-0.317-0.76-0.507-1.267-0.507h-0.824c-0.444 0-0.887 0.19-1.267 0.507-0.317 0.317-0.507 0.76-0.507 1.267v4.182h1.141v-2.408h2.091v2.408h1.141zM13.624 10.709v-0.634c0-0.19 0.063-0.317 0.19-0.444s0.253-0.19 0.444-0.19h0.824c0.19 0 0.317 0.063 0.444 0.19s0.19 0.253 0.19 0.444v0.634h-2.091z"></path>
<path d="M25.853 9.442v-1.141h-2.408v1.141h0.634v3.739h-0.634v1.077h2.408v-1.077h-0.634v-3.739z"></path>
</svg>
