<!-- Generated by IcoMoon.io -->
<svg version="1.1" xmlns="http://www.w3.org/2000/svg" width="32" height="32" viewBox="0 0 32 32">
<path d="M0.101 2.935l2.134 3.735c0.072 0.126 0.192 0.218 0.333 0.253l1.991 0.498 6.829 6.829 0.755-0.754-6.936-6.936c-0.068-0.068-0.154-0.117-0.248-0.14l-1.913-0.48-1.817-3.181 1.558-1.558 3.183 1.819 0.48 1.913c0.023 0.094 0.072 0.18 0.14 0.248l6.936 6.936 0.754-0.755-6.829-6.829-0.498-1.99c-0.035-0.141-0.127-0.262-0.253-0.334l-3.735-2.134c-0.208-0.118-0.47-0.083-0.64 0.086l-2.134 2.134c-0.172 0.169-0.209 0.431-0.091 0.641z"></path>
<path d="M22.282 10.515l-11.737 11.737-0.755-0.755 11.737-11.737z"></path>
<path d="M8.491 22.667c-0.097-0.161-0.27-0.259-0.457-0.259h-3.201c-0.187 0-0.361 0.098-0.457 0.259l-1.601 2.667c-0.102 0.169-0.102 0.38 0 0.55l1.601 2.667c0.096 0.16 0.27 0.259 0.457 0.259h3.201c0.187 0 0.361-0.098 0.457-0.259l1.6-2.667c0.102-0.169 0.102-0.381 0-0.55zM7.732 27.743h-2.597l-1.28-2.134 1.28-2.134h2.597l1.28 2.134z"></path>
<path d="M25.639 12.805c3.524 0.012 6.39-2.835 6.402-6.359 0.002-0.536-0.064-1.071-0.196-1.59-0.071-0.286-0.361-0.46-0.647-0.389-0.094 0.023-0.18 0.072-0.248 0.14l-3.321 3.319-2.635-0.878-0.879-2.634 3.321-3.322c0.208-0.209 0.208-0.546-0-0.755-0.069-0.069-0.155-0.117-0.25-0.141-3.417-0.865-6.889 1.203-7.754 4.62-0.131 0.518-0.197 1.051-0.195 1.586 0.001 0.42 0.045 0.839 0.13 1.25l-11.684 11.684c-0.411-0.085-0.83-0.128-1.25-0.13-3.536 0-6.402 2.866-6.402 6.402s2.866 6.402 6.402 6.402c3.536 0 6.402-2.866 6.402-6.402-0.001-0.42-0.045-0.839-0.13-1.25l2.797-2.797 1.223 1.223c0.209 0.208 0.546 0.208 0.755 0l0.267-0.267c0.234-0.232 0.612-0.232 0.846 0s0.234 0.611 0.001 0.845c-0 0-0.001 0.001-0.001 0.001l-0.267 0.267c-0.208 0.208-0.208 0.546 0 0.754l6.364 6.364c1.674 1.689 4.4 1.702 6.089 0.028s1.701-4.4 0.027-6.089c-0.009-0.009-0.018-0.018-0.027-0.028l-6.364-6.364c-0.208-0.208-0.546-0.208-0.754 0l-0.267 0.267c-0.234 0.233-0.612 0.233-0.846 0s-0.234-0.611-0.001-0.845c0-0 0.001-0.001 0.001-0.001l0.267-0.267c0.208-0.208 0.208-0.546 0-0.754l-1.223-1.223 2.797-2.797c0.411 0.085 0.83 0.128 1.25 0.13zM27.735 30.945c-0.388-0.001-0.772-0.071-1.135-0.207l4.167-4.167c0.629 1.673-0.217 3.538-1.89 4.167-0.365 0.137-0.752 0.207-1.142 0.207zM21.691 17.079c-0.591 0.705-0.498 1.755 0.207 2.346 0.619 0.519 1.522 0.519 2.141-0.002l5.987 5.992c0.065 0.065 0.126 0.134 0.185 0.204l-4.561 4.561c-0.070-0.059-0.139-0.119-0.204-0.185l-5.992-5.992c0.591-0.705 0.498-1.755-0.207-2.346-0.619-0.519-1.522-0.519-2.141 0.001l-0.854-0.854 4.585-4.579zM23.846 11.713l-12.103 12.1c-0.133 0.133-0.186 0.325-0.141 0.507 0.732 2.874-1.005 5.798-3.88 6.53s-5.798-1.005-6.53-3.88c-0.732-2.874 1.005-5.798 3.88-6.53 0.87-0.221 1.781-0.221 2.65 0 0.182 0.045 0.374-0.009 0.507-0.141l12.1-12.101c0.133-0.133 0.186-0.325 0.14-0.507-0.727-2.841 0.987-5.733 3.828-6.46 0.537-0.137 1.092-0.19 1.645-0.155l-2.814 2.815c-0.143 0.143-0.193 0.354-0.129 0.546l1.067 3.201c0.053 0.159 0.178 0.284 0.338 0.337l3.201 1.067c0.191 0.064 0.403 0.014 0.546-0.129l2.814-2.814c0.006 0.102 0.010 0.203 0.010 0.303 0.015 2.931-2.349 5.32-5.281 5.335-0.453 0.002-0.905-0.054-1.344-0.166-0.182-0.045-0.374 0.008-0.507 0.14h0.003z"></path>
<path d="M27.618 26.833l-0.755 0.755-5.335-5.335 0.754-0.755z"></path>
</svg>
