<!-- Generated by IcoMoon.io -->
<svg version="1.1" xmlns="http://www.w3.org/2000/svg" width="32" height="32" viewBox="0 0 32 32">
<path d="M13.85 10.119c-0.885 0-1.581 0.696-1.581 1.581h1.075c0-0.316 0.253-0.506 0.506-0.506 0.316 0 0.506 0.253 0.506 0.506h1.075c0.063-0.822-0.696-1.581-1.581-1.581z"></path>
<path d="M18.15 10.119c-0.885 0-1.581 0.696-1.581 1.581h1.075c0-0.316 0.253-0.506 0.506-0.506 0.316 0 0.506 0.253 0.506 0.506h1.075c0-0.822-0.696-1.581-1.581-1.581z"></path>
<path d="M16 24.538c-1.202 0-2.15 0.949-2.15 2.15s0.949 2.15 2.15 2.15c1.202 0 2.15-0.949 2.15-2.15s-0.949-2.15-2.15-2.15zM16 27.763c-0.569 0-1.075-0.506-1.075-1.075s0.506-1.075 1.075-1.075c0.569 0 1.075 0.506 1.075 1.075s-0.506 1.075-1.075 1.075z"></path>
<path d="M28.775 30.925v-6.893c0-4.427-3.605-8.032-8.032-8.032h-0.506c0.19-0.19 0.379-0.316 0.569-0.506h0.569c1.455 0 2.656-1.202 2.656-2.656v-0.949c0.632-0.443 1.075-1.138 1.075-2.024 0-0.822-0.443-1.581-1.075-2.024-0.126-4.3-3.668-7.842-8.032-7.842s-7.905 3.542-7.968 7.842c-0.632 0.443-1.075 1.138-1.075 2.024 0 1.328 1.075 2.403 2.403 2.403h0.379c0.253 1.455 1.012 2.783 2.087 3.731h-0.569c-4.427 0-7.968 3.605-7.968 8.032v6.957h-3.289v1.075h32v-1.075h-3.225zM22.957 12.775c0 0.822-0.632 1.455-1.391 1.581 0.379-0.632 0.632-1.328 0.759-2.087h0.379c0.063 0 0.19 0 0.253 0v0.506zM24.032 9.866c0 0.759-0.569 1.328-1.328 1.328h-0.253v-2.656h0.253c0.696 0 1.328 0.569 1.328 1.328zM9.613 11.194h-0.253c-0.759 0-1.328-0.569-1.328-1.328s0.569-1.328 1.328-1.328h0.253v2.656zM9.36 7.462c-0.063 0-0.19 0-0.253 0 0.253-3.605 3.225-6.451 6.893-6.451s6.64 2.846 6.893 6.451c-0.063 0-0.19 0-0.253 0h-0.379c-0.506-3.036-3.162-5.312-6.324-5.312s-5.818 2.34-6.324 5.312h-0.253zM21.312 8.538c-3.858-0.126-6.387-1.707-6.387-3.162 0-0.316-0.253-0.506-0.506-0.506-0.316 0-0.506 0.253-0.506 0.506 0 1.328-1.391 2.466-3.162 2.656 0.253-2.656 2.53-4.743 5.312-4.743 2.846-0.063 5.249 2.277 5.249 5.249zM10.688 11.194v-2.15c1.644-0.126 3.099-0.949 3.794-2.087 1.138 1.455 3.731 2.53 6.893 2.656v1.581c0 1.202-0.379 2.277-1.075 3.225h-4.237v1.075h3.162c-0.316 0.253-0.632 0.443-1.012 0.569-1.391 0.632-2.972 0.632-4.427 0-1.834-0.822-3.099-2.719-3.099-4.87zM14.356 17.391c0.506 0.126 1.075 0.253 1.644 0.253s1.138-0.063 1.644-0.253l-1.644 3.289-1.644-3.289zM15.115 21.312h-0.949l-2.087-4.237h0.949l2.087 4.237zM18.972 17.075h0.949l-2.15 4.237h-0.949l2.15-4.237zM5.881 24.032v6.957h-1.644v-6.957c0-3.731 2.909-6.767 6.64-6.893l2.15 4.237h-4.49c-1.455-0.063-2.656 1.138-2.656 2.656zM25.043 30.925h-18.087v-6.893c0-0.885 0.696-1.581 1.581-1.581h14.925c0.885 0 1.581 0.696 1.581 1.581v6.893zM27.763 30.925h-1.581v-6.893c0-1.455-1.202-2.656-2.656-2.656h-4.553l2.15-4.237c3.668 0.19 6.64 3.225 6.64 6.893v6.893z"></path>
<path d="M22.957 26.119h1.075v3.731h-1.075v-3.731z"></path>
<path d="M22.957 24.032h1.075v1.075h-1.075v-1.075z"></path>
<path d="M27.763 4.806h1.075v1.075h-1.075v-1.075z"></path>
<path d="M27.763 6.957h1.075v1.075h-1.075v-1.075z"></path>
<path d="M27.763 9.043h1.075v1.075h-1.075v-1.075z"></path>
<path d="M3.225 11.194h1.075v1.075h-1.075v-1.075z"></path>
<path d="M3.225 13.344h1.075v1.075h-1.075v-1.075z"></path>
<path d="M3.225 15.494h1.075v1.075h-1.075v-1.075z"></path>
</svg>
