<!-- Generated by IcoMoon.io -->
<svg version="1.1" xmlns="http://www.w3.org/2000/svg" width="32" height="32" viewBox="0 0 32 32">
<path d="M8.828 2.399c-0.967-1.289-2.272-1.999-3.675-1.999s-2.708 0.71-3.675 1.999c-0.92 1.226-1.426 2.845-1.426 4.558s0.506 3.332 1.426 4.558c0.538 0.717 1.18 1.254 1.886 1.59l-1.079 16.229c-0.053 0.791 0.228 1.576 0.769 2.155s1.307 0.911 2.099 0.911c0.792 0 1.557-0.332 2.099-0.91s0.822-1.364 0.769-2.155l-1.079-16.228c0.706-0.336 1.349-0.873 1.886-1.591 0.919-1.226 1.426-2.845 1.426-4.558s-0.506-3.332-1.426-4.558zM6.18 30.487c-0.269 0.287-0.633 0.445-1.027 0.445s-0.759-0.158-1.028-0.446c-0.269-0.288-0.403-0.662-0.377-1.055l1.060-15.933c0.114 0.010 0.229 0.016 0.344 0.016s0.23-0.007 0.344-0.016l1.060 15.933c0.026 0.393-0.108 0.768-0.377 1.055zM5.152 12.047c-0.263 0-0.519-0.040-0.766-0.115-0.021-0.008-0.041-0.014-0.063-0.020-1.605-0.527-2.804-2.547-2.804-4.954 0-2.806 1.63-5.089 3.633-5.089s3.634 2.283 3.634 5.089-1.63 5.089-3.634 5.089zM31.949 19.52v-18.294l-0.006 0.003c0.021-0.162-0.011-0.331-0.103-0.481-0.213-0.345-0.665-0.451-1.010-0.238-2.994 1.851-4.782 5.057-4.782 8.577 0 0.001-0 0.001-0 0.001v9.611c0 0.843 0.674 1.53 1.511 1.556v9.939c0 1.211 0.985 2.196 2.196 2.196s2.196-0.985 2.196-2.196v-10.67c-0-0.001-0-0.002-0-0.004zM27.605 18.79c-0.050-0-0.090-0.040-0.090-0.090v-9.61c0-0 0-0.001 0-0.001 0-2.539 1.088-4.887 2.966-6.509v16.21h-2.876zM30.481 30.194c0 0.401-0.327 0.728-0.728 0.728s-0.728-0.327-0.728-0.728v-9.936h1.456v9.936zM20.8 0.4c-0.405 0-0.734 0.329-0.734 0.734v8.337h-1.87v-8.337c0-0.405-0.329-0.734-0.734-0.734s-0.734 0.329-0.734 0.734v8.337h-1.87v-8.337c0-0.405-0.329-0.734-0.734-0.734s-0.734 0.329-0.734 0.734v10.624c0 1.196 0.973 2.17 2.17 2.17h0.131l-1.030 15.478c-0.052 0.772 0.222 1.539 0.751 2.104s1.276 0.89 2.050 0.89c0.774 0 1.521-0.324 2.050-0.89s0.802-1.332 0.751-2.104l-1.030-15.478h0.131c1.196 0 2.17-0.973 2.17-2.17v-10.624c-0-0.405-0.329-0.734-0.734-0.734zM18.44 30.507c-0.256 0.274-0.604 0.425-0.978 0.425s-0.722-0.151-0.978-0.425c-0.256-0.274-0.383-0.63-0.358-1.004l1.036-15.576h0.601l1.036 15.576c0.025 0.374-0.102 0.73-0.358 1.004zM20.066 11.758c0 0.387-0.315 0.702-0.702 0.702h-2.914c-0.001 0-0.002-0-0.003 0h-0.887c-0.387 0-0.702-0.315-0.702-0.702v-0.819h5.208v0.819z"></path>
</svg>
