<!-- Generated by IcoMoon.io -->
<svg version="1.1" xmlns="http://www.w3.org/2000/svg" width="32" height="32" viewBox="0 0 32 32">
<path d="M10.593 18.372c-0.183-0.183-0.48-0.183-0.663 0s-0.183 0.48 0 0.663l1.259 1.259c0.092 0.092 0.212 0.137 0.332 0.137s0.24-0.046 0.332-0.137c0.183-0.183 0.183-0.48 0-0.663z"></path>
<path d="M8.944 20.021c-0.183-0.183-0.48-0.183-0.663 0s-0.183 0.48 0 0.663l1.259 1.259c0.092 0.092 0.212 0.137 0.332 0.137s0.24-0.046 0.332-0.137c0.183-0.183 0.183-0.48 0-0.663z"></path>
<path d="M7.295 21.669c-0.183-0.183-0.48-0.183-0.663 0s-0.183 0.48 0 0.663l1.259 1.259c0.092 0.091 0.211 0.137 0.332 0.137s0.24-0.046 0.332-0.137c0.183-0.183 0.183-0.48 0-0.663z"></path>
<path d="M11.437 16.215c-0.268-0.268-0.624-0.415-1.002-0.415s-0.735 0.147-1.003 0.415l-5.16 5.16c-0.553 0.553-0.553 1.452 0 2.005l2.571 2.571c0.268 0.268 0.624 0.416 1.003 0.416s0.735-0.148 1.002-0.416l5.16-5.16c0.553-0.553 0.553-1.452 0-2.005zM13.345 20.128l-5.16 5.16c-0.091 0.091-0.211 0.141-0.34 0.141s-0.249-0.050-0.34-0.141l-2.571-2.571c-0.187-0.187-0.187-0.492 0-0.679l5.16-5.16c0.091-0.091 0.211-0.141 0.34-0.141s0.249 0.050 0.34 0.141l2.571 2.571c0.187 0.187 0.187 0.492 0 0.679z"></path>
<path d="M31.971 1.009c-0.123-0.346-0.426-0.585-0.791-0.624l-3.525-0.373c-0.611-0.064-1.209 0.147-1.643 0.581l-2.162 2.162-0.431-0.431c-0.327-0.327-0.761-0.507-1.223-0.507s-0.896 0.18-1.223 0.507l-19.924 19.924c-1.316 1.316-1.316 3.457 0 4.772l3.698 3.698c0.831 0.831 1.94 1.282 3.087 1.282 0.301 0 0.605-0.031 0.907-0.095 1.452-0.306 2.64-1.314 3.177-2.697l1.382-3.559c0.784-2.017 1.957-3.815 3.487-5.345l9.7-9.7c0.514-0.514 0.652-1.302 0.342-1.959l-0.555-1.179 5.474-5.474c0.26-0.26 0.345-0.636 0.222-0.983zM31.085 1.329l-16.318 16.318c-0.183 0.183-0.183 0.48 0 0.663 0.092 0.092 0.212 0.137 0.332 0.137s0.24-0.046 0.332-0.137l10.139-10.139 0.412 0.874c0.142 0.301 0.079 0.662-0.157 0.897l-9.7 9.7c-1.623 1.623-2.867 3.53-3.698 5.669l-1.383 3.558c-0.422 1.087-1.355 1.879-2.496 2.119s-2.314-0.109-3.139-0.933l-3.698-3.698c-0.95-0.95-0.95-2.496 0-3.447l19.924-19.924c0.309-0.309 0.811-0.309 1.12 0l0.431 0.431-11.301 11.301c-0.183 0.183-0.183 0.48 0 0.663s0.48 0.183 0.663 0l14.126-14.126c0.233-0.233 0.554-0.346 0.881-0.312l3.529 0.373c0.002 0.002 0.004 0.008 0.001 0.012z"></path>
</svg>
