<!-- Generated by IcoMoon.io -->
<svg version="1.1" xmlns="http://www.w3.org/2000/svg" width="32" height="32" viewBox="0 0 32 32">
<path d="M31.119 26.794l-3.575-3.594c-0.131-0.131-0.325-0.194-0.519-0.194l-2.744 0.313c2.063-2.369 3.325-5.456 3.325-8.813 0-7.388-6.044-13.406-13.456-13.406s-13.463 6.081-13.463 13.469 6.044 13.406 13.456 13.406c3.325 0 6.394-1.244 8.763-3.294l-0.313 2.706c0 0.194 0.063 0.394 0.194 0.525l3.575 3.594c0.375 0.406 1.044 0.25 1.106-0.456l0.325-2.875 2.925-0.325c0.519-0.056 0.813-0.65 0.4-1.056zM1.988 14.569c0-6.737 5.463-12.162 12.156-12.162s12.156 5.425 12.156 12.162c0 3.1-1.156 5.919-3.056 8.063l-2.175-2.175c1.356-1.594 2.181-3.669 2.181-5.95 0-5.037-4.094-9.156-9.1-9.156s-9.106 4.119-9.106 9.156c0 5.038 4.094 9.156 9.1 9.156 2.3 0 4.412-0.856 6.019-2.281l2.175 2.175c-2.163 1.975-5.044 3.175-8.194 3.175-6.694 0-12.156-5.425-12.156-12.162zM18.094 17.481c0.619-0.819 0.994-1.825 0.994-2.912 0-2.681-2.212-4.906-4.944-4.906s-4.944 2.225-4.944 4.906 2.213 4.906 4.944 4.906c1.131 0 2.194-0.406 3.044-1.069l2.1 2.1c-1.375 1.188-3.175 1.913-5.144 1.913-4.356 0-7.869-3.531-7.869-7.844s3.513-7.844 7.869-7.844c4.294 0 7.8 3.531 7.869 7.844 0 1.9-0.681 3.65-1.819 5.012l-2.1-2.106zM15.512 14.894c-0.262-0.262-0.65-0.262-0.912 0s-0.262 0.656 0 0.912l1.706 1.706c-0.606 0.45-1.35 0.712-2.162 0.712-2.013 0-3.644-1.637-3.644-3.662s1.625-3.662 3.644-3.662 3.644 1.637 3.644 3.662c0 0.744-0.219 1.431-0.594 2.006l-1.681-1.675zM23.9 27.188l0.188-1.887 2.456 2.456-0.175 1.85-2.469-2.419zM27.506 26.894l-2.413-2.413 1.669-0.169 2.469 2.419-1.725 0.163z"></path>
</svg>
