<!-- Generated by IcoMoon.io -->
<svg version="1.1" xmlns="http://www.w3.org/2000/svg" width="32" height="32" viewBox="0 0 32 32">
<path d="M28.907 2.574c-0.795-0.522-1.909-0.984-3.311-1.374-2.788-0.774-6.48-1.201-10.396-1.201s-7.609 0.426-10.396 1.201c-1.402 0.39-2.516 0.852-3.311 1.374-0.99 0.65-1.492 1.399-1.492 2.226v19.2c0 0.826 0.502 1.575 1.492 2.226 0.795 0.522 1.909 0.984 3.311 1.374 2.788 0.774 6.48 1.201 10.396 1.201s7.609-0.426 10.396-1.201c1.402-0.39 2.516-0.852 3.311-1.374 0.99-0.65 1.492-1.399 1.492-2.226v-19.2c0-0.826-0.502-1.575-1.492-2.226zM5.232 2.742c2.652-0.737 6.192-1.142 9.968-1.142s7.316 0.406 9.968 1.142c2.873 0.798 3.632 1.695 3.632 2.058s-0.759 1.26-3.632 2.058c-2.652 0.737-6.192 1.142-9.968 1.142s-7.316-0.406-9.968-1.142c-2.873-0.798-3.632-1.695-3.632-2.058s0.759-1.26 3.632-2.058zM25.168 26.058c-2.652 0.737-6.192 1.142-9.968 1.142s-7.316-0.406-9.968-1.142c-2.873-0.798-3.632-1.695-3.632-2.058v-4.106c0.786 0.494 1.863 0.933 3.204 1.305 2.788 0.774 6.48 1.201 10.396 1.201s7.609-0.426 10.396-1.201c1.341-0.372 2.417-0.811 3.204-1.305v4.106c0 0.363-0.759 1.26-3.632 2.058zM25.168 19.658c-2.652 0.737-6.192 1.142-9.968 1.142s-7.316-0.406-9.968-1.142c-2.873-0.798-3.632-1.695-3.632-2.058v-4.106c0.786 0.494 1.863 0.933 3.204 1.305 2.788 0.774 6.48 1.201 10.396 1.201s7.609-0.426 10.396-1.201c1.341-0.372 2.417-0.811 3.204-1.305v4.106c0 0.363-0.759 1.26-3.632 2.058zM25.168 13.258c-2.652 0.737-6.192 1.142-9.968 1.142s-7.316-0.406-9.968-1.142c-2.873-0.798-3.632-1.695-3.632-2.058v-4.106c0.786 0.494 1.863 0.933 3.204 1.305 2.788 0.774 6.48 1.201 10.396 1.201s7.609-0.426 10.396-1.201c1.341-0.372 2.417-0.811 3.204-1.305v4.106c0 0.363-0.759 1.26-3.632 2.058z"></path>
</svg>
