<!-- Generated by IcoMoon.io -->
<svg version="1.1" xmlns="http://www.w3.org/2000/svg" width="32" height="32" viewBox="0 0 32 32">
<path d="M17.433 18.183c-0.478 0.015-0.957 0.023-1.433 0.023-0.478 0-0.958-0.008-1.437-0.023-4.036-0.11-7.253-0.681-9.569-1.494-1.089-0.367-2.021-0.799-2.74-1.294v5.168c1.565 1.634 6.814 3.14 13.745 3.14s12.181-1.506 13.745-3.14v-5.168c-0.725 0.498-1.665 0.933-2.763 1.301-2.315 0.809-5.525 1.376-9.549 1.486z"></path>
<path d="M2.254 8.186v5.168c1.45 1.514 6.066 2.92 12.253 3.116 0.063 0.002 0.128 0.003 0.192 0.004 0.179 0.005 0.358 0.010 0.54 0.013 0.251 0.004 0.505 0.007 0.76 0.007s0.509-0.002 0.76-0.006c0.181-0.003 0.361-0.008 0.54-0.013 0.064-0.002 0.129-0.003 0.192-0.004 6.187-0.197 10.803-1.603 12.253-3.116v-5.169c-2.676 1.838-8.333 2.81-13.745 2.81s-11.069-0.972-13.745-2.81z"></path>
<path d="M29.671 4.697c-0.617-2.365-5.361-4.697-13.671-4.697-8.29 0-13.028 2.32-13.665 4.679-0.047 0.081-0.081 0.169-0.081 0.269v1.268c1.56 1.628 6.772 3.131 13.745 3.131s12.186-1.503 13.745-3.131v-1.268c0-0.092-0.031-0.175-0.074-0.252z"></path>
<path d="M2.254 22.543v4.509c0 0.089 0.024 0.173 0.064 0.248 0.649 2.691 6.459 4.7 13.681 4.7 7.206 0 13.006-2.001 13.677-4.682 0.044-0.079 0.069-0.17 0.069-0.266v-4.508c-2.273 1.601-6.958 2.858-13.745 2.858s-11.473-1.259-13.745-2.86z"></path>
</svg>
