<!-- Generated by IcoMoon.io -->
<svg version="1.1" xmlns="http://www.w3.org/2000/svg" width="32" height="32" viewBox="0 0 32 32">
<path d="M31.669 11.75c-0.175-0.125-0.406-0.156-0.613-0.081l-5.425 1.969c-0.675 0.244-1.212 0.738-1.506 1.387-0.056 0.125-0.094 0.25-0.131 0.375-0.931-0.262-2.663-0.819-4.387-1.7-2.6-1.344-4.581-0.681-6.287 0.625-0.863 0.019-2.050 0.119-3.225 0.225-0.75 0.069-1.456 0.125-2.019 0.162-0.012-0.344-0.094-0.688-0.244-1.006-0.3-0.65-0.838-1.144-1.506-1.387l-5.425-1.969c-0.206-0.075-0.431-0.044-0.613 0.081s-0.287 0.331-0.287 0.544v13.306c0 0.369 0.3 0.669 0.669 0.669h1.944c0.831 0 1.594-0.394 2.087-1.019 0.263 0.2 0.581 0.438 0.906 0.688 0.806 0.575 1.65 1.212 2.025 1.519 2.475 2.075 5.456 4.319 6.050 4.7 0.556 0.363 1.55 0.75 2.313 0.75 0.3 0 1.050 0 1.569-0.444 0.544 0.212 1.125 0.2 1.663-0.038 0.544-0.238 0.981-0.688 1.238-1.238 0.519 0.106 1.119 0.031 1.656-0.244 0.506-0.256 0.881-0.637 1.081-1.087 0.481 0.044 0.994-0.113 1.456-0.462 0.656-0.5 0.956-1.244 0.875-1.969l1.688-0.938c0.494 0.669 1.281 1.1 2.131 1.1h1.944c0.369 0 0.669-0.3 0.669-0.669v-13.313c-0.006-0.206-0.113-0.412-0.294-0.537zM3.875 22.744c-0.194 0.519-0.694 0.863-1.25 0.863h-1.275v-11.688l4.531 1.644c0.338 0.125 0.606 0.369 0.756 0.694s0.162 0.688 0.037 1.025l-2.8 7.462zM23.837 27.019c-0.225 0.175-0.544 0.269-0.681 0.131-0.006-0.006-0.019-0.006-0.025-0.012-0.012-0.012-0.019-0.025-0.031-0.038-0.475-0.375-2.606-2.556-3.925-3.931-0.256-0.269-0.675-0.275-0.944-0.019s-0.275 0.675-0.019 0.944c0.313 0.325 2.788 2.906 3.788 3.813-0.075 0.294-0.344 0.475-0.481 0.544-0.425 0.212-0.875 0.181-1.038 0.025-0.006-0.006-0.012-0.006-0.019-0.006-0.006-0.006-0.012-0.019-0.019-0.025-0.8-0.637-2.8-2.762-3.25-3.256-0.25-0.269-0.669-0.288-0.944-0.038-0.269 0.25-0.287 0.669-0.038 0.944 0.025 0.025 1.981 2.137 3.087 3.125-0.106 0.313-0.331 0.569-0.613 0.694-0.206 0.094-0.538 0.144-0.913-0.137-0.956-0.813-2.875-2.85-3.25-3.256-0.25-0.269-0.675-0.281-0.944-0.031s-0.281 0.675-0.031 0.944c0.45 0.481 1.769 1.875 2.775 2.825-0.113 0.012-0.231 0.019-0.344 0.019-0.444 0-1.2-0.281-1.575-0.531-0.469-0.306-3.394-2.494-5.925-4.606-0.381-0.319-1.256-0.981-2.050-1.575-0.431-0.325-0.825-0.619-1.119-0.844l2.487-6.644c0.65-0.031 1.506-0.1 2.419-0.181 0.519-0.044 1.037-0.088 1.525-0.131-0.762 0.781-1.881 2.175-1.738 3.481 0.069 0.594 0.394 1.094 0.944 1.438 1.088 0.681 3.1 0.113 4.069-1.087 0.625-0.087 1.050-0.25 1.506-0.481 0.781 0.738 1.825 1.594 2.925 2.5 1.906 1.575 4.081 3.363 4.65 4.363 0.325 0.538-0.119 0.938-0.262 1.044zM24.981 24.881c-0.887-1.188-2.806-2.769-4.675-4.319-1.25-1.031-2.425-2-3.181-2.756-0.206-0.206-0.525-0.256-0.788-0.119-0.681 0.363-0.988 0.512-1.744 0.594-0.206 0.019-0.387 0.131-0.5 0.306-0.525 0.831-1.969 1.225-2.431 0.938-0.262-0.163-0.313-0.331-0.325-0.456-0.063-0.569 0.512-1.544 1.463-2.494 2.35-2.35 4.037-2.813 6.213-1.688 2.069 1.069 4.113 1.669 4.963 1.894 0.025 0.1 0.044 0.2 0.081 0.3l2.581 6.894-1.656 0.906zM29.344 24.938c-0.55 0-1.056-0.35-1.25-0.863l-2.8-7.463c-0.125-0.337-0.113-0.7 0.038-1.025s0.419-0.575 0.756-0.694l4.525-1.644 0.006 11.681-1.275 0.006zM15.981 7.438c-0.188 0-0.338 0.244-0.338 0.419 0 0.362 0.619 0.856 1.531 0.869v0.231c0 0.088 0.087 0.169 0.212 0.169 0.113 0 0.219-0.081 0.219-0.169v-0.25c0.8-0.113 1.344-0.613 1.344-1.513-0.006-1.013-0.706-1.337-1.35-1.569v-1.5c0.519 0.037 0.706 0.275 0.887 0.275 0.219 0 0.325-0.281 0.325-0.419 0-0.362-0.706-0.519-1.212-0.531v-0.2c0-0.087-0.113-0.169-0.219-0.169-0.125 0-0.212 0.081-0.212 0.169v0.212c-0.7 0.075-1.4 0.444-1.4 1.375 0 0.944 0.737 1.213 1.4 1.45v1.731c-0.744-0.063-0.944-0.581-1.188-0.581zM17.556 6.431c0.363 0.156 0.65 0.362 0.65 0.825 0 0.425-0.25 0.662-0.65 0.731v-1.556zM16.506 4.756c0-0.381 0.294-0.569 0.706-0.619v1.344c-0.394-0.15-0.706-0.3-0.706-0.725zM17.313 10.975c2.775 0 5.025-2.25 5.025-5.025s-2.25-5.025-5.025-5.025-5.025 2.25-5.025 5.025c0 2.769 2.25 5.025 5.025 5.025zM17.313 1.825c2.275 0 4.125 1.844 4.125 4.125 0 2.275-1.844 4.125-4.125 4.125s-4.125-1.844-4.125-4.125c0.006-2.281 1.85-4.125 4.125-4.125z"></path>
</svg>
