<!-- Generated by IcoMoon.io -->
<svg version="1.1" xmlns="http://www.w3.org/2000/svg" width="32" height="32" viewBox="0 0 32 32">
<path d="M18.475 20.212h-4.95c-3.325 0-5.994 2.631-6.063 5.913-0.194 0.988-0.456 2.694 0.194 3.35 1.7 1.644 5.412 2.238 8.344 2.238s6.644-0.594 8.337-2.238c0.65-0.656 0.394-2.369 0.194-3.35-0.063-3.288-2.731-5.913-6.056-5.913zM23.494 28.494c-1.175 1.181-4.038 1.906-7.431 1.906s-6.319-0.725-7.431-1.837c-0.131-0.2-0.063-1.313 0.131-2.238v-0.131c0-2.631 2.15-4.731 4.756-4.731v-0.069h5.019c2.606 0 4.756 2.1 4.756 4.731v0.131c0.2 0.919 0.331 2.038 0.2 2.238zM16 19.425c2.738 0 4.887-2.169 4.887-4.863s-2.15-4.863-4.887-4.863c-2.669 0-4.887 2.169-4.887 4.863s2.15 4.863 4.887 4.863zM16 10.944c2.019 0 3.65 1.644 3.65 3.612s-1.631 3.613-3.65 3.613-3.65-1.644-3.65-3.613c0-1.969 1.631-3.613 3.65-3.613zM15.35 3.5v4.95h1.237v-5.019l1.431 1.4 0.85-0.85-2.869-2.894-2.869 2.894 0.85 0.85zM8.119 13.9v-1.244h-5.069l1.419-1.381-0.913-0.856-2.869 2.825 2.869 2.894 0.913-0.919-1.35-1.319zM28.444 10.419l-0.913 0.856 1.419 1.381h-5.069v1.244h5l-1.35 1.319 0.913 0.919 2.869-2.894z"></path>
</svg>
