<!-- Generated by IcoMoon.io -->
<svg version="1.1" xmlns="http://www.w3.org/2000/svg" width="38" height="32" viewBox="0 0 38 32">
<path d="M38.4 18.576c0-2.341-2.888-4.449-7.883-5.776v-8.507c0-2.341-1.951-4.293-4.293-4.293h-14.283c-2.341 0-4.293 1.951-4.293 4.293v8.585c-4.839 1.327-7.649 3.434-7.649 5.698 0 2.341 2.81 4.371 7.649 5.698v3.434c0 2.341 1.951 4.293 4.293 4.293h14.205c2.341 0 4.293-1.951 4.293-4.293v-3.356c4.839-1.249 7.961-3.356 7.961-5.776zM0.78 18.576c0-1.873 2.576-3.668 6.868-4.917v9.834c-4.293-1.249-6.868-3.044-6.868-4.917zM29.659 27.707c0 1.951-1.561 3.512-3.512 3.512h-14.205c-1.951 0-3.512-1.561-3.512-3.512v-23.415c0-1.951 1.561-3.512 3.512-3.512h14.205c1.951 0 3.512 1.561 3.512 3.512v8.819c0 0 0 0.078 0 0.078v10.615c-2.81 0.702-6.244 1.093-9.834 1.171l1.483-1.483c0.156-0.156 0.156-0.39 0-0.546s-0.39-0.156-0.546 0l-2.419 2.419 2.419 2.419c0.078 0.078 0.156 0.078 0.312 0.078s0.234 0 0.312-0.078c0.156-0.156 0.156-0.39 0-0.546l-1.483-1.483c3.668-0.078 7.024-0.468 9.834-1.171v3.122zM30.439 23.571v-9.99c4.449 1.249 7.102 3.044 7.102 4.995 0.078 2.029-2.732 3.824-7.102 4.995z"></path>
<path d="M26.927 17.405v-3.746c0-0.546-0.234-1.093-0.624-1.561l-2.185-2.341-4.293 5.307-3.122-2.654-5.151 4.917c-0.234 0.234-0.312 0.624-0.234 0.937 0.156 0.312 0.468 0.546 0.859 0.546h13.112c1.015 0.156 1.639-0.546 1.639-1.405zM12.176 18.107c0-0.078 0-0.078 0-0.156l4.605-4.449 3.2 2.654 4.215-5.229 1.561 1.717c0.234 0.312 0.39 0.624 0.39 1.015v3.746c0 0.39-0.312 0.78-0.78 0.78h-13.112c0 0-0.078-0.078-0.078-0.078z"></path>
<path d="M14.829 11.317c1.093 0 2.029-0.937 2.029-2.029s-0.937-1.951-2.029-1.951c-1.093 0-2.029 0.937-2.029 2.029s0.937 1.951 2.029 1.951zM14.829 8.117c0.702 0 1.249 0.546 1.249 1.249s-0.546 1.249-1.249 1.249-1.249-0.546-1.249-1.249 0.546-1.249 1.249-1.249z"></path>
</svg>
