<!-- Generated by IcoMoon.io -->
<svg version="1.1" xmlns="http://www.w3.org/2000/svg" width="32" height="32" viewBox="0 0 32 32">
<path d="M31.384 4.686l0.46-0.92-7.532-3.767-2.079 2.079 2.572 4.629-1.654 1.653-5.143 0.514-11.515 11.515c-0.716 0.715-1.11 1.667-1.11 2.678 0 0.301 0.039 0.592 0.105 0.873-0.366-0.105-0.744-0.171-1.134-0.171-2.269 0-4.115 1.846-4.115 4.115s1.846 4.115 4.115 4.115 4.115-1.846 4.115-4.115c0-0.39-0.066-0.768-0.171-1.134 0.28 0.066 0.572 0.105 0.872 0.105 1.012 0 1.963-0.394 2.678-1.109l11.515-11.515 0.514-5.143 2.202-2.202-2.572-4.629 1.007-1.007zM22.467 12.867l-3.094-3.094 3.438-0.344zM22.143 13.998l-3.901 3.902-3.902-3.902 3.902-3.901zM7.441 27.885c0 1.702-1.384 3.086-3.086 3.086s-3.086-1.384-3.086-3.086c0-1.702 1.384-3.086 3.086-3.086 0.679 0 1.32 0.221 1.861 0.633 0.175 0.219 0.373 0.417 0.592 0.592 0.412 0.541 0.633 1.183 0.633 1.861zM11.122 25.020c-0.514 0.514-1.225 0.808-1.951 0.808-1.521 0-2.759-1.237-2.759-2.759 0-0.726 0.294-1.437 0.808-1.951l6.392-6.393 3.902 3.902z"></path>
<path d="M4.355 25.828c-1.135 0-2.057 0.923-2.057 2.057s0.923 2.057 2.057 2.057 2.057-0.923 2.057-2.057c0-1.134-0.923-2.057-2.057-2.057zM4.355 28.914c-0.567 0-1.029-0.461-1.029-1.029s0.461-1.029 1.029-1.029c0.567 0 1.029 0.461 1.029 1.029s-0.461 1.029-1.029 1.029z"></path>
<path d="M9.649 19.807l0.691-0.691 0.727 0.728-0.691 0.691z"></path>
<path d="M12.521 16.934l0.727-0.727 0.728 0.727-0.728 0.728z"></path>
<path d="M11.067 18.388l0.727-0.728 0.728 0.728-0.728 0.727z"></path>
<path d="M18.242 15.541c0.851 0 1.543-0.692 1.543-1.543s-0.692-1.543-1.543-1.543c-0.851 0-1.543 0.692-1.543 1.543s0.692 1.543 1.543 1.543zM18.242 13.484c0.284 0 0.514 0.231 0.514 0.514s-0.23 0.514-0.514 0.514c-0.284 0-0.514-0.23-0.514-0.514s0.231-0.514 0.514-0.514z"></path>
</svg>
