<!-- Generated by IcoMoon.io -->
<svg version="1.1" xmlns="http://www.w3.org/2000/svg" width="32" height="32" viewBox="0 0 32 32">
<path d="M21.061 2.578h-8.173c-0.251 0-0.503 0.189-0.503 0.503s0.189 0.503 0.503 0.503h8.173c0.251 0 0.503-0.189 0.503-0.503-0.063-0.314-0.251-0.503-0.503-0.503z"></path>
<path d="M16.534 4.589h-3.646c-0.251 0-0.503 0.189-0.503 0.503 0 0.251 0.189 0.503 0.503 0.503h3.646c0.251-0.063 0.44-0.251 0.44-0.566 0-0.251-0.189-0.44-0.44-0.44z"></path>
<path d="M29.674 4.652c-0.251 0-0.503 0.189-0.503 0.503 0 0.251 0.189 0.503 0.503 0.503 0.44 0 0.88 0.377 0.88 0.88v13.517h-3.458v-14.46h0.817c0.251 0 0.503-0.189 0.503-0.503 0-0.251-0.189-0.503-0.503-0.503h-0.817v-3.143c0-0.817-0.692-1.446-1.446-1.446h-19.929c-0.754 0-1.446 0.629-1.446 1.446v3.269h-2.515c-0.943-0.063-1.76 0.754-1.76 1.76v18.42c0 1.006 0.817 1.823 1.823 1.823h2.955c0.251 0 0.503-0.189 0.503-0.503s-0.189-0.503-0.503-0.503h-2.955c-0.44 0-0.88-0.377-0.88-0.88v-3.898h29.611v3.898c0 0.44-0.377 0.88-0.88 0.88h-22.695c-0.251 0-0.503 0.189-0.503 0.503 0 0.251 0.189 0.503 0.503 0.503h4.904v2.515c-1.257 0-2.326 1.069-2.326 2.326 0 0.251 0.189 0.503 0.503 0.503h11.505c0.251 0 0.503-0.189 0.503-0.503 0-1.257-1.069-2.326-2.326-2.326v-2.515h10.059c1.006 0 1.823-0.817 1.823-1.823v-18.42c-0.126-1.006-0.943-1.823-1.949-1.823zM4.275 19.992h-3.332v-13.517c0-0.44 0.377-0.88 0.88-0.88h2.515v14.397zM26.153 6.978h-16.22c-0.251 0-0.503 0.189-0.503 0.503s0.189 0.503 0.503 0.503h16.22v12.071h-20.872v-12.134h2.2c0.251 0 0.503-0.189 0.503-0.503s-0.189-0.503-0.503-0.503h-2.2v-5.47c0-0.251 0.189-0.503 0.503-0.503h19.929c0.251 0 0.503 0.189 0.503 0.503l-0.063 5.532zM12.825 26.656h5.91v2.515h-5.91v-2.515zM20.935 31.057h-10.373c0.189-0.566 0.692-0.943 1.32-0.943h7.733c0.629 0 1.132 0.377 1.32 0.943z"></path>
<path d="M16.031 21.878c-0.817 0-1.446 0.629-1.446 1.446s0.629 1.446 1.446 1.446c0.817 0 1.446-0.629 1.446-1.446-0.063-0.817-0.692-1.446-1.446-1.446zM16.031 23.827c-0.251 0-0.503-0.189-0.503-0.503 0-0.251 0.189-0.503 0.503-0.503 0.251 0 0.503 0.189 0.503 0.503-0.063 0.251-0.251 0.503-0.503 0.503z"></path>
<path d="M10.436 4.904l-1.572-2.703c-0.063-0.126-0.251-0.251-0.44-0.251s-0.251 0.126-0.377 0.251l-1.572 2.703c-0.063 0.126-0.063 0.314 0 0.503 0.126 0.126 0.251 0.251 0.44 0.251h3.143c0.189 0 0.314-0.063 0.44-0.251 0.063-0.126 0.063-0.314-0.063-0.503zM7.733 4.652l0.754-1.257 0.754 1.257h-1.509z"></path>
<path d="M24.707 9.682h-6.916c-0.251 0-0.503 0.189-0.503 0.503 0 0.251 0.189 0.503 0.503 0.503h6.916c0.251 0 0.503-0.189 0.503-0.503s-0.251-0.503-0.503-0.503z"></path>
<path d="M24.707 11.756h-6.916c-0.251 0-0.503 0.189-0.503 0.503s0.189 0.503 0.503 0.503h6.916c0.251 0 0.503-0.189 0.503-0.503s-0.251-0.503-0.503-0.503z"></path>
<path d="M24.707 13.831h-6.916c-0.251 0-0.503 0.189-0.503 0.503 0 0.251 0.189 0.503 0.503 0.503h6.916c0.251 0 0.503-0.189 0.503-0.503 0-0.251-0.251-0.503-0.503-0.503z"></path>
<path d="M24.707 15.906h-6.916c-0.251 0-0.503 0.189-0.503 0.503 0 0.251 0.189 0.503 0.503 0.503h6.916c0.251 0 0.503-0.189 0.503-0.503 0-0.251-0.251-0.503-0.503-0.503z"></path>
<path d="M21.061 18.043h-3.206c-0.251 0-0.503 0.189-0.503 0.503s0.189 0.503 0.503 0.503h3.206c0.251 0 0.503-0.189 0.503-0.503-0.063-0.314-0.251-0.503-0.503-0.503z"></path>
<path d="M15.654 9.242h-8.739c-0.251 0-0.503 0.189-0.503 0.503v8.739c0 0.251 0.189 0.503 0.503 0.503h8.802c0.251 0 0.503-0.189 0.503-0.503v-8.802c-0.063-0.189-0.251-0.44-0.566-0.44zM7.418 10.185h7.796v4.967c-0.063 0-0.126 0-0.189 0-0.817-0.063-1.32 0.251-1.697 0.503-0.314 0.189-0.566 0.377-0.943 0.377-0.692 0.063-1.132-0.314-1.635-0.754-0.629-0.503-1.32-1.069-2.389-1.006-0.314 0-0.629 0.063-0.943 0.251v-4.338zM15.214 18.043v0h-7.796v-2.452c0.314-0.189 0.692-0.314 1.006-0.314 0.754-0.063 1.194 0.314 1.76 0.817 0.629 0.503 1.257 1.069 2.326 0.943 0.692-0.063 1.069-0.314 1.446-0.566 0.314-0.251 0.566-0.377 1.069-0.314 0.063 0 0.189 0 0.251 0.063l-0.063 1.823z"></path>
<path d="M12.574 11.253c-0.817 0-1.446 0.629-1.446 1.446s0.629 1.446 1.446 1.446c0.817 0 1.446-0.629 1.446-1.446 0-0.754-0.692-1.446-1.446-1.446zM12.574 13.265c-0.251 0-0.503-0.251-0.503-0.503s0.251-0.503 0.503-0.503c0.251 0 0.503 0.251 0.503 0.503s-0.251 0.503-0.503 0.503z"></path>
</svg>
