<!-- Generated by IcoMoon.io -->
<svg version="1.1" xmlns="http://www.w3.org/2000/svg" width="33" height="32" viewBox="0 0 33 32">
<path d="M27.654 15.118c0 0.315-0.252 0.63-0.63 0.63-0.315 0-0.63-0.252-0.63-0.63 0-0.315 0.252-0.63 0.63-0.63 0.315 0 0.63 0.315 0.63 0.63zM5.984 15.118c0 0.315-0.252 0.63-0.63 0.63-0.315 0-0.63-0.252-0.63-0.63 0-0.315 0.252-0.63 0.63-0.63 0 0 0 0 0 0 0.378 0 0.63 0.252 0.63 0.63 0 0 0 0 0 0zM7.811 16.882c0 0.315-0.252 0.63-0.63 0.63-0.315 0-0.63-0.252-0.63-0.63 0-0.315 0.252-0.63 0.63-0.63 0 0 0 0 0 0 0.378 0.063 0.63 0.315 0.63 0.63 0 0 0 0 0 0zM11.402 16.882c0 0.315-0.252 0.63-0.63 0.63-0.315 0-0.63-0.252-0.63-0.63 0-0.315 0.252-0.63 0.63-0.63 0 0 0 0 0 0 0.378 0.063 0.63 0.315 0.63 0.63zM9.638 18.709c0 0.315-0.252 0.63-0.63 0.63-0.315 0-0.63-0.252-0.63-0.63 0-0.315 0.252-0.63 0.63-0.63 0.315 0 0.63 0.315 0.63 0.63zM13.228 18.709c0 0.315-0.252 0.63-0.63 0.63-0.315 0-0.63-0.252-0.63-0.63 0-0.315 0.252-0.63 0.63-0.63v0c0.378 0 0.63 0.315 0.63 0.63zM14.992 20.535c0 0.315-0.252 0.63-0.63 0.63-0.315 0-0.63-0.252-0.63-0.63 0-0.315 0.252-0.63 0.63-0.63 0 0 0 0 0 0 0.378 0 0.63 0.252 0.63 0.63 0 0 0 0 0 0zM18.646 20.535c0 0.315-0.252 0.63-0.63 0.63-0.315 0-0.63-0.252-0.63-0.63 0-0.315 0.252-0.63 0.63-0.63 0.315 0 0.63 0.252 0.63 0.63zM20.409 18.709c0 0.315-0.252 0.63-0.63 0.63s-0.63-0.252-0.63-0.63c0-0.315 0.252-0.63 0.63-0.63 0 0 0 0 0 0 0.378 0 0.63 0.315 0.63 0.63zM16.819 22.299c0 0.315-0.252 0.63-0.63 0.63-0.315 0-0.63-0.252-0.63-0.63 0-0.315 0.252-0.63 0.63-0.63 0 0 0 0 0 0 0.378 0.063 0.63 0.315 0.63 0.63 0 0 0 0 0 0zM22.236 16.882c0 0.315-0.252 0.63-0.63 0.63-0.315 0-0.63-0.252-0.63-0.63 0-0.315 0.252-0.63 0.63-0.63v0c0.378 0.063 0.63 0.315 0.63 0.63zM25.827 16.882c0 0.315-0.252 0.63-0.63 0.63-0.315 0-0.63-0.252-0.63-0.63 0-0.315 0.252-0.63 0.63-0.63 0 0 0 0 0 0 0.378 0.063 0.63 0.315 0.63 0.63 0 0 0 0 0 0zM24.063 18.709c0 0.315-0.252 0.63-0.63 0.63-0.315 0-0.63-0.252-0.63-0.63 0-0.315 0.252-0.63 0.63-0.63 0 0 0 0 0 0 0.315 0 0.63 0.315 0.63 0.63 0 0 0 0 0 0z"></path>
<path d="M27.402 19.213l5.669-3.213-5.795-3.276 5.795-3.339-16.567-9.386-16.504 9.386 5.795 3.339-5.795 3.276 5.795 3.339-5.795 3.276 16.504 9.449 16.504-9.449-5.795-3.276h0.063c0.063-0.063 0.063-0.063 0.126-0.126v0zM16.504 1.386l14.047 8-14.047 8-14.11-8 14.11-8zM6.677 13.543c0.126 0.315 0.504 0.441 0.819 0.252 0.063 0 0.126-0.063 0.189-0.126l1.386 0.756c-0.315 0-0.567 0.252-0.567 0.567s0.252 0.567 0.567 0.63c0 0 0 0 0 0 0.315 0 0.63-0.252 0.63-0.63 0-0.126 0-0.189-0.063-0.252l6.173 3.528c-0.063 0.126-0.126 0.252-0.126 0.315 0.063 0.315 0.315 0.567 0.693 0.567 0.252-0.063 0.504-0.252 0.567-0.567 0 0 0-0.063 0-0.063l5.984-3.465c0.063 0.315 0.315 0.567 0.63 0.504s0.567-0.315 0.504-0.63c0-0.189-0.126-0.315-0.252-0.378l1.323-0.756h0.063c0.252 0 0.504-0.189 0.567-0.441l0.189-0.126 4.598 2.583-1.197 0.693c-0.063-0.189-0.315-0.378-0.567-0.378-0.315 0-0.63 0.252-0.63 0.567 0 0 0 0 0 0 0 0.126 0.063 0.252 0.126 0.315l-2.331 1.449-3.843 2.331c0.063-0.063 0.063-0.189 0.063-0.315 0-0.315-0.252-0.63-0.567-0.63s-0.63 0.252-0.63 0.567c0 0.315 0.252 0.567 0.567 0.63l-1.386 0.756c-0.126-0.126-0.252-0.189-0.441-0.189-0.315 0-0.63 0.252-0.63 0.567 0 0 0 0 0 0 0 0.063 0 0.063 0 0.126l-2.772 1.575-3.339-1.89c-0.063-0.252-0.315-0.441-0.567-0.441h-0.126l-1.323-0.756c0.252-0.189 0.315-0.567 0.126-0.819-0.126-0.126-0.315-0.252-0.504-0.252-0.315 0-0.567 0.252-0.567 0.504l-5.984-3.465c0 0 0-0.063 0-0.063 0-0.315-0.252-0.63-0.63-0.63-0.126 0-0.252 0.063-0.378 0.126l-0.819-0.441 4.472-2.205zM30.551 22.551l-14.047 8.126-14.11-8.063 4.598-2.583 9.512 5.417 9.512-5.417 4.535 2.52z"></path>
</svg>
