<!-- Generated by IcoMoon.io -->
<svg version="1.1" xmlns="http://www.w3.org/2000/svg" width="33" height="32" viewBox="0 0 33 32">
<path d="M27.165 12.66l5.789-3.308-16.477-9.352-16.477 9.352 5.789 3.308-5.789 3.308 5.789 3.308-5.789 3.308 16.477 9.416 16.477-9.416-5.789-3.308 5.789-3.308-5.789-3.308zM16.477 1.4l14.060 7.952-14.060 8.080-14.060-8.080 14.060-7.952zM6.998 13.36l9.479 5.408 9.479-5.408 4.581 2.608-14.060 8.016-14.060-8.016 4.581-2.608zM30.537 22.584l-14.060 8.016-14.060-8.016 4.581-2.608 9.479 5.408 9.479-5.408 4.581 2.608z"></path>
</svg>
