<!-- Generated by IcoMoon.io -->
<svg version="1.1" xmlns="http://www.w3.org/2000/svg" width="32" height="32" viewBox="0 0 32 32">
<path d="M26.025 14.731c-0.319-0.548-0.833-0.939-1.446-1.101-0.049-0.013-0.098-0.024-0.147-0.033l-4.262-7.317c0.245-0.353 0.429-0.751 0.542-1.179 0.255-0.967 0.119-1.976-0.385-2.84s-1.313-1.481-2.28-1.736c-0.967-0.255-1.975-0.118-2.84 0.385l-2.060 1.2c-0.568-0.747-1.362-1.282-2.283-1.525-1.092-0.288-2.232-0.134-3.208 0.435l-1.745 1.016c-0.12 0.070-0.208 0.185-0.243 0.319s-0.016 0.277 0.054 0.398l6.971 11.969c0.097 0.167 0.273 0.261 0.453 0.261 0.090 0 0.18-0.023 0.263-0.071l1.745-1.016c0.976-0.569 1.673-1.483 1.961-2.576 0.243-0.921 0.17-1.876-0.2-2.738l0.718-0.418 4.085 7.014c-0.016 0.048-0.031 0.096-0.044 0.145-0.162 0.613-0.075 1.253 0.244 1.801 0.026 0.044 0.053 0.086 0.081 0.128l-3.038 11.511h-1.556v-1.227c0-0.29-0.235-0.524-0.524-0.524h-4.309c-0.29 0-0.524 0.235-0.524 0.524v1.227h-1.164c-0.29 0-0.524 0.235-0.524 0.524v2.59c0 0.289 0.235 0.524 0.524 0.524h12.786c0.29 0 0.524-0.235 0.524-0.524v-2.59c0-0.29-0.235-0.524-0.524-0.524h-1.462l2.826-10.71c0.045-0.023 0.089-0.046 0.133-0.072 0.548-0.319 0.939-0.833 1.101-1.446s0.075-1.253-0.244-1.801zM14.831 12.858l-0.385-0.661c-0.146-0.25-0.467-0.335-0.717-0.189s-0.335 0.467-0.189 0.717l0.39 0.67-0.595 0.347-6.443-11.063 0.595-0.346 4.492 7.712c0.097 0.167 0.273 0.261 0.453 0.261 0.090 0 0.18-0.023 0.263-0.071 0.25-0.146 0.335-0.467 0.189-0.717l-4.487-7.703c0.684-0.333 1.456-0.41 2.199-0.214 0.822 0.217 1.51 0.741 1.937 1.475l3.241 5.565c0.842 1.445 0.412 3.286-0.944 4.219zM16.417 7.658l-2.713-4.659 2.031-1.183c1.284-0.748 2.938-0.312 3.686 0.973s0.312 2.938-0.973 3.686l-2.031 1.183zM18.541 7.635l0.435-0.253c0.157-0.091 0.305-0.193 0.445-0.304l3.836 6.586c-0.335 0.106-0.642 0.286-0.9 0.524l-3.817-6.553zM13.098 28.058h3.26v0.703h-3.26v-0.703zM23.147 29.81v1.542h-11.737v-1.542h11.737zM21.124 28.761h-1.077l2.831-10.726c0.154 0.079 0.317 0.143 0.489 0.189s0.345 0.070 0.518 0.077l-2.76 10.461zM25.256 16.265c-0.090 0.343-0.309 0.63-0.615 0.808s-0.664 0.227-1.006 0.136c-0.343-0.090-0.63-0.309-0.808-0.615s-0.227-0.664-0.136-1.006c0.157-0.594 0.695-0.988 1.283-0.988 0.112 0 0.225 0.014 0.338 0.044 0.343 0.090 0.63 0.309 0.808 0.615s0.227 0.664 0.136 1.006zM12.855 10.772c-0.2 0.206-0.2 0.536 0 0.742 0.184 0.179 0.475 0.204 0.683 0.050 0.19-0.14 0.264-0.403 0.172-0.621-0.135-0.346-0.596-0.422-0.855-0.171zM13.71 10.942c0.013 0.031-0.013-0.032 0 0v0z"></path>
</svg>
