<!-- Generated by IcoMoon.io -->
<svg version="1.1" xmlns="http://www.w3.org/2000/svg" width="32" height="32" viewBox="0 0 32 32">
<path d="M17.641 20.413h5.029c0.898 0 1.628-0.73 1.628-1.628 0-1.555-1.265-2.819-2.819-2.819h-3.837v-3.852h3.548c0.653 0 1.275-0.282 1.706-0.773s0.628-1.145 0.542-1.793l-0.953-7.178c-0.149-1.123-1.115-1.969-2.248-1.969h-8.472c-1.133 0-2.099 0.847-2.248 1.969l-0.953 7.178c-0.086 0.648 0.112 1.301 0.542 1.793s1.052 0.773 1.706 0.773h3.548v3.852h-3.837c-1.555 0-2.819 1.265-2.819 2.819 0 0.898 0.73 1.628 1.628 1.628h5.029v7.056h-2.539c-0.916 0-1.661 0.745-1.661 1.661v0.369c-0.561 0.218-0.959 0.762-0.959 1.399 0 0.828 0.674 1.502 1.502 1.502s1.502-0.674 1.502-1.502c0-0.637-0.399-1.181-0.96-1.399v-0.369c0-0.318 0.259-0.576 0.576-0.576h3.637v0.945c-0.561 0.218-0.96 0.762-0.96 1.399 0 0.828 0.674 1.502 1.502 1.502s1.502-0.674 1.502-1.502c0-0.637-0.399-1.181-0.959-1.399v-0.945h3.637c0.318 0 0.576 0.259 0.576 0.576v0.369c-0.561 0.218-0.96 0.762-0.96 1.399 0 0.828 0.674 1.502 1.502 1.502s1.502-0.674 1.502-1.502c0-0.637-0.399-1.181-0.96-1.399v-0.369c0-0.916-0.745-1.661-1.661-1.661h-2.539v-4.942h0.499v0.253c0 0.299 0.243 0.542 0.542 0.542s0.542-0.243 0.542-0.542v-1.518c0-0.299-0.243-0.542-0.542-0.542s-0.542 0.243-0.542 0.542v0.181h-0.499v-1.029h0zM10.702 31.315c-0.23 0-0.417-0.187-0.417-0.417s0.187-0.417 0.417-0.417c0.23 0 0.417 0.187 0.417 0.417s-0.187 0.417-0.417 0.417zM21.298 30.481c0.23 0 0.417 0.187 0.417 0.417s-0.187 0.417-0.417 0.417c-0.23 0-0.417-0.187-0.417-0.417s0.187-0.417 0.417-0.417zM10.811 11.029c-0.341 0-0.665-0.147-0.89-0.403s-0.328-0.597-0.283-0.935l0.953-7.178c0.078-0.586 0.582-1.027 1.173-1.027h8.472c0.591 0 1.095 0.442 1.173 1.027l0.953 7.178c0.045 0.338-0.058 0.679-0.283 0.935s-0.549 0.403-0.89 0.403h-10.377zM16.556 12.114v3.852h-1.112v-3.852h1.112zM16 31.315c-0.23 0-0.417-0.187-0.417-0.417s0.187-0.417 0.417-0.417 0.417 0.187 0.417 0.417c-0 0.23-0.187 0.417-0.417 0.417zM16.556 27.469h-1.112v-7.056h1.112v7.056zM9.331 19.328c-0.3 0-0.543-0.244-0.543-0.543 0-0.956 0.778-1.735 1.735-1.735h10.956c0.956 0 1.735 0.778 1.735 1.735 0 0.299-0.244 0.543-0.543 0.543h-13.339z"></path>
</svg>
