<!-- Generated by IcoMoon.io -->
<svg version="1.1" xmlns="http://www.w3.org/2000/svg" width="32" height="32" viewBox="0 0 32 32">
<path d="M18.237 6.79c-3.19-3.19-8.381-3.19-11.572 0s-3.19 8.382 0 11.572c1.545 1.545 3.6 2.397 5.786 2.397s4.241-0.851 5.786-2.397c1.545-1.545 2.397-3.6 2.397-5.786s-0.851-4.241-2.397-5.786zM16.872 16.997c-1.181 1.181-2.751 1.832-4.421 1.832s-3.241-0.65-4.421-1.832c-2.438-2.438-2.438-6.405 0-8.843 1.219-1.219 2.82-1.828 4.421-1.828s3.203 0.61 4.422 1.828c1.181 1.181 1.832 2.751 1.832 4.422s-0.65 3.241-1.832 4.422z"></path>
<path d="M31.049 26.51l-7.727-7.727c1.072-1.869 1.643-3.994 1.643-6.207 0-3.342-1.302-6.485-3.666-8.848s-5.506-3.665-8.848-3.665c-3.343 0-6.485 1.302-8.849 3.665s-3.665 5.506-3.665 8.848c0 3.342 1.302 6.485 3.665 8.848s5.506 3.665 8.849 3.665c2.213 0 4.337-0.571 6.207-1.643l7.727 7.727c0.591 0.592 1.368 0.887 2.145 0.887s1.554-0.296 2.146-0.887l0.372-0.372c0.573-0.573 0.889-1.335 0.889-2.146s-0.316-1.573-0.889-2.146zM12.451 23.16c-2.827 0-5.485-1.101-7.484-3.1s-3.1-4.657-3.1-7.484c0-2.827 1.101-5.485 3.1-7.484s4.657-3.1 7.484-3.1 5.484 1.101 7.483 3.1c1.999 1.999 3.101 4.657 3.101 7.484s-1.101 5.485-3.101 7.484c-1.999 1.999-4.657 3.1-7.483 3.1zM21.299 21.424c0.326-0.326 0.63-0.666 0.915-1.020l1.717 1.717-1.935 1.935-1.717-1.717c0.354-0.285 0.694-0.589 1.020-0.915zM29.684 29.437l-0.373 0.372c-0.431 0.431-1.132 0.431-1.562 0l-4.389-4.389 1.935-1.935 4.389 4.389c0.209 0.209 0.324 0.486 0.324 0.781s-0.115 0.573-0.324 0.782z"></path>
</svg>
