<!-- Generated by IcoMoon.io -->
<svg version="1.1" xmlns="http://www.w3.org/2000/svg" width="32" height="32" viewBox="0 0 32 32">
<path d="M30.24 11.52l-4.8-6.4c-0.123-0.165-0.305-0.275-0.509-0.309l-9.6-1.6c-0.087-0.014-0.176-0.014-0.263 0l-9.6 1.6c-0.203 0.034-0.385 0.145-0.508 0.309l-4.8 6.4c-0.229 0.306-0.21 0.731 0.045 1.015l14.4 16c0.152 0.169 0.368 0.265 0.595 0.265s0.443-0.096 0.595-0.265l14.4-16c0.256-0.284 0.275-0.709 0.045-1.015zM20.458 11.2l-5.258 14.459-5.258-14.459h10.516zM10.731 9.6l4.469-4.469 4.469 4.469h-8.937zM17.531 5.199l5.917 0.986-1.972 2.959-3.945-3.945zM8.924 9.144l-1.972-2.959 5.917-0.986-3.945 3.945zM7.472 9.85l-4.775 0.955 2.865-3.82 1.91 2.865zM8.283 11.319l4.759 13.087-10.708-11.897 5.949-1.19zM22.117 11.319l5.949 1.19-10.708 11.897 4.759-13.087zM22.928 9.85l1.91-2.865 2.865 3.82-4.775-0.955z"></path>
</svg>
