<!-- Generated by IcoMoon.io -->
<svg version="1.1" xmlns="http://www.w3.org/2000/svg" width="26" height="32" viewBox="0 0 26 32">
<path d="M20.95 2.108c-0.319-0.192-0.703-0.064-0.83 0.256-0.192 0.319-0.064 0.703 0.256 0.83 0.319 0.192 0.703 0.064 0.83-0.256 0.128-0.256 0.064-0.639-0.256-0.83z"></path>
<path d="M13.158 0c-0.319 0-0.639 0.256-0.639 0.639s0.255 0.639 0.639 0.639c0.319 0 0.639-0.256 0.639-0.639s-0.319-0.639-0.639-0.639z"></path>
<path d="M13.158 16.671c-0.319 0-0.639 0.256-0.639 0.639 0 0.319 0.255 0.639 0.639 0.639 0.319 0 0.639-0.256 0.639-0.639s-0.319-0.639-0.639-0.639z"></path>
<path d="M6.196 2.299c-0.192-0.256-0.575-0.383-0.894-0.192-0.255 0.192-0.383 0.575-0.192 0.83 0.128 0.319 0.511 0.383 0.83 0.256 0.319-0.192 0.383-0.575 0.255-0.894z"></path>
<path d="M13.158 2.491c-0.319 0-0.639 0.256-0.639 0.639v2.491c0 0.319 0.255 0.639 0.639 0.639s0.639-0.255 0.639-0.639v-2.491c0-0.319-0.319-0.639-0.639-0.639z"></path>
<path d="M8.687 6.643l-1.277-2.172c-0.192-0.319-0.575-0.383-0.83-0.255-0.319 0.192-0.383 0.575-0.255 0.894l1.277 2.172c0.128 0.192 0.319 0.319 0.511 0.319 0.128 0 0.192 0 0.319-0.064 0.319-0.192 0.447-0.575 0.255-0.894z"></path>
<path d="M19.737 4.279c-0.319-0.192-0.703-0.064-0.83 0.255l-1.277 2.172c-0.192 0.319-0.064 0.703 0.256 0.83 0.128 0.064 0.192 0.064 0.319 0.064 0.192 0 0.447-0.128 0.511-0.319l1.277-2.172c0.128-0.319 0-0.703-0.256-0.83z"></path>
<path d="M26.252 17.245c0 0 0 0 0 0s0 0 0 0c0-0.064 0-0.064 0 0 0-0.064 0-0.064 0-0.064s0 0 0 0 0 0 0 0 0 0 0 0 0 0 0 0 0 0 0 0 0 0 0 0 0 0 0 0 0 0 0 0 0 0 0 0 0 0 0 0 0 0 0 0 0 0 0 0l-3.768-6.643c0 0 0 0 0 0s0-0.064-0.064-0.064c0 0 0 0 0 0-0.064-0.255-0.064-0.255-0.064-0.255s0 0 0 0-0.064-0.064-0.064-0.064c0 0 0 0 0 0s0 0-0.064-0.064c0 0 0 0 0 0s-0.064 0-0.064-0.064c0 0 0 0 0 0s0 0 0 0-0.064 0-0.064 0c0 0 0 0 0 0s-0.064 0-0.064 0c0 0 0 0 0 0s-0.064 0-0.064 0c0 0 0 0 0 0v0c0 0 0 0 0 0h-17.565c0 0-0.064 0-0.064 0s0 0 0 0-0.064 0-0.064 0c0 0 0 0 0 0s-0.064 0-0.064 0c0 0 0 0 0 0s0 0 0 0-0.064 0-0.064 0.064c0 0 0 0 0 0s-0.064 0-0.064 0.064c0 0 0 0 0 0s-0.064 0-0.064 0.064c0 0 0 0 0 0s-0.064 0.064-0.064 0.064c0 0 0 0 0 0s0 0.064-0.064 0.064c0 0 0 0 0 0l-3.832 6.579c0 0 0 0 0 0v0c0 0 0 0 0 0s0 0 0 0 0 0 0 0 0 0 0 0 0 0 0 0 0 0 0 0 0 0 0 0 0 0 0 0 0 0 0 0 0 0 0 0 0 0 0 0 0 0 0 0 0 0 0 0 0 0 0 0 0 0 0 0 0 0 0 0 0 0 0 0 0 0 0 0 0 0 0 0 0 0 0 0 0 0 0 0 0 0 0 0 0 0 0 0 0 0 0 0 0 0 0 0 0 0 0 0 0 0 0 0 0 0 0 0 0 0 0 0 0 0 0 0 0 0 0 0 0 0 0 0 0 0 0 0 0 0 0 0 0 0 0 0 0 0 0 0 0 0 0 0 0 0 0 0 0 0 0 0 0 0 0 0l12.711 14.882c0 0 0 0.064 0.064 0.064 0 0 0 0 0 0s0.064 0 0.064 0.064c0 0 0 0 0 0s0.064 0 0.064 0c0 0 0 0 0 0s0.064 0 0.064 0c0 0 0 0 0 0s0.064 0 0.064 0c0 0 0 0 0 0s0.064 0 0.064 0c0 0 0 0 0 0s0.064 0 0.064 0c0 0 0 0 0 0s0.064 0 0.064 0c0 0 0 0 0 0s0.064 0 0.064 0c0 0 0 0 0 0s0.064 0 0.064-0.064c0 0 0 0 0 0s0.064 0 0.064-0.064c0 0 0 0 0 0s0.064-0.064 0.064-0.064l12.455-14.116c0 0 0 0 0 0s0 0 0 0 0 0 0 0 0 0 0 0 0 0 0 0 0 0 0 0 0 0 0 0 0 0 0 0 0 0 0 0 0 0 0 0 0 0 0 0 0 0 0 0 0 0 0 0 0 0 0 0 0 0 0 0 0 0 0 0 0 0 0 0 0 0 0 0 0 0 0 0c0.256-0.319 0.256-0.319 0.256-0.383 0 0.064 0 0.064 0 0 0 0.064 0 0.064 0 0 0 0 0 0 0 0s0 0 0 0zM20.95 11.242l-2.044 4.854-4.407-4.854h6.451zM11.752 11.242l-4.343 4.854-2.044-4.854h6.387zM4.279 12.072l1.98 4.599h-4.535l2.555-4.599zM2.044 17.884h4.79l4.343 10.22-9.134-10.22zM13.222 29.764l-5.046-11.88h2.491c0.319 0 0.639-0.256 0.639-0.639s-0.255-0.639-0.639-0.639h-2.044l4.535-5.046 4.599 5.046h-2.108c-0.319 0-0.639 0.256-0.639 0.639s0.255 0.639 0.639 0.639h2.555l-4.982 11.88zM15.265 28.104l4.279-10.22h4.727l-9.006 10.22zM20.056 16.671l1.916-4.599 2.619 4.599h-4.535z"></path>
</svg>
