<!-- Generated by IcoMoon.io -->
<svg version="1.1" xmlns="http://www.w3.org/2000/svg" width="32" height="32" viewBox="0 0 32 32">
<path d="M16 29.976c-0.143 0-0.279-0.063-0.37-0.173l-15.515-18.424c-0.145-0.173-0.153-0.423-0.017-0.603l5.818-7.758c0.091-0.122 0.236-0.194 0.388-0.194h19.394c0.152 0 0.297 0.072 0.388 0.194l5.818 7.758c0.136 0.18 0.128 0.431-0.017 0.603l-15.515 18.424c-0.091 0.11-0.228 0.173-0.37 0.173zM1.105 11.049l14.896 17.689 14.895-17.689-5.441-7.255h-18.909l-5.441 7.255zM31.515 11.552h-31.030c-0.268 0-0.485-0.216-0.485-0.485s0.217-0.485 0.485-0.485h31.030c0.268 0 0.485 0.217 0.485 0.485s-0.217 0.485-0.485 0.485zM16 29.976c-0.049 0-0.098-0.007-0.145-0.022-0.256-0.081-0.398-0.353-0.316-0.608l5.818-18.424c0.081-0.255 0.355-0.399 0.608-0.316 0.256 0.081 0.398 0.353 0.316 0.608l-5.818 18.424c-0.065 0.207-0.257 0.338-0.463 0.338zM16 29.976c-0.206 0-0.398-0.132-0.463-0.339l-5.818-18.424c-0.081-0.255 0.061-0.527 0.316-0.608 0.256-0.082 0.527 0.061 0.608 0.316l5.818 18.424c0.081 0.255-0.061 0.527-0.316 0.608-0.047 0.017-0.097 0.023-0.145 0.023zM10.182 11.552c-0.178 0-0.349-0.098-0.434-0.268l-3.879-7.758c-0.119-0.24-0.022-0.53 0.217-0.651s0.53-0.022 0.651 0.217l3.879 7.758c0.12 0.239 0.022 0.53-0.217 0.651-0.069 0.034-0.143 0.050-0.216 0.050zM10.182 11.552c-0.101 0-0.203-0.032-0.29-0.097-0.214-0.161-0.258-0.464-0.097-0.679l5.818-7.758c0.161-0.214 0.465-0.257 0.679-0.097s0.258 0.465 0.097 0.679l-5.818 7.758c-0.096 0.127-0.241 0.194-0.389 0.194zM21.818 11.552c-0.147 0-0.293-0.067-0.388-0.194l-5.818-7.758c-0.161-0.214-0.117-0.518 0.097-0.679s0.518-0.118 0.679 0.097l5.818 7.758c0.161 0.214 0.117 0.518-0.097 0.679-0.087 0.066-0.189 0.097-0.291 0.097zM21.818 11.552c-0.073 0-0.146-0.017-0.216-0.051-0.239-0.12-0.337-0.411-0.217-0.651l3.879-7.758c0.12-0.24 0.41-0.337 0.651-0.217s0.337 0.411 0.217 0.651l-3.879 7.758c-0.086 0.171-0.257 0.269-0.434 0.269z"></path>
</svg>
