<!-- Generated by IcoMoon.io -->
<svg version="1.1" xmlns="http://www.w3.org/2000/svg" width="32" height="32" viewBox="0 0 32 32">
<path d="M26.337 1.144h-20.675l-4.813 7.088 15.15 23.475 15.15-23.475-4.813-7.088zM20.181 8.819l-4.181 18.856-4.244-18.856h8.425zM12.325 7.581l3.7-4.763 3.7 4.763h-7.4zM21.006 7.125l-3.681-4.744h7.363l-3.681 4.744zM11.056 7.194l-3.731-4.813h7.463l-3.731 4.813zM9.719 7.581h-6.931l3.231-4.769 3.7 4.769zM10.525 8.819l4.156 18.563-11.956-18.563h7.8zM21.413 8.819h7.869l-12.063 18.712 4.194-18.712zM29.212 7.581h-6.925l3.7-4.763 3.225 4.763z"></path>
</svg>
