<!-- Generated by IcoMoon.io -->
<svg version="1.1" xmlns="http://www.w3.org/2000/svg" width="32" height="32" viewBox="0 0 32 32">
<path d="M9.438 7.563h-1.875v3.75h-3.75v9.375h5.625c0-0.632 0-12.495 0-13.125zM7.563 18.813h-1.875v-5.625h1.875z"></path>
<path d="M11.313 11.313h1.875v9.375h-1.875z"></path>
<path d="M0 4.688v22.625c0 2.585 2.103 4.688 4.688 4.688h22.625c2.585 0 4.688-2.103 4.688-4.688v-22.625c0-2.585-2.103-4.688-4.688-4.688h-22.625c-2.585 0-4.688 2.103-4.688 4.688zM1.875 4.688c0-1.551 1.262-2.813 2.813-2.813h22.625c1.551 0 2.813 1.262 2.813 2.813v22.625c0 1.551-1.262 2.813-2.813 2.813h-22.625c-1.551 0-2.813-1.262-2.813-2.813z"></path>
<path d="M11.313 7.563h1.875v1.875h-1.875z"></path>
<path d="M20.688 11.313h-5.625v9.375h3.75v1.875h-3.75v1.875h5.625c0-0.66 0-12.52 0-13.125zM16.938 18.813v-5.625h1.875v5.625z"></path>
<path d="M28.188 11.313h-5.625v9.375h3.75v1.875h-3.75v1.875h5.625c0-0.66 0-12.52 0-13.125zM24.438 18.813v-5.625h1.875v5.625z"></path>
</svg>
