<!-- Generated by IcoMoon.io -->
<svg version="1.1" xmlns="http://www.w3.org/2000/svg" width="32" height="32" viewBox="0 0 32 32">
<path d="M12.8 0.8c0-0.442-0.358-0.8-0.8-0.8s-0.8 0.358-0.8 0.8c0 2.089 0.404 3.835 0.728 5.238 0.316 1.367 0.566 2.447 0.207 2.897-0.298 0.374-1.147 0.592-2.529 0.649-0.004-0.26-0.006-0.521-0.006-0.785v-6.4c0-0.442-0.358-0.8-0.8-0.8s-0.8 0.358-0.8 0.8v6.4c0 0.263-0.002 0.524-0.006 0.783-1.378-0.059-2.226-0.278-2.524-0.653-0.36-0.452-0.111-1.534 0.205-2.903 0.323-1.401 0.724-3.144 0.724-5.227 0-0.442-0.358-0.8-0.8-0.8s-0.8 0.358-0.8 0.8c0 1.902-0.379 3.546-0.684 4.868-0.412 1.789-0.738 3.203 0.102 4.259 0.624 0.784 1.762 1.173 3.733 1.256-0.179 4.464-0.826 8.305-1.362 11.483-0.713 4.23-1.184 7.024 0.019 8.447 0.498 0.589 1.235 0.888 2.192 0.888s1.694-0.299 2.192-0.888c1.204-1.424 0.732-4.22 0.019-8.454-0.535-3.176-1.181-7.015-1.362-11.475 1.975-0.080 3.114-0.468 3.738-1.253 0.839-1.055 0.512-2.466 0.099-4.254-0.306-1.324-0.687-2.971-0.687-4.877zM9.77 30.079c-0.116 0.138-0.344 0.321-0.97 0.321s-0.854-0.183-0.97-0.321c-0.724-0.856-0.232-3.772 0.337-7.148 0.206-1.22 0.428-2.536 0.634-3.948 0.206 1.409 0.427 2.722 0.632 3.94 0.569 3.38 1.061 6.298 0.337 7.155zM25.411 22.658c-0.628-3.729-1.41-8.37-1.411-13.858v-8c0-0.363-0.244-0.68-0.595-0.773s-0.72 0.061-0.9 0.376c-3.231 5.654-4.826 14.289-4.893 14.654-0.042 0.233 0.021 0.474 0.173 0.656s0.377 0.287 0.614 0.287h3.576c-0.28 2.47-0.655 4.695-0.987 6.666-0.713 4.23-1.184 7.024 0.019 8.447 0.498 0.589 1.235 0.887 2.192 0.887s1.694-0.299 2.192-0.888c1.204-1.424 0.732-4.22 0.019-8.454zM19.377 14.4c0.396-1.874 1.411-6.219 3.023-10.107v4.507c0 1.978-0.101 3.845-0.26 5.6h-2.763zM24.17 30.079c-0.116 0.138-0.344 0.321-0.97 0.321s-0.854-0.183-0.97-0.321c-0.724-0.856-0.232-3.772 0.337-7.148 0.206-1.22 0.427-2.536 0.634-3.948 0.206 1.409 0.427 2.722 0.632 3.94 0.57 3.38 1.061 6.298 0.337 7.155z"></path>
</svg>
