<!-- Generated by IcoMoon.io -->
<svg version="1.1" xmlns="http://www.w3.org/2000/svg" width="30" height="32" viewBox="0 0 30 32">
<path d="M18.154 11.2c0 0.308 0.246 0.554 0.554 0.554h5.292c0.308 0 0.554-0.246 0.554-0.554s-0.246-0.554-0.554-0.554h-5.354c-0.246 0-0.492 0.246-0.492 0.554z"></path>
<path d="M21.354 14.4c0 0.308 0.246 0.554 0.554 0.554h3.2c0.308 0 0.554-0.246 0.554-0.554s-0.246-0.554-0.554-0.554h-3.2c-0.308 0-0.554 0.246-0.554 0.554z"></path>
<path d="M20.8 8.492c0.308 0 0.554-0.246 0.554-0.554s-0.246-0.554-0.554-0.554h-1.046c-0.308 0-0.554 0.246-0.554 0.554s0.246 0.554 0.554 0.554h1.046z"></path>
<path d="M14.4 13.846c-0.308 0-0.554 0.246-0.554 0.554s0.246 0.554 0.554 0.554h5.354c0.308 0 0.554-0.246 0.554-0.554s-0.246-0.554-0.554-0.554h-5.354z"></path>
<path d="M17.046 28.8h-10.092c-0.862 0-1.6-0.738-1.6-1.6v-24.554c0-0.308-0.246-0.554-0.554-0.554-1.477 0-2.646 1.169-2.646 2.646 0 0.308 0.246 0.554 0.554 0.554s0.554-0.246 0.554-0.554c0-0.677 0.431-1.292 1.046-1.538v23.938c0 1.477 1.169 2.646 2.646 2.646h10.154c0.308 0 0.554-0.246 0.554-0.554s-0.308-0.431-0.615-0.431z"></path>
<path d="M9.046 11.692h7.446c0.308 0 0.554-0.246 0.554-0.554s-0.246-0.554-0.554-0.554h-7.446c-0.308 0-0.554 0.246-0.554 0.554 0.062 0.369 0.308 0.554 0.554 0.554z"></path>
<path d="M9.046 8.492h2.154c0.308 0 0.554-0.246 0.554-0.554s-0.246-0.554-0.554-0.554h-2.154c-0.308 0-0.554 0.246-0.554 0.554 0.062 0.369 0.308 0.554 0.554 0.554z"></path>
<path d="M17.6 7.446h-4.246c-0.308 0-0.554 0.246-0.554 0.554s0.246 0.554 0.554 0.554h4.246c0.308 0 0.554-0.246 0.554-0.554s-0.246-0.554-0.554-0.554z"></path>
<path d="M25.046 0h-20.246c-2.646 0-4.8 2.154-4.8 4.8v0 0 0 0c0 1.723 0.923 3.262 2.4 4.123 0.246 0.123 0.554 0.062 0.738-0.185 0.123-0.246 0.062-0.554-0.185-0.738-1.169-0.677-1.846-1.908-1.846-3.2 0-2.031 1.662-3.754 3.754-3.754h20.246c2.031 0 3.754 1.662 3.754 3.754v22.4c0 0.246-0.062 0.554-0.246 0.8-0.123 0.246-0.062 0.554 0.185 0.738 0.062 0.062 0.185 0.062 0.246 0.062 0.185 0 0.369-0.123 0.431-0.246 0.246-0.431 0.369-0.862 0.369-1.354v-22.4c0-2.646-2.154-4.8-4.8-4.8z"></path>
<path d="M26.646 24.492c0-1.785-1.415-3.2-3.2-3.2s-3.2 1.415-3.2 3.2 1.415 3.2 3.2 3.2c1.785 0 3.2-1.415 3.2-3.2zM23.446 26.646c-1.169 0-2.154-0.985-2.154-2.154s0.985-2.154 2.154-2.154c1.169 0 2.154 0.985 2.154 2.154 0 1.231-0.985 2.154-2.154 2.154z"></path>
<path d="M22.523 28.246c-0.246-0.123-0.554-0.062-0.738 0.185l-1.169 1.969-0.185-0.246c-0.062-0.123-0.246-0.246-0.431-0.246h-0.308l1.169-2.031c0.123-0.246 0.062-0.554-0.185-0.738-0.246-0.123-0.554-0.062-0.738 0.185l-1.6 2.769c-0.062 0.185-0.123 0.369 0 0.492s0.246 0.246 0.431 0.308l0.923 0.062 0.492 0.8c0.123 0.123 0.246 0.246 0.431 0.246v0c0.185 0 0.369-0.123 0.431-0.246l1.6-2.708c0.185-0.308 0.123-0.615-0.123-0.8z"></path>
<path d="M27.015 27.385c-0.123-0.246-0.492-0.369-0.738-0.185-0.246 0.123-0.369 0.492-0.185 0.738l1.169 1.969h-0.308c-0.185 0-0.308 0.123-0.431 0.246l-0.185 0.246-1.169-1.969c-0.123-0.246-0.492-0.369-0.738-0.185-0.246 0.123-0.369 0.492-0.185 0.738l1.6 2.708c0.123 0.185 0.246 0.246 0.431 0.246v0c0.185 0 0.369-0.062 0.431-0.246l0.492-0.8 0.923-0.062c0.185 0 0.369-0.123 0.431-0.308s0.062-0.369 0-0.492l-1.538-2.646z"></path>
<path d="M9.046 14.892h3.2c0.308 0 0.554-0.246 0.554-0.554s-0.246-0.554-0.554-0.554h-3.2c-0.308 0-0.554 0.246-0.554 0.554 0.062 0.369 0.308 0.554 0.554 0.554z"></path>
<path d="M9.046 18.092h6.4c0.308 0 0.554-0.246 0.554-0.554s-0.246-0.554-0.554-0.554h-6.4c-0.308 0-0.554 0.246-0.554 0.554s0.308 0.554 0.554 0.554z"></path>
<path d="M9.108 24.738c0.123 0.246 0.431 0.369 0.738 0.246 0.246-0.123 0.369-0.431 0.246-0.738-0.554-1.046-0.677-2.031-0.308-2.523 0.185-0.308 0.492-0.431 0.923-0.431 0.246 0 0.369 0.062 0.431 0.185 0.369 0.554 0 2.338-0.369 3.385-0.062 0.246 0 0.492 0.185 0.615s0.492 0.123 0.677-0.062c0.246-0.246 0.492-0.431 0.677-0.615v0.246c0 0.246 0.123 0.431 0.308 0.492s0.431 0.062 0.554-0.123c0.246-0.246 0.554-0.492 0.738-0.677 0 0 0 0 0 0.062-0.062 0.185-0.062 0.369 0 0.492 0.123 0.185 0.246 0.246 0.431 0.246h2.154c0.308 0 0.554-0.246 0.554-0.554s-0.246-0.554-0.554-0.554h-1.415c0.062-0.246 0.062-0.492-0.123-0.738-0.123-0.246-0.369-0.369-0.677-0.369s-0.738 0.185-1.046 0.431c0-0.246-0.185-0.431-0.369-0.492-0.123-0.062-0.308-0.123-0.8 0.123 0.185-0.923 0.246-1.969-0.246-2.646-0.185-0.308-0.615-0.615-1.292-0.615-0.8 0-1.415 0.308-1.846 0.923-0.369 0.985-0.246 2.277 0.431 3.692z"></path>
<path d="M23.446 17.6c0-0.308-0.246-0.554-0.554-0.554h-5.354c-0.308 0-0.554 0.246-0.554 0.554s0.246 0.554 0.554 0.554h5.354c0.308-0.062 0.554-0.246 0.554-0.554z"></path>
</svg>
