<!-- Generated by IcoMoon.io -->
<svg version="1.1" xmlns="http://www.w3.org/2000/svg" width="32" height="32" viewBox="0 0 32 32">
<path d="M30.17 30.361l-1.416-8.288c-0.153-0.893-0.786-1.61-1.653-1.872l-3.818-1.152c-0.079-0.933-0.462-1.814-1.099-2.511-0.509-0.557-1.15-0.963-1.857-1.187 0.121-0.134 0.233-0.268 0.336-0.399 0.908-1.155 1.394-2.427 1.518-3.295h0.295c0.766 0 1.389-0.623 1.389-1.389v-0.712c0-0.511-0.288-0.975-0.72-1.215v-1.713c0-0.259-0.21-0.469-0.469-0.469s-0.469 0.21-0.469 0.469v1.923c-0.183 0.032-0.4 0.086-0.623 0.18-0.023 0.008-0.045 0.018-0.066 0.030-0.050 0.023-0.101 0.047-0.151 0.074v-3.776c0-1.043-0.849-1.892-1.892-1.892h-1.293c-0.446 0-0.882 0.155-1.227 0.438l-0.127 0.104c-0.233 0.191-0.527 0.296-0.829 0.296s-0.595-0.105-0.829-0.296l-0.127-0.104c-0.345-0.282-0.781-0.438-1.227-0.438h-1.294c-1.043 0-1.892 0.849-1.892 1.892v3.776c-0.050-0.027-0.101-0.051-0.151-0.074-0.021-0.012-0.043-0.021-0.066-0.030-0.223-0.094-0.441-0.149-0.623-0.18v-4.862c0-1.517 1.235-2.752 2.752-2.752h6.913c1.517 0 2.752 1.234 2.752 2.752v0.737c0 0.259 0.21 0.469 0.469 0.469s0.469-0.21 0.469-0.469v-0.737c0-2.034-1.655-3.689-3.689-3.689h-6.913c-2.034 0-3.689 1.655-3.689 3.689v4.652c-0.433 0.24-0.72 0.704-0.72 1.215v0.712c0 0.766 0.623 1.389 1.389 1.389h0.295c0.124 0.868 0.61 2.14 1.518 3.295 0.103 0.131 0.215 0.264 0.335 0.398-1.624 0.516-2.808 1.976-2.955 3.699l-3.818 1.152c-0.867 0.262-1.501 0.979-1.653 1.872l-0.575 3.366c-0.044 0.255 0.128 0.497 0.383 0.541s0.497-0.128 0.541-0.383l0.575-3.366c0.092-0.54 0.476-0.974 1-1.132l3.532-1.066v0.927c-0.809 0.149-1.498 0.705-1.782 1.476-0.075 0.204-0.122 0.419-0.139 0.636l-0.341 4.381c-0.026 0.33 0.088 0.659 0.313 0.901s0.543 0.382 0.874 0.382h0.584c0.259 0 0.469-0.21 0.469-0.469s-0.21-0.469-0.469-0.469h-0.584c-0.071 0-0.138-0.030-0.186-0.081s-0.072-0.122-0.067-0.192l0.341-4.381c0.010-0.132 0.039-0.262 0.084-0.385 0.197-0.536 0.73-0.899 1.326-0.903l0.077-0.001c0.004-0 0.007-0 0.011-0 0.579 0 1.092 0.328 1.308 0.839 0.061 0.143 0.098 0.295 0.11 0.45l0.341 4.381c0.005 0.070-0.019 0.14-0.067 0.192s-0.116 0.081-0.186 0.081h-0.584c-0.259 0-0.469 0.21-0.469 0.469s0.21 0.469 0.469 0.469h0.584c0.331 0 0.65-0.139 0.874-0.382s0.339-0.572 0.313-0.901l-0.341-4.381c-0.020-0.256-0.081-0.506-0.181-0.743-0.309-0.729-0.969-1.235-1.746-1.372v-1.207l1.611-0.486c0.147 0.309 0.437 0.976 1.012 2.414 0.58 1.451 1.3 3.311 1.992 5.118 0.005 0.015 0.011 0.030 0.017 0.044 0.461 1.207 0.909 2.389 1.291 3.409 0.069 0.183 0.243 0.304 0.439 0.304s0.37-0.121 0.439-0.304c0.383-1.020 0.83-2.202 1.291-3.409 0.006-0.015 0.012-0.029 0.017-0.044 0.691-1.807 1.411-3.665 1.991-5.116 0.576-1.44 0.867-2.107 1.013-2.416l1.611 0.486v2.768c-1.116 0.217-1.962 1.201-1.962 2.38 0 1.337 1.088 2.425 2.425 2.425s2.425-1.088 2.425-2.425c0-1.175-0.84-2.157-1.951-2.378v-2.487l3.532 1.066c0.525 0.158 0.908 0.592 1 1.132l1.416 8.288c0.023 0.137-0.013 0.272-0.103 0.378s-0.216 0.165-0.356 0.165h-25.576c-0.139 0-0.266-0.059-0.356-0.165s-0.127-0.241-0.103-0.378l0.467-2.735c0.044-0.255-0.128-0.497-0.383-0.541s-0.497 0.128-0.541 0.383l-0.467 2.735c-0.070 0.408 0.044 0.824 0.311 1.14s0.658 0.498 1.072 0.498h25.576c0.414 0 0.805-0.181 1.072-0.498s0.38-0.732 0.311-1.14zM22.214 9.506c0.25-0.062 0.45-0.061 0.452-0.061 0.081 0.001 0.159-0.018 0.229-0.054 0.021 0.052 0.033 0.108 0.033 0.166v0.712c0 0.249-0.203 0.452-0.452 0.452h-0.262v-1.215zM9.786 10.72v0h-0.262c-0.249 0-0.452-0.203-0.452-0.452v-0.712c0-0.058 0.012-0.114 0.033-0.166 0.070 0.037 0.148 0.055 0.229 0.054 0.004 0.001 0.203-0.001 0.452 0.061v1.215zM10.723 11.246v-1.231c0.142 0.043 0.297 0.037 0.441-0.023 0.246-0.103 0.405-0.341 0.405-0.607v-4.326c0-0.527 0.428-0.955 0.955-0.955h1.293c0.23 0 0.456 0.080 0.634 0.226l0.127 0.104c0.4 0.327 0.905 0.507 1.422 0.507s1.022-0.18 1.422-0.507l0.127-0.104c0.178-0.146 0.404-0.226 0.634-0.226h1.293c0.526 0 0.955 0.428 0.955 0.955v4.326c0 0.266 0.159 0.505 0.405 0.607 0.082 0.034 0.168 0.051 0.253 0.051 0.064 0 0.127-0.009 0.187-0.027v1.231c0 0.684-0.473 2.013-1.35 3.128-0.29 0.369-0.664 0.766-1.123 1.113-0.015 0.010-0.029 0.020-0.042 0.032-0.712 0.526-1.627 0.93-2.762 0.93s-2.050-0.403-2.762-0.93c-0.013-0.011-0.027-0.022-0.042-0.031-0.46-0.347-0.833-0.744-1.123-1.113-0.877-1.115-1.35-2.444-1.35-3.128zM19.070 18.817l-3.070 2.295-3.070-2.295c0.304-0.387 0.475-0.884 0.475-1.327v-0.755c0.722 0.388 1.583 0.65 2.595 0.65s1.873-0.262 2.595-0.65v0.755c0 0.443 0.171 0.94 0.475 1.327zM12.148 18.294c-0.25-0.095-0.528-0.111-0.79-0.040-0.011 0.003-0.023 0.006-0.034 0.009l-1.619 0.488c0.274-1.346 1.367-2.418 2.763-2.626v1.364c0 0.294-0.131 0.598-0.32 0.804zM13.42 22.056c-0.001-0.002-0.002-0.004-0.003-0.006-0.024-0.060-0.047-0.119-0.070-0.178-0.004-0.011-0.008-0.021-0.013-0.032-0.023-0.057-0.045-0.114-0.068-0.17-0.002-0.004-0.003-0.008-0.005-0.012-0.069-0.175-0.136-0.342-0.201-0.502-0.005-0.012-0.009-0.023-0.014-0.035-0.018-0.046-0.037-0.091-0.055-0.136-0.007-0.016-0.013-0.033-0.020-0.049-0.018-0.043-0.035-0.087-0.052-0.129-0.005-0.013-0.010-0.025-0.015-0.037-0.031-0.077-0.061-0.151-0.091-0.224-0.008-0.020-0.016-0.040-0.024-0.059-0.012-0.028-0.023-0.056-0.034-0.084-0.012-0.030-0.024-0.060-0.037-0.089-0.005-0.011-0.009-0.023-0.014-0.033-0.004-0.009-0.007-0.017-0.011-0.026-0.054-0.131-0.106-0.255-0.154-0.372-0-0.001-0.001-0.002-0.001-0.003-0.026-0.062-0.051-0.123-0.076-0.18-0.013-0.030-0.025-0.059-0.037-0.088l2.64 1.973-1.103 0.469c-0.002 0.001-0.004 0.002-0.006 0.003l-0.461 0.196c-0.026-0.066-0.052-0.131-0.077-0.195zM14.538 24.925c-0.093-0.24-0.186-0.482-0.279-0.723-0.146-0.377-0.286-0.736-0.419-1.078l0.175-0.074 0.714 0.831-0.191 1.045zM16.009 28.733c-0.013-0.028-0.029-0.054-0.048-0.079-0.212-0.56-0.48-1.268-0.778-2.047l0.438-2.395h0.759l0.438 2.395c-0.312 0.816-0.592 1.554-0.808 2.126zM16.555 23.275h-1.11l-0.525-0.611 1.080-0.459 1.080 0.459-0.525 0.611zM17.741 24.202c-0.093 0.241-0.187 0.483-0.279 0.723l-0.191-1.045 0.715-0.831 0.175 0.074c-0.134 0.342-0.273 0.701-0.419 1.078zM19.536 19.699c-0.023 0.055-0.047 0.112-0.072 0.171-0.003 0.008-0.006 0.015-0.010 0.023-0.024 0.058-0.049 0.117-0.075 0.179-0.002 0.004-0.003 0.008-0.005 0.012-0.022 0.053-0.045 0.108-0.068 0.164-0.004 0.011-0.008 0.020-0.013 0.031-0.005 0.013-0.011 0.026-0.016 0.039-0.010 0.025-0.021 0.050-0.031 0.076-0.013 0.031-0.026 0.063-0.039 0.095-0.004 0.010-0.009 0.021-0.013 0.031-0.033 0.080-0.066 0.162-0.1 0.247-0.005 0.013-0.011 0.026-0.016 0.040-0.017 0.042-0.034 0.084-0.052 0.127-0.007 0.017-0.014 0.034-0.020 0.051-0.018 0.044-0.036 0.089-0.054 0.135-0.005 0.013-0.010 0.026-0.015 0.038-0.064 0.158-0.13 0.323-0.198 0.495-0.002 0.006-0.005 0.011-0.007 0.017-0.022 0.056-0.044 0.112-0.067 0.169-0.004 0.011-0.008 0.021-0.013 0.032-0.023 0.059-0.047 0.118-0.071 0.179-0 0.001-0.001 0.002-0.001 0.003-0.026 0.065-0.052 0.131-0.078 0.198l-0.461-0.196c-0.002-0.001-0.003-0.001-0.005-0.002l-1.104-0.469 2.64-1.973c-0.012 0.029-0.025 0.058-0.038 0.088zM20.676 18.263c-0 0-0-0-0-0s-0.001-0-0.001-0c-0.272-0.082-0.562-0.068-0.822 0.031-0.189-0.206-0.32-0.51-0.32-0.804v-1.365c1.404 0.207 2.494 1.269 2.765 2.627l-1.621-0.489zM24.313 24.898c0 0.82-0.667 1.488-1.488 1.488s-1.488-0.667-1.488-1.488c0-0.82 0.667-1.488 1.488-1.488s1.488 0.667 1.488 1.488z"></path>
</svg>
