<!-- Generated by IcoMoon.io -->
<svg version="1.1" xmlns="http://www.w3.org/2000/svg" width="37" height="32" viewBox="0 0 37 32">
<path d="M4.653 8.223h8.223v1.084h-8.223v-1.084z"></path>
<path d="M4.653 10.518h5.865v1.084h-5.865v-1.084z"></path>
<path d="M4.653 14.024h8.223v1.084h-8.223v-1.084z"></path>
<path d="M4.653 16.382h5.865v1.084h-5.865v-1.084z"></path>
<path d="M4.653 19.888h8.223v1.084h-8.223v-1.084z"></path>
<path d="M4.653 22.247h4.653v1.084h-4.653v-1.084z"></path>
<path d="M36.781 28.239l-6.183-6.247-1.147 1.147-2.486-2.486c1.147-1.339 1.849-3.060 1.849-4.972 0-3.825-2.869-7.012-6.629-7.522v-8.159h-17.211l-4.972 4.972v26.582h22.183v-6.438h-1.084v5.355h-20.016v-24.669h4.653v-4.717h15.299v7.076c-4.143 0.064-7.458 3.442-7.458 7.586s3.379 7.586 7.586 7.586c1.912 0 3.633-0.701 4.972-1.849l2.486 2.486-1.147 1.147 6.247 6.247c0.446 0.446 0.956 0.637 1.53 0.637s1.147-0.255 1.53-0.637c0.892-0.892 0.892-2.295 0-3.123zM4.653 4.653h-2.805l2.805-2.869v2.869zM21.227 22.183c-3.57 0-6.502-2.932-6.502-6.502s2.932-6.502 6.502-6.502 6.502 2.932 6.502 6.502-2.932 6.502-6.502 6.502zM36.016 30.534c-0.191 0.191-0.51 0.319-0.765 0.319-0.319 0-0.574-0.128-0.765-0.319l-5.482-5.482 1.594-1.594 5.482 5.482c0.382 0.51 0.382 1.211-0.064 1.594z"></path>
<path d="M21.355 12.813c-0.064 0-0.128 0-0.128 0-0.064 0-0.128 0-0.128 0-2.741 0.064-4.845 2.422-4.908 2.55l0.829 0.701c0 0 0.637-0.637 1.53-1.275-0.064 0.255-0.128 0.574-0.128 0.892 0 1.594 1.275 2.869 2.869 2.869s2.869-1.275 2.869-2.869c0-0.319-0.064-0.574-0.128-0.892 0.892 0.574 1.53 1.211 1.53 1.275l0.829-0.701c-0.191-0.127-2.295-2.422-5.036-2.55zM21.227 17.53c-1.020 0-1.785-0.829-1.785-1.785s0.765-1.721 1.721-1.785c0.064 0 0.064 0 0.128 0s0.064 0 0.128 0c0.956 0.064 1.721 0.829 1.721 1.785-0.128 0.956-0.956 1.785-1.912 1.785z"></path>
</svg>
