<!-- Generated by IcoMoon.io -->
<svg version="1.1" xmlns="http://www.w3.org/2000/svg" width="32" height="32" viewBox="0 0 32 32">
<path d="M20.6 14.938c-1.256-0.694-2.594-1.225-3.919-1.769-0.769-0.319-1.5-0.688-2.15-1.2-1.275-1.019-1.031-2.669 0.463-3.325 0.425-0.188 0.869-0.244 1.319-0.269 1.731-0.094 3.381 0.225 4.95 0.975 0.781 0.375 1.038 0.256 1.306-0.556 0.275-0.856 0.512-1.731 0.769-2.6 0.175-0.581-0.038-0.963-0.587-1.213-1.006-0.444-2.038-0.763-3.125-0.931-1.419-0.219-1.419-0.225-1.425-1.644-0.006-2-0.006-2-2.019-2-0.294 0-0.581-0.006-0.875 0-0.938 0.025-1.1 0.194-1.125 1.137-0.012 0.425 0 0.844-0.006 1.275-0.006 1.256-0.012 1.237-1.219 1.675-2.912 1.056-4.713 3.037-4.906 6.213-0.175 2.806 1.3 4.706 3.606 6.088 1.425 0.85 3 1.356 4.506 2.025 0.587 0.256 1.15 0.556 1.644 0.962 1.45 1.194 1.188 3.188-0.538 3.938-0.919 0.406-1.894 0.5-2.894 0.375-1.544-0.194-3.019-0.594-4.406-1.313-0.813-0.425-1.050-0.313-1.331 0.569-0.238 0.762-0.45 1.525-0.662 2.294-0.287 1.031-0.181 1.275 0.806 1.756 1.256 0.606 2.6 0.919 3.969 1.137 1.075 0.169 1.106 0.219 1.119 1.331 0.006 0.5 0.006 1.012 0.012 1.512 0.006 0.637 0.313 1.006 0.969 1.019 0.744 0.013 1.487 0.013 2.231-0.006 0.606-0.013 0.919-0.344 0.919-0.956 0-0.688 0.031-1.381 0.006-2.069-0.031-0.7 0.269-1.056 0.944-1.244 1.556-0.425 2.881-1.256 3.9-2.5 2.844-3.444 1.762-8.475-2.25-10.688z"></path>
</svg>
