<!-- Generated by IcoMoon.io -->
<svg version="1.1" xmlns="http://www.w3.org/2000/svg" width="32" height="32" viewBox="0 0 32 32">
<path d="M4.906 21.575c0.45 0.45 0.594 1.1 0.425 1.669h21.344c-0.169-0.575-0.031-1.219 0.425-1.669 0.469-0.469 1.15-0.606 1.744-0.4v-8.963c-0.587 0.206-1.269 0.069-1.744-0.4-0.45-0.45-0.594-1.1-0.425-1.669h-21.35c0.169 0.575 0.031 1.219-0.425 1.669-0.456 0.456-1.1 0.594-1.675 0.419v8.919c0.575-0.169 1.225-0.031 1.681 0.425zM4.531 13.275c0.912-0.194 1.563-0.912 1.825-1.825h19.288c0.194 0.912 0.913 1.563 1.825 1.825v6.906c-0.913 0.194-1.563 0.913-1.825 1.825h-19.288c-0.263-0.913-0.975-1.631-1.825-1.825v-6.906zM0.688 6.95v18.894h30.625v-18.894h-30.625zM30.075 24.544h-28.081v-16.288h28.081v16.288zM14.956 17.706l-0.912 1.106c0.65 0.587 1.431 0.975 2.213 1.106v0.587h1.044v-0.65c0.65-0.063 1.106-0.325 1.5-0.65 0.325-0.394 0.519-0.85 0.519-1.369 0-0.587-0.194-0.975-0.519-1.306-0.325-0.325-0.781-0.519-1.5-0.719v-1.369c0.325 0.131 0.719 0.325 1.106 0.588l0.781-1.106c-0.587-0.456-1.238-0.719-1.887-0.781v-0.456h-0.975v0.456c-0.588 0.063-1.106 0.325-1.431 0.65-0.325 0.394-0.519 0.85-0.519 1.369s0.131 0.975 0.456 1.238c0.325 0.325 0.85 0.519 1.5 0.719v1.431c-0.394-0.131-0.85-0.394-1.375-0.844zM17.306 17.506c0.194 0.063 0.325 0.194 0.394 0.262 0.063 0.063 0.131 0.194 0.131 0.325 0 0.262-0.194 0.456-0.519 0.587v-1.175zM16.256 15.681c-0.262-0.131-0.394-0.325-0.394-0.588s0.131-0.456 0.394-0.519v1.106zM24.012 16.006h1.306v1.756h-1.306v-1.756zM6.75 16.006h1.306v1.756h-1.306v-1.756z"></path>
</svg>
