<!-- Generated by IcoMoon.io -->
<svg version="1.1" xmlns="http://www.w3.org/2000/svg" width="32" height="32" viewBox="0 0 32 32">
<path d="M29.519 8.719l-2.481 1.669c-0.188 0.131-0.306 0.338-0.306 0.569v15.588h-18.619v-1.869c0-0.331-0.375-0.531-0.656-0.344l-5.1 3.431c-0.244 0.169-0.244 0.531 0 0.694l5.1 3.431c0.281 0.188 0.656-0.012 0.656-0.35v-1.856h20.194c0.869 0 1.575-0.706 1.575-1.575v-19.194c0.006-0.188-0.212-0.3-0.363-0.194zM30.544 4.563l-5.419-3.65c-0.3-0.2-0.694 0.012-0.694 0.369v1.975h-21.431c-0.919 0-1.675 0.744-1.675 1.675v20.375c0 0.2 0.225 0.325 0.394 0.206l2.631-1.762c0.2-0.137 0.325-0.363 0.325-0.606v-16.538h19.762v1.975c0 0.356 0.394 0.569 0.694 0.369l5.419-3.644c0.25-0.188 0.25-0.569-0.006-0.744zM9.238 16.525l0.744 2.694h1.181l1.188-4.306 1.188 4.306h1.175l0.744-2.694 0.744 2.694h1.181l1.188-4.306 1.188 4.306h1.175l0.744-2.694 0.744 2.694h1.181l1.256-4.544h-1.094l-0.788 3.181-0.881-3.181h-0.837l-0.875 3.181-0.788-3.181h-2.050l-0.788 3.181-0.881-3.181h-0.838l-0.875 3.181-0.787-3.181h-2.050l-0.794 3.181-0.875-3.181h-0.838l-0.875 3.181-0.787-3.181h-1.094l1.256 4.544h1.175z"></path>
</svg>
