<!-- Generated by IcoMoon.io -->
<svg version="1.1" xmlns="http://www.w3.org/2000/svg" width="32" height="32" viewBox="0 0 32 32">
<path d="M4.227 11.774c-2.331 0-4.227 1.896-4.227 4.226s1.896 4.226 4.227 4.226c2.33 0 4.226-1.895 4.226-4.226s-1.897-4.226-4.226-4.226z"></path>
<path d="M16.207 11.774c-2.331 0-4.227 1.896-4.227 4.226s1.896 4.226 4.227 4.226c2.331 0 4.227-1.895 4.227-4.226s-1.896-4.226-4.227-4.226z"></path>
<path d="M27.774 11.774c-2.33 0-4.227 1.896-4.227 4.226s1.896 4.226 4.227 4.226c2.33 0 4.226-1.895 4.226-4.226s-1.896-4.226-4.226-4.226z"></path>
</svg>
