<!-- Generated by IcoMoon.io -->
<svg version="1.1" xmlns="http://www.w3.org/2000/svg" width="32" height="32" viewBox="0 0 32 32">
<path d="M18.565 16.4l12.602-12.601c0.214-0.214 0.32-0.46 0.32-0.738s-0.107-0.524-0.32-0.738l-1.604-1.603c-0.214-0.214-0.46-0.321-0.737-0.321s-0.524 0.107-0.738 0.321l-14.942 14.942c-0.214 0.214-0.32 0.46-0.32 0.738s0.107 0.524 0.32 0.738l14.942 14.942c0.214 0.214 0.459 0.32 0.737 0.32s0.523-0.106 0.737-0.32l1.603-1.602c0.214-0.214 0.32-0.46 0.32-0.738s-0.106-0.523-0.32-0.737l-12.602-12.602zM6.252 16.4l12.601-12.601c0.214-0.214 0.32-0.46 0.32-0.738s-0.106-0.524-0.32-0.738l-1.603-1.603c-0.214-0.214-0.46-0.321-0.737-0.321s-0.524 0.107-0.738 0.321l-14.943 14.942c-0.214 0.214-0.32 0.46-0.32 0.738s0.107 0.524 0.32 0.738l14.942 14.942c0.214 0.214 0.459 0.32 0.738 0.32 0.277 0 0.523-0.106 0.737-0.32l1.603-1.602c0.214-0.214 0.32-0.46 0.32-0.738s-0.106-0.523-0.32-0.737l-12.601-12.602z"></path>
</svg>
