<!-- Generated by IcoMoon.io -->
<svg version="1.1" xmlns="http://www.w3.org/2000/svg" width="42" height="32" viewBox="0 0 42 32">
<path d="M36.129 3.51h-8.258c-0.31 0-0.516 0.206-0.516 0.516s0.206 0.516 0.516 0.516h8.258c2.477 0 4.542 2.065 4.542 4.542v17.342c0 2.477-2.065 4.542-4.542 4.542h-30.555c-2.477 0-4.542-2.065-4.542-4.542v-17.342c0-2.477 2.065-4.542 4.542-4.542h8.361c0.31 0 0.516-0.206 0.516-0.516s-0.206-0.516-0.516-0.516h-8.361c-3.097 0-5.574 2.477-5.574 5.574v17.342c0 3.097 2.477 5.574 5.574 5.574h30.555c3.097 0 5.574-2.477 5.574-5.574v-17.342c0.103-3.097-2.477-5.574-5.574-5.574z"></path>
<path d="M20.852 17.755l4.232-4.232c0.206-0.206 0.206-0.516 0-0.723s-0.516-0.206-0.723 0l-2.994 2.994v-15.277c0-0.31-0.206-0.516-0.516-0.516s-0.516 0.206-0.516 0.516v15.277l-2.994-2.994c-0.206-0.206-0.516-0.206-0.723 0s-0.206 0.516 0 0.723l4.232 4.232z"></path>
<path d="M12.077 22.297c0 0.31 0.206 0.516 0.516 0.516h16.619c0.31 0 0.516-0.206 0.516-0.516s-0.206-0.516-0.516-0.516h-16.619c-0.31 0-0.516 0.206-0.516 0.516z"></path>
</svg>
