<!-- Generated by IcoMoon.io -->
<svg version="1.1" xmlns="http://www.w3.org/2000/svg" width="35" height="32" viewBox="0 0 35 32">
<path d="M26.72 8.27c-0.064 0-0.191 0-0.254 0-0.509-4.644-4.453-8.27-9.161-8.27s-8.652 3.626-9.097 8.27c-0.064 0-0.191 0-0.254 0-4.39 0-7.952 3.499-7.952 7.889s3.563 7.889 7.889 7.889c0.509 0 0.891-0.382 0.891-0.891s-0.382-0.891-0.891-0.891c-3.372 0-6.044-2.736-6.044-6.044s2.736-6.044 6.044-6.044c0.318 0 0.7 0 1.018 0.064 0.254 0.064 0.573-0.064 0.763-0.191 0.191-0.191 0.318-0.445 0.318-0.7v-0.064c0 0 0-0.064 0-0.064 0-4.072 3.308-7.316 7.316-7.316s7.316 3.308 7.316 7.316c0 0 0 0 0 0.064v0.064c0 0.254 0.127 0.509 0.318 0.7s0.509 0.254 0.763 0.191c0.318-0.064 0.7-0.064 1.018-0.064 3.372 0 6.044 2.736 6.044 6.044s-2.736 6.044-6.044 6.044c-0.509 0-0.891 0.382-0.891 0.891s0.382 0.891 0.891 0.891c4.326 0 7.889-3.563 7.889-7.889 0-4.39-3.563-7.889-7.889-7.889z"></path>
<path d="M12.915 8.843c0-2.163 1.781-3.944 3.944-3.944 0.509 0 0.891-0.382 0.891-0.891s-0.382-0.891-0.891-0.891c-3.181 0-5.789 2.608-5.789 5.789 0 0.509 0.382 0.891 0.891 0.891 0.573-0.064 0.954-0.445 0.954-0.954z"></path>
<path d="M20.485 26.592l-2.29 2.29v-11.388c0-0.509-0.382-0.891-0.891-0.891s-0.891 0.382-0.891 0.891v11.388l-2.29-2.29c-0.318-0.382-0.891-0.382-1.272 0-0.382 0.318-0.382 0.891 0 1.272 0 0 0 0 0 0l3.817 3.817c0.064 0.064 0.191 0.127 0.318 0.191 0.254 0.064 0.445 0.064 0.7 0 0.127-0.064 0.191-0.127 0.318-0.191l3.817-3.817c0.382-0.318 0.382-0.891 0-1.272-0.382-0.318-0.954-0.318-1.336 0 0 0 0 0 0 0z"></path>
</svg>
