<!-- Generated by IcoMoon.io -->
<svg version="1.1" xmlns="http://www.w3.org/2000/svg" width="32" height="32" viewBox="0 0 32 32">
<path d="M16 0c-8.822 0-16 7.178-16 16s7.178 16 16 16 16-7.178 16-16-7.178-16-16-16zM16 30c-7.72 0-14-6.282-14-14 0-7.72 6.28-14 14-14 7.718 0 14 6.28 14 14 0 7.718-6.282 14-14 14z"></path>
<path d="M16 4c-0.84 0-1.66 0.088-2.452 0.252 1.456 2.064 2.778 4.212 3.942 6.438 2.202-1.026 4.274-2.35 6.166-3.93-2.078-1.724-4.746-2.76-7.656-2.76z"></path>
<path d="M25.082 8.172c-2.058 1.734-4.322 3.172-6.726 4.296 0.526 1.096 1.014 2.206 1.466 3.334 2.656-0.546 5.42-0.596 8.16-0.142-0.080-2.86-1.156-5.468-2.9-7.488z"></path>
<path d="M11.54 4.866c-3.602 1.444-6.334 4.58-7.222 8.43 3.884 0.166 7.728-0.482 11.306-1.848-1.202-2.282-2.564-4.482-4.084-6.582z"></path>
<path d="M16.52 13.258c-3.464 1.35-7.164 2.086-10.926 2.086-0.518 0-1.038-0.032-1.558-0.060-0.014 0.238-0.036 0.474-0.036 0.716 0 2.946 1.066 5.642 2.828 7.73 2.882-3.578 6.756-6.142 11.044-7.43-0.418-1.028-0.87-2.040-1.352-3.042z"></path>
<path d="M20.556 17.696c0.954 2.66 1.702 5.394 2.25 8.182 2.704-1.866 4.592-4.812 5.066-8.216-2.452-0.434-4.93-0.414-7.316 0.034z"></path>
<path d="M18.592 18.16c-4.032 1.178-7.674 3.598-10.344 6.992 2.092 1.774 4.794 2.848 7.752 2.848 1.776 0 3.458-0.396 4.974-1.090-0.55-2.988-1.35-5.912-2.382-8.75z"></path>
</svg>
