<!-- Generated by IcoMoon.io -->
<svg version="1.1" xmlns="http://www.w3.org/2000/svg" width="32" height="32" viewBox="0 0 32 32">
<path d="M29.855 8.369c-1.431-2.451-3.372-4.392-5.823-5.823s-5.128-2.146-8.031-2.146c-2.903 0-5.58 0.715-8.031 2.146s-4.392 3.371-5.823 5.823c-1.431 2.452-2.146 5.129-2.146 8.031s0.715 5.58 2.146 8.031c1.431 2.451 3.372 4.392 5.823 5.823s5.129 2.146 8.031 2.146 5.58-0.715 8.032-2.146c2.451-1.43 4.392-3.372 5.823-5.823s2.146-5.129 2.146-8.031c0-2.903-0.715-5.58-2.145-8.031zM16 2.733c3.444 0 6.451 1.139 9.021 3.416l-0.26 0.364c-0.104 0.146-0.365 0.427-0.781 0.844s-0.872 0.813-1.364 1.188c-0.493 0.375-1.163 0.802-2.011 1.281s-1.75 0.9-2.708 1.261c-1.597-2.945-3.305-5.598-5.125-7.958 1.097-0.264 2.174-0.396 3.229-0.396zM5.292 7.92c1.333-1.68 2.958-2.972 4.875-3.875 1.722 2.292 3.416 4.917 5.083 7.875-4.222 1.111-8.43 1.667-12.625 1.666 0.445-2.097 1.334-3.986 2.667-5.667zM3.25 21.328c-0.611-1.562-0.917-3.205-0.917-4.927 0-0.195 0.007-0.34 0.021-0.438 5.028 0 9.702-0.646 14.021-1.938 0.445 0.861 0.813 1.632 1.104 2.313-0.056 0.028-0.146 0.059-0.271 0.094s-0.215 0.059-0.272 0.073l-0.771 0.271c-0.528 0.195-1.219 0.528-2.073 1s-1.76 1.035-2.719 1.688c-0.958 0.653-1.948 1.518-2.969 2.594s-1.878 2.232-2.573 3.468c-1.111-1.236-1.972-2.636-2.583-4.198zM16 30.067c-3.25 0-6.153-1.042-8.709-3.125l0.313 0.229c0.486-1.070 1.201-2.098 2.146-3.084s1.854-1.781 2.729-2.386c0.875-0.604 1.826-1.173 2.854-1.709s1.729-0.875 2.104-1.020c0.375-0.146 0.674-0.261 0.896-0.344l0.041-0.021h0.042c1.361 3.569 2.333 7.028 2.916 10.375-1.722 0.723-3.5 1.083-5.333 1.084zM27.501 23.786c-1.028 1.59-2.313 2.907-3.854 3.948-0.57-3.194-1.458-6.452-2.667-9.771 2.764-0.431 5.604-0.229 8.521 0.604-0.306 1.889-0.972 3.629-2 5.219zM29.459 16.213c-0.139-0.028-0.313-0.059-0.521-0.094s-0.462-0.076-0.761-0.125c-0.298-0.049-0.632-0.094-1-0.135s-0.76-0.080-1.177-0.114c-0.417-0.035-0.861-0.062-1.333-0.083s-0.952-0.031-1.438-0.031c-0.486 0-0.997 0.014-1.531 0.042s-1.052 0.077-1.552 0.146c-0.042-0.070-0.094-0.184-0.156-0.344s-0.108-0.281-0.135-0.365c-0.264-0.583-0.57-1.243-0.917-1.979 0.958-0.389 1.872-0.837 2.74-1.344s1.562-0.958 2.083-1.354c0.521-0.396 1.014-0.816 1.479-1.261s0.767-0.753 0.907-0.927c0.139-0.174 0.271-0.344 0.396-0.51l0.021-0.021c2.028 2.472 3.063 5.319 3.104 8.542l-0.208-0.042z"></path>
</svg>
