<!-- Generated by IcoMoon.io -->
<svg version="1.1" xmlns="http://www.w3.org/2000/svg" width="32" height="32" viewBox="0 0 32 32">
<path d="M16.063 32c8.808 0 15.938-7.128 15.938-15.938 0-8.777-7.1-16.063-15.938-16.063-8.801 0-16.063 7.257-16.063 16.063 0 8.846 7.294 15.938 16.063 15.938zM7.836 27.514c1.162-4.428 5.301-8.030 10.595-9.625 1.241 3.663 2.008 7.531 2.24 11.46-1.445 0.502-2.995 0.777-4.609 0.777-3.064 0-5.904-0.968-8.226-2.611zM22.499 28.563c-0.28-3.823-1.026-7.553-2.228-11.138 3.263-0.664 6.664-0.539 9.755 0.297-0.558 4.727-3.469 8.743-7.527 10.841zM18.561 13.085c3.181-1.186 6.554-3.152 8.388-5.993 1.935 2.385 3.115 5.416 3.173 8.717-3.326-0.834-6.974-0.923-10.492-0.173-0.341-0.889-0.685-1.709-1.069-2.552zM25.62 5.666c-1.522 2.753-4.931 4.647-7.876 5.723-1.649-3.243-3.666-6.202-6.023-8.833 1.369-0.441 2.828-0.68 4.342-0.68 3.687 0 7.047 1.44 9.558 3.791zM9.864 3.303c2.377 2.561 4.413 5.493 6.059 8.678-4.112 1.182-8.935 1.586-13.713 1.011 0.945-4.267 3.817-7.818 7.654-9.689zM1.928 14.846c5.12 0.624 10.344 0.183 14.83-1.158 0.366 0.795 0.709 1.603 1.028 2.423-5.152 1.562-9.819 5.080-11.52 10.113-2.704-2.562-4.391-6.171-4.391-10.163 0-0.41 0.019-0.815 0.053-1.216z"></path>
</svg>
