<!-- Generated by IcoMoon.io -->
<svg version="1.1" xmlns="http://www.w3.org/2000/svg" width="32" height="32" viewBox="0 0 32 32">
<path d="M31.488 27.008h-3.008v-15.488c0-1.088-0.896-1.984-1.984-1.984s-1.984 0.896-1.984 1.984v6.528c0 0.576-0.448 1.024-1.024 1.024s-1.024-0.448-1.024-1.024v-7.040c0-0.832-0.64-1.472-1.472-1.472h-1.024v-0.512c0-0.128-0.064-0.256-0.128-0.384l-1.472-1.472c-0.064-0.064-0.192-0.128-0.384-0.128h-0.512v-1.024h1.024c0.128 0 0.256-0.064 0.384-0.128l0.96-1.024c0.064-0.064 0.128-0.192 0.128-0.384h5.504c0.256 0 0.512-0.192 0.512-0.512v-1.984c0-0.256-0.192-0.512-0.512-0.512h-5.504c0-0.128-0.064-0.256-0.128-0.384l-1.024-1.024c-0.064 0-0.192-0.064-0.32-0.064h-4.992c-0.128 0-0.256 0.064-0.384 0.128l-0.96 1.024c-0.064 0.064-0.128 0.192-0.128 0.384h-5.504c-0.256 0-0.512 0.192-0.512 0.512v1.984c0 0.256 0.192 0.448 0.512 0.448h5.504c0 0.128 0.064 0.256 0.128 0.384l1.024 1.024c0.064 0.064 0.192 0.128 0.384 0.128h1.024v1.024h-0.512c-0.128 0-0.256 0.064-0.384 0.128l-1.536 1.472c-0.064 0.064-0.128 0.192-0.128 0.384v9.984c0 0.256 0.192 0.512 0.512 0.512v1.472c0 0.256 0.192 0.512 0.512 0.512h0.512v1.472c0 0.256 0.192 0.512 0.512 0.512h0.512v3.008c0 0.128 0.064 0.256 0.128 0.384l1.024 1.024c0.192 0.192 0.512 0.192 0.704 0l1.024-1.024c0.064-0.064 0.128-0.192 0.128-0.384v-3.008h0.512c0.256 0 0.512-0.192 0.512-0.512v-1.472h0.512c0.256 0 0.512-0.192 0.512-0.512v-1.472c0.256 0 0.512-0.192 0.512-0.512v-8.512h1.024c0.256 0 0.512 0.192 0.512 0.512v6.976c0 1.088 0.896 1.984 1.984 1.984s1.984-0.896 1.984-1.984v-6.464c0-0.576 0.448-1.024 1.024-1.024s0.832 0.448 0.832 1.024v15.488h-9.536c-0.128 0-0.256 0.064-0.384 0.128l-1.6 1.664-1.664-1.664c-0.064-0.064-0.192-0.128-0.384-0.128h-13.44c-0.32 0-0.512 0.192-0.512 0.512v4.032c0 0.256 0.192 0.448 0.512 0.448h30.976c0.256 0 0.512-0.192 0.512-0.512v-3.968c0-0.32-0.192-0.512-0.512-0.512zM12.992 18.496v-0.512h6.016v0.512h-6.016zM12.992 17.024v-7.552h6.016v7.488h-6.016zM25.024 3.52h-3.008v-1.024h3.008v1.024zM20.992 2.496v1.024h-1.024v-1.024h1.024zM6.976 2.496h3.008v1.024h-3.008v-1.024zM11.008 3.52v-1.024h1.024v1.024h-1.024zM12.992 4.288v-2.56l0.704-0.704h4.608l0.704 0.704v2.56l-0.704 0.704h-4.608l-0.704-0.704zM15.488 6.016h1.024v1.024h-1.024v-1.024zM14.208 8h3.584l0.512 0.512h-4.608l0.512-0.512zM16.512 26.304l-0.512 0.512-0.512-0.512v-2.816h1.024v2.816zM18.496 20.48h-1.984v1.024h1.024v1.024h-3.008v-1.024h1.024v-1.024h-1.984v-1.024h4.992v1.024zM1.024 30.976v-1.024h12.48v-1.024h-12.48v-1.024h12.8l1.856 1.856c0.192 0.192 0.512 0.192 0.704 0l1.856-1.856h12.8v1.024h-12.544v1.024h12.48v1.024h-29.952z"></path>
<path d="M20.672 25.344c0.192 0.192 0.512 0.192 0.704 0l1.472-1.472-0.704-0.704-1.152 1.152-0.64-0.64c-0.192-0.192-0.512-0.192-0.704 0l-1.472 1.472 0.704 0.704 1.152-1.152 0.64 0.64z"></path>
<path d="M11.328 25.344l0.64-0.64 1.152 1.152 0.704-0.704-1.472-1.472c-0.192-0.192-0.512-0.192-0.704 0l-0.64 0.64-1.152-1.152-0.704 0.704 1.472 1.472c0.192 0.192 0.512 0.192 0.704 0z"></path>
</svg>
