<!-- Generated by IcoMoon.io -->
<svg version="1.1" xmlns="http://www.w3.org/2000/svg" width="32" height="32" viewBox="0 0 32 32">
<path d="M31.531 7.032h-1.261v-0.921c0-0.502-0.356-0.943-0.847-1.048l-2.573-0.55c-0.169-0.535-0.67-0.925-1.261-0.925h-1.64c-0.148-0.727-0.792-1.275-1.562-1.275h-18.658c-1.666 0-3.021 1.355-3.021 3.021v4.311c0 1.666 1.355 3.021 3.021 3.021 0.529 0 1.016 0.242 1.334 0.665s0.418 0.957 0.273 1.466l-1.836 6.434c-0.071 0.249 0.073 0.508 0.322 0.579s0.508-0.073 0.579-0.322l1.836-6.434c0.227-0.794 0.072-1.628-0.426-2.288s-1.257-1.038-2.083-1.038c-1.149 0-2.083-0.935-2.083-2.083v-4.311c0-1.149 0.935-2.083 2.083-2.083h18.658c0.362 0 0.656 0.294 0.656 0.656v7.165c0 0.362-0.294 0.656-0.656 0.656h-5.998c-1.163 0-2.109 0.946-2.109 2.109v0.865c0 0.646-0.526 1.172-1.172 1.172-0.932 0-1.765 0.625-2.025 1.521l-1.12 3.854c-0.072 0.249 0.071 0.509 0.319 0.581 0.044 0.013 0.088 0.019 0.131 0.019 0.203 0 0.39-0.133 0.45-0.338l1.12-3.855c0.145-0.497 0.607-0.845 1.125-0.845 1.163 0 2.109-0.946 2.109-2.109v-0.865c0-0.646 0.526-1.172 1.172-1.172h5.998c0.761 0 1.4-0.537 1.557-1.252h1.645c0.59 0 1.092-0.389 1.261-0.924l2.573-0.55c0.491-0.105 0.847-0.546 0.847-1.048v-0.921h1.261c0.259 0 0.469-0.21 0.469-0.469s-0.21-0.469-0.469-0.469zM25.973 10.091c0 0.212-0.172 0.384-0.384 0.384h-1.608v-5.949h1.608c0.212 0 0.384 0.172 0.384 0.384zM29.333 8.89c0 0.063-0.045 0.118-0.106 0.131l-2.316 0.495v-4.032l2.316 0.495c0.061 0.013 0.106 0.068 0.106 0.131z"></path>
<path d="M15.839 6.001h4.444c0.259 0 0.469-0.21 0.469-0.469s-0.21-0.469-0.469-0.469h-4.444c-0.259 0-0.469 0.21-0.469 0.469s0.21 0.469 0.469 0.469z"></path>
<path d="M15.839 7.969h4.444c0.259 0 0.469-0.21 0.469-0.469s-0.21-0.469-0.469-0.469h-4.444c-0.259 0-0.469 0.21-0.469 0.469s0.21 0.469 0.469 0.469z"></path>
<path d="M15.839 9.937h4.444c0.259 0 0.469-0.21 0.469-0.469s-0.21-0.469-0.469-0.469h-4.444c-0.259 0-0.469 0.21-0.469 0.469s0.21 0.469 0.469 0.469z"></path>
<path d="M4.295 5.81h0.757c0.259 0 0.469-0.21 0.469-0.469s-0.21-0.469-0.469-0.469h-0.757c-0.621 0-1.126 0.505-1.126 1.126v3.298c0 0.621 0.505 1.126 1.126 1.126h6.946c0.621 0 1.126-0.505 1.126-1.126v-3.299c0-0.621-0.505-1.125-1.126-1.125h-4.314c-0.259 0-0.469 0.21-0.469 0.469s0.21 0.469 0.469 0.469h4.314c0.104 0 0.188 0.084 0.188 0.188v3.299c0 0.104-0.084 0.188-0.188 0.188h-6.946c-0.104 0-0.188-0.084-0.188-0.188v-3.299c0-0.104 0.084-0.188 0.188-0.188z"></path>
<path d="M13.019 22.786h-10.502c-1.388 0-2.517 1.129-2.517 2.517v3.097c0 0.772 0.628 1.4 1.4 1.4h12.736c0.772 0 1.4-0.628 1.4-1.4v-3.097c0-1.388-1.129-2.517-2.517-2.517zM6.507 28.862h-3.829v-1.631h3.829zM14.598 28.4c0 0.255-0.207 0.462-0.462 0.462h-6.692v-1.811c0-0.418-0.34-0.757-0.757-0.757h-4.189c-0.418 0-0.757 0.34-0.757 0.757v1.811h-0.341c-0.255 0-0.462-0.208-0.462-0.462v-3.097c0-0.871 0.709-1.579 1.579-1.579h10.502c0.871 0 1.579 0.708 1.579 1.579v3.097z"></path>
</svg>
