<!-- Generated by IcoMoon.io -->
<svg version="1.1" xmlns="http://www.w3.org/2000/svg" width="32" height="32" viewBox="0 0 32 32">
<path d="M16 3.168c0.224 0 0.416-0.192 0.416-0.384v-2.368c-0.032-0.224-0.192-0.416-0.416-0.416s-0.416 0.192-0.416 0.416v2.368c0 0.192 0.192 0.384 0.416 0.384zM18.048 3.744c0.064 0 0.128-0.032 0.192-0.064l2.048-1.184c0.192-0.096 0.256-0.352 0.16-0.544s-0.352-0.256-0.544-0.16l-2.048 1.184c-0.192 0.096-0.256 0.352-0.16 0.544 0.096 0.16 0.224 0.224 0.352 0.224zM11.712 2.528l2.048 1.184c0.064 0.032 0.128 0.064 0.192 0.064 0.128 0 0.288-0.064 0.352-0.192 0.096-0.192 0.032-0.448-0.16-0.544l-2.048-1.184c-0.192-0.096-0.448-0.032-0.544 0.16s-0.032 0.384 0.16 0.512zM0.288 30.144l6.496 1.824c0.032 0 0.064 0 0.096 0 0.16 0 0.32-0.128 0.384-0.288 0.064-0.224-0.064-0.448-0.288-0.48l-2.848-0.8 2.944-10.4c0.48 0.096 0.96 0.16 1.376 0.16 1.088 0 2.080-0.32 2.944-0.992 4.032-3.072 4.032-12.16 4.032-12.544 0-0.192-0.128-0.32-0.288-0.384l-8.576-2.4c-0.16-0.064-0.352 0.032-0.448 0.192-0.192 0.32-4.896 8.096-3.040 12.8 0.544 1.408 1.664 2.4 3.264 2.976l-2.944 10.432-2.88-0.8c-0.224-0.128-0.448 0-0.512 0.224s0.064 0.416 0.288 0.48zM6.624 4.672l8 2.24c0 0.608-0.064 2.112-0.32 3.84-2.176-0.64-3.2-1.312-4.288-1.984-1.056-0.704-2.176-1.408-4.448-2.080 0.448-0.928 0.864-1.632 1.056-2.016zM3.808 16.512c-1.024-2.624 0.256-6.432 1.44-9.088 2.24 0.64 3.264 1.312 4.352 2.016s2.24 1.44 4.576 2.112c-0.448 2.592-1.376 5.536-3.232 6.944-1.12 0.864-2.432 1.056-4 0.608-1.6-0.416-2.624-1.28-3.136-2.592zM20.576 19.168c0.864 0.672 1.856 0.992 2.944 0.992 0.448 0 0.896-0.064 1.376-0.16l2.976 10.4-2.848 0.8c-0.224 0.064-0.352 0.288-0.288 0.48s0.224 0.288 0.384 0.288c0.032 0 0.064 0 0.096 0l6.496-1.824c0.224-0.064 0.352-0.288 0.288-0.48-0.064-0.224-0.288-0.352-0.48-0.288l-2.88 0.8-2.944-10.432c1.6-0.544 2.688-1.536 3.264-2.976 1.856-4.704-2.848-12.48-3.040-12.8-0.096-0.16-0.288-0.224-0.448-0.192l-8.576 2.432c-0.16 0.064-0.288 0.192-0.288 0.384-0.032 0.416-0.032 9.504 3.968 12.576zM28.224 16.512c-0.512 1.312-1.536 2.176-3.136 2.624s-2.912 0.256-4-0.608c-1.856-1.408-2.784-4.352-3.232-6.944 2.368-0.704 3.488-1.408 4.576-2.112s2.112-1.376 4.352-2.016c1.184 2.624 2.464 6.464 1.44 9.056zM25.376 4.672c0.224 0.352 0.608 1.088 1.056 2.016-2.272 0.672-3.36 1.376-4.448 2.080s-2.112 1.344-4.288 1.984c-0.256-1.728-0.32-3.232-0.32-3.84l8-2.24z"></path>
</svg>
