<!-- Generated by IcoMoon.io -->
<svg version="1.1" xmlns="http://www.w3.org/2000/svg" width="32" height="32" viewBox="0 0 32 32">
<path d="M20.406 32.4h-12.134c-0.246 0-0.454-0.184-0.482-0.43l-2.511-21.968c-0.016-0.138 0.028-0.274 0.12-0.378s0.223-0.162 0.362-0.162h17.155c0.139 0 0.27 0.059 0.362 0.162s0.136 0.241 0.12 0.378l-2.511 21.968c-0.028 0.246-0.236 0.431-0.482 0.431zM8.705 31.43h11.269l2.4-20.998h-16.069l2.4 20.998zM22.371 15.212h-15.989c-0.268 0-0.485-0.217-0.485-0.485s0.217-0.485 0.485-0.485h15.989c0.268 0 0.485 0.217 0.485 0.485s-0.217 0.485-0.485 0.485zM13.693 22.077h-2.996c-0.268 0-0.485-0.217-0.485-0.485v-2.995c0-0.268 0.217-0.485 0.485-0.485h2.996c0.268 0 0.485 0.217 0.485 0.485v2.995c0 0.269-0.217 0.485-0.485 0.485zM11.182 21.107h2.027v-2.026h-2.027v2.026zM17.189 28.167c-0.086 0-0.174-0.022-0.252-0.071l-2.559-1.557c-0.229-0.14-0.302-0.437-0.162-0.666l1.557-2.559c0.14-0.23 0.437-0.302 0.666-0.162l2.559 1.557c0.229 0.14 0.302 0.437 0.162 0.666l-1.557 2.559c-0.091 0.15-0.251 0.233-0.414 0.233zM15.297 25.962l1.73 1.053 1.053-1.73-1.73-1.053-1.053 1.73zM22.943 15.817c-0.191 0-0.381-0.009-0.568-0.025-0.266-0.025-0.463-0.262-0.437-0.528s0.252-0.45 0.529-0.437c0.157 0.015 0.316 0.021 0.477 0.021 2.79 0 5.060-2.269 5.060-5.059s-2.27-5.060-5.060-5.060-5.059 2.27-5.059 5.060c0 0.268-0.217 0.485-0.485 0.485s-0.485-0.217-0.485-0.485c0-3.325 2.704-6.030 6.029-6.030 3.325 0 6.030 2.705 6.030 6.030s-2.705 6.029-6.030 6.029zM10.696 10.274c-0.231 0-0.436-0.167-0.477-0.402l-1.465-8.502h-5.24c-0.268 0-0.485-0.217-0.485-0.485s0.216-0.485 0.485-0.485h5.649c0.236 0 0.437 0.17 0.478 0.402l1.535 8.905c0.046 0.264-0.132 0.515-0.396 0.56-0.028 0.005-0.056 0.007-0.083 0.007zM22.917 10.432c-0.268 0-0.485-0.217-0.485-0.485v-5.703c0-0.268 0.217-0.485 0.485-0.485s0.485 0.217 0.485 0.485v5.703c0 0.268-0.216 0.485-0.485 0.485zM26.848 14.179c-0.124 0-0.248-0.047-0.343-0.142l-7.809-7.811c-0.189-0.189-0.189-0.497 0-0.686s0.497-0.189 0.686 0l7.81 7.811c0.189 0.189 0.189 0.496 0 0.686-0.095 0.094-0.219 0.142-0.343 0.142zM22.917 10.432c-0.124 0-0.248-0.047-0.343-0.142-0.189-0.189-0.189-0.496 0-0.686l3.954-3.954c0.189-0.189 0.497-0.189 0.686 0s0.189 0.497 0 0.686l-3.954 3.954c-0.094 0.094-0.218 0.142-0.342 0.142zM28.487 10.274h-5.57c-0.268 0-0.485-0.217-0.485-0.485s0.217-0.485 0.485-0.485h5.57c0.268 0 0.485 0.217 0.485 0.485s-0.216 0.485-0.485 0.485z"></path>
</svg>
