<!-- Generated by IcoMoon.io -->
<svg version="1.1" xmlns="http://www.w3.org/2000/svg" width="32" height="32" viewBox="0 0 32 32">
<path d="M16 32c-2.582 0-4.989-1.048-6.777-2.952-1.813-1.93-2.811-4.575-2.811-7.448 0-4.709 2.093-8.078 4.309-11.645 1.712-2.756 3.483-5.606 4.508-9.365 0.095-0.348 0.411-0.59 0.772-0.59s0.677 0.241 0.772 0.59c1.025 3.76 2.799 6.611 4.514 9.367 2.219 3.567 4.314 6.935 4.314 11.643 0 2.879-0.992 5.524-2.794 7.447-1.784 1.904-4.201 2.953-6.806 2.953zM16 3.381c-1.078 2.842-2.518 5.16-3.921 7.417-2.183 3.514-4.068 6.549-4.068 10.801 0 5.017 3.434 8.8 7.989 8.8 4.561 0 8-3.783 8-8.8 0-4.251-1.887-7.285-4.073-10.798-1.405-2.258-2.847-4.577-3.927-7.42z"></path>
</svg>
