<!-- Generated by IcoMoon.io -->
<svg version="1.1" xmlns="http://www.w3.org/2000/svg" width="32" height="32" viewBox="0 0 32 32">
<path d="M22.586 0l-6.586 5.542 9.492 5.906 6.508-5.252z"></path>
<path d="M9.414 0l-9.414 6.194 6.51 5.254 9.49-5.906z"></path>
<path d="M0 16.702l9.414 6.196 6.586-5.542-9.492-5.908z"></path>
<path d="M25.49 11.448l-9.49 5.908 6.586 5.542 9.414-6.196z"></path>
<path d="M23.062 24.978c-0.166 0.11-0.358 0.164-0.548 0.164-0.23 0-0.458-0.080-0.644-0.234l-5.87-4.94-5.87 4.94c-0.338 0.284-0.824 0.312-1.194 0.070l-2.936-1.932v2.954l10.020 6 9.98-6v-2.956l-2.938 1.934z"></path>
</svg>
