<!-- Generated by IcoMoon.io -->
<svg version="1.1" xmlns="http://www.w3.org/2000/svg" width="32" height="32" viewBox="0 0 32 32">
<path d="M20.812 1.25l-4.905 3.104-4.841-3.041-11.129 6.678 5.15 3.235-5.12 5.12 5.674 3.405v4.903l10.268 6.16 10.267-6.16v-4.742l5.73-3.438-5.185-5.247 5.216-3.301zM20.838 3.443l7.542 4.525-3.15 1.994c-1.401-0.841-5.443-3.266-7.542-4.525zM15.909 15.57l-7.52-4.512 7.52-4.512 7.52 4.512zM11.044 3.504l3.081 1.936-7.539 4.523-3.081-1.936zM6.72 12.233l7.684 4.61-3.742 3.742-7.684-4.61zM7.508 20.871l3.443 2.066 4.025-4.024v9.166l-7.467-4.48zM24.309 23.597l-7.467 4.48v-9.146l4.083 4.132 3.384-2.031zM21.222 20.708l-3.814-3.86 7.686-4.612 3.814 3.86z"></path>
</svg>
