<!-- Generated by IcoMoon.io -->
<svg version="1.1" xmlns="http://www.w3.org/2000/svg" width="31" height="32" viewBox="0 0 31 32">
<path d="M20.839 23.727h-10.537c-2.263 0-4.137 1.873-4.137 4.137s1.873 4.137 4.137 4.137c0.234 0 0.39-0.156 0.39-0.39s-0.234-0.39-0.39-0.39c-1.873 0-3.356-1.483-3.356-3.356s1.483-3.356 3.356-3.356h10.537c1.873 0 3.356 1.483 3.356 3.356s-1.483 3.356-3.356 3.356h-7.181c-0.234 0-0.39 0.156-0.39 0.39s0.156 0.39 0.39 0.39h7.181c2.263 0 4.137-1.873 4.137-4.137s-1.873-4.137-4.137-4.137z"></path>
<path d="M18.888 27.863c0-0.234-0.156-0.39-0.39-0.39h-5.854c-0.234 0-0.39 0.156-0.39 0.39s0.156 0.39 0.39 0.39h5.854c0.156 0 0.39-0.156 0.39-0.39z"></path>
<path d="M27.239 6.010c0-0.234-0.156-0.39-0.39-0.39h-11.551c-0.234 0-0.39 0.156-0.39 0.39s0.156 0.39 0.39 0.39h11.551c0.234 0 0.39-0.156 0.39-0.39z"></path>
<path d="M27.083 9.132c0-0.234-0.156-0.39-0.39-0.39h-11.395c-0.234 0-0.39 0.156-0.39 0.39s0.156 0.39 0.39 0.39h11.395c0.234 0 0.39-0.156 0.39-0.39z"></path>
<path d="M15.298 11.941c-0.234 0-0.39 0.156-0.39 0.39s0.156 0.39 0.39 0.39h8.117c0.234 0 0.39-0.156 0.39-0.39s-0.156-0.39-0.39-0.39h-8.117z"></path>
<path d="M30.751 4.683c0.234 0 0.39-0.156 0.39-0.39v-1.873c0-1.327-1.093-2.42-2.419-2.42h-26.302c-1.327 0-2.42 1.093-2.42 2.42v13.502c0 1.327 1.093 2.42 2.42 2.42h13.581l3.2 3.902c0.312 0.39 0.702 0.546 1.171 0.546s0.937-0.234 1.171-0.546l3.278-3.902c0 0 0 0 0.078 0h3.746c1.327 0 2.419-1.093 2.419-2.419v-6.712c0-0.234-0.156-0.39-0.39-0.39s-0.39 0.156-0.39 0.39v6.712c0 0.937-0.702 1.639-1.639 1.639h-3.668c0 0-0.078 0-0.078 0-0.156-0.078-0.312 0-0.468 0.078l-3.356 4.137c-0.312 0.39-0.859 0.39-1.171 0l-3.356-4.059c0 0 0 0 0 0s-0.078 0-0.078-0.078c0 0 0 0-0.078 0 0 0-0.078 0-0.078 0s-0.078 0-0.078 0c0 0 0 0 0 0h-13.815c-0.937 0-1.639-0.702-1.639-1.639v-13.581c0-0.937 0.702-1.639 1.639-1.639h26.224c0.937 0 1.639 0.702 1.639 1.639v1.873c0.078 0.234 0.234 0.39 0.468 0.39z"></path>
<path d="M5.463 4.839c-0.78 0-1.327 0.624-1.327 1.327v6.010c0 0.78 0.624 1.327 1.327 1.327h6.010c0.702 0 1.327-0.624 1.327-1.327v-6.010c0-0.78-0.624-1.327-1.327-1.327h-6.010zM12.098 6.166v6.010c0 0.312-0.234 0.546-0.546 0.546h-6.088c-0.312 0-0.546-0.234-0.546-0.546v-6.010c0-0.312 0.234-0.546 0.546-0.546h6.010c0.312 0 0.624 0.234 0.624 0.546z"></path>
</svg>
