<!-- Generated by IcoMoon.io -->
<svg version="1.1" xmlns="http://www.w3.org/2000/svg" width="35" height="32" viewBox="0 0 35 32">
<path d="M21.509 2.994h-20.594c-0.503 0-0.914-0.411-0.914-0.914s0.411-0.914 0.914-0.914h20.594c0.503 0 0.914 0.411 0.914 0.914s-0.411 0.914-0.914 0.914z"></path>
<path d="M13.897 16.709h-12.983c-0.503 0-0.914-0.411-0.914-0.914s0.411-0.914 0.914-0.914h12.983c0.503 0 0.914 0.411 0.914 0.914s-0.411 0.914-0.914 0.914z"></path>
<path d="M21.509 30.423h-20.594c-0.503 0-0.914-0.411-0.914-0.914s0.411-0.914 0.914-0.914h20.594c0.503 0 0.914 0.411 0.914 0.914s-0.411 0.914-0.914 0.914z"></path>
<path d="M33.623 32c-0.274 0-0.549-0.137-0.731-0.366l-9.074-12.366c-1.509-2.057-1.509-4.8 0.023-6.834l9.051-12.069c0.297-0.411 0.869-0.48 1.28-0.183s0.48 0.869 0.183 1.28l-9.051 12.069c-1.051 1.371-1.051 3.246-0.023 4.64l9.074 12.366c0.297 0.411 0.206 0.983-0.206 1.28-0.137 0.114-0.343 0.183-0.526 0.183z"></path>
</svg>
