<!-- Generated by IcoMoon.io -->
<svg version="1.1" xmlns="http://www.w3.org/2000/svg" width="34" height="32" viewBox="0 0 34 32">
<path d="M29.791 32h-0.047c-0.535-0.023-1.046-0.279-1.372-0.674l-9.93-11.93c-1.698-2.047-1.698-5.023 0-7.093l9.605-11.628c0.349-0.419 0.884-0.674 1.419-0.674 0.535-0.023 1.070 0.186 1.442 0.581l2.791 2.86c0.698 0.721 0.721 1.814 0.093 2.581l-7.279 8.651c-0.581 0.698-0.581 1.698 0 2.372l7.558 9.070c0.651 0.767 0.581 1.907-0.14 2.581l-2.721 2.698c-0.349 0.349-0.953 0.605-1.419 0.605zM28.744 1.279l-9.605 11.628c-1.419 1.698-1.419 4.186 0 5.907l9.93 11.93c0.163 0.186 0.442 0.326 0.698 0.349 0.256 0 0.605-0.163 0.767-0.326l2.721-2.698c0.372-0.349 0.395-0.93 0.070-1.326l-7.558-9.070c-0.86-1.023-0.86-2.535 0-3.581l7.279-8.651c0.326-0.395 0.302-0.954-0.047-1.326l-2.767-2.884c-0.186-0.209-0.465-0.326-0.744-0.302h-0.023c-0.256 0-0.535 0.14-0.721 0.349z"></path>
<path d="M17.814 31.209h-16.186c-0.907 0-1.628-0.721-1.628-1.628v-4.14c0-0.907 0.721-1.628 1.628-1.628h16.186c0.907 0 1.628 0.721 1.628 1.628v4.14c0.023 0.395-0.14 0.814-0.442 1.116-0.302 0.326-0.744 0.512-1.186 0.512zM1.628 24.744c-0.395 0-0.698 0.302-0.698 0.698v4.14c0 0.395 0.302 0.698 0.698 0.698h16.186c0.186 0 0.372-0.070 0.512-0.209 0.116-0.14 0.186-0.302 0.186-0.465v-4.163c0-0.395-0.302-0.698-0.698-0.698h-16.186z"></path>
<path d="M17.814 8.186h-16.186c-0.907 0-1.628-0.721-1.628-1.628v-4.14c0-0.907 0.721-1.628 1.628-1.628h16.186c0.907 0 1.628 0.721 1.628 1.628v4.14c0.023 0.395-0.14 0.814-0.442 1.116-0.302 0.326-0.744 0.512-1.186 0.512zM1.628 1.721c-0.395 0-0.698 0.302-0.698 0.698v4.14c0 0.395 0.302 0.698 0.698 0.698h16.186c0.186 0 0.372-0.070 0.512-0.209 0.116-0.14 0.186-0.302 0.186-0.465v-4.163c0-0.395-0.302-0.698-0.698-0.698h-16.186z"></path>
<path d="M11.442 19.698h-9.814c-0.907 0-1.628-0.721-1.628-1.628v-4.14c0-0.907 0.721-1.628 1.628-1.628h9.814c0.907 0 1.628 0.721 1.628 1.628v4.14c0 0.884-0.744 1.628-1.628 1.628zM1.628 13.233c-0.395 0-0.698 0.302-0.698 0.698v4.14c0 0.395 0.302 0.698 0.698 0.698h9.814c0.372 0 0.698-0.326 0.698-0.698v-4.14c0-0.395-0.302-0.698-0.698-0.698h-9.814z"></path>
</svg>
