<!-- Generated by IcoMoon.io -->
<svg version="1.1" xmlns="http://www.w3.org/2000/svg" width="35" height="32" viewBox="0 0 35 32">
<path d="M30.545 32c-0.233 0-0.465-0.116-0.698-0.349l-10.415-12.625c-1.455-1.804-1.455-4.422 0-6.167l10.24-12.509c0.175-0.233 0.407-0.349 0.64-0.349 0.291 0 0.582 0.116 0.756 0.291l2.967 3.084c0.291 0.349 0.349 0.931 0.058 1.28l-7.796 9.309c-0.931 1.105-0.931 2.735 0 3.898l8.029 9.6c0.349 0.349 0.291 0.931-0.058 1.338l-2.909 2.851c-0.116 0.116-0.524 0.291-0.698 0.291h-0.116z"></path>
<path d="M1.222 31.185c-0.64 0-1.222-0.582-1.222-1.222v-3.316c0-0.64 0.582-1.222 1.222-1.222h16.175c0.64 0 1.164 0.524 1.222 1.28v3.258c0 0.64-0.582 1.222-1.222 1.222h-16.175z"></path>
<path d="M1.222 6.633c-0.64 0-1.222-0.582-1.222-1.222v-3.316c0-0.64 0.582-1.222 1.222-1.222h16.175c0.64 0 1.222 0.582 1.222 1.222v3.316c0 0.64-0.582 1.222-1.222 1.222h-16.175z"></path>
<path d="M1.222 18.909c-0.64 0-1.222-0.582-1.222-1.222v-3.316c0-0.64 0.582-1.222 1.222-1.222h9.367c0.64 0 1.222 0.582 1.222 1.222v3.316c0 0.64-0.582 1.222-1.222 1.222h-9.367z"></path>
</svg>
