<!-- Generated by IcoMoon.io -->
<svg version="1.1" xmlns="http://www.w3.org/2000/svg" width="112" height="32" viewBox="0 0 112 32">
<path d="M26.432 17.378c-0.731-0.9-0.731-2.193 0-3.037l7.48-8.942c0.506-0.562 0.45-1.462-0.056-2.025l-2.868-2.981c-0.281-0.281-0.731-0.45-1.125-0.45-0.45 0-0.844 0.225-1.069 0.562l-9.898 12.035c-1.575 1.912-1.575 4.724 0 6.692l10.123 12.26c0.281 0.281 0.675 0.506 1.069 0.506 0 0 0 0 0.056 0 0.337 0 0.9-0.225 1.125-0.506l2.812-2.756c0.562-0.562 0.619-1.462 0.112-2.025l-7.761-9.336z"></path>
<path d="M17.378 24.52h-15.634c-0.956 0-1.743 0.787-1.743 1.743v3.206c0 0.956 0.787 1.743 1.743 1.743h15.634c0.956 0 1.743-0.787 1.743-1.743v-3.206c-0.056-0.956-0.787-1.743-1.743-1.743z"></path>
<path d="M1.743 7.48h15.634c0.956 0 1.743-0.787 1.743-1.743v-3.206c0-0.956-0.787-1.743-1.743-1.743h-15.634c-0.956 0-1.743 0.787-1.743 1.743v3.206c0 0.956 0.787 1.743 1.743 1.743z"></path>
<path d="M1.743 19.346h9.054c0.956 0 1.743-0.787 1.743-1.743v-3.206c0-0.956-0.787-1.743-1.743-1.743h-9.054c-0.956 0-1.743 0.787-1.743 1.743v3.206c0 0.956 0.787 1.743 1.743 1.743z"></path>
<path d="M48.366 2.362c0.281 0 0.45-0.056 0.619-0.225s0.225-0.337 0.225-0.619c0-0.281-0.112-0.45-0.225-0.619-0.169-0.169-0.394-0.225-0.619-0.225h-6.974c-0.281 0-0.45 0.112-0.619 0.281s-0.281 0.394-0.281 0.675v10.46c0 0.281 0.112 0.45 0.281 0.619s0.394 0.281 0.619 0.281h6.974c0.281 0 0.45-0.056 0.619-0.225s0.225-0.337 0.225-0.619c0-0.225-0.112-0.45-0.225-0.619-0.169-0.169-0.394-0.225-0.619-0.225h-6.074v-3.656h4.33c0.225 0 0.45-0.056 0.619-0.225s0.281-0.337 0.281-0.619-0.112-0.45-0.281-0.619c-0.169-0.169-0.394-0.225-0.619-0.225h-4.33v-3.599h6.074z"></path>
<path d="M54.439 12.091c0-0.281-0.056-0.45-0.225-0.619s-0.337-0.225-0.562-0.225h-0.394c-0.169 0-0.337-0.112-0.45-0.337s-0.225-0.562-0.225-0.9v-8.436c0-0.281-0.112-0.45-0.225-0.619-0.169-0.169-0.394-0.225-0.619-0.225-0.281 0-0.45 0.056-0.619 0.225s-0.225 0.394-0.225 0.619v8.436c0 0.562 0.112 1.069 0.281 1.518 0.225 0.45 0.506 0.787 0.844 1.069 0.394 0.225 0.787 0.394 1.237 0.394h0.056c0.337 0 0.619-0.056 0.787-0.225 0.225-0.169 0.337-0.394 0.337-0.675z"></path>
<path d="M61.301 4.78c-0.562-0.337-1.294-0.562-2.137-0.562s-1.575 0.169-2.193 0.562c-0.675 0.394-1.181 0.9-1.518 1.575s-0.562 1.406-0.562 2.25 0.169 1.631 0.562 2.25c0.394 0.675 0.956 1.181 1.631 1.575s1.462 0.562 2.306 0.562c0.506 0 1.012-0.112 1.518-0.281s0.956-0.394 1.35-0.675c0.169-0.169 0.281-0.337 0.281-0.562s-0.112-0.45-0.281-0.619c-0.112-0.112-0.337-0.169-0.506-0.169-0.225 0-0.394 0.056-0.562 0.169-0.225 0.169-0.506 0.281-0.787 0.394-0.337 0.112-0.619 0.169-0.956 0.169-0.731 0-1.406-0.225-1.912-0.619s-0.787-0.956-0.9-1.575h5.793c0.225 0 0.45-0.056 0.562-0.225 0.169-0.169 0.225-0.337 0.225-0.562 0-0.844-0.169-1.575-0.45-2.193-0.394-0.562-0.9-1.069-1.462-1.462zM56.576 7.873c0.112-0.619 0.394-1.125 0.844-1.462 0.45-0.394 1.069-0.619 1.743-0.619s1.181 0.169 1.575 0.562c0.394 0.394 0.619 0.844 0.731 1.518h-4.893z"></path>
<path d="M73.954 4.218c-0.562 0-1.125 0.112-1.575 0.337s-0.787 0.506-1.125 0.844c-0.281-0.337-0.619-0.619-1.012-0.844-0.45-0.225-0.9-0.337-1.462-0.337-0.45 0-0.844 0.056-1.237 0.225-0.337 0.112-0.619 0.281-0.844 0.506-0.056-0.169-0.112-0.281-0.225-0.45-0.169-0.169-0.394-0.225-0.619-0.225-0.281 0-0.45 0.112-0.619 0.225-0.169 0.169-0.281 0.394-0.281 0.619v6.917c0 0.281 0.112 0.45 0.281 0.619s0.394 0.281 0.619 0.281c0.281 0 0.45-0.112 0.619-0.281s0.225-0.394 0.225-0.619v-4.387c0-0.562 0.169-1.012 0.506-1.35s0.731-0.506 1.293-0.506c0.506 0 0.9 0.169 1.181 0.45s0.45 0.787 0.45 1.35v4.443c0 0.281 0.112 0.45 0.281 0.619s0.394 0.281 0.619 0.281c0.281 0 0.45-0.112 0.619-0.281s0.225-0.394 0.225-0.619v-4.387c0-0.562 0.169-1.012 0.506-1.35s0.731-0.506 1.237-0.506c0.506 0 0.9 0.169 1.181 0.45s0.45 0.787 0.45 1.35v4.443c0 0.281 0.056 0.45 0.281 0.619 0.169 0.169 0.394 0.281 0.619 0.281 0.281 0 0.45-0.056 0.619-0.281 0.169-0.169 0.225-0.394 0.225-0.619v-4.443c0-1.069-0.281-1.912-0.844-2.531-0.506-0.506-1.237-0.844-2.193-0.844z"></path>
<path d="M85.427 4.78c-0.562-0.337-1.293-0.562-2.137-0.562s-1.575 0.169-2.193 0.562c-0.619 0.394-1.181 0.9-1.518 1.575s-0.562 1.406-0.562 2.25 0.225 1.631 0.562 2.25 0.9 1.181 1.631 1.575c0.675 0.394 1.462 0.562 2.306 0.562 0.506 0 1.012-0.112 1.518-0.281s0.956-0.394 1.35-0.675c0.169-0.169 0.281-0.337 0.281-0.562s-0.112-0.45-0.281-0.619c-0.112-0.112-0.281-0.169-0.506-0.169s-0.394 0.056-0.562 0.169c-0.225 0.169-0.45 0.281-0.787 0.394s-0.619 0.169-0.956 0.169c-0.787 0-1.406-0.225-1.912-0.619s-0.787-0.956-0.956-1.575h5.793c0.225 0 0.45-0.056 0.562-0.225 0.169-0.169 0.225-0.337 0.225-0.562 0-0.844-0.169-1.575-0.45-2.193-0.337-0.562-0.787-1.069-1.406-1.462zM80.703 7.873c0.112-0.619 0.394-1.125 0.844-1.462 0.45-0.394 1.069-0.619 1.743-0.619s1.181 0.169 1.575 0.562c0.394 0.394 0.619 0.844 0.731 1.518h-4.893z"></path>
<path d="M95.381 4.724c-0.562-0.337-1.237-0.45-1.968-0.45-0.506 0-1.012 0.112-1.518 0.281-0.394 0.169-0.731 0.337-1.069 0.619 0-0.225-0.112-0.45-0.225-0.562-0.169-0.169-0.394-0.225-0.619-0.225-0.281 0-0.45 0.056-0.619 0.225s-0.281 0.394-0.281 0.619v6.917c0 0.281 0.112 0.45 0.281 0.619s0.394 0.281 0.619 0.281c0.281 0 0.506-0.112 0.619-0.281s0.225-0.394 0.225-0.619v-4.387c0-0.337 0.112-0.675 0.281-0.956s0.45-0.506 0.787-0.675c0.337-0.169 0.731-0.281 1.125-0.281 0.731 0 1.293 0.225 1.743 0.619s0.619 1.012 0.619 1.856v3.824c0 0.281 0.112 0.45 0.281 0.619s0.394 0.281 0.619 0.281 0.45-0.112 0.619-0.281 0.281-0.394 0.281-0.619v-3.824c0-0.844-0.169-1.575-0.506-2.193-0.225-0.619-0.731-1.069-1.293-1.406z"></path>
<path d="M103.367 11.248h-0.506c-0.281 0-0.562-0.112-0.731-0.394-0.225-0.281-0.337-0.562-0.337-0.956v-3.712h1.237c0.225 0 0.45-0.056 0.562-0.225 0.169-0.169 0.225-0.337 0.225-0.506 0-0.225-0.056-0.45-0.225-0.562-0.169-0.169-0.337-0.225-0.562-0.225h-1.237v-2.193c0-0.225-0.112-0.45-0.225-0.619s-0.394-0.225-0.619-0.225c-0.281 0-0.45 0.112-0.619 0.225-0.169 0.169-0.225 0.394-0.225 0.619v2.137h-0.619c-0.225 0-0.45 0.056-0.562 0.225-0.169 0.169-0.225 0.337-0.225 0.562s0.056 0.394 0.225 0.562c0.169 0.169 0.337 0.225 0.562 0.225h0.619v3.712c0 0.562 0.112 1.125 0.394 1.575s0.562 0.844 1.012 1.125c0.45 0.281 0.9 0.394 1.462 0.394h0.281c0.281 0 0.562-0.056 0.731-0.225s0.281-0.394 0.281-0.619c0-0.281-0.056-0.45-0.225-0.619-0.281-0.225-0.45-0.281-0.675-0.281z"></path>
<path d="M111.747 8.773c-0.45-0.394-1.293-0.731-2.418-0.956-0.562-0.112-0.956-0.225-1.237-0.337s-0.45-0.225-0.562-0.337c-0.112-0.112-0.112-0.281-0.112-0.45 0-0.281 0.112-0.45 0.394-0.562 0.281-0.169 0.675-0.225 1.125-0.225 0.394 0 0.731 0.056 1.012 0.169s0.562 0.281 0.787 0.506c0.225 0.225 0.506 0.337 0.787 0.337 0.225 0 0.337-0.056 0.506-0.169 0.225-0.169 0.281-0.337 0.281-0.562 0-0.169-0.056-0.394-0.225-0.562-0.337-0.394-0.731-0.731-1.293-0.9-0.562-0.225-1.181-0.337-1.856-0.337-0.562 0-1.069 0.112-1.575 0.281s-0.9 0.45-1.237 0.787c-0.337 0.394-0.45 0.844-0.45 1.35 0 1.293 1.012 2.137 3.037 2.531 0.731 0.169 1.293 0.337 1.575 0.506s0.45 0.45 0.45 0.731c0 0.281-0.169 0.506-0.45 0.731-0.337 0.169-0.731 0.281-1.35 0.281-0.45 0-0.844-0.056-1.237-0.225s-0.675-0.337-0.844-0.562c-0.394-0.394-0.787-0.45-1.237-0.056-0.225 0.169-0.337 0.394-0.337 0.675 0 0.225 0.056 0.394 0.225 0.562 0.337 0.337 0.844 0.675 1.518 0.9 0.619 0.225 1.293 0.337 2.025 0.337s1.35-0.112 1.856-0.337c0.506-0.225 0.9-0.562 1.181-0.956s0.394-0.844 0.394-1.35c0-0.844-0.225-1.35-0.731-1.8z"></path>
<path d="M48.759 19.571c0-0.225-0.056-0.394-0.225-0.562-0.112-0.169-0.337-0.225-0.562-0.225-0.112 0-0.281 0-0.394 0.056s-0.225 0.169-0.337 0.281l-4.949 4.949v-4.387c0-0.225-0.112-0.45-0.281-0.619s-0.394-0.281-0.619-0.281c-0.225 0-0.45 0.112-0.619 0.281s-0.281 0.394-0.281 0.619v10.46c0 0.281 0.112 0.45 0.281 0.619s0.394 0.281 0.619 0.281c0.281 0 0.45-0.112 0.619-0.281s0.281-0.394 0.281-0.619v-3.712l1.012-1.012 3.824 5.23c0.169 0.281 0.45 0.394 0.731 0.394 0.225 0 0.45-0.112 0.562-0.281 0.169-0.169 0.225-0.394 0.225-0.619s-0.056-0.394-0.169-0.562l-3.993-5.399 3.88-3.881c0.281-0.169 0.394-0.45 0.394-0.731z"></path>
<path d="M51.684 19.009c-0.281 0-0.562 0.112-0.787 0.337s-0.337 0.506-0.337 0.787c0 0.281 0.112 0.562 0.337 0.787s0.506 0.337 0.787 0.337c0.281 0 0.562-0.112 0.787-0.337s0.337-0.506 0.337-0.787c0-0.281-0.112-0.562-0.337-0.787s-0.45-0.337-0.787-0.337z"></path>
<path d="M51.684 22.439c-0.281 0-0.45 0.112-0.619 0.225-0.169 0.169-0.281 0.394-0.281 0.619v6.917c0 0.281 0.112 0.45 0.281 0.619s0.394 0.281 0.619 0.281c0.281 0 0.45-0.112 0.619-0.281s0.225-0.394 0.225-0.619v-6.861c0-0.281-0.056-0.506-0.225-0.619-0.112-0.169-0.337-0.281-0.619-0.281z"></path>
<path d="M59.051 29.357h-0.562c-0.281 0-0.562-0.112-0.787-0.394s-0.337-0.562-0.337-0.956v-3.712h1.237c0.225 0 0.45-0.056 0.562-0.225s0.225-0.337 0.225-0.562c0-0.225-0.056-0.45-0.225-0.562s-0.337-0.225-0.562-0.225h-1.237v-2.137c0-0.281-0.056-0.45-0.225-0.619s-0.394-0.225-0.619-0.225c-0.281 0-0.45 0.056-0.619 0.225s-0.225 0.394-0.225 0.619v2.137h-0.619c-0.225 0-0.45 0.056-0.619 0.225s-0.225 0.337-0.225 0.562c0 0.225 0.056 0.394 0.225 0.562s0.337 0.225 0.619 0.225h0.619v3.712c0 0.562 0.112 1.125 0.394 1.575 0.225 0.45 0.562 0.844 1.012 1.125s0.9 0.394 1.462 0.394h0.281c0.281 0 0.506-0.056 0.731-0.225 0.169-0.169 0.281-0.394 0.281-0.619s-0.056-0.45-0.225-0.619c-0.169-0.169-0.394-0.281-0.562-0.281z"></path>
</svg>
