<!-- Generated by IcoMoon.io -->
<svg version="1.1" xmlns="http://www.w3.org/2000/svg" width="32" height="32" viewBox="0 0 32 32">
<path d="M30.887 30.9c0 0 0-14.113 0-18.813 0-0.194-0.244-0.438-0.481-0.619l-4.919-3.569v-3.944c0-0.388-0.325-0.65-0.65-0.65h-5.606l-2.856-2.081c-0.194-0.131-0.519-0.131-0.719 0l-2.856 2.081h-5.606c-0.388 0-0.65 0.325-0.65 0.65v3.9l-4.981 3.619c-0.294 0.181-0.481 0.419-0.481 0.619 0 4.731 0 18.938 0 18.938 0 0.369 0.294 0.625 0.6 0.65 0.019 0 0.031 0 0.050 0h28.5c0.419-0.006 0.656-0.331 0.656-0.781zM29.65 13.256v16.475l-10.756-8.613 10.756-7.863zM29.169 12.113l-3.681 2.681v-5.388l3.681 2.706zM15.988 2.456l1.144 0.844h-2.294l1.15-0.844zM24.188 4.606v11.137l-8.2 5.975-8.2-5.975v-11.137h16.4zM2.325 13.256l10.756 7.862-10.756 8.663v-16.525zM6.55 14.844l-3.775-2.75 3.775-2.744v5.494zM3.494 30.438l10.631-8.556 1.469 1.075c0.281 0.212 0.494 0.212 0.781 0l1.469-1.075 10.694 8.556h-25.044zM11.631 7.794h8.781v1.237h-8.781v-1.237zM11.631 11.762h8.781v1.238h-8.781v-1.238zM11.631 15.731h8.781v1.238h-8.781v-1.238z"></path>
</svg>
