<!-- Generated by IcoMoon.io -->
<svg version="1.1" xmlns="http://www.w3.org/2000/svg" width="32" height="32" viewBox="0 0 32 32">
<path d="M6.202 18c0.93 4.558 4.97 8 9.798 8s8.868-3.442 9.798-8h-19.596z"></path>
<path d="M16 0c-8.836 0-16 7.164-16 16s7.164 16 16 16 16-7.164 16-16-7.164-16-16-16zM21 7c1.104 0 2 0.896 2 2s-0.896 2-2 2-2-0.896-2-2 0.896-2 2-2zM11 7c1.104 0 2 0.896 2 2s-0.896 2-2 2-2-0.896-2-2 0.896-2 2-2zM16 28c-6.618 0-12-5.382-12-12v-2h24v2c0 6.618-5.382 12-12 12z"></path>
</svg>
