<!-- Generated by IcoMoon.io -->
<svg version="1.1" xmlns="http://www.w3.org/2000/svg" width="32" height="32" viewBox="0 0 32 32">
<path d="M29.169 18.648c-0.003-0.001-0.006-0.001-0.009-0.002-0.262-0.062-0.526 0.1-0.588 0.362-1.66 6.942-8.634 11.224-15.577 9.564-3.812-0.912-7.004-3.504-8.679-7.048l-0.978 0.204c3.162 6.996 11.395 10.104 18.391 6.942 3.915-1.769 6.792-5.25 7.793-9.428 0.067-0.262-0.091-0.528-0.353-0.595z"></path>
<path d="M6.557 19.559c-0.016-0.086-0.056-0.167-0.114-0.233l-3.784-4.221c-0.166-0.213-0.473-0.251-0.686-0.085-0.077 0.060-0.134 0.142-0.165 0.235l-0.895 2.71-0.889 2.707c-0.082 0.257 0.060 0.532 0.317 0.614 0.076 0.024 0.157 0.030 0.235 0.015l5.591-1.171c0.265-0.050 0.44-0.306 0.39-0.571zM3.181 19.757l-1.964 0.414 0.624-1.906 0.627-1.903 2.674 2.983-1.961 0.412z"></path>
<path d="M31.994 11.078c-0.055-0.264-0.313-0.433-0.577-0.378l-2.79 0.586-2.787 0.572c-0.265 0.050-0.44 0.306-0.39 0.571 0.016 0.086 0.056 0.167 0.114 0.233l3.784 4.221c0.166 0.213 0.473 0.251 0.686 0.085 0.077-0.060 0.134-0.142 0.165-0.235l1.773-5.42c0.027-0.075 0.034-0.156 0.022-0.235zM30.163 13.735l-0.624 1.903-2.674-2.983 3.922-0.823-0.624 1.903z"></path>
<path d="M10.278 3.329c-3.915 1.769-6.792 5.25-7.793 9.428-0.074 0.26 0.076 0.53 0.335 0.605s0.53-0.076 0.605-0.335c0.004-0.014 0.007-0.029 0.010-0.043 1.663-6.942 8.639-11.221 15.581-9.557 3.811 0.913 7.001 3.506 8.675 7.049l0.978-0.204c-3.162-6.996-11.395-10.104-18.391-6.942z"></path>
<path d="M21.13 7.387c0-0.27-0.219-0.489-0.489-0.489h-6.323c-0.211 0-0.398 0.136-0.464 0.337l-2.942 9.002c-0.102 0.25 0.018 0.535 0.267 0.638 0.060 0.024 0.124 0.037 0.188 0.036h2.21l-1.934 7.533c-0.091 0.254 0.041 0.534 0.296 0.625 0.189 0.068 0.401 0.013 0.533-0.139l8.174-9.508c0.188-0.194 0.183-0.504-0.011-0.691-0.095-0.092-0.224-0.142-0.356-0.137h-2.867l3.641-6.939c0.051-0.080 0.078-0.173 0.077-0.268zM16.172 14.87c-0.124 0.24-0.029 0.535 0.211 0.658 0.069 0.035 0.145 0.054 0.223 0.054h2.605l-6.127 7.124 1.586-6.154c0.066-0.262-0.094-0.527-0.355-0.593-0.038-0.010-0.077-0.014-0.117-0.015h-2.155l2.63-8.066h5.16l-3.66 6.991z"></path>
</svg>
