<!-- Generated by IcoMoon.io -->
<svg version="1.1" xmlns="http://www.w3.org/2000/svg" width="37" height="32" viewBox="0 0 37 32">
<path d="M11.752 8.751c-1.15-1.15-3.258-0.703-3.641 1.277 0 0.128 0 0.255 0 0.383 0.383 2.044 2.555 2.427 3.641 1.277 0.83-0.766 0.83-2.108 0-2.938v0zM10.858 10.858c-0.255 0.255-0.639 0.319-1.022 0.192-0.319-0.128-0.575-0.447-0.575-0.83s0.192-0.703 0.575-0.83c0.319-0.128 0.703-0.064 1.022 0.192 0.383 0.383 0.383 0.958 0 1.277z"></path>
<path d="M26.762 29.509c0.703 0 1.405-0.256 1.916-0.766 1.277-1.277 1.086-3.577-0.894-4.535-0.128-0.064-0.256-0.128-0.447-0.128-2.938-0.447-4.599 3.066-2.044 5.11 0.256 0.192 0.639 0.319 0.958 0.319h0.511zM26.89 25.23c0.064 0 0.064 0 0.128 0 1.341 0.383 1.597 1.788 0.766 2.619-0.575 0.575-1.533 0.575-2.172 0-0.256-0.256-0.447-0.639-0.447-1.086 0.064-0.83 0.766-1.533 1.725-1.533z"></path>
<path d="M29.637 0.383c-0.256-0.256-0.575-0.383-0.894-0.383s-0.639 0.128-0.83 0.383l-9.006 9.006c-0.319 0.319-0.511 0.83-0.511 1.277 0 0.511 0.192 0.958 0.511 1.277l0.192 0.192c0.383 0.383 0.958 0.575 1.533 0.511 0 0 0 0 0 0h0.064l-1.15 1.15c-0.383 0.383-0.83 0.83-1.341 1.277-0.511-0.511-1.022-0.894-1.341-1.277l-1.15-1.15c0 0 0.064 0 0.064 0h0.511c0.319 0 0.703-0.192 0.894-0.383l1.214-1.214c0.256-0.255 0.256-0.639 0-0.83l-6.898-6.834-3.002-3.002c-0.511-0.447-1.214-0.447-1.725 0l-6.387 6.387c-0.447 0.447-0.447 1.214 0 1.725l9.006 9.006c0.319 0.319 0.83 0.511 1.277 0.511 0.511 0 0.958-0.192 1.277-0.511l0.639-0.639c0.255-0.256 0.192-0.639 0.064-1.022 0 0 0 0 0 0s0-0.064 0-0.064c0 0 0-0.064 0-0.064l1.15 1.15c0.319 0.319 0.639 0.703 1.022 1.086-2.363 1.852-4.854 3.513-6.323 3.832-0.319 0.064-0.703 0.192-1.022 0.319l-0.255-0.256c-0.255-0.256-0.511-0.383-0.83-0.383s-0.639 0.128-0.83 0.383l-0.83 0.83c-0.255 0.256-0.383 0.511-0.383 0.83s0.128 0.639 0.383 0.83l0.255 0.256c-0.766 1.597-0.639 3.513 0.383 5.046 0.383 0.575 0.894 1.022 1.405 1.405 1.469 1.022 3.385 1.15 5.046 0.383l0.255 0.256c0.255 0.256 0.511 0.383 0.83 0.383s0.639-0.128 0.83-0.383l1.725-1.725c0 0 0 0 0 0l-1.086-1.086c0.128-0.319 0.255-0.639 0.319-1.022 0.319-1.405 1.788-3.705 3.513-5.94 2.044 2.619 3.258 4.727 3.513 5.94 0.064 0.319 0.192 0.703 0.319 1.022l-0.256 0.256c-0.256 0.256-0.383 0.511-0.383 0.83s0.128 0.639 0.383 0.83l0.83 0.83c0.256 0.256 0.511 0.383 0.83 0.383s0.639-0.128 0.83-0.383l0.256-0.256c1.597 0.766 3.513 0.639 5.046-0.383 0.256-0.192 0.575-0.383 0.766-0.639 0.256-0.256 0.447-0.511 0.639-0.766 1.022-1.469 1.15-3.385 0.383-5.046l0.256-0.256c0.256-0.256 0.383-0.511 0.383-0.83s-0.128-0.639-0.383-0.83l-1.725-1.725c0 0 0 0 0 0l-1.086 1.086c-0.319-0.128-0.639-0.256-1.022-0.319-1.277-0.256-3.513-1.597-6.323-3.832 0.383-0.383 0.703-0.766 1.022-1.086l1.15-1.15c0 0 0 0.064 0 0.064s0 0.064 0 0.064c0 0 0.128 0.064-0.766 0.192l1.533 1.533c0.319 0.319 0.83 0.511 1.277 0.511 0.511 0 0.958-0.192 1.277-0.511l9.9-9.9-7.218-7.154zM33.469 9.389l-0.83 0.83-6.451-6.451 0.83-0.83 6.451 6.451zM6.132 6.132l3.194-3.194 0.894 0.83-6.451 6.451-0.83-0.83 3.194-3.258zM7.665 1.214l0.83 0.83-6.451 6.451-0.83-0.83 6.451-6.451zM11.305 16.415l-0.192 0.192c-0.128 0.128-0.255 0.192-0.447 0.192s-0.319-0.064-0.447-0.192l-5.557-5.557 6.387-6.387 6.004 6.004-0.639 0.639c-0.128 0.128-0.319 0.192-0.511 0.192 0 0 0 0-0.064 0-0.128 0-0.192 0-0.383-0.064v0c-0.064 0-0.192 0-0.255 0s-0.064 0-0.128 0h-0.064c-0.319 0-0.575 0.064-0.83 0.128 0 0-0.064 0-0.064 0v0c0 0 0 0 0 0-0.064 0.064-0.192 0.064-0.255 0.128 0 0-0.064 0-0.064 0v0h-0.064c-0.064 0-0.128 0.064-0.192 0.128l-0.128 0.064c0 0-0.064 0-0.064 0v0c-0.064 0.064-0.192 0.128-0.255 0.192v0c-0.064 0-0.064 0.064-0.128 0.064-0.128 0.064-0.192 0.192-0.319 0.255-0.064 0.064-0.192 0.192-0.255 0.319 0 0.064-0.064 0.064-0.064 0.128v0c-0.064 0.064-0.128 0.128-0.192 0.255 0 0 0 0.064-0.064 0.064l-0.128 0.255c0 0.064-0.064 0.064-0.064 0.128-0.064 0.192-0.192 0.383-0.255 0.575 0 0 0 0 0 0s0 0 0 0v0c0 0.064 0 0.064 0 0.128-0.064 0.128-0.128 0.319-0.128 0.447 0 0.064 0 0.128 0 0.192s0 0.192 0 0.255v0c0 0.064 0 0.192 0 0.255v0.128c0 0.128 0 0.192 0 0.319v0c0 0 0 0.064 0 0.064 0 0.192-0.064 0.383-0.192 0.511zM14.691 15.968l-1.788-1.788c0.064-0.192 0.192-0.319 0.319-0.447 0 0 0 0 0-0.064 0 0 0-0.064 0.064-0.064v0c0.064-0.064 0.128-0.128 0.192-0.192s0.128-0.128 0.192-0.192c0 0 0.064-0.064 0.064-0.064s0 0 0.064-0.064c0.128-0.128 0.255-0.192 0.447-0.255 0 0 0 0 0 0l1.725 1.852c0.319 0.319 0.766 0.766 1.277 1.214-0.447 0.383-0.958 0.83-1.469 1.214-0.383-0.383-0.766-0.83-1.086-1.15v0zM27.593 22.93c0.383 0.064 0.766 0.192 1.086 0.383 0 0 0.064 0 0.064 0s0 0 0.064 0c0.128 0.064 0.256 0.064 0.447 0 0 0 0 0 0.064 0s0.128-0.064 0.192-0.128l0.575-0.575 0.83 0.83-0.511 0.511c0 0 0 0 0 0.064s-0.064 0.064-0.064 0.128-0.064 0.128-0.064 0.192c0 0.064 0 0.064 0 0.128s0 0.064 0 0.128 0 0.064 0.064 0.128c0 0 0 0 0 0.064 0.766 1.277 0.703 2.938-0.128 4.152-0.128 0.128-0.192 0.256-0.319 0.447 0 0 0 0 0 0-0.064 0.064-0.064 0.128-0.128 0.192v0 0c-0.064 0.064-0.128 0.128-0.192 0.128 0 0 0 0 0 0-0.128 0.128-0.256 0.256-0.447 0.319-1.277 0.83-2.874 0.894-4.152 0.128 0 0 0 0-0.064 0s-0.064-0.064-0.128-0.064c-0.064 0-0.064 0-0.128 0s-0.064 0-0.128 0-0.064 0-0.128 0-0.128 0.064-0.192 0.128c0 0 0 0-0.064 0l-0.511 0.511-0.83-0.83 0.575-0.575c0 0 0 0 0 0 0-0.064 0.064-0.064 0.064-0.128 0 0 0-0.064 0.064-0.064 0-0.064 0-0.064 0-0.128s0-0.128 0-0.192c0-0.064 0-0.064-0.064-0.128 0 0 0 0 0-0.064-0.192-0.319-0.319-0.703-0.383-1.086-0.383-1.788-2.299-4.535-3.96-6.707 0.575-0.766 1.214-1.469 1.725-2.108 2.108 1.852 4.982 3.832 6.77 4.216zM21.717 15.968c-0.383 0.383-0.894 0.958-1.533 1.597 0 0 0 0 0 0s0 0 0 0c-2.427 2.747-6.132 7.345-6.707 9.964-0.064 0.383-0.192 0.766-0.383 1.086 0 0 0 0 0 0.064s0 0.064-0.064 0.128c0 0.064 0 0.128 0 0.256 0 0.064 0 0.064 0 0.128s0.064 0.128 0.128 0.192c0 0 0 0 0 0.064l0.575 0.575-0.83 0.83-0.511-0.511c0 0 0 0-0.064 0-0.064-0.064-0.128-0.064-0.192-0.128-0.064 0-0.064 0-0.128 0s-0.064 0-0.128 0-0.064 0-0.128 0-0.064 0-0.128 0.064c0 0 0 0-0.064 0-1.277 0.766-2.938 0.703-4.152-0.128-0.128-0.128-0.255-0.192-0.383-0.319 0 0 0 0 0 0-0.128-0.064-0.255-0.192-0.319-0.319 0 0 0 0 0 0-0.128-0.128-0.255-0.256-0.319-0.447-0.83-1.277-0.894-2.874-0.128-4.152 0 0 0 0 0-0.064s0-0.064 0.064-0.128c0-0.128 0-0.256 0-0.319s0-0.064-0.064-0.128c0-0.064-0.064-0.064-0.064-0.128 0 0 0 0 0-0.064l-0.511-0.511 0.83-0.83 0.575 0.575c0.064 0.064 0.128 0.064 0.192 0.128 0 0 0.064 0 0.064 0 0.064 0 0.128 0.064 0.192 0.064s0.128 0 0.192-0.064c0 0 0.064 0 0.064 0s0.064 0 0.064 0c0.319-0.192 0.703-0.319 1.086-0.383 1.852-0.383 4.79-2.427 7.345-4.471 0 0 0 0 0 0s0 0 0 0c0.894-0.703 1.788-1.469 2.491-2.108 0.766-0.639 1.341-1.214 1.788-1.661l1.788-1.788c0.192 0.064 0.319 0.192 0.511 0.319 0 0 0.064 0.064 0.064 0.064v0c0.064 0.064 0.128 0.128 0.192 0.192s0.128 0.128 0.192 0.192v0c0 0 0.064 0.064 0.064 0.064v0 0c0 0 0 0 0.064 0.064s0.128 0.128 0.128 0.192c0.064 0.064 0.064 0.128 0.128 0.255 0 0 0 0 0 0l-1.98 1.597zM26.188 16.671c-0.128 0.128-0.256 0.192-0.447 0.192s-0.319-0.064-0.447-0.192l-0.192-0.192c-0.128-0.128-0.192-0.319-0.192-0.511 0 0 0 0 0-0.064 0-0.128 0-0.192 0.064-0.383v0c0-0.128 0-0.192 0-0.319 0 0 0-0.064 0-0.064v0c0-0.319-0.064-0.575-0.192-0.894 0 0 0-0.064 0-0.064v0c-0.064-0.128-0.064-0.255-0.128-0.319 0 0 0 0 0-0.064v0c0 0 0-0.064 0-0.064 0-0.064-0.064-0.128-0.128-0.192l-0.064-0.128c0 0 0-0.064-0.064-0.064v0c-0.064-0.064-0.128-0.192-0.192-0.255v0c0-0.064-0.064-0.064-0.064-0.128-0.064-0.128-0.192-0.192-0.256-0.319-0.128-0.128-0.256-0.255-0.383-0.319v0c0 0 0 0 0 0-0.064 0-0.064-0.064-0.128-0.064s-0.064-0.064-0.128-0.064c0 0-0.064 0-0.064-0.064l-0.192-0.192c-0.064-0.064-0.128-0.064-0.192-0.128 0 0-0.064 0-0.064-0.064 0 0 0 0-0.064 0-0.128-0.064-0.256-0.064-0.319-0.128 0 0-0.064 0-0.064 0v0c-0.256-0.064-0.447-0.128-0.575-0.128 0 0-0.064 0-0.064 0-0.128 0-0.192 0-0.319 0-0.064 0-0.128 0-0.192 0 0 0 0 0-0.064 0 0 0 0 0-0.064 0h-0.128c-0.128 0-0.192 0-0.319 0v0c0 0 0 0-0.064 0-0.192 0-0.383 0-0.511-0.192l-0.639-0.639 6.004-6.004 6.451 6.451-5.621 5.557zM34.363 8.495l-6.451-6.451 0.83-0.83 6.451 6.451-0.83 0.83z"></path>
<path d="M24.655 8.751c-1.15 1.15-0.703 3.258 1.277 3.641 0.128 0 0.256 0 0.383 0 2.044-0.383 2.427-2.555 1.277-3.641-0.766-0.83-2.108-0.83-2.938 0v0zM26.826 10.858c-0.383 0.383-0.958 0.383-1.277 0-0.383-0.383-0.383-0.958 0-1.277 0.383-0.383 0.958-0.383 1.277 0 0.192 0.192 0.256 0.383 0.256 0.639s-0.064 0.447-0.256 0.639z"></path>
<path d="M7.729 24.846c-1.469 1.469-0.894 4.152 1.661 4.727 0.192 0.064 0.383 0.064 0.575 0 2.555-0.511 3.13-3.258 1.661-4.727-0.511-0.511-1.214-0.83-1.916-0.83-0.766 0-1.469 0.319-1.98 0.83zM10.731 27.848c-0.575 0.575-1.533 0.575-2.172 0-0.83-0.83-0.511-2.363 0.958-2.619 0.064 0 0.128 0 0.192 0 1.469 0.256 1.852 1.788 1.022 2.619z"></path>
</svg>
