<!-- Generated by IcoMoon.io -->
<svg version="1.1" xmlns="http://www.w3.org/2000/svg" width="32" height="32" viewBox="0 0 32 32">
<path d="M30.413 26.54c-3.175-1.714-5.651-2.603-7.81-2.984l0.254-0.317c0.127-0.127 0.19-0.254 0.127-0.444l-0.508-1.968c1.333-1.841 2.095-4.19 2.095-6.413v-2.159h1.587c0.317 0 0.508-0.19 0.508-0.508s-0.19-0.508-0.508-0.508h-0.508v-0.508c0-4.19-2.794-7.81-6.921-8.952v-0.19c0-0.825-0.698-1.587-1.587-1.587h-2.159c-0.889 0-1.651 0.698-1.651 1.587v0.127c-4.19 1.143-6.921 4.762-6.921 8.952v0.508h-0.571c-0.317 0-0.508 0.19-0.508 0.508s0.19 0.508 0.508 0.508h1.587v2.159c0 2.222 0.762 4.571 2.095 6.413l-0.508 1.968c0 0.127 0 0.317 0.127 0.444l0.254 0.317c-2.159 0.381-4.635 1.333-7.81 2.984-1.016 0.571-1.587 1.587-1.587 2.667v2.286c0 0.317 0.19 0.508 0.508 0.508h30.921c0.317 0 0.508-0.19 0.508-0.508v-2.286c0.064-1.016-0.571-2.032-1.524-2.603zM15.683 26.032l0.317-0.698 0.825 1.778 0.508 1.143h-2.603l0.952-2.222zM14.286 29.333h3.365l0.317 1.587h-4l0.317-1.587zM21.587 21.841l0.19 0.952-0.571 0.762c-0.064 0-0.064 0.064-0.064 0.127l-2.222 3.048-0.698 0.952-1.46-3.238c1.714-0.19 3.238-1.079 4.508-2.286 0 0 0 0 0.064-0.064 0 0 0 0 0 0 0.127-0.064 0.19-0.127 0.254-0.254zM20.889 3.873c0.064 0.063 0.127 0.063 0.19 0.127 0.698 0.508 1.333 1.079 1.778 1.714l-2.476 0.508 0.508-2.349zM11.556 6.222l-2.476-0.508c0.508-0.635 1.143-1.206 1.778-1.714 0.063-0.063 0.127-0.063 0.19-0.127l0.508 2.349zM7.492 10.667c0-1.397 0.381-2.73 1.016-3.937l3.683 0.698c0.063 0 0.063 0 0.127 0 0.19 0 0.254-0.064 0.444-0.127 0.19-0.127 0.19-0.317 0.19-0.508l-0.762-3.556c0.381-0.19 0.762-0.317 1.206-0.444v1.397c0 0.317 0.19 0.508 0.508 0.508s0.508-0.19 0.508-0.508v-2.603c0-0.254 0.19-0.508 0.508-0.508h2.159c0.254 0 0.508 0.19 0.508 0.508v2.667c0 0.317 0.19 0.508 0.508 0.508s0.508-0.19 0.508-0.508v-1.397c0.444 0.127 0.825 0.317 1.27 0.508l-0.698 3.492c0 0.19 0.064 0.381 0.19 0.508s0.19 0.19 0.381 0.19c0.064 0 0.064 0 0.127 0l3.619-0.889c0.635 1.206 1.016 2.54 1.016 4v0.508h-17.016v-0.508zM8.508 12.254h14.984v2.159c0 2.349-0.825 4.381-1.968 5.968v0c-0.064 0.064-0.127 0.127-0.19 0.19-0.254 0.381-0.571 0.698-0.825 0.952-1.27 1.143-2.73 1.905-4.19 1.968-0.064 0-0.127-0.064-0.254-0.064-0.064 0-0.127 0-0.19 0.064-0.889-0.064-1.778-0.317-2.667-0.825s-1.714-1.206-2.413-2.159c-0.063-0.064-0.127-0.127-0.19-0.19v0c-1.206-1.587-1.968-3.619-1.968-5.968l-0.127-2.095zM15.175 24.508l-1.46 3.238-0.698-0.952-2.222-3.048c0 0-0.063-0.064-0.063-0.064l-0.571-0.889 0.19-0.952c0.063 0.064 0.127 0.127 0.19 0.254 1.333 1.27 2.921 2.159 4.635 2.413zM1.079 29.143c0-0.698 0.381-1.333 1.016-1.651 3.429-1.778 5.841-2.73 8-2.984l3.175 4.381-0.381 2.032h-11.81v-1.778zM30.921 30.921h-11.81l-0.381-2.032 3.238-4.444c2.159 0.317 4.635 1.206 8 2.984 0.635 0.381 1.016 1.016 1.016 1.714v1.778z"></path>
</svg>
