<!-- Generated by IcoMoon.io -->
<svg version="1.1" xmlns="http://www.w3.org/2000/svg" width="32" height="32" viewBox="0 0 32 32">
<path d="M7.768 9.677c-0.060-0.733-0.474-1.29-1.080-1.453-0.603-0.162-1.23 0.1-1.637 0.685-2.554 3.678-3.747 8.001-2.708 12.356 1.442 6.046 6.908 10.672 13.542 10.672 3.793 0 6.239-1.528 6.696-1.706 6.108-3.457 7.96-11.155 7.42-18.152-0.212-2.749-0.808-5.435-1.677-7.562-0.66-1.615-1.793-3.671-3.442-4.293-1.966-0.742-5.134-0.016-8.070 1.849-5.128 3.258-8.194 8.855-9.015 15.087-0.242-0.712-0.323-1.477-0.365-2.223-0.102-1.808 0.102-3.216 0.237-4.147 0.076-0.524 0.122-0.841 0.1-1.113zM8.505 20.285c0.385-0.083 1.028-0.381 1.009-1.44-0.001-0.027-0.001-0.063-0.001-0.074 0.729-9.343 6.051-13.683 8.305-15.115 2.778-1.765 5.266-2.107 6.403-1.678 0.77 0.291 1.656 1.505 2.368 3.248 0.797 1.951 1.345 4.436 1.543 6.997 0.22 2.857 0.406 12.478-6.467 16.373-1.762 0.96-3.76 1.467-5.779 1.467-5.724 0-10.467-3.987-11.719-9.233-0.531-2.228-0.64-5.577 1.526-9.422-0.114 0.93-0.215 2.171-0.132 3.635 0.080 1.422 0.308 3.065 1.385 4.469 0.016 0.021 0.032 0.043 0.049 0.066 0.161 0.221 0.651 0.893 1.511 0.707z"></path>
</svg>
