<!-- Generated by IcoMoon.io -->
<svg version="1.1" xmlns="http://www.w3.org/2000/svg" width="32" height="32" viewBox="0 0 32 32">
<path d="M31.978 8.315c-0.001-0.903-0.736-1.637-1.639-1.637-0.001 0-0.002 0-0.002 0l-28.7 0.039c-0.438 0.001-0.849 0.172-1.158 0.482s-0.479 0.722-0.478 1.16l0.022 16.127c0.001 0.438 0.172 0.849 0.482 1.158s0.72 0.478 1.157 0.478c0.001 0 0.002 0 0.002 0l28.7-0.039c0.904-0.001 1.638-0.737 1.637-1.641l-0.022-16.127zM28.538 8.319l-12.537 8.715-12.561-8.681 25.098-0.034zM21.303 18.679l7.436 5.767-25.498 0.035 7.481-5.802c0.358-0.277 0.423-0.792 0.145-1.15s-0.792-0.423-1.15-0.145l-8.057 6.248-0.020-14.53 13.896 9.604c0.14 0.097 0.303 0.145 0.466 0.145s0.327-0.049 0.468-0.147l13.869-9.641 0.021 14.567-8.053-6.246c-0.357-0.277-0.872-0.212-1.15 0.145s-0.212 0.872 0.145 1.15z"></path>
</svg>
