<!-- Generated by IcoMoon.io -->
<svg version="1.1" xmlns="http://www.w3.org/2000/svg" width="32" height="32" viewBox="0 0 32 32">
<path d="M30.756 11.794l-14.4-10.563c-0.262-0.194-0.588-0.194-0.781 0l-14.563 10.613c-0.238 0.156-0.325 0.381-0.325 0.588v18.625c0 0.394 0.325 0.65 0.65 0.65h29.256c0.387 0 0.65-0.262 0.712-0.587v-18.456c0.006-0.356-0.119-0.575-0.55-0.869zM3.225 30.413l10.544-8.169 1.813 1.331c0.225 0.212 0.519 0.2 0.781 0l1.75-1.281 10.475 8.119h-25.363zM1.988 13.563l10.731 7.906-10.731 8.319v-16.225zM19.156 21.519l10.856-7.963v16.375l-10.856-8.413zM15.969 2.538l13.419 9.863-13.419 9.869-13.394-9.887 13.394-9.844z"></path>
</svg>
