<!-- Generated by IcoMoon.io -->
<svg version="1.1" xmlns="http://www.w3.org/2000/svg" width="32" height="32" viewBox="0 0 32 32">
<path d="M3.762 26.565h-2.039c-0.436 0-0.79 0.354-0.79 0.79s0.353 0.79 0.79 0.79h2.039c0.436 0 0.79-0.354 0.79-0.79s-0.354-0.79-0.79-0.79zM7.138 29.61c-0.308-0.308-0.808-0.308-1.117 0l-1.442 1.442c-0.308 0.308-0.308 0.808 0 1.117 0.154 0.154 0.356 0.231 0.558 0.231s0.404-0.077 0.558-0.231l1.442-1.442c0.308-0.308 0.309-0.808 0-1.117zM30.277 26.96h-13.842l14.169-14.168c0.616-0.616 0.616-1.618 0-2.233l-9.696-9.697c-0.616-0.616-1.618-0.616-2.233 0l-15.499 15.499c-0.895 0.895-1.388 2.085-1.388 3.35s0.493 2.455 1.388 3.35l4.669 4.669c0.522 0.522 1.216 0.809 1.954 0.809h20.479c0.436 0 0.79-0.354 0.79-0.79s-0.353-0.79-0.79-0.79zM9.798 26.96c-0.316 0-0.614-0.123-0.838-0.347l-4.669-4.669c-1.232-1.232-1.232-3.235 0-4.467l2.535-2.535 8.333 8.333c0.154 0.154 0.356 0.231 0.558 0.231s0.404-0.077 0.558-0.231c0.308-0.308 0.308-0.808 0-1.117l-8.333-8.333 11.848-11.848 9.696 9.697-15.285 15.285h-4.404z"></path>
</svg>
