<!-- Generated by IcoMoon.io -->
<svg version="1.1" xmlns="http://www.w3.org/2000/svg" width="29" height="32" viewBox="0 0 29 32">
<path d="M8.394 24.19c0.526 0 0.952 0.426 0.952 0.952s-0.426 0.952-0.952 0.952h-0.013c-0.526 0-0.952-0.426-0.952-0.952s0.426-0.952 0.952-0.952h0.013zM14.483 24.19c0.526 0 0.952 0.426 0.952 0.952s-0.426 0.952-0.952 0.952h-0.013c-0.526 0-0.952-0.426-0.952-0.952s0.426-0.952 0.952-0.952h0.013zM8.394 18.095c0.526 0 0.952 0.426 0.952 0.952s-0.426 0.952-0.952 0.952h-0.013c-0.526 0-0.952-0.426-0.952-0.952s0.426-0.952 0.952-0.952h0.013zM14.483 18.095c0.526 0 0.952 0.426 0.952 0.952s-0.426 0.952-0.952 0.952h-0.013c-0.526 0-0.952-0.426-0.952-0.952s0.426-0.952 0.952-0.952h0.013zM20.571 18.095c0.526 0 0.952 0.426 0.952 0.952s-0.426 0.952-0.952 0.952h-0.013c-0.526 0-0.952-0.426-0.952-0.952s0.426-0.952 0.952-0.952h0.013z"></path>
<path d="M6.857 6.857v-6.095c0-0.421 0.341-0.762 0.762-0.762s0.762 0.341 0.762 0.762v6.095c0 0.421-0.341 0.762-0.762 0.762s-0.762-0.341-0.762-0.762zM20.571 6.857v-6.095c0-0.421 0.341-0.762 0.762-0.762s0.762 0.341 0.762 0.762v6.095c0 0.421-0.341 0.762-0.762 0.762s-0.762-0.341-0.762-0.762z"></path>
<path d="M27.429 6.857c0-1.262-1.023-2.286-2.286-2.286h-21.333c-1.262 0-2.286 1.023-2.286 2.286v21.333c0 1.262 1.023 2.286 2.286 2.286h21.333c1.262 0 2.286-1.023 2.286-2.286v-21.333zM28.952 28.19c0 2.104-1.706 3.81-3.81 3.81h-21.333c-2.104 0-3.81-1.706-3.81-3.81v-21.333c0-2.104 1.706-3.81 3.81-3.81h21.333c2.104 0 3.81 1.706 3.81 3.81v21.333z"></path>
<path d="M28.19 12.19c0.421 0 0.762 0.341 0.762 0.762s-0.341 0.762-0.762 0.762h-27.429c-0.421 0-0.762-0.341-0.762-0.762s0.341-0.762 0.762-0.762h27.429z"></path>
</svg>
