<!-- Generated by IcoMoon.io -->
<svg version="1.1" xmlns="http://www.w3.org/2000/svg" width="32" height="32" viewBox="0 0 32 32">
<path d="M24.8 32h-19.2c-1.323 0-2.4-1.077-2.4-2.4v-16c0-1.323 1.077-2.4 2.4-2.4h6.4c0.442 0 0.8 0.358 0.8 0.8s-0.358 0.8-0.8 0.8h-6.4c-0.441 0-0.8 0.359-0.8 0.8v16c0 0.441 0.359 0.8 0.8 0.8h19.2c0.441 0 0.8-0.359 0.8-0.8v-16c0-0.441-0.359-0.8-0.8-0.8h-6.4c-0.442 0-0.8-0.358-0.8-0.8s0.358-0.8 0.8-0.8h6.4c1.323 0 2.4 1.077 2.4 2.4v16c0 1.323-1.077 2.4-2.4 2.4zM20.566 5.834l-4.8-4.8c-0.312-0.312-0.819-0.312-1.131 0l-4.8 4.8c-0.312 0.312-0.312 0.819 0 1.131s0.819 0.312 1.131 0l3.434-3.434v18.069c0 0.442 0.358 0.8 0.8 0.8s0.8-0.358 0.8-0.8v-18.069l3.434 3.434c0.156 0.156 0.361 0.234 0.566 0.234s0.409-0.078 0.566-0.234c0.313-0.312 0.313-0.819 0-1.131z"></path>
</svg>
