<!-- Generated by IcoMoon.io -->
<svg version="1.1" xmlns="http://www.w3.org/2000/svg" width="32" height="32" viewBox="0 0 32 32">
<path d="M18.4 12.8c0.442 0 0.8-0.358 0.8-0.8v-6.4c0-1.323-1.077-2.4-2.4-2.4h-14.4c-1.323 0-2.4 1.077-2.4 2.4v19.2c0 1.193 0.859 2.496 1.956 2.966l8.259 3.539c0.285 0.122 0.574 0.183 0.851 0.183 0.341-0 0.665-0.092 0.943-0.275 0.503-0.332 0.792-0.92 0.792-1.613v-2.4h4c1.323 0 2.4-1.077 2.4-2.4v-6.4c0-0.442-0.358-0.8-0.8-0.8s-0.8 0.358-0.8 0.8v6.4c0 0.441-0.359 0.8-0.8 0.8h-4v-15.2c0-1.193-0.859-2.496-1.956-2.966l-6.147-2.634h12.102c0.441 0 0.8 0.359 0.8 0.8v6.4c0 0.442 0.358 0.8 0.8 0.8zM10.214 8.905c0.516 0.221 0.986 0.934 0.986 1.495v19.2c0 0.167-0.044 0.259-0.072 0.277s-0.13 0.023-0.283-0.043l-8.259-3.539c-0.516-0.221-0.986-0.934-0.986-1.495v-19.2c0-0.126 0.029-0.246 0.082-0.352l8.533 3.657zM29.366 14.634l-4.8-4.8c-0.312-0.312-0.819-0.312-1.131 0s-0.312 0.819 0 1.131l3.434 3.434h-10.069c-0.442 0-0.8 0.358-0.8 0.8s0.358 0.8 0.8 0.8h10.069l-3.434 3.434c-0.312 0.312-0.312 0.819 0 1.131 0.156 0.156 0.361 0.234 0.566 0.234s0.409-0.078 0.566-0.234l4.8-4.8c0.312-0.312 0.312-0.819 0-1.131z"></path>
</svg>
