<!-- Generated by IcoMoon.io -->
<svg version="1.1" xmlns="http://www.w3.org/2000/svg" width="32" height="32" viewBox="0 0 32 32">
<path d="M31.795 16.265c-0.076-0.084-1.891-2.088-4.73-4.116-1.675-1.196-3.359-2.151-5.007-2.838-2.089-0.87-4.127-1.312-6.058-1.312s-3.969 0.441-6.058 1.312c-1.648 0.687-3.333 1.641-5.007 2.838-2.838 2.027-4.654 4.031-4.73 4.116-0.274 0.304-0.274 0.766 0 1.070 0.076 0.084 1.891 2.088 4.73 4.116 1.675 1.196 3.359 2.151 5.007 2.837 2.089 0.87 4.127 1.311 6.058 1.311s3.969-0.441 6.058-1.311c1.648-0.687 3.333-1.641 5.007-2.837 2.839-2.027 4.654-4.032 4.73-4.116 0.274-0.304 0.274-0.766 0-1.070zM20.118 10.301c1.452 1.221 2.282 2.998 2.282 4.899 0 3.529-2.871 6.4-6.4 6.4s-6.4-2.871-6.4-6.4c0-1.901 0.83-3.678 2.282-4.899 1.316-0.43 2.706-0.701 4.118-0.701s2.803 0.272 4.118 0.701zM26.107 20.169c-2.453 1.748-6.197 3.831-10.107 3.831s-7.654-2.083-10.107-3.831c-1.851-1.319-3.268-2.653-3.983-3.369 0.715-0.716 2.132-2.050 3.983-3.369 0.848-0.604 1.85-1.248 2.96-1.833-0.555 1.101-0.853 2.329-0.853 3.602 0 4.411 3.589 8 8 8s8-3.589 8-8c0-1.273-0.298-2.501-0.853-3.602 1.11 0.584 2.112 1.229 2.96 1.833 1.851 1.319 3.268 2.653 3.983 3.369-0.715 0.716-2.132 2.050-3.983 3.369z"></path>
</svg>
