<!-- Generated by IcoMoon.io -->
<svg version="1.1" xmlns="http://www.w3.org/2000/svg" width="32" height="32" viewBox="0 0 32 32">
<path d="M31.45 15.705c-0.065-0.082-1.615-2.027-4.273-3.98-3.552-2.61-7.417-3.989-11.177-3.989s-7.625 1.379-11.177 3.989c-2.658 1.953-4.209 3.898-4.273 3.98l-0.55 0.695 0.55 0.695c0.065 0.082 1.615 2.027 4.273 3.98 3.552 2.61 7.417 3.989 11.177 3.989s7.625-1.379 11.177-3.989c2.658-1.953 4.209-3.898 4.273-3.98l0.55-0.695-0.55-0.695zM16 22.47c-3.347 0-6.070-2.723-6.070-6.070 0-0.524 0.067-1.033 0.192-1.519l-1.386-0.233c-0.136 0.562-0.208 1.149-0.208 1.752 0 2.162 0.923 4.112 2.396 5.477-1.896-0.7-3.508-1.683-4.724-2.572-1.507-1.101-2.637-2.214-3.281-2.906 0.644-0.692 1.774-1.805 3.281-2.906 1.217-0.889 2.829-1.871 4.724-2.572l0.93 1.048c1.086-1.017 2.544-1.64 4.145-1.64 3.347 0 6.069 2.723 6.069 6.070s-2.723 6.070-6.069 6.070zM25.799 19.306c-1.217 0.889-2.829 1.871-4.724 2.572 1.473-1.365 2.396-3.315 2.396-5.477s-0.923-4.112-2.396-5.477c1.896 0.7 3.508 1.683 4.724 2.572 1.507 1.101 2.637 2.214 3.281 2.906-0.644 0.692-1.774 1.805-3.281 2.906zM12.137 15.22c-0.114 0.373-0.176 0.769-0.176 1.18 0 2.23 1.808 4.038 4.038 4.038s4.038-1.808 4.038-4.038-1.808-4.038-4.038-4.038c-1.086 0-2.072 0.43-2.797 1.127l1.992 2.245-3.057-0.514z"></path>
</svg>
