<!-- Generated by IcoMoon.io -->
<svg version="1.1" xmlns="http://www.w3.org/2000/svg" width="32" height="32" viewBox="0 0 32 32">
<path d="M31.481 14.893c-1.796-2.303-4.122-4.207-6.727-5.508-2.659-1.328-5.52-2.017-8.506-2.053-0.082-0.002-0.412-0.002-0.495 0-2.986 0.036-5.847 0.725-8.506 2.053-2.605 1.301-4.931 3.205-6.727 5.508-0.692 0.887-0.692 2.126 0 3.013 1.796 2.303 4.122 4.207 6.727 5.508 2.659 1.328 5.52 2.017 8.506 2.053 0.082 0.002 0.413 0.002 0.495 0 2.986-0.036 5.847-0.725 8.506-2.053 2.605-1.301 4.931-3.205 6.727-5.508 0.692-0.887 0.692-2.126 0-3.013zM7.828 22.25c-2.433-1.215-4.605-2.993-6.282-5.144-0.324-0.416-0.324-0.996 0-1.412 1.677-2.151 3.85-3.929 6.282-5.144 0.691-0.345 1.396-0.643 2.115-0.896-1.849 1.662-3.013 4.070-3.013 6.746s1.165 5.084 3.014 6.746c-0.719-0.253-1.424-0.551-2.115-0.896zM16 24.169c-4.284 0-7.769-3.485-7.769-7.769s3.485-7.769 7.769-7.769 7.769 3.485 7.769 7.769-3.485 7.769-7.769 7.769zM30.455 17.106c-1.677 2.151-3.85 3.929-6.282 5.144-0.69 0.345-1.395 0.641-2.113 0.894 1.847-1.662 3.011-4.069 3.011-6.744 0-2.676-1.165-5.084-3.014-6.746 0.719 0.253 1.425 0.551 2.116 0.896 2.433 1.214 4.605 2.993 6.282 5.144 0.324 0.416 0.324 0.996-0 1.412zM16 13.075c-1.833 0-3.325 1.491-3.325 3.325s1.491 3.325 3.325 3.325 3.325-1.491 3.325-3.325c0-1.833-1.491-3.325-3.325-3.325zM16 18.423c-1.115 0-2.023-0.907-2.023-2.023s0.907-2.023 2.023-2.023c1.115 0 2.023 0.907 2.023 2.023s-0.907 2.023-2.023 2.023z"></path>
</svg>
