<!-- Generated by IcoMoon.io -->
<svg version="1.1" xmlns="http://www.w3.org/2000/svg" width="29" height="32" viewBox="0 0 29 32">
<path d="M10.645 13.514c0.319 0 0.637-0.255 0.637-0.637 0-0.319-0.255-0.637-0.637-0.637-0.319 0-0.637 0.255-0.637 0.637 0.064 0.319 0.319 0.637 0.637 0.637z"></path>
<path d="M14.406 5.418c0.319 0 0.637-0.255 0.637-0.637v-4.143c0-0.319-0.255-0.637-0.637-0.637s-0.637 0.255-0.637 0.637v4.143c0 0.319 0.319 0.637 0.637 0.637z"></path>
<path d="M13.769 27.219v4.143c0 0.319 0.255 0.637 0.637 0.637s0.637-0.255 0.637-0.637v-4.143c0-0.319-0.255-0.637-0.637-0.637s-0.637 0.319-0.637 0.637z"></path>
<path d="M4.781 8.478c0.255 0.255 0.637 0.255 0.892 0s0.255-0.637 0-0.892l-2.677-2.677c-0.255-0.255-0.637-0.255-0.892 0s-0.255 0.637 0 0.892l2.677 2.677z"></path>
<path d="M23.139 24.096c-0.255 0.255-0.255 0.637 0 0.892l2.677 2.677c0.255 0.255 0.637 0.255 0.892 0s0.255-0.637 0-0.892l-2.677-2.677c-0.255-0.191-0.637-0.191-0.892 0z"></path>
<path d="M24.032 8.478l2.677-2.677c0.255-0.255 0.255-0.637 0-0.892s-0.637-0.255-0.892 0l-2.677 2.677c-0.255 0.255-0.255 0.637 0 0.892s0.637 0.255 0.892 0z"></path>
<path d="M4.781 24.096l-2.677 2.677c-0.255 0.255-0.255 0.637 0 0.892s0.637 0.255 0.892 0l2.677-2.677c0.255-0.255 0.255-0.637 0-0.892-0.255-0.191-0.637-0.191-0.892 0z"></path>
<path d="M4.016 20.526c3.251 2.741 6.821 4.207 10.39 4.207 3.506 0 7.139-1.466 10.39-4.207 2.422-2.040 3.825-4.080 3.888-4.207 0.128-0.191 0.128-0.51 0-0.701-0.064-0.064-1.466-2.104-3.888-4.207-3.251-2.741-6.821-4.207-10.39-4.207-3.506 0-7.139 1.466-10.39 4.207-2.422 2.040-3.825 4.080-3.888 4.207-0.128 0.191-0.128 0.51 0 0.701 0.128 0.128 1.466 2.167 3.888 4.207zM4.845 12.43c2.104-1.785 5.482-3.888 9.562-3.888s7.458 2.104 9.562 3.888c1.721 1.466 2.932 2.932 3.442 3.57-0.51 0.637-1.657 2.104-3.378 3.57-2.104 1.785-5.482 3.888-9.562 3.888s-7.458-2.104-9.562-3.888c-1.721-1.466-2.932-2.932-3.442-3.57 0.446-0.637 1.657-2.104 3.379-3.57z"></path>
<path d="M14.406 21.61c3.123 0 5.61-2.55 5.61-5.61 0-3.123-2.486-5.61-5.61-5.61-0.637 0-1.339 0.127-2.040 0.382-0.319 0.127-0.51 0.51-0.382 0.829s0.446 0.51 0.892 0.319 1.020-0.255 1.466-0.255c2.422 0 4.335 1.976 4.335 4.335 0 2.422-1.976 4.335-4.335 4.335-2.422 0-4.335-1.976-4.335-4.335 0-0.319 0-0.51 0.064-0.765 0.064-0.319-0.127-0.637-0.51-0.701-0.319-0.064-0.637 0.191-0.701 0.51s-0.064 0.701-0.064 1.020c0 3.060 2.486 5.546 5.61 5.546z"></path>
<path d="M16.892 16c0-1.402-1.147-2.486-2.486-2.486s-2.486 1.147-2.486 2.486 1.147 2.486 2.486 2.486c1.275 0 2.486-1.084 2.486-2.486zM13.131 16c0-0.701 0.574-1.275 1.275-1.275s1.275 0.574 1.275 1.275-0.574 1.275-1.275 1.275-1.275-0.574-1.275-1.275z"></path>
</svg>
