<!-- Generated by IcoMoon.io -->
<svg version="1.1" xmlns="http://www.w3.org/2000/svg" width="32" height="32" viewBox="0 0 32 32">
<path d="M4.688 32h10.438v-11.375h-3.75v-3.75h3.75v-4.688c0-2.585 2.103-4.688 4.688-4.688h4.688v3.75h-3.75c-1.034 0-1.875 0.841-1.875 1.875v3.75h5.456l-0.625 3.75h-4.831v11.375h8.438c2.585 0 4.688-2.103 4.688-4.688v-22.625c0-2.585-2.103-4.688-4.688-4.688h-22.625c-2.585 0-4.688 2.103-4.688 4.688v22.625c0 2.585 2.103 4.688 4.688 4.688zM1.875 4.688c0-1.551 1.262-2.813 2.813-2.813h22.625c1.551 0 2.813 1.262 2.813 2.813v22.625c0 1.551-1.262 2.813-2.813 2.813h-6.563v-7.625h4.544l1.25-7.5h-5.794v-1.875h5.625v-7.5h-6.563c-3.619 0-6.563 2.944-6.563 6.563v2.813h-3.75v7.5h3.75v7.625h-8.563c-1.551 0-2.813-1.262-2.813-2.813z"></path>
</svg>
