<!-- Generated by IcoMoon.io -->
<svg version="1.1" xmlns="http://www.w3.org/2000/svg" width="30" height="32" viewBox="0 0 30 32">
<path d="M18.076 25.613c-0.703 0.064-0.703 0.064-0.703 0.703 0 1.277 0 2.555 0 3.832 0 0.958-0.703 1.725-1.661 1.725-0.766 0.064-1.533 0.064-2.299 0-0.958-0.064-1.661-0.83-1.661-1.725 0-1.341 0-2.683 0-4.024 0-0.319-0.064-0.511-0.447-0.511-0.064 0-0.128 0-0.255-0.064 0 0.639 0 1.277 0 1.852 0 0.894 0 1.788 0 2.619s-0.639 1.597-1.469 1.788c-0.575 0.128-1.214 0.064-1.852 0-0.319 0-0.575-0.383-0.894-0.383-0.255 0-0.511 0.319-0.894 0.383-0.639 0.064-1.277 0.128-1.852 0-0.83-0.192-1.405-0.894-1.405-1.788 0-2.555 0-5.046 0-7.601 0-0.128 0-0.256 0-0.383-0.256 0-0.511 0.064-0.703 0.064-1.086 0-2.044-0.894-2.044-2.044 0-3.002-0.064-6.004 0-8.942 0-1.98 1.725-3.577 3.768-3.577 2.108-0.064 4.216 0 6.323 0 0.703 0 1.405 0.192 1.98 0.575 0.255 0.128 0.447 0.319 0.447 0.639 0 0.255-0.064 0.511-0.319 0.639s-0.511 0.192-0.766 0c-0.575-0.383-1.15-0.511-1.788-0.511-1.916 0-3.896 0-5.812 0-1.341 0-2.299 0.766-2.491 2.044 0 0.128 0 0.192 0 0.319 0 2.874 0 5.812 0 8.687 0 0.383 0.256 0.703 0.575 0.703 0.319 0.064 0.639-0.128 0.766-0.447 0.064-0.128 0-0.256 0-0.383 0-2.236 0-4.471 0-6.643 0-0.255 0.064-0.511 0.319-0.703 0.256-0.128 0.447-0.192 0.703-0.064s0.383 0.383 0.383 0.703c0 2.747 0 5.493 0 8.24 0 2.81 0 5.621 0 8.431 0 0.511 0.128 0.639 0.639 0.639 0.255 0 0.511 0 0.83 0 0.511 0 0.639-0.128 0.639-0.639 0-2.81 0-5.621 0-8.495 0-0.192 0-0.319 0.064-0.511 0.192-0.256 0.447-0.383 0.766-0.319s0.511 0.256 0.575 0.575c0 0.128 0 0.192 0 0.319 0 2.81 0 5.621 0 8.431 0 0.511 0.128 0.639 0.639 0.639 0.255 0 0.511 0 0.83 0 0.511 0 0.639-0.128 0.639-0.639 0-3.641 0-7.345 0-10.986 0-1.725 1.15-2.938 2.938-2.938 1.277 0 2.619 0 3.896 0 1.725 0 2.938 1.214 2.938 2.938 0 1.214 0 2.491 0 3.705 0 0.256 0.064 0.319 0.319 0.319 2.236 0 4.471 0 6.707 0 0.319 0 0.319-0.128 0.192-0.319-0.958-2.747-1.852-5.557-2.747-8.303-0.064-0.192-0.128-0.319-0.064-0.511 0.064-0.319 0.319-0.575 0.639-0.575s0.575 0.192 0.703 0.511c0.575 1.788 1.214 3.641 1.788 5.429 0.064 0.192 0.128 0.383 0.192 0.575 0.128 0.319 0.447 0.511 0.766 0.447s0.447-0.319 0.383-0.639c0-0.128-0.064-0.256-0.064-0.383-0.894-2.747-1.788-5.557-2.683-8.303-0.128-0.383-0.319-0.703-0.511-1.022-0.383-0.447-0.83-0.703-1.405-0.703-1.405 0-2.81 0-4.216 0-0.511 0-0.894 0.192-1.277 0.511-0.319 0.319-0.766 0.319-1.022 0.064-0.319-0.319-0.319-0.703 0-1.022 0.639-0.639 1.405-0.958 2.363-0.958 1.341 0 2.747 0 4.088 0 1.533 0 2.747 0.894 3.194 2.363 0.958 2.938 1.916 5.876 2.874 8.814 0.383 1.15-0.128 2.236-1.15 2.555 0 0-0.064 0-0.064 0-0.192 0.064-0.511-0.064-0.575 0.192-0.064 0.192 0.128 0.383 0.192 0.639 0.064 0.319 0.192 0.575 0.064 0.894-0.128 0.703-0.639 1.15-1.341 1.15-0.447 0-0.958 0-1.405 0-0.319 0-0.383 0.064-0.383 0.383 0 1.725 0 3.449 0 5.11 0 0.83-0.383 1.469-1.086 1.852s-1.469 0.383-2.108-0.064c-0.192-0.128-0.319-0.128-0.511 0-0.703 0.447-1.405 0.511-2.108 0.064-0.703-0.383-1.086-1.022-1.086-1.852 0-1.277 0-2.555 0-3.832 0 0 0-0.128 0-0.256zM13.222 27.593c0 0.83 0 1.661 0 2.491 0 0.383 0.128 0.447 0.447 0.511 0.575 0 1.15 0 1.788 0 0.447 0 0.511-0.064 0.511-0.575 0-1.661 0-3.258 0-4.918 0-0.511 0.255-0.766 0.766-0.83 0.192 0 0.383 0 0.575 0 0.511 0 0.766-0.256 0.766-0.766 0-1.597 0-3.194 0-4.79 0-0.766-0.575-1.341-1.277-1.405-1.469 0-2.938 0-4.343 0-0.703 0-1.277 0.639-1.277 1.341 0 1.597 0 3.258 0 4.854 0 0.447 0.255 0.703 0.703 0.703 0.192 0 0.447 0 0.639 0 0.511 0 0.766 0.256 0.766 0.83-0.064 0.894-0.064 1.725-0.064 2.555zM19.481 27.21c0 0.83 0 1.661 0 2.555 0 0.511 0.256 0.83 0.703 0.83s0.703-0.319 0.703-0.83c0-1.469 0-2.874 0-4.343 0-0.383 0.128-0.83-0.064-1.022s-0.703-0.064-1.022-0.064c-0.256 0-0.319 0.064-0.256 0.256-0.064 0.894-0.064 1.725-0.064 2.619zM23.633 27.273c0-0.639 0-1.214 0-1.852 0-0.383 0.128-0.83-0.064-1.022s-0.703-0.064-1.022-0.064c-0.256 0-0.256 0.064-0.256 0.256 0 1.725 0 3.449 0 5.174 0 0.511 0.256 0.766 0.703 0.766s0.703-0.319 0.703-0.766c-0.064-0.83-0.064-1.661-0.064-2.491z"></path>
<path d="M3.513 3.513c0-1.916 1.533-3.449 3.449-3.449s3.513 1.597 3.449 3.513c0 1.916-1.597 3.449-3.513 3.449-1.852-0.064-3.385-1.661-3.385-3.513zM9.070 3.513c0-1.15-0.894-2.108-2.044-2.108s-2.108 0.894-2.108 2.044c0 1.15 0.894 2.108 2.044 2.108s2.044-0.894 2.108-2.044z"></path>
<path d="M18.076 3.449c0-1.916 1.597-3.449 3.513-3.449s3.449 1.597 3.449 3.513c0 1.852-1.597 3.449-3.449 3.449-1.98 0-3.513-1.597-3.513-3.513zM23.633 3.513c0-1.15-0.894-2.044-2.044-2.108-1.15 0-2.108 0.894-2.108 2.108 0 1.15 0.894 2.044 2.044 2.108 1.15-0.064 2.108-0.958 2.108-2.108z"></path>
<path d="M17.373 12.519c0 1.533-1.277 2.81-2.81 2.746-1.533 0-2.747-1.277-2.747-2.81s1.277-2.747 2.747-2.747c1.533 0 2.81 1.277 2.81 2.81zM13.222 12.519c0 0.766 0.639 1.405 1.405 1.405s1.405-0.639 1.405-1.405c0-0.766-0.639-1.405-1.405-1.405-0.83 0-1.405 0.639-1.405 1.405z"></path>
</svg>
