<!-- Generated by IcoMoon.io -->
<svg version="1.1" xmlns="http://www.w3.org/2000/svg" width="29" height="32" viewBox="0 0 29 32">
<path d="M4.48 26.938c-0.815 0-1.513-0.291-2.036-0.756-0.698-0.64-0.989-1.629-0.873-2.676l0.582-5.004c0.116-0.815 0.64-1.978 1.222-2.56l12.684-13.498c0 0 0 0 0 0 2.967-3.142 5.935-3.2 9.018-0.291 1.745 1.629 2.502 3.258 2.385 4.945-0.116 1.338-0.815 2.676-2.153 4.131l-12.684 13.44c-0.524 0.582-1.629 1.164-2.502 1.338l-5.004 0.873c-0.175 0-0.407 0.058-0.64 0.058zM16.931 3.2l-12.742 13.498c-0.407 0.407-0.815 1.28-0.873 1.92l-0.582 5.004c-0.058 0.698 0.116 1.28 0.524 1.687s0.989 0.524 1.687 0.407l5.004-0.873c0.582-0.116 1.455-0.582 1.804-0.989l12.742-13.498c1.164-1.222 1.745-2.327 1.862-3.433 0.116-1.28-0.582-2.618-2.036-4.015-2.676-2.444-4.887-2.327-7.389 0.291v0z"></path>
<path d="M22.807 13.615c0 0-0.058 0-0.058 0-4.596-0.465-8.262-3.956-8.96-8.495-0.058-0.291 0.175-0.64 0.465-0.64 0.291-0.058 0.64 0.175 0.64 0.465 0.64 4.015 3.898 7.098 7.913 7.505 0.291 0.058 0.582 0.291 0.524 0.64 0.058 0.349-0.233 0.524-0.524 0.524z"></path>
<path d="M28.509 31.942h-27.927c-0.349 0-0.582-0.233-0.582-0.582s0.233-0.582 0.582-0.582h27.927c0.349 0 0.582 0.233 0.582 0.582s-0.233 0.582-0.582 0.582z"></path>
</svg>
