<!-- Generated by IcoMoon.io -->
<svg version="1.1" xmlns="http://www.w3.org/2000/svg" width="32" height="32" viewBox="0 0 32 32">
<path d="M29.85 8.403c-2.136-3.7-5.585-6.346-9.711-7.452s-8.436-0.538-12.136 1.598c-3.7 2.136-6.346 5.585-7.452 9.711s-0.538 8.436 1.598 12.136 5.585 6.346 9.711 7.452c1.378 0.369 2.776 0.552 4.165 0.552 2.771-0 5.506-0.727 7.971-2.15 3.7-2.136 6.346-5.585 7.451-9.711s0.538-8.436-1.598-12.136zM29.839 20.108c-0.991 3.697-3.361 6.786-6.676 8.7s-7.175 2.422-10.872 1.431c-3.697-0.991-6.786-3.361-8.7-6.676s-2.422-7.175-1.431-10.872c0.991-3.697 3.361-6.786 6.676-8.7s7.176-2.422 10.872-1.431c3.697 0.991 6.786 3.361 8.7 6.676s2.422 7.175 1.431 10.872zM26.599 15.091l-7.668-4.427c-0.473-0.273-1.038-0.273-1.511 0s-0.756 0.762-0.756 1.309v3.3c-0.077-0.068-0.161-0.129-0.253-0.182l-7.668-4.427c-0.473-0.273-1.038-0.273-1.511 0s-0.756 0.762-0.756 1.309v8.854c0 0.546 0.283 1.036 0.756 1.309 0.237 0.137 0.496 0.205 0.756 0.205s0.519-0.068 0.756-0.205l7.668-4.427c0.092-0.053 0.176-0.114 0.253-0.182v3.3c0 0.546 0.283 1.036 0.756 1.309 0.237 0.137 0.496 0.205 0.756 0.205s0.519-0.068 0.756-0.205l7.668-4.427c0.473-0.273 0.756-0.762 0.756-1.309s-0.282-1.036-0.756-1.309zM8.143 20.56v-8.32l7.205 4.16-7.205 4.16zM18.33 20.56v-8.32l7.205 4.16-7.205 4.16z"></path>
</svg>
