<!-- Generated by IcoMoon.io -->
<svg version="1.1" xmlns="http://www.w3.org/2000/svg" width="32" height="32" viewBox="0 0 32 32">
<path d="M29.513 13.007c0.579-0.565 0.784-1.394 0.534-2.163s-0.903-1.32-1.704-1.436l-7.002-1.017c-0.137-0.020-0.256-0.106-0.318-0.231l-3.131-6.345c-0.358-0.726-1.083-1.176-1.892-1.176s-1.534 0.451-1.892 1.176l-3.131 6.345c-0.062 0.125-0.18 0.211-0.318 0.231l-7.002 1.017c-0.801 0.116-1.453 0.667-1.704 1.436s-0.046 1.598 0.534 2.163l5.067 4.939c0.099 0.097 0.145 0.237 0.121 0.374l-1.196 6.973c-0.137 0.798 0.185 1.588 0.84 2.064s1.506 0.537 2.223 0.161l6.263-3.292c0.123-0.065 0.27-0.065 0.393 0l6.263 3.292c0.311 0.164 0.649 0.245 0.984 0.245 0.436 0 0.869-0.137 1.238-0.405 0.655-0.476 0.976-1.267 0.84-2.064l-1.196-6.973c-0.023-0.137 0.022-0.277 0.121-0.374l5.067-4.939zM22.661 18.605l1.196 6.974c0.040 0.233-0.104 0.366-0.168 0.413s-0.235 0.142-0.445 0.032l-6.263-3.292c-0.307-0.162-0.645-0.242-0.982-0.242s-0.675 0.081-0.982 0.242l-6.263 3.292c-0.21 0.11-0.381 0.014-0.444-0.032s-0.208-0.179-0.168-0.413l1.196-6.973c0.117-0.685-0.109-1.383-0.607-1.868l-5.067-4.939c-0.17-0.165-0.131-0.358-0.107-0.433s0.106-0.253 0.341-0.287l7.002-1.017c0.687-0.1 1.281-0.531 1.589-1.154l3.131-6.345c0.105-0.212 0.3-0.235 0.379-0.235s0.274 0.023 0.378 0.235v0l3.131 6.345c0.307 0.623 0.901 1.055 1.589 1.154l7.002 1.017c0.234 0.034 0.316 0.212 0.341 0.287s0.063 0.267-0.107 0.433l-5.067 4.939c-0.497 0.485-0.724 1.183-0.607 1.868zM25.861 1.814c-0.377-0.274-0.905-0.19-1.179 0.187l-0.896 1.233c-0.274 0.377-0.19 0.905 0.187 1.179 0.15 0.109 0.323 0.161 0.495 0.161 0.261 0 0.518-0.121 0.684-0.348l0.896-1.233c0.274-0.377 0.19-0.905-0.187-1.179zM8.21 3.229l-0.896-1.233c-0.274-0.377-0.802-0.461-1.179-0.187s-0.461 0.802-0.187 1.179l0.896 1.233c0.165 0.227 0.423 0.348 0.684 0.348 0.172 0 0.346-0.052 0.495-0.161 0.377-0.274 0.461-0.802 0.187-1.179zM3.097 19.577c-0.144-0.443-0.62-0.686-1.064-0.542l-1.45 0.471c-0.443 0.144-0.686 0.62-0.542 1.064 0.116 0.357 0.447 0.584 0.803 0.584 0.086 0 0.174-0.013 0.261-0.042l1.45-0.471c0.443-0.144 0.686-0.62 0.542-1.064zM16 28.949c-0.466 0-0.844 0.378-0.844 0.844v1.524c0 0.466 0.378 0.844 0.844 0.844s0.844-0.378 0.844-0.844v-1.524c0-0.466-0.378-0.844-0.844-0.844zM31.416 19.507l-1.45-0.471c-0.443-0.144-0.92 0.099-1.064 0.542s0.099 0.92 0.542 1.064l1.45 0.471c0.087 0.028 0.175 0.041 0.261 0.041 0.356 0 0.687-0.227 0.803-0.584 0.144-0.443-0.099-0.92-0.542-1.064z"></path>
</svg>
