<!-- Generated by IcoMoon.io -->
<svg version="1.1" xmlns="http://www.w3.org/2000/svg" width="34" height="32" viewBox="0 0 34 32">
<path d="M12.467 29.934c-1.885-1.305-3.769-3.008-5.617-5.037s-3.443-4.421-4.82-7.212c-1.377-2.79-2.029-5.436-2.029-7.973 0-2.573 0.906-4.856 2.754-6.813 1.848-1.921 3.986-2.899 6.415-2.899 3.008 0 5.617 1.558 7.864 4.639 2.174-3.080 4.82-4.639 7.828-4.639 2.428 0 4.566 0.978 6.415 2.935s2.754 4.24 2.754 6.813c0 2.537-0.689 5.182-2.029 7.973-1.377 2.791-2.972 5.182-4.82 7.212-1.884 1.993-3.769 3.697-5.653 5.001-1.921 1.341-3.407 2.029-4.53 2.029h-0.036c-1.087 0-2.609-0.689-4.494-2.029zM4.53 4.711c-1.341 1.413-1.993 3.117-1.993 5.037 0 1.812 0.399 3.733 1.232 5.762 0.834 1.993 1.885 3.805 3.117 5.4s2.537 3.044 3.914 4.349c1.377 1.305 2.609 2.356 3.733 3.080s1.957 1.087 2.464 1.123c0.544-0.036 1.341-0.399 2.464-1.123s2.356-1.74 3.733-3.080c1.377-1.305 2.646-2.791 3.914-4.349 1.232-1.595 2.283-3.37 3.117-5.4 0.834-1.993 1.232-3.914 1.232-5.762 0-1.921-0.652-3.624-1.993-5.037-1.305-1.45-2.863-2.174-4.639-2.174-0.797 0-1.558 0.181-2.319 0.507s-1.377 0.761-1.884 1.232c-0.507 0.507-0.942 0.978-1.341 1.486s-0.652 0.906-0.87 1.232c-0.181 0.326-0.29 0.507-0.29 0.544-0.217 0.471-0.616 0.725-1.196 0.725s-0.978-0.254-1.16-0.725l-0.036-0.072c-0.145-0.326-0.362-0.652-0.652-1.051-0.254-0.399-0.689-0.906-1.232-1.595-0.58-0.689-1.268-1.232-2.138-1.667-0.725-0.399-1.631-0.616-2.537-0.616-1.776 0-3.334 0.725-4.639 2.174z"></path>
</svg>
