<!-- Generated by IcoMoon.io -->
<svg version="1.1" xmlns="http://www.w3.org/2000/svg" width="32" height="32" viewBox="0 0 32 32">
<path d="M22.63 10.651h-13.261c-0.414 0-0.749 0.335-0.749 0.749s0.335 0.749 0.749 0.749h13.261c0.414 0 0.749-0.335 0.749-0.749s-0.335-0.749-0.749-0.749zM22.63 15.172h-13.261c-0.414 0-0.749 0.335-0.749 0.749s0.335 0.749 0.749 0.749h13.261c0.414 0 0.749-0.335 0.749-0.749s-0.335-0.749-0.749-0.749zM27.996 6.865c-0.005-0.188-0.080-0.372-0.218-0.51l-5.731-5.731c-0.136-0.138-0.325-0.225-0.534-0.225h-15.933c-0.87 0-1.578 0.708-1.578 1.578l0 18.71c0 0.007 0.001 0.013 0.001 0.020 0.010 0.379 0.206 0.723 0.53 0.924l2.584 1.604c0.853 0.529 1.913 0.529 2.766-0l1.774-1.101c0.366-0.227 0.82-0.227 1.185-0l1.774 1.101c0.427 0.265 0.905 0.397 1.383 0.397s0.956-0.132 1.383-0.397l1.774-1.101c0.366-0.227 0.82-0.227 1.185 0l1.774 1.101c0.853 0.529 1.913 0.529 2.766 0l2.585-1.604c0.324-0.201 0.52-0.545 0.53-0.924 0-0.006 0.001-0.013 0.001-0.020l0-13.803c0-0.007-0.001-0.013-0.002-0.020zM22.262 2.958h0l3.177 3.177h-3.098c-0.043 0-0.079-0.035-0.079-0.079v-3.098zM26.499 20.468l-2.407 1.494c-0.366 0.227-0.82 0.227-1.185 0l-1.774-1.101c-0.853-0.529-1.913-0.529-2.766 0l-1.774 1.101c-0.366 0.227-0.82 0.227-1.185 0l-1.774-1.101c-0.853-0.529-1.913-0.529-2.766 0l-1.774 1.101c-0.366 0.227-0.82 0.227-1.185 0l-2.408-1.494-0-18.489c0-0.044 0.036-0.079 0.079-0.079h15.183v4.158c0 0.87 0.708 1.577 1.577 1.577h4.158l-0 12.833zM27.997 25.147c0-0.002-0-0.004-0-0.006s0-0.004 0-0.006c0-0.408-0.221-0.784-0.578-0.982s-0.793-0.188-1.139 0.027l-2.215 1.375c-0.35 0.217-0.785 0.217-1.134 0l-1.825-1.133c-0.837-0.52-1.878-0.52-2.715 0l-1.825 1.133c-0.35 0.217-0.785 0.217-1.134 0l-1.825-1.133c-0.837-0.52-1.878-0.52-2.715 0l-1.825 1.133c-0.35 0.217-0.785 0.217-1.134 0l-2.215-1.375c-0.346-0.215-0.783-0.226-1.139-0.027s-0.578 0.575-0.578 0.982c0 0.002 0 0.004 0 0.006s-0 0.004-0 0.006l-0 5.675c0 0.87 0.708 1.578 1.578 1.578h20.84c0.87 0 1.578-0.708 1.578-1.578l-0-5.675zM26.42 30.901h-20.84c-0.044 0-0.079-0.036-0.079-0.079l0-5.013 1.643 1.020c0.837 0.52 1.878 0.52 2.715-0l1.825-1.133c0.35-0.217 0.784-0.217 1.134 0l1.825 1.133c0.419 0.26 0.888 0.39 1.357 0.39s0.939-0.13 1.357-0.39l1.825-1.133c0.35-0.217 0.784-0.217 1.134 0l1.825 1.133c0.837 0.52 1.878 0.52 2.715 0l1.643-1.020 0 5.013c0 0.044-0.035 0.079-0.079 0.079z"></path>
</svg>
