<!-- Generated by IcoMoon.io -->
<svg version="1.1" xmlns="http://www.w3.org/2000/svg" width="32" height="32" viewBox="0 0 32 32">
<path d="M26.442 0.4h-17.081c-1.131 0-2.052 0.92-2.052 2.052v1.752h-2.34c-0.807 0-1.464 0.657-1.464 1.464v25.267c0 0.807 0.657 1.464 1.464 1.464h18.255c0.807 0 1.464-0.657 1.464-1.464v-2.34h1.753c1.131 0 2.052-0.92 2.052-2.052v-24.092c0-1.131-0.92-2.052-2.052-2.052zM23.212 30.922h-18.228v-25.241h11.765v4.792c0 0.922 0.75 1.672 1.672 1.672h4.792v18.777zM18.226 6.727l3.941 3.941h-3.747c-0.107 0-0.195-0.087-0.195-0.194v-3.747zM26.442 27.118h-1.753v-15.711c0-0.006-0.001-0.011-0.001-0.017-0.004-0.186-0.078-0.368-0.215-0.505l-6.464-6.464c-0-0-0.001-0-0.001-0.001-0.134-0.133-0.318-0.215-0.521-0.215h-8.7v-1.752c0-0.317 0.258-0.574 0.574-0.574h17.081c0.317 0 0.574 0.257 0.574 0.574v24.092h0c0 0.317-0.257 0.574-0.574 0.574z"></path>
</svg>
