<!-- Generated by IcoMoon.io -->
<svg version="1.1" xmlns="http://www.w3.org/2000/svg" width="32" height="32" viewBox="0 0 32 32">
<path d="M27.996 8.507c-0.006-0.187-0.080-0.37-0.218-0.508l-7.379-7.379c-0-0-0.001-0-0.001-0.001-0.136-0.135-0.323-0.219-0.529-0.219h-14.289c-0.87 0-1.577 0.707-1.577 1.577v28.845c0 0.87 0.707 1.577 1.577 1.577h20.84c0.87 0 1.577-0.707 1.577-1.577v-22.294c0-0.007-0.001-0.014-0.001-0.022zM20.618 2.958l4.821 4.821h-4.505c-0.174 0-0.316-0.142-0.316-0.316v-4.505zM26.499 30.823c-0 0.043-0.035 0.079-0.079 0.079h-20.84c-0.043 0-0.079-0.035-0.079-0.079v-28.845c0-0.043 0.035-0.079 0.079-0.079h13.54v5.564c0 1.001 0.814 1.815 1.815 1.815h5.564v21.545z"></path>
</svg>
