<!-- Generated by IcoMoon.io -->
<svg version="1.1" xmlns="http://www.w3.org/2000/svg" width="32" height="32" viewBox="0 0 32 32">
<path d="M30.010 3.263h-28.020c-1.097 0-1.99 0.893-1.99 1.99v2.342c0 1.097 0.893 1.99 1.99 1.99h0.932l10.285 10.285v9.004c0 0.268 0.162 0.51 0.409 0.613 0.082 0.034 0.168 0.050 0.254 0.050 0.173 0 0.342-0.067 0.469-0.194l4.285-4.285c0.124-0.124 0.194-0.293 0.194-0.469v-4.719l10.285-10.285h0.907c1.097 0 1.99-0.893 1.99-1.99v-2.342c-0-1.097-0.893-1.99-1.99-1.99zM17.686 19.126c-0.131 0.131-0.195 0.303-0.194 0.475v4.713l-2.958 2.958v-7.675c0-0.17-0.064-0.341-0.194-0.471l-9.541-9.541h22.429l-9.541 9.541zM30.673 7.595c0 0.366-0.298 0.663-0.663 0.663h-28.020c-0.366 0-0.663-0.298-0.663-0.663v-2.342c0-0.366 0.298-0.663 0.663-0.663h28.020c0.366 0 0.663 0.298 0.663 0.663v2.342z"></path>
</svg>
