<!-- Generated by IcoMoon.io -->
<svg version="1.1" xmlns="http://www.w3.org/2000/svg" width="32" height="32" viewBox="0 0 32 32">
<path d="M15.184 15.68c0-0.287-0.233-0.521-0.521-0.521s-0.521 0.233-0.521 0.521c0 1.402 1.012 2.571 2.344 2.816v0.614c0 0.288 0.233 0.521 0.521 0.521s0.521-0.233 0.521-0.521v-0.614c1.332-0.246 2.344-1.415 2.344-2.816s-1.012-2.571-2.344-2.816v-3.619c0.753 0.225 1.303 0.923 1.303 1.747 0 0.287 0.233 0.521 0.521 0.521s0.521-0.233 0.521-0.521c0-1.402-1.012-2.571-2.344-2.816v-0.614c0-0.287-0.233-0.521-0.521-0.521s-0.521 0.233-0.521 0.521v0.614c-1.332 0.246-2.344 1.415-2.344 2.816s1.012 2.571 2.344 2.816v3.619c-0.753-0.225-1.303-0.923-1.303-1.747zM17.528 13.933c0.753 0.225 1.303 0.923 1.303 1.747s-0.55 1.523-1.303 1.747v-3.495zM15.184 10.992c0-0.825 0.55-1.523 1.303-1.747v3.495c-0.753-0.225-1.303-0.923-1.303-1.747zM23.416 28.277c0.145-0.149 0.194-0.374 0.112-0.567-0.027-0.063-0.064-0.12-0.112-0.169-0.323-0.314-0.89-0.091-0.889 0.369 0.001 0.458 0.564 0.684 0.889 0.368zM25.787 0.4h-17.56c-1.398 0-2.536 1.138-2.536 2.536v24.972c0 0 0 0.001 0 0.001 0 0.677 0.264 1.313 0.743 1.794 0.479 0.479 1.116 0.742 1.793 0.742h0.97v1.434c0 0.197 0.111 0.377 0.288 0.466s0.388 0.069 0.545-0.049l1.354-1.015 1.354 1.015c0.092 0.069 0.202 0.104 0.312 0.104 0.079 0 0.159-0.018 0.233-0.055 0.176-0.088 0.288-0.268 0.288-0.466v-1.434h12.217c0.288 0 0.521-0.233 0.521-0.521v-29.004c0-0.287-0.233-0.521-0.521-0.521zM6.733 2.936c0-0.641 0.406-1.187 0.974-1.399v23.891c-0.358 0.075-0.689 0.226-0.974 0.435v-22.926zM12.529 30.838l-0.833-0.625c-0.185-0.139-0.44-0.139-0.625 0l-0.833 0.625v-2.408h2.291v2.408zM25.267 27.389h-0.574c-0.288 0-0.521 0.233-0.521 0.521s0.233 0.521 0.521 0.521h0.574v0.974h-11.696v-0.974h7.777c0.288 0 0.521-0.233 0.521-0.521s-0.233-0.521-0.521-0.521h-13.119c-0.287 0-0.521 0.233-0.521 0.521s0.233 0.521 0.521 0.521h0.97v0.974h-0.97c-0.399 0-0.774-0.155-1.057-0.437-0.282-0.283-0.438-0.658-0.438-1.057 0-0.824 0.67-1.495 1.495-1.495h17.039v0.975zM25.267 25.373h-16.518v-23.932h16.518v23.932z"></path>
</svg>
