<!-- Generated by IcoMoon.io -->
<svg version="1.1" xmlns="http://www.w3.org/2000/svg" width="32" height="32" viewBox="0 0 32 32">
<path d="M22.613 11.5l4.178-5.602c0.167-0.224 0.193-0.522 0.068-0.772s-0.38-0.407-0.66-0.407h-17.986v-0.941c0.608-0.28 1.032-0.896 1.032-1.608-0-0.976-0.794-1.77-1.77-1.77s-1.77 0.794-1.77 1.77c0 0.713 0.424 1.328 1.032 1.608v27.146h-0.935c-0.407 0-0.738 0.33-0.738 0.738s0.33 0.738 0.738 0.738h3.346c0.407 0 0.738-0.33 0.738-0.738s-0.33-0.738-0.738-0.738h-0.935v-12.672h17.96c0.279 0 0.534-0.157 0.659-0.407s0.099-0.548-0.068-0.772l-4.151-5.575zM7.474 2.612c-0.244 0-0.442-0.198-0.442-0.442s0.198-0.442 0.442-0.442 0.442 0.198 0.442 0.442c0 0.244-0.198 0.442-0.442 0.442zM8.212 16.777v-2.451h2.351c0.408 0 0.738-0.33 0.738-0.738s-0.33-0.738-0.738-0.738h-2.351v-2.73h3.679c0.408 0 0.738-0.33 0.738-0.738s-0.33-0.738-0.738-0.738h-3.679v-2.451h16.516l-3.627 4.864c-0.195 0.261-0.195 0.62-0 0.882l3.602 4.837h-16.49z"></path>
</svg>
