<!-- Generated by IcoMoon.io -->
<svg version="1.1" xmlns="http://www.w3.org/2000/svg" width="32" height="32" viewBox="0 0 32 32">
<path d="M2.4 30.4c-0.442 0-0.8-0.358-0.8-0.8v-24c0-0.442 0.358-0.8 0.8-0.8s0.8 0.358 0.8 0.8v24c0 0.442-0.358 0.8-0.8 0.8zM5.599 16c-0.167 0-0.335-0.052-0.479-0.16-0.353-0.265-0.425-0.767-0.16-1.12 0.108-0.144 2.681-3.52 6.24-3.52 2.71 0 4.501 0.958 6.082 1.804 1.4 0.749 2.61 1.396 4.318 1.396 3.508 0 6.012-3.328 7.44-5.948-1.117 0.635-2.544 1.148-4.24 1.148-3.531 0-5.356-1.825-6.966-3.434-1.591-1.591-2.966-2.966-5.834-2.966-3.559 0-5.738 2.851-5.76 2.88-0.265 0.353-0.767 0.425-1.12 0.16s-0.425-0.767-0.16-1.12c0.108-0.144 2.69-3.52 7.040-3.52 3.531 0 5.356 1.825 6.966 3.434 1.591 1.591 2.966 2.966 5.834 2.966 3.559 0 5.738-2.851 5.76-2.88 0.235-0.314 0.664-0.411 1.011-0.229s0.512 0.589 0.388 0.962c-0.034 0.102-0.853 2.53-2.493 4.991-0.979 1.469-2.051 2.645-3.186 3.496-1.469 1.101-3.043 1.66-4.68 1.66-2.11 0-3.616-0.806-5.073-1.585-1.552-0.83-3.018-1.615-5.327-1.615-2.768 0-4.938 2.851-4.96 2.88-0.157 0.21-0.397 0.32-0.641 0.32z"></path>
</svg>
