<!-- Generated by IcoMoon.io -->
<svg version="1.1" xmlns="http://www.w3.org/2000/svg" width="32" height="32" viewBox="0 0 32 32">
<path d="M9.722 32.4c-0.084 0-0.169-0.021-0.244-0.066-0.203-0.118-0.292-0.363-0.211-0.584l5.061-13.914-6.117-1.745c-0.158-0.045-0.283-0.167-0.331-0.324s-0.014-0.329 0.093-0.454l12.408-14.741c0.147-0.175 0.397-0.221 0.599-0.115 0.202 0.108 0.301 0.343 0.237 0.562l-3.578 12.41 6.15 1.755c0.159 0.045 0.284 0.168 0.331 0.326s0.012 0.33-0.096 0.455l-13.935 16.267c-0.095 0.109-0.231 0.169-0.368 0.169zM9.195 15.364l5.898 1.681c0.13 0.037 0.237 0.126 0.299 0.245s0.070 0.26 0.023 0.386l-4.328 11.898 11.709-13.668-5.891-1.679c-0.124-0.035-0.229-0.118-0.292-0.231s-0.078-0.245-0.042-0.369l3.081-10.687-10.46 12.425z"></path>
</svg>
