<!-- Generated by IcoMoon.io -->
<svg version="1.1" xmlns="http://www.w3.org/2000/svg" width="32" height="32" viewBox="0 0 32 32">
<path d="M25.024 11.387c-0.107-0.213-0.267-0.32-0.48-0.32h-6.293l6.24-9.867c0.107-0.16 0.107-0.373 0-0.533s-0.267-0.267-0.48-0.267h-8.533c-0.213 0-0.373 0.107-0.48 0.267l-8 16c-0.107 0.16-0.107 0.373 0 0.533s0.32 0.267 0.48 0.267h5.493l-5.973 14.24c-0.107 0.213 0 0.48 0.213 0.64 0.053 0.053 0.16 0.053 0.267 0.053 0.16 0 0.32-0.053 0.427-0.16l17.067-20.267c0.107-0.16 0.16-0.373 0.053-0.587zM9.344 28.827l4.907-11.733c0.053-0.16 0.053-0.32-0.053-0.48-0.107-0.107-0.267-0.213-0.427-0.213h-5.44l7.467-14.933h7.253l-6.293 9.867c-0.107 0.16-0.107 0.373 0 0.533s0.267 0.267 0.48 0.267h6.187l-14.080 16.693z"></path>
</svg>
