<!-- Generated by IcoMoon.io -->
<svg version="1.1" xmlns="http://www.w3.org/2000/svg" width="32" height="32" viewBox="0 0 32 32">
<path d="M7.563 23.5c4.136 0 7.5-3.364 7.5-7.5s-3.364-7.5-7.5-7.5c-4.17 0-7.563 3.364-7.563 7.5s3.393 7.5 7.563 7.5zM7.563 10.375c3.102 0 5.625 2.523 5.625 5.625s-2.523 5.625-5.625 5.625c-3.136 0-5.688-2.523-5.688-5.625s2.551-5.625 5.688-5.625z"></path>
<path d="M24.438 23.5c4.17 0 7.563-3.364 7.563-7.5s-3.393-7.5-7.563-7.5c-4.136 0-7.5 3.364-7.5 7.5s3.364 7.5 7.5 7.5zM24.438 10.375c3.136 0 5.688 2.523 5.688 5.625s-2.551 5.625-5.688 5.625c-3.102 0-5.625-2.523-5.625-5.625s2.523-5.625 5.625-5.625z"></path>
</svg>
