<!-- Generated by IcoMoon.io -->
<svg version="1.1" xmlns="http://www.w3.org/2000/svg" width="38" height="32" viewBox="0 0 38 32">
<path d="M14.092 13.477h9.169c0.369 0 0.677-0.308 0.677-0.677s-0.308-0.677-0.677-0.677h-9.169c-0.369 0-0.677 0.308-0.677 0.677s0.246 0.677 0.677 0.677z"></path>
<path d="M21.046 15.323h-6.892c-0.369 0-0.677 0.308-0.677 0.677s0.308 0.677 0.677 0.677h6.892c0.308 0 0.677-0.308 0.677-0.677s-0.246-0.677-0.677-0.677z"></path>
<path d="M14.092 19.938h4.308c0.369 0 0.677-0.308 0.677-0.677s-0.308-0.677-0.677-0.677h-4.308c-0.369 0-0.677 0.308-0.677 0.677s0.246 0.677 0.677 0.677z"></path>
<path d="M37.846 18.462c0-2.4-2.708-4.431-7.569-5.785v-7.938c0-2.4-2.031-4.431-4.431-4.431h-13.723c-2.4 0-4.431 2.031-4.431 4.431v8c-4.677 1.292-7.385 3.385-7.385 5.723s2.585 4.369 7.385 5.785v3.015c0 2.4 2.031 4.431 4.431 4.431h13.662c2.462 0 4.431-1.969 4.431-4.431v-2.954c2.892-0.8 5.108-1.908 6.4-3.2 0.862-0.862 1.231-1.723 1.231-2.646zM7.692 22.892c-3.754-1.169-6.031-2.769-6.031-4.369s2.215-3.2 6.031-4.369v8.738zM9.046 24v-10.585c0-0.062 0-0.123 0-0.185v-8.492c0-1.723 1.354-3.077 3.077-3.077h13.662c1.723 0 3.077 1.354 3.077 3.077v18.462c-2.462 0.554-5.354 0.923-8.431 0.985l0.862-0.862c0.123-0.123 0.185-0.308 0.185-0.492s-0.062-0.369-0.185-0.492c-0.246-0.246-0.677-0.246-0.985 0l-2.462 2.585 2.523 2.646c0.185 0.123 0.431 0.123 0.554 0.123 0.062 0 0.308 0 0.492-0.246 0.123-0.123 0.185-0.308 0.185-0.431 0-0.185-0.062-0.369-0.185-0.492l-0.923-0.923c3.077-0.062 5.969-0.431 8.431-0.985v2.646c0 1.723-1.354 3.077-3.077 3.077h-13.723c-1.723 0-3.077-1.354-3.077-3.077v-3.262zM21.169 22.585c0 0 0 0 0 0v0 0zM30.277 14.092c3.877 1.108 6.277 2.769 6.277 4.369 0 1.723-2.462 3.323-6.277 4.431v-8.8z"></path>
</svg>
