<!-- Generated by IcoMoon.io -->
<svg version="1.1" xmlns="http://www.w3.org/2000/svg" width="32" height="32" viewBox="0 0 32 32">
<path d="M31.849 15.635l-2.529-2.529c-0.638-0.636-1.381-1.155-2.198-1.534 0.492-1.074 0.748-2.242 0.749-3.423v-3.503c0-0.285-0.231-0.516-0.516-0.516h-3.503c-1.182 0.001-2.35 0.256-3.424 0.748-0.38-0.816-0.899-1.56-1.534-2.198l-2.529-2.529c-0.202-0.201-0.528-0.201-0.73 0l-2.529 2.529c-0.636 0.638-1.155 1.381-1.534 2.198-1.074-0.492-2.241-0.748-3.423-0.748h-3.503c-0.285 0-0.516 0.231-0.516 0.516v3.503c0.001 1.182 0.256 2.35 0.748 3.424-0.816 0.38-1.56 0.899-2.198 1.534l-2.529 2.529c-0.201 0.202-0.201 0.528 0 0.73l2.529 2.529c0.638 0.636 1.381 1.155 2.198 1.534-0.492 1.074-0.748 2.241-0.748 3.423v3.503c0 0.285 0.231 0.516 0.516 0.516h3.503c1.182-0.001 2.35-0.256 3.424-0.748 0.38 0.816 0.899 1.56 1.534 2.198l2.529 2.529c0.202 0.201 0.528 0.201 0.73 0l2.529-2.529c0.636-0.638 1.155-1.381 1.534-2.198 1.074 0.492 2.241 0.748 3.423 0.748h3.503c0.285 0 0.516-0.231 0.516-0.516v-3.503c-0.001-1.182-0.256-2.35-0.748-3.424 0.816-0.38 1.56-0.899 2.198-1.534l2.529-2.529c0.201-0.202 0.201-0.528-0.001-0.729zM20.808 5.84c0.953-0.446 1.992-0.677 3.044-0.678h2.987v2.987c-0 1.052-0.232 2.092-0.678 3.045-0.75-0.235-1.53-0.354-2.316-0.355h-0.206c-1.085-0-2.158 0.228-3.148 0.671 0.443-0.991 0.671-2.063 0.671-3.148v-0.206c0-0.785-0.119-1.566-0.354-2.315zM23.639 11.871h0.206c0.61 0.001 1.216 0.085 1.803 0.25-0.271 0.409-0.582 0.789-0.929 1.135l-0.109 0.109c-1.352 1.359-3.192 2.121-5.11 2.116l-2.254 0.002 1.647-1.647c1.256-1.263 2.964-1.97 4.745-1.965zM20.129 8.155v0 0.206c0.005 1.781-0.703 3.489-1.965 4.745l-1.647 1.648v-2.257c-0.005-1.917 0.757-3.757 2.116-5.11l0.109-0.109c0.346-0.347 0.727-0.658 1.135-0.929 0.165 0.588 0.25 1.195 0.252 1.806zM13.837 3.41l2.164-2.164 2.164 2.164c0.565 0.567 1.023 1.23 1.354 1.958-0.545 0.334-1.050 0.73-1.504 1.18l-0.109 0.109c-0.843 0.844-1.493 1.861-1.903 2.981-0.411-1.12-1.060-2.136-1.903-2.98l-0.109-0.109c-0.454-0.45-0.959-0.847-1.505-1.181 0.331-0.728 0.789-1.391 1.354-1.958zM11.871 8.155c0.001-0.61 0.085-1.216 0.25-1.803 0.409 0.271 0.789 0.582 1.135 0.929l0.109 0.109c1.359 1.352 2.121 3.192 2.116 5.11v2.257l-1.647-1.647c-1.262-1.257-1.97-2.966-1.963-4.748v-0.206zM13.106 13.836l1.648 1.647h-2.257c-1.917 0.005-3.757-0.757-5.11-2.116l-0.109-0.109c-0.347-0.346-0.658-0.727-0.929-1.135 0.588-0.165 1.195-0.25 1.806-0.252h0.206c1.781-0.005 3.489 0.703 4.745 1.965zM5.162 5.162h2.987c1.052 0 2.092 0.232 3.045 0.678-0.235 0.75-0.354 1.53-0.355 2.316v0.206c-0 1.085 0.228 2.158 0.671 3.148-0.991-0.443-2.063-0.671-3.148-0.671h-0.206c-0.785-0-1.566 0.119-2.315 0.354-0.446-0.953-0.677-1.992-0.678-3.044v-2.987zM3.41 18.164l-2.164-2.164 2.164-2.164c0.567-0.565 1.23-1.023 1.958-1.354 0.334 0.545 0.73 1.050 1.18 1.504l0.109 0.109c0.844 0.843 1.861 1.493 2.981 1.903-1.12 0.411-2.136 1.060-2.98 1.903l-0.109 0.109c-0.45 0.454-0.847 0.959-1.181 1.505-0.728-0.331-1.391-0.789-1.958-1.354zM11.193 26.16c-0.953 0.446-1.992 0.677-3.044 0.678h-2.987v-2.987c0-1.052 0.232-2.092 0.678-3.045 0.75 0.235 1.53 0.354 2.316 0.355h0.206c1.085 0 2.158-0.228 3.148-0.671-0.443 0.991-0.671 2.063-0.671 3.148v0.206c-0 0.785 0.119 1.566 0.354 2.315zM8.362 20.129h-0.206c-0.61-0.001-1.216-0.085-1.803-0.25 0.271-0.409 0.582-0.789 0.929-1.135l0.109-0.109c1.352-1.359 3.192-2.121 5.11-2.116l2.254-0.002-1.647 1.647c-1.256 1.263-2.964 1.97-4.745 1.965zM11.871 23.845v-0.206c-0.005-1.781 0.703-3.489 1.965-4.745l1.647-1.648v2.257c0.005 1.917-0.757 3.757-2.116 5.11l-0.109 0.109c-0.346 0.347-0.727 0.658-1.135 0.929-0.165-0.588-0.25-1.195-0.252-1.806zM18.164 28.59l-2.164 2.164-2.164-2.164c-0.564-0.566-1.023-1.228-1.354-1.956 0.545-0.335 1.050-0.732 1.504-1.183l0.109-0.109c0.843-0.844 1.493-1.861 1.903-2.981 0.411 1.12 1.060 2.136 1.903 2.98l0.109 0.109c0.454 0.451 0.959 0.848 1.505 1.183-0.331 0.728-0.789 1.39-1.354 1.956zM20.129 23.845c-0.001 0.61-0.085 1.216-0.25 1.803-0.409-0.271-0.789-0.582-1.135-0.929l-0.109-0.109c-1.359-1.352-2.121-3.192-2.116-5.11v-2.254l1.647 1.647c1.262 1.256 1.969 2.965 1.963 4.745v0.206zM18.894 18.164l-1.648-1.647h2.257c1.917-0.005 3.757 0.757 5.11 2.116l0.109 0.109c0.347 0.346 0.658 0.727 0.929 1.135-0.588 0.165-1.195 0.25-1.806 0.252h-0.206c-1.781 0.005-3.489-0.703-4.745-1.965zM26.839 26.838h-2.987c-1.052-0-2.092-0.232-3.045-0.678 0.235-0.75 0.354-1.53 0.355-2.316v-0.206c0-1.085-0.228-2.158-0.671-3.148 0.991 0.443 2.063 0.671 3.148 0.671h0.206c0.785 0 1.566-0.119 2.315-0.354 0.446 0.953 0.677 1.992 0.678 3.044v2.987zM28.59 18.164c-0.566 0.564-1.228 1.023-1.956 1.354-0.335-0.545-0.732-1.050-1.183-1.504l-0.109-0.109c-0.844-0.843-1.861-1.493-2.981-1.903 1.12-0.411 2.136-1.060 2.98-1.903l0.109-0.109c0.451-0.454 0.848-0.959 1.183-1.505 0.727 0.331 1.39 0.789 1.956 1.354l2.164 2.164-2.164 2.164z"></path>
</svg>
