<!-- Generated by IcoMoon.io -->
<svg version="1.1" xmlns="http://www.w3.org/2000/svg" width="32" height="32" viewBox="0 0 32 32">
<path d="M7.467 12.533c-0.135 0-0.255 0.092-0.291 0.222l-6.109 15.244v0.533c0 0.391-0.025 0.533 0.301 0.533h23.871c0.617 0 1.159-0.415 1.307-0.967l5.454-15.033c0 0 0-0.333 0-0.533h-24.533z"></path>
<path d="M6.79 11.467h22.010v-3.343c0-0.804-0.654-1.457-1.457-1.457h-13.202l-2.667-3.733h-10.018c-0.803 0-1.457 0.654-1.457 1.457v22.291l5.484-14.249c0.147-0.55 0.69-0.966 1.306-0.966z"></path>
</svg>
