<!-- Generated by IcoMoon.io -->
<svg version="1.1" xmlns="http://www.w3.org/2000/svg" width="32" height="32" viewBox="0 0 32 32">
<path d="M9.26 0.449h-8.663c-0.33 0-0.597 0.267-0.597 0.597v30.708c0 0.33 0.267 0.597 0.597 0.597h8.663c0.33 0 0.597-0.267 0.597-0.597v-30.708c0-0.33-0.267-0.597-0.597-0.597zM8.663 31.157h-7.47v-29.515h7.47v29.515zM2.745 14.337h4.367c0.33 0 0.597-0.267 0.597-0.597v-10.546c0-0.33-0.267-0.597-0.597-0.597h-4.367c-0.33 0-0.597 0.267-0.597 0.597v10.546c0 0.33 0.267 0.597 0.597 0.597zM3.341 3.79h3.174v9.353h-3.174v-9.353zM4.928 26.803c1.533 0 2.78-1.247 2.78-2.78s-1.247-2.78-2.78-2.78c-1.533 0-2.78 1.247-2.78 2.78s1.247 2.78 2.78 2.78zM4.928 22.436c0.875 0 1.587 0.712 1.587 1.587s-0.712 1.587-1.587 1.587c-0.875-0-1.587-0.712-1.587-1.587s0.712-1.587 1.587-1.587zM4.928 4.696c-0.33 0-0.597 0.267-0.597 0.597v4.658c0 0.329 0.267 0.597 0.597 0.597s0.597-0.267 0.597-0.597v-4.658c0-0.329-0.267-0.597-0.597-0.597zM5.479 11.413c0.015 0.036-0.015-0.037 0 0v0zM4.506 11.219c-0.334 0.345-0.144 0.938 0.334 1.012 0.45 0.070 0.814-0.4 0.639-0.818-0.161-0.389-0.673-0.485-0.973-0.194zM20.331 0.449h-8.663c-0.33 0-0.597 0.267-0.597 0.597v30.708c0 0.33 0.267 0.597 0.597 0.597h8.663c0.33 0 0.597-0.267 0.597-0.597v-30.708c-0-0.33-0.267-0.597-0.597-0.597zM19.735 31.157h-7.47v-29.515h7.47v29.515zM13.816 14.337h4.367c0.33 0 0.597-0.267 0.597-0.597v-10.546c0-0.33-0.267-0.597-0.597-0.597h-4.367c-0.33 0-0.597 0.267-0.597 0.597v10.546c0 0.33 0.267 0.597 0.597 0.597zM14.413 3.79h3.174v9.353h-3.174v-9.353zM16 26.803c1.533 0 2.78-1.247 2.78-2.78s-1.247-2.78-2.78-2.78-2.78 1.247-2.78 2.78c0 1.533 1.247 2.78 2.78 2.78zM16 22.436c0.875 0 1.587 0.712 1.587 1.587s-0.712 1.587-1.587 1.587-1.587-0.712-1.587-1.587c0-0.875 0.712-1.587 1.587-1.587zM16 4.696c-0.33 0-0.597 0.267-0.597 0.597v4.658c0 0.329 0.267 0.597 0.597 0.597s0.597-0.267 0.597-0.597v-4.658c0-0.329-0.267-0.597-0.597-0.597zM16.551 11.413c-0.007-0.018-0.004-0.009-0-0-0.137-0.322-0.527-0.462-0.836-0.295-0.348 0.188-0.408 0.666-0.137 0.945 0.203 0.196 0.517 0.231 0.753 0.074 0.233-0.155 0.328-0.465 0.22-0.723 0.004 0.009 0.007 0.017-0-0.001zM31.403 0.449h-8.663c-0.33 0-0.597 0.267-0.597 0.597v30.708c0 0.33 0.267 0.597 0.597 0.597h8.663c0.33 0 0.597-0.267 0.597-0.597v-30.708c-0-0.33-0.267-0.597-0.597-0.597zM30.807 31.157h-7.47v-29.515h7.47v29.515zM24.888 14.337h4.367c0.33 0 0.597-0.267 0.597-0.597v-10.546c0-0.33-0.267-0.597-0.597-0.597h-4.367c-0.33 0-0.597 0.267-0.597 0.597v10.546c0 0.33 0.267 0.597 0.597 0.597zM25.485 3.79h3.174v9.353h-3.174v-9.353zM27.072 26.803c1.533 0 2.78-1.247 2.78-2.78s-1.247-2.78-2.78-2.78-2.78 1.247-2.78 2.78c0 1.533 1.247 2.78 2.78 2.78zM27.072 22.436c0.875 0 1.587 0.712 1.587 1.587s-0.712 1.587-1.587 1.587-1.587-0.712-1.587-1.587c0-0.875 0.712-1.587 1.587-1.587zM27.072 4.696c-0.33 0-0.597 0.267-0.597 0.597v4.658c0 0.329 0.267 0.597 0.597 0.597s0.597-0.267 0.597-0.597v-4.658c0-0.329-0.267-0.597-0.597-0.597zM26.649 11.219c-0.326 0.336-0.156 0.912 0.306 1.007 0.458 0.094 0.849-0.384 0.667-0.813-0.161-0.389-0.674-0.484-0.973-0.194zM27.622 11.413c0.015 0.036-0.015-0.037 0 0v0z"></path>
</svg>
