<!-- Generated by IcoMoon.io -->
<svg version="1.1" xmlns="http://www.w3.org/2000/svg" width="32" height="32" viewBox="0 0 32 32">
<path d="M30.661 11.867h-1.861v-3.343c0-0.804-0.654-1.457-1.457-1.457h-13.202l-2.667-3.733h-10.018c-0.803 0-1.457 0.654-1.457 1.457v23.3h0.003c-0.003 0.3 0.091 0.594 0.278 0.84 0.261 0.341 0.657 0.537 1.086 0.537h23.871c0.617 0 1.159-0.415 1.307-0.967l5.454-14.954v-0.094c0-0.918-0.563-1.585-1.339-1.585zM1.067 4.79c0-0.215 0.175-0.39 0.39-0.39h9.468l2.667 3.733h13.75c0.215 0 0.39 0.175 0.39 0.39v3.343h-20.943c-0.077 0-0.153 0.006-0.227 0.019-0.519 0.087-0.95 0.466-1.079 0.947l-4.417 12.046v-20.089zM25.53 28.178c-0.035 0.131-0.155 0.222-0.291 0.222h-23.871c-0.13 0-0.205-0.074-0.239-0.118s-0.085-0.137-0.066-0.218l5.435-14.908c0.035-0.131 0.155-0.222 0.291-0.222h23.872c0.203 0 0.254 0.291 0.268 0.437l-5.399 14.807z"></path>
</svg>
