<!-- Generated by IcoMoon.io -->
<svg version="1.1" xmlns="http://www.w3.org/2000/svg" width="32" height="32" viewBox="0 0 32 32">
<path d="M30.319 5.406h-12.072c-0.241 0-0.476-0.087-0.659-0.245l-2.215-1.91c-0.428-0.368-0.974-0.571-1.537-0.571h-7.934c-0.927 0-1.681 0.754-1.681 1.681v2.247h-2.539c-0.927 0-1.681 0.754-1.681 1.681v20.149c0 0.927 0.754 1.681 1.681 1.681h24.417c0.927 0 1.681-0.754 1.681-1.681v-2.247h2.539c0.927 0 1.681-0.754 1.681-1.681v-17.423c0-0.927-0.754-1.681-1.681-1.681zM26.435 28.439c0 0.185-0.151 0.336-0.336 0.336h-24.417c-0.185 0-0.336-0.151-0.336-0.336v-13.825h25.090v13.825zM26.435 13.269h-25.090v-4.979c0-0.185 0.151-0.336 0.336-0.336h7.934c0.242 0 0.476 0.087 0.659 0.245l2.215 1.91c0.427 0.368 0.973 0.571 1.537 0.571h12.072c0.185 0 0.336 0.151 0.336 0.336v2.253zM30.655 24.511c0 0.185-0.151 0.336-0.336 0.336h-2.539v-13.831c0-0.927-0.754-1.681-1.681-1.681h-12.072c-0.242 0-0.476-0.087-0.659-0.245l-2.215-1.91c-0.427-0.369-0.973-0.571-1.537-0.571h-4.050v-2.247c0-0.185 0.151-0.336 0.336-0.336h7.934c0.242 0 0.476 0.087 0.659 0.245l2.214 1.91c0.428 0.368 0.974 0.571 1.537 0.571h12.072c0.185 0 0.336 0.151 0.336 0.336v17.423zM23.759 16.907h-4.028c-0.371 0-0.673 0.301-0.673 0.673s0.301 0.673 0.673 0.673h4.028c0.371 0 0.673-0.301 0.673-0.673s-0.301-0.673-0.673-0.673zM23.759 20.135h-4.028c-0.371 0-0.673 0.301-0.673 0.673s0.301 0.673 0.673 0.673h4.028c0.371 0 0.673-0.301 0.673-0.673s-0.301-0.673-0.673-0.673z"></path>
</svg>
