<!-- Generated by IcoMoon.io -->
<svg version="1.1" xmlns="http://www.w3.org/2000/svg" width="32" height="32" viewBox="0 0 32 32">
<path d="M23.2 14.4h-3.2c-1.323 0-2.4-1.077-2.4-2.4v-3.2c0-0.442 0.358-0.8 0.8-0.8s0.8 0.358 0.8 0.8v3.2c0 0.441 0.359 0.8 0.8 0.8h3.2c0.442 0 0.8 0.358 0.8 0.8s-0.358 0.8-0.8 0.8zM10.4 14.4h-3.2c-0.442 0-0.8-0.358-0.8-0.8s0.358-0.8 0.8-0.8h3.2c0.441 0 0.8-0.359 0.8-0.8v-3.2c0-0.442 0.358-0.8 0.8-0.8s0.8 0.358 0.8 0.8v3.2c0 1.323-1.077 2.4-2.4 2.4zM18.4 25.6c-0.442 0-0.8-0.358-0.8-0.8v-3.2c0-1.323 1.077-2.4 2.4-2.4h3.2c0.442 0 0.8 0.358 0.8 0.8s-0.358 0.8-0.8 0.8h-3.2c-0.441 0-0.8 0.359-0.8 0.8v3.2c0 0.442-0.358 0.8-0.8 0.8zM12 25.6c-0.442 0-0.8-0.358-0.8-0.8v-3.2c0-0.441-0.359-0.8-0.8-0.8h-3.2c-0.442 0-0.8-0.358-0.8-0.8s0.358-0.8 0.8-0.8h3.2c1.323 0 2.4 1.077 2.4 2.4v3.2c0 0.442-0.358 0.8-0.8 0.8z"></path>
</svg>
