<!-- Generated by IcoMoon.io -->
<svg version="1.1" xmlns="http://www.w3.org/2000/svg" width="35" height="32" viewBox="0 0 35 32">
<path d="M16.379 11.004c-1.707-1.075-3.731-1.518-5.755-1.328-2.972 0.316-5.565 2.087-7.020 4.743-0.19 0.316-0.063 0.759 0.253 0.949 0.126 0.063 0.19 0.063 0.316 0.063 0.253 0 0.506-0.126 0.569-0.379 1.202-2.213 3.415-3.731 5.945-4.047 1.707-0.19 3.415 0.19 4.933 1.075 0.316 0.19 0.759 0.126 0.949-0.19 0.253-0.253 0.126-0.696-0.19-0.885z"></path>
<path d="M3.542 17.581h-2.846c-0.379 0-0.696 0.316-0.696 0.696s0.316 0.696 0.696 0.696h2.846c0.379 0 0.696-0.316 0.696-0.696s-0.316-0.696-0.696-0.696z"></path>
<path d="M31.115 14.419c-1.455-2.656-4.047-4.427-7.020-4.743-1.202-0.126-2.403 0-3.541 0.316-0.379 0.126-0.569 0.506-0.443 0.822 0.126 0.379 0.506 0.569 0.822 0.443 0.949-0.253 1.96-0.379 2.972-0.253 2.53 0.253 4.743 1.771 5.945 4.047 0.126 0.253 0.379 0.379 0.569 0.379 0.126 0 0.19 0 0.316-0.063 0.443-0.19 0.569-0.569 0.379-0.949z"></path>
<path d="M34.024 17.581h-2.846c-0.379 0-0.696 0.316-0.696 0.696s0.316 0.696 0.696 0.696h2.846c0.379 0 0.696-0.316 0.696-0.696s-0.316-0.696-0.696-0.696z"></path>
<path d="M34.024 24.854h-3.415c-1.581 0-3.162 0.632-4.3 1.771-2.087 2.024-4.68 3.478-7.146 3.984-0.063 0-0.126 0-0.19 0-0.443 0-0.822-0.316-0.949-0.759-0.063-0.253 0-0.506 0.126-0.696s0.316-0.379 0.569-0.443c2.34-0.506 4.49-1.707 6.134-3.352 0.949-0.949 1.644-2.087 2.024-3.289 0.19-0.632 0.316-1.265 0.316-1.834 0-1.138-0.506-2.277-1.328-3.099-0.949-0.949-2.213-1.455-3.541-1.391-1.012 0-2.024 0.379-2.846 1.012-0.19 0.126-0.443 0.253-0.696 0.19s-0.506-0.19-0.632-0.379c-0.316-0.443-0.19-1.012 0.19-1.328 1.202-0.885 2.593-1.391 4.111-1.391 2.15 0 4.174 1.012 5.375 2.783 0.19 0.316 0.632 0.379 0.949 0.126 0.316-0.19 0.379-0.632 0.126-0.949-1.518-2.087-3.921-3.289-6.514-3.289-1.771 0-3.478 0.569-4.933 1.707-0.063 0.063-0.19 0.126-0.253 0.19-0.063-0.063-0.126-0.126-0.253-0.19-1.391-1.075-3.099-1.707-4.933-1.707-2.53 0-4.996 1.265-6.514 3.289-0.19 0.316-0.126 0.696 0.126 0.949 0.316 0.19 0.696 0.126 0.949-0.126 1.265-1.707 3.289-2.783 5.376-2.783 1.518 0 2.909 0.506 4.111 1.391 0.443 0.316 0.506 0.949 0.19 1.328-0.126 0.19-0.379 0.316-0.632 0.379s-0.506-0.063-0.696-0.19c-0.822-0.632-1.771-1.012-2.846-1.012-1.328 0-2.593 0.506-3.541 1.391-0.885 0.822-1.328 1.96-1.328 3.099 0 0.569 0.126 1.202 0.316 1.834 0.379 1.202 1.075 2.34 2.024 3.289 1.707 1.707 3.858 2.846 6.134 3.352 0.253 0.063 0.443 0.19 0.569 0.443 0.126 0.19 0.19 0.443 0.126 0.696-0.126 0.443-0.506 0.759-0.949 0.759-0.063 0-0.126 0-0.19 0-2.466-0.569-5.059-2.024-7.146-3.984-1.202-1.138-2.719-1.771-4.3-1.771h-3.099c-0.379 0-0.696 0.316-0.696 0.696s0.316 0.696 0.696 0.696h3.415c1.265 0 2.466 0.506 3.352 1.391 2.213 2.15 5.059 3.731 7.779 4.364 0.19 0.063 0.316 0.063 0.506 0.063 0.632 0 1.202-0.253 1.644-0.696 0.443 0.443 1.012 0.696 1.644 0.696 0.19 0 0.316 0 0.506-0.063 2.719-0.632 5.502-2.213 7.779-4.364 0.949-0.885 2.087-1.391 3.352-1.391h3.415c0.379 0 0.696-0.316 0.696-0.696s-0.379-0.696-0.759-0.696zM17.391 28.079c-0.316-0.316-0.696-0.506-1.138-0.632-2.087-0.443-3.984-1.518-5.502-3.036-0.822-0.822-1.391-1.771-1.707-2.783-0.19-0.506-0.253-1.012-0.253-1.455 0-0.759 0.316-1.518 0.949-2.15 0.696-0.696 1.644-1.012 2.593-1.012 0.759 0 1.455 0.253 2.024 0.696 0.506 0.379 1.075 0.569 1.707 0.443 0.506-0.063 0.949-0.316 1.328-0.632 0.379 0.379 0.822 0.569 1.328 0.632 0.632 0.063 1.202-0.063 1.707-0.443 0.569-0.443 1.265-0.696 2.024-0.696 0.949 0 1.897 0.379 2.593 1.012 0.569 0.569 0.949 1.328 0.949 2.15 0 0.443-0.063 0.949-0.253 1.455-0.316 1.012-0.885 1.96-1.707 2.783-1.518 1.518-3.415 2.53-5.502 3.036-0.443 0.063-0.885 0.316-1.138 0.632z"></path>
<path d="M17.391 0c-0.379 0-0.696 0.316-0.696 0.696v4.047c0 0.379 0.316 0.696 0.696 0.696s0.696-0.316 0.696-0.696v-4.047c-0.063-0.379-0.379-0.696-0.696-0.696z"></path>
<path d="M13.534 5.818l-1.644-1.644c-0.253-0.253-0.696-0.253-0.949 0s-0.253 0.696 0 0.949l1.644 1.644c0.126 0.126 0.316 0.19 0.506 0.19s0.316-0.063 0.506-0.19c0.19-0.253 0.19-0.696-0.063-0.949z"></path>
<path d="M9.929 2.213c-0.253-0.253-0.696-0.253-0.949 0.063-0.253 0.253-0.253 0.632 0 0.885 0.126 0.126 0.316 0.19 0.443 0.19 0.19 0 0.379-0.063 0.506-0.253v0c0.253-0.253 0.253-0.632 0-0.885z"></path>
<path d="M25.739 2.277c-0.253-0.253-0.696-0.253-0.949 0l-3.668 3.668c-0.253 0.253-0.253 0.696 0 0.949 0.126 0.126 0.316 0.19 0.506 0.19s0.316-0.063 0.506-0.19l3.668-3.668c0.19-0.253 0.19-0.696-0.063-0.949z"></path>
<path d="M19.415 11.573c0 0.384-0.311 0.696-0.696 0.696s-0.696-0.311-0.696-0.696c0-0.384 0.311-0.696 0.696-0.696s0.696 0.311 0.696 0.696z"></path>
</svg>
