<!-- Generated by IcoMoon.io -->
<svg version="1.1" xmlns="http://www.w3.org/2000/svg" width="32" height="32" viewBox="0 0 32 32">
<path d="M30.635 11.745c-0.144 0-0.293 0.021-0.44 0.061l-1.554 0.428-1.643-4.001c-0.492-1.199-1.947-2.175-3.244-2.175h-1.093v-3.317c0-0.583-0.474-1.057-1.057-1.057h-11.207c-0.583 0-1.057 0.474-1.057 1.057v3.317h-1.116c-1.296 0-2.752 0.976-3.244 2.175l-1.641 3.996-1.534-0.423c-0.148-0.041-0.296-0.061-0.44-0.061-0.791 0-1.365 0.604-1.365 1.437v0.85c0 0.972 0.791 1.762 1.762 1.762h0.113l-0.235 0.571c-0.457 1.114-0.83 3.001-0.83 4.205v7.983c0 0.972 0.791 1.762 1.762 1.762h2.119c0.972 0 1.762-0.791 1.762-1.762v-1.962h19.069v1.962c0 0.972 0.791 1.762 1.762 1.762h2.118c0.972 0 1.762-0.791 1.762-1.762v-7.983c0-1.204-0.372-3.091-0.83-4.205l-0.235-0.571h0.136c0.972 0 1.762-0.791 1.762-1.762v-0.85c0-0.832-0.574-1.437-1.365-1.437zM20.248 3.094c0-0.023 0.019-0.042 0.042-0.042h0.815c0.023 0 0.042 0.019 0.042 0.042v2.932c0 0.014-0.008 0.025-0.019 0.032h-0.862c-0.011-0.008-0.019-0.018-0.019-0.032v-2.932zM14.405 3.052h0.979c0.023 0 0.049 0.018 0.058 0.039l1.162 2.921 1.065-1.318c0.015-0.018 0.016-0.049 0.003-0.068l-1.022-1.539c-0.013-0.019-0.004-0.035 0.019-0.035h0.905c0.023 0 0.052 0.016 0.064 0.036l0.527 0.855c0.012 0.020 0.032 0.020 0.044 0l0.527-0.855c0.012-0.020 0.041-0.036 0.064-0.036h0.906c0.023 0 0.032 0.016 0.019 0.035l-1.023 1.539c-0.013 0.019-0.011 0.050 0.003 0.068l1.084 1.341c0.007 0.009 0.009 0.017 0.006 0.023h-0.961c-0.013-0.007-0.024-0.016-0.031-0.026l-0.595-0.952c-0.012-0.020-0.032-0.020-0.045 0l-0.594 0.952c-0.007 0.011-0.018 0.019-0.031 0.026h-1.811c-0.012-0.007-0.023-0.017-0.027-0.030l-0.2-0.611c-0.007-0.022-0.032-0.040-0.055-0.040h-1.11c-0.023 0-0.049 0.018-0.056 0.040l-0.215 0.612c-0.005 0.013-0.015 0.023-0.028 0.030h-0.871c-0.007-0.007-0.010-0.017-0.005-0.029l1.185-2.938c0.009-0.022 0.035-0.039 0.058-0.039zM11.54 6.026v-2.329c0-0.023-0.019-0.042-0.042-0.042h-0.979c-0.023 0-0.042-0.019-0.042-0.042v-0.519c0-0.023 0.019-0.042 0.042-0.042h2.948c0.023 0 0.042 0.019 0.042 0.042v0.519c0 0.023-0.019 0.042-0.042 0.042h-0.985c-0.023 0-0.042 0.019-0.042 0.042v2.329c0 0.014-0.008 0.025-0.019 0.032h-0.862c-0.011-0.008-0.019-0.018-0.019-0.032zM4.584 14.813l2.496-6.081c0.295-0.717 1.17-1.304 1.945-1.304h13.926c0.775 0 1.651 0.587 1.945 1.304l2.496 6.081c0.295 0.717-0.099 1.304-0.874 1.304h-21.060c-0.775 0-1.169-0.587-0.874-1.304zM10.223 22.643c0 0.388-0.317 0.705-0.705 0.705h-4.765c-0.388 0-0.705-0.317-0.705-0.705v-2.26c0-0.388 0.317-0.705 0.705-0.705h4.765c0.388 0 0.705 0.317 0.705 0.705v2.26zM27.883 22.643c0 0.388-0.317 0.705-0.705 0.705h-4.765c-0.388 0-0.705-0.317-0.705-0.705v-2.26c0-0.388 0.317-0.705 0.705-0.705h4.765c0.388 0 0.705 0.317 0.705 0.705v2.26z"></path>
<path d="M15.249 4.774c0.023 0 0.035-0.017 0.026-0.039l-0.351-0.811c-0.009-0.021-0.025-0.022-0.034-0l-0.372 0.812c-0.010 0.021 0.001 0.038 0.025 0.038h0.708z"></path>
</svg>
