<!-- Generated by IcoMoon.io -->
<svg version="1.1" xmlns="http://www.w3.org/2000/svg" width="36" height="32" viewBox="0 0 36 32">
<path d="M35.2 17.093c-0.234 0-0.39 0.156-0.39 0.39v3.044c0 0.234 0.156 0.39 0.39 0.39s0.39-0.156 0.39-0.39v-3.044c0-0.156-0.234-0.39-0.39-0.39z"></path>
<path d="M35.2 14.049c-0.234 0-0.39 0.156-0.39 0.39v0.546c0 0.234 0.156 0.39 0.39 0.39s0.39-0.156 0.39-0.39v-0.546c0-0.234-0.234-0.39-0.39-0.39z"></path>
<path d="M35.2 11.005c-0.234 0-0.39 0.156-0.39 0.39v0.546c0 0.234 0.156 0.39 0.39 0.39s0.39-0.156 0.39-0.39v-0.546c0-0.156-0.234-0.39-0.39-0.39z"></path>
<path d="M18.029 12.8c0-0.234-0.156-0.39-0.39-0.39h-13.034c-0.234 0-0.39 0.156-0.39 0.39s0.156 0.39 0.39 0.39h13.034c0.156 0 0.39-0.156 0.39-0.39z"></path>
<path d="M14.751 16c0-0.234-0.156-0.39-0.39-0.39h-9.756c-0.234 0-0.39 0.156-0.39 0.39s0.156 0.39 0.39 0.39h9.756c0.156 0 0.39-0.156 0.39-0.39z"></path>
<path d="M4.605 18.81c-0.234 0-0.39 0.156-0.39 0.39s0.156 0.39 0.39 0.39h6.322c0.234 0 0.39-0.156 0.39-0.39s-0.156-0.39-0.39-0.39h-6.322z"></path>
<path d="M26.146 6.556h-0.546v-2.263c0-2.341-1.951-4.293-4.293-4.293h-12.878c-2.341 0-4.293 1.951-4.293 4.293 0 0.234 0.156 0.39 0.39 0.39s0.39-0.156 0.39-0.39c0-1.951 1.561-3.512 3.512-3.512h12.8c1.951 0 3.512 1.561 3.512 3.512v2.263h-2.654c-0.234 0-0.39 0.156-0.39 0.39s0.156 0.39 0.39 0.39h4.059c1.561 0 2.732 1.249 2.732 2.732v11.785c0 1.561-1.249 2.732-2.732 2.732h-22.634c-1.483 0.078-2.732-1.171-2.732-2.732v-11.707c0-1.561 1.249-2.732 2.732-2.732h11.785c0.234 0 0.39-0.156 0.39-0.39s-0.078-0.468-0.312-0.468h-11.863c-1.951 0-3.512 1.639-3.512 3.59v11.707c0 1.951 1.561 3.512 3.512 3.512h22.556c1.951 0 3.512-1.561 3.512-3.512v-11.707c0.078-1.951-1.483-3.59-3.434-3.59z"></path>
<path d="M25.21 27.317c-0.234 0-0.39 0.156-0.39 0.39 0 1.951-1.561 3.512-3.512 3.512h-12.878c-1.951 0-3.512-1.561-3.512-3.512 0-0.234-0.234-0.39-0.39-0.39s-0.39 0.156-0.39 0.39c0 2.341 1.951 4.293 4.293 4.293h12.878c2.341 0 4.293-1.951 4.293-4.293 0-0.234-0.234-0.39-0.39-0.39z"></path>
<path d="M16.624 27.629c0.156-0.156 0.156-0.39 0-0.546s-0.39-0.156-0.546 0l-1.249 1.249-1.249-1.249c-0.156-0.156-0.39-0.156-0.546 0s-0.156 0.39 0 0.546l1.795 1.795 1.795-1.795z"></path>
<path d="M14.829 1.795l-1.795 1.795c-0.156 0.156-0.156 0.39 0 0.546s0.39 0.156 0.546 0l1.249-1.249 1.249 1.249c0.078 0.078 0.156 0.078 0.312 0.078s0.234 0 0.312-0.078c0.156-0.156 0.156-0.39 0-0.546l-1.873-1.795z"></path>
</svg>
