<!-- Generated by IcoMoon.io -->
<svg version="1.1" xmlns="http://www.w3.org/2000/svg" width="32" height="32" viewBox="0 0 32 32">
<path d="M25.968 5.292c-0.634-0.428-1.518-0.806-2.628-1.123-2.185-0.624-5.076-0.968-8.139-0.968s-5.954 0.344-8.139 0.968c-1.11 0.317-1.994 0.695-2.628 1.123-1.019 0.688-1.232 1.418-1.232 1.909v0.8c0 0.684 0.514 1.813 1.022 2.575l7.825 11.737c0.401 0.602 0.753 1.764 0.753 2.488v4.8c0 0.277 0.144 0.535 0.379 0.68 0.128 0.079 0.274 0.119 0.421 0.119 0.122 0 0.245-0.028 0.358-0.084l3.2-1.6c0.271-0.136 0.442-0.413 0.442-0.716v-3.2c0-0.723 0.352-1.886 0.753-2.488l7.825-11.737c0.508-0.762 1.022-1.891 1.022-2.575v-0.8c0-0.491-0.214-1.22-1.232-1.909zM7.5 5.706c2.046-0.585 4.78-0.906 7.7-0.906s5.654 0.322 7.7 0.906c2.204 0.63 2.7 1.306 2.7 1.494s-0.496 0.864-2.7 1.494c-2.046 0.585-4.78 0.906-7.7 0.906s-5.654-0.322-7.7-0.906c-2.204-0.63-2.7-1.306-2.7-1.494s0.496-0.864 2.7-1.494zM17.022 21.425c-0.573 0.86-1.022 2.342-1.022 3.375v2.706l-1.6 0.8v-3.506c0-1.033-0.449-2.515-1.022-3.375l-7.808-11.712c0.439 0.187 0.936 0.361 1.491 0.519 2.185 0.624 5.075 0.968 8.139 0.968s5.954-0.344 8.139-0.968c0.554-0.158 1.052-0.332 1.491-0.519l-7.808 11.712z"></path>
</svg>
