<!-- Generated by IcoMoon.io -->
<svg version="1.1" xmlns="http://www.w3.org/2000/svg" width="32" height="32" viewBox="0 0 32 32">
<path d="M31.83 19.044l-2.041-7.289c-0.394-1.408-1.368-2.596-2.672-3.258s-2.838-0.747-4.207-0.234c-1.001 0.376-1.852 1.036-2.459 1.91 0 0-0.003 0.002-0.009 0.002h-8.85c-0.005 0-0.008-0.002-0.008-0.002-0.607-0.874-1.457-1.534-2.459-1.91-1.37-0.513-2.903-0.428-4.208 0.234s-2.278 1.849-2.672 3.257l-2.041 7.289c-0.674 2.407 0.378 4.733 2.503 5.53 0.535 0.201 1.097 0.295 1.657 0.295 1.823-0 3.625-1.002 4.394-2.616l0.979-2.050c0.604 0.808 1.565 1.31 2.609 1.31 1.423 0 2.671-0.929 3.097-2.256h1.144c0.426 1.327 1.674 2.256 3.097 2.256 1.044 0 2.006-0.502 2.61-1.311l0.982 2.050c0.495 1.039 1.355 1.849 2.423 2.28s2.249 0.446 3.327 0.042c1.078-0.404 1.958-1.192 2.479-2.219s0.636-2.202 0.326-3.311zM30.329 21.759c-0.371 0.732-0.999 1.294-1.767 1.582s-1.611 0.277-2.372-0.030c-0.761-0.307-1.374-0.884-1.728-1.626l-1.369-2.859c-0.151-0.315-0.474-0.505-0.823-0.488-0.348 0.018-0.647 0.242-0.763 0.57-0.273 0.771-1.007 1.289-1.825 1.289-0.923 0-1.722-0.656-1.899-1.561-0.079-0.403-0.434-0.695-0.844-0.695h-1.851c-0.41 0-0.765 0.293-0.844 0.696-0.177 0.904-0.976 1.56-1.9 1.56-0.818 0-1.552-0.518-1.825-1.288-0.116-0.328-0.416-0.551-0.764-0.57s-0.672 0.173-0.822 0.488l-1.366 2.859c-0.712 1.494-2.768 2.267-4.4 1.655-1.493-0.56-2.191-2.181-1.697-3.942l2.041-7.289c0.299-1.070 1.010-1.936 2-2.438 0.561-0.285 1.163-0.428 1.769-0.428 0.464 0 0.929 0.084 1.38 0.253 0.75 0.281 1.386 0.775 1.839 1.428 0.247 0.355 0.654 0.568 1.090 0.568h8.85c0.436 0 0.843-0.212 1.090-0.567 0.454-0.653 1.090-1.148 1.84-1.429 1.040-0.39 2.158-0.328 3.149 0.175s1.701 1.369 2 2.438l2.041 7.289c0.221 0.79 0.138 1.628-0.233 2.36zM25.642 12.101c0 0.459-0.372 0.832-0.832 0.832s-0.832-0.372-0.832-0.832c0-0.459 0.372-0.832 0.832-0.832s0.832 0.372 0.832 0.832zM25.642 16.029c0 0.459-0.372 0.832-0.832 0.832s-0.832-0.372-0.832-0.832c0-0.459 0.372-0.832 0.832-0.832s0.832 0.372 0.832 0.832zM23.678 14.065c0 0.459-0.372 0.832-0.832 0.832s-0.832-0.372-0.832-0.832c0-0.459 0.372-0.832 0.832-0.832s0.832 0.372 0.832 0.832zM27.606 14.065c0 0.459-0.372 0.832-0.832 0.832s-0.832-0.372-0.832-0.832c0-0.459 0.372-0.832 0.832-0.832s0.832 0.372 0.832 0.832zM9.199 13.406h-1.166v-1.166c0-0.364-0.295-0.658-0.658-0.658s-0.658 0.295-0.658 0.658v1.166h-1.166c-0.364 0-0.658 0.295-0.658 0.658s0.295 0.658 0.658 0.658h1.166v1.166c0 0.364 0.295 0.658 0.658 0.658s0.658-0.295 0.658-0.658v-1.166h1.166c0.364 0 0.658-0.295 0.658-0.658s-0.295-0.658-0.658-0.658zM14.502 13.406h-0.72c-0.364 0-0.658 0.295-0.658 0.658s0.295 0.658 0.658 0.658h0.72c0.364 0 0.658-0.295 0.658-0.658s-0.295-0.658-0.658-0.658zM18.25 13.406h-0.72c-0.364 0-0.658 0.295-0.658 0.658s0.295 0.658 0.658 0.658h0.72c0.364 0 0.658-0.295 0.658-0.658s-0.295-0.658-0.658-0.658zM12.345 16.934c-0.731 0-1.326 0.595-1.326 1.326s0.595 1.326 1.326 1.326c0.731 0 1.326-0.595 1.326-1.326s-0.595-1.326-1.326-1.326zM12.345 18.597c-0.186 0-0.338-0.152-0.338-0.338s0.152-0.338 0.338-0.338 0.338 0.152 0.338 0.338c-0 0.186-0.152 0.338-0.338 0.338zM19.683 16.934c-0.731 0-1.326 0.595-1.326 1.326s0.595 1.326 1.326 1.326 1.326-0.595 1.326-1.326c0-0.731-0.595-1.326-1.326-1.326zM19.683 18.597c-0.186 0-0.338-0.152-0.338-0.338s0.152-0.338 0.338-0.338 0.338 0.152 0.338 0.338c0 0.186-0.152 0.338-0.338 0.338z"></path>
</svg>
