<!-- Generated by IcoMoon.io -->
<svg version="1.1" xmlns="http://www.w3.org/2000/svg" width="34" height="32" viewBox="0 0 34 32">
<path d="M33.708 12.585h-0.569v-10.877c0-0.885-0.759-1.708-1.707-1.708h-17.138c0 0 0 0 0 0s0 0 0 0h-11.447c-0.885 0-1.708 0.759-1.708 1.708v10.877h-0.569c-0.316 0-0.569 0.253-0.569 0.569v5.692c0 0.316 0.253 0.569 0.569 0.569h0.569v10.877c0 0.885 0.759 1.707 1.708 1.707h28.585c0.885 0 1.708-0.822 1.708-1.707v-10.877h0.569c0.316 0 0.569-0.253 0.569-0.569v-5.692c0.063-0.316-0.19-0.569-0.569-0.569zM32 1.708v10.877h-5.186c-0.063-0.506-0.126-1.012-0.316-1.265-0.569-1.012-1.581-1.644-2.846-1.644h-0.063c-1.138 0-2.15 0.759-2.972 1.644v-10.182h10.814c0.316 0 0.569 0.253 0.569 0.569zM24.727 20.111c0 0.063 0 0.063 0 0-0.063 0.063-0.063 0.126-0.063 0.126s0 0-0.063 0.063c0 0 0 0 0 0-0.443 0.316-1.075 0.379-1.644 0.253-0.379-0.063-0.759-0.253-1.075-0.443-0.822-0.506-1.644-1.391-1.707-2.53 0.126-0.19 0.19-0.379 0.253-0.569l1.518 1.138c0.126 0.063 0.253 0.126 0.316 0.126 0.19 0 0.316-0.063 0.443-0.253 0.19-0.253 0.126-0.632-0.126-0.822l-1.707-1.265 1.707-1.265c0.253-0.19 0.316-0.569 0.126-0.822s-0.569-0.316-0.822-0.126l-1.518 1.138c-0.126-0.316-0.253-0.632-0.443-0.949 0.063-0.063 0.126-0.19 0.19-0.253 0.126-0.126 0.253-0.316 0.316-0.443 0 0 0-0.063 0-0.063 0.506-0.696 1.897-2.34 3.036-2.34 0.632 0 1.138 0.19 1.455 0.506 0.126 0.126 0.19 0.253 0.316 0.443 0.19 0.316 0.316 1.897 0.253 2.466 0 0.19 0 0.443 0 0.822 0 0.885 0 2.53-0.316 3.731-0.063 0.822-0.253 1.138-0.443 1.328zM19.731 23.020l-0.126 0.19c0 0-0.063 0.063-0.063 0.063l-1.581-3.921c0.443-0.126 0.885-0.316 1.265-0.632 0.126 0.316 0.316 0.632 0.506 0.949 0.316 0.443 0.632 0.759 1.012 1.075l0.759 1.644-0.949-0.19c-0.253 0-0.443 0.126-0.569 0.316l-0.253 0.506zM14.040 22.514c-0.126-0.19-0.316-0.316-0.506-0.316-0.063 0-0.063 0-0.063 0l-0.949 0.19 0.632-1.391c0 0 0 0 0 0 0.949-0.569 1.644-1.391 1.96-2.277 0.379 0.253 0.759 0.506 1.265 0.569l-1.834 3.984-0.506-0.759zM9.549 20.174c-0.19-0.19-0.443-0.569-0.632-1.328 0 0 0-0.063 0-0.063-0.316-1.202-0.316-2.656-0.316-3.605v0c0-0.316 0-0.632 0-0.822s0-0.632 0.063-1.138c0 0 0-0.063 0-0.063s0 0 0 0c0.063-0.822 0.19-1.138 0.253-1.265 0.316-0.696 0.949-1.012 1.771-1.012 0 0 0.063 0 0.063 0s0 0 0 0c0.063 0 0.063 0 0.126 0 1.202 0.126 2.593 1.834 3.036 2.466 0 0 0.063 0.063 0.063 0.063 0.126 0.126 0.19 0.253 0.253 0.379 0.063 0.063 0.126 0.19 0.19 0.253-0.19 0.316-0.379 0.632-0.506 0.949l-1.518-1.138c-0.253-0.19-0.632-0.126-0.822 0.126s-0.126 0.632 0.126 0.822l1.707 1.265-1.707 1.265c-0.253 0.19-0.316 0.569-0.126 0.822 0.126 0.19 0.316 0.253 0.443 0.253s0.253-0.063 0.316-0.126l1.518-1.138c0.063 0.19 0.063 0.316 0.126 0.506-0.063 1.328-1.075 2.34-2.15 2.783-0.19 0.063-0.379 0.19-0.632 0.19-0.569 0.063-1.202 0-1.644-0.443zM19.162 14.925c0 0 0 0 0 0s0 0.063 0 0c0.19 0.379 0.253 0.632 0.253 0.949 0 0.063 0 0.063 0 0.126s0 0.126 0 0.126c0 0 0 0 0 0 0 0.253-0.063 0.443-0.19 0.696-0.126 0.063-0.253 0.126-0.253 0.253-0.379 0.696-1.138 1.138-1.96 1.138-0.316 0-0.632-0.063-0.885-0.19-0.379-0.19-0.632-0.443-0.885-0.759 0-0.063 0-0.063-0.063-0.126-0.19-0.316-0.316-0.632-0.316-1.012 0 0 0 0 0 0 0-0.063 0-0.126 0-0.126 0-0.063 0-0.063 0-0.126 0-0.506 0.253-1.075 0.759-1.391 0.063-0.063 0.126-0.19 0.126-0.316 0.379-0.316 0.885-0.506 1.391-0.506 0.885 0.063 1.644 0.569 2.024 1.265zM19.415 12.711c-0.063 0.126-0.126 0.19-0.253 0.316 0 0.063-0.063 0.063-0.063 0.126 0 0-0.063 0-0.063 0.063-0.506-0.316-1.075-0.569-1.707-0.569 0 0 0 0 0 0-0.063 0-0.063 0-0.126 0s-0.126 0-0.126 0-0.126 0-0.126 0-0.063 0-0.126 0c0 0 0 0 0 0-0.506 0.063-0.949 0.19-1.391 0.443-0.063 0.063-0.19 0.126-0.253 0.126 0 0 0 0 0 0-0.126-0.126-0.253-0.316-0.316-0.443v-11.636h4.553v11.573zM2.277 1.708c0-0.316 0.316-0.569 0.569-0.569h10.941v10.245c-0.885-0.885-1.96-1.644-3.099-1.644-1.328 0.063-2.277 0.632-2.846 1.644-0.063 0.126-0.19 0.316-0.316 1.202h-5.249v-10.877zM1.138 13.723h6.261c0 0.316 0 0.569 0 0.759 0 0.126 0 0.379 0 0.696 0.063 0.822 0.063 2.024 0.253 3.162h-6.514v-4.617zM2.277 30.293v-10.877h5.628c0.19 0.632 0.443 1.202 0.822 1.581 0.506 0.443 1.202 0.759 2.024 0.759 0.253 0 0.506 0 0.696-0.063l-0.569 1.202c-0.126 0.19-0.063 0.379 0.063 0.569 0.19 0.19 0.316 0.316 0.569 0.253l1.644-0.316 0.506 0.885v6.514h-10.814c-0.253 0.063-0.569-0.126-0.569-0.506zM14.925 25.043c0.063-0.063 0.126-0.126 0.19-0.253l2.087-4.49 1.771 4.49c0 0 0 0 0 0 0.063 0.19 0.253 0.316 0.443 0.316h0.063c0 0 0 0 0 0v5.692h-4.49v-5.755zM32 30.293c0 0.316-0.253 0.569-0.569 0.569h-10.814v-7.020l0.253-0.379 1.455 0.253c0.063 0 0.063 0 0.126 0h0.063c0.253 0 0.443-0.063 0.569-0.253s0.19-0.379 0.063-0.569l-0.569-1.265c0.379 0.126 0.759 0.19 1.138 0.19 0.822 0 1.518-0.316 2.087-0.885 0.379-0.379 0.632-0.885 0.822-1.518h5.565l-0.19 10.877zM33.138 18.277h-6.451c0.126-1.012 0.19-2.15 0.19-3.225 0-0.316 0-0.506 0-0.696 0-0.126 0-0.379 0-0.696h6.261v4.617z"></path>
</svg>
