<!-- Generated by IcoMoon.io -->
<svg version="1.1" xmlns="http://www.w3.org/2000/svg" width="32" height="32" viewBox="0 0 32 32">
<path d="M29.6 8h-4.802c0.503-0.669 0.802-1.5 0.802-2.4 0-2.206-1.794-4-4-4-2.224 0-4.090 1.762-5.003 2.812-0.553 0.636-1.030 1.317-1.396 1.975-0.367-0.658-0.843-1.339-1.396-1.975-0.914-1.050-2.779-2.812-5.004-2.812-2.206 0-4 1.794-4 4 0 0.9 0.299 1.731 0.802 2.4h-4.802c-0.442 0-0.8 0.358-0.8 0.8v4.8c0 0.442 0.358 0.8 0.8 0.8h0.8v15.2c0 1.323 1.077 2.4 2.4 2.4h22.4c1.323 0 2.4-1.077 2.4-2.4v-15.2h0.8c0.442 0 0.8-0.358 0.8-0.8v-4.8c0-0.442-0.358-0.8-0.8-0.8zM17.803 5.462c1.251-1.438 2.635-2.262 3.797-2.262 1.323 0 2.4 1.077 2.4 2.4s-1.077 2.4-2.4 2.4h-5.405c0.277-0.707 0.836-1.651 1.608-2.538zM17.6 30.4h-4.8v-20.8h4.8v20.8zM6.4 5.6c0-1.323 1.077-2.4 2.4-2.4 1.162 0 2.545 0.825 3.796 2.262 0.772 0.887 1.331 1.831 1.608 2.538h-5.405c-1.323 0-2.4-1.077-2.4-2.4zM1.6 9.6h9.6v3.2h-9.6v-3.2zM3.2 29.6v-15.2h8v16h-7.2c-0.441 0-0.8-0.359-0.8-0.8zM27.2 29.6c0 0.441-0.359 0.8-0.8 0.8h-7.2v-16h8v15.2zM28.8 12.8h-9.6v-3.2h9.6v3.2z"></path>
</svg>
