<!-- Generated by IcoMoon.io -->
<svg version="1.1" xmlns="http://www.w3.org/2000/svg" width="32" height="32" viewBox="0 0 32 32">
<path d="M16 0c-8.794 0-16 7.269-16 16.063 0 8.743 7.141 15.938 16 15.938 8.848 0 16-7.184 16-15.938 0-8.794-7.206-16.063-16-16.063zM18.813 29.844c-0.9 0.188-1.856 0.281-2.813 0.281s-1.913-0.094-2.813-0.281v-4.387c0-1.050 0.281-1.425 0.656-1.931 0.191-0.218 0.306-0.414 1.162-1.706l-1.444-0.225c-3.713-0.544-5.175-2.475-5.756-3.975-0.75-2.006-0.356-4.519 0.994-6.112 0.206-0.244 0.375-0.656 0.225-1.088-0.281-0.863-0.244-2.231-0.056-2.756 0.994 0.142 2.016 0.854 2.869 1.369 0.393 0.229 0.599 0.169 0.787 0.188 0.685-0.143 1.754-0.488 3.394-0.488 1.012 0 2.081 0.15 3.131 0.45 0.188-0.004 0.489 0.155 1.012-0.15 0.891-0.543 1.879-1.231 2.869-1.369 0.188 0.525 0.225 1.894-0.056 2.756-0.15 0.431 0.019 0.844 0.225 1.088 1.35 1.594 1.744 4.106 0.994 6.112-0.581 1.5-2.044 3.431-5.756 3.975l-1.444 0.225c0.885 1.335 0.978 1.496 1.163 1.706 0.375 0.506 0.656 0.881 0.656 1.931zM20.688 29.3v-3.844c0-1.069-0.225-1.781-0.525-2.306 2.85-0.769 4.875-2.456 5.775-4.875 0.956-2.55 0.525-5.587-1.069-7.688 0.282-1.256 0.282-3.262-0.394-4.2-0.3-0.412-0.713-0.637-1.238-0.637-0.019 0-0.019 0-0.019 0-1.454 0.079-2.598 0.811-3.825 1.556-1.125-0.3-2.269-0.45-3.413-0.45-1.162 0-2.325 0.169-3.356 0.45-1.292-0.779-2.425-1.479-3.919-1.556-0.469 0-0.881 0.225-1.181 0.637-0.675 0.938-0.675 2.944-0.394 4.2-1.594 2.1-2.025 5.156-1.069 7.688 0.9 2.419 2.925 4.106 5.775 4.875-0.233 0.407-0.417 0.932-0.489 1.643-0.576 0.198-1.075 0.263-1.539 0.127-0.49-0.145-0.871-0.472-1.203-1.029-0.745-1.251-2.013-2.272-3.457-2.139l0.165 1.868c0.669-0.061 1.334 0.646 1.68 1.23 0.57 0.96 1.339 1.59 2.284 1.87 0.702 0.207 1.344 0.202 2.034 0.054v2.528c-5.456-1.913-9.438-7.125-9.438-13.238 0-7.762 6.363-14.188 14.125-14.188s14.125 6.425 14.125 14.188c0 6.113-3.981 11.325-9.438 13.238z"></path>
</svg>
