<!-- Generated by IcoMoon.io -->
<svg version="1.1" xmlns="http://www.w3.org/2000/svg" width="32" height="32" viewBox="0 0 32 32">
<path d="M7.073 10.5h-0.013l-0.144 0.25c-0.013 0.023-0.024 0.046-0.037 0.069-0.080 0.139-0.154 0.28-0.226 0.422-0.058 0.114-0.112 0.229-0.166 0.344q-0.155 0.334-0.287 0.68c-0.055 0.143-0.11 0.287-0.159 0.431s-0.089 0.283-0.13 0.427c-0.050 0.167-0.090 0.335-0.13 0.505-0.027 0.118-0.058 0.236-0.082 0.355-0.053 0.27-0.093 0.541-0.125 0.815q-0.016 0.136-0.027 0.273c-0.027 0.309-0.047 0.618-0.047 0.929s0.019 0.616 0.047 0.928c0.007 0.078 0.013 0.157 0.021 0.235 0.027 0.238 0.066 0.478 0.11 0.718 0.024 0.132 0.050 0.263 0.077 0.393l0.005 0.023 0.066 0.3 0.013 0.003c0.399 1.538 1.092 2.878 2.020 4.019l-0.015-0.019-0.004 0.006 0.059 0.068 0.008 0.009 0.2 0.23c0.037 0.043 0.080 0.080 0.118 0.122 0.177 0.195 0.358 0.385 0.55 0.566 0.069 0.066 0.14 0.128 0.211 0.192 0.188 0.17 0.382 0.334 0.582 0.489 0.073 0.056 0.147 0.111 0.221 0.166 0.216 0.159 0.435 0.309 0.662 0.45 0.060 0.037 0.12 0.073 0.181 0.11q0.379 0.227 0.777 0.421c0.023 0.012 0.044 0.026 0.068 0.037l0.345 0.165c1.232 0.551 2.671 0.871 4.184 0.871 4.737 0 8.74-3.142 10.038-7.455l0.019-0.074 0.020-0.067c0.029-0.1 0.050-0.2 0.075-0.296 0.069-0.267 0.128-0.538 0.176-0.814 0.031-0.177 0.059-0.353 0.081-0.53 0.014-0.116 0.027-0.231 0.038-0.35 0.027-0.303 0.047-0.61 0.047-0.915 0-0.338-0.018-0.674-0.050-1.007-0.015-0.15-0.041-0.295-0.061-0.443-0.025-0.177-0.050-0.354-0.081-0.53-0.035-0.185-0.082-0.366-0.127-0.55-0.033-0.131-0.064-0.262-0.1-0.393-0.058-0.2-0.125-0.393-0.194-0.588-0.038-0.107-0.076-0.215-0.118-0.321-0.079-0.203-0.166-0.4-0.259-0.6-0.044-0.093-0.087-0.185-0.134-0.277q-0.15-0.3-0.323-0.591c-0.050-0.082-0.1-0.164-0.15-0.245-0.122-0.196-0.25-0.387-0.384-0.574-0.053-0.073-0.108-0.146-0.163-0.218-0.142-0.187-0.288-0.37-0.442-0.547-0.021-0.024-0.039-0.050-0.060-0.075l-0.2-0.227h-0.011c-1.915-2.047-4.632-3.322-7.647-3.322-3.76 0-7.056 1.983-8.9 4.961l-0.026 0.045zM12.387 7.522l0.103 0.49 1.45 0.373-0.403 2.787-1.158 0.563-0.36-2.155c-0.036-0.217-0.137-0.405-0.282-0.55v0l-0.704-0.727 1.45-0.29zM6.543 15.155c0.006-0.072 0.012-0.145 0.020-0.216 0.028-0.25 0.067-0.497 0.114-0.741 0.021-0.105 0.045-0.209 0.069-0.313 0.035-0.153 0.074-0.303 0.117-0.453q0.077-0.271 0.17-0.537c0.046-0.132 0.093-0.264 0.144-0.393s0.11-0.267 0.17-0.4c0.050-0.107 0.1-0.212 0.153-0.316 0.050-0.096 0.093-0.193 0.143-0.287h1.085c0 0 0 0 0 0 0.004 0 0.007 0.002 0.009 0.005l0 0 1.578 2.385-1.578 1.183-1.593 0.796c-0.334 0.168-0.56 0.508-0.56 0.901 0 0.088 0.011 0.174 0.033 0.256l-0.002-0.007 0.181 0.789-0.122-0.030q-0.085-0.442-0.128-0.881c-0.028-0.295-0.045-0.592-0.045-0.895 0-0.286 0.018-0.566 0.043-0.845zM12.5 23.126c0 0 0 0 0 0.001 0 0.127-0.046 0.242-0.123 0.331l0.001-0.001-0.806 0.937c-0.184-0.098-0.363-0.203-0.54-0.312-0.047-0.029-0.095-0.056-0.143-0.087-0.155-0.1-0.306-0.205-0.455-0.313-0.077-0.056-0.153-0.113-0.228-0.171-0.136-0.105-0.269-0.211-0.4-0.323-0.074-0.064-0.145-0.131-0.217-0.2-0.13-0.119-0.259-0.236-0.383-0.363l0.738-0.491c0.079-0.054 0.176-0.085 0.281-0.085 0.030 0 0.059 0.003 0.087 0.007l-0.003-0 1.765 0.294c0.242 0.041 0.424 0.248 0.424 0.499 0 0 0 0.001 0 0.001v-0zM16 25.5c-1.255-0.001-2.452-0.248-3.547-0.693l0.063 0.023 0.62-0.72c0.226-0.262 0.364-0.607 0.364-0.983v0-0.273c0-0.001 0-0.003 0-0.004 0-0.744-0.541-1.362-1.251-1.482l-0.009-0.001-1.765-0.294c-0.075-0.013-0.162-0.021-0.25-0.021-0.311 0-0.6 0.095-0.84 0.257l0.005-0.003-0.847 0.564c-0.696-0.871-1.25-1.892-1.604-3.002l-0.019-0.067c0.503-0.061 0.889-0.485 0.889-0.999 0-0.089-0.012-0.176-0.033-0.258l0.002 0.007-0.188-0.788 1.592-0.796c0.059-0.030 0.11-0.062 0.157-0.098l-0.003 0.002 1.576-1.182c0.247-0.186 0.405-0.479 0.405-0.809 0-0.209-0.063-0.403-0.172-0.564l0.002 0.004-1.58-2.368c-0.183-0.273-0.491-0.45-0.84-0.45-0.001 0-0.001 0-0.002 0h-0.458c0.521-0.727 1.114-1.355 1.782-1.894l0.018-0.014c0.049 0.172 0.137 0.319 0.254 0.438l-0-0 0.711 0.714 0.36 2.155c0.053 0.324 0.256 0.591 0.533 0.732l0.006 0.003c0.133 0.070 0.291 0.111 0.459 0.111 0.165 0 0.321-0.040 0.458-0.111l-0.006 0.003 1.141-0.571c0.292-0.148 0.501-0.426 0.549-0.756l0.001-0.006 0.396-2.778c0.007-0.044 0.010-0.094 0.010-0.145 0-0.471-0.323-0.867-0.759-0.978l-0.007-0.002-1.363-0.341c0.952-0.356 2.053-0.563 3.202-0.563 2.074 0 3.991 0.672 5.545 1.81l-0.026-0.018c-0.030 0.007-0.061 0.008-0.090 0.018-0.295 0.092-0.527 0.307-0.639 0.584l-0.002 0.007-0.7 1.741-1.645 0.819-1-0.333c-0.096-0.033-0.206-0.052-0.32-0.052-0.279 0-0.532 0.113-0.714 0.297l-1.677 1.677c-0.126 0.126-0.219 0.285-0.264 0.463l-0.002 0.007-0.458 1.831-0.86 2.153c-0.046 0.111-0.072 0.24-0.072 0.375 0 0.279 0.113 0.532 0.297 0.715l0.9 0.9c0.19 0.177 0.447 0.286 0.728 0.286 0.278 0 0.532-0.106 0.723-0.281l-0.001 0.001 0.276 1.1 0.335 1.675c0.095 0.468 0.502 0.815 0.991 0.815 0.24 0 0.461-0.084 0.634-0.224l-0.002 0.002 1.697-1.358c0.182-0.146 0.312-0.351 0.36-0.585l0.001-0.007 0.445-2.223 0.616-0.9 1.056 1.059c0.183 0.183 0.436 0.297 0.715 0.297 0.394 0 0.735-0.225 0.902-0.554l0.003-0.006 0.194-0.346 0.25 0.628c0.114 0.279 0.343 0.491 0.626 0.579l0.007 0.002c-1.42 3.567-4.841 6.043-8.841 6.050h-0.001zM24.257 11.319c0.104 0.182 0.198 0.37 0.289 0.559 0.035 0.073 0.072 0.145 0.105 0.219 0.078 0.173 0.15 0.35 0.218 0.527 0.037 0.1 0.073 0.195 0.108 0.294q0.084 0.247 0.157 0.497c0.035 0.124 0.066 0.25 0.096 0.375 0.036 0.15 0.072 0.3 0.1 0.454 0.030 0.164 0.053 0.329 0.076 0.495 0.017 0.123 0.037 0.244 0.050 0.367 0.027 0.294 0.044 0.595 0.044 0.895 0 0.278-0.018 0.55-0.041 0.823-0.009 0.096-0.017 0.192-0.029 0.288-0.022 0.187-0.050 0.372-0.085 0.555q-0.053 0.294-0.125 0.587c-0.017 0.073-0.037 0.145-0.056 0.218l-0.024 0.029-0.25-0.628c-0.153-0.376-0.516-0.636-0.939-0.636-0.394 0-0.735 0.225-0.902 0.554l-0.003 0.006-0.192 0.35-1.058-1.058c-0.183-0.183-0.436-0.296-0.715-0.296-0.349 0-0.657 0.177-0.839 0.447l-0.002 0.004-0.6 0.897c-0.070 0.104-0.122 0.225-0.149 0.356l-0.001 0.007-0.448 2.225-1.716 1.35-0.34-1.7-0.281-1.123c-0.088-0.356-0.359-0.632-0.704-0.728l-0.007-0.002c-0.082-0.024-0.177-0.038-0.275-0.038h-0c-0.283 0.002-0.538 0.115-0.726 0.298l0-0-0.902-0.912 0.864-2.16c0.014-0.034 0.028-0.076 0.038-0.119l0.001-0.006 0.46-1.834 1.688-1.68 1 0.334c0.095 0.033 0.205 0.051 0.319 0.051 0.165 0 0.321-0.039 0.459-0.109l-0.006 0.003 1.637-0.816c0.221-0.112 0.392-0.297 0.484-0.522l0.002-0.007 0.71-1.74 0.788 0.525c0.158 0.107 0.354 0.171 0.564 0.171 0.072 0 0.143-0.008 0.21-0.022l-0.007 0.001c0.31 0.372 0.602 0.786 0.861 1.221l0.024 0.044c0.023 0.037 0.047 0.075 0.070 0.114z"></path>
<path d="M17.779 1.393l-1.779 1.607 1.608 1.779 1.438 0.072-1.079-1.193c6.004 0.985 10.529 6.136 10.529 12.344 0 6.393-4.8 11.666-10.992 12.41l-0.060 0.006 0.114 0.994c6.757-0.806 11.945-6.502 11.945-13.41 0-6.78-4.998-12.393-11.511-13.354l-0.074-0.009 1.3-1.173z"></path>
<path d="M2.5 16c0.040 6.764 5.016 12.354 11.506 13.353l0.076 0.010-1.3 1.172 1.438 0.073 1.78-1.608-1.607-1.779-1.438-0.072 1.079 1.194c-6.007-0.983-10.535-6.135-10.535-12.345 0-6.395 4.803-11.669 10.998-12.411l0.059-0.006-0.114-0.994c-6.755 0.801-11.943 6.494-11.943 13.398 0 0.004 0 0.009 0 0.013v-0.001z"></path>
</svg>
