<!-- Generated by IcoMoon.io -->
<svg version="1.1" xmlns="http://www.w3.org/2000/svg" width="43" height="32" viewBox="0 0 43 32">
<path d="M13.19 11.863c0.234-0.078 0.312-0.312 0.234-0.468-0.234-0.859-0.39-1.561-0.39-2.185 0.078-4.683 3.824-8.429 8.429-8.429s8.429 3.746 8.429 8.429c0 2.498-2.654 8.039-7.259 15.22-0.234 0.39-0.702 0.624-1.171 0.624v0c-0.468 0-0.937-0.234-1.171-0.624-1.327-2.107-3.278-5.229-4.761-8.273-0.078-0.156-0.312-0.234-0.546-0.156-0.156 0.078-0.234 0.312-0.156 0.546 1.561 3.044 3.512 6.244 4.839 8.351 0.39 0.624 1.093 1.015 1.795 1.015 0 0 0 0 0 0 0.702 0 1.405-0.39 1.795-1.015 2.732-4.293 7.337-12.020 7.337-15.688 0.078-5.073-4.059-9.21-9.132-9.21s-9.132 4.137-9.132 9.21c0 0.624 0.156 1.483 0.468 2.419 0 0.156 0.234 0.234 0.39 0.234z"></path>
<path d="M25.522 9.21c0-2.263-1.795-4.059-4.059-4.059s-4.059 1.795-4.059 4.059c0 2.263 1.795 4.059 4.059 4.059 2.263-0.078 4.059-1.873 4.059-4.059zM18.185 9.21c0-1.795 1.483-3.278 3.278-3.278s3.278 1.483 3.278 3.278c0 1.795-1.483 3.278-3.278 3.278s-3.278-1.483-3.278-3.278z"></path>
<path d="M42.615 28.098l-4.449-7.883c-0.468-0.859-1.327-1.327-2.263-1.327h-4.683c-0.234 0-0.39 0.156-0.39 0.39s0.156 0.39 0.39 0.39h4.683c0.702 0 1.249 0.39 1.639 0.937l0.781 1.405-3.902 4.371c-0.156 0.156-0.156 0.39 0 0.546 0.078 0.078 0.156 0.078 0.234 0.078s0.234-0.078 0.312-0.156l3.668-4.137 3.2 5.776c0.312 0.546 0.312 1.249 0 1.795s-0.937 0.937-1.561 0.937h-37.62c-0.624 0-1.171-0.312-1.561-0.859l14.283-3.902c0.234-0.078 0.312-0.234 0.312-0.468-0.078-0.234-0.234-0.312-0.468-0.312l-14.439 3.98c-0.078-0.39 0-0.78 0.234-1.171l4.449-7.883c0.312-0.546 0.937-0.937 1.639-0.937h3.824c0.234 0 0.39-0.156 0.39-0.39s-0.156-0.39-0.39-0.39h-3.902c-0.937 0-1.795 0.546-2.263 1.327l-4.449 7.883c-0.468 0.859-0.468 1.795 0 2.576s1.327 1.327 2.263 1.327h37.698c0.937 0 1.795-0.468 2.263-1.327 0.546-0.78 0.546-1.795 0.078-2.576z"></path>
</svg>
