<!-- Generated by IcoMoon.io -->
<svg version="1.1" xmlns="http://www.w3.org/2000/svg" width="30" height="32" viewBox="0 0 30 32">
<path d="M2 31.886c-0.114 0-0.171 0-0.229-0.057-0.114-0.114-0.171-0.286-0.171-0.4l0.4-2.4-1.771-1.714c-0.114-0.114-0.171-0.286-0.114-0.457s0.171-0.286 0.343-0.286l2.4-0.343 1.143-2.229c0.171-0.286 0.629-0.286 0.743 0l1.086 2.171 2.4 0.343c0.171 0 0.286 0.114 0.343 0.286s0 0.343-0.114 0.457l-1.771 1.714 0.4 2.4c0 0.171-0.057 0.343-0.171 0.4-0.114 0.114-0.286 0.114-0.457 0.057l-2.171-1.143-2.171 1.143c0.057 0 0 0.057-0.114 0.057zM4.4 29.771c0.057 0 0.114 0 0.171 0.057l1.6 0.857-0.286-1.771c0-0.114 0-0.286 0.114-0.4l1.257-1.257-1.771-0.286c-0.114 0-0.286-0.114-0.343-0.229l-0.743-1.6-0.8 1.6c-0.057 0.114-0.171 0.229-0.343 0.229l-1.771 0.286 1.257 1.257c0.114 0.114 0.171 0.229 0.114 0.4l-0.286 1.771 1.6-0.857c0.057-0.057 0.114-0.057 0.229-0.057z"></path>
<path d="M12.514 31.886c-0.114 0-0.171 0-0.229-0.057-0.114-0.114-0.171-0.286-0.171-0.4l0.4-2.4-1.771-1.714c-0.114-0.114-0.171-0.286-0.114-0.457s0.171-0.286 0.343-0.286l2.4-0.343 1.086-2.171c0.057-0.171 0.229-0.229 0.4-0.229v0c0.171 0 0.286 0.114 0.4 0.229l1.086 2.171 2.4 0.343c0.171 0 0.286 0.114 0.343 0.286s0 0.343-0.114 0.457l-1.771 1.714 0.4 2.4c0 0.171-0.057 0.343-0.171 0.4-0.114 0.114-0.286 0.114-0.457 0.057l-2.171-1.143-2.171 1.143c0-0.057-0.057 0-0.114 0zM11.943 27.257l1.257 1.257c0.114 0.114 0.171 0.229 0.114 0.4l-0.286 1.771 1.6-0.857c0.114-0.057 0.286-0.057 0.4 0l1.6 0.857-0.286-1.771c0-0.114 0-0.286 0.114-0.4l1.257-1.257-1.714-0.286c-0.114 0-0.286-0.114-0.343-0.229l-0.8-1.6-0.8 1.6c-0.057 0.114-0.171 0.229-0.343 0.229l-1.771 0.286z"></path>
<path d="M22.971 31.886c-0.114 0-0.171 0-0.229-0.057-0.114-0.114-0.171-0.286-0.171-0.4l0.4-2.4-1.771-1.714c-0.114-0.114-0.171-0.286-0.114-0.457s0.171-0.286 0.343-0.286l2.4-0.343 1.086-2.171c0.171-0.286 0.629-0.286 0.743 0l1.086 2.171 2.4 0.343c0.171 0 0.286 0.114 0.343 0.286s0 0.343-0.114 0.457l-1.771 1.714 0.4 2.4c0 0.171-0.057 0.343-0.171 0.4-0.114 0.114-0.286 0.114-0.457 0.057l-2.171-1.143-2.171 1.143c0.114-0.057 0 0-0.057 0zM25.314 29.771c0.057 0 0.114 0 0.171 0.057l1.6 0.857-0.286-1.771c0-0.114 0-0.286 0.114-0.4l1.257-1.257-1.771-0.286c-0.114 0-0.286-0.114-0.343-0.229l-0.743-1.6-0.8 1.6c-0.057 0.114-0.171 0.229-0.343 0.229l-1.771 0.286 1.257 1.257c0.114 0.114 0.171 0.229 0.114 0.4l-0.286 1.771 1.6-0.857c0.114-0.057 0.171-0.057 0.229-0.057z"></path>
<path d="M14.857 20.171c-3.886 0-7.314-2.114-8.971-5.543-0.743-1.486-1.143-2.971-1.143-4.514s0.4-3.086 1.086-4.514c1.714-3.486 5.143-5.6 9.029-5.6 3.2 0 5.429 1.371 6.743 2.514 0.114 0.114 0.171 0.229 0.171 0.4s-0.057 0.286-0.171 0.4l-2.686 2.686c-0.229 0.229-0.571 0.229-0.8 0-0.629-0.571-1.657-1.314-3.314-1.314-2.057 0-3.886 1.2-4.686 3.086 0 0.057-0.057 0.057-0.057 0.114 0 0 0 0.057 0 0.057 0 0.114-0.057 0.171-0.114 0.286-0.171 0.514-0.229 1.086-0.229 1.714s0.114 1.2 0.229 1.714c0.686 2.171 2.629 3.6 4.914 3.6 1.2 0 2.286-0.286 2.971-0.857 0.857-0.571 1.314-1.371 1.543-2h-4.514c-0.343 0-0.571-0.229-0.571-0.571v-3.543c0-0.343 0.229-0.571 0.571-0.571h8.971c0.286 0 0.514 0.229 0.571 0.457v0c0.114 0.571 0.171 1.2 0.171 2 0 3.086-1.086 5.714-3.029 7.486-1.714 1.657-4.057 2.514-6.686 2.514zM14.857 1.143c-3.429 0-6.514 1.886-7.943 4.914-0.686 1.314-0.971 2.686-0.971 4.057s0.343 2.743 0.971 4.057c1.429 2.971 4.514 4.857 7.943 4.857 2.343 0 4.457-0.743 5.886-2.114 1.714-1.543 2.686-3.886 2.686-6.629 0-0.514-0.057-0.914-0.114-1.314h-7.886v2.4h4.686c0.171 0 0.343 0.057 0.4 0.171s0.171 0.286 0.114 0.457c-0.114 0.971-0.743 2.457-2.171 3.429-0.914 0.686-2.229 1.029-3.657 1.029-2.743 0-5.143-1.771-6-4.4-0.229-0.629-0.286-1.314-0.286-2.057s0.114-1.486 0.343-2.057c0 0 0-0.057 0.057-0.057 0-0.057 0.057-0.114 0.057-0.114 0.057-0.114 0.057-0.229 0.171-0.4 0.971-2.229 3.257-3.714 5.714-3.714 1.714 0 2.914 0.629 3.657 1.257l1.829-1.829c-1.143-1.029-2.971-1.943-5.486-1.943zM10 8c0 0 0 0 0 0s0 0 0 0z"></path>
</svg>
