<!-- Generated by IcoMoon.io -->
<svg version="1.1" xmlns="http://www.w3.org/2000/svg" width="32" height="32" viewBox="0 0 32 32">
<path d="M16.853 18.669l-1.501-1.166c-0.457-0.379-1.082-0.879-1.082-1.795 0-0.92 0.625-1.504 1.168-2.046 1.748-1.376 3.495-2.841 3.495-5.926 0-3.173-1.996-4.843-2.954-5.635h2.58l2.708-1.701h-8.204c-2.251 0-5.496 0.532-7.871 2.494-1.79 1.545-2.663 3.674-2.663 5.592 0 3.254 2.499 6.554 6.912 6.554 0.417 0 0.873-0.041 1.331-0.083-0.206 0.502-0.414 0.919-0.414 1.628 0 1.293 0.664 2.085 1.249 2.836-1.875 0.129-5.375 0.337-7.956 1.923-2.458 1.461-3.206 3.588-3.206 5.090 0 3.090 2.913 5.968 8.953 5.968 7.162 0 10.953-3.963 10.953-7.886 0.001-2.882-1.664-4.301-3.497-5.845zM11.398 13.87c-3.583 0-5.206-4.632-5.206-7.426 0-1.088 0.206-2.212 0.915-3.089 0.668-0.836 1.832-1.378 2.918-1.378 3.454 0 5.245 4.673 5.245 7.679 0 0.752-0.083 2.084-1.041 3.048-0.67 0.669-1.791 1.167-2.831 1.167zM11.439 30.652c-4.456 0-7.329-2.131-7.329-5.095 0-2.962 2.664-3.965 3.58-4.296 1.748-0.588 3.997-0.67 4.373-0.67 0.416 0 0.625 0 0.956 0.042 3.167 2.254 4.542 3.377 4.542 5.512 0 2.584-2.124 4.508-6.123 4.508zM27.369 13.806v-4.173h-2.060v4.173h-4.166v2.083h4.166v4.199h2.060v-4.199h4.187v-2.083z"></path>
</svg>
