<!-- Generated by IcoMoon.io -->
<svg version="1.1" xmlns="http://www.w3.org/2000/svg" width="32" height="32" viewBox="0 0 32 32">
<path d="M29.853 11.241l-14.4-4.8c-0.164-0.055-0.342-0.055-0.506 0l-14.4 4.8c-0.327 0.109-0.547 0.415-0.547 0.759s0.22 0.65 0.547 0.759l4.253 1.418v4.223c0 0.212 0.084 0.416 0.234 0.566 0.14 0.14 3.511 3.434 10.166 3.434 2.42 0 4.678-0.436 6.711-1.295 0.407-0.172 0.597-0.641 0.425-1.048s-0.641-0.597-1.048-0.425c-1.835 0.776-3.883 1.169-6.089 1.169-3.112 0-5.401-0.806-6.774-1.482-1.017-0.501-1.696-1.006-2.026-1.279v-3.33l8.547 2.849c0.082 0.027 0.168 0.041 0.253 0.041s0.171-0.014 0.253-0.041l8.547-2.849v1.428c-0.931 0.33-1.6 1.22-1.6 2.262 0 0.977 0.587 1.819 1.427 2.193l-1.403 5.613c-0.060 0.239-0.006 0.492 0.146 0.686s0.384 0.308 0.631 0.308h3.2c0.246 0 0.479-0.113 0.631-0.308s0.205-0.447 0.146-0.686l-1.403-5.613c0.84-0.374 1.427-1.216 1.427-2.193 0-1.043-0.669-1.932-1.6-2.262v-1.961l4.253-1.418c0.327-0.109 0.547-0.415 0.547-0.759s-0.22-0.65-0.547-0.759zM24.8 17.6c0.441 0 0.8 0.359 0.8 0.8s-0.359 0.8-0.8 0.8-0.8-0.359-0.8-0.8 0.359-0.8 0.8-0.8zM24.225 25.6l0.575-2.302 0.575 2.302h-1.151zM24.735 12.778l-9.404-1.567c-0.436-0.073-0.848 0.222-0.921 0.658s0.222 0.848 0.658 0.921l6.423 1.070-6.291 2.097-11.87-3.957 11.87-3.957 11.87 3.957-2.335 0.778z"></path>
</svg>
