<!-- Generated by IcoMoon.io -->
<svg version="1.1" xmlns="http://www.w3.org/2000/svg" width="32" height="32" viewBox="0 0 32 32">
<path d="M31.333 15.733h-14.347c-0.177 0-0.32-0.143-0.32-0.32v-14.347c0-0.368-0.299-0.667-0.667-0.667-4.435 0.007-8.67 1.848-11.7 5.087-6.027 6.462-5.675 16.586 0.787 22.614 2.677 2.497 6.129 4 9.78 4.26 0.382 0.027 0.76 0.040 1.133 0.040 4.049 0.012 7.949-1.527 10.9-4.3 3.243-3.028 5.089-7.263 5.1-11.7 0-0.368-0.298-0.667-0.667-0.667zM26 27.127c-2.97 2.795-6.979 4.213-11.047 3.907-8.086-0.476-14.255-7.418-13.779-15.504 0.446-7.566 6.583-13.547 14.159-13.796v13.68c-0.010 0.106-0.010 0.214 0 0.32h-2v1.333h3.12l11.267 8.133c-0.515 0.692-1.091 1.337-1.72 1.927zM28.467 24.1h-0.007l-9.733-7.033h11.94c-0.125 2.493-0.882 4.913-2.2 7.033zM20.253 13.733h11.080c0.368 0 0.667-0.299 0.667-0.667-0-6.996-5.671-12.667-12.667-12.667-0.368 0-0.667 0.298-0.667 0.667v11.080c0.004 0.875 0.712 1.583 1.587 1.587zM20 1.733c5.749 0.329 10.337 4.918 10.667 10.667h-10.413c-0.138-0.004-0.25-0.115-0.253-0.253v-10.413zM10.667 15.733h1.333v1.333h-1.333v-1.333z"></path>
</svg>
