<!-- Generated by IcoMoon.io -->
<svg version="1.1" xmlns="http://www.w3.org/2000/svg" width="26" height="32" viewBox="0 0 26 32">
<path d="M9.114 3.443c-0.354 0-0.608 0.304-0.608 0.608v1.114c-2.886 0.304-5.114 2.734-5.114 5.722 0 3.19 2.582 5.772 5.772 5.772 2.937 0 5.418-2.228 5.722-5.114h1.114c0.354 0 0.608-0.304 0.608-0.608-0.051-4.152-3.392-7.494-7.494-7.494zM9.114 15.392c-2.481 0-4.506-2.025-4.506-4.506 0-2.278 1.671-4.152 3.899-4.456v4.456c0 0.354 0.304 0.608 0.608 0.608h4.456c-0.304 2.228-2.177 3.899-4.456 3.899zM9.722 10.278v0-5.57c2.937 0.304 5.266 2.633 5.57 5.57h-5.57z"></path>
<path d="M15.949 18.38h-11.949c-0.354 0-0.608 0.304-0.608 0.608 0 0.354 0.304 0.608 0.608 0.608h11.949c0.354 0 0.608-0.304 0.608-0.608s-0.253-0.608-0.608-0.608z"></path>
<path d="M8 21.418h-4c-0.354 0-0.608 0.304-0.608 0.608 0 0.354 0.304 0.608 0.608 0.608h4c0.354 0 0.608-0.304 0.608-0.608 0-0.354-0.253-0.608-0.608-0.608z"></path>
<path d="M11.595 21.57c-0.101-0.101-0.253-0.203-0.456-0.203-0.152 0-0.304 0.051-0.456 0.203-0.101 0.101-0.203 0.253-0.203 0.456s0.051 0.304 0.203 0.456c0.101 0.101 0.253 0.203 0.456 0.203 0.152 0 0.304-0.051 0.456-0.203 0.101-0.101 0.203-0.253 0.203-0.456s-0.101-0.304-0.203-0.456z"></path>
<path d="M24.861 17.215h-4c-0.354 0-0.608 0.304-0.608 0.608v12.962h-1.266v-8.608c0-0.354-0.304-0.608-0.608-0.608h-4c-0.354 0-0.608 0.304-0.608 0.608v8.557h-1.266v-4.962c0-0.354-0.304-0.608-0.608-0.608h-4c-0.354 0-0.608 0.304-0.608 0.608v4.962h-5.418c-0.354 0-0.608-0.304-0.608-0.608v-28.253c0-0.354 0.253-0.608 0.608-0.608h16.152v4.101c0 1.013 0.861 1.873 1.873 1.873h4.101v7.696c0 0.354 0.304 0.608 0.608 0.608s0.608-0.304 0.608-0.608v-8.304c0-0.152-0.051-0.304-0.203-0.456l-5.924-5.975c-0.152-0.152-0.304-0.203-0.456-0.203h-16.759c-1.013 0-1.873 0.861-1.873 1.873v28.253c0 1.013 0.861 1.873 1.873 1.873h23.646v-14.228c-0.051-0.304-0.304-0.557-0.658-0.557zM19.241 2.127l3.848 3.848h-3.241c-0.354 0-0.608-0.304-0.608-0.608v-3.24zM11.241 30.734h-2.734v-4.354h2.734v4.354zM17.772 30.734h-2.734v-7.899h2.734v7.899zM24.253 30.734h-2.734v-12.304h2.734v12.304z"></path>
</svg>
