<!-- Generated by IcoMoon.io -->
<svg version="1.1" xmlns="http://www.w3.org/2000/svg" width="32" height="32" viewBox="0 0 32 32">
<path d="M5.621 31.936h-4.982c-0.319 0-0.639-0.256-0.639-0.639v-9.709c0-0.319 0.256-0.639 0.639-0.639h4.982c0.319 0 0.639 0.256 0.639 0.639v9.709c0 0.383-0.319 0.639-0.639 0.639zM1.277 30.723h3.768v-8.495h-3.768v8.495z"></path>
<path d="M14.18 32h-4.982c-0.319 0-0.639-0.256-0.639-0.639v-13.477c0-0.319 0.255-0.639 0.639-0.639h4.982c0.319 0 0.639 0.256 0.639 0.639v13.477c0 0.319-0.319 0.639-0.639 0.639zM9.836 30.723h3.768v-12.2h-3.768v12.2z"></path>
<path d="M22.739 31.936h-4.982c-0.319 0-0.639-0.256-0.639-0.639v-19.417c0-0.319 0.256-0.639 0.639-0.639h4.982c0.319 0 0.639 0.255 0.639 0.639v6.259c0 0.319-0.256 0.639-0.639 0.639-0.319 0-0.639-0.256-0.639-0.639v-5.621h-3.768v18.204h3.768v-7.409c0-0.319 0.256-0.639 0.639-0.639 0.319 0 0.639 0.256 0.639 0.639v7.984c0 0.383-0.256 0.639-0.639 0.639z"></path>
<path d="M22.739 21.461c-0.192 0-0.319-0.064-0.447-0.192s-0.192-0.256-0.192-0.447c0-0.192 0.064-0.319 0.192-0.447s0.256-0.192 0.447-0.192c0.192 0 0.319 0.064 0.447 0.192s0.192 0.256 0.192 0.447c0 0.192-0.064 0.319-0.192 0.447s-0.256 0.192-0.447 0.192z"></path>
<path d="M31.297 31.936h-4.982c-0.319 0-0.639-0.256-0.639-0.639v-23.313c0-0.319 0.256-0.639 0.639-0.639h4.982c0.319 0 0.639 0.255 0.639 0.639v23.313c0 0.383-0.256 0.639-0.639 0.639zM26.954 30.723h3.768v-22.1h-3.768v22.1z"></path>
<path d="M3.13 11.88c-0.256 0-0.511-0.192-0.575-0.447-0.064-0.319 0.128-0.703 0.447-0.766 0.128-0.064 12.902-3.449 25.549-10.539 0.256-0.192 0.639-0.128 0.83 0.192s0.064 0.703-0.256 0.83c-6.643 3.768-13.349 6.451-17.756 8.112-4.79 1.725-8.048 2.619-8.112 2.619s-0.064 0-0.128 0z"></path>
<path d="M28.104 2.938c-0.064 0-0.192 0-0.256-0.064-0.319-0.128-0.447-0.511-0.319-0.83l0.319-0.766h-0.894c-0.319 0-0.639-0.256-0.639-0.639 0-0.319 0.256-0.639 0.639-0.639h1.852c0.192 0 0.383 0.128 0.511 0.256 0.128 0.192 0.128 0.383 0.064 0.575l-0.703 1.725c-0.128 0.192-0.383 0.383-0.575 0.383z"></path>
</svg>
