<!-- Generated by IcoMoon.io -->
<svg version="1.1" xmlns="http://www.w3.org/2000/svg" width="32" height="32" viewBox="0 0 32 32">
<path d="M16.631 15.219h-5.137c-0.387 0-0.65 0.325-0.65 0.65v15.187c0 0.394 0.325 0.65 0.65 0.65h5.137c0.325 0 0.65-0.262 0.65-0.65v-15.188c0-0.387-0.325-0.65-0.65-0.65zM15.981 30.406h-3.838v-13.881h3.838v13.881zM6.481 17.438h-5.138c-0.387 0-0.65 0.325-0.65 0.65v12.975c0 0.394 0.325 0.65 0.65 0.65h5.138c0.325 0 0.65-0.262 0.65-0.65v-12.975c0-0.394-0.325-0.65-0.65-0.65zM5.831 30.406h-3.837v-11.669h3.837v11.669zM31.2 10.262l-6.438-8.931c-0.262-0.325-0.781-0.325-1.038 0l-6.438 8.931c-0.262 0.369-0.163 0.975 0.519 0.975h3.188v19.819c0 0.394 0.325 0.65 0.65 0.65h5.137c0.325 0 0.65-0.262 0.712-0.65v-19.813h3.188c0.637 0 0.775-0.65 0.519-0.981zM26.775 9.938c-0.387 0-0.65 0.325-0.65 0.65v19.819h-3.9v-19.819c0-0.394-0.325-0.65-0.65-0.65h-2.6l5.2-7.169 5.2 7.169h-2.6z"></path>
</svg>
