<!-- Generated by IcoMoon.io -->
<svg version="1.1" xmlns="http://www.w3.org/2000/svg" width="32" height="32" viewBox="0 0 32 32">
<path d="M1.523 10.37c0.181 0.112 0.408 0.122 0.599 0.027 1.534-0.765 3.224-1.164 4.939-1.166h0.908l9.186 0.985-0.305 6.4h-0.849c-2.378 0.003-4.305 1.93-4.308 4.308v1.231c0.003 2.378 1.93 4.305 4.308 4.308 2.378-0.003 4.305-1.93 4.308-4.308v-0.184c0.793-0.309 1.387-0.983 1.594-1.808l0.578-2.315h0.904c1.699 0.002 3.075 1.378 3.077 3.077v3.692h1.231v-3.692c-0.003-2.378-1.93-4.305-4.308-4.308h-0.596l1.412-5.645 0.965 0.103c0.022 0.002 0.043 0.004 0.065 0.004 3.059 0 5.538-2.48 5.538-5.538s-2.48-5.538-5.538-5.538c-0.022 0-0.044 0.001-0.065 0.004l-17.197 1.843h-0.908c-1.714-0.002-3.405-0.401-4.939-1.166-0.191-0.095-0.417-0.085-0.599 0.027s-0.292 0.31-0.292 0.524v8.615c0 0.213 0.11 0.411 0.292 0.524zM25.846 1.279c0.903 0.13 1.741 0.544 2.393 1.182h-1.163v1.231h2.040c0.186 0.389 0.311 0.804 0.372 1.231h-2.412v1.231h2.412c-0.061 0.427-0.187 0.842-0.372 1.231h-2.040v1.231h1.163c-0.652 0.638-1.49 1.052-2.393 1.182zM19.077 22.154c-0.002 1.699-1.378 3.075-3.077 3.077-1.698-0.003-3.074-1.379-3.077-3.077v-1.231c0.002-1.699 1.378-3.075 3.077-3.077h0.79l-0.073 1.549c-0.073 1.396 0.968 2.601 2.36 2.732zM20.708 19.86c-0.124 0.496-0.508 0.886-1.002 1.016s-1.021-0.018-1.373-0.389c-0.266-0.276-0.406-0.651-0.386-1.035l0.193-4.069h1.553v-1.231h-1.493l0.058-1.231h2.050v-1.231h-1.992l0.061-1.346 4.585 0.492zM20.923 4.149v-2.453l3.692-0.396v8.477l-6.191-0.663 0.017-0.971c0.008-0.609 0.355-1.162 0.9-1.434 0.972-0.482 1.586-1.474 1.583-2.559zM8.615 3.015l11.077-1.188v2.321c0.002 0.619-0.348 1.185-0.903 1.46-0.956 0.476-1.566 1.446-1.582 2.514l-0.015 0.861-8.577-0.923zM7.385 3.156v4.768c-1.088-0.28-1.849-1.261-1.849-2.384s0.761-2.104 1.849-2.384zM2.462 2.183c0.936 0.372 1.915 0.629 2.913 0.764-1.423 1.436-1.423 3.75 0 5.185-0.998 0.135-1.977 0.391-2.913 0.763z"></path>
<path d="M12.308 4.923h1.231v1.231h-1.231z"></path>
<path d="M14.769 4.923h1.231v1.231h-1.231z"></path>
<path d="M9.846 4.923h1.231v1.231h-1.231z"></path>
<path d="M26.462 25.846h1.231v1.231h-1.231z"></path>
<path d="M26.462 30.769h1.231v1.231h-1.231z"></path>
<path d="M26.462 28.308h1.231v1.231h-1.231z"></path>
</svg>
