<!-- Generated by IcoMoon.io -->
<svg version="1.1" xmlns="http://www.w3.org/2000/svg" width="32" height="32" viewBox="0 0 32 32">
<path d="M0.341 31.659v0c-0.435-0.436-0.435-1.155 0-1.609l28.781-28.781c0.436-0.435 1.155-0.435 1.609 0v0c0.436 0.435 0.436 1.155 0 1.609l-28.781 28.781c-0.454 0.454-1.174 0.454-1.609 0z"></path>
<path d="M11.645 31.602v0c-0.435-0.436-0.435-1.155 0-1.609l18.083-18.083c0.436-0.435 1.155-0.435 1.609 0v0c0.436 0.435 0.436 1.155 0 1.609l-18.083 18.083c-0.435 0.435-1.155 0.435-1.609 0z"></path>
<path d="M0.738 20.014v0c-0.435-0.436-0.435-1.155 0-1.609l18.064-18.064c0.436-0.435 1.155-0.435 1.609 0v0c0.436 0.435 0.436 1.155 0 1.609l-18.083 18.083c-0.435 0.417-1.155 0.417-1.591-0.019z"></path>
</svg>
