<!-- Generated by IcoMoon.io -->
<svg version="1.1" xmlns="http://www.w3.org/2000/svg" width="32" height="32" viewBox="0 0 32 32">
<path d="M29.123 23.661h-9.397c-1.586 0-2.877 1.291-2.877 2.877 0 0.358 0.291 0.649 0.649 0.649h13.853c0.358 0 0.649-0.291 0.649-0.649-0-1.586-1.291-2.877-2.877-2.877zM18.252 25.911c0.244-0.573 0.813-0.976 1.474-0.976h9.397c0.661 0 1.23 0.403 1.474 0.976h-12.345zM28.846 18.988v-9.893c0.758-0.2 1.319-0.891 1.319-1.711 0-0.976-0.794-1.77-1.77-1.77h-7.941c-0.976 0-1.77 0.794-1.77 1.77 0 0.82 0.561 1.511 1.319 1.711v3.284h-6.182c-0.032-0.322-0.304-0.573-0.634-0.573h-10.951c-1.233 0-2.236 1.003-2.236 2.236s1.003 2.236 2.236 2.236h10.951c0.33 0 0.602-0.251 0.634-0.573h6.182v3.284c-0.758 0.198-1.319 0.884-1.319 1.698 0 0.976 0.794 1.77 1.77 1.77h7.941c0.976 0 1.77-0.794 1.77-1.77 0-0.813-0.561-1.499-1.319-1.698zM12.549 15.003h-10.314c-0.53-0-0.961-0.431-0.961-0.961s0.431-0.961 0.961-0.961h10.314v1.922zM19.959 7.384c0-0.273 0.222-0.495 0.495-0.495h7.941c0.273 0 0.495 0.222 0.495 0.495s-0.222 0.495-0.495 0.495h-7.941c-0.273 0-0.495-0.222-0.495-0.495zM27.572 9.154v9.777h-6.294v-9.777h6.294zM13.824 14.43v-0.775h6.179v0.775h-6.179zM28.395 21.181h-7.941c-0.273 0-0.495-0.222-0.495-0.495 0-0.27 0.217-0.481 0.495-0.481h7.941c0.278 0 0.495 0.211 0.495 0.481-0 0.273-0.222 0.495-0.495 0.495zM26.327 13.276c-0.352 0-0.637 0.285-0.637 0.637v3.761c0 0.352 0.285 0.637 0.637 0.637s0.637-0.285 0.637-0.637v-3.761c0-0.352-0.285-0.637-0.637-0.637zM26.327 11.3c-0.352 0-0.637 0.285-0.637 0.637v0.191c0 0.352 0.285 0.637 0.637 0.637s0.637-0.285 0.637-0.637v-0.191c0-0.352-0.285-0.637-0.637-0.637z"></path>
</svg>
