<!-- Generated by IcoMoon.io -->
<svg version="1.1" xmlns="http://www.w3.org/2000/svg" width="32" height="32" viewBox="0 0 32 32">
<path d="M27.2 6.4c-0.583 0-1.129 0.157-1.6 0.431v-2.030c0-1.764-1.436-3.2-3.2-3.2-0.659 0-1.271 0.2-1.78 0.542-0.438-1.246-1.626-2.142-3.020-2.142s-2.582 0.896-3.020 2.142c-0.509-0.342-1.122-0.542-1.78-0.542-1.764 0-3.2 1.436-3.2 3.2v11.797l-2.153-3.733c-0.418-0.76-1.099-1.301-1.919-1.524-0.799-0.217-1.63-0.102-2.339 0.324-1.452 0.871-2.004 2.838-1.233 4.387 0.047 0.097 1.069 2.188 4.255 8.561 1.5 3.001 3.147 5.145 4.894 6.375 1.372 0.965 2.319 1.014 2.495 1.014h8c1.362 0 2.628-0.443 3.763-1.316 1.067-0.821 1.993-2.007 2.753-3.526 1.494-2.989 2.284-7.124 2.284-11.958v-5.6c0-1.764-1.436-3.2-3.2-3.2zM28.8 15.2c0 4.587-0.732 8.474-2.116 11.242-0.903 1.805-2.518 3.958-5.084 3.958h-7.984c-0.063-0.005-0.736-0.080-1.752-0.84-1.013-0.758-2.567-2.355-4.222-5.664-3.243-6.487-4.24-8.53-4.25-8.55-0.001-0.002-0.002-0.005-0.004-0.007-0.402-0.804-0.117-1.859 0.623-2.303 0.333-0.2 0.722-0.253 1.096-0.152 0.399 0.108 0.732 0.377 0.939 0.756 0.003 0.006 0.006 0.011 0.009 0.017l2.497 4.328c0.511 0.933 1.085 1.325 1.707 1.166 0.624-0.159 0.94-0.782 0.94-1.851v-12.5c0-0.882 0.718-1.6 1.6-1.6s1.6 0.718 1.6 1.6v10.4c0 0.442 0.358 0.8 0.8 0.8s0.8-0.358 0.8-0.8v-12c0-0.882 0.718-1.6 1.6-1.6s1.6 0.718 1.6 1.6v12c0 0.442 0.358 0.8 0.8 0.8s0.8-0.358 0.8-0.8v-10.4c0-0.882 0.718-1.6 1.6-1.6s1.6 0.718 1.6 1.6v12c0 0.442 0.358 0.8 0.8 0.8s0.8-0.358 0.8-0.8v-7.2c0-0.882 0.718-1.6 1.6-1.6s1.6 0.718 1.6 1.6v5.6z"></path>
</svg>
