<!-- Generated by IcoMoon.io -->
<svg version="1.1" xmlns="http://www.w3.org/2000/svg" width="37" height="32" viewBox="0 0 37 32">
<path d="M4.346 19.843c-0.126-0.126-0.315-0.189-0.504-0.189s-0.378 0.063-0.504 0.189c-0.126 0.126-0.189 0.315-0.189 0.504s0.063 0.378 0.189 0.504c0.126 0.126 0.315 0.189 0.504 0.189s0.378-0.063 0.504-0.189c0.126-0.126 0.189-0.315 0.189-0.504 0.063-0.189 0-0.378-0.189-0.504z"></path>
<path d="M37.228 22.299c-0.126-0.378-0.504-0.63-0.882-0.504l-4.913 1.323-3.087-11.528 4.913-1.323c0.378-0.126 0.63-0.504 0.504-0.882s-0.504-0.63-0.882-0.504l-5.606 1.512c-0.252 0.063-0.441 0.252-0.504 0.441l-1.386-0.819c-0.819-0.504-1.89-0.567-2.772-0.252l-1.386 0.441c-0.882 0.315-1.701 0.882-2.268 1.638l-2.016-1.134c-0.819-0.504-1.764-0.567-2.709-0.252l-3.905 1.386 0.126-0.504c0.126-0.378-0.126-0.756-0.504-0.882l-5.543-1.575c-0.378-0.126-0.756 0.126-0.882 0.504s0.126 0.756 0.504 0.882l4.913 1.323-0.315 1.197c0 0 0 0 0 0l-2.772 10.331-4.913-1.323c-0.378-0.126-0.756 0.126-0.882 0.504s0.126 0.756 0.504 0.882l5.606 1.512c0.063 0 0.126 0 0.189 0 0.252 0 0.441-0.126 0.567-0.315l2.583 0.693c-0.126 0.819 0.315 1.701 1.071 2.142 0.315 0.189 0.693 0.315 1.071 0.315 0.126 0 0.315 0 0.441-0.063 0.189 0.504 0.504 0.945 1.008 1.197 0.315 0.189 0.693 0.315 1.071 0.315 0.126 0 0.315 0 0.441-0.063 0.189 0.504 0.504 0.945 1.008 1.197 0.315 0.189 0.693 0.315 1.071 0.315 0.126 0 0.315 0 0.441-0.063 0.189 0.504 0.504 0.945 1.008 1.197 0.315 0.189 0.693 0.315 1.071 0.315 0.63 0 1.197-0.252 1.638-0.756l0.063 0.063c0.315 0.189 0.693 0.315 1.071 0.315 0.756 0 1.512-0.378 1.89-1.071v0c0.252-0.504 0.378-1.008 0.252-1.512 0.504-0.189 0.945-0.504 1.197-1.008 0.252-0.441 0.378-1.008 0.252-1.512 0.126-0.063 0.252-0.063 0.378-0.126l4.409-1.764c0.126 0.126 0.315 0.189 0.504 0.189 0.063 0 0.126 0 0.189 0l5.606-1.512c0.441-0.063 0.63-0.504 0.567-0.882zM13.228 24.252l-0.882 1.512c-0.189 0.378-0.63 0.441-1.008 0.252s-0.441-0.63-0.252-1.008l0.882-1.512c0.126-0.252 0.378-0.378 0.63-0.378 0.126 0 0.252 0 0.378 0.126 0.189 0.126 0.315 0.252 0.315 0.441 0.063 0.252 0 0.441-0.063 0.567zM15.748 25.701l-0.882 1.512c-0.126 0.189-0.252 0.315-0.441 0.315-0.189 0.063-0.378 0-0.567-0.063-0.189-0.126-0.315-0.252-0.315-0.441-0.063-0.189 0-0.378 0.063-0.567l0.882-1.512c0.126-0.252 0.378-0.378 0.63-0.378 0.126 0 0.252 0 0.378 0.126 0.189 0.126 0.315 0.252 0.315 0.441 0.063 0.252 0 0.441-0.063 0.567zM18.268 27.213l-0.882 1.512c-0.189 0.378-0.63 0.441-1.008 0.252s-0.441-0.63-0.252-1.008l0.882-1.512c0.126-0.189 0.252-0.315 0.441-0.315 0.063 0 0.126 0 0.189 0 0.126 0 0.252 0.063 0.378 0.126 0.189 0.126 0.315 0.252 0.315 0.441 0.063 0.126 0 0.315-0.063 0.504zM20.787 28.661l-0.882 1.512c-0.189 0.378-0.63 0.441-1.008 0.252s-0.441-0.63-0.252-1.008l0.882-1.512c0.126-0.252 0.378-0.378 0.63-0.378 0.126 0 0.252 0 0.378 0.126v0c0.315 0.189 0.441 0.63 0.252 1.008zM22.677 29.732v0c-0.189 0.378-0.63 0.504-1.008 0.252h-0.063l0.378-0.63c0.126-0.189 0.189-0.441 0.252-0.693l0.126 0.063c0 0 0 0 0 0v0c0.378 0.252 0.504 0.693 0.315 1.008zM27.15 24.252c0-0.126 0-0.252-0.063-0.378 0.504-0.189 0.945-0.504 1.197-1.008 0.63-1.071 0.252-2.394-0.819-2.961l-2.961-1.701c-0.378-0.189-0.819-0.063-1.008 0.252-0.189 0.378-0.063 0.819 0.252 1.008l2.961 1.701c0.378 0.189 0.441 0.63 0.252 1.008s-0.63 0.441-1.008 0.252l-2.961-1.701c-0.378-0.189-0.819-0.063-1.008 0.252-0.189 0.378-0.063 0.819 0.252 1.008l2.961 1.701c0.189 0.126 0.315 0.252 0.315 0.441s0 0.378-0.063 0.567c-0.063 0.126-0.126 0.189-0.252 0.252v0c-0.063 0-0.063 0.063-0.126 0.063-0.189 0.063-0.441 0.063-0.63-0.063l-2.961-1.701c-0.378-0.189-0.819-0.063-1.008 0.252-0.189 0.378-0.063 0.819 0.252 1.008l2.961 1.701c0.378 0.189 0.441 0.63 0.252 1.008-0.126 0.189-0.252 0.315-0.441 0.315-0.189 0.063-0.378 0-0.567-0.063l-1.89-1.134c0 0 0 0 0 0s0 0 0 0c-0.504-0.252-1.008-0.378-1.512-0.252-0.189-0.504-0.504-0.945-1.008-1.197-0.441-0.252-1.008-0.378-1.512-0.252-0.189-0.504-0.504-0.945-1.008-1.197s-1.008-0.378-1.512-0.252c-0.189-0.504-0.504-0.945-1.008-1.197v0c-1.071-0.63-2.394-0.252-2.961 0.819l-0.441 1.008-2.772-0.756 2.583-9.575 4.85-1.701c0.504-0.189 1.008-0.126 1.449 0.126l1.89 1.134-1.449 2.394c-0.567 0.945-0.441 2.142 0.378 2.898 0.441 0.441 1.071 0.693 1.638 0.693 0.63 0 1.197-0.252 1.638-0.693l3.654-3.654c0.315-0.252 0.315-0.756 0-1.008-0.252-0.315-0.756-0.315-1.008 0l-3.654 3.654c-0.378 0.378-0.945 0.378-1.26 0-0.315-0.315-0.378-0.756-0.126-1.134l2.016-3.213c0.441-0.693 1.071-1.134 1.764-1.386l1.386-0.441c0.504-0.189 1.134-0.126 1.638 0.126l2.457 1.386 2.772 10.457-2.772 1.134z"></path>
<path d="M33.89 19.843c-0.126-0.126-0.315-0.189-0.504-0.189s-0.378 0.063-0.504 0.189c-0.126 0.126-0.189 0.315-0.189 0.504s0.063 0.378 0.189 0.504c0.126 0.126 0.315 0.189 0.504 0.189s0.378-0.063 0.504-0.189 0.189-0.315 0.189-0.504c0.063-0.189-0.063-0.378-0.189-0.504z"></path>
<path d="M18.646 2.583c-0.378 0-0.756 0.315-0.756 0.756v3.465c0 0.378 0.315 0.756 0.756 0.756 0.378 0 0.756-0.315 0.756-0.756v-3.465c-0.063-0.441-0.378-0.756-0.756-0.756z"></path>
<path d="M19.15 0.189c-0.126-0.126-0.315-0.189-0.504-0.189s-0.378 0.063-0.504 0.189c-0.126 0.126-0.189 0.315-0.189 0.504s0.063 0.378 0.189 0.504c0.126 0.126 0.315 0.189 0.504 0.189s0.378-0.063 0.504-0.189c0.126-0.126 0.189-0.315 0.189-0.504 0-0.126-0.063-0.315-0.189-0.504z"></path>
<path d="M13.543 6.425l-1.26-2.205c-0.189-0.378-0.63-0.441-1.008-0.252s-0.441 0.63-0.252 1.008l1.26 2.205c0.126 0.252 0.378 0.378 0.63 0.378 0.126 0 0.252 0 0.378-0.126 0.315-0.252 0.441-0.693 0.252-1.008z"></path>
<path d="M25.953 3.969c-0.315-0.189-0.756-0.126-0.945 0.252l-1.26 2.205c-0.189 0.378-0.063 0.819 0.252 1.008 0.126 0.063 0.252 0.126 0.378 0.126 0.252 0 0.504-0.126 0.63-0.378l1.26-2.205c0.189-0.378 0.063-0.819-0.315-1.008z"></path>
</svg>
