<!-- Generated by IcoMoon.io -->
<svg version="1.1" xmlns="http://www.w3.org/2000/svg" width="37" height="32" viewBox="0 0 37 32">
<path d="M4.4 19.84c-0.16-0.16-0.32-0.24-0.48-0.24s-0.4 0.080-0.48 0.24c-0.24 0.16-0.32 0.32-0.32 0.56s0.080 0.4 0.24 0.48 0.32 0.24 0.48 0.24c0.16 0 0.4-0.080 0.48-0.24 0.16-0.16 0.24-0.32 0.24-0.48 0-0.24-0.080-0.4-0.16-0.56zM37.28 22.32c-0.080-0.4-0.48-0.64-0.88-0.48l-4.96 1.28-3.12-11.52 4.96-1.28c0.4-0.080 0.64-0.48 0.48-0.88-0.080-0.4-0.48-0.64-0.88-0.48l-5.6 1.52c-0.24 0.080-0.4 0.24-0.48 0.48l-1.44-0.8c-0.88-0.48-1.84-0.56-2.8-0.24l-1.36 0.48c-0.88 0.32-1.68 0.88-2.32 1.6l-1.92-1.2c-0.8-0.48-1.76-0.56-2.72-0.24l-3.84 1.28 0.16-0.56c0.080-0.4-0.16-0.8-0.48-0.88l-5.6-1.52c-0.4-0.080-0.8 0.16-0.88 0.48-0.080 0.4 0.16 0.8 0.48 0.88l4.96 1.28-0.4 1.28c0 0 0 0 0 0l-2.8 10.32-4.96-1.28c-0.4-0.080-0.8 0.16-0.88 0.48-0.080 0.4 0.16 0.8 0.48 0.88l5.6 1.52c0.080 0 0.16 0 0.16 0 0.24 0 0.48-0.080 0.56-0.32l2.64 0.72c-0.080 0.88 0.32 1.68 1.040 2.16 0.32 0.16 0.72 0.32 1.12 0.32 0.16 0 0.32 0 0.48-0.080 0.16 0.48 0.48 0.96 0.96 1.2 0.32 0.16 0.72 0.32 1.12 0.32 0.16 0 0.32 0 0.48-0.080 0.16 0.48 0.48 0.96 0.96 1.2 0.32 0.16 0.72 0.32 1.12 0.32 0.16 0 0.32 0 0.48-0.080 0.16 0.48 0.48 0.96 0.96 1.2 0.32 0.16 0.72 0.32 1.12 0.32 0.64 0 1.2-0.24 1.6-0.72l0.080 0.080c0.32 0.16 0.72 0.32 1.12 0.32 0.72 0 1.52-0.4 1.92-1.12v0c0.24-0.48 0.32-1.040 0.24-1.52 0.48-0.16 0.96-0.48 1.2-0.96s0.32-1.040 0.24-1.52c0.16-0.080 0.24-0.080 0.32-0.16l4.4-1.76c0.16 0.16 0.32 0.24 0.48 0.24 0.080 0 0.16 0 0.16 0l5.6-1.52c0.48-0.16 0.72-0.56 0.64-0.96zM13.2 24.32l-0.88 1.52c-0.24 0.32-0.64 0.48-0.96 0.24s-0.48-0.64-0.24-0.96l0.88-1.52c0.16-0.24 0.4-0.4 0.64-0.4 0.16 0 0.24 0 0.4 0.080s0.32 0.24 0.32 0.48c0 0.16-0.080 0.4-0.16 0.56zM15.76 25.76l-0.88 1.52c-0.080 0.16-0.24 0.32-0.48 0.32-0.16 0.080-0.4 0-0.56-0.080s-0.32-0.24-0.32-0.48c-0.080-0.16 0-0.4 0.080-0.56l0.88-1.52c0.16-0.24 0.4-0.4 0.64-0.4 0.16 0 0.24 0 0.4 0.080s0.32 0.24 0.32 0.48c0 0.24 0 0.48-0.080 0.64zM18.24 27.2l-0.88 1.52c-0.24 0.32-0.64 0.48-0.96 0.24s-0.48-0.64-0.24-0.96l0.88-1.52c0.080-0.16 0.24-0.32 0.48-0.32 0.080 0 0.16 0 0.16 0 0.16 0 0.24 0 0.4 0.080s0.32 0.24 0.32 0.48c0 0.16-0.080 0.32-0.16 0.48zM20.8 28.64l-0.88 1.52c-0.24 0.32-0.64 0.48-0.96 0.24s-0.48-0.64-0.24-0.96l0.88-1.52c0.16-0.24 0.4-0.4 0.64-0.4 0.16 0 0.24 0 0.4 0.080v0c0.24 0.24 0.32 0.72 0.16 1.040zM22.72 29.76v0c-0.24 0.32-0.64 0.48-0.96 0.24v0l0.4-0.64c0.16-0.24 0.24-0.48 0.24-0.72v0.16c0 0 0 0 0 0v0c0.4 0.16 0.48 0.64 0.32 0.96zM27.2 24.24c0-0.080 0-0.24-0.080-0.32 0.48-0.16 0.96-0.48 1.2-0.96 0.64-1.040 0.24-2.4-0.8-2.96l-2.96-1.76c-0.32-0.24-0.8-0.080-0.96 0.24-0.24 0.32-0.080 0.8 0.24 0.96l2.96 1.76c0.32 0.24 0.48 0.64 0.24 0.96s-0.64 0.48-0.96 0.24l-2.96-1.76c-0.32-0.24-0.8-0.080-0.96 0.24-0.24 0.32-0.080 0.8 0.24 0.96l2.96 1.76c0.16 0.080 0.32 0.24 0.32 0.48s0 0.4-0.080 0.56c-0.080 0.080-0.16 0.16-0.24 0.24v0c-0.080 0-0.080 0.080-0.16 0.080-0.16 0.080-0.4 0.080-0.64-0.080l-2.96-1.6c-0.32-0.24-0.8-0.080-0.96 0.24-0.24 0.32-0.080 0.8 0.24 0.96l2.96 1.76c0.32 0.24 0.48 0.64 0.24 0.96-0.080 0.16-0.24 0.32-0.48 0.32-0.16 0.080-0.4 0-0.56-0.080l-1.76-1.040c0 0 0 0 0 0s0 0 0 0c-0.48-0.24-1.040-0.32-1.52-0.24-0.16-0.48-0.48-0.96-0.96-1.2s-1.040-0.32-1.52-0.24c-0.16-0.48-0.48-0.96-0.96-1.2s-1.040-0.32-1.52-0.24c-0.16-0.48-0.48-0.96-0.96-1.2v0c-1.040-0.64-2.4-0.24-2.96 0.8l-0.56 0.96-2.72-0.72 2.56-9.52 4.88-1.76c0.48-0.16 1.040-0.080 1.44 0.16l1.92 1.12-1.44 2.4c-0.56 0.96-0.48 2.16 0.32 2.96 0.48 0.48 1.040 0.72 1.68 0.72s1.2-0.24 1.68-0.72l3.68-3.68c0.32-0.32 0.32-0.72 0-1.040s-0.72-0.32-1.040 0l-3.68 3.68c-0.32 0.32-0.96 0.32-1.28 0s-0.32-0.8-0.16-1.12l2-3.2c0.4-0.64 1.040-1.2 1.76-1.44l1.36-0.48c0.56-0.16 1.12-0.16 1.6 0.16l2.48 1.36 2.56 10.48-2.72 1.040zM33.92 19.84c-0.16-0.16-0.32-0.24-0.48-0.24s-0.4 0.080-0.48 0.24c-0.16 0.16-0.24 0.32-0.24 0.48s0.080 0.4 0.24 0.48c0.16 0.16 0.32 0.24 0.48 0.24s0.4-0.080 0.48-0.24c0.16-0.16 0.24-0.32 0.24-0.48s-0.080-0.32-0.24-0.48zM18.64 2.56c-0.4 0-0.72 0.32-0.72 0.72v3.44c0 0.4 0.32 0.72 0.72 0.72s0.72-0.32 0.72-0.72v-3.44c0-0.4-0.32-0.72-0.72-0.72zM19.12 0.24c-0.080-0.16-0.32-0.24-0.48-0.24s-0.4 0.080-0.48 0.24-0.24 0.32-0.24 0.48c0 0.16 0.080 0.4 0.24 0.48 0.16 0.16 0.32 0.24 0.48 0.24s0.4-0.080 0.48-0.24c0.16-0.16 0.24-0.32 0.24-0.48s-0.080-0.4-0.24-0.48zM13.52 6.4l-1.28-2.16c-0.24-0.32-0.64-0.48-0.96-0.24s-0.48 0.64-0.24 0.96l1.28 2.16c0.16 0.24 0.4 0.4 0.64 0.4 0.16 0 0.24 0 0.4-0.080 0.24-0.24 0.4-0.64 0.16-1.040zM26 3.92c-0.32-0.24-0.8-0.080-0.96 0.24l-1.28 2.24c-0.24 0.32-0.080 0.8 0.24 0.96 0.080 0.080 0.24 0.080 0.4 0.080 0.24 0 0.48-0.16 0.64-0.4l1.28-2.16c0.16-0.24 0-0.72-0.32-0.96z"></path>
</svg>
