<!-- Generated by IcoMoon.io -->
<svg version="1.1" xmlns="http://www.w3.org/2000/svg" width="32" height="32" viewBox="0 0 32 32">
<path d="M16 32c7.818 0 14.063-10.113 14.063-17.875 0-7.789-6.308-14.125-14.063-14.125s-14.063 6.336-14.063 14.125c0 7.472 5.807 13.607 13.125 14.094v3.781zM3.813 14.125c0-6.755 5.467-12.25 12.188-12.25s12.188 5.495 12.188 12.25c0 6.709-5.193 15.132-11.25 15.938v-3.688h-0.938c-6.72 0-12.188-5.495-12.188-12.25z"></path>
<path d="M18.813 20.688h0.938c2.585 0 4.688-2.103 4.688-4.688v-6.563h-7.5v7.5h1.875zM18.813 11.313h3.75v4.688c0 1.222-0.784 2.265-1.875 2.652v-3.589h-1.875z"></path>
<path d="M7.563 16.938h1.875v3.75h0.938c2.585 0 4.688-2.103 4.688-4.688v-6.563h-7.5zM9.438 11.313h3.75v4.688c0 1.222-0.784 2.265-1.875 2.652v-3.589h-1.875z"></path>
</svg>
