<!-- Generated by IcoMoon.io -->
<svg version="1.1" xmlns="http://www.w3.org/2000/svg" width="32" height="32" viewBox="0 0 32 32">
<path d="M15.2 30.4c-0.134 0-0.268-0.034-0.389-0.101-0.186-0.103-4.603-2.577-8.591-6.531-0.314-0.311-0.316-0.818-0.005-1.131s0.818-0.316 1.131-0.005c3.167 3.14 6.697 5.354 7.853 6.042 1.156-0.689 4.691-2.908 7.853-6.042 0.314-0.311 0.82-0.309 1.131 0.005s0.309 0.82-0.005 1.131c-3.988 3.954-8.405 6.427-8.591 6.531-0.121 0.067-0.255 0.101-0.389 0.101zM2.046 17.601c-0.3 0-0.588-0.17-0.724-0.46-0.877-1.864-1.322-3.729-1.322-5.541 0-4.632 3.768-8.4 8.4-8.4 1.568 0 3.233 0.588 4.689 1.655 0.852 0.624 1.576 1.376 2.111 2.175 0.535-0.799 1.259-1.551 2.111-2.175 1.456-1.067 3.121-1.655 4.689-1.655 4.632 0 8.4 3.768 8.4 8.4 0 1.812-0.445 3.676-1.322 5.541-0.188 0.4-0.665 0.572-1.064 0.383s-0.571-0.665-0.383-1.064c0.776-1.65 1.169-3.285 1.169-4.86 0-3.75-3.050-6.8-6.8-6.8-2.725 0-5.37 2.241-6.041 4.253-0.109 0.327-0.415 0.547-0.759 0.547s-0.65-0.22-0.759-0.547c-0.671-2.012-3.316-4.253-6.041-4.253-3.75 0-6.8 3.050-6.8 6.8 0 1.575 0.393 3.21 1.17 4.86 0.188 0.4 0.016 0.876-0.383 1.064-0.11 0.052-0.226 0.076-0.34 0.076zM16.823 24.001c-0.007 0-0.014-0-0.021-0-0.323-0.007-0.91-0.175-1.205-1.225l-1.947-6.935-1.292 5.247c-0.253 1.029-0.841 1.244-1.168 1.281s-0.948-0.044-1.422-0.992l-0.969-1.938c-0.046-0.092-0.089-0.151-0.122-0.188-0.005 0.007-0.011 0.015-0.017 0.024-0.592 0.869-1.908 1.525-3.061 1.525h-1.6c-0.442 0-0.8-0.358-0.8-0.8s0.358-0.8 0.8-0.8h1.6c0.674 0 1.473-0.436 1.739-0.825 0.356-0.523 0.876-0.801 1.426-0.765 0.598 0.040 1.133 0.446 1.466 1.114l0.712 1.424 1.498-6.085c0.252-1.024 0.771-1.247 1.161-1.253 0.391-0.008 0.916 0.199 1.201 1.215l2.055 7.321 1.885-5.773c0.328-1.005 0.931-1.178 1.26-1.192s0.945 0.109 1.355 1.083l1.158 2.751c0.217 0.515 0.924 0.985 1.484 0.985h2.4c0.442 0 0.8 0.358 0.8 0.8s-0.358 0.8-0.8 0.8h-2.4c-1.195 0-2.494-0.863-2.958-1.964l-0.947-2.249-2.038 6.241c-0.331 1.014-0.906 1.173-1.234 1.173z"></path>
</svg>
