<!-- Generated by IcoMoon.io -->
<svg version="1.1" xmlns="http://www.w3.org/2000/svg" width="32" height="32" viewBox="0 0 32 32">
<path d="M31.452 15.513h-2.707c1.125-2.555 1.004-4.624 0.578-6.023-0.73-2.494-3.194-5.202-6.844-5.202-0.973 0-1.947 0.183-2.951 0.548-1.734 0.639-2.89 1.338-3.407 1.703-0.517-0.365-1.643-1.065-3.407-1.703-1.004-0.365-2.008-0.548-2.951-0.548-3.65 0-6.114 2.707-6.844 5.202-0.426 1.491-0.578 3.741 0.852 6.57h-3.285c-0.274 0-0.487 0.213-0.487 0.487s0.213 0.487 0.487 0.487h3.863c0.152 0.274 0.335 0.548 0.548 0.821 3.163 4.563 10.038 9.521 11.285 9.825v0.030c0 0 0.030 0 0.061-0.030 0.030 0 0.061 0 0.091 0v-0.030c1.065-0.517 7.665-4.776 11.133-9.825 0.335-0.456 0.608-0.913 0.852-1.369h3.194c0.274 0 0.487-0.213 0.487-0.487s-0.274-0.456-0.548-0.456zM26.586 17.308c-3.224 4.715-9.156 8.517-10.433 9.338-1.308-0.821-7.209-4.654-10.464-9.338-0.061-0.091-0.122-0.183-0.183-0.274h4.471c0.182 0 0.365-0.091 0.456-0.274l2.038-4.015 3.194 8.183c0.061 0.183 0.274 0.304 0.456 0.304 0 0 0 0 0.030 0 0.213 0 0.395-0.152 0.456-0.365l2.798-9.582 1.491 4.837c0.061 0.183 0.213 0.304 0.395 0.335s0.365-0.061 0.487-0.213l1.186-1.734 1.004 1.703c0.091 0.152 0.243 0.243 0.426 0.243h2.738c-0.183 0.304-0.365 0.578-0.548 0.852zM27.681 15.513h-2.981l-1.247-2.129c-0.091-0.152-0.243-0.243-0.426-0.243s-0.335 0.061-0.426 0.213l-1.034 1.521-1.673-5.445c-0.061-0.213-0.274-0.335-0.487-0.365-0.213 0-0.426 0.152-0.487 0.365l-2.829 9.764-3.072-7.848c-0.061-0.182-0.243-0.304-0.426-0.304-0.213 0-0.365 0.091-0.456 0.274l-2.403 4.715h-4.837c-1.217-2.221-1.551-4.35-1.004-6.266 0.639-2.16 2.738-4.471 5.901-4.471 0.852 0 1.734 0.183 2.616 0.487 2.221 0.821 3.407 1.764 3.437 1.764 0.182 0.152 0.426 0.152 0.608 0 0 0 1.186-0.943 3.437-1.764 0.882-0.335 1.764-0.487 2.616-0.487 3.133 0 5.262 2.312 5.901 4.471 0.517 1.764 0.243 3.711-0.73 5.749z"></path>
</svg>
