<!-- Generated by IcoMoon.io -->
<svg version="1.1" xmlns="http://www.w3.org/2000/svg" width="32" height="32" viewBox="0 0 32 32">
<path d="M29.732 4.9c-1.512-1.476-3.601-2.214-6.268-2.214-0.738 0-1.491 0.128-2.259 0.384s-1.482 0.601-2.143 1.036c-0.661 0.434-1.229 0.842-1.706 1.223s-0.928 0.786-1.357 1.214c-0.429-0.428-0.881-0.833-1.357-1.214s-1.045-0.788-1.706-1.223c-0.661-0.435-1.375-0.78-2.143-1.036s-1.521-0.384-2.259-0.384c-2.667 0-4.756 0.738-6.268 2.214s-2.268 3.524-2.268 6.143c0 0.798 0.14 1.619 0.42 2.464s0.598 1.566 0.955 2.161c0.357 0.595 0.762 1.175 1.214 1.741s0.783 0.955 0.991 1.169c0.208 0.214 0.372 0.369 0.491 0.465l11.143 10.75c0.214 0.214 0.476 0.322 0.786 0.322s0.572-0.107 0.786-0.322l11.125-10.715c2.726-2.726 4.089-5.404 4.089-8.035 0-2.619-0.756-4.667-2.268-6.142zM26.357 17.4l-10.357 9.982-10.375-10c-2.226-2.226-3.339-4.339-3.339-6.339 0-0.964 0.128-1.815 0.384-2.553s0.583-1.325 0.982-1.759c0.399-0.435 0.884-0.788 1.455-1.063s1.131-0.458 1.679-0.554c0.548-0.095 1.131-0.143 1.75-0.143s1.286 0.152 2 0.455c0.714 0.304 1.372 0.684 1.973 1.143s1.116 0.887 1.545 1.286c0.428 0.399 0.786 0.765 1.071 1.098 0.214 0.262 0.506 0.393 0.875 0.393s0.661-0.131 0.875-0.393c0.286-0.333 0.643-0.699 1.071-1.098s0.944-0.827 1.544-1.286c0.601-0.458 1.259-0.839 1.974-1.143s1.381-0.455 2-0.455 1.202 0.048 1.75 0.143c0.548 0.095 1.107 0.28 1.679 0.554s1.057 0.628 1.455 1.063c0.399 0.434 0.726 1.021 0.982 1.759s0.384 1.589 0.384 2.553c-0 2-1.119 4.119-3.357 6.357z"></path>
</svg>
