<!-- Generated by IcoMoon.io -->
<svg version="1.1" xmlns="http://www.w3.org/2000/svg" width="32" height="32" viewBox="0 0 32 32">
<path d="M29.505 5.47c-1.685-1.723-3.939-2.672-6.347-2.672-2.371 0-4.6 0.923-6.276 2.6l-0.865 0.866-0.866-0.866c-1.677-1.677-3.905-2.6-6.275-2.6s-4.6 0.923-6.276 2.6c-1.676 1.676-2.599 3.905-2.599 6.276s0.923 4.599 2.599 6.276l11.093 11.093c0.641 0.641 1.482 0.961 2.324 0.961s1.683-0.32 2.324-0.961l11.021-11.020c3.462-3.462 3.526-9.092 0.144-12.551zM28.199 16.859l-11.021 11.020c-0.641 0.641-1.683 0.641-2.324-0l-11.093-11.093c-1.366-1.366-2.118-3.182-2.118-5.114s0.752-3.748 2.118-5.114c1.366-1.366 3.182-2.119 5.114-2.119s3.747 0.752 5.113 2.119l0.867 0.867-1.327 1.328c-0.321 0.321-0.32 0.841 0 1.162 0.16 0.16 0.371 0.24 0.581 0.24s0.421-0.080 0.581-0.241l3.354-3.356c1.366-1.366 3.182-2.119 5.114-2.119 1.962 0 3.798 0.774 5.172 2.178 2.756 2.819 2.697 7.412-0.131 10.24zM29.143 11.3c-0.090-1.461-0.709-2.835-1.743-3.869-0.732-0.732-1.64-1.264-2.627-1.538-0.437-0.122-0.89 0.134-1.012 0.571s0.134 0.89 0.571 1.012c0.714 0.199 1.373 0.585 1.905 1.117 0.75 0.75 1.2 1.748 1.265 2.809 0.027 0.436 0.389 0.771 0.819 0.771 0.017 0 0.034-0.001 0.051-0.002 0.453-0.028 0.797-0.418 0.769-0.871z"></path>
</svg>
