<!-- Generated by IcoMoon.io -->
<svg version="1.1" xmlns="http://www.w3.org/2000/svg" width="32" height="32" viewBox="0 0 32 32">
<path d="M15.2 30.4c-0.134 0-0.268-0.034-0.389-0.101-0.15-0.083-3.722-2.082-7.348-5.355-2.145-1.937-3.858-3.918-5.092-5.888-1.574-2.514-2.372-5.022-2.372-7.456 0-4.632 3.768-8.4 8.4-8.4 1.568 0 3.233 0.588 4.689 1.655 0.852 0.624 1.576 1.376 2.111 2.175 0.535-0.799 1.259-1.551 2.111-2.175 1.456-1.067 3.121-1.655 4.689-1.655 4.632 0 8.4 3.768 8.4 8.4 0 2.433-0.798 4.942-2.372 7.456-1.234 1.97-2.947 3.951-5.092 5.888-3.626 3.274-7.197 5.272-7.348 5.355-0.121 0.067-0.255 0.101-0.389 0.101zM8.4 4.8c-3.75 0-6.8 3.050-6.8 6.8 0 4.863 3.759 9.284 6.913 12.136 2.817 2.547 5.67 4.333 6.687 4.939 1.017-0.606 3.87-2.392 6.687-4.939 3.154-2.852 6.913-7.272 6.913-12.136 0-3.75-3.050-6.8-6.8-6.8-2.725 0-5.37 2.241-6.041 4.253-0.109 0.327-0.415 0.547-0.759 0.547s-0.65-0.22-0.759-0.547c-0.671-2.012-3.316-4.253-6.041-4.253z"></path>
</svg>
