<!-- Generated by IcoMoon.io -->
<svg version="1.1" xmlns="http://www.w3.org/2000/svg" width="32" height="32" viewBox="0 0 32 32">
<path d="M30.4 14.4v0c-0.192-5.888-4.032-11.072-9.6-13.056-0.128-0.768-0.832-1.344-1.6-1.344h-6.4c-0.768 0-1.472 0.576-1.6 1.344-5.568 1.92-9.408 7.104-9.6 13.056v0c-0.896 0-1.6 0.704-1.6 1.6v1.088c0 0.896 0.704 1.6 1.6 1.6h28.8c0.896 0 1.6-0.704 1.6-1.6v-1.088c0-0.896-0.704-1.6-1.6-1.6zM11.2 2.496v9.216c0 0.32 0.256 0.512 0.512 0.512 0.32 0 0.512-0.256 0.512-0.512v-10.112c0-0.32 0.256-0.512 0.512-0.512h2.688v11.712c0 0.32 0.256 0.512 0.512 0.512s0.512-0.256 0.512-0.512v-11.712h2.752c0.32 0 0.512 0.256 0.512 0.512v10.112c0 0.32 0.256 0.512 0.512 0.512 0.32 0 0.512-0.256 0.512-0.512v-9.216c4.992 1.92 8.32 6.592 8.512 11.904h-26.56c0.192-5.312 3.52-9.984 8.512-11.904zM30.912 17.088c0 0.32-0.256 0.512-0.512 0.512h-28.8c-0.32 0-0.512-0.256-0.512-0.512v-1.088c0-0.32 0.256-0.512 0.512-0.512h28.8c0.32 0 0.512 0.256 0.512 0.512v1.088z"></path>
<path d="M13.312 23.488h-6.912c-0.896 0-1.6 0.704-1.6 1.6v2.112c0 0.32 0.256 0.512 0.512 0.512 0.32 0 0.512-0.256 0.512-0.512v-2.112c0-0.32 0.256-0.512 0.512-0.512h6.912c0.32 0 0.512-0.256 0.512-0.512s-0.128-0.576-0.448-0.576z"></path>
<path d="M31.488 23.488h-2.176c-0.256-1.216-1.344-2.112-2.624-2.112h-21.376c-1.472 0-2.688 1.216-2.688 2.688h-2.112c-0.32 0-0.512 0.256-0.512 0.512v4.224c0 0.32 0.256 0.512 0.512 0.512h2.304c0.448 1.6 1.92 2.688 3.584 2.688h3.2c2.432 0 4.672-1.28 5.952-3.392 0.128-0.256 0.448-0.32 0.704-0.192 0.064 0.064 0.128 0.128 0.192 0.192 1.28 2.112 3.52 3.392 5.952 3.392h3.2c1.856 0 3.456-1.344 3.712-3.2h2.176c0.32 0 0.512-0.256 0.512-0.512v-4.288c0-0.32-0.256-0.512-0.512-0.512zM2.688 28.288h-1.6v-1.6h1.6v1.6zM2.688 25.6h-1.6v-0.512h1.6v0.512zM28.288 28.288c0 1.472-1.216 2.688-2.688 2.688h-3.2c-2.048 0-3.968-1.088-5.056-2.88-0.448-0.768-1.408-0.96-2.176-0.512-0.192 0.128-0.384 0.32-0.512 0.512-1.088 1.792-2.944 2.88-5.056 2.88h-3.2c-1.472 0-2.688-1.216-2.688-2.688v-4.288c0-0.896 0.768-1.6 1.6-1.6h21.312c0.896 0 1.6 0.704 1.6 1.6v4.288zM30.912 27.712h-1.6v-1.6h1.6v1.6zM30.912 25.088h-1.6v-0.512h1.6v0.512z"></path>
<path d="M16.512 23.488h-1.088c-0.32 0-0.512 0.256-0.512 0.512s0.256 0.512 0.512 0.512h1.088c0.32 0 0.512-0.256 0.512-0.512s-0.192-0.512-0.512-0.512z"></path>
</svg>
