<!-- Generated by IcoMoon.io -->
<svg version="1.1" xmlns="http://www.w3.org/2000/svg" width="32" height="32" viewBox="0 0 32 32">
<path d="M27.707 19.044c-0.234 0-0.39 0.156-0.39 0.39v9.678c0 1.171-0.937 2.185-2.185 2.185h-22.166c-1.249-0.078-2.185-1.015-2.185-2.263v-21.541c0-1.249 0.937-2.185 2.185-2.185h3.746c0.234 0 0.39-0.156 0.39-0.39s-0.156-0.39-0.39-0.39h-3.746c-1.639 0-2.966 1.327-2.966 2.966v21.619c0 1.561 1.327 2.888 2.966 2.888h22.244c1.639 0 2.966-1.327 2.966-2.966v-9.6c-0.078-0.234-0.312-0.39-0.468-0.39z"></path>
<path d="M29.346 0h-15.922c-1.639 0-2.966 1.327-2.966 2.966v6.634c0 0.234 0.156 0.39 0.39 0.39s0.39-0.156 0.39-0.39v-6.634c0-1.171 0.937-2.185 2.185-2.185h16c1.171 0 2.185 0.937 2.185 2.185v10.38c0 1.171-0.937 2.185-2.185 2.185h-4.527l-5.385 4.917c-0.156 0.156-0.312 0.078-0.39 0.078s-0.234-0.078-0.234-0.312v-4.761h-2.029c-0.234 0-0.39 0.156-0.39 0.39s0.156 0.39 0.39 0.39h1.249v3.98c0 0.468 0.234 0.859 0.702 1.015 0.156 0.078 0.312 0.078 0.468 0.078 0.312 0 0.546-0.078 0.78-0.312l5.073-4.761h4.293c1.639 0 2.966-1.327 2.966-2.966v-10.302c-0.078-1.639-1.405-2.966-3.044-2.966z"></path>
<path d="M8.195 19.59c-2.341 0.78-4.059 2.966-4.059 5.619 0 0.234 0.156 0.39 0.39 0.39s0.39-0.156 0.39-0.39c0-2.81 2.263-5.151 5.151-5.151s5.151 2.263 5.151 5.151c0 0.234 0.156 0.39 0.39 0.39s0.39-0.156 0.39-0.39c0-2.654-1.717-4.839-4.059-5.62 1.171-0.624 2.029-1.873 2.029-3.356 0-2.107-1.717-3.824-3.824-3.824s-3.824 1.717-3.824 3.824c-0.156 1.405 0.702 2.732 1.873 3.356zM10.068 13.19c1.717 0 3.044 1.405 3.044 3.044 0 1.717-1.405 3.044-3.044 3.044s-3.044-1.405-3.044-3.044c-0.078-1.717 1.327-3.044 3.044-3.044z"></path>
<path d="M18.107 8.898c0.234 0 0.39-0.156 0.39-0.39s-0.156-0.39-0.39-0.39h-2.107c-0.234 0-0.39 0.156-0.39 0.39s0.156 0.39 0.39 0.39h2.107z"></path>
<path d="M22.556 8.898c0.234 0 0.39-0.156 0.39-0.39s-0.156-0.39-0.39-0.39h-2.107c-0.234 0-0.39 0.156-0.39 0.39s0.156 0.39 0.39 0.39h2.107z"></path>
<path d="M27.083 8.898c0.234 0 0.39-0.156 0.39-0.39s-0.156-0.39-0.39-0.39h-2.107c-0.234 0-0.39 0.156-0.39 0.39s0.156 0.39 0.39 0.39h2.107z"></path>
</svg>
