<!-- Generated by IcoMoon.io -->
<svg version="1.1" xmlns="http://www.w3.org/2000/svg" width="32" height="32" viewBox="0 0 32 32">
<path d="M31.766 15.434c-0.312-0.312-0.819-0.312-1.131 0l-5.737 5.737c-0.936 0.936-2.458 0.936-3.394 0l-7.474-7.475c-0.451-0.451-0.699-1.053-0.699-1.697s0.248-1.246 0.699-1.697l5.737-5.737c0.312-0.312 0.312-0.819 0-1.131s-0.819-0.312-1.131 0l-5.737 5.737c-0.753 0.753-1.168 1.757-1.168 2.828 0 0.456 0.076 0.901 0.221 1.319l-11.716 11.716c-0.15 0.15-0.234 0.354-0.234 0.566v2.4c0 0.442 0.358 0.8 0.8 0.8h15.2c0.212 0 0.416-0.084 0.566-0.234l5.316-5.316c0.418 0.145 0.862 0.221 1.319 0.221 1.071 0 2.075-0.415 2.828-1.168l5.737-5.737c0.312-0.312 0.312-0.819 0-1.131zM15.669 27.2h-14.069v-1.269l11.202-11.202c0.031 0.033 0.062 0.067 0.095 0.099l7.475 7.475c0.032 0.032 0.066 0.064 0.099 0.095l-4.802 4.802z"></path>
</svg>
