<!-- Generated by IcoMoon.io -->
<svg version="1.1" xmlns="http://www.w3.org/2000/svg" width="32" height="32" viewBox="0 0 32 32">
<path d="M27.314 4.686c-3.022-3.022-7.040-4.686-11.314-4.686-4.951 0-9.56 2.281-12.565 6.092v-2.092c0-0.442-0.358-0.8-0.8-0.8s-0.8 0.358-0.8 0.8v4.755c0 0.366 0.248 0.685 0.603 0.775 0.154 0.039 0.312 0.031 0.455-0.018v0l4.566-1.555c0.418-0.142 0.642-0.597 0.499-1.015s-0.597-0.642-1.015-0.499l-2.385 0.812c2.701-3.533 6.913-5.655 11.442-5.655 7.94 0 14.4 6.46 14.4 14.4s-6.46 14.4-14.4 14.4c-5.306 0-10.166-2.904-12.686-7.579-0.21-0.389-0.695-0.534-1.084-0.325s-0.534 0.695-0.325 1.084c2.799 5.194 8.199 8.42 14.094 8.42 4.274 0 8.292-1.664 11.314-4.686s4.686-7.040 4.686-11.314c0-4.274-1.664-8.292-4.686-11.314zM16 16.8c-0.134 0-0.267-0.033-0.389-0.101l-7.2-4c-0.386-0.215-0.525-0.702-0.311-1.088s0.702-0.525 1.088-0.311l6.784 3.769 8.398-5.344c0.373-0.237 0.867-0.127 1.104 0.245s0.127 0.867-0.245 1.104l-8.8 5.6c-0.131 0.083-0.28 0.125-0.43 0.125z"></path>
</svg>
