<!-- Generated by IcoMoon.io -->
<svg version="1.1" xmlns="http://www.w3.org/2000/svg" width="32" height="32" viewBox="0 0 32 32">
<path d="M31.66 13.404l-15.168-11.106c-0.293-0.214-0.69-0.214-0.982 0l-15.169 11.106c-0.37 0.271-0.451 0.792-0.18 1.162s0.792 0.451 1.162 0.18l14.677-10.746 14.677 10.746c0.148 0.108 0.32 0.161 0.491 0.161 0.256 0 0.509-0.118 0.671-0.34 0.271-0.37 0.191-0.891-0.18-1.162zM27.64 14.934c-0.459 0-0.831 0.372-0.831 0.831v13.234h-6.651v-7.224c0-2.293-1.865-4.157-4.157-4.157s-4.157 1.865-4.157 4.157v7.224h-6.651v-13.234c0-0.459-0.372-0.831-0.831-0.831s-0.831 0.372-0.831 0.831v14.066c0 0.459 0.372 0.831 0.831 0.831h8.314c0.437 0 0.795-0.338 0.828-0.767 0.002-0.019 0.003-0.041 0.003-0.065v-8.056c0-1.376 1.119-2.495 2.495-2.495s2.495 1.119 2.495 2.495v8.056c0 0.024 0.001 0.045 0.003 0.064 0.033 0.429 0.391 0.767 0.828 0.767h8.314c0.459 0 0.831-0.372 0.831-0.831v-14.066c-0-0.459-0.372-0.832-0.831-0.832z"></path>
</svg>
