<!-- Generated by IcoMoon.io -->
<svg version="1.1" xmlns="http://www.w3.org/2000/svg" width="32" height="32" viewBox="0 0 32 32">
<path d="M31.793 19.463l-14.127-15.614c-0.439-0.485-1.031-0.753-1.667-0.753-0 0 0 0 0 0-0.636 0-1.228 0.267-1.667 0.753l-14.127 15.614c-0.296 0.328-0.271 0.834 0.056 1.13 0.153 0.139 0.345 0.207 0.536 0.207 0.218 0 0.436-0.089 0.594-0.263l3.407-3.765v12.829c0 1.323 1.077 2.4 2.4 2.4h17.6c1.323 0 2.4-1.077 2.4-2.4v-12.829l3.407 3.765c0.296 0.328 0.802 0.353 1.13 0.056s0.353-0.802 0.056-1.13zM19.2 30.4h-6.4v-7.2c0-0.441 0.359-0.8 0.8-0.8h4.8c0.441 0 0.8 0.359 0.8 0.8v7.2zM25.6 29.6c0 0.441-0.359 0.8-0.8 0.8h-4v-7.2c0-1.323-1.077-2.4-2.4-2.4h-4.8c-1.323 0-2.4 1.077-2.4 2.4v7.2h-4c-0.441 0-0.8-0.359-0.8-0.8v-14.597l9.12-10.080c0.132-0.146 0.303-0.226 0.48-0.226s0.348 0.080 0.48 0.226l9.12 10.080v14.597z"></path>
</svg>
