<!-- Generated by IcoMoon.io -->
<svg version="1.1" xmlns="http://www.w3.org/2000/svg" width="42" height="32" viewBox="0 0 42 32">
<path d="M41.21 28.878h-2.966c-0.156-1.327-1.327-2.341-2.654-2.341s-2.498 1.015-2.654 2.341h-8.663c0 0-0.078 0-0.078 0s-0.078 0-0.078 0c-0.234 0-0.39 0.156-0.39 0.39 0 1.093-0.859 1.951-1.951 1.951s-1.951-0.859-1.951-1.951 0.859-1.951 1.951-1.951c0.234 0 0.39-0.156 0.39-0.39s-0.156-0.39-0.39-0.39c-1.327 0-2.498 1.015-2.654 2.341h-8.507c-0.156-1.327-1.327-2.341-2.654-2.341s-2.498 1.015-2.654 2.341h-4.917c-0.234 0-0.39 0.234-0.39 0.39s0.156 0.39 0.39 0.39h4.917c0.156 1.327 1.327 2.341 2.654 2.341 0.234 0 0.39-0.156 0.39-0.39s-0.156-0.39-0.39-0.39c-1.093 0-1.951-0.859-1.951-1.951s0.859-1.951 1.951-1.951c1.015 0 1.873 0.859 1.951 1.873 0 0 0 0 0 0 0 0.234 0.156 0.39 0.39 0.39h8.819c0.156 1.327 1.327 2.341 2.654 2.341s2.498-1.015 2.654-2.341h8.507c0.156 1.327 1.327 2.341 2.654 2.341 0.234 0 0.39-0.156 0.39-0.39s-0.156-0.312-0.39-0.312c-1.093 0-1.951-0.859-1.951-1.951s0.859-1.951 1.951-1.951c1.015 0 1.873 0.859 1.951 1.873 0 0 0 0 0 0 0 0.234 0.156 0.39 0.39 0.39h3.278c0.234 0 0.39-0.156 0.39-0.39s-0.156-0.312-0.39-0.312z"></path>
<path d="M28.8 6.088c0-0.234-0.156-0.39-0.39-0.39h-11.707c-0.234 0-0.39 0.156-0.39 0.39s0.156 0.39 0.39 0.39h11.707c0.234 0 0.39-0.156 0.39-0.39z"></path>
<path d="M28.644 9.288c0-0.234-0.156-0.39-0.39-0.39h-11.551c-0.234 0-0.39 0.156-0.39 0.39s0.156 0.39 0.39 0.39h11.551c0.234 0 0.39-0.234 0.39-0.39z"></path>
<path d="M16.702 12.020c-0.234 0-0.39 0.156-0.39 0.39s0.156 0.39 0.39 0.39h8.195c0.234 0 0.39-0.156 0.39-0.39s-0.156-0.39-0.39-0.39h-8.195z"></path>
<path d="M3.746 18.576h13.815l3.278 3.98c0.312 0.39 0.702 0.546 1.171 0.546 0 0 0 0 0 0 0.468 0 0.937-0.234 1.171-0.546l3.278-3.98c0 0 0 0 0.078 0h3.746c1.327 0 2.419-1.093 2.419-2.419v-6.868c0-0.234-0.156-0.39-0.39-0.39s-0.39 0.156-0.39 0.39v6.868c0 0.937-0.78 1.639-1.639 1.639h-3.746c-0.078 0-0.078 0-0.078 0-0.156-0.078-0.312 0-0.39 0.156l-3.356 4.137c-0.156 0.156-0.39 0.312-0.624 0.312s-0.468-0.078-0.624-0.312l-3.512-4.137c0 0 0 0 0 0s0 0 0 0-0.078-0.078-0.078-0.078c0 0 0 0 0 0s-0.078 0-0.078 0c0 0 0 0 0 0h-14.049c-0.937 0-1.639-0.78-1.639-1.639v-13.815c-0.078-0.859 0.702-1.639 1.639-1.639h26.537c0.937 0 1.639 0.78 1.639 1.639v1.951c0 0.234 0.156 0.39 0.39 0.39s0.39-0.156 0.39-0.39v-1.951c0-1.327-1.093-2.42-2.419-2.42h-26.537c-1.405 0-2.498 1.093-2.498 2.42v13.659c0 1.405 1.093 2.498 2.498 2.498z"></path>
<path d="M6.79 4.839c-0.702 0-1.327 0.624-1.327 1.405v6.088c0 0.78 0.624 1.327 1.327 1.327h6.088c0.702 0 1.327-0.624 1.327-1.327v-6.088c0-0.78-0.624-1.327-1.327-1.327h-6.088zM13.502 6.244v6.088c0 0.312-0.234 0.546-0.546 0.546h-6.166c-0.312 0-0.546-0.234-0.546-0.546v-6.088c0-0.312 0.234-0.546 0.546-0.546h6.088c0.312-0.078 0.624 0.234 0.624 0.546z"></path>
</svg>
