<!-- Generated by IcoMoon.io -->
<svg version="1.1" xmlns="http://www.w3.org/2000/svg" width="32" height="32" viewBox="0 0 32 32">
<path d="M30.384 9.074h-7.527v-5.126c0-0.914-0.702-1.662-1.616-1.662h-10.251c-0.914 0-1.708 0.748-1.708 1.662v5.126h-7.573c-0.918 0-1.708 0.744-1.708 1.662v17.316c0 0.918 0.79 1.662 1.708 1.662h28.675c0.918 0 1.616-0.744 1.616-1.662v-17.316c0-0.918-0.698-1.662-1.616-1.662zM11.498 4.502h9.143v4.571h-9.143v-4.571zM21.749 21.68h-3.463v3.463h-4.571v-3.463h-3.463v-4.571h3.463v-3.463h4.571v3.463h3.463v4.571z"></path>
</svg>
