<!-- Generated by IcoMoon.io -->
<svg version="1.1" xmlns="http://www.w3.org/2000/svg" width="32" height="32" viewBox="0 0 32 32">
<path d="M24.533 13.867v3.2h4.267v-3.2h-4.267zM27.733 16h-2.133v-1.067h2.133v1.067z"></path>
<path d="M24.533 18.133v3.2h4.267v-3.2h-4.267zM27.733 20.267h-2.133v-1.067h2.133v1.067z"></path>
<path d="M24.533 22.4v3.2h4.267v-3.2h-4.267zM27.733 24.533h-2.133v-1.067h2.133v1.067z"></path>
<path d="M24.533 26.667v3.2h4.267v-3.2h-4.267zM27.733 28.8h-2.133v-1.067h2.133v1.067z"></path>
<path d="M18.133 5.333v-3.2h-4.267v3.2h-3.2v4.267h3.2v3.2h4.267v-3.2h3.2v-4.267h-3.2zM20.267 8.533h-3.2v3.2h-2.133v-3.2h-3.2v-2.133h3.2v-3.2h2.133v3.2h3.2v2.133z"></path>
<path d="M23.467 11.733v-11.733h-14.933v11.733h-7.467v20.267h29.867v-20.267h-7.467zM8.533 30.933h-6.4v-18.133h6.4v18.133zM15.467 30.933h-2.667v-9.6h2.667v9.6zM19.2 30.933h-2.667v-9.6h2.667v9.6zM22.4 30.933h-2.133v-10.667h-8.533v10.667h-2.133v-29.867h12.8v29.867zM29.867 30.933h-6.4v-18.133h6.4v18.133z"></path>
<path d="M3.2 13.867v3.2h4.267v-3.2h-4.267zM6.4 16h-2.133v-1.067h2.133v1.067z"></path>
<path d="M3.2 18.133v3.2h4.267v-3.2h-4.267zM6.4 20.267h-2.133v-1.067h2.133v1.067z"></path>
<path d="M3.2 22.4v3.2h4.267v-3.2h-4.267zM6.4 24.533h-2.133v-1.067h2.133v1.067z"></path>
<path d="M3.2 26.667v3.2h4.267v-3.2h-4.267zM6.4 28.8h-2.133v-1.067h2.133v1.067z"></path>
</svg>
