<!-- Generated by IcoMoon.io -->
<svg version="1.1" xmlns="http://www.w3.org/2000/svg" width="32" height="32" viewBox="0 0 32 32">
<path d="M24.823 10.125c-0.234 0-0.474 0.013-0.724 0.041-1.378-1.797-3.512-2.84-5.803-2.811-1.027-2.799-3.712-4.703-6.731-4.703-3.958 0-7.177 3.219-7.177 7.177 0 0.279 0.016 0.559 0.050 0.839-2.679 1.098-4.437 3.688-4.437 6.635 0 3.958 3.22 7.177 7.177 7.177h17.645c3.958 0 7.178-3.219 7.178-7.177s-3.22-7.178-7.177-7.178zM24.823 22.965h-17.645c-3.122 0-5.662-2.54-5.662-5.662 0-2.502 1.605-4.677 3.995-5.412l0.662-0.204-0.144-0.677c-0.083-0.392-0.126-0.789-0.126-1.181 0-3.122 2.54-5.662 5.662-5.662 2.546 0 4.79 1.717 5.459 4.176l0.168 0.62 0.639-0.065c0.19-0.019 0.384-0.029 0.573-0.029 1.898 0 3.661 0.946 4.716 2.53l0.273 0.409 0.484-0.081c0.344-0.058 0.654-0.087 0.947-0.087 3.122 0 5.662 2.54 5.662 5.662s-2.54 5.661-5.662 5.661zM18.273 27.73h4.844v1.233h-4.844v0.386h-5.364v-0.386h-5.972v-1.233h5.971v-0.616h1.565v-1.548l2.234-0v1.548h1.565v0.616h0z"></path>
</svg>
