<!-- Generated by IcoMoon.io -->
<svg version="1.1" xmlns="http://www.w3.org/2000/svg" width="35" height="32" viewBox="0 0 35 32">
<path d="M34.688 28.224c-0.256-0.384-0.64-0.576-1.088-0.576h-2.816c1.6-0.768 2.368-1.92 2.368-3.328 0-0.832-0.256-1.6-0.768-2.368 0.128-0.448 0.064-0.96-0.064-1.408 0 0-0.064-0.128-0.064-0.192-0.32-0.832-1.024-1.472-1.92-1.664s-1.792 0-2.432 0.576c0 0 0-0.064 0-0.064 1.024-0.768 1.536-1.664 1.536-2.752 0-1.6-1.216-3.136-3.392-4.288 1.088-0.512 1.984-1.408 1.984-2.688 0-1.792-1.856-3.392-4.928-4.288 0.128-0.32 0.256-0.64 0.256-1.024 0-1.152-0.768-2.24-2.112-3.008-1.28-0.768-2.944-1.152-4.672-1.152-1.792 0-3.456 0.384-4.672 1.152-1.344 0.768-2.112 1.856-2.112 3.008s0.768 1.984 2.24 2.368c1.152 0.32 2.624 0.384 4.544 0.384s3.392-0.064 4.544-0.384c0.448-0.128 0.896-0.32 1.216-0.512 2.88 0.704 4.736 2.048 4.736 3.456 0 1.856-3.52 3.008-9.28 3.008s-9.28-1.152-9.28-3.008c0-0.512 0.32-1.344 1.664-2.24 0.256-0.128 0.32-0.448 0.192-0.704s-0.448-0.32-0.704-0.192c-1.408 0.896-2.176 1.92-2.176 3.072 0 0.704 0.256 1.28 0.704 1.728-3.456 1.216-5.504 3.072-5.504 5.184 0 0.96 0.384 1.792 1.152 2.496 0.192 0.192 0.448 0.384 0.704 0.512-2.368 1.344-3.712 3.072-3.712 4.928 0 1.472 0.768 2.56 2.368 3.328h-1.92c-0.448 0-0.832 0.192-1.088 0.576-0.192 0.448-0.256 0.896-0.064 1.28 0.704 1.536 2.24 2.56 3.904 2.56h26.88c1.664 0 3.2-1.024 3.904-2.56 0.128-0.384 0.128-0.832-0.128-1.216zM20.864 5.568c-1.088 0.32-2.688 0.32-4.288 0.32s-3.2-0.064-4.288-0.32c-1.28-0.32-1.472-0.896-1.472-1.408 0-1.728 2.624-3.136 5.76-3.136s5.76 1.472 5.76 3.136c0 0.512-0.192 1.088-1.472 1.408zM26.624 27.648c-0.192-0.256-0.32-0.512-0.384-0.832l-0.256-1.408c0.704-0.192 1.28-0.576 1.664-1.152l1.216 0.768c0.448 0.32 0.768 0.768 0.768 1.344 0.064 0.448-0.128 0.896-0.384 1.28h-2.624zM21.376 27.648c-0.32-0.32-0.448-0.768-0.384-1.28 0.064-0.576 0.32-1.024 0.768-1.344l1.216-0.768c0.384 0.576 0.96 0.96 1.664 1.152l-0.256 1.408c-0.064 0.32-0.192 0.64-0.384 0.832h-2.624zM23.744 18.944c-0.256-0.512-0.192-1.152 0.128-1.664s0.832-0.768 1.408-0.768c0.064 0 0.064 0 0.128 0 0.576 0 1.088 0.32 1.408 0.768 0.32 0.512 0.384 1.088 0.128 1.664l-0.512 1.152c-0.32-0.128-0.704-0.192-1.088-0.192s-0.768 0.064-1.088 0.192l-0.512-1.152zM25.344 24.512c-1.024 0-1.792-0.832-1.792-1.792 0-1.024 0.832-1.792 1.792-1.792 1.024 0 1.792 0.832 1.792 1.792s-0.832 1.792-1.792 1.792zM22.528 22.656c0 0.064 0 0.192 0 0.256l-1.408 0.128c-0.576 0.064-1.152-0.192-1.536-0.64s-0.448-1.024-0.32-1.6c0 0 0-0.064 0.064-0.128 0.192-0.512 0.64-0.896 1.216-1.088 0.576-0.128 1.152 0 1.6 0.384l0.96 0.832c-0.384 0.64-0.576 1.216-0.576 1.856zM25.344 27.392c0 0.064 0.064 0.192 0.128 0.256h-0.192c0-0.064 0-0.128 0.064-0.256zM30.72 26.56c0-0.064 0-0.192 0-0.256-0.064-0.832-0.512-1.6-1.28-2.112l-0.192-0.128c0 0 0.192 0 0.448 0 0.832 0 1.664-0.384 2.176-1.024 0.192 0.448 0.32 0.832 0.32 1.28-0.064 0.96-0.512 1.664-1.472 2.24zM28.48 20.096c0.448-0.384 1.024-0.576 1.6-0.384 0.576 0.128 1.024 0.512 1.216 1.088 0 0 0 0.064 0.064 0.128 0.192 0.576 0.064 1.152-0.32 1.6s-0.96 0.704-1.536 0.64l-1.344-0.192c0-0.064 0-0.192 0-0.256 0-0.64-0.192-1.28-0.576-1.728l0.896-0.896zM3.136 26.432c-0.832-0.576-1.216-1.28-1.216-2.112 0-1.6 1.344-3.136 3.776-4.352 0.384 0.128 0.768 0.32 1.152 0.448 2.24 0.704 5.44 1.088 9.28 1.088 0.192 0 0.384 0 0.576 0 0.256 0 0.512-0.256 0.512-0.512s-0.256-0.512-0.512-0.512v0c-0.192 0-0.384 0-0.576 0-3.712 0-6.784-0.384-8.96-1.088-2.24-0.704-3.392-1.728-3.392-3.008 0-1.728 2.112-3.392 5.44-4.416 0.512 0.256 1.024 0.512 1.536 0.64 1.728 0.576 4.16 0.832 7.040 0.832s5.312-0.256 7.040-0.832c2.304 1.024 3.648 2.368 3.648 3.776 0 0.448-0.128 0.896-0.448 1.28-0.064-0.32-0.192-0.64-0.384-0.896-0.512-0.768-1.344-1.216-2.24-1.28-0.064 0-0.128 0-0.192 0-0.896 0-1.728 0.512-2.24 1.28-0.448 0.768-0.576 1.664-0.256 2.496-0.704-0.576-1.6-0.768-2.432-0.576-0.896 0.192-1.6 0.832-1.92 1.664 0 0-0.064 0.128-0.064 0.192-0.256 0.832-0.064 1.792 0.448 2.496 0.512 0.64 1.344 1.088 2.176 1.088 0.064 0 0.448 0 0.448 0l-0.192 0.128c-0.704 0.448-1.216 1.216-1.28 2.112-0.064 0.448 0.064 0.96 0.192 1.344h-13.44c-1.472-0.32-2.688-0.768-3.52-1.28zM33.856 29.056c-0.512 1.152-1.664 1.92-2.944 1.92h-26.88c-1.28 0-2.432-0.768-2.944-1.92-0.064-0.128 0-0.192 0-0.256s0.064-0.128 0.192-0.128h32.32c0.128 0 0.192 0.064 0.192 0.128 0.064 0.064 0.128 0.128 0.064 0.256z"></path>
</svg>
