<!-- Generated by IcoMoon.io -->
<svg version="1.1" xmlns="http://www.w3.org/2000/svg" width="41" height="32" viewBox="0 0 41 32">
<path d="M24.335 12.136c-0.575-0.511-1.277-0.958-2.108-1.277 0.575-0.639 0.958-1.341 0.958-2.108 0-1.916-2.172-3.577-5.493-4.216 0-0.192 0.064-0.383 0.064-0.511 0-1.597-0.83-3.066-2.236-3.896-0.192-0.128-0.447-0.128-0.639 0-0.83 0.447-1.469 1.15-1.852 1.98-0.894-0.319-1.852-0.383-2.746-0.128-0.192 0.064-0.383 0.192-0.447 0.447-0.255 0.894-0.192 1.788 0.128 2.619-2.172 0.83-3.513 2.172-3.513 3.641 0 0.766 0.319 1.469 0.958 2.108-2.236 1.022-3.513 2.491-3.513 4.024 0 1.277 0.83 2.427 2.236 3.385-1.597 0.447-2.938 0.958-3.96 1.597-1.788 1.15-2.172 2.363-2.172 3.13 0 3.194 5.812 5.174 11.497 5.621 0 0 0.064 0 0.064 0 0.319 0 0.575-0.256 0.575-0.575s-0.192-0.639-0.575-0.639c-6.707-0.511-10.347-2.683-10.347-4.407 0-1.469 2.555-3.002 6.451-3.832 0.064 0 0.064 0 0.064 0 1.597 0.639 3.577 1.086 5.749 1.214 0 0 0 0 0.064 0 0.319 0 0.575-0.256 0.575-0.575s-0.255-0.639-0.575-0.639c-2.427-0.128-4.599-0.703-6.196-1.533-1.405-0.766-2.236-1.725-2.236-2.683 0-1.214 1.277-2.363 3.385-3.194 1.533 0.958 3.768 1.533 6.323 1.533s4.79-0.575 6.323-1.533c0.958 0.383 1.788 0.83 2.363 1.341 0.256 0.255 0.703 0.192 0.894-0.128 0.256-0.192 0.192-0.575-0.064-0.766zM15.202 1.341c0.83 0.639 1.341 1.597 1.341 2.619 0 0.703-0.256 1.341-0.639 1.916-0.128-1.022-0.575-1.98-1.277-2.747-0.128-0.192-0.319-0.319-0.511-0.447 0.192-0.511 0.575-1.022 1.086-1.341zM10.922 3.066c1.022-0.128 2.044 0.192 2.81 0.894 0.766 0.766 1.086 1.788 0.894 2.81-1.022 0.128-2.044-0.192-2.81-0.894-0.703-0.703-1.022-1.788-0.894-2.81zM20.056 10.922c-1.405 0.703-3.258 1.086-5.238 1.086s-3.832-0.383-5.238-1.086c-1.214-0.639-1.916-1.405-1.916-2.172 0-0.958 1.086-1.916 2.81-2.555 0.128 0.192 0.319 0.447 0.511 0.639 0.83 0.83 1.98 1.341 3.194 1.341 0.192 0 0.447 0 0.639-0.064 0.192 0 0.447-0.064 0.639-0.192 0.894-0.511 1.533-1.277 1.916-2.172 2.683 0.511 4.599 1.725 4.599 3.066 0 0.703-0.703 1.469-1.916 2.108z"></path>
<path d="M40.942 21.269c-1.533-0.766-3.194-1.086-4.918-1.086 0-1.661-0.383-3.385-1.086-4.918-0.128-0.255-0.319-0.383-0.575-0.319-1.661 0.128-3.321 0.639-4.79 1.469-0.83-1.469-1.98-2.747-3.385-3.705-0.192-0.128-0.447-0.128-0.703 0-1.405 0.958-2.555 2.236-3.385 3.705-1.469-0.83-3.066-1.405-4.79-1.533-0.256 0-0.511 0.128-0.575 0.319-0.703 1.533-1.086 3.194-1.086 4.918-1.661 0-3.321 0.319-4.918 1.086-0.255 0.128-0.383 0.319-0.319 0.575 0.255 3.641 2.299 6.834 5.429 8.687 1.661 0.958 3.577 1.469 5.493 1.469 1.533 0 3.066-0.319 4.471-0.958 1.405 0.639 2.938 0.958 4.471 0.958 1.916 0 3.768-0.511 5.493-1.469 3.13-1.788 5.174-5.046 5.429-8.687 0.128-0.128 0-0.383-0.255-0.511zM34.044 16.224c0.575 1.277 0.83 2.683 0.766 4.088-1.341 0.192-2.619 0.575-3.832 1.214-0.064-1.405-0.319-2.683-0.894-3.96 1.277-0.703 2.619-1.214 3.96-1.341zM17.693 16.224c1.405 0.192 2.747 0.639 3.896 1.341-0.511 1.214-0.83 2.555-0.894 3.96-1.214-0.639-2.491-1.086-3.832-1.214 0-1.405 0.319-2.81 0.83-4.088zM16.543 29.509c-2.683-1.533-4.471-4.279-4.79-7.281 2.81-1.214 6.068-1.022 8.75 0.511 0.128 0.064 0.256 0.128 0.383 0.256 0.319 2.81 1.661 5.429 3.896 7.281-2.81 0.894-5.748 0.639-8.24-0.766zM35.258 29.509c-2.491 1.469-5.493 1.661-8.176 0.703 0.894-0.766 1.725-1.661 2.363-2.683 0.192-0.256 0.064-0.639-0.192-0.83s-0.639-0.064-0.83 0.192c-0.639 1.086-1.533 1.98-2.491 2.747-2.491-1.852-3.896-4.727-3.896-7.792s1.469-6.004 3.896-7.792c2.491 1.852 3.896 4.727 3.896 7.792 0 1.15-0.192 2.236-0.575 3.258-0.128 0.319 0.064 0.639 0.383 0.766s0.639-0.064 0.766-0.383c0.319-0.83 0.511-1.725 0.575-2.555 0.128-0.064 0.256-0.128 0.383-0.192 2.683-1.533 5.876-1.725 8.751-0.511-0.447 3.002-2.172 5.748-4.854 7.281z"></path>
</svg>
