<!-- Generated by IcoMoon.io -->
<svg version="1.1" xmlns="http://www.w3.org/2000/svg" width="32" height="32" viewBox="0 0 32 32">
<path d="M25.6 5.6v-0.8c0-0.627-0.386-1.173-1.147-1.623-0.55-0.325-1.314-0.611-2.27-0.85-1.875-0.469-4.355-0.727-6.982-0.727s-5.107 0.258-6.982 0.727c-0.957 0.239-1.72 0.525-2.27 0.85-0.761 0.45-1.147 0.996-1.147 1.623v0.8c0 4.209 2.549 7.998 6.4 9.603v3.194c-3.851 1.605-6.4 5.394-6.4 9.603v0.8c0 0.627 0.386 1.173 1.147 1.623 0.55 0.325 1.314 0.611 2.27 0.85 1.875 0.469 4.354 0.727 6.982 0.727s5.107-0.258 6.982-0.727c0.957-0.239 1.72-0.525 2.27-0.85 0.761-0.45 1.147-0.996 1.147-1.623v-0.8c0-4.209-2.549-7.998-6.4-9.603v-3.194c3.851-1.604 6.4-5.394 6.4-9.603zM8.979 3.791c1.705-0.381 3.914-0.591 6.221-0.591s4.516 0.21 6.221 0.591c1.84 0.411 2.397 0.854 2.543 1.009-0.146 0.155-0.703 0.598-2.543 1.009-1.705 0.381-3.914 0.591-6.221 0.591s-4.516-0.21-6.221-0.591c-1.84-0.411-2.397-0.854-2.543-1.009 0.146-0.155 0.703-0.598 2.543-1.009zM18.134 19.701c3.509 1.24 5.866 4.576 5.866 8.299v0.757c-0.067 0.091-0.519 0.591-2.579 1.052-1.705 0.381-3.914 0.591-6.221 0.591s-4.516-0.21-6.221-0.591c-2.060-0.46-2.512-0.961-2.579-1.052v-0.758c0-3.724 2.358-7.059 5.866-8.299 0.32-0.113 0.533-0.415 0.533-0.754v-4.293c0-0.339-0.214-0.641-0.533-0.754-3.162-1.118-5.389-3.937-5.798-7.209 0.479 0.216 1.065 0.412 1.75 0.583 1.875 0.469 4.355 0.727 6.982 0.727s5.107-0.258 6.982-0.727c0.685-0.171 1.27-0.367 1.75-0.583-0.409 3.272-2.636 6.091-5.798 7.209-0.32 0.113-0.533 0.415-0.533 0.754v4.293c0 0.339 0.214 0.641 0.533 0.754zM21.867 26.446c-3.619-1.279-5.867-4.362-5.867-8.046v-4.84c0.961-0.094 1.885-0.359 2.756-0.792 0.396-0.197 0.557-0.677 0.36-1.072s-0.677-0.557-1.072-0.36c-0.888 0.441-1.845 0.665-2.844 0.665s-1.956-0.224-2.844-0.665c-0.396-0.197-0.876-0.035-1.072 0.36s-0.035 0.876 0.36 1.072c0.871 0.433 1.796 0.698 2.756 0.792v4.84c0 3.684-2.248 6.767-5.867 8.046-0.336 0.119-0.553 0.446-0.532 0.802s0.276 0.655 0.624 0.733c1.572 0.352 3.963 0.819 6.575 0.819s5.003-0.468 6.575-0.819c0.348-0.078 0.603-0.377 0.624-0.733s-0.196-0.683-0.532-0.802zM15.2 27.2c-1.403 0-2.722-0.14-3.899-0.327 1.065-0.674 1.991-1.524 2.737-2.52 0.469-0.626 0.858-1.299 1.162-2.007 0.304 0.708 0.692 1.38 1.162 2.007 0.746 0.996 1.672 1.845 2.737 2.52-1.177 0.188-2.496 0.327-3.899 0.327z"></path>
</svg>
