<!-- Generated by IcoMoon.io -->
<svg version="1.1" xmlns="http://www.w3.org/2000/svg" width="32" height="32" viewBox="0 0 32 32">
<path d="M10.929 18.843l-0.805 0.782c-0.114 0.11-0.178 0.262-0.178 0.421v0.334c0 0.324 0.263 0.586 0.586 0.586h4.809c0.324 0 0.587-0.263 0.587-0.586v-0.432c0-0.324-0.262-0.586-0.587-0.586h-2.657l0.073-0.067c1.737-1.673 2.966-2.99 2.966-4.705 0-1.371-0.891-2.755-2.883-2.755-0.869 0-1.721 0.279-2.398 0.785-0.22 0.165-0.296 0.46-0.183 0.711l0.148 0.327c0.072 0.159 0.21 0.278 0.379 0.324 0.168 0.046 0.348 0.015 0.491-0.085 0.435-0.304 0.883-0.458 1.332-0.458 0.873 0 1.316 0.434 1.316 1.285-0.012 1.153-0.968 2.187-2.998 4.12zM19.695 11.977c-0.016-0.001-0.031-0.002-0.047-0.002h-0.179c-0.192 0-0.371 0.094-0.481 0.251l-3.592 5.14c-0.069 0.099-0.106 0.216-0.106 0.336v0.412c0 0.324 0.262 0.586 0.586 0.586h3.28v1.679c0 0.324 0.262 0.586 0.586 0.586h0.56c0.324 0 0.587-0.263 0.587-0.586v-1.679h0.578c0.324 0 0.587-0.263 0.587-0.586v-0.381c0-0.324-0.263-0.586-0.587-0.586h-0.578v-4.585c0-0.324-0.263-0.586-0.587-0.586h-0.56c-0.016 0-0.032 0.001-0.048 0.002zM19.157 17.146h-1.771c0.45-0.653 1.219-1.774 1.771-2.603v2.603zM16.022 29.863c-6.902 0-12.517-5.615-12.517-12.517 0-6.536 5.035-11.916 11.43-12.47v1.995c0 0.142 0.078 0.272 0.203 0.339 0.057 0.030 0.119 0.045 0.18 0.045 0.075 0 0.15-0.022 0.214-0.065l4.531-3.044c0.106-0.071 0.17-0.191 0.17-0.319s-0.064-0.247-0.17-0.319l-4.531-3.044c-0.118-0.079-0.269-0.087-0.394-0.020s-0.203 0.197-0.203 0.339v1.548c-7.795 0.559-13.966 7.079-13.966 15.014 0 8.301 6.753 15.054 15.054 15.054 3.843 0 7.502-1.448 10.302-4.077l-1.736-1.849c-2.328 2.186-5.37 3.39-8.566 3.39zM28.872 9.5c-0.519-0.848-1.125-1.649-1.802-2.38l-1.861 1.723c0.563 0.608 1.068 1.275 1.499 1.98l2.164-1.324zM28.425 15.646l2.514-0.341c-0.134-0.988-0.368-1.966-0.695-2.905l-2.396 0.833c0.271 0.78 0.465 1.592 0.577 2.413zM24.656 5.013c-0.816-0.573-1.692-1.065-2.604-1.464l-1.017 2.324c0.757 0.332 1.485 0.741 2.164 1.217l1.457-2.077zM25.692 25.295l1.959 1.612c0.634-0.77 1.192-1.605 1.66-2.482l-2.238-1.194c-0.389 0.729-0.854 1.424-1.381 2.064zM28.503 18.314c-0.063 0.828-0.209 1.65-0.434 2.445l2.441 0.69c0.27-0.956 0.446-1.946 0.522-2.942l-2.53-0.193z"></path>
</svg>
