<!-- Generated by IcoMoon.io -->
<svg version="1.1" xmlns="http://www.w3.org/2000/svg" width="32" height="32" viewBox="0 0 32 32">
<path d="M31.006 12.313l-2.469-1.869v-8.662c0-0.387-0.325-0.65-0.65-0.65h-3.119c-0.387 0-0.65 0.325-0.65 0.65v5.325l-7.744-5.85c-0.262-0.194-0.588-0.194-0.781 0l-14.625 11.056c-0.194 0.194-0.262 0.456-0.194 0.713 0.063 0.262 0.325 0.456 0.588 0.456h2.862v12.744h-1.181c-0.388 0-0.65 0.325-0.65 0.65v4.163c0 0.387 0.325 0.65 0.65 0.65h25.881c0.387 0 0.65-0.262 0.65-0.65v-4.163c0-0.387-0.325-0.65-0.65-0.65h-1.169v-12.744h2.863c0.262 0 0.519-0.194 0.587-0.456 0.125-0.256-0.006-0.519-0.2-0.713zM25.413 2.431h1.819v7.031l-1.819-1.375v-5.656zM28.337 30.387h-24.637v-2.863h24.644v2.863zM26.45 26.225h-20.938v-12.744h20.938v12.744zM3.237 12.181l12.744-9.625 12.744 9.625h-25.488z"></path>
</svg>
