<!-- Generated by IcoMoon.io -->
<svg version="1.1" xmlns="http://www.w3.org/2000/svg" width="32" height="32" viewBox="0 0 32 32">
<path d="M31.281 14.319l-4.094-3.263v-7.075h-4.225v3.719l-6.963-5.537-15.281 12.156h4.55v16.319h21.394v-16.319h4.619zM24.125 8.6v-3.381h1.819v4.863l-1.819-1.481zM4.1 13.15l11.9-9.494 11.9 9.494h-23.8zM13.4 29.469v-7.869c0-1.431 1.169-2.6 2.6-2.6s2.6 1.169 2.6 2.6v7.869h-5.2zM25.556 29.469h-5.788v-7.869c0-2.081-1.688-3.769-3.769-3.769s-3.769 1.688-3.769 3.769v7.869h-5.719v-15.15h19.050v15.15z"></path>
</svg>
