<!-- Generated by IcoMoon.io -->
<svg version="1.1" xmlns="http://www.w3.org/2000/svg" width="32" height="32" viewBox="0 0 32 32">
<path d="M31.313 15.331l-3.519-3.275v-10.762h-4.106v6.944l-7.688-7.15-15.313 14.244h3.519v16.381h8.212v-8.019c0-1.587 1.631-2.906 3.581-2.906s3.581 1.313 3.581 2.906v7.95h8.144v-16.313h3.587zM24.863 2.538h1.694v8.363l-1.694-1.575v-6.787zM3.881 14.081l12.119-11.338 12.188 11.338h-24.306zM26.556 30.4h-5.8v-6.706c0-2.35-2.15-4.219-4.756-4.219s-4.756 1.938-4.756 4.219v6.706h-5.8v-15.069h21.113v15.069zM16 7.169c-1.5 0-2.669 1.106-2.669 2.556 0 1.381 1.175 2.556 2.669 2.556 1.431 0 2.669-1.106 2.669-2.556 0-1.381-1.238-2.556-2.669-2.556zM16 11.044c-0.781 0-1.431-0.625-1.431-1.313s0.65-1.313 1.431-1.313 1.431 0.625 1.431 1.313-0.65 1.313-1.431 1.313z"></path>
</svg>
