<!-- Generated by IcoMoon.io -->
<svg version="1.1" xmlns="http://www.w3.org/2000/svg" width="32" height="32" viewBox="0 0 32 32">
<path d="M3.865 27.99l12.197 4.010 12.133-4.011 1.99-27.989h-28.309zM28.172 1.874l-1.758 24.73-10.354 3.423-10.415-3.424-1.758-24.729z"></path>
<path d="M19.515 17.927l-0.222 3.15-3.234 1.073-3.294-1.077-0.093-1.272h-5.623l0.375 5.414 8.638 2.863 8.572-2.864 0.92-12.908h-13.405l-0.206-2.936h13.811l0.401-5.622h-20.25l0.993 14.179zM24.143 5.622l-0.134 1.874h-14.076l0.469 6.684h13.14l-0.688 9.653-6.794 2.27-6.853-2.271-0.15-2.157h1.873l0.057 0.789 5.076 1.659 5.011-1.663 0.452-6.407h-12.881l-0.731-10.431z"></path>
</svg>
