<!-- Generated by IcoMoon.io -->
<svg version="1.1" xmlns="http://www.w3.org/2000/svg" width="32" height="32" viewBox="0 0 32 32">
<path d="M20.238 7.537v-3.975h-8.475v3.975h-11.075v21.7h30.625v-21.7h-11.075zM13.069 4.8h5.931v5.862h-5.931v-5.862zM30.006 28h-28.012v-19.156h9.775v3.125h8.469v-3.125h9.775v19.156zM9.938 19.594c1.563 0 2.869-1.306 2.931-2.931 0-1.631-1.306-2.931-2.931-2.931s-2.931 1.306-2.931 2.931c0 1.625 1.306 2.931 2.931 2.931zM9.938 15.031c0.912 0 1.631 0.719 1.631 1.631s-0.719 1.631-1.631 1.631c-0.912 0-1.631-0.719-1.631-1.631s0.719-1.631 1.631-1.631zM9.875 20.438c-3.256 0-5.862 2.669-5.862 5.863h1.3c0-2.544 2.019-4.563 4.563-4.563s4.563 2.019 4.563 4.563h1.306c-0.006-3.188-2.612-5.863-5.869-5.863zM19.125 17.962h7.95v1.306h-7.95v-1.306zM19.125 22.331h7.95v1.306h-7.95v-1.306z"></path>
</svg>
