<!-- Generated by IcoMoon.io -->
<svg version="1.1" xmlns="http://www.w3.org/2000/svg" width="32" height="32" viewBox="0 0 32 32">
<path d="M29.962 5.971h-27.924c-1.124 0-2.038 0.914-2.038 2.038v16.782c0 1.124 0.914 2.038 2.038 2.038h27.924c1.124 0 2.038-0.914 2.038-2.038v-16.782c0-1.124-0.914-2.038-2.038-2.038zM30.641 24.791c0 0.375-0.305 0.679-0.679 0.679h-27.924c-0.375 0-0.679-0.305-0.679-0.679v-16.782c0-0.375 0.305-0.679 0.679-0.679h27.924c0.375 0 0.679 0.305 0.679 0.679v16.782zM26.382 11.932h-7.292c-0.375 0-0.679 0.304-0.679 0.679s0.304 0.679 0.679 0.679h7.292c0.375 0 0.679-0.304 0.679-0.679s-0.304-0.679-0.679-0.679zM26.382 15.721h-7.292c-0.375 0-0.679 0.304-0.679 0.679s0.304 0.679 0.679 0.679h7.292c0.375 0 0.679-0.304 0.679-0.679s-0.304-0.679-0.679-0.679zM26.382 19.509h-7.292c-0.375 0-0.679 0.304-0.679 0.679s0.304 0.679 0.679 0.679h7.292c0.375 0 0.679-0.304 0.679-0.679s-0.304-0.679-0.679-0.679zM12.547 18.54c-0.014-0.001-1.257 0.051-1.593-1.294 0.454-0.357 0.835-0.854 1.107-1.446 0.020 0.002 0.040 0.005 0.060 0.005 0.185-0 0.365-0.084 0.482-0.236 0.571-0.733 0.867-1.684 0.835-2.679-0.066-2.063-1.501-3.689-3.27-3.708-0.048-0.002-0.091-0.001-0.126 0.001-0.001 0-0.002 0-0.002 0-0.429-0.186-0.881-0.273-1.347-0.258-0.996 0.032-1.909 0.525-2.572 1.389-0.635 0.828-0.965 1.905-0.929 3.033 0.006 0.191 0.021 0.367 0.045 0.534 0.066 0.48 0.198 0.941 0.394 1.369 0.094 0.206 0.294 0.343 0.519 0.356 0.061 0.004 0.122-0.002 0.18-0.016 0.277 0.686 0.695 1.256 1.2 1.655-0.329 1.343-1.58 1.297-1.594 1.298-1.337 0.044-2.411 1.144-2.411 2.491v2.476c0 0.338 0.274 0.611 0.611 0.611h10.209c0.338 0 0.611-0.274 0.611-0.611v-2.476c0-1.347-1.074-2.448-2.411-2.491zM6.456 13.764c-0.003-0.019-0.005-0.037-0.008-0.056-0.018-0.126-0.029-0.257-0.034-0.402-0.027-0.846 0.213-1.645 0.677-2.249 0.436-0.568 1.019-0.891 1.641-0.911 0.021-0.001 0.509-0.039 0.92 0.204 0.086 0.051 0.191 0.066 0.291 0.064 0.013-0 0.196-0.010 0.205-0.009 1.096 0.007 2.023 1.14 2.067 2.524 0.005 0.159-0.001 0.315-0.018 0.469-0.405-0.695-1.006-1.232-1.721-1.533-0.154-0.065-0.327-0.064-0.48 0.003s-0.272 0.192-0.33 0.349c-0.047 0.128-0.105 0.252-0.17 0.37-0.161 0.287-0.489 0.456-0.857 0.445-0.073-0.002-0.147-0.003-0.22-0-0.358 0.011-0.708 0.080-1.041 0.204-0.333 0.126-0.642 0.304-0.921 0.531zM7.309 14.652c0.155-0.114 0.325-0.199 0.498-0.273 0.316-0.136 0.743-0.128 0.789-0.127 0.788 0.027 1.507-0.342 1.907-0.97 0.312 0.239 0.57 0.561 0.749 0.943-0.189 1.372-1.043 2.416-2.013 2.416-0.865 0-1.641-0.818-1.931-1.989zM8.652 17.795c0.191 0.045 0.388 0.069 0.588 0.069 0.202 0 0.399-0.024 0.591-0.069 0.197 0.629 0.611 1.163 1.153 1.515-0.261 0.718-0.951 1.221-1.743 1.221s-1.482-0.503-1.743-1.221c0.542-0.352 0.956-0.886 1.154-1.515zM4.749 22.896v-1.864c0-0.701 0.57-1.27 1.271-1.27 0.014 0 0.237-0.013 0.333-0.026 0.435 1.188 1.579 2.019 2.89 2.019s2.454-0.832 2.89-2.019c0.096 0.013 0.319 0.026 0.333 0.026 0.701 0 1.271 0.57 1.271 1.27v1.864h-8.986z"></path>
</svg>
