<!-- Generated by IcoMoon.io -->
<svg version="1.1" xmlns="http://www.w3.org/2000/svg" width="32" height="32" viewBox="0 0 32 32">
<path d="M29.006 4.631h-26.012c-1.238 0-2.275 0.975-2.275 2.275v18.988c0 1.238 0.975 2.275 2.275 2.275h26.006c1.238 0 2.275-1.038 2.275-2.337v-18.925c0.006-1.231-0.969-2.275-2.269-2.275zM30.044 25.825c0 0.587-0.456 1.038-1.038 1.038h-26.012c-0.587 0-1.038-0.456-1.038-1.038v-18.919c0-0.588 0.456-1.037 1.038-1.037h26.006c0.587 0 1.038 0.456 1.038 1.037v18.919zM11.125 8.794h-6.763v6.762h6.763v-6.762zM9.887 14.319h-4.225v-4.225h4.225v4.225zM5.013 18.806h13.456v1.3h-13.456v-1.3zM5.013 22.9h13.456v1.3h-13.456v-1.3z"></path>
</svg>
