<!-- Generated by IcoMoon.io -->
<svg version="1.1" xmlns="http://www.w3.org/2000/svg" width="32" height="32" viewBox="0 0 32 32">
<path d="M3.582 10.785h-2.786c-0.428 0-0.774 0.347-0.774 0.774s0.347 0.774 0.774 0.774h2.786c0.428 0 0.774-0.347 0.774-0.774s-0.347-0.774-0.774-0.774zM31.203 10.785h-2.786c-0.427 0-0.774 0.347-0.774 0.774s0.347 0.774 0.774 0.774h2.786c0.427 0 0.774-0.347 0.774-0.774s-0.347-0.774-0.774-0.774zM6.772 20.787c-0.302-0.302-0.792-0.302-1.095 0l-2.026 2.026c-0.302 0.302-0.302 0.792 0 1.095 0.151 0.151 0.349 0.227 0.547 0.227s0.396-0.076 0.547-0.227l2.026-2.026c0.302-0.302 0.302-0.792 0-1.095zM26.932 0.627c-0.302-0.302-0.792-0.302-1.095 0l-1.971 1.971c-0.302 0.302-0.302 0.792 0 1.095 0.151 0.151 0.349 0.227 0.547 0.227s0.396-0.076 0.547-0.227l1.971-1.971c0.302-0.302 0.302-0.792 0-1.095zM8.132 2.596l-1.97-1.97c-0.302-0.302-0.792-0.302-1.095 0s-0.302 0.792 0 1.095l1.97 1.97c0.151 0.151 0.349 0.227 0.547 0.227s0.396-0.076 0.547-0.227c0.302-0.302 0.302-0.792 0-1.095zM28.349 22.814l-2.019-2.019c-0.302-0.302-0.792-0.302-1.095 0s-0.302 0.793 0 1.095l2.019 2.019c0.151 0.151 0.349 0.227 0.547 0.227s0.396-0.076 0.547-0.227c0.302-0.302 0.302-0.792 0-1.095zM16 2.502c-5.353 0-9.708 4.555-9.708 10.155 0 2.603 0.932 5.405 2.558 7.688 1.249 1.753 1.909 3.703 1.909 5.64v4.867c0 0.854 0.695 1.548 1.548 1.548h7.386c0.854 0 1.548-0.695 1.548-1.548v-4.867c0-1.937 0.66-3.887 1.909-5.64 1.626-2.282 2.558-5.084 2.558-7.688-0-5.599-4.355-10.155-9.708-10.155zM19.693 30.852h-7.386v-1.013h3.693c0.428 0 0.774-0.347 0.774-0.774s-0.347-0.774-0.774-0.774h-3.693v-1.012h7.386l0.001 3.573c-0 0-0 0-0.001 0zM14.914 16.409l-1.035-2.212h4.242l-1.035 2.212c-0.041 0.087-0.065 0.181-0.071 0.277l-0.6 9.044h-0.828l-0.6-9.044c-0.006-0.096-0.031-0.19-0.071-0.277zM21.889 19.446c-1.383 1.941-2.138 4.108-2.193 6.284h-1.73l0.584-8.797 1.489-3.182c0.112-0.24 0.094-0.52-0.048-0.744s-0.388-0.359-0.653-0.359h-6.676c-0.265 0-0.511 0.135-0.653 0.359s-0.16 0.504-0.048 0.744l1.489 3.182 0.584 8.797h-1.73c-0.055-2.176-0.81-4.343-2.193-6.284-1.422-1.996-2.271-4.534-2.271-6.789 0-4.746 3.66-8.606 8.16-8.606s8.16 3.861 8.16 8.606c0 2.255-0.849 4.793-2.271 6.789z"></path>
</svg>
