<!-- Generated by IcoMoon.io -->
<svg version="1.1" xmlns="http://www.w3.org/2000/svg" width="32" height="32" viewBox="0 0 32 32">
<path d="M29.52 2.24c-1.6-1.52-3.68-2.32-5.92-2.16-4.080 0.16-7.44 3.52-7.6 7.6-0.080 2 0.64 4 1.92 5.52 1.36 1.52 2.080 3.6 2.080 5.84v0.48h7.92v-0.48c0-2.16 0.8-4.24 2.16-5.92 1.2-1.44 1.84-3.2 1.84-5.12 0-2.24-0.88-4.24-2.4-5.76zM29.36 12.48c-1.44 1.76-2.24 3.84-2.4 6.080h-6.080c-0.080-2.24-0.88-4.32-2.32-5.92-1.2-1.36-1.76-3.040-1.68-4.88 0.080-1.76 0.8-3.36 2.080-4.64s2.88-2 4.64-2.080c2-0.16 3.84 0.48 5.2 1.84 1.44 1.36 2.16 3.12 2.16 5.12 0.080 1.6-0.56 3.2-1.6 4.48zM20 20h8v0.96h-8v-0.96zM20.96 21.52h6v0.96h-6v-0.96zM22 23.040v0.96h0.56c0 0.64 0.4 1.2 0.96 1.36v4.32c0 0.72-0.56 1.28-1.28 1.28s-1.28-0.56-1.28-1.28v-2c0-0.64-0.56-1.2-1.2-1.2s-1.2 0.56-1.2 1.2c0 0.16-0.16 0.24-0.24 0.24h-1.28v0.96h1.28c0.64 0 1.2-0.56 1.2-1.2 0-0.16 0.16-0.24 0.24-0.24s0.24 0.16 0.24 0.24v2c0 1.2 0.96 2.24 2.24 2.24 1.2 0 2.24-0.96 2.24-2.24v-4.32c0.56-0.16 0.96-0.72 0.96-1.36v0h0.56v-0.96h-4zM24.48 24c0 0.32-0.24 0.56-0.56 0.56s-0.56-0.24-0.56-0.56v0h1.12zM26 8.48l-2 0.96-2-0.96-2.24 1.040 0.4 0.88 0.48-0.24 0.88 3.84v4h0.88v-4.080l-0.88-4.16 0.48-0.24 2 0.96 2-0.96 0.48 0.24-0.96 4.16v4.080h0.96v-4l0.8-3.84 0.48 0.24 0.4-0.88zM12.48 20.48c0-0.16 0-0.4 0-0.56l0.56-0.080-0.24-0.96-0.56 0.080c-0.080-0.4-0.24-0.72-0.4-1.040l0.48-0.24-0.48-0.8-0.48 0.24c-0.24-0.32-0.48-0.64-0.72-0.88l0.32-0.4-0.64-0.64-0.32 0.4c-0.32-0.24-0.64-0.4-0.96-0.56l0.16-0.48-0.88-0.32-0.16 0.48c-0.4-0.080-0.8-0.16-1.2-0.24v-0.56h-0.96v0.56c-0.4 0-0.72 0.080-1.12 0.16l-0.16-0.48-0.88 0.32 0.16 0.56c-0.32 0.16-0.64 0.32-0.96 0.56l-0.4-0.4-0.72 0.64 0.32 0.4c-0.24 0.24-0.48 0.56-0.64 0.88l-0.48-0.32-0.48 0.8 0.48 0.24c-0.16 0.32-0.32 0.72-0.4 1.040l-0.56-0.080-0.16 1.040 0.56 0.080c0 0.16 0 0.4 0 0.56s0 0.4 0 0.56l-0.56 0.080 0.16 0.96 0.56-0.080c0.080 0.4 0.24 0.72 0.4 1.040l-0.48 0.24 0.48 0.8 0.48-0.24c0.24 0.32 0.48 0.64 0.72 0.88l-0.32 0.4 0.72 0.64 0.32-0.4c0.32 0.24 0.64 0.4 0.96 0.56l-0.16 0.48 0.88 0.32 0.16-0.48c0.32 0.080 0.72 0.16 1.12 0.16v0.56h0.96v-0.56c0.4 0 0.8-0.080 1.2-0.24l0.16 0.48 0.88-0.32-0.16-0.48c0.32-0.16 0.64-0.32 0.96-0.56l0.32 0.4 0.72-0.64-0.32-0.4c0.24-0.24 0.48-0.56 0.72-0.88l0.48 0.24 0.48-0.8-0.48-0.24c0.16-0.32 0.32-0.72 0.4-1.040l0.56 0.080 0.16-0.96-0.56-0.080c0-0.080 0-0.32 0-0.48zM6.48 25.52c-2.8 0-5.040-2.24-5.040-5.040s2.24-5.040 5.040-5.040c2.8 0 5.040 2.24 5.040 5.040s-2.24 5.040-5.040 5.040zM6.48 18.48c-1.12 0-2 0.88-2 2s0.88 2 2 2 2-0.88 2-2c0-1.12-0.88-2-2-2zM6.48 21.52c-0.56 0-1.040-0.48-1.040-1.040s0.48-1.040 1.040-1.040 1.040 0.48 1.040 1.040c0 0.56-0.48 1.040-1.040 1.040zM6.48 16c-2.48 0-4.48 2-4.48 4.48s2 4.48 4.48 4.48 4.48-2 4.48-4.48-2-4.48-4.48-4.48zM6.48 24c-1.92 0-3.52-1.6-3.52-3.52s1.6-3.52 3.52-3.52 3.52 1.6 3.52 3.52-1.6 3.52-3.52 3.52zM15.92 28.080c-0.080-0.48-0.24-0.96-0.56-1.28l0.4-0.4-0.64-0.64-0.4 0.4c-0.4-0.24-0.8-0.48-1.28-0.56v-0.56h-0.96v0.56c-0.48 0.080-0.88 0.24-1.28 0.56l-0.4-0.4-0.64 0.64 0.4 0.4c-0.24 0.4-0.48 0.8-0.56 1.28h-0.56v0.96h0.56c0.080 0.48 0.24 0.88 0.48 1.2l-0.4 0.4 0.64 0.64 0.4-0.4c0.4 0.24 0.8 0.48 1.28 0.56v0.56h0.96v-0.56c0.48-0.080 0.88-0.24 1.28-0.56l0.4 0.4 0.64-0.64-0.4-0.4c0.24-0.32 0.48-0.8 0.48-1.2h0.56v-0.96h-0.4zM12.96 30.48c-1.12 0-2-0.88-2-2s0.88-2 2-2 2 0.88 2 2c0.080 1.12-0.88 2-2 2zM12.96 26.96c-0.8 0-1.44 0.64-1.44 1.44s0.64 1.44 1.44 1.44 1.44-0.64 1.44-1.44c0.080-0.72-0.64-1.44-1.44-1.44zM12.96 28.96c-0.32 0-0.56-0.24-0.56-0.56s0.24-0.56 0.56-0.56c0.32 0 0.56 0.24 0.56 0.56 0 0.4-0.24 0.56-0.56 0.56zM15.92 23.040c-0.16-0.48-0.48-0.8-0.96-0.96v-0.64h-0.96v0.64c-0.4 0.16-0.8 0.48-0.96 0.96h-0.56v0.96h0.56c0.16 0.4 0.48 0.72 0.88 0.88v0.64h0.96v-0.64c0.4-0.16 0.8-0.48 0.88-0.88h0.56v-0.96h-0.4zM14.48 24c-0.32 0-0.56-0.24-0.56-0.56s0.24-0.56 0.56-0.56c0.32 0 0.56 0.24 0.56 0.56s-0.24 0.56-0.56 0.56zM28.8 6.16l-0.96 0.16c0.080 0.24 0.080 0.48 0.16 0.8l0.96-0.080c-0.080-0.32-0.16-0.64-0.16-0.88zM26.48 2.16l-0.56 0.8c0 0 0.96 0.72 1.6 2.24l0.88-0.32c-0.72-1.84-1.84-2.64-1.92-2.72z"></path>
</svg>
