<!-- Generated by IcoMoon.io -->
<svg version="1.1" xmlns="http://www.w3.org/2000/svg" width="28" height="32" viewBox="0 0 28 32">
<path d="M20.822 7.856c-0.192 0.128-0.256 0.447-0.128 0.639 0.894 1.341 1.405 2.874 1.405 4.535 0 2.938-2.363 6.259-4.152 8.623l-0.256 0.319c-0.319 0.447-0.575 1.15-0.766 2.044h-5.812c-0.192-0.894-0.447-1.597-0.766-2.044l-0.255-0.319c-1.788-2.427-4.152-5.685-4.152-8.623 0-4.471 3.641-8.048 8.048-8.048 1.916 0 3.768 0.703 5.238 1.916 0.192 0.192 0.511 0.128 0.639-0.064 0.192-0.192 0.128-0.511-0.064-0.639-1.661-1.405-3.705-2.172-5.876-2.172-4.982 0-9.006 4.024-9.006 9.006 0 3.258 2.491 6.707 4.279 9.198l0.255 0.319c0.128 0.192 0.383 0.639 0.575 1.469h-0.128c-0.255 0-0.447 0.192-0.447 0.447v4.024c0 1.916 1.533 3.449 3.449 3.449h1.98c1.916 0 3.449-1.533 3.449-3.449v-4.024c0-0.256-0.192-0.447-0.447-0.447v0c0.192-0.83 0.447-1.277 0.575-1.469l0.256-0.319c1.788-2.491 4.279-5.94 4.279-9.198 0-1.788-0.511-3.577-1.533-5.046-0.192-0.255-0.447-0.319-0.639-0.128zM10.475 24.974h7.090v2.044h-7.090v-2.044zM15.010 31.042h-1.98c-1.405 0-2.555-1.15-2.555-2.555v-0.511h7.090v0.511c-0.064 1.405-1.15 2.555-2.555 2.555z"></path>
<path d="M13.477 12.455h2.491c0.256 0 0.447-0.192 0.447-0.447s-0.192-0.447-0.447-0.447h-1.533v-1.022c0-0.255-0.192-0.447-0.447-0.447s-0.447 0.192-0.447 0.447v0.958c-1.086 0-1.98 0.894-1.98 1.98s0.894 1.98 1.98 1.98h1.022c0.575 0 1.022 0.447 1.022 1.022s-0.447 1.022-1.022 1.022h-2.491c-0.255 0-0.447 0.192-0.447 0.447s0.192 0.447 0.447 0.447h1.533v1.022c0 0.256 0.192 0.447 0.447 0.447s0.447-0.192 0.447-0.447v-1.022c1.086 0 1.98-0.894 1.98-1.98s-0.894-1.98-1.98-1.98h-1.022c-0.575 0-1.022-0.447-1.022-1.022s0.447-0.958 1.022-0.958z"></path>
<path d="M13.988 1.916c0.255 0 0.447-0.192 0.447-0.447v-1.022c0-0.256-0.192-0.447-0.447-0.447s-0.447 0.192-0.447 0.447v1.022c0 0.256 0.192 0.447 0.447 0.447z"></path>
<path d="M7.345 3.385c0.064 0.128 0.255 0.256 0.383 0.256 0.064 0 0.192 0 0.255-0.064 0.256-0.128 0.319-0.447 0.192-0.639l-0.511-0.894c-0.128-0.256-0.447-0.319-0.639-0.192-0.255 0.128-0.319 0.447-0.192 0.639l0.511 0.894z"></path>
<path d="M3.385 7.345l-0.894-0.511c-0.256-0.128-0.511-0.064-0.639 0.192s-0.064 0.511 0.192 0.639l0.894 0.511c0.064 0.064 0.128 0.064 0.256 0.064 0.192 0 0.319-0.064 0.383-0.255 0.128-0.255 0-0.511-0.192-0.639z"></path>
<path d="M1.469 13.541h-1.022c-0.256 0-0.447 0.192-0.447 0.447s0.192 0.447 0.447 0.447h1.022c0.256 0 0.447-0.192 0.447-0.447s-0.192-0.447-0.447-0.447z"></path>
<path d="M2.938 19.864l-0.894 0.511c-0.256 0.128-0.319 0.447-0.192 0.639 0.064 0.128 0.255 0.256 0.383 0.256 0.064 0 0.192 0 0.256-0.064l0.894-0.511c0.256-0.128 0.319-0.447 0.192-0.639-0.128-0.256-0.447-0.319-0.639-0.192z"></path>
<path d="M7.984 24.399c-0.255-0.128-0.511-0.064-0.639 0.192l-0.511 0.894c-0.128 0.256-0.064 0.511 0.192 0.639 0.064 0.064 0.128 0.064 0.255 0.064 0.192 0 0.319-0.064 0.383-0.256l0.511-0.894c0.064-0.192 0-0.511-0.192-0.639z"></path>
<path d="M20.631 24.591c-0.128-0.256-0.447-0.319-0.639-0.192-0.256 0.128-0.319 0.447-0.192 0.639l0.511 0.894c0.064 0.128 0.256 0.256 0.383 0.256 0.064 0 0.192 0 0.256-0.064 0.256-0.128 0.319-0.447 0.192-0.639l-0.511-0.894z"></path>
<path d="M25.932 20.311l-0.894-0.511c-0.256-0.128-0.511-0.064-0.639 0.192s-0.064 0.511 0.192 0.639l0.894 0.511c0.064 0.064 0.128 0.064 0.256 0.064 0.192 0 0.319-0.064 0.383-0.256 0.128-0.192 0-0.511-0.192-0.639z"></path>
<path d="M27.529 13.541h-1.022c-0.256 0-0.447 0.192-0.447 0.447s0.192 0.447 0.447 0.447h1.022c0.256 0 0.447-0.192 0.447-0.447s-0.192-0.447-0.447-0.447z"></path>
<path d="M24.846 8.176c0.064 0 0.192 0 0.256-0.064l0.894-0.511c0.256-0.128 0.319-0.447 0.192-0.639-0.128-0.255-0.447-0.319-0.639-0.192l-0.894 0.511c-0.256 0.128-0.319 0.447-0.192 0.639 0.064 0.192 0.192 0.255 0.383 0.255z"></path>
<path d="M19.992 3.577c0.064 0.064 0.128 0.064 0.256 0.064 0.192 0 0.319-0.064 0.383-0.256l0.511-0.894c0.128-0.256 0.064-0.511-0.192-0.639s-0.511-0.064-0.639 0.192l-0.511 0.894c-0.064 0.192 0 0.511 0.192 0.639z"></path>
</svg>
