<!-- Generated by IcoMoon.io -->
<svg version="1.1" xmlns="http://www.w3.org/2000/svg" width="28" height="32" viewBox="0 0 28 32">
<path d="M23.415 0h-19.122c-2.341 0-4.293 1.951-4.293 4.293v4.449c0 0.234 0.156 0.39 0.39 0.39s0.39-0.156 0.39-0.39v-4.449c0-1.951 1.561-3.512 3.512-3.512h19.122c1.951 0 3.512 1.561 3.512 3.512v23.415c0 1.951-1.561 3.512-3.512 3.512h-19.122c-1.951 0-3.512-1.561-3.512-3.512v-12.488c0-0.234-0.156-0.39-0.39-0.39s-0.39 0.156-0.39 0.39v12.488c0 2.341 1.951 4.293 4.293 4.293h19.122c2.341 0 4.293-1.951 4.293-4.293v-23.415c0-2.341-1.873-4.293-4.293-4.293z"></path>
<path d="M7.649 26.459c-0.234 0-0.39 0.156-0.39 0.39s0.156 0.39 0.39 0.39h6.4c0.234 0 0.39-0.156 0.39-0.39s-0.156-0.39-0.39-0.39h-6.4z"></path>
<path d="M16.859 26.459c-0.234 0-0.39 0.156-0.39 0.39s0.156 0.39 0.39 0.39h3.2c0.234 0 0.39-0.156 0.39-0.39s-0.156-0.39-0.39-0.39h-3.2z"></path>
<path d="M14.829 2.576h-8.741c-1.951 0-3.512 1.561-3.512 3.512v13.268c0 1.951 1.561 3.512 3.512 3.512h15.61c1.951 0 3.512-1.561 3.512-3.512v-13.268c0-1.951-1.561-3.512-3.512-3.512h-2.654c-0.234 0-0.39 0.156-0.39 0.39s0.156 0.39 0.39 0.39h2.654c1.483 0 2.732 1.249 2.732 2.732v13.268c0 1.483-1.249 2.732-2.732 2.732h-15.61c-1.483 0-2.732-1.249-2.732-2.732v-13.268c0-1.483 1.249-2.732 2.732-2.732h8.741c0.234 0 0.39-0.156 0.39-0.39s-0.156-0.39-0.39-0.39z"></path>
<path d="M8.195 20.449c0.078 0.078 0.156 0.156 0.312 0.156 0.078 0 0.156 0 0.234-0.078l4.917-4.761 2.888 2.419 3.746-4.683 1.795 1.951c0.156 0.156 0.39 0.156 0.546 0s0.156-0.39 0-0.546l-2.341-2.654-3.824 4.761-2.81-2.341-5.463 5.229c-0.156 0.078-0.156 0.39 0 0.546z"></path>
<path d="M13.737 11.863c0-1.015-0.859-1.873-1.873-1.873s-1.873 0.859-1.873 1.873c0 1.015 0.859 1.873 1.873 1.873 1.015-0.078 1.873-0.859 1.873-1.873zM10.849 11.863c0-0.624 0.468-1.093 1.093-1.093s1.093 0.468 1.093 1.093-0.468 1.093-1.093 1.093-1.093-0.546-1.093-1.093z"></path>
</svg>
