<!-- Generated by IcoMoon.io -->
<svg version="1.1" xmlns="http://www.w3.org/2000/svg" width="57" height="32" viewBox="0 0 57 32">
<path d="M57.156 24.089v-19.289c0-2.667-2.133-4.8-4.8-4.8h-7.467c-0.267 0-0.444 0.178-0.444 0.444s0.178 0.444 0.356 0.444h7.467c2.133 0 3.911 1.778 3.911 3.911v18.133l-2.667-2.933-5.689 7.111-4.178-3.556-7.911 7.556h-12.8v-10.4c2.4-0.267 4.356-2.222 4.356-4.711s-1.867-4.533-4.356-4.711v-10.4h12.444c0.267 0 0.444-0.178 0.444-0.444s-0.267-0.444-0.444-0.444h-30.578c-2.667 0-4.8 2.133-4.8 4.8v22.4c0 2.667 2.133 4.8 4.8 4.8h10.133c0.267 0 0.444-0.178 0.444-0.444s-0.267-0.444-0.444-0.444h-10.133c-2.133 0-3.911-1.778-3.911-3.911v-22.4c0-2.133 1.778-3.911 3.911-3.911h17.244v10.4c-2.4 0.267-4.356 2.222-4.356 4.711s1.867 4.533 4.356 4.711v10.844c0 0.267 0.178 0.444 0.444 0.444h29.867c2.667 0 4.8-2.133 4.8-4.8v-3.111c0 0 0 0 0 0zM18.578 16c0-2.133 1.778-3.911 3.911-3.911s3.911 1.778 3.911 3.911c0 2.133-1.778 3.911-3.911 3.911s-3.911-1.778-3.911-3.911zM52.356 31.111h-15.289l6.667-6.4 4.267 3.556 5.6-7.022 2.667 2.933v2.933c0 2.222-1.778 4-3.911 4z"></path>
<path d="M41.067 21.867c1.422 0 2.578-1.156 2.578-2.578s-1.156-2.578-2.578-2.578-2.578 1.156-2.578 2.578 1.067 2.578 2.578 2.578zM41.067 17.511c0.978 0 1.689 0.8 1.689 1.689 0 0.978-0.8 1.689-1.689 1.689-0.978 0-1.689-0.8-1.689-1.689-0.089-0.978 0.711-1.689 1.689-1.689z"></path>
<path d="M23.111 18.311c0.089 0 0.267 0 0.356-0.089 0.178-0.178 0.178-0.444 0-0.622l-1.511-1.6 1.511-1.511c0.178-0.178 0.178-0.444 0-0.622s-0.444-0.178-0.622 0l-2.222 2.133 2.133 2.222c0.178 0.089 0.267 0.089 0.356 0.089z"></path>
</svg>
