<!-- Generated by IcoMoon.io -->
<svg version="1.1" xmlns="http://www.w3.org/2000/svg" width="27" height="32" viewBox="0 0 27 32">
<path d="M27.473 24.273v-9.366c0-2.029-1.639-3.746-3.746-3.746h-4.059c0.78-1.171 1.249-2.498 1.249-3.981 0-3.981-3.2-7.181-7.181-7.181s-7.181 3.2-7.181 7.181 3.2 7.181 7.181 7.181c2.107 0 4.059-0.937 5.385-2.419h4.605c1.639 0 2.966 1.327 2.966 2.966v8.429l-2.654-2.888-5.62 6.868-4.059-3.434-7.649 7.337h-2.966c-1.639 0-2.966-1.327-2.966-2.966v-13.346c0-1.639 1.327-2.966 2.966-2.966h0.937c0.234 0 0.39-0.156 0.39-0.39s-0.156-0.312-0.39-0.312h-0.937c-2.029 0-3.746 1.639-3.746 3.746v13.346c0 2.029 1.639 3.668 3.746 3.668h3.122c0 0 0 0 0 0s0 0 0.078 0h16.859c2.029 0 3.746-1.639 3.746-3.746v-3.902c-0.078 0-0.078 0-0.078-0.078zM13.737 13.659c-3.512 0-6.4-2.888-6.4-6.4s2.888-6.478 6.4-6.478 6.4 2.888 6.4 6.4-2.888 6.478-6.4 6.478zM23.727 31.22h-15.844l6.556-6.322 4.137 3.512 5.463-6.79 2.654 2.888v3.824c0 1.561-1.327 2.888-2.966 2.888z"></path>
<path d="M14.283 19.59c0-1.405-1.093-2.498-2.498-2.498s-2.498 1.093-2.498 2.498c0 1.405 1.093 2.498 2.498 2.498s2.498-1.093 2.498-2.498zM10.068 19.59c0-0.937 0.78-1.717 1.717-1.717s1.717 0.78 1.717 1.717-0.78 1.717-1.717 1.717c-0.937 0-1.717-0.78-1.717-1.717z"></path>
<path d="M16.937 6.79h-2.888v-2.81c0-0.234-0.156-0.39-0.39-0.39s-0.39 0.156-0.39 0.39v2.81h-2.81c-0.234 0-0.39 0.156-0.39 0.39s0.156 0.39 0.39 0.39h6.478c0.234 0 0.39-0.156 0.39-0.39s-0.156-0.39-0.39-0.39z"></path>
<path d="M13.737 8.585c-0.234 0-0.39 0.156-0.39 0.39v1.483c0 0.234 0.156 0.39 0.39 0.39s0.39-0.156 0.39-0.39v-1.483c0-0.234-0.156-0.39-0.39-0.39z"></path>
</svg>
