<!-- Generated by IcoMoon.io -->
<svg version="1.1" xmlns="http://www.w3.org/2000/svg" width="32" height="32" viewBox="0 0 32 32">
<path d="M30.587 3.204h-29.174c-0.779 0-1.413 0.634-1.413 1.413v23.567c0 0.779 0.634 1.413 1.413 1.413h29.174c0.779 0 1.413-0.634 1.413-1.413v-23.567c0-0.779-0.634-1.413-1.413-1.413zM30.587 28.184l-29.174 0.001c0 0-0-0-0-0.001v-23.567h29.174v23.567zM27.936 6.561h-23.872c-0.39 0-0.706 0.316-0.706 0.706v15.612c0 0.39 0.316 0.706 0.706 0.706h23.872c0.39 0 0.706-0.316 0.706-0.706v-15.612c0-0.39-0.316-0.706-0.706-0.706zM4.77 7.974h22.459v11.958l-4.452-4.451c-0.276-0.276-0.723-0.276-0.999 0l-2.714 2.714-6.223-6.223c-0.276-0.276-0.723-0.276-0.999 0l-7.073 7.073v-11.071zM4.77 22.174v-1.131l7.573-7.572 8.703 8.703h-16.275zM27.23 22.174l-4.186-0-2.98-2.98 2.214-2.214 4.789 4.788c0.049 0.049 0.104 0.089 0.162 0.121v0.285zM19.022 9.314c-1.473 0-2.671 1.198-2.671 2.671s1.198 2.671 2.671 2.671 2.671-1.198 2.671-2.671-1.198-2.671-2.671-2.671zM19.022 13.243c-0.694 0-1.258-0.564-1.258-1.258s0.564-1.258 1.258-1.258c0.694 0 1.258 0.564 1.258 1.258s-0.564 1.258-1.258 1.258zM10.208 25.179h-6.144c-0.39 0-0.706 0.316-0.706 0.706s0.316 0.706 0.706 0.706h6.144c0.39 0 0.706-0.316 0.706-0.706s-0.316-0.706-0.706-0.706zM15.043 25.179h-1.612c-0.39 0-0.706 0.316-0.706 0.706s0.316 0.706 0.706 0.706h1.612c0.39 0 0.706-0.316 0.706-0.706s-0.316-0.706-0.706-0.706z"></path>
</svg>
