<!-- Generated by IcoMoon.io -->
<svg version="1.1" xmlns="http://www.w3.org/2000/svg" width="33" height="32" viewBox="0 0 33 32">
<path d="M0.653 0.653v30.825h31.347v-30.825h-31.347zM30.955 30.433h-29.257v-28.735h29.257v28.735z"></path>
<path d="M16.849 25.731h9.404c0.139 0 0.271-0.055 0.369-0.153s0.153-0.231 0.153-0.369c0-0.139-0.055-0.271-0.153-0.369s-0.231-0.153-0.369-0.153h-9.404c-0.139 0-0.271 0.055-0.369 0.153s-0.153 0.231-0.153 0.369c0 0.139 0.055 0.271 0.153 0.369s0.231 0.153 0.369 0.153z"></path>
<path d="M16.849 22.074h5.747c0.139 0 0.271-0.055 0.369-0.153s0.153-0.231 0.153-0.369c0-0.139-0.055-0.271-0.153-0.369s-0.231-0.153-0.369-0.153h-5.747c-0.139 0-0.271 0.055-0.369 0.153s-0.153 0.231-0.153 0.369c0 0.139 0.055 0.271 0.153 0.369s0.231 0.153 0.369 0.153z"></path>
<path d="M16.849 18.416h9.404c0.139 0 0.271-0.055 0.369-0.153s0.153-0.231 0.153-0.369c0-0.139-0.055-0.271-0.153-0.369s-0.231-0.153-0.369-0.153h-9.404c-0.139 0-0.271 0.055-0.369 0.153s-0.153 0.231-0.153 0.369c0 0.139 0.055 0.271 0.153 0.369s0.231 0.153 0.369 0.153z"></path>
<path d="M16.849 14.759h8.36c0.139 0 0.271-0.055 0.369-0.153s0.153-0.231 0.153-0.369c0-0.139-0.055-0.271-0.153-0.369s-0.231-0.153-0.369-0.153h-8.36c-0.139 0-0.271 0.055-0.369 0.153s-0.153 0.231-0.153 0.369c0 0.139 0.055 0.271 0.153 0.369s0.231 0.153 0.369 0.153z"></path>
<path d="M16.849 11.102h6.269c0.139 0 0.271-0.055 0.369-0.153s0.153-0.231 0.153-0.369c0-0.139-0.055-0.271-0.153-0.369s-0.231-0.153-0.369-0.153h-6.269c-0.139 0-0.271 0.055-0.369 0.153s-0.153 0.231-0.153 0.369c0 0.139 0.055 0.271 0.153 0.369s0.231 0.153 0.369 0.153z"></path>
<path d="M16.849 7.445h9.404c0.139 0 0.271-0.055 0.369-0.153s0.153-0.231 0.153-0.369c0-0.139-0.055-0.271-0.153-0.369s-0.231-0.153-0.369-0.153h-9.404c-0.139 0-0.271 0.055-0.369 0.153s-0.153 0.231-0.153 0.369c0 0.138 0.055 0.271 0.153 0.369s0.231 0.153 0.369 0.153z"></path>
<path d="M5.725 22.749c-0.047-0.054-0.105-0.099-0.169-0.13s-0.135-0.049-0.207-0.051c-0.072-0.003-0.143 0.010-0.21 0.036s-0.128 0.066-0.179 0.117c-0.051 0.051-0.091 0.112-0.117 0.179s-0.038 0.139-0.036 0.21 0.020 0.142 0.051 0.207c0.031 0.065 0.075 0.122 0.13 0.169l3.657 3.657c0.098 0.097 0.23 0.151 0.368 0.151s0.27-0.054 0.368-0.151l3.657-3.657c0.086-0.1 0.131-0.229 0.126-0.36s-0.059-0.257-0.153-0.35-0.218-0.148-0.35-0.153c-0.132-0.005-0.26 0.040-0.36 0.126l-2.765 2.765v-18.898l2.765 2.765c0.1 0.086 0.229 0.131 0.36 0.126s0.257-0.059 0.35-0.153c0.093-0.093 0.148-0.218 0.153-0.35s-0.040-0.26-0.126-0.36l-3.657-3.657c-0.049-0.049-0.106-0.087-0.17-0.113-0.095-0.039-0.2-0.050-0.302-0.029s-0.194 0.070-0.268 0.143l-3.657 3.657c-0.054 0.047-0.099 0.104-0.13 0.169s-0.049 0.135-0.051 0.207c-0.003 0.072 0.009 0.143 0.036 0.21s0.066 0.128 0.117 0.179c0.051 0.051 0.112 0.091 0.179 0.117s0.139 0.038 0.21 0.036c0.072-0.003 0.142-0.020 0.207-0.051s0.122-0.075 0.169-0.13l2.765-2.765v18.898l-2.763-2.765z"></path>
</svg>
