<!-- Generated by IcoMoon.io -->
<svg version="1.1" xmlns="http://www.w3.org/2000/svg" width="32" height="32" viewBox="0 0 32 32">
<path stroke-linejoin="miter" stroke-linecap="butt" stroke-miterlimit="4" stroke-width="0.64" stroke="#000" fill="#000" d="M2.347 29.333v0.32h27.307v-27.307h-27.307v26.987zM15.236 22.587v2.027h-9.138v-2.027h9.138zM20.569 17.013h-9.138v-2.027h9.138v2.027zM25.902 9.413h-9.138v-2.027h9.138v2.027zM2.667 31.68c-0.621 0-1.163-0.229-1.64-0.706s-0.706-1.020-0.706-1.64v-26.667c0-0.621 0.229-1.163 0.706-1.64s1.020-0.706 1.64-0.706h26.667c0.621 0 1.163 0.229 1.64 0.706s0.706 1.020 0.706 1.64v26.667c0 0.621-0.229 1.163-0.706 1.64s-1.020 0.706-1.64 0.706h-26.667z"></path>
</svg>
