<!-- Generated by IcoMoon.io -->
<svg version="1.1" xmlns="http://www.w3.org/2000/svg" width="32" height="32" viewBox="0 0 32 32">
<path d="M16 32c-8.8 0-16-7.2-16-16s7.2-16 16-16c3.938 0 7.754 1.477 10.646 4.123 3.385 3.015 5.354 7.323 5.354 11.877s-1.969 8.862-5.354 11.877c-2.892 2.646-6.708 4.123-10.646 4.123zM16 1.231c-8.123 0-14.769 6.646-14.769 14.769s6.646 14.769 14.769 14.769c3.692 0 7.138-1.354 9.846-3.815 3.138-2.769 4.923-6.769 4.923-10.954s-1.785-8.185-4.923-10.954c-2.708-2.462-6.154-3.815-9.846-3.815z"></path>
<path d="M13.6 26.092c-0.492 0-1.046-0.123-1.538-0.308-4.062-1.6-6.646-5.415-6.646-9.785 0-4.308 2.585-8.185 6.646-9.785 1.169-0.492 2.338-0.431 3.2 0.185 0.615 0.369 1.292 1.231 1.292 2.831v13.538c0 0 0 0 0 0 0 1.662-0.738 2.462-1.292 2.831-0.492 0.369-1.046 0.492-1.662 0.492zM13.6 7.077c-0.369 0-0.738 0.062-1.108 0.246-3.569 1.415-5.846 4.862-5.846 8.677s2.277 7.262 5.846 8.677c0.8 0.308 1.6 0.308 2.092-0.062 0.615-0.431 0.738-1.231 0.8-1.846v-13.538c0-0.862-0.308-1.538-0.8-1.846-0.308-0.185-0.615-0.308-0.985-0.308zM15.938 22.769v0 0z"></path>
</svg>
