<!-- Generated by IcoMoon.io -->
<svg version="1.1" xmlns="http://www.w3.org/2000/svg" width="49" height="32" viewBox="0 0 49 32">
<path d="M12.16 0h-9.68c-1.36 0-2.48 1.12-2.48 2.48v14.8c0 1.36 1.12 2.48 2.48 2.48h9.76c1.36 0 2.48-1.12 2.48-2.48v-14.8c-0.080-1.36-1.2-2.48-2.56-2.48zM0.8 2.48c0-0.96 0.72-1.68 1.68-1.68h9.76c0.88 0 1.68 0.72 1.68 1.68v10.24l-1.68-1.84-3.6 4.48-2.64-2.24-4.96 4.72c-0.16-0.16-0.24-0.4-0.24-0.64v-14.72zM12.16 18.88h-9.68c-0.4 0-0.8-0.16-1.040-0.4l4.48-4.32 2.72 2.32 3.52-4.4 1.68 1.84v3.36c0 0.88-0.72 1.6-1.68 1.6z"></path>
<path d="M4.24 12.24c0.96 0 1.76-0.8 1.76-1.76s-0.8-1.76-1.76-1.76-1.84 0.8-1.84 1.76 0.8 1.76 1.84 1.76zM4.24 9.52c0.56 0 0.96 0.4 0.96 0.96s-0.4 0.96-0.96 0.96c-0.56 0-0.96-0.4-0.96-0.96s0.4-0.96 0.96-0.96z"></path>
<path d="M29.52 17.36h-9.68c-1.36 0-2.48 1.12-2.48 2.48v9.76c0 1.36 1.12 2.48 2.48 2.48h9.76c1.36 0 2.48-1.12 2.48-2.48v-9.76c-0.080-1.36-1.2-2.48-2.56-2.48zM31.2 29.6c0 0.88-0.72 1.68-1.68 1.68h-9.68c-0.88 0-1.68-0.72-1.68-1.68v-9.76c0-0.88 0.72-1.68 1.68-1.68h9.76c0.88 0 1.68 0.72 1.68 1.68v9.76z"></path>
<path d="M12.16 22.4h-9.68c-1.36 0-2.48 1.12-2.48 2.48v4.64c0 1.36 1.12 2.48 2.48 2.48h9.76c1.36 0 2.48-1.12 2.48-2.48v-4.64c-0.080-1.36-1.2-2.48-2.56-2.48zM13.84 29.52c0 0.88-0.72 1.68-1.68 1.68h-9.68c-0.96 0-1.68-0.72-1.68-1.68v-4.64c0-0.88 0.72-1.68 1.68-1.68h9.76c0.88 0 1.68 0.72 1.68 1.68v4.64z"></path>
<path d="M46.96 12.32h-9.76c-1.36 0-2.48 1.12-2.48 2.48v14.8c0 1.36 1.12 2.48 2.48 2.48h9.76c1.36 0 2.48-1.12 2.48-2.48v-14.8c-0.080-1.36-1.12-2.48-2.48-2.48zM35.6 14.8c0-0.88 0.72-1.68 1.68-1.68h9.76c0.88 0 1.68 0.72 1.68 1.68v10.24l-1.68-1.84-3.6 4.48-2.64-2.24-4.96 4.72c-0.080-0.16-0.16-0.4-0.16-0.64v-14.72zM46.96 31.2h-9.76c-0.4 0-0.8-0.16-1.040-0.4l4.48-4.32 2.72 2.32 3.52-4.4 1.68 1.84v3.36c0 0.88-0.72 1.6-1.6 1.6z"></path>
<path d="M38.96 24.64c0.96 0 1.76-0.8 1.76-1.76s-0.8-1.76-1.76-1.76-1.76 0.8-1.76 1.76 0.8 1.76 1.76 1.76zM38.96 21.84c0.56 0 0.96 0.4 0.96 0.96s-0.4 0.96-0.96 0.96-0.96-0.4-0.96-0.96 0.48-0.96 0.96-0.96z"></path>
<path d="M46.96 0h-9.76c-1.36 0-2.48 1.12-2.48 2.48v4.64c0 1.36 1.12 2.48 2.48 2.48h9.76c1.36 0 2.48-1.12 2.48-2.48v-4.64c-0.080-1.36-1.12-2.48-2.48-2.48zM48.56 7.12c0 0.88-0.72 1.68-1.68 1.68h-9.68c-0.88 0-1.68-0.72-1.68-1.68v-4.64c0-0.88 0.72-1.68 1.68-1.68h9.76c0.88 0 1.68 0.72 1.68 1.68v4.64z"></path>
<path d="M29.52 0h-9.68c-1.36 0-2.48 1.12-2.48 2.48v9.76c0 1.36 1.12 2.48 2.48 2.48h9.76c1.36 0 2.48-1.12 2.48-2.48v-9.76c-0.080-1.36-1.2-2.48-2.56-2.48zM31.2 12.16c0 0.88-0.72 1.68-1.68 1.68h-9.68c-0.88 0-1.68-0.72-1.68-1.68v-9.68c0-0.88 0.72-1.68 1.68-1.68h9.76c0.88 0 1.6 0.72 1.6 1.68v9.68z"></path>
</svg>
