<!-- Generated by IcoMoon.io -->
<svg version="1.1" xmlns="http://www.w3.org/2000/svg" width="50" height="32" viewBox="0 0 50 32">
<path d="M2.48 13.92h27.36c1.36 0 2.48-1.12 2.48-2.48v-8.96c0-1.36-1.12-2.48-2.48-2.48h-27.36c-1.36 0-2.48 1.12-2.48 2.48v8.96c0 1.36 1.12 2.48 2.48 2.48zM29.84 13.12h-9.6l3.76-3.6 2.56 2.16 3.36-4.16 1.52 1.68v2.24c0.080 0.88-0.72 1.68-1.6 1.68zM0.8 2.48c0-0.96 0.72-1.68 1.68-1.68h27.36c0.88 0 1.68 0.72 1.68 1.68v5.52l-1.6-1.76-3.44 4.24-2.48-2.080-4.88 4.72h-16.64c-0.88 0-1.68-0.72-1.68-1.68v-8.96z"></path>
<path d="M22.4 7.68c0.96 0 1.68-0.8 1.68-1.68 0-0.96-0.8-1.68-1.68-1.68-0.96 0-1.68 0.8-1.68 1.68 0 0.96 0.72 1.68 1.68 1.68zM22.4 5.12c0.48 0 0.88 0.4 0.88 0.88s-0.4 0.88-0.88 0.88-0.88-0.4-0.88-0.88 0.4-0.88 0.88-0.88z"></path>
<path d="M47.68 0h-9.040c-1.36 0-2.48 1.12-2.48 2.48v8.96c0 1.36 1.12 2.48 2.48 2.48h8.96c1.36 0 2.48-1.12 2.48-2.48v-8.96c0-1.36-1.040-2.48-2.4-2.48zM49.28 11.44c0 0.88-0.72 1.68-1.68 1.68h-8.96c-0.88 0-1.68-0.72-1.68-1.68v-8.96c0-0.88 0.72-1.68 1.68-1.68h8.96c0.88 0 1.68 0.72 1.68 1.68v8.96z"></path>
<path d="M47.68 18.080h-27.44c-1.36 0-2.48 1.12-2.48 2.48v8.96c0 1.36 1.12 2.48 2.48 2.48h27.36c1.36 0 2.48-1.12 2.48-2.48v-8.96c0-1.36-1.040-2.48-2.4-2.48zM49.28 29.52c0 0.88-0.72 1.68-1.68 1.68h-27.36c-0.88 0-1.68-0.72-1.68-1.68v-8.96c0-0.88 0.72-1.68 1.68-1.68h27.36c0.88 0 1.68 0.72 1.68 1.68v8.96z"></path>
<path d="M11.44 18.080h-8.96c-1.36 0-2.48 1.12-2.48 2.48v8.96c0 1.36 1.12 2.48 2.48 2.48h8.96c1.36 0 2.48-1.12 2.48-2.48v-8.96c0-1.36-1.12-2.48-2.48-2.48zM0.8 20.56c0-0.88 0.72-1.68 1.68-1.68h8.96c0.88 0 1.68 0.72 1.68 1.68v4.72l-1.6-1.68-3.44 4.24-2.48-2.16-4.64 4.48c-0.080-0.16-0.16-0.4-0.16-0.64v-8.96zM11.44 31.2h-8.96c-0.4 0-0.72-0.16-1.040-0.4l4.16-4 2.56 2.16 3.36-4.16 1.52 1.68v3.12c0.080 0.88-0.72 1.6-1.6 1.6z"></path>
<path d="M4 25.040c0.96 0 1.68-0.8 1.68-1.68s-0.72-1.76-1.68-1.76-1.68 0.8-1.68 1.68 0.72 1.76 1.68 1.76zM4 22.4c0.48 0 0.88 0.4 0.88 0.88s-0.4 0.96-0.88 0.96-0.88-0.4-0.88-0.88 0.4-0.96 0.88-0.96z"></path>
</svg>
