<!-- Generated by IcoMoon.io -->
<svg version="1.1" xmlns="http://www.w3.org/2000/svg" width="34" height="32" viewBox="0 0 34 32">
<path d="M15.446 32c-0.431 0-0.862-0.062-1.231-0.123-5.415-1.231-8.369-10.092-12.431-22.462l-0.369-1.108c-1.6-4.8-1.785-6.954-0.8-7.877s2.769-0.246 5.477 0.862c4.369 1.723 10.892 4.369 18.154 1.6 3.877-1.477 7.385-0.8 9.108 1.785 3.631 5.415-1.969 14.708-8.431 21.538v0c-3.692 3.938-6.769 5.785-9.477 5.785zM1.846 1.231c-0.185 0-0.308 0-0.431 0.123-0.308 0.308-0.431 1.723 1.169 6.585l0.369 1.108c3.815 11.508 6.769 20.554 11.508 21.6 2.523 0.554 5.662-1.169 9.538-5.292 5.846-6.215 11.569-15.2 8.308-20-1.415-2.092-4.369-2.585-7.631-1.354-7.754 3.015-14.585 0.246-19.077-1.6-1.477-0.554-3.015-1.169-3.754-1.169z"></path>
<path d="M20.185 21.169h-5.908c-0.738 0-1.415-0.369-1.846-1.046-0.369-0.615-0.431-1.415-0.123-2.092l0.8-1.6c0.308-0.554 0.738-0.923 1.231-0.985s1.046 0.185 1.415 0.677l0.123 0.123c0.185 0.246 0.369 0.369 0.554 0.308 0.185 0 0.369-0.185 0.492-0.431l0.862-1.6c0.492-0.923 1.169-1.046 1.477-1.046s0.923 0.185 1.354 1.169l1.477 3.446c0 0 0 0 0 0 0.308 0.677 0.185 1.415-0.185 2.031-0.308 0.677-0.985 1.046-1.723 1.046zM14.523 16.369c0 0 0 0 0 0-0.246 0-0.431 0.185-0.554 0.431l-0.8 1.662c-0.185 0.369-0.185 0.862 0.062 1.231s0.615 0.554 1.046 0.554h5.908c0.431 0 0.8-0.185 1.046-0.554s0.246-0.8 0.123-1.169l-1.477-3.446c-0.185-0.369-0.369-0.615-0.554-0.615s-0.431 0.185-0.615 0.554l-0.923 1.6c-0.308 0.554-0.738 0.862-1.231 0.862-0.492 0.062-0.985-0.185-1.354-0.677l-0.123-0.123c-0.185-0.185-0.369-0.308-0.554-0.308z"></path>
<path d="M14.892 14.585c-1.046 0-1.846-0.862-1.846-1.846s0.862-1.846 1.846-1.846 1.846 0.862 1.846 1.846-0.8 1.846-1.846 1.846zM14.892 11.754c-0.492 0-0.923 0.431-0.923 0.923s0.431 0.923 0.923 0.923 0.923-0.431 0.923-0.923-0.369-0.923-0.923-0.923z"></path>
</svg>
