<!-- Generated by IcoMoon.io -->
<svg version="1.1" xmlns="http://www.w3.org/2000/svg" width="32" height="32" viewBox="0 0 32 32">
<path d="M10.787 5.85h-3.65v-4.688h-6.444v30.481h6.45v-24.556h3.65v1.563h1.238v-4.362h-1.238v1.563zM5.838 30.337h-3.906v-27.875h3.906v27.875zM26.356 8.931l0.256 0.894 4.688-1.369-1.881-6.513-4.688 1.369 0.269 0.931-6.644 1.956-0.269-0.938-4.688 1.369 1.887 6.513 4.688-1.369-0.256-0.887 1.4-0.412 5.3 18.038 3.844-1.044-5.313-18.125 1.406-0.412zM28.506 3.506l1.175 4.1-2.212 0.65-1.175-4.1 2.212-0.65zM16.131 11.581l-1.175-4.1 2.212-0.65 1.175 4.1-2.212 0.65zM19.363 9.681l-0.656-2.281 6.606-1.944 0.65 2.281-6.6 1.944zM28.637 26.563l-1.369 0.394-4.938-16.831 1.363-0.4 4.944 16.837z"></path>
</svg>
