<!-- Generated by IcoMoon.io -->
<svg version="1.1" xmlns="http://www.w3.org/2000/svg" width="32" height="32" viewBox="0 0 32 32">
<path d="M31.292 16.613l-4.317-9.868c-0.477-1.091-1.784-1.945-2.974-1.945h-16c-1.191 0-2.497 0.854-2.974 1.945l-4.317 9.868c-0.397 0.908-0.708 2.396-0.708 3.387v6.4c0 1.323 1.077 2.4 2.4 2.4h27.2c1.323 0 2.4-1.077 2.4-2.4v-6.4c0-0.991-0.311-2.479-0.708-3.386zM6.492 7.386c0.226-0.516 0.945-0.987 1.508-0.987h16c0.564 0 1.282 0.47 1.508 0.987l4.317 9.868c0.049 0.111 0.096 0.237 0.142 0.373-0.12-0.019-0.243-0.028-0.368-0.028h-9.6c-0.442 0-0.8 0.358-0.8 0.8v0.8c0 1.764-1.436 3.2-3.2 3.2s-3.2-1.436-3.2-3.2v-0.8c0-0.442-0.358-0.8-0.8-0.8h-9.6c-0.125 0-0.248 0.010-0.368 0.028 0.046-0.136 0.094-0.262 0.142-0.373l4.317-9.868zM30.4 26.4c0 0.441-0.359 0.8-0.8 0.8h-27.2c-0.441 0-0.8-0.359-0.8-0.8v-6.4c0-0.441 0.359-0.8 0.8-0.8h8.8c0 2.647 2.153 4.8 4.8 4.8s4.8-2.153 4.8-4.8h8.8c0.441 0 0.8 0.359 0.8 0.8v6.4z"></path>
</svg>
