<!-- Generated by IcoMoon.io -->
<svg version="1.1" xmlns="http://www.w3.org/2000/svg" width="32" height="32" viewBox="0 0 32 32">
<path d="M19.529 21.196h-7.058c-0.532 0-0.965 0.433-0.965 0.965v2.165c0 0.532 0.433 0.965 0.965 0.965h7.058c0.532 0 0.965-0.433 0.965-0.965v-2.165c-0-0.532-0.433-0.965-0.965-0.965zM19.253 24.050h-6.506v-1.613h6.506v1.613zM31.686 15.835l0.010-0.005-4.65-9.194c-0.376-0.743-1.127-1.205-1.959-1.205h-0.884v-0.855c0-0.343-0.278-0.62-0.62-0.62h-15.165c-0.342 0-0.62 0.278-0.62 0.62v0.855h-0.884c-0.833 0-1.583 0.462-1.959 1.205l-4.65 9.194 0.010 0.005c-0.199 0.328-0.314 0.713-0.314 1.124v9.713c0 1.198 0.974 2.172 2.172 2.172h27.656c1.198 0 2.172-0.974 2.172-2.172v-9.713c0-0.411-0.115-0.796-0.314-1.124zM24.203 6.809h0.884c0.31 0 0.589 0.172 0.729 0.449l3.808 7.529h-2.589v-2.317c0-0.342-0.278-0.62-0.62-0.62h-0.767v-3.327c0-0.342-0.278-0.62-0.62-0.62h-0.825v-1.094zM25.794 13.090v1.697h-3.272c-0.561 0-1.073 0.331-1.304 0.843l-0.893 1.982c-0.009 0.019-0.027 0.031-0.048 0.031h-8.553c-0.021 0-0.039-0.012-0.048-0.031l-0.893-1.982c-0.231-0.512-0.743-0.843-1.304-0.843h-3.272v-1.697h19.589zM9.038 5.197h13.925v2.707h-13.925v-2.707zM24.407 9.143v2.707h-16.814v-2.707h16.814zM6.184 7.258c0.14-0.277 0.42-0.449 0.729-0.449h0.884v1.094h-0.824c-0.343 0-0.62 0.278-0.62 0.62v3.327h-0.767c-0.343 0-0.62 0.278-0.62 0.62v2.317h-2.589l3.808-7.529zM29.828 27.466h-27.656c-0.438 0-0.794-0.356-0.794-0.794v-9.713c0-0.438 0.356-0.794 0.794-0.794h7.306c0.021 0 0.039 0.012 0.048 0.031l0.893 1.982c0.231 0.512 0.743 0.843 1.304 0.843h8.553c0.561 0 1.073-0.331 1.304-0.843l0.893-1.982c0.009-0.019 0.027-0.031 0.048-0.031h7.306c0.438 0 0.794 0.356 0.794 0.794v9.713h0c0 0.438-0.356 0.794-0.794 0.794z"></path>
</svg>
