<!-- Generated by IcoMoon.io -->
<svg version="1.1" xmlns="http://www.w3.org/2000/svg" width="32" height="32" viewBox="0 0 32 32">
<path d="M28 8h-24c-0.442 0-0.8-0.358-0.8-0.8s0.358-0.8 0.8-0.8h24c0.442 0 0.8 0.358 0.8 0.8s-0.358 0.8-0.8 0.8zM28 12.8h-12.8c-0.442 0-0.8-0.358-0.8-0.8s0.358-0.8 0.8-0.8h12.8c0.442 0 0.8 0.358 0.8 0.8s-0.358 0.8-0.8 0.8zM28 17.6h-12.8c-0.442 0-0.8-0.358-0.8-0.8s0.358-0.8 0.8-0.8h12.8c0.442 0 0.8 0.358 0.8 0.8s-0.358 0.8-0.8 0.8zM28 22.4h-12.8c-0.442 0-0.8-0.358-0.8-0.8s0.358-0.8 0.8-0.8h12.8c0.442 0 0.8 0.358 0.8 0.8s-0.358 0.8-0.8 0.8zM28 27.2h-24c-0.442 0-0.8-0.358-0.8-0.8s0.358-0.8 0.8-0.8h24c0.442 0 0.8 0.358 0.8 0.8s-0.358 0.8-0.8 0.8zM10.4 22.4c-0.17 0-0.339-0.054-0.48-0.16l-6.4-4.8c-0.201-0.151-0.32-0.388-0.32-0.64s0.119-0.489 0.32-0.64l6.4-4.8c0.242-0.182 0.567-0.211 0.838-0.076s0.442 0.412 0.442 0.716v9.6c0 0.303-0.171 0.58-0.442 0.716-0.113 0.057-0.236 0.084-0.358 0.084zM5.333 16.8l4.267 3.2v-6.4l-4.267 3.2z"></path>
</svg>
