<!-- Generated by IcoMoon.io -->
<svg version="1.1" xmlns="http://www.w3.org/2000/svg" width="32" height="32" viewBox="0 0 32 32">
<path d="M19.585 7.112c-0.62-0.697-1.586-1.097-2.651-1.097-1.903 0-3.603 1.299-3.791 2.897-0.084 0.731 0.143 1.44 0.639 1.997 0.61 0.684 1.567 1.076 2.628 1.076 1.952 0 3.628-1.273 3.815-2.896 0.084-0.718-0.142-1.42-0.639-1.979zM18.698 8.913c-0.096 0.833-1.144 1.537-2.289 1.537-0.614 0-1.167-0.21-1.481-0.562-0.207-0.232-0.294-0.501-0.26-0.797 0.096-0.82 1.155-1.539 2.265-1.539 0.618 0 1.18 0.217 1.504 0.581 0.142 0.16 0.303 0.425 0.261 0.78zM18.859 23.493c-0.192-0.129-0.641-0.43-0.279-2.523 0.009-0.046 0.046-0.214 0.102-0.476 0.129-0.597 0.369-1.709 0.629-2.949 0.001-0.003 0.001-0.006 0.002-0.008 0.266-1.34 0.055-2.512-0.609-3.39-0.599-0.792-1.549-1.278-2.672-1.368-1.662-0.133-3.4 0.859-3.932 1.835-0.246 0.432-0.128 0.784-0.036 0.956 0.115 0.213 0.283 0.332 0.405 0.419 0.189 0.134 0.631 0.448 0.211 2.536-0.039 0.191-0.625 3.169-0.702 3.592-0.001 0.003-0.001 0.006-0.002 0.009-0.231 1.346-0.003 2.523 0.697 3.372 1.127 1.368 2.841 1.302 2.908 1.302 1.598-0 3.195-0.993 3.682-1.942 0.235-0.439 0.108-0.787 0.010-0.956-0.12-0.209-0.291-0.324-0.416-0.408zM17.808 17.233c-0.259 1.234-0.498 2.341-0.626 2.936-0.087 0.405-0.105 0.487-0.111 0.52-0 0.003-0.001 0.005-0.001 0.008-0.39 2.241 0.005 3.223 0.563 3.771-0.153 0.136-0.362 0.283-0.62 0.417-0.509 0.263-1.073 0.398-1.548 0.373-0.692-0.037-1.241-0.287-1.589-0.722-0.405-0.507-0.537-1.25-0.384-2.15 0.084-0.455 0.67-3.433 0.695-3.552 0-0.003 0.001-0.005 0.002-0.008 0.449-2.23 0.080-3.221-0.464-3.785 0.156-0.132 0.369-0.274 0.631-0.4 0.516-0.249 1.083-0.37 1.557-0.333 0.691 0.055 1.233 0.319 1.569 0.763 0.391 0.517 0.505 1.264 0.328 2.16zM28.726 25.085c2.114-2.537 3.274-5.672 3.274-8.873 0-3.923-1.674-7.608-4.712-10.375-3.019-2.749-7.027-4.262-11.288-4.262s-8.269 1.514-11.288 4.262c-3.039 2.767-4.712 6.451-4.712 10.375s1.673 7.608 4.712 10.375c3.019 2.749 7.027 4.262 11.288 4.262 2.664 0 5.29-0.608 7.617-1.762l5.576 2.088c0.088 0.033 0.179 0.049 0.269 0.049 0.19 0 0.377-0.070 0.521-0.204 0.213-0.197 0.297-0.497 0.218-0.775l-1.475-5.161zM23.839 27.531c-0.204-0.077-0.431-0.063-0.625 0.038-2.184 1.141-4.678 1.744-7.214 1.744-7.975 0-14.464-5.877-14.464-13.101s6.488-13.101 14.464-13.101 14.464 5.877 14.464 13.101c0 3.006-1.095 5.834-3.166 8.178-0.174 0.196-0.235 0.468-0.163 0.72l1.17 4.094-4.466-1.672z"></path>
</svg>
