<!-- Generated by IcoMoon.io -->
<svg version="1.1" xmlns="http://www.w3.org/2000/svg" width="61" height="32" viewBox="0 0 61 32">
<path d="M55.535 20.439c-0.413 0-0.826 0-1.239 0.103-3.2-6.813-9.187-11.974-16.413-14.039h14.039c0.206 1.239 1.342 2.168 2.581 2.168 1.445 0 2.684-1.239 2.684-2.684s-1.239-2.684-2.684-2.684c-1.342 0-2.374 0.929-2.581 2.168h-15.587c-0.103-3.097-2.684-5.574-5.781-5.574s-5.574 2.477-5.781 5.574h-13.935c-0.206-1.135-1.342-2.065-2.581-2.065-1.445 0-2.684 1.239-2.684 2.684s1.239 2.581 2.684 2.581c1.342 0 2.374-0.929 2.581-2.168h12.49c-7.226 2.065-13.213 7.226-16.413 14.039-0.413-0.103-0.826-0.103-1.239-0.103-3.2 0-5.781 2.581-5.781 5.781s2.684 5.781 5.884 5.781 5.781-2.581 5.781-5.781c0-2.374-1.445-4.439-3.51-5.265 3.2-7.019 9.497-12.077 17.032-13.729 0.619 2.477 2.89 4.335 5.574 4.335s4.955-1.858 5.574-4.335c7.432 1.652 13.832 6.813 17.032 13.729-2.065 0.826-3.51 2.89-3.51 5.265 0 3.2 2.581 5.781 5.781 5.781s5.781-2.581 5.781-5.781-2.684-5.781-5.781-5.781zM54.503 4.439c0.929 0 1.652 0.723 1.652 1.652s-0.723 1.652-1.652 1.652-1.652-0.723-1.652-1.652c0.103-0.929 0.826-1.652 1.652-1.652zM10.529 26.219c0 2.581-2.168 4.748-4.748 4.748s-4.748-2.168-4.748-4.748 2.168-4.748 4.748-4.748 4.748 2.168 4.748 4.748zM8.258 7.639c-0.929 0-1.652-0.723-1.652-1.652 0-0.826 0.723-1.548 1.652-1.548s1.548 0.723 1.652 1.548c0 0 0 0 0 0.103s0 0 0 0.103c-0.103 0.826-0.826 1.445-1.652 1.445zM30.658 10.529c-2.581 0-4.748-2.168-4.748-4.748s2.065-4.748 4.748-4.748 4.748 2.168 4.748 4.748-2.168 4.748-4.748 4.748zM55.535 30.968c-2.581 0-4.748-2.168-4.748-4.748s2.168-4.748 4.748-4.748 4.748 2.168 4.748 4.748-2.168 4.748-4.748 4.748z"></path>
</svg>
