<!-- Generated by IcoMoon.io -->
<svg version="1.1" xmlns="http://www.w3.org/2000/svg" width="32" height="32" viewBox="0 0 32 32">
<path d="M4.688 32h22.625c2.585 0 4.688-2.103 4.688-4.688v-22.625c0-2.585-2.103-4.688-4.688-4.688h-22.625c-2.585 0-4.688 2.103-4.688 4.688v22.625c0 2.585 2.103 4.688 4.688 4.688zM1.875 4.688c0-1.551 1.262-2.813 2.813-2.813h22.625c1.551 0 2.813 1.262 2.813 2.813v22.625c0 1.551-1.262 2.813-2.813 2.813h-22.625c-1.551 0-2.813-1.262-2.813-2.813z"></path>
<path d="M16 24.438c4.652 0 8.438-3.785 8.438-8.438s-3.785-8.438-8.438-8.438-8.438 3.785-8.438 8.438 3.785 8.438 8.438 8.438zM16 9.438c3.619 0 6.563 2.944 6.563 6.563s-2.944 6.563-6.563 6.563-6.563-2.944-6.563-6.563 2.944-6.563 6.563-6.563z"></path>
<path d="M25.375 9.438c1.551 0 2.813-1.262 2.813-2.813s-1.262-2.813-2.813-2.813-2.813 1.262-2.813 2.813 1.262 2.813 2.813 2.813zM25.375 5.688c0.517 0 0.938 0.421 0.938 0.938s-0.421 0.938-0.938 0.938-0.938-0.421-0.938-0.938 0.421-0.938 0.938-0.938z"></path>
</svg>
