<!-- Generated by IcoMoon.io -->
<svg version="1.1" xmlns="http://www.w3.org/2000/svg" width="32" height="32" viewBox="0 0 32 32">
<path d="M23.829 32.4h-15.657c-4.505 0-8.171-3.667-8.171-8.172v-15.657c0-4.505 3.666-8.17 8.171-8.17h15.657c4.505 0 8.171 3.665 8.171 8.17v15.657c0 4.506-3.666 8.172-8.171 8.172zM8.171 2.228c-3.498 0-6.343 2.845-6.343 6.341v15.657c0 3.498 2.846 6.343 6.343 6.343h15.657c3.498 0 6.341-2.846 6.341-6.343v-15.656c0-3.498-2.845-6.341-6.341-6.341h-15.657zM31.085 12.407h-11.27c-0.505 0-0.915-0.41-0.915-0.915s0.409-0.915 0.915-0.915h11.269c0.505 0 0.915 0.409 0.915 0.915 0.001 0.505-0.409 0.915-0.914 0.915zM11.948 12.407h-11.034c-0.505 0-0.914-0.41-0.914-0.914 0-0.505 0.409-0.915 0.914-0.915h11.034c0.505 0 0.915 0.409 0.915 0.915-0.001 0.504-0.41 0.914-0.915 0.914zM15.999 23.53c-3.932 0-7.132-3.198-7.132-7.131s3.199-7.132 7.132-7.132c3.932 0 7.131 3.198 7.131 7.132 0 3.933-3.198 7.131-7.131 7.131zM15.999 11.097c-2.924 0-5.304 2.38-5.304 5.304s2.38 5.302 5.304 5.302c2.924 0 5.302-2.378 5.302-5.302s-2.378-5.304-5.302-5.304zM26.331 10.045h-4.114c-0.505 0-0.915-0.409-0.915-0.914v-4.115c0-0.505 0.41-0.914 0.915-0.914h4.114c0.505 0 0.914 0.409 0.914 0.914v4.115c-0.001 0.506-0.409 0.914-0.914 0.914zM23.13 8.216h2.286v-2.285h-2.286v2.285z"></path>
</svg>
