<!-- Generated by IcoMoon.io -->
<svg version="1.1" xmlns="http://www.w3.org/2000/svg" width="32" height="32" viewBox="0 0 32 32">
<path d="M27.707 32h-23.415c-2.341 0-4.293-1.951-4.293-4.293v-23.415c0-2.341 1.951-4.293 4.293-4.293h23.415c2.341 0 4.293 1.951 4.293 4.293v23.415c0 2.341-1.951 4.293-4.293 4.293zM4.293 0.78c-1.951 0-3.512 1.561-3.512 3.512v23.415c0 1.951 1.561 3.512 3.512 3.512h23.415c1.951 0 3.512-1.561 3.512-3.512v-23.415c0-1.951-1.561-3.512-3.512-3.512h-23.415z"></path>
<path d="M16 24.195c-4.527 0-8.195-3.668-8.195-8.195s3.668-8.195 8.195-8.195c4.527 0 8.195 3.668 8.195 8.195s-3.668 8.195-8.195 8.195zM16 8.585c-4.059 0-7.415 3.278-7.415 7.415s3.278 7.415 7.415 7.415 7.415-3.278 7.415-7.415-3.356-7.415-7.415-7.415z"></path>
<path d="M25.912 8.741c-1.327 0-2.419-1.093-2.419-2.42s1.093-2.42 2.419-2.42 2.419 1.093 2.419 2.42c0 1.327-1.093 2.42-2.419 2.42zM25.912 4.683c-0.937 0-1.639 0.702-1.639 1.639s0.702 1.639 1.639 1.639 1.639-0.702 1.639-1.639c0-0.859-0.702-1.639-1.639-1.639z"></path>
</svg>
