<!-- Generated by IcoMoon.io -->
<svg version="1.1" xmlns="http://www.w3.org/2000/svg" width="48" height="32" viewBox="0 0 48 32">
<path fill="#021343" d="M1.54 5.305h16.77c0.342 0 0.684-0.342 0.684-0.684s-0.342-0.684-0.684-0.684h-16.77c-0.342 0-0.684 0.342-0.684 0.684s0.171 0.684 0.684 0.684zM18.31 10.61h-16.77c-0.856 0-1.54 0.684-1.54 1.54s0.684 1.54 1.54 1.54h16.77c0.856 0 1.54-0.684 1.54-1.54s-0.684-1.54-1.54-1.54zM18.31 18.995h-16.77c-0.342 0-0.684 0.342-0.684 0.684s0.171 0.856 0.684 0.856h16.77c0.342 0 0.684-0.342 0.684-0.684s-0.342-0.856-0.684-0.856zM18.31 26.695h-16.77c-0.342 0-0.684 0.342-0.684 0.684s0.342 0.684 0.684 0.684h16.77c0.342 0 0.684-0.342 0.684-0.684s-0.342-0.684-0.684-0.684zM42.61 0h-12.15c-2.909 0-5.305 2.396-5.305 5.305v21.219c0 2.909 2.396 5.305 5.305 5.305h12.15c2.909 0 5.305-2.396 5.305-5.305v-21.219c0-2.909-2.396-5.305-5.305-5.305zM46.374 26.695c0 2.053-1.711 3.765-3.765 3.765h-12.15c-2.053 0-3.765-1.711-3.765-3.765v-21.39c0-2.053 1.711-3.765 3.765-3.765h12.15c2.053 0 3.765 1.711 3.765 3.765v21.39zM41.925 14.374c-0.513-0.856-1.198-1.54-2.053-1.54s-1.711 0.513-2.225 1.369l-1.198 1.711c-0.342 0.171-0.513 0.342-0.513 0.342-0.171 0-0.342 0-0.513-0.171l-0.171-0.171c-0.684-0.684-1.369-0.856-2.225-0.856s-1.54 0.513-1.882 1.198l-1.027 1.711c-0.513 0.856-0.513 2.053 0.171 2.738 0.684 0.856 1.54 1.198 2.738 1.198h7.872c1.027 0 2.053-0.513 2.738-1.198 0.684-0.856 0.856-1.882 0.342-2.738l-2.053-3.594zM42.267 19.85c-0.342 0.342-0.856 0.684-1.54 0.684h-7.872c-0.684 0-1.198-0.171-1.54-0.684-0.342-0.342-0.342-0.684 0-1.027l1.027-1.711c0.171-0.171 0.342-0.513 0.856-0.513 0 0 0 0 0 0 0.342 0 0.684 0.171 0.856 0.342l0.171 0.171c0.513 0.513 1.027 0.684 1.711 0.684s1.198-0.342 1.54-0.856l1.198-1.711c0.171-0.171 0.513-0.684 1.027-0.684 0.342 0 0.684 0.342 0.856 0.684l1.882 3.765c0.171 0.171 0.171 0.513-0.171 0.856zM33.882 14.374c1.54 0 2.738-1.198 2.738-2.738s-1.198-2.738-2.738-2.738c-1.54 0-2.738 1.198-2.738 2.738s1.198 2.738 2.738 2.738zM33.882 10.61c0.684 0 1.198 0.513 1.198 1.198s-0.513 1.198-1.198 1.198c-0.684 0-1.198-0.513-1.198-1.198s0.513-1.198 1.198-1.198z"></path>
</svg>
