<!-- Generated by IcoMoon.io -->
<svg version="1.1" xmlns="http://www.w3.org/2000/svg" width="32" height="32" viewBox="0 0 32 32">
<path d="M21.375 20.925c-0.756 0-1.375-0.531-1.375-1.188s0.619-1.188 1.375-1.188 1.375 0.531 1.375 1.188c0 0.344 0.281 0.625 0.625 0.625s0.625-0.281 0.625-0.625c0-1.144-0.856-2.106-2-2.369v-0.325c0-0.344-0.281-0.625-0.625-0.625s-0.625 0.281-0.625 0.625v0.325c-1.144 0.262-2 1.225-2 2.369 0 1.344 1.175 2.438 2.625 2.438 0.756 0 1.375 0.531 1.375 1.188s-0.619 1.188-1.375 1.188-1.375-0.531-1.375-1.188c0-0.344-0.281-0.625-0.625-0.625s-0.625 0.281-0.625 0.625c0 1.144 0.856 2.106 2 2.369v0.269c0 0.344 0.281 0.625 0.625 0.625s0.625-0.281 0.625-0.625v-0.269c1.144-0.262 2-1.225 2-2.369 0-1.344-1.181-2.438-2.625-2.438zM28.219 17.206c-0.819-1.275-1.969-2.287-3.325-2.944-0.313-0.15-0.688-0.019-0.831 0.294-0.15 0.313-0.019 0.688 0.294 0.831 2.363 1.138 3.894 3.575 3.894 6.2 0 1.125-0.275 2.238-0.8 3.225-0.163 0.306-0.044 0.681 0.256 0.844 0.094 0.050 0.194 0.075 0.294 0.075 0.225 0 0.438-0.119 0.55-0.331 0.619-1.163 0.95-2.481 0.95-3.813 0-1.563-0.444-3.075-1.281-4.381zM22.356 13.463h-0.044c-0.344 0-0.625 0.281-0.625 0.625s0.281 0.625 0.625 0.625h0.038c0 0 0 0 0 0 0.344 0 0.625-0.275 0.625-0.625 0.006-0.344-0.275-0.625-0.619-0.625zM18.4 27.788c-2.369-1.137-3.9-3.575-3.9-6.2 0-1.125 0.275-2.238 0.8-3.225 0.162-0.306 0.044-0.681-0.256-0.844-0.306-0.163-0.681-0.044-0.844 0.256-0.619 1.163-0.95 2.481-0.95 3.813 0 1.563 0.444 3.075 1.281 4.381 0.819 1.275 1.969 2.288 3.325 2.944 0.087 0.044 0.181 0.063 0.269 0.063 0.231 0 0.456-0.131 0.563-0.356 0.156-0.306 0.025-0.681-0.288-0.831zM20.438 28.462h-0.038c-0.344 0-0.625 0.275-0.625 0.625 0 0.344 0.275 0.625 0.625 0.625h0.044c0.344 0 0.625-0.281 0.625-0.625-0.006-0.344-0.288-0.625-0.631-0.625zM24.212 11.35c-0.075-0.181-0.169-0.35-0.275-0.512h1.625c1.587 0 2.875-1.287 2.875-2.875s-1.288-2.875-2.875-2.875h-5.006c0.319-0.463 0.506-1.025 0.506-1.625 0-1.587-1.288-2.875-2.875-2.875h-15.313c-1.587 0-2.875 1.288-2.875 2.875s1.288 2.875 2.875 2.875h5.006c-0.319 0.463-0.506 1.025-0.506 1.625s0.188 1.162 0.506 1.625h-1.631c-1.588 0-2.875 1.287-2.875 2.875 0 0.912 0.425 1.725 1.088 2.25-0.663 0.525-1.087 1.338-1.087 2.25s0.425 1.725 1.087 2.25c-0.663 0.525-1.087 1.337-1.087 2.25s0.425 1.725 1.087 2.25c-0.663 0.525-1.087 1.337-1.087 2.25 0 1.587 1.288 2.875 2.875 2.875h7.369c1.938 2.075 4.7 3.375 7.763 3.375 5.856 0 10.625-4.769 10.625-10.625-0.006-4.875-3.306-8.994-7.794-10.238zM25.563 6.338c0.894 0 1.625 0.731 1.625 1.625s-0.731 1.625-1.625 1.625h-15.313c-0.894 0-1.625-0.731-1.625-1.625s0.731-1.625 1.625-1.625h15.313zM2.875 5.088c-0.894 0-1.625-0.731-1.625-1.625s0.731-1.625 1.625-1.625h15.313c0.894 0 1.625 0.731 1.625 1.625s-0.731 1.625-1.625 1.625h-15.313zM6.25 10.838h15.313c0.25 0 0.494 0.056 0.706 0.162-0.294-0.025-0.594-0.037-0.894-0.037-2.931 0-5.594 1.194-7.519 3.125h-7.606c-0.894 0-1.625-0.731-1.625-1.625s0.731-1.625 1.625-1.625zM6.25 15.338h6.537c-0.713 0.975-1.256 2.069-1.606 3.25h-4.931c-0.894 0-1.625-0.731-1.625-1.625s0.731-1.625 1.625-1.625zM6.25 19.837h4.644c-0.094 0.569-0.144 1.156-0.144 1.75 0 0.506 0.037 1.012 0.106 1.5h-4.606c-0.894 0-1.625-0.731-1.625-1.625s0.731-1.625 1.625-1.625zM6.25 27.587c-0.894 0-1.625-0.731-1.625-1.625s0.731-1.625 1.625-1.625h4.863c0.313 1.175 0.825 2.269 1.5 3.25h-6.362zM21.375 30.962c-5.169 0-9.375-4.206-9.375-9.375s4.206-9.375 9.375-9.375 9.375 4.206 9.375 9.375-4.206 9.375-9.375 9.375z"></path>
</svg>
