<!-- Generated by IcoMoon.io -->
<svg version="1.1" xmlns="http://www.w3.org/2000/svg" width="32" height="32" viewBox="0 0 32 32">
<path d="M22.148 6.128c-0.088 0-0.391 0.043-0.675 0.096-1.255 0.234-8.65 1.741-8.777 1.789-0.196 0.074-0.389 0.249-0.481 0.436l-0.078 0.158s-0.037 11.19-0.093 11.315c-0.086 0.192-0.277 0.373-0.454 0.431-0.084 0.027-0.414 0.103-0.734 0.169-1.484 0.302-2.035 0.52-2.501 0.988-0.265 0.266-0.461 0.629-0.546 1.010-0.081 0.364-0.054 0.909 0.062 1.24 0.241 0.691 0.775 1.181 1.495 1.37 0.679 0.178 1.951-0.020 2.601-0.405 0.272-0.161 0.621-0.499 0.803-0.776 0.072-0.11 0.18-0.331 0.241-0.492 0.212-0.563 0.218-10.587 0.246-10.713 0.046-0.214 0.189-0.371 0.386-0.424 0.178-0.048 7.299-1.489 7.499-1.518 0.189-0.027 0.367 0.040 0.452 0.171 0.058 0.088 0.201 7.004 0.007 7.234-0.141 0.168-0.434 0.232-1.158 0.384-1.101 0.23-1.478 0.339-1.9 0.55-0.527 0.263-0.819 0.552-1.045 1.031-0.16 0.339-0.22 0.593-0.219 0.93 0.001 0.603 0.204 1.075 0.663 1.536 0.315 0.317 0.603 0.483 1.001 0.577 0.447 0.105 1.356 0.036 1.978-0.151 0.881-0.264 1.502-0.905 1.757-1.811 0.050-0.177 0.075-0.359 0.075-0.543 0.001-1.988 0.008-14.043-0.019-14.135-0.083-0.286-0.297-0.45-0.587-0.449z"></path>
<path d="M15.984 0.984c-8.284 0-15 6.716-15 15s6.716 15 15 15 15-6.716 15-15-6.716-15-15-15zM15.984 29.724c-7.588 0-13.74-6.152-13.74-13.74s6.152-13.74 13.74-13.74 13.74 6.152 13.74 13.74-6.152 13.74-13.74 13.74z"></path>
</svg>
