<!-- Generated by IcoMoon.io -->
<svg version="1.1" xmlns="http://www.w3.org/2000/svg" width="32" height="32" viewBox="0 0 32 32">
<path d="M31.532 19.025c-0-0.011-0.001-0.021-0.002-0.032-0-0.005-0.001-0.010-0.001-0.015-0.001-0.009-0.003-0.018-0.004-0.027-0.001-0.007-0.002-0.013-0.003-0.020s-0.003-0.013-0.005-0.019c-0.002-0.009-0.005-0.018-0.007-0.026-0.002-0.005-0.003-0.009-0.005-0.014-0.004-0.010-0.007-0.020-0.012-0.030-0-0.001-0.001-0.002-0.001-0.003l-3.6-7.983h2.636c0.458 0 0.831-0.373 0.831-0.831v-1.103c0-0.458-0.373-0.831-0.831-0.831h-4.242c-0.805 0-1.552-0.324-2.104-0.912-0.946-1.008-2.314-1.586-3.754-1.586h-2.925v-1.028c0.519-0.432 0.851-1.083 0.851-1.81 0-1.298-1.056-2.353-2.353-2.353s-2.353 1.056-2.353 2.353c0 0.727 0.331 1.378 0.851 1.81v1.028h-2.925c-1.44 0-2.808 0.578-3.754 1.586-0.552 0.588-1.299 0.912-2.104 0.912h-4.242c-0.458 0-0.831 0.373-0.831 0.831v1.103c0 0.458 0.373 0.831 0.831 0.831h2.627l-3.59 7.984c-0 0.001-0.001 0.002-0.001 0.004-0.004 0.009-0.008 0.019-0.011 0.029-0.002 0.005-0.004 0.010-0.005 0.015-0.003 0.008-0.005 0.017-0.007 0.025-0.002 0.007-0.004 0.013-0.005 0.020s-0.002 0.013-0.003 0.019c-0.002 0.009-0.003 0.018-0.004 0.027-0.001 0.005-0.001 0.010-0.001 0.014-0.001 0.011-0.002 0.021-0.002 0.032 0 0.001-0 0.002-0 0.004v0.454c0 2.308 1.878 4.186 4.186 4.186h0.358c2.308 0 4.186-1.878 4.186-4.186v-0.454c0-0.001-0-0.003-0-0.004-0-0.010-0.001-0.021-0.002-0.031-0-0.005-0.001-0.011-0.001-0.016-0.001-0.009-0.002-0.017-0.004-0.026-0.001-0.007-0.002-0.014-0.004-0.020s-0.003-0.013-0.005-0.019c-0.002-0.009-0.005-0.018-0.007-0.026-0.002-0.005-0.003-0.009-0.005-0.014-0.004-0.010-0.007-0.020-0.012-0.030-0.001-0.001-0.001-0.002-0.001-0.004l-3.6-7.983h0.331c1.44 0 2.808-0.578 3.754-1.586 0.552-0.588 1.299-0.912 2.104-0.912h2.751v18.432h-4.761c-0.779 0-1.413 0.634-1.413 1.413v0.823h-0.807c-0.793 0-1.437 0.645-1.437 1.437v1.474c0 0.255 0.207 0.462 0.463 0.462h18.917c0.255 0 0.462-0.207 0.462-0.462v-1.474c0-0.793-0.645-1.437-1.437-1.437h-0.807v-0.823c0-0.779-0.634-1.413-1.413-1.413h-4.761v-13.37c0-0.255-0.207-0.463-0.462-0.463s-0.462 0.207-0.462 0.463v13.37h-1.155v-18.432h1.155v2.137c0 0.255 0.207 0.463 0.462 0.463s0.462-0.207 0.462-0.463v-2.137h2.934c0.662 0 1.309 0.279 1.778 0.765 1.076 1.118 2.522 1.733 4.072 1.733h0.147l-3.59 7.984c-0 0.001-0.001 0.002-0.001 0.003-0.004 0.010-0.008 0.020-0.012 0.031-0.002 0.004-0.003 0.009-0.005 0.013-0.003 0.009-0.005 0.018-0.008 0.027-0.002 0.006-0.003 0.012-0.005 0.019s-0.002 0.014-0.004 0.020c-0.001 0.009-0.003 0.017-0.004 0.026-0.001 0.005-0.001 0.010-0.001 0.015-0.001 0.010-0.002 0.021-0.002 0.031 0 0.001-0 0.003-0 0.004v0.454c0 2.308 1.878 4.186 4.186 4.186h0.358c2.308 0 4.186-1.878 4.186-4.186v-0.454c-0-0.001-0-0.003-0-0.004zM16 1.325c0.788 0 1.428 0.641 1.428 1.428 0 0.506-0.264 0.95-0.662 1.204-0.017 0.011-0.035 0.022-0.053 0.032-0.009 0.005-0.018 0.011-0.027 0.016-0.024 0.013-0.049 0.026-0.074 0.038-0.009 0.004-0.018 0.008-0.027 0.012-0.020 0.009-0.040 0.018-0.060 0.026-0.009 0.003-0.017 0.007-0.026 0.010-0.027 0.010-0.055 0.019-0.082 0.028-0.007 0.002-0.015 0.004-0.022 0.006-0.023 0.007-0.047 0.013-0.070 0.018-0.008 0.002-0.016 0.004-0.024 0.005-0.030 0.006-0.059 0.012-0.089 0.016-0.005 0.001-0.010 0.001-0.015 0.002-0.026 0.004-0.052 0.006-0.079 0.009-0.008 0.001-0.017 0.001-0.025 0.002-0.031 0.002-0.062 0.003-0.093 0.003s-0.062-0.001-0.093-0.003c-0.008-0.001-0.017-0.001-0.025-0.002-0.026-0.002-0.053-0.005-0.079-0.009-0.005-0.001-0.010-0.001-0.015-0.002-0.030-0.005-0.060-0.010-0.089-0.016-0.008-0.002-0.016-0.004-0.024-0.005-0.023-0.005-0.047-0.011-0.070-0.018-0.008-0.002-0.015-0.004-0.023-0.006-0.028-0.008-0.055-0.018-0.082-0.028-0.009-0.003-0.018-0.007-0.027-0.011-0.020-0.008-0.040-0.016-0.059-0.025-0.009-0.004-0.018-0.008-0.027-0.012-0.025-0.012-0.049-0.024-0.074-0.038-0.010-0.005-0.019-0.011-0.029-0.016-0.017-0.010-0.034-0.020-0.051-0.031-0.398-0.254-0.662-0.699-0.662-1.205 0-0.788 0.641-1.428 1.428-1.428zM16.578 5.035v0.556h-1.155v-0.556c0.008 0.002 0.015 0.003 0.023 0.005 0.035 0.008 0.070 0.016 0.106 0.023 0.012 0.002 0.023 0.004 0.035 0.006 0.036 0.006 0.072 0.012 0.108 0.017 0.008 0.001 0.017 0.002 0.025 0.003 0.092 0.011 0.186 0.017 0.281 0.017 0.049 0 0.098-0.002 0.146-0.005 0 0 0-0 0.001-0 0.045-0.003 0.089-0.007 0.134-0.012 0.009-0.001 0.018-0.002 0.026-0.003 0.036-0.005 0.071-0.010 0.107-0.016 0.012-0.002 0.024-0.004 0.036-0.006 0.035-0.007 0.071-0.015 0.106-0.023 0.008-0.002 0.015-0.003 0.023-0.005zM5.012 22.745h-0.358c-1.796 0-3.257-1.458-3.261-3.253h6.881c-0.005 1.794-1.466 3.253-3.261 3.253zM8.019 18.567h-6.375l3.183-7.078 3.192 7.078zM22.263 27.715c0.269 0 0.488 0.219 0.488 0.488v0.823h-9.657c-0.255 0-0.463 0.207-0.463 0.462s0.207 0.462 0.463 0.462h11.389c0.283 0 0.512 0.23 0.512 0.512v1.011h-17.992v-1.011c0-0.283 0.23-0.512 0.512-0.512h2.625c0.255 0 0.463-0.207 0.463-0.462s-0.207-0.462-0.463-0.462h-0.893v-0.823c0-0.269 0.219-0.488 0.488-0.488h12.527zM26.286 9.931c-1.296 0-2.505-0.515-3.405-1.45-0.642-0.666-1.532-1.049-2.444-1.049h-8.691c-1.063 0-2.050 0.428-2.779 1.205-0.772 0.822-1.894 1.294-3.079 1.294h-4.323v-0.916h4.149c1.063 0 2.050-0.428 2.779-1.205 0.772-0.822 1.894-1.294 3.079-1.294h8.856c1.185 0 2.308 0.472 3.079 1.294 0.729 0.777 1.716 1.204 2.779 1.204h4.149v0.916h-4.149zM27.163 11.489l3.192 7.078h-6.375l3.183-7.078zM27.347 22.745h-0.358c-1.796 0-3.257-1.458-3.261-3.253h6.881c-0.005 1.794-1.466 3.253-3.261 3.253z"></path>
</svg>
