<!-- Generated by IcoMoon.io -->
<svg version="1.1" xmlns="http://www.w3.org/2000/svg" width="32" height="32" viewBox="0 0 32 32">
<path d="M31.363 12.179h-0.427c-0.416-2.112-2.551-5.829-3.496-7.404 0.443-0.305 0.734-0.815 0.734-1.392 0-0.931-0.758-1.689-1.689-1.689s-1.689 0.758-1.689 1.689c0 0.577 0.291 1.087 0.734 1.392-0.945 1.575-3.080 5.293-3.496 7.404h-0.427c-0.352 0-0.637 0.285-0.637 0.637 0 3.041 2.474 5.515 5.515 5.515s5.515-2.474 5.515-5.515c0-0.352-0.285-0.637-0.637-0.637zM26.485 2.969c0.228 0 0.414 0.186 0.414 0.414s-0.186 0.414-0.414 0.414-0.414-0.186-0.414-0.414 0.186-0.414 0.414-0.414zM26.484 5.663c1.079 1.821 2.744 4.854 3.154 6.517h-6.305c0.387-1.557 1.886-4.391 3.15-6.517zM26.485 17.057c-2.121 0-3.884-1.566-4.192-3.603h8.385c-0.308 2.037-2.071 3.603-4.192 3.603zM21.674 27.442h-1.685v-1.619c0-0.352-0.285-0.637-0.637-0.637h-1.619v-17.806c0.417-0.412 0.686-0.974 0.717-1.598l2.695-0.58c0.344-0.074 0.563-0.413 0.489-0.757s-0.413-0.563-0.757-0.489l-2.702 0.581c-0.405-0.769-1.213-1.296-2.141-1.296-1.286 0-2.34 1.009-2.414 2.276l-6.74 1.45c-0.308-0.421-0.804-0.694-1.364-0.694-0.931 0-1.689 0.758-1.689 1.689 0 0.577 0.291 1.088 0.734 1.392-0.945 1.575-3.080 5.293-3.496 7.404h-0.427c-0.352 0-0.638 0.285-0.638 0.637 0 3.041 2.474 5.515 5.515 5.515s5.515-2.474 5.515-5.515c0-0.352-0.285-0.637-0.637-0.637h-0.427c-0.416-2.112-2.551-5.829-3.496-7.404 0.38-0.261 0.647-0.673 0.717-1.149l6.696-1.441c0.118 0.228 0.271 0.436 0.452 0.615v17.806h-1.619c-0.352 0-0.637 0.285-0.637 0.637v1.619h-1.685c-0.352 0-0.637 0.285-0.637 0.637v2.389c0 0.352 0.285 0.637 0.637 0.637h11.281c0.352 0 0.637-0.285 0.637-0.637v-2.389c0-0.352-0.285-0.637-0.637-0.637zM5.515 7.548c0.228 0 0.414 0.186 0.414 0.414s-0.186 0.414-0.414 0.414-0.414-0.186-0.414-0.414 0.186-0.414 0.414-0.414zM5.515 21.636c-2.121 0-3.884-1.566-4.192-3.603h8.384c-0.308 2.037-2.071 3.603-4.192 3.603zM8.668 16.758h-6.304c0.387-1.557 1.886-4.391 3.15-6.517 1.079 1.821 2.744 4.854 3.154 6.517zM16.033 4.516c0.631 0 1.144 0.513 1.144 1.144s-0.513 1.144-1.144 1.144-1.144-0.513-1.144-1.144 0.513-1.144 1.144-1.144zM16.457 8.041v17.145h-0.849v-17.145c0.138 0.025 0.28 0.038 0.424 0.038s0.286-0.014 0.424-0.038zM13.353 26.461h5.361v0.981h-5.361v-0.981zM21.036 29.831h-10.007v-1.114h10.007v1.114zM24.089 3.955c-0.074-0.344-0.413-0.563-0.757-0.489l-0.465 0.1c-0.344 0.074-0.563 0.413-0.489 0.757 0.064 0.299 0.329 0.503 0.623 0.503 0.044 0 0.090-0.005 0.135-0.014l0.465-0.1c0.344-0.074 0.563-0.413 0.489-0.757z"></path>
</svg>
