<!-- Generated by IcoMoon.io -->
<svg version="1.1" xmlns="http://www.w3.org/2000/svg" width="32" height="32" viewBox="0 0 32 32">
<path d="M29.694 9.936c-0.007-0.32-0.271-0.575-0.592-0.568s-0.574 0.272-0.568 0.592c0.036 1.718-0.611 3.331-1.822 4.542-1.176 1.176-2.742 1.824-4.411 1.824s-3.234-0.648-4.411-1.824-1.824-2.742-1.824-4.411c0-1.668 0.648-3.235 1.824-4.411s2.742-1.824 4.411-1.824 3.234 0.648 4.411 1.824c0.308 0.307 0.583 0.647 0.818 1.008 0.175 0.268 0.534 0.344 0.802 0.17s0.344-0.534 0.17-0.802c-0.279-0.429-0.605-0.831-0.97-1.195-1.395-1.395-3.253-2.163-5.23-2.163s-3.835 0.768-5.23 2.163-2.163 3.253-2.163 5.23c0 1.978 0.768 3.835 2.163 5.23s3.253 2.163 5.23 2.163 3.835-0.768 5.23-2.163c1.436-1.436 2.204-3.349 2.162-5.386zM28.393 7.807c0.003-0.003 0.010-0.010 0.024-0.024-0.010 0.010-0.020 0.020-0.024 0.024zM28.393 7.807c-0.002 0.002-0.002 0.002 0 0v0zM28.319 8.424c0.105 0.223 0.352 0.359 0.596 0.328 0.51-0.065 0.687-0.748 0.266-1.047-0.228-0.162-0.549-0.137-0.747 0.061-0.171 0.171-0.217 0.439-0.114 0.658zM28.417 7.782c0.005-0.005 0.010-0.010 0.017-0.017 0-0 0-0 0-0-0.004 0.004-0.010 0.010-0.017 0.017zM28.434 7.765c0.004-0.004 0.004-0.003 0 0v0zM22.194 6.45c-1.034 1.034-1.034 2.717 0 3.751 0.5 0.5 1.166 0.776 1.875 0.776s1.375-0.276 1.875-0.776c0.5-0.5 0.776-1.166 0.776-1.875s-0.276-1.375-0.776-1.875c-1.034-1.034-2.717-1.034-3.751 0zM25.124 9.381c-0.582 0.582-1.529 0.582-2.111 0s-0.582-1.529 0-2.111c0.582-0.582 1.529-0.582 2.111 0 0.281 0.281 0.436 0.656 0.436 1.055s-0.155 0.774-0.436 1.055zM29.228 3.303c-3.707-3.78-9.827-3.873-13.642-0.207-1.518 1.459-2.503 3.322-2.848 5.39-0.315 1.883-0.078 3.778 0.684 5.509l-0.493 0.493c-0.243-0.122-0.514-0.187-0.794-0.187-0.473 0-0.919 0.184-1.254 0.519s-0.519 0.78-0.519 1.254c0 0.28 0.065 0.551 0.187 0.794l-10.379 10.379c-0.128 0.128-0.189 0.308-0.165 0.487l0.409 3.060c0.030 0.227 0.192 0.415 0.412 0.48l3.749 1.097c0.053 0.016 0.108 0.023 0.163 0.023 0.062 0 0.124-0.010 0.183-0.030l1.808-0.603c0.173-0.058 0.309-0.194 0.367-0.367l0.511-1.533 1.533-0.511c0.173-0.058 0.309-0.194 0.367-0.367l0.511-1.533 1.533-0.511c0.173-0.058 0.309-0.194 0.367-0.367l0.511-1.533 1.533-0.511c0.173-0.058 0.309-0.194 0.367-0.367l0.559-1.678 0.642-0.642c0.664 0.332 1.494 0.221 2.047-0.332s0.664-1.383 0.332-2.047l0.493-0.493c3.646 1.604 7.922 0.816 10.76-2.023 1.82-1.82 2.829-4.239 2.84-6.813 0.012-2.572-0.973-4.998-2.772-6.834zM28.34 16.129c-1.64 1.64-3.826 2.503-6.042 2.503-1.278 0-2.566-0.287-3.766-0.877-0.223-0.11-0.49-0.065-0.666 0.11l-1.126 1.126c-0.226 0.226-0.226 0.594 0 0.82l0.014 0.014c0.239 0.239 0.239 0.628 0 0.867-0.116 0.116-0.27 0.18-0.434 0.18s-0.318-0.064-0.434-0.18l-0.014-0.014c-0.227-0.226-0.593-0.226-0.819 0.001l-1.085 1.085c-0.064 0.064-0.112 0.141-0.14 0.227l-0.511 1.533-1.533 0.511c-0.173 0.058-0.309 0.194-0.367 0.367l-0.511 1.533-1.533 0.511c-0.173 0.058-0.309 0.194-0.367 0.367l-0.511 1.533-1.533 0.511c-0.173 0.058-0.309 0.194-0.367 0.367l-0.511 1.533-1.361 0.454-3.054-0.894 14.219-14.219c0.226-0.226 0.226-0.594 0-0.82s-0.594-0.226-0.82 0l-13.727 13.727-0.152-1.137 10.523-10.523c0.109-0.109 0.17-0.256 0.17-0.41s-0.061-0.301-0.17-0.41l-0.014-0.014c-0.116-0.116-0.18-0.27-0.18-0.434s0.064-0.318 0.18-0.434c0.116-0.116 0.27-0.18 0.434-0.18s0.318 0.064 0.434 0.18l0.014 0.014c0.226 0.226 0.594 0.226 0.82 0l1.126-1.126c0.176-0.175 0.22-0.443 0.11-0.666-1.648-3.349-0.945-7.339 1.75-9.929 3.359-3.228 8.747-3.146 12.011 0.182 1.584 1.616 2.451 3.752 2.441 6.016-0.010 2.266-0.898 4.396-2.501 5.998z"></path>
</svg>
