<!-- Generated by IcoMoon.io -->
<svg version="1.1" xmlns="http://www.w3.org/2000/svg" width="32" height="32" viewBox="0 0 32 32">
<path d="M29.931 3.2c-0.819-0.819-2.15-0.819-2.969 0l-2.231-2.244c-0.413-0.412-1.075-0.412-1.488 0l-1.488 1.494c-0.413 0.413-0.413 1.081 0 1.494l2.225 2.244-1.488 1.5-2.225-2.244c-0.413-0.412-1.075-0.412-1.481 0l-1.475 1.494c-0.413 0.419-0.413 1.081 0 1.5l2.225 2.244-7.662 7.713c-2.781-1.512-6.313-1.113-8.669 1.25-2.869 2.887-2.869 7.575 0 10.463s7.525 2.888 10.394 0c2.35-2.369 2.744-5.925 1.244-8.725l15.087-15.194c0.819-0.819 0.819-2.169 0-2.987zM10.631 27.119c-1.231 1.238-3.225 1.238-4.456 0-1.225-1.238-1.225-3.25 0-4.481 1.231-1.238 3.225-1.238 4.456 0 1.225 1.231 1.225 3.244 0 4.481z"></path>
</svg>
