<!-- Generated by IcoMoon.io -->
<svg version="1.1" xmlns="http://www.w3.org/2000/svg" width="32" height="32" viewBox="0 0 32 32">
<path d="M8.438 0c-3.102 0-5.625 2.523-5.625 5.625v20.75c0 3.102 2.523 5.625 5.625 5.625s5.625-2.523 5.625-5.625v-2.847l5.049 6.286c1.886 2.44 5.417 2.916 7.882 1.018 2.463-1.896 2.922-5.425 1.026-7.888l-5.603-6.921 5.603-6.966c1.892-2.458 1.432-5.996-1.026-7.888-2.455-1.89-5.99-1.433-7.883 1.019l-5.048 6.329v-2.891c0-3.102-2.523-5.625-5.625-5.625zM20.581 3.35l0.010-0.013c1.261-1.638 3.621-1.945 5.259-0.684 1.636 1.26 1.944 3.614 0.689 5.252l-6.533 8.121 6.534 8.070c1.257 1.642 0.949 3.989-0.69 5.25s-3.998 0.955-5.259-0.684l-8.403-10.463v8.175c0 2.068-1.682 3.75-3.75 3.75s-3.75-1.682-3.75-3.75v-20.75c0-2.068 1.682-3.75 3.75-3.75s3.75 1.682 3.75 3.75v8.249z"></path>
</svg>
