<!-- Generated by IcoMoon.io -->
<svg version="1.1" xmlns="http://www.w3.org/2000/svg" width="32" height="32" viewBox="0 0 32 32">
<path d="M27.788 21.386l-3.014 4.33-2.127-1.746c-0.23-0.189-0.569-0.155-0.758 0.074-0.189 0.23-0.156 0.57 0.075 0.758l2.578 2.116c0.097 0.080 0.218 0.123 0.341 0.123 0.024 0 0.049-0.002 0.074-0.005 0.149-0.020 0.282-0.102 0.368-0.226l3.347-4.809c0.17-0.244 0.11-0.58-0.135-0.75-0.245-0.172-0.58-0.11-0.75 0.134z"></path>
<path d="M26.978 17.636l3.407-3.397v-7.616l-5.986-5.972h-7.543l-16.855 16.811 13.544 13.573 4.737-4.725c0.851 2.908 3.537 5.041 6.717 5.041 3.861 0 7.002-3.141 7.002-7.002 0.001-3.173-2.123-5.855-5.022-6.712zM23.952 1.727l5.355 5.342v6.722l-3.603 3.591c-0.051-0.005-0.103-0.004-0.154-0.008-0.040-0.003-0.080-0.007-0.12-0.010-0.031-0.002-0.064-0.006-0.094-0.008-0.116-0.006-0.228-0.010-0.338-0.010-3.861 0-7.002 3.141-7.002 7.002 0 0.107 0.003 0.216 0.010 0.329 0.002 0.039 0.007 0.081 0.010 0.121 0.003 0.035 0.005 0.071 0.009 0.108 0.003 0.041 0.002 0.083 0.006 0.124l-1.254 1.25-12.018-12.043 12.541-12.509h6.652zM1.524 17.463l2.473-2.467 12.022 12.048-2.473 2.467-12.022-12.048zM24.998 30.272c-2.989 0-5.461-2.227-5.861-5.106l-0.002-0.011c-0.012-0.087-0.018-0.162-0.026-0.241-0.004-0.039-0.010-0.082-0.013-0.12-0.011-0.148-0.023-0.296-0.023-0.447 0-3.267 2.658-5.924 5.924-5.924 0.151 0 0.3 0.011 0.449 0.023 0.024 0.002 0.051 0.006 0.075 0.008 0.097 0.010 0.192 0.018 0.299 0.033l0.013 0.002c2.871 0.409 5.088 2.877 5.088 5.858 0.001 3.268-2.657 5.925-5.924 5.925z"></path>
<path d="M22.852 9.736c1.169 0 2.119-0.951 2.119-2.119s-0.951-2.12-2.119-2.12-2.12 0.951-2.12 2.12 0.951 2.119 2.12 2.119zM22.852 6.574c0.575 0 1.042 0.468 1.042 1.043 0 0.574-0.468 1.042-1.042 1.042s-1.043-0.467-1.043-1.042c0-0.575 0.468-1.043 1.043-1.043z"></path>
</svg>
