<!-- Generated by IcoMoon.io -->
<svg version="1.1" xmlns="http://www.w3.org/2000/svg" width="32" height="32" viewBox="0 0 32 32">
<path d="M18.4 22.4h-12.8c-1.323 0-2.4-1.077-2.4-2.4v-12.8c0-1.323 1.077-2.4 2.4-2.4h20.8c1.323 0 2.4 1.077 2.4 2.4v1.6c0 0.442-0.358 0.8-0.8 0.8s-0.8-0.358-0.8-0.8v-1.6c0-0.441-0.359-0.8-0.8-0.8h-20.8c-0.441 0-0.8 0.359-0.8 0.8v12.8c0 0.441 0.359 0.8 0.8 0.8h12.8c0.442 0 0.8 0.358 0.8 0.8s-0.358 0.8-0.8 0.8zM18.4 28.8h-16c-1.323 0-2.4-1.077-2.4-2.4v-1.6c0-0.442 0.358-0.8 0.8-0.8h17.6c0.442 0 0.8 0.358 0.8 0.8s-0.358 0.8-0.8 0.8h-16.8v0.8c0 0.441 0.359 0.8 0.8 0.8h16c0.442 0 0.8 0.358 0.8 0.8s-0.358 0.8-0.8 0.8zM29.6 28.8h-6.4c-1.323 0-2.4-1.077-2.4-2.4v-12.8c0-1.323 1.077-2.4 2.4-2.4h6.4c1.323 0 2.4 1.077 2.4 2.4v12.8c0 1.323-1.077 2.4-2.4 2.4zM23.2 12.8c-0.441 0-0.8 0.359-0.8 0.8v12.8c0 0.441 0.359 0.8 0.8 0.8h6.4c0.441 0 0.8-0.359 0.8-0.8v-12.8c0-0.441-0.359-0.8-0.8-0.8h-6.4zM26.4 25.6c-0.21 0-0.416-0.085-0.566-0.235s-0.234-0.355-0.234-0.566 0.085-0.417 0.234-0.566c0.149-0.149 0.355-0.234 0.566-0.234s0.417 0.085 0.566 0.234c0.149 0.149 0.235 0.355 0.235 0.566s-0.085 0.417-0.235 0.566c-0.149 0.149-0.355 0.235-0.566 0.235z"></path>
</svg>
