<!-- Generated by IcoMoon.io -->
<svg version="1.1" xmlns="http://www.w3.org/2000/svg" width="32" height="32" viewBox="0 0 32 32">
<path d="M26.428 8.676h-20.856c-0.38 0-0.689 0.308-0.689 0.689v10.402c0 0.38 0.308 0.689 0.689 0.689s0.689-0.308 0.689-0.689v-9.713h19.478v9.713c0 0.38 0.308 0.689 0.689 0.689s0.689-0.308 0.689-0.689v-10.402c-0-0.38-0.308-0.689-0.689-0.689zM31.38 22.225h-1.268v-14.463c0-1.148-0.934-2.082-2.082-2.082h-24.060c-1.148 0-2.082 0.934-2.082 2.082v14.463h-1.268c-0.342 0-0.62 0.277-0.62 0.62v1.217c0 1.686 1.372 3.058 3.058 3.058h25.884c1.686 0 3.058-1.372 3.058-3.058v-1.217c0-0.342-0.277-0.62-0.62-0.62zM3.266 7.762c0-0.388 0.316-0.704 0.704-0.704h24.060c0.389 0 0.704 0.316 0.704 0.704v14.463h-9.325c-0.044-0.001-0.089 0.002-0.134 0.011-0.292 0.056-0.503 0.311-0.503 0.609 0 0.523-0.426 0.949-0.949 0.949h-3.648c-0.523 0-0.949-0.426-0.949-0.949 0-0.347-0.288-0.627-0.634-0.62h-9.328v-14.463zM30.76 24.062v0c0 1.003-0.816 1.818-1.818 1.818h-25.885c-1.002 0-1.818-0.816-1.818-1.818v-0.597h10.838c0.268 0.906 1.107 1.568 2.099 1.568h3.648c0.991 0 1.831-0.663 2.099-1.568h10.838v0.597zM17.021 12.679c-0.269-0.269-0.705-0.269-0.974 0l-4.331 4.331c-0.269 0.269-0.269 0.705 0 0.974 0.134 0.134 0.311 0.202 0.487 0.202s0.352-0.067 0.487-0.202l4.331-4.331c0.269-0.269 0.269-0.705 0-0.974zM19.588 15.189c-0.269-0.269-0.705-0.269-0.974 0l-1.725 1.725c-0.269 0.269-0.269 0.705 0 0.974 0.134 0.134 0.311 0.202 0.487 0.202s0.352-0.067 0.487-0.202l1.725-1.725c0.269-0.269 0.269-0.705 0-0.974z"></path>
</svg>
