<!-- Generated by IcoMoon.io -->
<svg version="1.1" xmlns="http://www.w3.org/2000/svg" width="32" height="32" viewBox="0 0 32 32">
<path d="M16 19.2c-0.106 0-0.211-0.021-0.31-0.063l-15.2-6.4c-0.297-0.125-0.49-0.415-0.49-0.737s0.193-0.612 0.49-0.737l15.2-6.4c0.199-0.084 0.422-0.084 0.621 0l15.2 6.4c0.297 0.125 0.49 0.415 0.49 0.737s-0.193 0.612-0.49 0.737l-15.2 6.4c-0.099 0.042-0.205 0.063-0.31 0.063zM2.862 12l13.138 5.532 13.138-5.532-13.138-5.532-13.138 5.532zM16 24c-0.106 0-0.211-0.021-0.31-0.063l-15.2-6.4c-0.407-0.171-0.598-0.641-0.427-1.048s0.641-0.598 1.048-0.427l14.89 6.269 14.89-6.269c0.407-0.171 0.876 0.020 1.048 0.427s-0.020 0.876-0.427 1.048l-15.2 6.4c-0.099 0.042-0.205 0.063-0.31 0.063zM16 28.8c-0.106 0-0.211-0.021-0.31-0.063l-15.2-6.4c-0.407-0.171-0.598-0.641-0.427-1.048s0.641-0.598 1.048-0.427l14.89 6.269 14.89-6.269c0.407-0.171 0.876 0.020 1.048 0.427s-0.020 0.876-0.427 1.048l-15.2 6.4c-0.099 0.042-0.205 0.063-0.31 0.063z"></path>
</svg>
