<!-- Generated by IcoMoon.io -->
<svg version="1.1" xmlns="http://www.w3.org/2000/svg" width="37" height="32" viewBox="0 0 37 32">
<path d="M37.259 18.63c0 0 0-0.063 0-0.063l-1.901-13.053c-0.063-0.253-0.19-0.444-0.38-0.507-0.19-0.127-0.444-0.127-0.634-0.063l-8.618 3.485c-0.38 0.127-0.57 0.57-0.38 0.95 0.127 0.38 0.57 0.57 0.951 0.38l7.731-3.105 1.711 12.040c0 0.063 0 0.063 0 0.127 0.38 2.218-0.063 4.499-1.141 6.463-1.331 2.281-3.422 3.865-5.893 4.562-2.535 0.697-5.133 0.317-7.414-1.014 0 0-0.063 0-0.063 0 0.507-0.38 0.951-0.76 1.394-1.204l8.554-2.281c0.38-0.127 0.634-0.507 0.507-0.887s-0.507-0.634-0.887-0.507l-6.59 1.774c0.697-1.077 1.267-2.281 1.648-3.549l5.893-1.584c0.38-0.127 0.634-0.507 0.507-0.887s-0.507-0.634-0.887-0.507l-4.309 1.141 1.648-2.788 3.422-0.951c0.38-0.127 0.634-0.507 0.507-0.887s-0.507-0.634-0.887-0.507l-2.028 0.57 1.584-2.661c0.19-0.38 0.063-0.824-0.253-1.014-0.38-0.19-0.824-0.063-1.014 0.253l-1.584 2.661-0.57-2.091c-0.127-0.38-0.507-0.634-0.887-0.507s-0.634 0.507-0.507 0.887l0.951 3.422-0.951 1.648c0-2.345-0.57-4.626-1.774-6.717-1.521-2.598-3.865-4.626-6.717-5.703 0 0 0 0 0 0l-3.295-1.331c-0.38-0.127-0.824 0-0.95 0.38s0 0.824 0.38 0.95l3.295 1.331c0 0 0 0 0.063 0 2.535 0.95 4.626 2.788 6.020 5.069 1.584 2.725 1.964 5.893 1.141 8.935-0.76 2.788-2.471 5.196-4.879 6.78l-1.267-2.091 2.661-9.885c0.127-0.38-0.127-0.76-0.507-0.887s-0.76 0.127-0.887 0.507l-2.281 8.491-2.725-4.689 1.838-6.907c0.127-0.38-0.127-0.76-0.507-0.887s-0.76 0.127-0.887 0.507l-1.457 5.45-2.154-3.675 1.141-4.119c0.127-0.38-0.127-0.76-0.507-0.887-0.444-0.127-0.824 0.127-0.95 0.507l-0.76 2.725-2.028-3.485c-0.19-0.38-0.634-0.444-1.014-0.253s-0.444 0.634-0.253 1.014l2.028 3.485-2.725-0.76c-0.38-0.127-0.76 0.127-0.887 0.507s0.127 0.76 0.507 0.887l4.119 1.141 2.154 3.675-5.449-1.457c-0.38-0.127-0.76 0.127-0.887 0.507s0.127 0.76 0.507 0.887l6.907 1.838 2.725 4.689-8.491-2.281c-0.38-0.127-0.76 0.127-0.887 0.507s0.127 0.76 0.507 0.887l9.885 2.661 1.204 2.091c-5.513 2.725-12.293 0.76-15.398-4.626-1.331-2.345-1.838-5.133-1.394-7.794 0-0.063 0-0.063 0-0.127l2.091-14.448 4.816 1.964c0.38 0.127 0.824 0 0.95-0.38s0-0.824-0.38-0.95l-5.703-2.345c-0.253-0.063-0.444-0.063-0.634 0.063-0.19 0.063-0.317 0.253-0.38 0.507l-2.218 15.525c0 0 0 0.063 0 0.063-0.507 2.978 0.063 6.083 1.584 8.681 2.408 4.246 6.907 6.59 11.469 6.59 2.028 0 4.055-0.444 5.956-1.457l0.887 1.584c0.127 0.253 0.38 0.38 0.634 0.38 0.127 0 0.253 0 0.38-0.127 0.38-0.19 0.444-0.634 0.253-1.014l-0.317-0.57c1.584 0.824 3.358 1.267 5.133 1.267 0.951 0 1.964-0.127 2.915-0.38 2.915-0.76 5.323-2.598 6.78-5.196 1.331-2.218 1.774-4.816 1.394-7.351z"></path>
<path d="M12.040 3.612c-0.127-0.127-0.317-0.19-0.507-0.19s-0.38 0.063-0.507 0.19c-0.127 0.127-0.19 0.317-0.19 0.507s0.063 0.38 0.19 0.507c0.127 0.127 0.317 0.19 0.507 0.19s0.38-0.063 0.507-0.19c0.127-0.127 0.19-0.317 0.19-0.507 0.063-0.19 0-0.38-0.19-0.507z"></path>
<path d="M32.444 10.012v0c-0.253-0.317-0.697-0.38-1.014-0.19-0.317 0.253-0.38 0.697-0.19 1.014v0c0.127 0.19 0.38 0.317 0.57 0.317 0.127 0 0.317-0.063 0.444-0.127 0.317-0.19 0.38-0.634 0.19-1.014z"></path>
</svg>
