<!-- Generated by IcoMoon.io -->
<svg version="1.1" xmlns="http://www.w3.org/2000/svg" width="32" height="32" viewBox="0 0 32 32">
<path d="M22.769 16.244h-20.481l4.581-4.581c0.263-0.262 0.263-0.688 0-0.95s-0.688-0.262-0.95 0l-5.706 5.706c-0.131 0.125-0.212 0.3-0.212 0.488 0 0.194 0.081 0.369 0.212 0.488l5.706 5.706c0.131 0.131 0.3 0.2 0.475 0.2s0.344-0.063 0.475-0.2c0.263-0.262 0.263-0.688 0-0.95l-4.581-4.581h20.475c0.369 0 0.669-0.3 0.669-0.669 0.006-0.356-0.294-0.656-0.663-0.656zM31.331 16.244h-5.537c-0.369 0-0.669 0.3-0.669 0.669s0.3 0.669 0.669 0.669h5.538c0.369 0 0.669-0.3 0.669-0.669-0.006-0.369-0.3-0.669-0.669-0.669z"></path>
</svg>
