<!-- Generated by IcoMoon.io -->
<svg version="1.1" xmlns="http://www.w3.org/2000/svg" width="32" height="32" viewBox="0 0 32 32">
<path d="M29.6 28.8h-27.2c-1.323 0-2.4-1.077-2.4-2.4v-20.8c0-1.323 1.077-2.4 2.4-2.4h27.2c1.323 0 2.4 1.077 2.4 2.4v20.8c0 1.323-1.077 2.4-2.4 2.4zM2.4 4.8c-0.441 0-0.8 0.359-0.8 0.8v20.8c0 0.441 0.359 0.8 0.8 0.8h27.2c0.441 0 0.8-0.359 0.8-0.8v-20.8c0-0.441-0.359-0.8-0.8-0.8h-27.2zM15.2 9.6h-9.6c-0.442 0-0.8-0.358-0.8-0.8s0.358-0.8 0.8-0.8h9.6c0.442 0 0.8 0.358 0.8 0.8s-0.358 0.8-0.8 0.8zM15.2 14.4h-9.6c-0.442 0-0.8-0.358-0.8-0.8s0.358-0.8 0.8-0.8h9.6c0.442 0 0.8 0.358 0.8 0.8s-0.358 0.8-0.8 0.8zM15.2 17.6h-9.6c-0.442 0-0.8-0.358-0.8-0.8s0.358-0.8 0.8-0.8h9.6c0.442 0 0.8 0.358 0.8 0.8s-0.358 0.8-0.8 0.8zM15.2 20.8h-9.6c-0.442 0-0.8-0.358-0.8-0.8s0.358-0.8 0.8-0.8h9.6c0.442 0 0.8 0.358 0.8 0.8s-0.358 0.8-0.8 0.8zM13.6 24h-8c-0.442 0-0.8-0.358-0.8-0.8s0.358-0.8 0.8-0.8h8c0.442 0 0.8 0.358 0.8 0.8s-0.358 0.8-0.8 0.8zM28.709 10.47l-1.301-0.946-0.497-1.53h-1.609l-1.301-0.946-1.301 0.946h-1.609l-0.497 1.53-1.301 0.946 0.497 1.53-0.497 1.53 1.301 0.946 0.211 0.649c-0.002 0.025-0.004 0.050-0.004 0.075v8c0 0.324 0.195 0.615 0.494 0.739s0.643 0.055 0.872-0.173l1.834-1.834 1.834 1.834c0.153 0.153 0.358 0.234 0.566 0.234 0.103 0 0.207-0.020 0.306-0.061 0.299-0.124 0.494-0.416 0.494-0.739v-8c0-0.025-0.001-0.050-0.004-0.075l0.211-0.649 1.301-0.946-0.497-1.53 0.497-1.53zM21.172 11.081l0.782-0.568 0.299-0.919h0.966l0.782-0.568 0.782 0.568h0.966l0.299 0.919 0.782 0.568-0.299 0.919 0.299 0.919-0.782 0.568-0.299 0.919h-0.966l-0.782 0.568-0.782-0.568h-0.966l-0.299-0.919-0.782-0.568 0.299-0.919-0.299-0.919zM24.566 20.234c-0.312-0.312-0.819-0.312-1.131 0l-1.034 1.034v-5.263h0.299l1.301 0.946 1.301-0.945h0.299v5.263l-1.034-1.034z"></path>
</svg>
