<!-- Generated by IcoMoon.io -->
<svg version="1.1" xmlns="http://www.w3.org/2000/svg" width="32" height="32" viewBox="0 0 32 32">
<path d="M26.613 10.107c-0.533-5.067-4.587-9.12-9.6-9.653-0.32 0-0.64-0.053-1.013-0.053s-0.693 0.053-1.013 0.053c-5.013 0.587-9.067 4.64-9.6 9.653-0.373 3.413 0.853 6.773 3.307 9.12 1.333 1.28 2.187 2.773 2.507 4.213v6.293c0 0.32 0.213 0.533 0.533 0.533h0.8l0.96 1.28c0.427 0.533 1.013 0.853 1.707 0.853h1.6c0.693 0 1.333-0.32 1.707-0.853l0.96-1.28h0.8c0.32 0 0.533-0.213 0.533-0.533v-6.293c0.267-1.44 1.173-2.933 2.507-4.213 2.453-2.4 3.68-5.707 3.307-9.12zM13.867 13.733h-1.067c-0.587 0-1.067-0.48-1.067-1.067s0.48-1.067 1.067-1.067 1.067 0.48 1.067 1.067v1.067zM17.067 22.8h-2.133v-8h2.133v8zM19.733 23.867v1.067h-1.6c-0.32 0-0.533 0.213-0.533 0.533s0.213 0.533 0.533 0.533h1.6v1.067h-3.2c-0.32 0-0.533 0.213-0.533 0.533s0.213 0.533 0.533 0.533h3.2v1.067h-7.467v-1.067h1.6c0.32 0 0.533-0.213 0.533-0.533s-0.213-0.533-0.533-0.533h-1.6v-1.067h3.2c0.32 0 0.533-0.213 0.533-0.533s-0.213-0.533-0.533-0.533h-3.2v-1.067h7.467zM17.653 30.907c-0.213 0.267-0.533 0.427-0.853 0.427h-1.6c-0.32 0-0.64-0.16-0.853-0.427l-0.48-0.64h4.267l-0.48 0.64zM22.56 18.427c-1.333 1.333-2.293 2.827-2.72 4.373h-1.707v-8h1.067c1.173 0 2.133-0.96 2.133-2.133s-0.96-2.133-2.133-2.133c-1.173 0-2.133 0.96-2.133 2.133v1.067h-2.133v-1.067c0-1.173-0.96-2.133-2.133-2.133s-2.133 0.96-2.133 2.133c0 1.173 0.96 2.133 2.133 2.133h1.067v8h-1.707c-0.427-1.547-1.387-3.040-2.72-4.373-2.24-2.133-3.307-5.12-2.987-8.213 0.533-4.533 4.16-8.16 8.693-8.693 0.267 0 0.533-0.053 0.853-0.053s0.587 0.053 0.853 0.053c4.533 0.533 8.213 4.16 8.693 8.693 0.32 3.093-0.747 6.080-2.987 8.213zM18.133 13.733v-1.067c0-0.587 0.48-1.067 1.067-1.067s1.067 0.48 1.067 1.067-0.48 1.067-1.067 1.067h-1.067z"></path>
</svg>
