<!-- Generated by IcoMoon.io -->
<svg version="1.1" xmlns="http://www.w3.org/2000/svg" width="32" height="32" viewBox="0 0 32 32">
<path d="M28 14.4h-1.104l-1.368-2.756c-0.135-0.272-0.413-0.444-0.717-0.444h-6.411c-0.442 0-0.8 0.358-0.8 0.8v2.4h-1.938l-6.169-10.685c-0.221-0.383-0.71-0.514-1.093-0.293l-5.543 3.2c-0.383 0.221-0.514 0.71-0.293 1.093l6.4 11.085c0.148 0.257 0.417 0.4 0.694 0.4 0.136 0 0.273-0.035 0.399-0.107l4.343-2.507v13.014c0 0.442 0.358 0.8 0.8 0.8h12.8c0.442 0 0.8-0.358 0.8-0.8v-14.4c0-0.442-0.358-0.8-0.8-0.8zM27.2 24h-1.6v-4.8h1.6v4.8zM19.2 12.8h5.115l0.794 1.6h-5.91v-1.6zM9.95 17.307l-5.6-9.699 4.157-2.4 5.6 9.699-4.157 2.4zM16 28.8v-12.8h10.395c0.002 0 0.004 0 0.006 0s0.002-0 0.003-0h0.796v1.6h-2.4c-0.442 0-0.8 0.358-0.8 0.8v6.4c0 0.442 0.358 0.8 0.8 0.8h2.4v3.2h-11.2zM24.8 9.6c-1.2 0-1.784-0.567-2.062-1.043-0.529-0.904-0.44-2.268 0.27-4.17 0.478-1.279 1.069-2.335 1.094-2.379 0.142-0.252 0.408-0.408 0.697-0.408s0.556 0.156 0.697 0.408c0.025 0.044 0.616 1.101 1.094 2.379 0.711 1.902 0.799 3.266 0.27 4.17-0.278 0.476-0.862 1.043-2.062 1.043zM24.8 4.223c-0.101 0.233-0.203 0.483-0.299 0.742-0.726 1.949-0.475 2.625-0.381 2.785 0.040 0.068 0.146 0.25 0.681 0.25s0.641-0.182 0.681-0.25c0.094-0.161 0.345-0.84-0.388-2.802-0.094-0.253-0.194-0.497-0.293-0.724z"></path>
</svg>
