<!-- Generated by IcoMoon.io -->
<svg version="1.1" xmlns="http://www.w3.org/2000/svg" width="32" height="32" viewBox="0 0 32 32">
<path d="M17.6 21.2c0.295 0 0.533-0.239 0.533-0.533v-7.467h1.6c1.47 0 2.667-1.196 2.667-2.667s-1.196-2.667-2.667-2.667c-1.47 0-2.667 1.196-2.667 2.667v1.6h-2.133v-1.6c0-1.47-1.196-2.667-2.667-2.667s-2.667 1.196-2.667 2.667c0 1.47 1.196 2.667 2.667 2.667h1.6v7.467c0 0.294 0.239 0.533 0.533 0.533s0.533-0.239 0.533-0.533v-7.467h2.133v7.467c0 0.294 0.238 0.533 0.533 0.533zM18.133 10.533c0-0.882 0.718-1.6 1.6-1.6s1.6 0.718 1.6 1.6-0.718 1.6-1.6 1.6h-1.6v-1.6zM13.867 12.133h-1.6c-0.882 0-1.6-0.718-1.6-1.6s0.718-1.6 1.6-1.6 1.6 0.718 1.6 1.6v1.6zM3.808 1.534l2.042 1.714c0.1 0.084 0.222 0.125 0.343 0.125 0.152 0 0.303-0.065 0.409-0.19 0.189-0.226 0.16-0.562-0.066-0.751l-2.042-1.714c-0.226-0.189-0.562-0.159-0.751 0.066-0.189 0.226-0.16 0.562 0.066 0.751zM4.153 6.188l-2.505-0.911c-0.277-0.1-0.582 0.042-0.684 0.319-0.1 0.277 0.042 0.583 0.319 0.684l2.505 0.911c0.060 0.022 0.122 0.033 0.182 0.033 0.218 0 0.422-0.135 0.501-0.351 0.101-0.277-0.042-0.583-0.319-0.684zM25.806 3.373c0.12 0 0.242-0.041 0.342-0.125l2.043-1.715c0.226-0.189 0.255-0.525 0.066-0.751-0.188-0.225-0.524-0.255-0.751-0.066l-2.043 1.715c-0.226 0.189-0.255 0.525-0.066 0.751 0.105 0.125 0.256 0.19 0.409 0.19zM3.199 10.534h-2.666c-0.294 0-0.533 0.239-0.533 0.533s0.239 0.533 0.533 0.533h2.666c0.294 0 0.533-0.239 0.533-0.533s-0.239-0.533-0.533-0.533zM31.035 5.594c-0.1-0.276-0.407-0.42-0.683-0.318l-2.506 0.912c-0.277 0.101-0.42 0.407-0.319 0.684 0.079 0.217 0.283 0.351 0.501 0.351 0.060 0 0.122-0.010 0.182-0.033l2.506-0.912c0.277-0.101 0.42-0.407 0.318-0.684zM16 0.4c-5.882 0-10.667 4.785-10.667 10.667 0 4.501 1.765 7.859 5.557 10.567 0.018 0.013 0.045 0.029 0.065 0.039 0.028 0.015 0.602 0.335 0.746 1.235-0.602 0.23-1.034 0.81-1.034 1.492 0 0.41 0.155 0.784 0.409 1.067-0.254 0.283-0.409 0.657-0.409 1.067s0.155 0.783 0.409 1.067c-0.254 0.283-0.409 0.657-0.409 1.067 0 0.882 0.718 1.6 1.6 1.6 0.294 0 0.533-0.239 0.533-0.533s-0.239-0.533-0.533-0.533c-0.294 0-0.533-0.239-0.533-0.533s0.239-0.533 0.533-0.533h5.333c0.295 0 0.533-0.239 0.533-0.533s-0.238-0.533-0.533-0.533h-5.333c-0.294 0-0.533-0.239-0.533-0.533s0.239-0.533 0.533-0.533h5.333c0.295 0 0.533-0.239 0.533-0.533s-0.238-0.533-0.533-0.533h-5.333c-0.294 0-0.533-0.239-0.533-0.533s0.239-0.533 0.533-0.533h5.333c0.295 0 0.533-0.239 0.533-0.533s-0.238-0.533-0.533-0.533h-4.836c-0.189-1.343-1.059-1.925-1.277-2.051-3.518-2.521-5.086-5.508-5.086-9.683 0-5.293 4.307-9.6 9.6-9.6s9.6 4.307 9.6 9.6c0 4.174-1.569 7.162-5.086 9.683-0.245 0.141-1.314 0.859-1.314 2.584 0 0.294 0.238 0.533 0.533 0.533s0.533 0.239 0.533 0.533-0.239 0.533-0.533 0.533c-0.295 0-0.533 0.239-0.533 0.533s0.238 0.533 0.533 0.533c0.294 0 0.533 0.239 0.533 0.533s-0.239 0.533-0.533 0.533c-0.295 0-0.533 0.239-0.533 0.533s0.238 0.533 0.533 0.533c0.294 0 0.533 0.239 0.533 0.533 0 0.304-0.229 0.533-0.533 0.533h-5.333c-0.294 0-0.533 0.239-0.533 0.533v1.067c0 0.882 0.718 1.6 1.6 1.6h1.067c0.882 0 1.6-0.718 1.6-1.6v-0.533h1.6c0.898 0 1.6-0.703 1.6-1.6 0-0.41-0.155-0.783-0.409-1.067 0.254-0.283 0.409-0.657 0.409-1.067s-0.155-0.783-0.409-1.067c0.254-0.283 0.409-0.657 0.409-1.067 0-0.682-0.431-1.262-1.034-1.492 0.144-0.899 0.717-1.219 0.739-1.231 0.025-0.012 0.049-0.027 0.071-0.043 3.791-2.708 5.557-6.066 5.557-10.567 0-5.882-4.785-10.667-10.667-10.667zM17.067 30.8c0 0.294-0.239 0.533-0.533 0.533h-1.067c-0.294 0-0.533-0.239-0.533-0.533v-0.533h2.133v0.533zM31.467 10.533h-2.667c-0.295 0-0.533 0.239-0.533 0.533s0.238 0.533 0.533 0.533h2.667c0.295 0 0.533-0.239 0.533-0.533s-0.238-0.533-0.533-0.533z"></path>
</svg>
