<!-- Generated by IcoMoon.io -->
<svg version="1.1" xmlns="http://www.w3.org/2000/svg" width="32" height="32" viewBox="0 0 32 32">
<path d="M31.947 10.396c-0.467-5.141-4.106-8.871-8.66-8.871-3.034 0-5.812 1.633-7.375 4.249-1.549-2.651-4.213-4.25-7.199-4.25-4.553 0-8.193 3.73-8.66 8.871-0.037 0.227-0.188 1.422 0.272 3.371 0.663 2.811 2.196 5.368 4.43 7.393l11.148 10.117 11.34-10.116c2.235-2.025 3.767-4.582 4.43-7.394 0.46-1.948 0.309-3.144 0.273-3.371zM30.476 13.484c-0.606 2.568-2.009 4.907-4.056 6.76l-10.509 9.376-10.329-9.373c-2.050-1.857-3.453-4.196-4.059-6.763-0.436-1.844-0.257-2.886-0.256-2.893l0.009-0.062c0.4-4.504 3.527-7.774 7.436-7.774 2.884 0 5.424 1.772 6.629 4.625l0.567 1.343 0.567-1.343c1.186-2.809 3.859-4.624 6.812-4.624 3.909 0 7.036 3.27 7.444 7.832 0.001 0.010 0.18 1.052-0.255 2.897z"></path>
</svg>
