<!-- Generated by IcoMoon.io -->
<svg version="1.1" xmlns="http://www.w3.org/2000/svg" width="32" height="32" viewBox="0 0 32 32">
<path d="M7.969 25.063c0 0.597-0.484 1.081-1.081 1.081s-1.081-0.484-1.081-1.081c0-0.597 0.484-1.081 1.081-1.081s1.081 0.484 1.081 1.081zM31.351 19.23c0-0.531-0.165-1.025-0.445-1.433 0.66-0.458 1.094-1.222 1.094-2.085 0-1.399-1.138-2.537-2.536-2.537h-6.668l0.422-0.947c0.617-1.385 0.932-2.856 0.936-4.372 0 0 0.004-1.85 0.004-1.861 0-1.437-1.169-2.607-2.607-2.607-1.069 0-2.018 0.64-2.418 1.631-0.018 0.044-0.624 1.831-0.624 1.831-0.547 1.589-1.518 2.999-2.807 4.078l-3.093 2.588h-1.788v-0.816c0-0.858-0.698-1.555-1.555-1.555h-7.709c-0.858 0-1.555 0.698-1.555 1.555v15.157c0 0.858 0.698 1.555 1.555 1.555h7.709c0.858 0 1.555-0.698 1.555-1.555v-1.218h0.976l0.969 0.469c2.293 1.108 4.851 1.694 7.398 1.694h7.354c1.399 0 2.537-1.138 2.537-2.536 0-0.531-0.165-1.025-0.445-1.433 0.66-0.458 1.094-1.222 1.094-2.085 0-0.531-0.165-1.025-0.445-1.433 0.66-0.458 1.094-1.222 1.094-2.085zM9.264 27.856h-7.709v-15.157h7.709l0.001 15.157c0 0-0 0-0.001 0zM29.464 16.693h-1.107c-0.43 0-0.778 0.348-0.778 0.778s0.348 0.778 0.778 0.778h0.458c0.541 0 0.981 0.44 0.981 0.981s-0.44 0.981-0.981 0.981h-1.107c-0.43 0-0.778 0.348-0.778 0.778s0.348 0.778 0.778 0.778h0.458c0.541 0 0.981 0.44 0.981 0.981s-0.44 0.981-0.981 0.981h-1.107c-0.43 0-0.778 0.348-0.778 0.778s0.348 0.778 0.778 0.778h0.458c0.541 0 0.981 0.44 0.981 0.981s-0.44 0.981-0.981 0.981h-7.354c-2.314 0-4.638-0.532-6.721-1.539l-1.13-0.546c-0.105-0.051-0.221-0.078-0.338-0.078h-1.154v-10.012h2.071c0.182 0 0.359-0.064 0.499-0.181l3.31-2.769c1.506-1.26 2.64-2.908 3.279-4.764 0 0 0.619-1.801 0.622-1.814 0.174-0.366 0.54-0.599 0.949-0.599 0.58 0 1.052 0.472 1.052 1.052 0 0.010-0.004 1.858-0.004 1.858-0.003 1.298-0.272 2.557-0.801 3.742l-0.906 2.031c-0.079 0.178-0.086 0.37-0.033 0.543 0.004 0.015 0.172 0.562 0.747 0.562h7.859c0.541 0 0.981 0.44 0.981 0.981s-0.44 0.981-0.981 0.981z"></path>
</svg>
