<!-- Generated by IcoMoon.io -->
<svg version="1.1" xmlns="http://www.w3.org/2000/svg" width="32" height="32" viewBox="0 0 32 32">
<path d="M29.6 8h-16c-0.442 0-0.8-0.358-0.8-0.8s0.358-0.8 0.8-0.8h16c0.442 0 0.8 0.358 0.8 0.8s-0.358 0.8-0.8 0.8zM29.6 14.4h-16c-0.442 0-0.8-0.358-0.8-0.8s0.358-0.8 0.8-0.8h16c0.442 0 0.8 0.358 0.8 0.8s-0.358 0.8-0.8 0.8zM29.6 20.8h-16c-0.442 0-0.8-0.358-0.8-0.8s0.358-0.8 0.8-0.8h16c0.442 0 0.8 0.358 0.8 0.8s-0.358 0.8-0.8 0.8zM29.6 27.2h-16c-0.442 0-0.8-0.358-0.8-0.8s0.358-0.8 0.8-0.8h16c0.442 0 0.8 0.358 0.8 0.8s-0.358 0.8-0.8 0.8zM8.234 21.834l-1.834 1.834v-13.737l1.834 1.834c0.156 0.156 0.361 0.234 0.566 0.234s0.409-0.078 0.566-0.234c0.312-0.312 0.312-0.819 0-1.131l-3.2-3.2c-0.312-0.312-0.819-0.312-1.131 0l-3.2 3.2c-0.312 0.312-0.312 0.819 0 1.131s0.819 0.312 1.131 0l1.834-1.834v13.737l-1.834-1.834c-0.312-0.312-0.819-0.312-1.131 0s-0.312 0.819 0 1.131l3.2 3.2c0.156 0.156 0.361 0.234 0.566 0.234s0.409-0.078 0.566-0.234l3.2-3.2c0.312-0.312 0.312-0.819 0-1.131s-0.819-0.312-1.131 0z"></path>
</svg>
