<!-- Generated by IcoMoon.io -->
<svg version="1.1" xmlns="http://www.w3.org/2000/svg" width="32" height="32" viewBox="0 0 32 32">
<path d="M2.17 23.823v5.187c0 0.316 0.256 0.579 0.579 0.579h4.010c0.316 0 0.579-0.256 0.579-0.579v-9.125l-2.912 2.912c-0.618 0.611-1.407 0.966-2.255 1.026z"></path>
<path d="M9.336 19.82v9.191c0 0.316 0.256 0.579 0.579 0.579h4.010c0.316 0 0.579-0.256 0.579-0.579v-5.411c-0.914-0.020-1.768-0.381-2.413-1.026l-2.755-2.755z"></path>
<path d="M16.502 23.028v5.983c0 0.316 0.256 0.579 0.579 0.579h4.010c0.316 0 0.579-0.256 0.579-0.579v-11.038l-4.595 4.595c-0.177 0.177-0.368 0.329-0.572 0.46z"></path>
<path d="M28.447 11.188l-4.78 4.78v13.043c0 0.316 0.256 0.579 0.579 0.579h4.010c0.316 0 0.579-0.256 0.579-0.579v-17.461c-0.131-0.112-0.23-0.21-0.302-0.276l-0.085-0.085z"></path>
<path d="M31.728 2.72c-0.191-0.204-0.48-0.309-0.848-0.309-0.033 0-0.072 0-0.105 0-1.867 0.085-3.728 0.178-5.595 0.263-0.25 0.013-0.592 0.026-0.861 0.296-0.085 0.085-0.151 0.184-0.204 0.302-0.276 0.598 0.112 0.986 0.296 1.17l0.467 0.473c0.322 0.329 0.651 0.657 0.98 0.98l-11.282 11.288-5.069-5.069c-0.302-0.302-0.71-0.473-1.144-0.473s-0.835 0.171-1.137 0.473l-6.752 6.745c-0.631 0.631-0.631 1.65 0 2.281l0.302 0.302c0.302 0.302 0.71 0.473 1.144 0.473s0.835-0.171 1.137-0.473l5.305-5.305 5.069 5.069c0.302 0.302 0.71 0.473 1.144 0.473s0.835-0.171 1.144-0.473l12.728-12.728 1.44 1.433c0.171 0.171 0.408 0.408 0.769 0.408 0.151 0 0.302-0.039 0.46-0.125 0.105-0.059 0.197-0.125 0.276-0.204 0.283-0.283 0.335-0.644 0.348-0.927 0.053-1.21 0.112-2.419 0.171-3.636l0.085-1.821c0.020-0.381-0.066-0.677-0.27-0.888z"></path>
</svg>
