<!-- Generated by IcoMoon.io -->
<svg version="1.1" xmlns="http://www.w3.org/2000/svg" width="32" height="32" viewBox="0 0 32 32">
<path d="M28.602 8.818c-1.873 0-3.398 1.524-3.398 3.398 0 0.683 0.203 1.32 0.552 1.853l-3.671 3.671c-0.533-0.349-1.17-0.552-1.853-0.552-0.708 0-1.366 0.218-1.911 0.59l-3.709-3.709c0.348-0.533 0.552-1.17 0.552-1.853 0-1.873-1.524-3.398-3.398-3.398s-3.398 1.524-3.398 3.398c0 0.683 0.203 1.319 0.552 1.853l-3.671 3.671c-0.533-0.348-1.169-0.552-1.853-0.552-1.873 0-3.398 1.524-3.398 3.398s1.524 3.398 3.398 3.398c1.873 0 3.398-1.524 3.398-3.398 0-0.683-0.203-1.32-0.552-1.853l3.671-3.671c0.533 0.348 1.17 0.552 1.853 0.552s1.32-0.203 1.853-0.552l3.729 3.73c-0.325 0.521-0.514 1.136-0.514 1.794 0 1.873 1.524 3.398 3.398 3.398s3.398-1.524 3.398-3.398c0-0.683-0.203-1.319-0.552-1.853l3.671-3.671c0.533 0.348 1.169 0.552 1.853 0.552 1.873 0 3.398-1.524 3.398-3.398s-1.524-3.398-3.398-3.398zM3.398 22.578c-1.099 0-1.993-0.894-1.993-1.993s0.894-1.993 1.993-1.993c1.099 0 1.993 0.894 1.993 1.993s-0.894 1.993-1.993 1.993zM11.767 14.208c-1.099 0-1.993-0.894-1.993-1.993s0.894-1.993 1.993-1.993 1.993 0.894 1.993 1.993c0 1.099-0.894 1.993-1.993 1.993zM20.233 22.578c-1.099 0-1.993-0.894-1.993-1.993s0.894-1.993 1.993-1.993c1.099 0 1.993 0.894 1.993 1.993s-0.894 1.993-1.993 1.993zM28.602 14.208c-1.099 0-1.993-0.894-1.993-1.993s0.894-1.993 1.993-1.993c1.099 0 1.993 0.894 1.993 1.993s-0.894 1.993-1.993 1.993zM11.048 17.445c-0.274-0.274-0.719-0.274-0.993 0l-1.428 1.428c-0.274 0.274-0.274 0.719 0 0.993 0.137 0.137 0.317 0.206 0.496 0.206s0.359-0.069 0.496-0.206l1.428-1.428c0.274-0.274 0.274-0.719 0-0.993zM23.373 12.959c-0.274-0.274-0.719-0.274-0.993 0l-1.428 1.428c-0.274 0.274-0.274 0.719 0 0.993 0.137 0.137 0.317 0.206 0.497 0.206s0.359-0.069 0.497-0.206l1.428-1.428c0.274-0.274 0.274-0.719 0-0.993z"></path>
</svg>
