<!-- Generated by IcoMoon.io -->
<svg version="1.1" xmlns="http://www.w3.org/2000/svg" width="32" height="32" viewBox="0 0 32 32">
<path d="M2.133 27.067v-1.925l4.875-5.365c0.602 0.5 1.481 0.48 2.059-0.048l3.771 2.827c0.188 0.863 1.040 1.411 1.903 1.224 0.717-0.156 1.236-0.779 1.259-1.512 0-0.099-0.011-0.197-0.032-0.293l4.181-4.645c0.205 0.089 0.427 0.136 0.651 0.139 0.378-0.002 0.742-0.139 1.029-0.384l3.909 3.472c-0.090 0.203-0.137 0.423-0.139 0.645 0 0.884 0.716 1.6 1.6 1.6s1.6-0.716 1.6-1.6-0.716-1.6-1.6-1.6c-0.253 0.002-0.501 0.064-0.725 0.181l-4.075-3.643c0.008-0.090 0.008-0.182 0-0.272 0-0.884-0.716-1.6-1.6-1.6s-1.6 0.716-1.6 1.6c0.002 0.251 0.064 0.498 0.181 0.72l-3.989 4.432c-0.282-0.226-0.631-0.35-0.992-0.352-0.541 0.002-1.045 0.276-1.339 0.731l-3.461-2.619c0.008-0.082 0.008-0.164 0-0.245 0-0.884-0.716-1.6-1.6-1.6s-1.6 0.716-1.6 1.6c-0 0.099 0.011 0.197 0.032 0.293l-4.299 4.725v-5.867l5.147-4.677c0.222 0.119 0.468 0.184 0.72 0.192 0.884 0 1.6-0.716 1.6-1.6 0-0.1-0.011-0.201-0.032-0.299l4.027-4.501c0.090 0.008 0.182 0.008 0.272 0 0.429-0 0.841-0.173 1.141-0.48l4.267 1.419c0.249 0.848 1.137 1.334 1.985 1.085 0.746-0.219 1.227-0.942 1.14-1.715l3.733-2.336c0.659 0.589 1.67 0.533 2.259-0.126s0.533-1.67-0.126-2.259-1.67-0.533-2.259 0.126c-0.267 0.298-0.412 0.686-0.407 1.086-0.005 0.075-0.005 0.149 0 0.224l-3.733 2.336c-0.651-0.597-1.664-0.553-2.261 0.098-0.106 0.115-0.194 0.246-0.262 0.387l-3.877-1.301c0.003-0.048 0.003-0.096 0-0.144 0.006-0.884-0.706-1.605-1.589-1.61s-1.605 0.706-1.61 1.589c-0.003 0.385 0.134 0.758 0.384 1.050l-3.664 4.123c-0.279-0.227-0.627-0.351-0.987-0.352-0.884 0-1.6 0.716-1.6 1.6 0 0.225 0.049 0.447 0.144 0.651l-4.411 4.011v-15.861h-1.067v1.067h-1.067v1.067h1.067v5.333h-1.067v1.067h1.067v5.333h-1.067v1.067h1.067v5.333h-1.067v1.067h1.067v5.867c0 0.295 0.239 0.533 0.533 0.533h5.867v1.067h1.067v-1.067h5.333v1.067h1.067v-1.067h5.333v1.067h1.067v-1.067h5.333v1.067h1.067v-1.067h4.267v-1.067h-29.867zM27.2 20.667c0.295 0 0.533 0.239 0.533 0.533s-0.239 0.533-0.533 0.533-0.533-0.239-0.533-0.533 0.239-0.533 0.533-0.533zM20.8 15.333c0.295 0 0.533 0.239 0.533 0.533s-0.239 0.533-0.533 0.533-0.533-0.239-0.533-0.533 0.239-0.533 0.533-0.533zM14.4 21.733c0.295 0 0.533 0.239 0.533 0.533s-0.239 0.533-0.533 0.533-0.533-0.239-0.533-0.533 0.239-0.533 0.533-0.533zM8 18c0.295 0 0.533 0.239 0.533 0.533s-0.239 0.533-0.533 0.533-0.533-0.239-0.533-0.533 0.239-0.533 0.533-0.533zM27.2 3.067c0.295 0 0.533 0.239 0.533 0.533s-0.239 0.533-0.533 0.533-0.533-0.239-0.533-0.533 0.239-0.533 0.533-0.533zM20.8 6.8c0.295 0 0.533 0.239 0.533 0.533s-0.239 0.533-0.533 0.533-0.533-0.239-0.533-0.533 0.239-0.533 0.533-0.533zM13.867 4.667c0.295 0 0.533 0.239 0.533 0.533s-0.239 0.533-0.533 0.533-0.533-0.239-0.533-0.533 0.239-0.533 0.533-0.533zM8 11.067c0.295 0 0.533 0.239 0.533 0.533s-0.239 0.533-0.533 0.533-0.533-0.239-0.533-0.533 0.239-0.533 0.533-0.533zM10.133 31.333h1.067v1.067h-1.067v-1.067zM12.267 31.333h1.067v1.067h-1.067v-1.067zM14.4 31.333h1.067v1.067h-1.067v-1.067zM16.533 31.333h1.067v1.067h-1.067v-1.067zM18.667 31.333h1.067v1.067h-1.067v-1.067zM20.8 31.333h1.067v1.067h-1.067v-1.067z"></path>
</svg>
