<!-- Generated by IcoMoon.io -->
<svg version="1.1" xmlns="http://www.w3.org/2000/svg" width="32" height="32" viewBox="0 0 32 32">
<path d="M27.313 0h-22.625c-2.585 0-4.688 2.103-4.688 4.688v22.625c0 2.585 2.103 4.688 4.688 4.688h22.625c2.585 0 4.688-2.103 4.688-4.688v-22.625c0-2.585-2.103-4.688-4.688-4.688zM30.125 27.313c0 1.551-1.262 2.813-2.813 2.813h-22.625c-1.551 0-2.813-1.262-2.813-2.813v-22.625c0-1.551 1.262-2.813 2.813-2.813h22.625c1.551 0 2.813 1.262 2.813 2.813z"></path>
<path d="M5.688 26.375h5.625v-13.25h-5.625zM7.563 15h1.875v9.5h-1.875z"></path>
<path d="M20.693 13.125c-0.002 0-0.004 0-0.005 0-0.648 0-1.28 0.108-1.875 0.319v-0.319h-5.625v13.25h5.625v-6.688c0-0.517 0.421-0.938 0.938-0.938s0.938 0.421 0.938 0.938v6.688h5.625v-7.332c0-3.034-2.461-5.915-5.62-5.918zM24.438 24.5h-1.875v-4.813c0-1.551-1.262-2.813-2.813-2.813s-2.812 1.262-2.813 2.812v4.813h-1.875v-9.5h1.875v1.876l1.5-1.127c0.653-0.49 1.43-0.749 2.25-0.749h0.004c1.996 0.002 3.746 1.891 3.746 4.043z"></path>
<path d="M5.688 11.25h5.625v-5.625h-5.625zM7.563 7.5h1.875v1.875h-1.875z"></path>
</svg>
