<!-- Generated by IcoMoon.io -->
<svg version="1.1" xmlns="http://www.w3.org/2000/svg" width="32" height="32" viewBox="0 0 32 32">
<path d="M17.091 20.797c-1.509 0-3.017-0.574-4.166-1.723-0.312-0.312-0.312-0.819 0-1.131s0.819-0.312 1.131 0c1.673 1.673 4.396 1.673 6.069 0l5.818-5.818c1.673-1.673 1.673-4.396 0-6.069s-4.395-1.673-6.069 0l-4.909 4.909c-0.312 0.312-0.819 0.312-1.131 0s-0.312-0.819 0-1.131l4.909-4.909c2.297-2.297 6.034-2.297 8.331 0s2.297 6.034 0 8.331l-5.818 5.818c-1.148 1.148-2.657 1.723-4.166 1.723zM7.491 30.397c-1.509 0-3.017-0.574-4.166-1.723-2.297-2.297-2.297-6.034 0-8.331l5.818-5.818c2.297-2.297 6.034-2.297 8.331 0 0.312 0.312 0.312 0.819 0 1.131s-0.819 0.312-1.131 0c-1.673-1.673-4.396-1.673-6.069 0l-5.818 5.818c-1.673 1.673-1.673 4.395 0 6.069s4.395 1.673 6.069 0l4.909-4.909c0.312-0.312 0.819-0.312 1.131 0s0.312 0.819 0 1.131l-4.909 4.909c-1.148 1.148-2.657 1.723-4.166 1.723z"></path>
</svg>
