<!-- Generated by IcoMoon.io -->
<svg version="1.1" xmlns="http://www.w3.org/2000/svg" width="32" height="32" viewBox="0 0 32 32">
<path d="M3.444 8.805c1.902 0 3.444-1.549 3.444-3.444s-1.542-3.45-3.444-3.45-3.444 1.549-3.444 3.444 1.549 3.45 3.444 3.45zM3.444 3.512c1.019 0 1.843 0.83 1.843 1.843s-0.83 1.843-1.843 1.843-1.843-0.83-1.843-1.843 0.83-1.843 1.843-1.843z"></path>
<path d="M3.444 19.444c1.902 0 3.444-1.549 3.444-3.444s-1.542-3.444-3.444-3.444-3.444 1.542-3.444 3.444 1.549 3.444 3.444 3.444zM3.444 14.157c1.019 0 1.843 0.83 1.843 1.843s-0.83 1.843-1.843 1.843-1.843-0.823-1.843-1.843 0.83-1.843 1.843-1.843z"></path>
<path d="M3.444 30.089c1.902 0 3.444-1.549 3.444-3.444 0-1.902-1.549-3.444-3.444-3.444s-3.444 1.549-3.444 3.444c0 1.895 1.549 3.444 3.444 3.444zM3.444 24.796c1.019 0 1.843 0.83 1.843 1.843 0 1.019-0.83 1.843-1.843 1.843s-1.843-0.83-1.843-1.843c0-1.013 0.83-1.843 1.843-1.843z"></path>
<path d="M11.494 6.159h19.702c0.444 0 0.804-0.359 0.804-0.804s-0.359-0.804-0.804-0.804h-19.702c-0.444 0-0.804 0.359-0.804 0.804s0.359 0.804 0.804 0.804z"></path>
<path d="M11.494 16.804h19.702c0.444 0 0.804-0.359 0.804-0.804s-0.359-0.804-0.804-0.804h-19.702c-0.444 0-0.804 0.359-0.804 0.804s0.359 0.804 0.804 0.804z"></path>
<path d="M11.494 27.442h19.702c0.444 0 0.804-0.359 0.804-0.804s-0.359-0.804-0.804-0.804h-19.702c-0.444 0-0.804 0.359-0.804 0.804s0.359 0.804 0.804 0.804z"></path>
</svg>
