<!-- Generated by IcoMoon.io -->
<svg version="1.1" xmlns="http://www.w3.org/2000/svg" width="32" height="32" viewBox="0 0 32 32">
<path d="M30.404 27.62h-21.398c-0.882 0-1.597-0.715-1.597-1.597s0.715-1.597 1.597-1.597h21.398c0.882 0 1.597 0.715 1.597 1.597s-0.714 1.597-1.596 1.597z"></path>
<path d="M30.404 17.597h-21.398c-0.882 0-1.597-0.715-1.597-1.597s0.715-1.597 1.597-1.597h21.398c0.882 0 1.597 0.715 1.597 1.597s-0.714 1.597-1.596 1.597z"></path>
<path d="M30.404 7.574h-21.398c-0.882 0-1.597-0.715-1.597-1.597s0.715-1.597 1.597-1.597h21.398c0.882 0 1.597 0.715 1.597 1.597s-0.714 1.597-1.596 1.597z"></path>
<path d="M4.289 6.101c0 1.184-0.96 2.144-2.144 2.144s-2.144-0.96-2.144-2.144c0-1.184 0.96-2.144 2.144-2.144s2.144 0.96 2.144 2.144z"></path>
<path d="M4.289 16c0 1.184-0.96 2.144-2.144 2.144s-2.144-0.96-2.144-2.144c0-1.184 0.96-2.144 2.144-2.144s2.144 0.96 2.144 2.144z"></path>
<path d="M4.289 25.899c0 1.184-0.96 2.144-2.144 2.144s-2.144-0.96-2.144-2.144c0-1.184 0.96-2.144 2.144-2.144s2.144 0.96 2.144 2.144z"></path>
</svg>
