<!-- Generated by IcoMoon.io -->
<svg version="1.1" xmlns="http://www.w3.org/2000/svg" width="32" height="32" viewBox="0 0 32 32">
<path d="M1.994 7.869h4.612v-4.606h-4.612v4.606zM7.25 9.175h-5.912c-0.363 0-0.65-0.294-0.65-0.65v-5.919c0-0.362 0.294-0.65 0.65-0.65h5.912c0.362 0 0.65 0.294 0.65 0.65v5.913c0.006 0.363-0.287 0.656-0.65 0.656z"></path>
<path d="M30.663 6.219h-20.281c-0.363 0-0.65-0.294-0.65-0.65 0-0.362 0.294-0.65 0.65-0.65h20.281c0.363 0 0.65 0.294 0.65 0.65s-0.294 0.65-0.65 0.65z"></path>
<path d="M1.994 18.306h4.612v-4.613h-4.612v4.613zM7.25 19.606h-5.912c-0.363 0-0.65-0.294-0.65-0.65v-5.912c0-0.363 0.294-0.65 0.65-0.65h5.912c0.362 0 0.65 0.294 0.65 0.65v5.912c0.006 0.363-0.287 0.65-0.65 0.65z"></path>
<path d="M30.663 16.65h-20.281c-0.363 0-0.65-0.294-0.65-0.65 0-0.363 0.294-0.65 0.65-0.65h20.281c0.363 0 0.65 0.294 0.65 0.65 0 0.362-0.294 0.65-0.65 0.65z"></path>
<path d="M1.994 28.738h4.612v-4.613h-4.612v4.613zM7.25 30.044h-5.912c-0.363 0-0.65-0.294-0.65-0.65v-5.912c0-0.363 0.294-0.65 0.65-0.65h5.912c0.362 0 0.65 0.294 0.65 0.65v5.913c0.006 0.356-0.287 0.65-0.65 0.65z"></path>
<path d="M30.663 27.087h-20.281c-0.363 0-0.65-0.294-0.65-0.65s0.294-0.65 0.65-0.65h20.281c0.363 0 0.65 0.294 0.65 0.65s-0.294 0.65-0.65 0.65z"></path>
</svg>
