<!-- Generated by IcoMoon.io -->
<svg version="1.1" xmlns="http://www.w3.org/2000/svg" width="32" height="32" viewBox="0 0 32 32">
<path d="M31.2 25.6h-24c-0.442 0-0.8-0.358-0.8-0.8s0.358-0.8 0.8-0.8h24c0.442 0 0.8 0.358 0.8 0.8s-0.358 0.8-0.8 0.8zM31.2 17.6h-24c-0.442 0-0.8-0.358-0.8-0.8s0.358-0.8 0.8-0.8h24c0.442 0 0.8 0.358 0.8 0.8s-0.358 0.8-0.8 0.8zM31.2 9.6h-24c-0.442 0-0.8-0.358-0.8-0.8s0.358-0.8 0.8-0.8h24c0.442 0 0.8 0.358 0.8 0.8s-0.358 0.8-0.8 0.8zM2.4 11.2c-1.323 0-2.4-1.077-2.4-2.4s1.077-2.4 2.4-2.4 2.4 1.077 2.4 2.4-1.077 2.4-2.4 2.4zM2.4 8c-0.441 0-0.8 0.359-0.8 0.8s0.359 0.8 0.8 0.8 0.8-0.359 0.8-0.8-0.359-0.8-0.8-0.8zM2.4 19.2c-1.323 0-2.4-1.077-2.4-2.4s1.077-2.4 2.4-2.4 2.4 1.077 2.4 2.4c0 1.323-1.077 2.4-2.4 2.4zM2.4 16c-0.441 0-0.8 0.359-0.8 0.8s0.359 0.8 0.8 0.8 0.8-0.359 0.8-0.8-0.359-0.8-0.8-0.8zM2.4 27.2c-1.323 0-2.4-1.077-2.4-2.4s1.077-2.4 2.4-2.4 2.4 1.077 2.4 2.4-1.077 2.4-2.4 2.4zM2.4 24c-0.441 0-0.8 0.359-0.8 0.8s0.359 0.8 0.8 0.8 0.8-0.359 0.8-0.8-0.359-0.8-0.8-0.8z"></path>
</svg>
