<!-- Generated by IcoMoon.io -->
<svg version="1.1" xmlns="http://www.w3.org/2000/svg" width="32" height="32" viewBox="0 0 32 32">
<path d="M11.556 4.356h20.267c0.267 0 0.444-0.178 0.444-0.444s-0.178-0.444-0.444-0.444h-20.267c-0.267 0-0.444 0.178-0.444 0.444s0.267 0.444 0.444 0.444z"></path>
<path d="M3.911 0c-0.267 0-0.444 0.178-0.444 0.444s0.178 0.444 0.444 0.444c1.689 0 3.022 1.333 3.022 3.022s-1.333 3.022-3.022 3.022c-1.689 0-3.022-1.333-3.022-3.022 0-0.267-0.178-0.444-0.444-0.444s-0.444 0.178-0.444 0.444c0 2.133 1.778 3.911 3.911 3.911s3.911-1.778 3.911-3.911-1.778-3.911-3.911-3.911z"></path>
<path d="M31.822 15.556h-20.267c-0.267 0-0.444 0.178-0.444 0.444s0.178 0.444 0.444 0.444h20.267c0.267 0 0.444-0.178 0.444-0.444s-0.178-0.444-0.444-0.444z"></path>
<path d="M7.378 15.556c-0.267 0-0.444 0.178-0.444 0.444 0 1.689-1.333 3.022-3.022 3.022s-3.022-1.333-3.022-3.022c0-1.689 1.333-3.022 3.022-3.022 0.267 0 0.444-0.178 0.444-0.444s-0.178-0.444-0.444-0.444c-2.133 0-3.911 1.778-3.911 3.911s1.778 3.911 3.911 3.911 3.911-1.778 3.911-3.911c0-0.267-0.178-0.444-0.444-0.444z"></path>
<path d="M31.822 27.644h-20.267c-0.267 0-0.444 0.178-0.444 0.444s0.178 0.444 0.444 0.444h20.267c0.267 0 0.444-0.178 0.444-0.444s-0.178-0.444-0.444-0.444z"></path>
<path d="M3.911 24.178c-2.133 0-3.911 1.778-3.911 3.911s1.778 3.911 3.911 3.911 3.911-1.778 3.911-3.911-1.778-3.911-3.911-3.911zM3.911 31.111c-1.689 0-3.022-1.333-3.022-3.022s1.333-3.022 3.022-3.022c1.689 0 3.022 1.333 3.022 3.022s-1.333 3.022-3.022 3.022z"></path>
</svg>
