<!-- Generated by IcoMoon.io -->
<svg version="1.1" xmlns="http://www.w3.org/2000/svg" width="32" height="32" viewBox="0 0 32 32">
<path d="M29.75 13h-4.706l6.438-6.438c0.331-0.331 0.512-0.769 0.512-1.237s-0.181-0.906-0.512-1.237l-0.675-0.675c-0.681-0.681-1.788-0.681-2.469 0l-9.569 9.587h-16.712c-1.131 0-2.056 0.919-2.056 2.056v12.781c0 1.131 0.919 2.056 2.056 2.056h27.694c1.131 0 2.056-0.919 2.056-2.056v-12.781c0-1.131-0.919-2.056-2.056-2.056zM29.25 4.325c0.181-0.181 0.481-0.181 0.669 0l0.675 0.675c0.087 0.088 0.137 0.206 0.137 0.331s-0.050 0.244-0.137 0.331l-1.631 1.631-1.156-1.144-0.194-0.194 1.637-1.631zM26.712 6.856l1.337 1.337-12.744 12.75-2.006 0.669 0.669-2.006 12.744-12.75zM30.531 27.837c0 0.431-0.35 0.781-0.781 0.781h-27.694c-0.431 0-0.781-0.35-0.781-0.781v-12.781c0-0.431 0.35-0.781 0.781-0.781h15.438l-4.531 4.531c-0.069 0.069-0.125 0.156-0.156 0.25l-1.119 3.363c-0.075 0.231-0.019 0.481 0.156 0.65 0.119 0.119 0.287 0.188 0.45 0.188 0.069 0 0.137-0.012 0.2-0.031l3.356-1.119c0.094-0.031 0.181-0.081 0.25-0.156l7.675-7.675h5.975c0.431 0 0.781 0.35 0.781 0.781v12.781zM28.194 25.906h-0.381c-0.35 0-0.637 0.288-0.637 0.637s0.288 0.637 0.637 0.637h0.381c0.35 0 0.637-0.288 0.637-0.637s-0.288-0.637-0.637-0.637zM25.281 25.906h-14.506c-0.35 0-0.637 0.288-0.637 0.637s0.287 0.637 0.637 0.637h14.506c0.35 0 0.637-0.288 0.637-0.637s-0.288-0.637-0.637-0.637zM28.194 22.231h-9.506c-0.35 0-0.637 0.288-0.637 0.637s0.288 0.637 0.637 0.637h9.5c0.35 0 0.637-0.288 0.637-0.637s-0.281-0.637-0.631-0.637zM6.725 20.163v-2.363c0.813 0.056 1.119 0.431 1.4 0.431 0.35 0 0.512-0.444 0.512-0.663 0-0.569-1.119-0.813-1.912-0.837v-0.313c0-0.137-0.175-0.269-0.35-0.269-0.2 0-0.338 0.125-0.338 0.269v0.337c-1.106 0.119-2.212 0.7-2.212 2.163 0 1.488 1.163 1.913 2.212 2.281v2.738c-1.188-0.094-1.5-0.906-1.888-0.906-0.294 0-0.538 0.381-0.538 0.663 0 0.569 0.975 1.35 2.419 1.375v0.363c0 0.137 0.138 0.269 0.338 0.269 0.175 0 0.35-0.125 0.35-0.269v-0.394c1.256-0.175 2.119-0.969 2.119-2.4 0.006-1.587-1.1-2.1-2.112-2.475zM6.106 19.944c-0.619-0.231-1.119-0.475-1.119-1.144 0-0.606 0.469-0.894 1.119-0.975v2.119zM6.656 23.913v-2.456c0.569 0.244 1.025 0.569 1.025 1.306 0 0.663-0.4 1.031-1.025 1.15z"></path>
</svg>
