<!-- Generated by IcoMoon.io -->
<svg version="1.1" xmlns="http://www.w3.org/2000/svg" width="30" height="32" viewBox="0 0 30 32">
<path d="M12.952 0c4.208 0 7.619 3.411 7.619 7.619v3.048h1.524c2.104 0 3.81 1.706 3.81 3.81 0 0.421-0.341 0.762-0.762 0.762s-0.762-0.341-0.762-0.762c0-1.262-1.023-2.286-2.286-2.286h-18.286c-1.262 0-2.286 1.023-2.286 2.286l0.002 13.714c0 1.262 1.023 2.286 2.286 2.286h6.094c0.421 0 0.762 0.341 0.762 0.762s-0.341 0.762-0.762 0.762h-6.094c-2.104 0-3.809-1.705-3.81-3.809l-0.002-13.714c-0-2.104 1.705-3.81 3.81-3.81h1.524v-3.048c0-4.208 3.411-7.619 7.619-7.619zM26.38 18.453c0.298-0.239 0.733-0.222 1.011 0.051l2.859 2.815c0.3 0.295 0.303 0.778 0.008 1.077s-0.778 0.303-1.077 0.008l-2.324-2.288-2.345 2.308 1.164 1.146c0.3 0.295 0.303 0.778 0.008 1.077s-0.778 0.303-1.077 0.008l-1.18-1.162-2.398 2.362c1.045 1.536 0.88 3.636-0.497 4.993-1.56 1.535-4.083 1.535-5.643 0-1.565-1.542-1.566-4.047 0-5.589 1.377-1.355 3.504-1.514 5.057-0.476l6.435-6.33zM19.462 26.345c-0.966-0.951-2.538-0.952-3.505 0-0.959 0.945-0.959 2.472 0 3.417l0.092 0.086c0.972 0.864 2.476 0.835 3.412-0.086l0.087-0.090c0.872-0.95 0.843-2.412-0.087-3.327zM12.952 1.524c-3.366 0-6.095 2.729-6.095 6.095v3.048h12.19v-3.048c0-3.366-2.729-6.095-6.095-6.095z"></path>
</svg>
