<!-- Generated by IcoMoon.io -->
<svg version="1.1" xmlns="http://www.w3.org/2000/svg" width="32" height="32" viewBox="0 0 32 32">
<path d="M28.6 3.797c-4.526-4.526-11.89-4.526-16.416 0-2.193 2.192-3.4 5.108-3.4 8.208 0 2.825 1.002 5.495 2.838 7.606l-1.382 1.382-1.409-1.409c-0.154-0.154-0.364-0.241-0.582-0.241s-0.428 0.087-0.582 0.241l-6.601 6.601c-0.687 0.687-1.066 1.601-1.066 2.573s0.379 1.886 1.066 2.573c0.687 0.687 1.601 1.066 2.573 1.066s1.886-0.379 2.573-1.066l6.601-6.601c0.154-0.154 0.241-0.364 0.241-0.582s-0.087-0.428-0.241-0.582l-1.409-1.409 1.383-1.383c2.175 1.888 4.89 2.833 7.605 2.833 2.973 0 5.945-1.131 8.208-3.394 2.192-2.192 3.4-5.107 3.4-8.208s-1.207-6.016-3.4-8.208zM5.048 30.167c-0.376 0.376-0.877 0.584-1.409 0.584s-1.033-0.207-1.409-0.584c-0.376-0.376-0.584-0.877-0.584-1.409s0.207-1.033 0.584-1.409l3.683-3.683 2.818 2.818-3.683 3.683zM9.896 25.319l-2.818-2.818 1.171-1.171 2.818 2.818-1.171 1.171zM27.436 19.049c-3.884 3.884-10.204 3.884-14.088 0-1.882-1.881-2.918-4.383-2.918-7.044s1.036-5.162 2.918-7.044c1.942-1.942 4.493-2.913 7.044-2.913s5.102 0.971 7.044 2.913c1.881 1.881 2.918 4.383 2.918 7.044s-1.036 5.162-2.918 7.044zM26.077 6.32c-3.135-3.135-8.236-3.135-11.37 0s-3.135 8.236 0 11.37c1.567 1.567 3.626 2.351 5.685 2.351s4.118-0.784 5.685-2.351v-0c3.135-3.135 3.135-8.236-0-11.37zM24.913 16.526c-2.493 2.493-6.549 2.493-9.042 0s-2.493-6.549-0-9.042c1.247-1.247 2.884-1.87 4.521-1.87s3.275 0.623 4.521 1.87c2.493 2.493 2.493 6.549 0 9.042zM23.458 8.94c-1.691-1.69-4.441-1.69-6.131 0-0.322 0.322-0.322 0.843 0 1.164s0.843 0.322 1.164 0c1.048-1.048 2.754-1.048 3.803 0 0.161 0.161 0.371 0.241 0.582 0.241s0.421-0.080 0.582-0.241c0.322-0.322 0.322-0.843 0-1.164z"></path>
</svg>
