<!-- Generated by IcoMoon.io -->
<svg version="1.1" xmlns="http://www.w3.org/2000/svg" width="32" height="32" viewBox="0 0 32 32">
<path d="M19.375 11.875c-0.345 0-0.625 0.28-0.625 0.625s0.28 0.625 0.625 0.625c0.345 0 0.625-0.28 0.625-0.625s-0.28-0.625-0.625-0.625z"></path>
<path d="M31.268 27.732l-8.342-8.342c1.359-2.047 2.075-4.418 2.075-6.89 0-6.893-5.607-12.5-12.5-12.5s-12.5 5.607-12.5 12.5 5.607 12.5 12.5 12.5c2.472 0 4.843-0.716 6.89-2.075l2.306 2.306c0 0 0.001 0.001 0.001 0.001l6.035 6.035c0.472 0.472 1.1 0.732 1.768 0.732s1.295-0.26 1.767-0.732c0.472-0.472 0.733-1.1 0.733-1.768s-0.26-1.296-0.732-1.768zM19.096 21.608c0 0-0 0-0 0-1.929 1.401-4.21 2.142-6.596 2.142-6.203 0-11.25-5.047-11.25-11.25s5.047-11.25 11.25-11.25 11.25 5.047 11.25 11.25c0 2.386-0.741 4.667-2.142 6.596-0.701 0.966-1.546 1.811-2.512 2.512zM20.407 22.175c0.647-0.529 1.238-1.12 1.767-1.767l1.773 1.773c-0.539 0.636-1.131 1.228-1.767 1.767l-1.773-1.773zM30.384 30.384c-0.236 0.236-0.55 0.366-0.884 0.366s-0.647-0.13-0.884-0.366l-5.55-5.55c0.633-0.543 1.224-1.134 1.767-1.767l5.55 5.55c0.236 0.236 0.366 0.55 0.366 0.883s-0.13 0.648-0.366 0.884z"></path>
<path d="M12.5 2.5c-5.514 0-10 4.486-10 10s4.486 10 10 10 10-4.486 10-10-4.486-10-10-10zM12.5 21.25c-4.825 0-8.75-3.925-8.75-8.75s3.925-8.75 8.75-8.75 8.75 3.925 8.75 8.75-3.925 8.75-8.75 8.75z"></path>
<path d="M19.504 9.817c-0.538-1.401-1.475-2.598-2.71-3.463-1.264-0.886-2.749-1.354-4.294-1.354-0.345 0-0.625 0.28-0.625 0.625s0.28 0.625 0.625 0.625c2.569 0 4.914 1.614 5.837 4.015 0.096 0.248 0.332 0.401 0.584 0.401 0.075 0 0.15-0.013 0.224-0.042 0.322-0.124 0.483-0.485 0.359-0.808z"></path>
</svg>
