<!-- Generated by IcoMoon.io -->
<svg version="1.1" xmlns="http://www.w3.org/2000/svg" width="32" height="32" viewBox="0 0 32 32">
<path d="M18.4 11.2c-0.442 0-0.8-0.358-0.8-0.8 0-2.206-1.794-4-4-4-0.442 0-0.8-0.358-0.8-0.8s0.358-0.8 0.8-0.8c2.206 0 4-1.794 4-4 0-0.442 0.358-0.8 0.8-0.8s0.8 0.358 0.8 0.8c0 2.206 1.794 4 4 4 0.442 0 0.8 0.358 0.8 0.8s-0.358 0.8-0.8 0.8c-2.206 0-4 1.794-4 4 0 0.442-0.358 0.8-0.8 0.8zM16.482 5.6c0.785 0.473 1.445 1.133 1.918 1.918 0.473-0.785 1.133-1.445 1.918-1.918-0.785-0.473-1.445-1.133-1.918-1.918-0.473 0.785-1.133 1.445-1.918 1.918zM2.4 16c-0.442 0-0.8-0.358-0.8-0.8s-0.359-0.8-0.8-0.8c-0.442 0-0.8-0.358-0.8-0.8s0.358-0.8 0.8-0.8c0.441 0 0.8-0.359 0.8-0.8s0.358-0.8 0.8-0.8 0.8 0.358 0.8 0.8c0 0.441 0.359 0.8 0.8 0.8s0.8 0.358 0.8 0.8-0.358 0.8-0.8 0.8c-0.441 0-0.8 0.359-0.8 0.8s-0.358 0.8-0.8 0.8zM29.034 25.503l-16.937-16.937c-0.452-0.452-1.055-0.701-1.697-0.701s-1.245 0.249-1.697 0.701l-0.937 0.937c-0.452 0.452-0.701 1.055-0.701 1.697s0.249 1.245 0.701 1.697l16.937 16.937c0.452 0.452 1.055 0.701 1.697 0.701s1.245-0.249 1.697-0.701l0.937-0.937c0.452-0.452 0.701-1.055 0.701-1.697s-0.249-1.245-0.701-1.697zM8.897 10.634l0.937-0.937c0.15-0.15 0.351-0.232 0.566-0.232s0.416 0.082 0.566 0.232l2.303 2.303-2.069 2.069-2.303-2.303c-0.312-0.312-0.312-0.819 0-1.131zM27.903 27.766l-0.937 0.937c-0.15 0.15-0.351 0.232-0.566 0.232s-0.416-0.082-0.566-0.232l-13.503-13.503 2.069-2.069 13.503 13.503c0.312 0.312 0.312 0.819 0 1.131zM5.6 8c-0.442 0-0.8-0.358-0.8-0.8 0-1.323-1.077-2.4-2.4-2.4-0.442 0-0.8-0.358-0.8-0.8s0.358-0.8 0.8-0.8c1.323 0 2.4-1.077 2.4-2.4 0-0.442 0.358-0.8 0.8-0.8s0.8 0.358 0.8 0.8c0 1.323 1.077 2.4 2.4 2.4 0.442 0 0.8 0.358 0.8 0.8s-0.358 0.8-0.8 0.8c-1.323 0-2.4 1.077-2.4 2.4 0 0.442-0.358 0.8-0.8 0.8zM4.798 4c0.304 0.228 0.574 0.499 0.803 0.803 0.228-0.304 0.499-0.574 0.803-0.803-0.304-0.228-0.574-0.499-0.803-0.803-0.228 0.304-0.499 0.574-0.803 0.803zM5.6 24c-0.442 0-0.8-0.358-0.8-0.8 0-1.323-1.077-2.4-2.4-2.4-0.442 0-0.8-0.358-0.8-0.8s0.358-0.8 0.8-0.8c1.323 0 2.4-1.077 2.4-2.4 0-0.442 0.358-0.8 0.8-0.8s0.8 0.358 0.8 0.8c0 1.323 1.077 2.4 2.4 2.4 0.442 0 0.8 0.358 0.8 0.8s-0.358 0.8-0.8 0.8c-1.323 0-2.4 1.077-2.4 2.4 0 0.442-0.358 0.8-0.8 0.8zM4.798 20c0.304 0.228 0.574 0.499 0.803 0.802 0.228-0.304 0.499-0.574 0.803-0.802-0.304-0.228-0.574-0.499-0.803-0.802-0.228 0.304-0.499 0.574-0.803 0.802z"></path>
</svg>
