<!-- Generated by IcoMoon.io -->
<svg version="1.1" xmlns="http://www.w3.org/2000/svg" width="32" height="32" viewBox="0 0 32 32">
<path d="M30.19 30.659l-9.509-10.374c2.143-2.242 3.32-5.173 3.32-8.286 0-3.205-1.248-6.219-3.515-8.485s-5.28-3.515-8.485-3.515-6.219 1.248-8.485 3.515-3.515 5.28-3.515 8.485 1.248 6.219 3.515 8.485 5.28 3.515 8.485 3.515c2.761 0 5.38-0.927 7.501-2.633l9.509 10.373c0.158 0.172 0.374 0.259 0.59 0.259 0.193 0 0.387-0.070 0.54-0.21 0.326-0.299 0.348-0.805 0.049-1.13zM1.6 12c0-5.735 4.665-10.4 10.4-10.4s10.4 4.665 10.4 10.4-4.665 10.4-10.4 10.4-10.4-4.665-10.4-10.4z"></path>
</svg>
