<!-- Generated by IcoMoon.io -->
<svg version="1.1" xmlns="http://www.w3.org/2000/svg" width="32" height="32" viewBox="0 0 32 32">
<path d="M31.552 27.495l-7.662-7.915c-0.549-0.568-1.236-0.795-1.534-0.505-0.299 0.288-0.986 0.061-1.535-0.506l-0.11-0.114c3.429-4.51 3.096-10.967-1.021-15.085-4.494-4.494-11.781-4.494-16.274 0s-4.494 11.78 0 16.274c4.188 4.188 10.798 4.469 15.317 0.852l0.048 0.050c0.548 0.568 0.753 1.262 0.453 1.55-0.298 0.289-0.095 0.983 0.455 1.55l7.657 7.918c0.549 0.566 1.455 0.583 2.023 0.033l2.149-2.079c0.566-0.549 0.582-1.453 0.033-2.023zM17.162 17.116c-3.093 3.093-8.125 3.093-11.218 0.001s-3.092-8.126 0-11.218c3.092-3.093 8.125-3.092 11.217 0 3.093 3.092 3.093 8.124 0.001 11.217z"></path>
</svg>
