<!-- Generated by IcoMoon.io -->
<svg version="1.1" xmlns="http://www.w3.org/2000/svg" width="32" height="32" viewBox="0 0 32 32">
<path d="M24.935 22.613c-0-0-0-0-0-0-0.498-0.323-0.899-0.477-0.994-0.511l-2.892-1.205-2.039-1.346c-0.020-0.013-0.040-0.024-0.061-0.034v-0.872c1.54-0.769 2.655-2.264 2.896-4.034 1.242-0.101 2.221-1.142 2.221-2.409 0-0.627-0.24-1.199-0.633-1.629v-3.094c0-3.903-3.175-7.079-7.078-7.079h-0.548c-3.903 0-7.078 3.175-7.078 7.079v3.060c-0.412 0.434-0.665 1.019-0.665 1.663 0 1.267 0.98 2.309 2.221 2.409 0.241 1.77 1.356 3.265 2.896 4.034v0.815l-2.126 1.403c-0.029 0.006-0.057 0.015-0.086 0.027l-2.908 1.212c-0.145 0.052-1 0.381-1.849 1.182-0.84 0.793-1.841 2.221-1.841 4.516v4.093c0 0.281 0.227 0.508 0.508 0.508h6.002c0.281 0 0.508-0.227 0.508-0.508s-0.227-0.508-0.508-0.508h-1.565v-3.771c0-0.281-0.227-0.508-0.508-0.508s-0.508 0.227-0.508 0.508v3.771h-2.912v-3.585c0-3.66 2.896-4.7 3.018-4.742 0.011-0.004 0.023-0.008 0.034-0.013l2.423-1.010 2.619 9.349h-1.010c-0.281 0-0.508 0.227-0.508 0.508s0.227 0.508 0.508 0.508h1.678c0.001 0 0.001 0 0.002 0s0.001-0 0.002-0h3.834c0.001 0 0.001 0 0.002 0s0.001-0 0.002-0h9.133c0.281 0 0.508-0.228 0.508-0.509v-4.092c-0-2.99-1.688-4.533-2.695-5.186zM20.227 21.572l-1.53 3.145-1.898-1.397 2.007-2.083c0.111-0.116 0.157-0.27 0.138-0.418 0.003-0.021 0.005-0.043 0.005-0.065v-0.027l1.28 0.844zM17.14 24.833l-0.399 1.063-1.368 0-0.449-1.072 1.102-0.811 1.114 0.82zM14.188 20.84c0.005-0.028 0.008-0.056 0.008-0.085v-1.015c0-0 0-0 0-0.001v-0.71c0.43 0.113 0.882 0.174 1.347 0.174h1.042c0.465 0 0.916-0.061 1.347-0.174v1.652l-1.891 1.963-1.851-1.803zM23.049 12.202c-0 0.689-0.5 1.262-1.155 1.379v-2.758c0.656 0.117 1.155 0.69 1.155 1.379zM10.234 13.581c-0.656-0.117-1.155-0.69-1.155-1.379s0.5-1.262 1.155-1.379v2.758zM10.744 9.295c-0.001 0-0.002 0-0.002 0-0.018 0-0.035 0.001-0.052 0.003-0.005 0.001-0.011 0.002-0.016 0.002-0.012 0.002-0.023 0.003-0.034 0.005-0.007 0.002-0.014 0.004-0.021 0.005-0.009 0.002-0.018 0.004-0.027 0.007s-0.016 0.006-0.024 0.009c-0.007 0.003-0.015 0.005-0.022 0.008-0.009 0.004-0.018 0.009-0.027 0.013-0.006 0.003-0.012 0.005-0.017 0.008-0.009 0.005-0.017 0.010-0.026 0.015-0.005 0.003-0.011 0.006-0.016 0.010-0.008 0.005-0.016 0.011-0.023 0.017-0.005 0.004-0.011 0.008-0.016 0.012-0.007 0.006-0.013 0.012-0.020 0.018-0.005 0.005-0.011 0.010-0.016 0.015-0.006 0.006-0.012 0.013-0.018 0.019s-0.010 0.011-0.015 0.017c-0.005 0.006-0.010 0.013-0.015 0.020s-0.010 0.012-0.014 0.019c-0.004 0.007-0.008 0.013-0.012 0.020s-0.009 0.014-0.013 0.022c-0.004 0.007-0.007 0.014-0.010 0.020-0.004 0.008-0.008 0.016-0.011 0.024-0.003 0.007-0.005 0.014-0.008 0.020-0.003 0.009-0.007 0.017-0.010 0.026-0.002 0.007-0.004 0.014-0.005 0.021-0.002 0.009-0.005 0.018-0.007 0.028-0.002 0.007-0.002 0.015-0.004 0.023-0.002 0.009-0.003 0.018-0.004 0.028-0.001 0.008-0.001 0.016-0.001 0.024s-0.001 0.014-0.001 0.022c-0.169 0.017-0.333 0.052-0.49 0.103v-2.42c0-3.343 2.719-6.062 6.062-6.062h0.548c3.343 0 6.063 2.72 6.063 6.063v2.431c-0.167-0.056-0.342-0.095-0.523-0.114 0-0.002-0-0.004-0-0.006-0-0.011-0.001-0.022-0.002-0.033-0.001-0.007-0.002-0.013-0.003-0.020-0.001-0.010-0.003-0.019-0.004-0.029-0.002-0.008-0.003-0.016-0.006-0.024s-0.004-0.016-0.006-0.023c-0.003-0.009-0.006-0.018-0.009-0.027-0.002-0.006-0.005-0.013-0.007-0.019-0.004-0.009-0.008-0.018-0.012-0.027-0.003-0.006-0.005-0.011-0.008-0.017-0.005-0.009-0.010-0.017-0.015-0.026-0.003-0.006-0.007-0.011-0.010-0.017-0.005-0.008-0.010-0.015-0.016-0.023-0.004-0.006-0.009-0.012-0.013-0.018s-0.011-0.013-0.016-0.019c-0.005-0.006-0.011-0.012-0.016-0.018s-0.011-0.011-0.016-0.016c-0.006-0.006-0.013-0.012-0.020-0.018-0.006-0.005-0.011-0.009-0.017-0.014-0.007-0.006-0.014-0.011-0.022-0.016-0.006-0.004-0.013-0.008-0.019-0.012s-0.015-0.009-0.022-0.014c-0.007-0.004-0.015-0.008-0.023-0.012s-0.014-0.007-0.021-0.010c-0.009-0.004-0.019-0.008-0.028-0.011-0.006-0.002-0.012-0.005-0.018-0.007-0.011-0.003-0.021-0.006-0.032-0.009-0.005-0.001-0.009-0.003-0.014-0.004-1.988-0.452-2.588-2.957-2.594-2.981-0.044-0.195-0.198-0.346-0.394-0.386s-0.396 0.038-0.514 0.2c-2.26 3.124-7.172 3.154-7.253 3.154-0 0-0 0-0 0zM11.25 13.892v-3.599c1.299-0.080 4.75-0.512 6.97-2.836 0.383 0.901 1.176 2.216 2.658 2.728v3.707c0 2.367-1.926 4.293-4.293 4.293h-1.042c-2.367-0-4.293-1.926-4.293-4.293zM13.18 20.677v0.077c0 0.054 0.009 0.106 0.024 0.154-0.056 0.177-0.013 0.378 0.13 0.517l1.934 1.884-1.913 1.408-1.53-3.145 1.356-0.895zM14.016 29.531l-0.996-3.557c0.008 0.002 0.016 0.005 0.024 0.007 0.040 0.010 0.081 0.015 0.122 0.015 0.107 0 0.213-0.034 0.301-0.099l0.616-0.453 0.428 1.023-0.494 3.064zM14.746 31.384l0.721-4.471h1.193l0.721 4.471h-2.636zM17.616 26.457l0.375-0.998 0.595 0.438c0.088 0.065 0.194 0.099 0.301 0.099 0.041 0 0.081-0.005 0.122-0.015 0.042-0.010 0.082-0.027 0.12-0.047l-1.013 3.616-0.499-3.094zM26.614 31.384v0h-2.912v-3.771c0-0.281-0.227-0.508-0.508-0.508s-0.508 0.227-0.508 0.508v3.771h-4.028l2.604-9.298 2.301 0.959c0.010 0.004 0.022 0.009 0.032 0.012 0.003 0.001 0.343 0.12 0.788 0.408 0 0 0 0 0 0 1.018 0.661 2.232 1.949 2.232 4.334v3.585zM16.658 14.356c0.281 0 0.508-0.227 0.508-0.508s-0.227-0.508-0.508-0.508h-0.375v-1.176c0-0.281-0.227-0.508-0.508-0.508s-0.508 0.227-0.508 0.508v1.684c0 0.281 0.227 0.508 0.508 0.508h0.883z"></path>
</svg>
