<!-- Generated by IcoMoon.io -->
<svg version="1.1" xmlns="http://www.w3.org/2000/svg" width="32" height="32" viewBox="0 0 32 32">
<path d="M9.156 8.925c2.213 0 3.969-1.763 3.906-3.919 0-2.156-1.756-3.919-3.906-3.919s-3.906 1.763-3.906 3.919 1.756 3.919 3.906 3.919zM9.156 2.331c1.494 0 2.669 1.175 2.669 2.675s-1.169 2.675-2.669 2.675c-1.494 0-2.669-1.175-2.669-2.675s1.169-2.675 2.669-2.675zM15.113 11.631c-0.588-1.269-1.95-2.1-3.381-2.1h-5.237c-1.431 0-2.8 0.825-3.381 2.1l-2.212 4.513c-0.519 0.956-0.063 2.163 0.975 2.669 0.65 0.319 1.494 0.194 2.081-0.194v10.8c0 1.269 1.044 2.288 2.344 2.288s2.344-1.019 2.344-2.288v-7.75c0-0.3 0.175-0.488 0.475-0.506 0.3 0.019 0.475 0.206 0.475 0.506v7.75c0 1.269 1.044 2.288 2.344 2.288s2.344-1.019 2.344-2.288v-10.794c0.588 0.381 1.431 0.506 2.081 0.194 1.044-0.506 1.494-1.719 0.975-2.669l-2.225-4.519zM15.831 17.669c-0.387 0.194-0.912 0-1.044-0.381l-1.756-3.556v15.694c0 0.575-0.456 1.019-1.044 1.019s-1.044-0.444-1.044-1.019v-7.75c-0.125-0.938-0.887-1.694-1.838-1.712-0.956 0.025-1.713 0.775-1.838 1.712v7.75c0 0.575-0.456 1.019-1.044 1.019s-1.038-0.45-1.038-1.019v-15.694l-1.756 3.556c-0.131 0.381-0.65 0.575-1.044 0.381-0.388-0.125-0.587-0.637-0.388-1.019l2.213-4.512c0.388-0.825 1.237-1.4 2.213-1.4h5.375c0.975 0 1.819 0.575 2.213 1.4l2.212 4.512c0.188 0.381-0.006 0.894-0.394 1.019zM23.481 17.15h3.631c0.281 0.863 1.1 1.5 2.044 1.5 1.169 0 2.15-0.981 2.15-2.156s-0.975-2.156-2.15-2.156c-0.944 0-1.762 0.637-2.044 1.5h-3.631v-11.744h3.65c0.3 0.831 1.1 1.438 2.019 1.438 1.169 0 2.15-0.912 2.15-2.156 0-1.175-0.975-2.156-2.15-2.156-0.969 0-1.806 0.669-2.063 1.569h-4.913v13.063h-3.525v1.3h3.525v13.063h4.931c0.281 0.863 1.1 1.5 2.044 1.5 1.169 0 2.15-0.981 2.15-2.156s-0.975-2.156-2.144-2.156c-0.944 0-1.762 0.637-2.044 1.5h-3.631v-11.75zM29.156 15.65c0.456 0 0.844 0.394 0.844 0.85s-0.387 0.85-0.844 0.85-0.844-0.394-0.844-0.85c-0.006-0.456 0.387-0.85 0.844-0.85zM29.156 2.587c0.456 0 0.844 0.325 0.844 0.85 0 0.456-0.387 0.85-0.844 0.85s-0.844-0.394-0.844-0.85c-0.006-0.456 0.387-0.85 0.844-0.85zM29.156 28.706c0.456 0 0.844 0.394 0.844 0.85s-0.387 0.85-0.844 0.85-0.844-0.394-0.844-0.85c-0.006-0.456 0.387-0.85 0.844-0.85z"></path>
</svg>
