<!-- Generated by IcoMoon.io -->
<svg version="1.1" xmlns="http://www.w3.org/2000/svg" width="32" height="32" viewBox="0 0 32 32">
<path d="M28.672 21.248l-2.112-0.512v-0.704c1.152-0.704 1.92-1.92 1.92-3.392v-2.752c0-2.176-1.728-3.904-3.904-3.904h-0.448c-1.152 0-2.176 0.512-2.88 1.28-0.704-2.24-2.816-3.904-5.248-3.904s-4.544 1.664-5.248 3.904c-0.704-0.768-1.728-1.28-2.88-1.28h-0.448c-2.176 0-3.904 1.728-3.904 3.904v2.752c0 1.408 0.768 2.688 1.92 3.392v0.704l-2.112 0.512c-1.984 0.512-3.328 2.24-3.328 4.224v1.856c0 0.32 0.256 0.64 0.64 0.64h5.056c0 0.256-0.064 0.512-0.064 0.768v1.984h-3.776c-0.32 0-0.64 0.256-0.64 0.64 0 0.32 0.256 0.64 0.64 0.64h28.224c0.32 0 0.64-0.256 0.64-0.64 0-0.32-0.256-0.64-0.64-0.64h-3.776v-1.984c0-0.256 0-0.512-0.064-0.768h5.12c0.32 0 0.64-0.256 0.64-0.64v-1.856c0-1.984-1.344-3.712-3.328-4.224zM21.504 13.888c0-1.472 1.216-2.688 2.688-2.688h0.448c1.472 0 2.688 1.216 2.688 2.688v0.192c-0.896 0-1.792-0.256-2.56-0.768-0.192-0.128-0.448-0.128-0.704 0-0.768 0.512-1.6 0.768-2.56 0.768v-0.192zM21.504 16.128v-0.832c1.024 0 1.984-0.256 2.88-0.768 0.896 0.512 1.856 0.768 2.88 0.768v1.344c0 1.472-1.216 2.688-2.688 2.688h-0.448c-1.472 0-2.688-1.216-2.688-2.688l0.064-0.512zM22.72 23.36c-0.256-0.128-0.512-0.192-0.768-0.256l-1.984-0.448c0.128-0.064 0.32-0.128 0.448-0.128l1.984-0.448 0.32 1.28zM22.208 20.032v0.704l-2.112 0.512c-0.448 0.128-0.896 0.256-1.28 0.512v-0.896c0.832-0.512 1.536-1.28 2.048-2.112 0.32 0.512 0.768 0.96 1.344 1.28zM20.224 16.128c0 2.368-1.92 4.224-4.224 4.224s-4.224-1.92-4.224-4.224v-1.856h0.704c1.728 0 3.456-0.576 4.8-1.6l0.128 0.192c0.576 0.832 1.536 1.344 2.56 1.344h0.32l-0.064 1.92zM11.776 12.928c0-2.368 1.92-4.224 4.224-4.224s4.224 1.92 4.224 4.224v0.192h-0.32c-0.64 0-1.152-0.32-1.536-0.832l-0.256-0.32c0.192-0.192 0.384-0.384 0.512-0.576 0.192-0.256 0.192-0.64-0.064-0.896-0.256-0.192-0.64-0.192-0.896 0.064-1.28 1.6-3.264 2.56-5.312 2.56h-0.704v-0.192zM11.136 18.752c0.448 0.896 1.152 1.6 2.048 2.112v0.896c-0.384-0.256-0.832-0.448-1.28-0.512l-2.112-0.512v-0.704c0.576-0.32 1.024-0.768 1.344-1.28zM12.096 22.592l-1.984 0.448c-0.256 0.064-0.512 0.128-0.768 0.256l0.32-1.344 1.984 0.448c0.128 0.128 0.256 0.192 0.448 0.192zM4.736 13.888c0-1.472 1.216-2.688 2.688-2.688h0.448c1.472 0 2.688 1.216 2.688 2.688v0.192c-0.896 0-1.792-0.256-2.56-0.768-0.192-0.128-0.448-0.128-0.704 0-0.768 0.512-1.6 0.768-2.56 0.768v-0.192zM4.736 16.64v-1.344c1.024 0 1.984-0.256 2.88-0.768 0.896 0.512 1.856 0.768 2.88 0.768v1.344c0 1.472-1.216 2.688-2.688 2.688h-0.448c-1.408 0-2.624-1.216-2.624-2.688zM5.952 26.752h-4.672v-1.28c0-1.472 0.96-2.688 2.368-3.008l1.984-0.448 0.96 3.648c-0.256 0.32-0.448 0.704-0.64 1.088zM6.656 20.48c0.256 0.064 0.512 0.064 0.704 0.064h0.448c0.256 0 0.512 0 0.704-0.064v0.64l-0.768 3.072c-0.064 0.064-0.192 0.128-0.256 0.256l-0.832-3.264c0 0 0-0.704 0-0.704zM6.848 30.72v-1.984c0-1.536 0.704-2.88 1.92-3.712l5.696 5.696h-7.616zM9.92 24.448c0.128-0.064 0.256-0.064 0.448-0.128l3.008-0.704 1.472 5.696-4.928-4.864zM14.464 22.784v-1.344c0.512 0.128 1.024 0.256 1.536 0.256s1.088-0.064 1.536-0.256v1.344l-1.536 6.080-1.536-6.080zM18.624 23.616l2.944 0.704c0.128 0.064 0.32 0.064 0.448 0.128l-4.864 4.864 1.472-5.696zM25.152 30.72h-7.616l5.696-5.696c1.152 0.832 1.92 2.176 1.92 3.712v1.984zM25.344 21.184v0l-0.832 3.264c-0.064-0.064-0.192-0.128-0.256-0.256l-0.768-3.072v-0.64c0.256 0.064 0.448 0.064 0.704 0.064h0.448c0.256 0 0.512 0 0.704-0.064v0.704zM30.72 26.752h-4.736c-0.128-0.384-0.32-0.768-0.576-1.088l0.96-3.648 1.984 0.448c1.408 0.32 2.368 1.6 2.368 3.008v1.28z"></path>
<path d="M16 0c-0.32 0-0.64 0.256-0.64 0.64v2.688c0 0.32 0.256 0.64 0.64 0.64s0.64-0.256 0.64-0.64v-2.688c0-0.384-0.32-0.64-0.64-0.64z"></path>
<path d="M16.448 5.056c-0.128-0.128-0.256-0.192-0.448-0.192s-0.32 0.064-0.448 0.192c-0.128 0.064-0.192 0.256-0.192 0.448s0.064 0.32 0.192 0.448c0.128 0.128 0.256 0.192 0.448 0.192s0.32-0.064 0.448-0.192c0.128-0.128 0.192-0.32 0.192-0.448 0-0.192-0.064-0.384-0.192-0.448z"></path>
<path d="M11.84 5.184l-2.304-2.304c-0.256-0.256-0.64-0.256-0.896 0s-0.256 0.64 0 0.896l2.304 2.304c0.128 0.128 0.256 0.192 0.448 0.192s0.32-0.064 0.448-0.192c0.256-0.256 0.256-0.64 0-0.896z"></path>
<path d="M23.424 2.752c-0.256-0.256-0.64-0.256-0.896 0l-2.432 2.432c-0.256 0.256-0.256 0.64 0 0.896 0.128 0.128 0.256 0.192 0.448 0.192 0.128 0 0.32-0.064 0.448-0.192l2.432-2.432c0.256-0.256 0.256-0.64 0-0.896z"></path>
</svg>
