<!-- Generated by IcoMoon.io -->
<svg version="1.1" xmlns="http://www.w3.org/2000/svg" width="32" height="32" viewBox="0 0 32 32">
<path d="M16 32c-0.245 0-0.477-0.113-0.629-0.306-0.092-0.117-2.268-2.902-4.476-7.016-1.299-2.422-2.336-4.799-3.080-7.066-0.939-2.859-1.415-5.555-1.415-8.012 0-5.293 4.307-9.6 9.6-9.6s9.6 4.307 9.6 9.6c0 2.457-0.476 5.153-1.415 8.012-0.744 2.267-1.781 4.645-3.080 7.066-2.207 4.114-4.384 6.899-4.476 7.016-0.152 0.193-0.384 0.306-0.629 0.306zM16 1.6c-4.411 0-8 3.589-8 8 0 5.206 2.341 10.662 4.305 14.322 1.443 2.69 2.895 4.822 3.695 5.936 0.803-1.118 2.263-3.264 3.709-5.961 1.958-3.653 4.291-9.099 4.291-14.296 0-4.411-3.589-8-8-8zM16 14.4c-2.647 0-4.8-2.153-4.8-4.8s2.153-4.8 4.8-4.8 4.8 2.153 4.8 4.8-2.153 4.8-4.8 4.8zM16 6.4c-1.764 0-3.2 1.436-3.2 3.2s1.435 3.2 3.2 3.2c1.764 0 3.2-1.435 3.2-3.2s-1.436-3.2-3.2-3.2z"></path>
</svg>
