<!-- Generated by IcoMoon.io -->
<svg version="1.1" xmlns="http://www.w3.org/2000/svg" width="32" height="32" viewBox="0 0 32 32">
<path d="M30.021 1.72c-0.236-0.146-0.53-0.159-0.778-0.035l-9.242 4.621-9.242-4.621c-0.225-0.113-0.49-0.113-0.716 0l-9.6 4.8c-0.271 0.136-0.442 0.412-0.442 0.716v24c0 0.277 0.144 0.535 0.379 0.68 0.128 0.079 0.274 0.119 0.421 0.119 0.122 0 0.245-0.028 0.358-0.084l9.242-4.621 9.242 4.621c0.225 0.113 0.49 0.113 0.716 0l9.6-4.8c0.271-0.136 0.442-0.413 0.442-0.716v-24c-0-0.277-0.144-0.535-0.38-0.68zM9.6 25.906l-8 4v-22.211l8-4v22.211zM11.2 3.694l8 4v22.211l-8-4v-22.211zM28.8 25.906l-8 4v-22.211l8-4v22.211z"></path>
</svg>
