<!-- Generated by IcoMoon.io -->
<svg version="1.1" xmlns="http://www.w3.org/2000/svg" width="32" height="32" viewBox="0 0 32 32">
<path d="M4.527 6.466c-1.021 0-1.851 0.831-1.851 1.852s0.831 1.852 1.851 1.852 1.851-0.831 1.851-1.852c0-1.021-0.831-1.851-1.851-1.851zM4.527 8.837c-0.287 0-0.52-0.233-0.52-0.52s0.233-0.52 0.52-0.52c0.287 0 0.52 0.233 0.52 0.52s-0.233 0.52-0.52 0.52zM30.738 12.126v-4.702c0-0.91-0.741-1.652-1.652-1.653l-20.823-0.010c-0.163-0.237-0.349-0.46-0.558-0.666-0.869-0.857-2.020-1.321-3.243-1.303-2.446 0.034-4.448 2.052-4.463 4.499-0.004 0.725 0.167 1.447 0.496 2.089 0.006 0.013 1.083 1.818 1.083 1.818v15.147c0 0.911 0.741 1.652 1.652 1.652l25.854 0.014c0.912 0 1.654-0.742 1.654-1.653v-8.749c0 0 0.76-1.274 0.766-1.287 0.324-0.633 0.496-1.346 0.496-2.061-0-1.179-0.448-2.287-1.262-3.134zM26.185 7.101l-3.215 3.216-3.219-3.219 6.434 0.003zM22.121 11.165l-5.604 5.604-2.049-2.049c-0-0-0-0-0-0s-0-0-0-0l-1.537-1.537 5.604-5.604 3.587 3.587zM10.962 19.073l3.083-3.083 3.96 3.96-3.083 3.083-3.96-3.96zM11.713 21.52l-3.458 3.458-2.771-2.771 3.458-3.458 2.771 2.771zM8.558 10.379c0.324-0.633 0.496-1.346 0.496-2.061 0-0.42-0.058-0.831-0.168-1.225l8.435 0.004-5.237 5.237-1.875-1.875c-0.234-0.234-0.614-0.234-0.848 0s-0.234 0.614 0 0.848l3.837 3.837-3.083 3.083-2.497-2.497c-0.234-0.234-0.614-0.234-0.848 0s-0.234 0.614 0 0.848l1.325 1.325-5.184 5.184v-8.656l0.473 0.793c0.243 0.406 0.67 0.649 1.143 0.649s0.901-0.243 1.143-0.649c-0-0 2.881-4.83 2.888-4.843zM1.672 9.753c-0.229-0.453-0.343-0.943-0.34-1.455 0.010-1.727 1.423-3.151 3.149-3.175 0.864-0.011 1.675 0.315 2.289 0.92 0.211 0.208 0.389 0.441 0.532 0.692 0.006 0.012 0.013 0.023 0.020 0.035 0.26 0.468 0.399 0.997 0.399 1.549 0 0.506-0.114 0.989-0.34 1.436l-2.854 4.786-2.856-4.786zM3.231 27.664c-0.177 0-0.32-0.144-0.32-0.32v-2.563l1.726-1.726 4.612 4.612-6.018-0.003zM10.945 27.668l-1.842-1.842 3.458-3.458 5.304 5.304-6.919-0.004zM15.77 23.882l3.083-3.083 2.239 2.238-3.083 3.083-2.239-2.239zM19.561 27.673l-0.705-0.705 3.083-3.083 3.791 3.791-6.169-0.003zM29.085 27.678l-1.659-0.001-4.639-4.639 1.396-1.396c0.234-0.234 0.234-0.614 0-0.848s-0.614-0.234-0.848 0l-1.396 1.396-2.662-2.662c-0-0-0-0-0-0s-0-0-0-0l-1.911-1.911 2.272-2.272 1.177 1.177c0.13 0.13 0.3 0.195 0.471 0.195s0.341-0.065 0.471-0.195c0.26-0.26 0.26-0.682 0-0.942l-1.177-1.177 7.3-7.3 1.206 0.001c0.177 0 0.321 0.144 0.321 0.321v3.74c-0.615-0.291-1.294-0.441-1.997-0.431-2.446 0.034-4.448 2.052-4.463 4.499-0.004 0.725 0.167 1.447 0.496 2.089 0.006 0.013 2.888 4.843 2.888 4.843 0.243 0.407 0.67 0.649 1.143 0.649s0.901-0.243 1.143-0.649l0.79-1.324v6.517h0c-0 0.177-0.145 0.321-0.321 0.321zM30.328 16.696l-0.841 1.409c-0 0.001-0.001 0.001-0.001 0.002l-2.013 3.375-2.856-4.786c-0.229-0.453-0.343-0.943-0.34-1.455 0.010-1.727 1.423-3.151 3.149-3.175 0.862-0.012 1.675 0.315 2.289 0.92s0.952 1.413 0.952 2.275c0 0.506-0.114 0.989-0.34 1.436zM27.473 13.408c-1.021 0-1.852 0.831-1.852 1.852s0.831 1.851 1.852 1.851c1.021 0 1.852-0.831 1.852-1.851s-0.831-1.852-1.852-1.852zM27.473 15.779c-0.287 0-0.52-0.233-0.52-0.52s0.233-0.52 0.52-0.52 0.52 0.233 0.52 0.52-0.233 0.52-0.52 0.52z"></path>
</svg>
