<!-- Generated by IcoMoon.io -->
<svg version="1.1" xmlns="http://www.w3.org/2000/svg" width="32" height="32" viewBox="0 0 32 32">
<path d="M28.19 10.667c2.104 0 3.809 1.706 3.81 3.81l-0.002 13.714c0 2.104-1.706 3.81-3.81 3.81h-13.713c-2.104 0-3.809-1.706-3.81-3.81v-2.286c0-0.421 0.341-0.762 0.762-0.762s0.762 0.341 0.762 0.762v2.286c0 1.262 1.023 2.286 2.286 2.286h13.713c1.262 0 2.286-1.023 2.286-2.286l0.002-13.714c-0-1.262-1.023-2.286-2.286-2.286h-2.286c-0.421 0-0.762-0.341-0.762-0.762s0.341-0.762 0.762-0.762h2.286zM0.762 16c0.421 0 0.762 0.341 0.762 0.762v0.762c0 1.262 1.023 2.286 2.286 2.286h2.286c0.421 0 0.762 0.341 0.762 0.762s-0.341 0.762-0.762 0.762h-2.286c-2.104 0-3.81-1.706-3.81-3.81v-0.762c0-0.421 0.341-0.762 0.762-0.762zM20.571 10.667c0.421 0 0.762 0.341 0.762 0.762v6.093c0 2.103-1.705 3.809-3.808 3.81l-6.097 0.002c-0.202 0-0.396-0.080-0.539-0.223s-0.223-0.337-0.223-0.539v-6.095c0-2.104 1.706-3.81 3.81-3.81h6.095zM14.476 12.19c-1.262 0-2.286 1.023-2.286 2.286v5.333l5.334-0.001c1.262-0 2.285-1.024 2.285-2.286v-5.331h-5.333zM0.762 8.381c0.421 0 0.762 0.341 0.762 0.762v3.048c0 0.421-0.341 0.762-0.762 0.762s-0.762-0.341-0.762-0.762v-3.048c0-0.421 0.341-0.762 0.762-0.762zM17.524 0c2.104 0 3.81 1.706 3.81 3.81v1.524c0 0.421-0.341 0.762-0.762 0.762s-0.762-0.341-0.762-0.762v-1.524c0-1.262-1.023-2.286-2.286-2.286h-0.762c-0.421 0-0.762-0.341-0.762-0.762s0.341-0.762 0.762-0.762h0.762zM4.571 0c0.421 0 0.762 0.341 0.762 0.762s-0.341 0.762-0.762 0.762h-0.762c-1.262 0-2.286 1.023-2.286 2.286v0.762c0 0.421-0.341 0.762-0.762 0.762s-0.762-0.341-0.762-0.762v-0.762c0-2.104 1.706-3.81 3.81-3.81h0.762zM12.19 0c0.421 0 0.762 0.341 0.762 0.762s-0.341 0.762-0.762 0.762h-3.048c-0.421 0-0.762-0.341-0.762-0.762s0.341-0.762 0.762-0.762h3.048z"></path>
</svg>
