<!-- Generated by IcoMoon.io -->
<svg version="1.1" xmlns="http://www.w3.org/2000/svg" width="43" height="32" viewBox="0 0 43 32">
<path d="M40.27 14.123v0h-37.28c-1.654 0-2.99 1.336-2.99 2.99s1.336 2.99 2.99 2.99h2.036v11.642c0 0.191 0.127 0.318 0.318 0.318h2.417c0.191 0 0.318-0.127 0.318-0.318v-3.944l13.551-7.634 13.551 7.634v3.944c0 0.191 0.127 0.318 0.318 0.318h2.417c0.191 0 0.318-0.127 0.318-0.318v-11.706h2.036c1.654 0 2.99-1.336 2.99-2.99s-1.336-2.926-2.99-2.926zM7.38 31.364h-1.718v-11.324h1.718v11.324zM8.016 26.911v-6.871h12.278l-12.278 6.871zM35.245 26.911l-12.278-6.871h12.278v6.871zM37.598 31.364h-1.718v-11.324h1.718v11.324zM40.27 19.34h-37.28c-1.272 0-2.29-1.018-2.29-2.29s1.018-2.29 2.29-2.29h37.344c1.272 0 2.29 1.018 2.29 2.29s-1.081 2.29-2.354 2.29z"></path>
<path d="M25.638 5.153c-0.445-0.318-0.954-0.573-1.463-0.7 0.191-0.573 0.191-1.145 0.127-1.781 0-0.127-0.127-0.254-0.318-0.318-0.827-0.127-1.718 0-2.481 0.382-0.254-1.081-0.954-2.036-1.845-2.736-0.127-0.064-0.318-0.064-0.382 0-0.891 0.7-1.527 1.654-1.845 2.736-0.763-0.382-1.654-0.509-2.481-0.382-0.127 0-0.254 0.127-0.318 0.318-0.064 0.573 0 1.209 0.191 1.781-0.573 0.127-1.082 0.382-1.527 0.7-0.127 0.064-0.191 0.254-0.127 0.382 0.827 2.099 3.181 3.181 5.28 2.417 0.191-0.064 0.318-0.127 0.509-0.191 0.127 0.127 0.318 0.191 0.509 0.191s0.382-0.064 0.509-0.191c0.573 0.318 1.272 0.445 1.909 0.509 0.382 0 0.763-0.064 1.145-0.127 1.272-0.382 2.29-1.272 2.736-2.545 0.064-0.191 0-0.318-0.127-0.445zM21.63 3.499c0.573-0.318 1.272-0.509 1.972-0.445v0c0.064 0.509-0.064 1.018-0.191 1.463 0 0 0 0 0 0-0.445 1.082-1.336 1.909-2.481 2.099 0.509-0.763 0.763-1.718 0.763-2.608 0-0.127 0-0.318-0.064-0.509zM17.304 3.499c0 0.191-0.064 0.382-0.064 0.573 0 0.954 0.254 1.845 0.763 2.608-1.145-0.254-2.036-1.018-2.481-2.099 0 0 0 0 0-0.064-0.191-0.445-0.254-0.954-0.191-1.463v0c0.7-0.064 1.336 0.064 1.972 0.445zM16.159 7.443c-0.954-0.254-1.781-0.954-2.227-1.845 0.318-0.254 0.7-0.445 1.145-0.509 0.191 0.445 0.445 0.827 0.827 1.145 0.636 0.636 1.4 1.018 2.29 1.145-0.7 0.191-1.4 0.254-2.036 0.064zM19.976 6.807c-0.127 0.127-0.254 0.318-0.382 0.445-0.064 0.064-0.127 0.064-0.191 0v0c-0.891-0.827-1.4-1.972-1.4-3.181 0-1.272 0.573-2.417 1.527-3.245 1.781 1.463 1.972 4.199 0.445 5.98zM22.839 7.443v0c-0.636 0.191-1.336 0.191-2.036-0.064 0.891-0.127 1.654-0.509 2.29-1.145 0.318-0.318 0.573-0.7 0.827-1.145 0.382 0.064 0.763 0.254 1.145 0.509-0.445 0.891-1.272 1.59-2.227 1.845z"></path>
<path d="M19.467 4.708c-0.191 0-0.318 0.127-0.318 0.318v0.827c0 0.191 0.127 0.318 0.318 0.318s0.318-0.127 0.318-0.318v-0.763c0.064-0.191-0.127-0.382-0.318-0.382z"></path>
<path d="M8.843 17.686h-5.344c-0.191 0-0.318 0.127-0.318 0.318s0.127 0.318 0.318 0.318h5.28c0.191 0 0.318-0.127 0.318-0.318 0.064-0.191-0.064-0.318-0.254-0.318z"></path>
<path d="M11.96 17.686h-1.082c-0.191 0-0.318 0.127-0.318 0.318s0.127 0.318 0.318 0.318h1.082c0.191 0 0.318-0.127 0.318-0.318s-0.127-0.318-0.318-0.318z"></path>
<path d="M39.252 7.761v0h-9.734c-0.763 0.064-1.463-0.573-1.463-1.336-0.064-0.763 0.573-1.463 1.336-1.463 0.064 0 0.064 0 0.127 0h8.716c0.064 0 0.127 0 0.127 0 0.254-0.064 0.445 0.191 0.445 0.445 0 0 0 0 0 0 0 0.318-0.254 0.509-0.509 0.509 0 0 0 0 0 0h-8.398c-0.191 0-0.318 0.127-0.318 0.318s0.127 0.318 0.318 0.318h8.398c0.636 0 1.209-0.509 1.209-1.209 0.064-0.636-0.382-1.209-1.018-1.272-0.064 0-0.127 0-0.191 0h-8.779c-1.145 0.064-2.163 1.018-2.163 2.163s0.891 2.163 2.036 2.163c0.064 0 0.127 0 0.191 0h9.734c0.191 0 0.318-0.127 0.318-0.318-0.064-0.191-0.191-0.318-0.382-0.318z"></path>
<path d="M25.256 12.724h-9.797c-0.763 0-1.4-0.636-1.4-1.4s0.636-1.4 1.4-1.4h8.843c0.254 0 0.445 0.254 0.445 0.509 0 0 0 0 0 0 0 0.318-0.254 0.509-0.509 0.509 0 0 0 0 0 0h-8.398c-0.191 0-0.318 0.127-0.318 0.318s0.127 0.318 0.318 0.318h8.398c0.636 0 1.209-0.509 1.209-1.209 0.064-0.636-0.382-1.209-1.018-1.272 0 0 0 0 0 0-0.064 0-0.127 0-0.191 0h-8.779c-1.145 0-2.099 0.954-2.099 2.099s0.954 2.099 2.099 2.099h9.734c0.191 0 0.318-0.127 0.318-0.318 0.064-0.127-0.064-0.254-0.254-0.254z"></path>
<path d="M37.471 9.161h-8.907c-0.636 0.064-1.081 0.636-1.081 1.272 0 0 0 0 0 0 0 0.636 0.573 1.209 1.209 1.209h8.398c0.191 0 0.318-0.127 0.318-0.318s-0.127-0.318-0.318-0.318h-8.334c-0.318 0-0.509-0.254-0.573-0.509 0 0 0 0 0 0 0-0.254 0.127-0.509 0.445-0.509 0 0 0 0 0 0h8.843c0.763 0 1.4 0.636 1.4 1.4s-0.636 1.4-1.4 1.4v0h-9.734c-0.191 0-0.318 0.127-0.318 0.318s0.127 0.318 0.318 0.318h9.734c1.145 0 2.099-0.954 2.099-2.099 0-1.209-0.954-2.163-2.099-2.163z"></path>
</svg>
