<!-- Generated by IcoMoon.io -->
<svg version="1.1" xmlns="http://www.w3.org/2000/svg" width="32" height="32" viewBox="0 0 32 32">
<path d="M30.464 27.392v0l0.064-3.072c0-0.064 0-1.664-0.576-3.328l-1.664-3.904h-2.752l-1.728 3.968c-0.512 1.6-0.512 3.2-0.512 3.264v1.024h-1.536c-0.832 0-1.536-0.704-1.536-1.536v-2.176c2.496-1.408 4.16-4.096 4.16-7.168v-0.064c0.896-0.256 1.536-1.024 1.536-1.984s-0.32-1.536-0.576-1.792c0-0.064 0-0.192 0-0.32v-1.024c-0.064-5.12-4.224-9.28-9.344-9.28s-9.28 4.16-9.28 9.28v1.024c0 0.128 0 0.192 0 0.32-0.192 0.256-0.576 0.832-0.576 1.792s0.64 1.792 1.536 1.984v0.064c0 3.072 1.664 5.696 4.16 7.168v2.176c0 0.832-0.704 1.536-1.536 1.536h-2.56v-0.704c1.024-0.64 1.536-1.6 1.536-2.88s-0.832-2.752-2.496-3.072l-0.64-0.128v2.688h-0.96v-2.688l-0.64 0.128c-1.6 0.384-2.496 1.856-2.496 3.072 0 1.28 0.512 2.24 1.536 2.88v1.28c-2.112 0.96-3.584 3.072-3.584 5.568v0.512h1.024v-0.512c0-2.688 2.048-4.864 4.672-5.12v5.632h1.024v-5.696h1.536v5.696h1.024v-5.696h1.024c0.192 0 0.384-0.064 0.64-0.064 0.448 2.368 2.56 4.224 5.056 4.224s4.608-1.792 5.056-4.224c0.192 0.064 0.384 0.064 0.64 0.064h1.024v5.696h1.024v-5.696h1.536v5.696h1.024v-5.632c2.624 0.256 4.672 2.496 4.672 5.12v0.512h1.024v-0.512c0-1.536-0.576-3.008-1.536-4.096zM6.976 23.808l-0.256 0.128v1.344h-0.512c-0.512 0-1.024 0.064-1.536 0.192v-1.536l-0.256-0.128c-0.832-0.448-1.28-1.088-1.28-2.112 0-0.64 0.384-1.408 1.024-1.856v2.368h3.072v-2.368c0.704 0.384 1.024 1.152 1.024 1.856 0 1.024-0.384 1.728-1.28 2.112zM24.256 11.968c0.128-0.064 0.256-0.192 0.384-0.32 0.064 0.192 0.128 0.448 0.128 0.768 0 0.384-0.192 0.704-0.512 0.896v-1.344zM15.488 1.088v3.584h1.024v-3.584c4.224 0.256 7.616 3.712 7.744 7.936-1.856-0.96-5.696-1.28-8.256-1.28s-6.4 0.32-8.256 1.28c0.128-4.224 3.52-7.68 7.744-7.936zM7.744 13.312c-0.32-0.192-0.512-0.512-0.512-0.896 0-0.32 0.064-0.576 0.128-0.768 0.128 0.128 0.256 0.192 0.384 0.32v1.344zM7.744 10.304c0.128-0.512 3.136-1.536 8.256-1.536 5.184 0 8.192 1.024 8.256 1.536 0 1.024-3.072 2.048-8.256 2.048-5.184 0.064-8.256-1.024-8.256-2.048zM8.768 14.464v-1.984c2.304 0.832 5.824 0.96 7.232 0.96s4.928-0.064 7.232-0.96v1.984c0 3.968-3.264 7.232-7.232 7.232s-7.232-3.264-7.232-7.232zM16 29.44c-2.112 0-3.84-1.6-4.096-3.648 0.576-0.448 1.024-1.216 1.024-2.048v-1.664c0.96 0.384 1.984 0.64 3.072 0.64s2.112-0.192 3.072-0.64v1.664c0 0.832 0.384 1.536 1.024 2.048-0.192 2.048-1.984 3.648-4.096 3.648zM25.728 25.28h-1.408v-1.024c0 0 0-1.472 0.448-2.88l1.408-3.328h0.192v4.736c-0.576 0.192-1.024 0.768-1.024 1.472-0.064 0.448 0.128 0.768 0.384 1.024zM26.88 24.768c-0.256 0-0.512-0.256-0.512-0.512s0.256-0.512 0.512-0.512c0.256 0 0.512 0.256 0.512 0.512s-0.256 0.512-0.512 0.512zM29.44 26.496c-0.512-0.384-1.152-0.704-1.792-0.896 0.448-0.256 0.768-0.768 0.768-1.344 0-0.704-0.448-1.216-1.024-1.472v-4.736h0.192l1.408 3.264c0.512 1.472 0.512 2.944 0.512 2.944l-0.064 2.24z"></path>
<path d="M16.512 14.976h4.672v-1.024h-5.696v5.184h1.024z"></path>
<path d="M9.28 6.72h1.024v1.024h-1.024v-1.024z"></path>
<path d="M11.392 6.208h1.024v1.024h-1.024v-1.024z"></path>
</svg>
