<!-- Generated by IcoMoon.io -->
<svg version="1.1" xmlns="http://www.w3.org/2000/svg" width="32" height="32" viewBox="0 0 32 32">
<path d="M31.8 6.2l-4.841-4.841c-0.128-0.128-0.302-0.2-0.483-0.2h-20.95c-0.181 0-0.355 0.072-0.484 0.2l-4.841 4.841c-0.229 0.229-0.266 0.588-0.088 0.859l10.127 15.421c-0.404 0.838-0.631 1.777-0.631 2.769 0 3.524 2.867 6.392 6.392 6.392s6.392-2.867 6.392-6.392c0-0.991-0.227-1.93-0.631-2.768l10.127-15.422c0.178-0.271 0.141-0.63-0.088-0.859zM5.808 2.527h20.384l3.474 3.474h-4.841c-0.005 0-0.010-0-0.014 0h-17.62c-0.005-0-0.010 0-0.015 0h-4.84l3.474-3.474zM23.557 7.368l-7.546 11.489c-0.004 0-0.007-0-0.011-0s-0.007 0-0.010 0l-7.546-11.489h15.113zM1.951 7.368h4.856l7.667 11.674c-1.369 0.336-2.565 1.115-3.43 2.174l-9.094-13.848zM16 30.274c-2.77 0-5.024-2.254-5.024-5.024s2.254-5.024 5.024-5.024c2.77 0 5.024 2.254 5.024 5.024s-2.254 5.024-5.024 5.024zM20.955 21.216c-0.864-1.060-2.061-1.838-3.43-2.175l7.667-11.674h4.856l-9.094 13.848zM16.232 22.747h-1.086c-0.378 0-0.684 0.306-0.684 0.684s0.306 0.684 0.684 0.684h0.402v3.698c0 0.378 0.306 0.684 0.684 0.684s0.684-0.306 0.684-0.684v-4.381c0-0.378-0.306-0.684-0.684-0.684z"></path>
</svg>
