<!-- Generated by IcoMoon.io -->
<svg version="1.1" xmlns="http://www.w3.org/2000/svg" width="32" height="32" viewBox="0 0 32 32">
<path d="M31.692 15.66l-3.048-3.048c-7.217-7.18-18.075-7.179-25.252-0.002l-3.081 3.046c-0.199 0.197-0.311 0.465-0.312 0.744s0.11 0.548 0.307 0.746l3.048 3.048c3.604 3.585 8.123 5.378 12.644 5.378s9.042-1.794 12.647-5.38l3.046-3.046c0.197-0.197 0.308-0.464 0.308-0.743s-0.111-0.546-0.308-0.743zM27.163 18.704c-6.363 6.331-15.962 6.331-22.324 0.002l-2.299-2.299 2.334-2.307c6.336-6.336 15.919-6.336 22.287 0l2.303 2.303-2.301 2.301zM16 10.137c-3.456 0-6.267 2.811-6.267 6.267s2.811 6.267 6.267 6.267 6.267-2.811 6.267-6.267c0-3.456-2.811-6.267-6.267-6.267zM16 20.57c-2.297 0-4.166-1.869-4.166-4.166s1.869-4.166 4.166-4.166 4.166 1.869 4.166 4.166c0 2.297-1.868 4.166-4.166 4.166zM16 13.533v2.101c0.432 0 0.77 0.339 0.77 0.77s-0.338 0.77-0.77 0.77c-0.432 0-0.77-0.339-0.77-0.77h-2.101c0 1.583 1.288 2.871 2.871 2.871s2.871-1.288 2.871-2.871-1.288-2.871-2.871-2.871z"></path>
</svg>
