<!-- Generated by IcoMoon.io -->
<svg version="1.1" xmlns="http://www.w3.org/2000/svg" width="32" height="32" viewBox="0 0 32 32">
<path d="M31.759 3.548c-0.152-0.118-0.351-0.16-0.538-0.112l-2.974 0.756c-0.477 0.121-0.969 0.183-1.462 0.183h-4.364c-1.416 0-2.598 1.016-2.811 2.415-0.12 0.784-0.782 1.354-1.576 1.354h-0.16v-1.306c1.078-0.642 1.802-1.818 1.802-3.161 0-2.027-1.649-3.677-3.677-3.677s-3.677 1.649-3.677 3.677c0 1.343 0.724 2.52 1.802 3.161v1.306h-0.16c-0.793 0-1.456-0.569-1.576-1.354-0.213-1.399-1.396-2.415-2.812-2.415h-4.364c-0.492 0-0.984-0.061-1.462-0.183l-2.974-0.756c-0.187-0.047-0.385-0.006-0.538 0.112s-0.241 0.3-0.241 0.493c0 1.319 0.509 2.522 1.34 3.422 0.018 1.517 0.737 2.867 1.847 3.744l0.588 0.786c1.341 1.792 3.477 2.861 5.715 2.861 1.717 0 3.343-0.603 4.635-1.709v2.229h-0.561c-2.229 0-4.042 1.813-4.042 4.042 0 0.681 0.173 1.355 0.5 1.948 0.114 0.207 0.328 0.324 0.548 0.324 0.102 0 0.205-0.025 0.301-0.078 0.302-0.167 0.412-0.547 0.246-0.849-0.225-0.409-0.345-0.874-0.345-1.345 0-1.539 1.252-2.792 2.792-2.792h0.561v5.583h-1.469c-1.648 0-2.99 1.341-2.99 2.99s1.341 2.99 2.99 2.99h1.738c0.217 1.174 0.563 2.322 1.039 3.434 0.098 0.23 0.324 0.379 0.574 0.379h0.001c0.25-0 0.477-0.15 0.574-0.381l0.012-0.029c0.466-1.102 0.805-2.24 1.017-3.402h0.71c0.706 0 1.281 0.575 1.281 1.281s-0.575 1.281-1.281 1.281h-0.042c-0.345 0-0.625 0.28-0.625 0.625s0.28 0.625 0.625 0.625h0.042c1.396 0 2.531-1.136 2.531-2.531s-1.136-2.531-2.531-2.531h-0.532c0.056-0.548 0.084-1.102 0.084-1.658v-1.821h0.417c2.229 0 4.042-1.813 4.042-4.042s-1.813-4.042-4.042-4.042h-0.417v-2.229c1.292 1.106 2.918 1.709 4.635 1.709 2.238 0 4.374-1.070 5.715-2.861l0.588-0.786c1.11-0.877 1.829-2.227 1.847-3.744 0.831-0.901 1.34-2.103 1.34-3.422 0-0.193-0.089-0.375-0.241-0.493zM13.63 11.904c-1.109 1.097-2.58 1.702-4.14 1.702-1.39 0-2.733-0.501-3.783-1.379 0.157 0.015 0.316 0.024 0.477 0.024h1.047c0.345 0 0.625-0.28 0.625-0.625s-0.28-0.625-0.625-0.625h-1.047c-1.582 0-2.927-1.028-3.407-2.45 0.684 0.347 1.456 0.543 2.274 0.543l1.293 0c0.345 0 0.625-0.28 0.625-0.625s-0.28-0.625-0.625-0.625l-1.293-0c-1.812-0-3.332-1.275-3.711-2.975l2.104 0.535c0.578 0.147 1.173 0.221 1.77 0.221h4.364c0.793 0 1.456 0.569 1.576 1.354 0.213 1.4 1.396 2.415 2.812 2.415h0.16v2.021l-0.495 0.489zM12.656 26.937c-0.959 0-1.74-0.78-1.74-1.74s0.78-1.74 1.74-1.74h1.469v1.784c0 0.57 0.030 1.135 0.088 1.695h-1.557zM16.625 25.279c0 1.455-0.208 2.883-0.619 4.263-0.419-1.391-0.631-2.832-0.631-4.3v-1.784h1.25v1.821zM16.625 22.208h-1.25v-14.909c0.203 0.035 0.412 0.054 0.625 0.054s0.422-0.019 0.625-0.054v14.909zM18.292 16.625c1.539 0 2.792 1.252 2.792 2.792s-1.252 2.792-2.792 2.792h-0.417v-5.583h0.417zM16 6.104c-1.338 0-2.427-1.089-2.427-2.427s1.089-2.427 2.427-2.427 2.427 1.089 2.427 2.427c0 1.338-1.089 2.427-2.427 2.427zM26.949 7.844l-1.293 0c-0.345 0-0.625 0.28-0.625 0.625s0.28 0.625 0.625 0.625l1.293-0c0.818-0 1.59-0.197 2.274-0.543-0.479 1.422-1.825 2.45-3.407 2.45h-1.047c-0.345 0-0.625 0.28-0.625 0.625s0.28 0.625 0.625 0.625h1.047c0.161 0 0.32-0.008 0.477-0.024-1.051 0.878-2.393 1.379-3.783 1.379-1.56 0-3.031-0.604-4.14-1.702l-0.495-0.489v-2.021h0.16c1.416 0 2.598-1.016 2.811-2.415 0.12-0.784 0.782-1.354 1.576-1.354h4.364c0.596 0 1.192-0.074 1.77-0.221l2.104-0.535c-0.378 1.7-1.898 2.975-3.711 2.975z"></path>
<path d="M13.942 30.933c-0.116-0.116-0.277-0.183-0.442-0.183s-0.326 0.067-0.442 0.183c-0.116 0.116-0.183 0.277-0.183 0.442s0.067 0.326 0.183 0.442c0.116 0.116 0.277 0.183 0.442 0.183s0.326-0.067 0.442-0.183c0.116-0.116 0.183-0.277 0.183-0.442s-0.067-0.326-0.183-0.442z"></path>
</svg>
