<!-- Generated by IcoMoon.io -->
<svg version="1.1" xmlns="http://www.w3.org/2000/svg" width="32" height="32" viewBox="0 0 32 32">
<path d="M7.856 7.875c-0.345 0-0.625 0.28-0.625 0.625s0.28 0.625 0.625 0.625c0.345 0 0.625-0.28 0.625-0.625s-0.28-0.625-0.625-0.625z"></path>
<path d="M13.481 19.561h-1.875v-1.875c0-0.345-0.28-0.625-0.625-0.625s-0.625 0.28-0.625 0.625v1.875h-1.875c-0.345 0-0.625 0.28-0.625 0.625s0.28 0.625 0.625 0.625h1.875v1.875c0 0.345 0.28 0.625 0.625 0.625s0.625-0.28 0.625-0.625v-1.875h1.875c0.345 0 0.625-0.28 0.625-0.625s-0.28-0.625-0.625-0.625z"></path>
<path d="M30.349 20.124c-1.382-2.393-4.436-3.212-6.83-1.83l-2.539 1.466v-5.427c0-0.671-0.222-1.337-0.625-1.875l-3.125-4.166v-1.774c0.727-0.258 1.25-0.953 1.25-1.767v-2.875c-0-1.034-0.841-1.875-1.875-1.875h-11.249c-1.034 0-1.875 0.841-1.875 1.875v2.875c0 0.815 0.523 1.509 1.25 1.767v1.774l-3.125 4.167c-0.403 0.538-0.625 1.204-0.625 1.875v12.104c0 1.723 1.402 3.125 3.125 3.125h10.044c1.401 2.349 4.423 3.135 6.792 1.767l7.577-4.375c2.372-1.37 3.218-4.424 1.83-6.83zM4.731 1.875c0-0.345 0.28-0.625 0.625-0.625h11.249c0.345 0 0.625 0.28 0.625 0.625v2.875c0 0.345-0.28 0.625-0.625 0.625h-11.249c-0.345 0-0.625-0.28-0.625-0.625v-2.875zM2.606 13.207l3.25-4.333c0.081-0.108 0.125-0.24 0.125-0.375v-1.875h9.999v1.25h-5.625c-0.345 0-0.625 0.28-0.625 0.625s0.28 0.625 0.625 0.625h5.937l3.062 4.083c0.2 0.267 0.324 0.587 0.362 0.917h-17.473c0.038-0.33 0.162-0.65 0.362-0.917zM4.106 28.311c-1.034 0-1.875-0.841-1.875-1.875v-0.631h11.355c-0.198 0.81-0.197 1.676 0.030 2.506h-9.51zM14.076 24.561h-11.845v-9.187h17.499v5.107l-3.789 2.188c-0.79 0.456-1.428 1.106-1.865 1.892zM20.317 30.246c-1.794 1.036-4.085 0.423-5.122-1.372-1.041-1.812-0.41-4.094 1.372-5.123l3.392-1.959 3.75 6.495-3.392 1.959zM27.894 25.871l-3.102 1.791-3.75-6.495 3.102-1.791c1.795-1.036 4.086-0.423 5.122 1.372 1.041 1.804 0.408 4.094-1.372 5.122z"></path>
</svg>
