<!-- Generated by IcoMoon.io -->
<svg version="1.1" xmlns="http://www.w3.org/2000/svg" width="32" height="32" viewBox="0 0 32 32">
<path d="M26.205 11.841c-1.533-2.016-3.593-3.528-5.975-4.348 0 0-0.072-0.024-0.072-0.154 0-0.649 0-2.597 0-2.597h0.793c0.849 0 1.54-0.691 1.54-1.54v-1.262c0-0.849-0.691-1.54-1.54-1.54h-9.902c-0.849 0-1.54 0.691-1.54 1.54v1.262c0 0.849 0.691 1.54 1.54 1.54h0.793c0 0 0 1.961 0 2.648 0 0.083-0.113 0.118-0.113 0.118-2.383 0.82-4.401 2.317-5.934 4.333-1.706 2.243-2.608 4.921-2.608 7.746 0 7.065 5.748 12.813 12.813 12.813s12.813-5.748 12.813-12.813c0-2.825-0.902-5.504-2.608-7.746zM12.82 8.759l0.452-0.133c0 0 0.097-0.027 0.097-0.158 0-0.689 0-3.934 0-5.118 0-0.064-0.055-0.135-0.162-0.135-0.519 0-2.076 0-2.076 0-0.005 0-0.095 0.004-0.095-0.063v-1.145c0-0.072 0.040-0.081 0.080-0.081 2.457 0 9.808 0.001 9.808 0.001 0.033 0 0.039 0.024 0.039 0.059v1.201c0 0.005-0.002 0.028-0.032 0.028 0 0-1.582 0-2.127 0-0.159 0-0.174 0.096-0.174 0.233 0 1.144 0.010 4.216 0 4.977-0.003 0.181 0.105 0.203 0.105 0.203l0.444 0.13c2.791 0.818 5.089 2.681 6.517 5.082 0.049 0.082 0.086 0.247-0.194 0.247h-18.923c-0.395 0-0.299-0.21-0.237-0.313 1.431-2.369 3.712-4.205 6.478-5.015zM16 30.873c-6.223 0-11.286-5.063-11.286-11.286 0-1.327 0.145-2.353 0.583-3.557 0 0 0.080-0.263 0.299-0.263 5.254 0 20.695 0 20.695 0 0.293 0 0.365 0.127 0.387 0.192 0.395 1.149 0.607 2.372 0.607 3.629 0 6.223-5.063 11.286-11.286 11.286zM12.616 21.092c0 1.471-1.193 2.664-2.664 2.664s-2.664-1.193-2.664-2.664c0-1.471 1.193-2.664 2.664-2.664s2.664 1.193 2.664 2.664zM16.563 25.403c0 0.963-0.781 1.744-1.744 1.744s-1.744-0.781-1.744-1.744c0-0.963 0.781-1.744 1.744-1.744s1.744 0.781 1.744 1.744z"></path>
</svg>
