<!-- Generated by IcoMoon.io -->
<svg version="1.1" xmlns="http://www.w3.org/2000/svg" width="32" height="32" viewBox="0 0 32 32">
<path d="M28.094 9.003v-5.149c0-0.567-0.292-1.077-0.78-1.363-0.491-0.288-1.081-0.294-1.578-0.015-4.752 2.657-9.92 4.209-15.363 4.613-0.042 0.003-4.961 0.025-4.961 0.025-1.235 0-2.257 0.933-2.398 2.131h-1.010c-1.105 0-2.005 0.899-2.005 2.005v4.404c0 1.105 0.899 2.005 2.005 2.005h1.010c0.102 0.862 0.659 1.586 1.424 1.925l3.593 9.915c0.225 0.617 0.817 1.032 1.474 1.032h3.605c0.511 0 0.991-0.25 1.284-0.669s0.364-0.955 0.189-1.435l-3.087-8.515c5.030 0.523 9.815 2.038 14.239 4.511 0.244 0.137 0.51 0.205 0.776 0.205 0.276-0 0.552-0.073 0.802-0.22 0.489-0.287 0.781-0.796 0.781-1.363v-5.149c2.2-0.285 3.906-2.169 3.906-4.446s-1.706-4.161-3.906-4.446zM2.997 16.111h-0.992c-0.253 0-0.459-0.206-0.459-0.459v-4.404c0-0.253 0.206-0.459 0.459-0.459h0.992v5.321zM5.058 18.165c-0.303-0.136-0.515-0.44-0.515-0.793v-7.845h0c0-0.479 0.39-0.869 0.869-0.869h4.208v9.583c0 0-4.245-0.002-4.263-0.003-0.155-0.018-0.188-0.026-0.299-0.073zM13.131 28.953c0.002 0.006 0.004 0.011-0.003 0.020s-0.011 0.009-0.018 0.009h-3.605c-0.009 0-0.018-0.006-0.020-0.013l-3.327-9.182h3.651l3.323 9.166zM26.548 23.043c0 0.011 0 0.020-0.017 0.030-0.020 0.012-0.032 0.005-0.041-0-4.752-2.657-9.904-4.253-15.324-4.747v-9.752c5.42-0.495 10.572-2.091 15.324-4.748 0.010-0.005 0.022-0.012 0.041-0 0.017 0.010 0.017 0.019 0.017 0.030v19.189zM28.094 16.33v-5.762c1.344 0.27 2.36 1.459 2.36 2.881s-1.016 2.611-2.36 2.881z"></path>
</svg>
