<!-- Generated by IcoMoon.io -->
<svg version="1.1" xmlns="http://www.w3.org/2000/svg" width="32" height="32" viewBox="0 0 32 32">
<path d="M28.769 13.387c0-2.012-1.556-3.7-3.65-3.994v-7.737c0-0.45-0.556-0.675-0.975-0.394l-12.219 7.044h-8.044c-0.394 0-0.65 0.325-0.65 0.65v8.925c0 0.394 0.325 0.65 0.65 0.65h1.425l3.006 12.644c0.131 0.262 0.325 0.456 0.65 0.456h4.106c0.387 0 0.787-0.281 0.65-0.85l-2.925-12.25h0.819c0.025 0.025 0.056 0.044 0.088 0.063l12.444 7.169c0.45 0.262 0.975-0.019 0.975-0.587v-7.794c2.050-0.3 3.65-1.988 3.65-3.994zM4.469 9.544h6.906v7.688h-6.906v-7.688zM12.287 30.325h-2.8l-2.85-11.794h2.8l2.85 11.794zM23.819 24.075l-11.144-6.456v-8.4l11.144-6.456v21.313zM25.125 16.063v-5.35c1.381 0.269 2.413 1.375 2.413 2.675-0.006 1.3-1.038 2.406-2.413 2.675z"></path>
</svg>
