<!-- Generated by IcoMoon.io -->
<svg version="1.1" xmlns="http://www.w3.org/2000/svg" width="32" height="32" viewBox="0 0 32 32">
<path d="M15.2 32c-4.060 0-7.877-1.581-10.748-4.452s-4.452-6.688-4.452-10.748c0-4.060 1.581-7.877 4.452-10.748s6.688-4.452 10.748-4.452c4.060 0 7.877 1.581 10.748 4.452s4.452 6.688 4.452 10.748-1.581 7.877-4.452 10.748c-2.871 2.871-6.688 4.452-10.748 4.452zM15.2 3.2c-7.499 0-13.6 6.101-13.6 13.6s6.101 13.6 13.6 13.6 13.6-6.101 13.6-13.6-6.101-13.6-13.6-13.6zM23.2 12.8h-16c-0.442 0-0.8-0.358-0.8-0.8s0.358-0.8 0.8-0.8h16c0.442 0 0.8 0.358 0.8 0.8s-0.358 0.8-0.8 0.8zM23.2 17.6h-16c-0.442 0-0.8-0.358-0.8-0.8s0.358-0.8 0.8-0.8h16c0.442 0 0.8 0.358 0.8 0.8s-0.358 0.8-0.8 0.8zM23.2 22.4h-16c-0.442 0-0.8-0.358-0.8-0.8s0.358-0.8 0.8-0.8h16c0.442 0 0.8 0.358 0.8 0.8s-0.358 0.8-0.8 0.8z"></path>
</svg>
