<!-- Generated by IcoMoon.io -->
<svg version="1.1" xmlns="http://www.w3.org/2000/svg" width="32" height="32" viewBox="0 0 32 32">
<path d="M4.571 23.257c-2.521 0-4.571 2.051-4.571 4.571s2.051 4.571 4.571 4.571 4.571-2.051 4.571-4.571-2.051-4.571-4.571-4.571zM4.571 31.257c-1.891 0-3.429-1.538-3.429-3.429s1.538-3.429 3.429-3.429 3.429 1.538 3.429 3.429-1.538 3.429-3.429 3.429zM16 23.257c-2.521 0-4.571 2.051-4.571 4.571s2.051 4.571 4.571 4.571 4.571-2.051 4.571-4.571-2.051-4.571-4.571-4.571zM16 31.257c-1.891 0-3.429-1.538-3.429-3.429s1.538-3.429 3.429-3.429 3.429 1.538 3.429 3.429-1.538 3.429-3.429 3.429zM27.429 23.257c-2.521 0-4.571 2.051-4.571 4.571s2.051 4.571 4.571 4.571 4.571-2.051 4.571-4.571-2.051-4.571-4.571-4.571zM27.429 31.257c-1.891 0-3.429-1.538-3.429-3.429s1.538-3.429 3.429-3.429 3.429 1.538 3.429 3.429-1.538 3.429-3.429 3.429zM4.571 11.829c-2.521 0-4.571 2.051-4.571 4.571s2.051 4.571 4.571 4.571 4.571-2.051 4.571-4.571-2.051-4.571-4.571-4.571zM4.571 19.829c-1.891 0-3.429-1.538-3.429-3.429s1.538-3.429 3.429-3.429 3.429 1.538 3.429 3.429-1.538 3.429-3.429 3.429zM16 11.829c-2.521 0-4.571 2.051-4.571 4.571s2.051 4.571 4.571 4.571 4.571-2.051 4.571-4.571-2.051-4.571-4.571-4.571zM16 19.829c-1.891 0-3.429-1.538-3.429-3.429s1.538-3.429 3.429-3.429 3.429 1.538 3.429 3.429-1.538 3.429-3.429 3.429zM27.429 11.829c-2.521 0-4.571 2.051-4.571 4.571s2.051 4.571 4.571 4.571 4.571-2.051 4.571-4.571-2.051-4.571-4.571-4.571zM27.429 19.829c-1.891 0-3.429-1.538-3.429-3.429s1.538-3.429 3.429-3.429 3.429 1.538 3.429 3.429-1.538 3.429-3.429 3.429zM4.571 0.4c-2.521 0-4.571 2.051-4.571 4.571s2.051 4.571 4.571 4.571 4.571-2.051 4.571-4.571-2.051-4.571-4.571-4.571zM4.571 8.4c-1.891 0-3.429-1.538-3.429-3.429s1.538-3.429 3.429-3.429 3.429 1.538 3.429 3.429-1.538 3.429-3.429 3.429zM16 0.4c-2.521 0-4.571 2.051-4.571 4.571s2.051 4.571 4.571 4.571 4.571-2.051 4.571-4.571-2.051-4.571-4.571-4.571zM16 8.4c-1.891 0-3.429-1.538-3.429-3.429s1.538-3.429 3.429-3.429 3.429 1.538 3.429 3.429-1.538 3.429-3.429 3.429zM27.429 9.543c2.521 0 4.571-2.051 4.571-4.571s-2.051-4.571-4.571-4.571-4.571 2.051-4.571 4.571 2.051 4.571 4.571 4.571zM27.429 1.543c1.891 0 3.429 1.538 3.429 3.429s-1.538 3.429-3.429 3.429-3.429-1.538-3.429-3.429 1.538-3.429 3.429-3.429z"></path>
</svg>
