<!-- Generated by IcoMoon.io -->
<svg version="1.1" xmlns="http://www.w3.org/2000/svg" width="32" height="32" viewBox="0 0 32 32">
<path d="M16 0c-8.822 0-16 7.178-16 16 0 4.446 1.873 8.729 5.139 11.749 0.264 0.244 0.676 0.228 0.92-0.036s0.228-0.676-0.036-0.92c-3-2.775-4.721-6.709-4.721-10.793 0-8.104 6.593-14.698 14.698-14.698s14.698 6.593 14.698 14.698-6.593 14.698-14.698 14.698c-0.36 0-0.651 0.292-0.651 0.651s0.292 0.651 0.651 0.651c8.822 0 16-7.178 16-16s-7.177-16-16-16z"></path>
<path d="M9.137 9.788h13.726c0.36 0 0.651-0.292 0.651-0.651s-0.292-0.651-0.651-0.651h-13.726c-0.36 0-0.651 0.292-0.651 0.651s0.292 0.651 0.651 0.651z"></path>
<path d="M9.137 16.651h13.726c0.36 0 0.651-0.292 0.651-0.651s-0.292-0.651-0.651-0.651h-13.726c-0.36 0-0.651 0.292-0.651 0.651s0.292 0.651 0.651 0.651z"></path>
<path d="M23.514 22.863c0-0.36-0.292-0.651-0.651-0.651h-13.726c-0.36 0-0.651 0.292-0.651 0.651s0.292 0.651 0.651 0.651h13.726c0.36 0 0.651-0.292 0.651-0.651z"></path>
</svg>
