<!-- Generated by IcoMoon.io -->
<svg version="1.1" xmlns="http://www.w3.org/2000/svg" width="32" height="32" viewBox="0 0 32 32">
<path d="M16 0c-8.822 0-16 7.178-16 16s7.178 16 16 16 16-7.178 16-16-7.178-16-16-16zM16 30.857c-8.193 0-14.857-6.665-14.857-14.857s6.665-14.857 14.857-14.857 14.857 6.665 14.857 14.857-6.665 14.857-14.857 14.857z"></path>
<path d="M22.857 9.143h-13.714c-0.316 0-0.571 0.256-0.571 0.571s0.255 0.571 0.571 0.571h13.714c0.316 0 0.571-0.256 0.571-0.571s-0.255-0.571-0.571-0.571z"></path>
<path d="M22.857 15.429h-13.714c-0.316 0-0.571 0.256-0.571 0.571s0.255 0.571 0.571 0.571h13.714c0.316 0 0.571-0.256 0.571-0.571s-0.255-0.571-0.571-0.571z"></path>
<path d="M22.857 21.714h-13.714c-0.316 0-0.571 0.256-0.571 0.571s0.255 0.571 0.571 0.571h13.714c0.316 0 0.571-0.256 0.571-0.571s-0.255-0.571-0.571-0.571z"></path>
</svg>
