<!-- Generated by IcoMoon.io -->
<svg version="1.1" xmlns="http://www.w3.org/2000/svg" width="32" height="32" viewBox="0 0 32 32">
<path d="M16 12c-2.206 0-4 1.794-4 4s1.794 4 4 4 4-1.794 4-4-1.794-4-4-4zM16 18.667c-1.47 0-2.667-1.196-2.667-2.667s1.197-2.667 2.667-2.667 2.667 1.196 2.667 2.667-1.197 2.667-2.667 2.667z"></path>
<path d="M16 24c-2.206 0-4 1.794-4 4s1.794 4 4 4 4-1.794 4-4c0-2.206-1.794-4-4-4zM16 30.667c-1.47 0-2.667-1.196-2.667-2.667s1.197-2.667 2.667-2.667 2.667 1.196 2.667 2.667-1.197 2.667-2.667 2.667z"></path>
<path d="M16 8c2.206 0 4-1.794 4-4s-1.794-4-4-4-4 1.794-4 4 1.794 4 4 4zM16 1.333c1.47 0 2.667 1.196 2.667 2.667s-1.197 2.667-2.667 2.667-2.667-1.196-2.667-2.667 1.197-2.667 2.667-2.667z"></path>
</svg>
