<!-- Generated by IcoMoon.io -->
<svg version="1.1" xmlns="http://www.w3.org/2000/svg" width="32" height="32" viewBox="0 0 32 32">
<path d="M28.903 1.548h-25.806c-1.703 0-3.097 1.394-3.097 3.097s1.394 3.097 3.097 3.097h25.806c1.703 0 3.097-1.394 3.097-3.097s-1.394-3.097-3.097-3.097z"></path>
<path d="M28.903 12.903h-25.806c-1.703 0-3.097 1.394-3.097 3.097s1.394 3.097 3.097 3.097h25.806c1.703 0 3.097-1.394 3.097-3.097s-1.394-3.097-3.097-3.097z"></path>
<path d="M28.903 24.258h-25.806c-1.703 0-3.097 1.394-3.097 3.097s1.394 3.097 3.097 3.097h25.806c1.703 0 3.097-1.394 3.097-3.097s-1.394-3.097-3.097-3.097z"></path>
</svg>
