<!-- Generated by IcoMoon.io -->
<svg version="1.1" xmlns="http://www.w3.org/2000/svg" width="32" height="32" viewBox="0 0 32 32">
<path d="M30.707 15.107h-29.415c-0.714 0-1.293 0.579-1.293 1.293s0.579 1.293 1.293 1.293h29.415c0.714 0 1.293-0.579 1.293-1.293s-0.579-1.293-1.293-1.293zM30.707 5.302h-29.415c-0.714 0-1.293 0.579-1.293 1.293s0.579 1.293 1.293 1.293h29.415c0.714 0 1.293-0.579 1.293-1.293s-0.579-1.293-1.293-1.293zM30.707 24.912h-29.415c-0.714 0-1.293 0.579-1.293 1.293s0.579 1.293 1.293 1.293h29.415c0.714 0 1.293-0.579 1.293-1.293s-0.579-1.293-1.293-1.293z"></path>
</svg>
