<!-- Generated by IcoMoon.io -->
<svg version="1.1" xmlns="http://www.w3.org/2000/svg" width="32" height="32" viewBox="0 0 32 32">
<path d="M31.977 13.216c-0.001-0.792-0.646-1.436-1.438-1.436-0.001 0-0.001 0-0.002 0l-29.101 0.040c-0.793 0.001-1.437 0.647-1.436 1.44l0.023 16.445c0.001 0.792 0.646 1.436 1.438 1.436 0.001 0 0.001 0 0.002 0l29.101-0.040c0.384-0 0.745-0.151 1.016-0.423s0.42-0.633 0.42-1.018l-0.023-16.445zM28.959 13.22l-12.957 9.008-12.983-8.972 25.941-0.036zM21.403 23.671l7.728 5.994-26.284 0.036 7.774-6.030c0.314-0.243 0.371-0.695 0.127-1.009s-0.695-0.371-1.009-0.128l-8.28 6.423-0.021-15.045 14.155 9.782c0.123 0.085 0.266 0.128 0.409 0.128s0.287-0.043 0.41-0.129l14.127-9.821 0.022 15.082-8.277-6.42c-0.314-0.243-0.765-0.186-1.009 0.128s-0.186 0.765 0.128 1.009zM19.407 4.298l-2.616-2.337c-0.451-0.403-1.131-0.403-1.582 0l-2.616 2.337c-0.296 0.265-0.322 0.719-0.057 1.015s0.719 0.322 1.015 0.057l1.73-1.545v5.542c0 0.397 0.322 0.719 0.719 0.719s0.719-0.322 0.719-0.719v-5.542l1.73 1.545c0.137 0.123 0.308 0.183 0.479 0.183 0.198 0 0.395-0.081 0.537-0.24 0.265-0.296 0.239-0.751-0.057-1.015z"></path>
</svg>
