<!-- Generated by IcoMoon.io -->
<svg version="1.1" xmlns="http://www.w3.org/2000/svg" width="32" height="32" viewBox="0 0 32 32">
<path d="M31.911 16.933l-3.652-9.871c-0.133-0.359-0.397-0.644-0.745-0.804s-0.736-0.175-1.095-0.042l-17.807 6.588c-0.359 0.133-0.644 0.397-0.804 0.745s-0.175 0.736-0.042 1.095l3.652 9.871c0.133 0.359 0.397 0.644 0.745 0.804 0.191 0.088 0.394 0.132 0.597 0.132 0.168 0 0.336-0.030 0.498-0.090l17.807-6.588c0.74-0.274 1.12-1.099 0.846-1.84zM25.441 8.105l-5.524 7.897-9.333-2.4 14.857-5.496zM12.503 23.321l-3.168-8.563 7.336 1.887-4.169 6.675zM14.054 23.54l4.072-6.521 1.915 0.493c0.059 0.015 0.12 0.023 0.178 0.023 0.23 0 0.451-0.112 0.587-0.306l1.133-1.621 7.336 2.301-15.221 5.631zM22.801 14.377l4.341-6.208 3.169 8.564-7.51-2.356zM8.34 24.711c-0.137-0.371-0.549-0.56-0.92-0.423l-2.698 0.998c-0.371 0.137-0.56 0.549-0.423 0.92 0.107 0.289 0.38 0.468 0.671 0.468 0.082 0 0.166-0.014 0.248-0.045l2.697-0.998c0.371-0.137 0.56-0.549 0.423-0.92zM4.689 18.065c-0.137-0.371-0.549-0.56-0.92-0.423l-1.665 0.616c-0.371 0.137-0.56 0.549-0.423 0.92 0.107 0.289 0.38 0.468 0.671 0.468 0.082 0 0.166-0.014 0.248-0.045l1.665-0.616c0.371-0.137 0.56-0.549 0.423-0.92zM2.625 23.488c-0.137-0.371-0.549-0.56-0.92-0.423l-1.237 0.458c-0.371 0.137-0.56 0.549-0.423 0.92 0.107 0.289 0.38 0.468 0.671 0.468 0.082 0 0.166-0.014 0.248-0.045l1.237-0.458c0.371-0.137 0.56-0.549 0.423-0.92z"></path>
</svg>
