<!-- Generated by IcoMoon.io -->
<svg version="1.1" xmlns="http://www.w3.org/2000/svg" width="32" height="32" viewBox="0 0 32 32">
<path d="M31.976 12.75c-0-0.048-0.011-0.121-0.029-0.163-0.049-0.178-0.159-0.341-0.322-0.455l-4.581-3.184v-3.413c0-0.452-0.367-0.819-0.82-0.819h-5.27l-4.484-3.117c-0.28-0.195-0.652-0.196-0.933-0.002l-4.513 3.119h-5.247c-0.453 0-0.819 0.367-0.819 0.819v3.373l-4.603 3.181c-0.226 0.156-0.349 0.407-0.353 0.662-0 0.005-0.001 0.009-0.001 0.014l0.024 17.765c0 0.217 0.087 0.426 0.241 0.579s0.362 0.239 0.579 0.239c0 0 0.001 0 0.001 0l30.337-0.042c0.453-0.001 0.819-0.368 0.818-0.821l-0.024-17.737zM27.043 10.944l2.619 1.82-2.619 1.82v-3.64zM16.001 3.268l2.082 1.447h-4.176l2.094-1.447zM6.596 6.354h18.808v9.37l-6.315 4.39-2.575-1.997c-0.004-0.003-0.007-0.005-0.011-0.008-0.288-0.216-0.695-0.224-0.993 0.008l-2.593 2.012-6.321-4.368v-9.406zM4.957 10.9v3.728l-2.697-1.864 2.697-1.864zM1.641 14.329l9.917 6.853-9.897 7.677-0.020-14.53zM3.242 29.707l12.77-9.905 12.724 9.87-25.495 0.035zM20.447 21.167l9.892-6.877 0.020 14.566-9.912-7.689zM21.548 9.632h-11.096c-0.453 0-0.819 0.367-0.819 0.819s0.367 0.819 0.819 0.819h11.096c0.453 0 0.82-0.367 0.82-0.819s-0.367-0.819-0.82-0.819zM21.548 13.893h-11.096c-0.453 0-0.819 0.367-0.819 0.819s0.367 0.819 0.819 0.819h11.096c0.453 0 0.82-0.367 0.82-0.819s-0.367-0.819-0.82-0.819z"></path>
</svg>
