<!-- Generated by IcoMoon.io -->
<svg version="1.1" xmlns="http://www.w3.org/2000/svg" width="32" height="32" viewBox="0 0 32 32">
<path d="M15.2 22.4c-3.088 0-5.6-2.512-5.6-5.6v-9.6c0-3.088 2.512-5.6 5.6-5.6s5.6 2.512 5.6 5.6v9.6c0 3.088-2.512 5.6-5.6 5.6zM15.2 3.2c-2.206 0-4 1.794-4 4v9.6c0 2.206 1.794 4 4 4s4-1.794 4-4v-9.6c0-2.206-1.794-4-4-4zM25.6 16.8c0-0.442-0.358-0.8-0.8-0.8s-0.8 0.358-0.8 0.8c0 4.852-3.948 8.8-8.8 8.8s-8.8-3.948-8.8-8.8c0-0.442-0.358-0.8-0.8-0.8s-0.8 0.358-0.8 0.8c0 5.465 4.238 9.96 9.6 10.37v3.23h-2.4c-0.442 0-0.8 0.358-0.8 0.8s0.358 0.8 0.8 0.8h6.4c0.442 0 0.8-0.358 0.8-0.8s-0.358-0.8-0.8-0.8h-2.4v-3.23c5.362-0.41 9.6-4.904 9.6-10.37z"></path>
</svg>
