<!-- Generated by IcoMoon.io -->
<svg version="1.1" xmlns="http://www.w3.org/2000/svg" width="32" height="32" viewBox="0 0 32 32">
<path d="M25.757 11.072c-0.415 0-0.751 0.336-0.751 0.751v4.694c0 4.966-4.040 9.006-9.006 9.006s-9.006-4.040-9.006-9.006v-4.694c0-0.415-0.336-0.751-0.751-0.751s-0.751 0.336-0.751 0.751v4.694c0 5.542 4.312 10.094 9.757 10.481v3.9h-3.886c-0.415 0-0.751 0.336-0.751 0.751s0.336 0.751 0.751 0.751h9.274c0.415 0 0.751-0.336 0.751-0.751s-0.336-0.751-0.751-0.751h-3.886v-3.9c5.445-0.387 9.757-4.939 9.757-10.481v-4.694c0-0.415-0.336-0.751-0.751-0.751zM16.501 0.4h-1.001c-3.434 0-6.228 2.794-6.228 6.228v10.389c0 3.434 2.794 6.228 6.228 6.228h1.001c3.434 0 6.228-2.794 6.228-6.228v-10.389c0-3.434-2.794-6.228-6.228-6.228zM21.227 8.578h-2.723c-0.415 0-0.751 0.336-0.751 0.751s0.336 0.751 0.751 0.751h2.723v2.091h-2.723c-0.415 0-0.751 0.336-0.751 0.751s0.336 0.751 0.751 0.751h2.723v2.091h-2.723c-0.415 0-0.751 0.336-0.751 0.751s0.336 0.751 0.751 0.751h2.716c-0.131 2.49-2.197 4.475-4.719 4.475h-1.001c-2.522 0-4.588-1.985-4.719-4.475h2.716c0.415 0 0.751-0.336 0.751-0.751s-0.336-0.751-0.751-0.751h-2.723v-2.091h2.723c0.415 0 0.751-0.336 0.751-0.751s-0.336-0.751-0.751-0.751h-2.723v-2.091h2.723c0.415 0 0.751-0.336 0.751-0.751s-0.336-0.751-0.751-0.751h-2.723v-1.95c0-1.873 1.095-3.495 2.678-4.259v2.124c0 0.415 0.336 0.751 0.751 0.751s0.751-0.336 0.751-0.751v-2.558c0.179-0.021 1.912-0.021 2.091 0v2.558c0 0.415 0.336 0.751 0.751 0.751s0.751-0.336 0.751-0.751v-2.124c1.583 0.764 2.678 2.386 2.678 4.259v1.95z"></path>
</svg>
