<!-- Generated by IcoMoon.io -->
<svg version="1.1" xmlns="http://www.w3.org/2000/svg" width="32" height="32" viewBox="0 0 32 32">
<path d="M6.88 25.815c-0.189-0.126-0.316-0.316-0.505-0.442 2.462-2.398 4.923-5.302 4.923-9.278s-2.462-6.88-4.923-9.278c0.189-0.126 0.316-0.316 0.505-0.442 2.083-1.957 3.913-3.724 3.913-5.617v-0.505h-1.010v0.505c0 0.316-0.063 0.694-0.252 1.010h-7.763c-0.126-0.316-0.252-0.694-0.252-1.010v-0.505h-1.010v0.505c0 1.957 1.83 3.661 3.913 5.68 0.189 0.126 0.316 0.316 0.505 0.442-2.462 2.398-4.923 5.302-4.923 9.278s2.462 6.88 4.923 9.278c-0.189 0.126-0.316 0.316-0.505 0.442-2.083 1.957-3.913 3.724-3.913 5.617v0.505h1.010v-0.505c0-0.316 0.063-0.694 0.252-1.010h7.763c0.126 0.316 0.252 0.694 0.252 1.010v0.505h1.010v-0.505c0-1.957-1.767-3.661-3.913-5.68zM2.398 2.714h6.501c-0.252 0.316-0.568 0.694-0.884 1.010h-4.734c-0.316-0.316-0.631-0.694-0.884-1.010zM4.355 4.734h2.714c-0.252 0.252-0.568 0.505-0.821 0.821-0.189 0.189-0.316 0.316-0.505 0.505-0.189-0.189-0.379-0.316-0.505-0.505-0.379-0.252-0.631-0.505-0.884-0.821zM5.68 7.511c0.631 0.631 1.262 1.262 1.83 1.894h-3.598c0.505-0.694 1.136-1.325 1.767-1.893zM1.83 12.497h4.86v-1.010h-4.292c0.189-0.379 0.442-0.757 0.694-1.073v0.063h5.112v-0.063c0.252 0.379 0.505 0.694 0.694 1.073h-1.199v1.010h1.767c0.126 0.316 0.252 0.694 0.379 1.010h-8.458c0.189-0.379 0.316-0.694 0.442-1.010zM1.199 14.517h8.963c0.063 0.316 0.126 0.694 0.126 1.010h-9.215c0.063-0.316 0.063-0.694 0.126-1.010zM1.452 18.619h1.641v-1.010h-1.893c-0.063-0.316-0.126-0.694-0.126-1.010h9.215c0 0.379-0.063 0.694-0.126 1.010h-5.996v1.010h5.744c-0.126 0.379-0.252 0.694-0.379 1.010h-7.637c-0.189-0.316-0.316-0.631-0.442-1.010zM3.093 21.775c-0.252-0.379-0.505-0.694-0.694-1.073h6.564c-0.189 0.379-0.442 0.757-0.694 1.073v-0.063l-5.176 0.063c0-0.063 0 0 0 0zM3.85 22.722h3.598c-0.568 0.694-1.199 1.325-1.83 1.893-0.568-0.568-1.199-1.199-1.767-1.893zM5.176 26.572c0.189-0.189 0.316-0.316 0.505-0.505 0.189 0.189 0.379 0.316 0.505 0.505 0.316 0.252 0.568 0.505 0.821 0.82h-2.714c0.316-0.316 0.568-0.568 0.884-0.82zM2.398 29.412c0.252-0.316 0.568-0.694 0.884-1.010h4.734c0.316 0.379 0.631 0.694 0.884 1.010h-6.501z"></path>
<path d="M29.286 27.897h-0.82c1.199-2.209 1.83-4.671 1.83-7.195 0-4.166-1.767-8.079-4.797-10.919l1.389-1.389-1.010-1.010 1.83-1.83 0.505 0.505 2.272-2.272-3.787-3.787-2.272 2.272 0.505 0.505-1.83 1.83-1.010-1.010-7.195 7.195-1.010-1.010-2.272 2.272 6.88 6.88 2.272-2.272-1.010-1.010 2.903-2.903c1.452 1.325 2.588 3.093 3.156 4.986-0.947 0.189-1.641 1.010-1.641 2.020 0 1.136 0.884 2.020 2.020 2.020-0.063 0.442-0.126 0.884-0.189 1.262-0.379-0.126-0.82-0.252-1.262-0.252h-7.7c-1.389 0-2.588 1.136-2.588 2.588v0.505h6.69c0 0.189-0.063 0.316-0.063 0.505v1.515h-7.195c-1.389 0-2.588 1.136-2.588 2.588v1.515h20.576v-1.515c0-1.452-1.136-2.588-2.588-2.588zM26.761 1.389l2.335 2.335-0.82 0.821-2.335-2.335 0.82-0.821zM25.751 3.471l1.325 1.325-1.83 1.83-1.325-1.325 1.83-1.83zM18.556 17.42l-5.428-5.428 0.82-0.82 5.428 5.428-0.82 0.82zM19.061 14.832l-3.408-3.408 6.438-6.438 3.408 3.408-6.438 6.438zM23.353 11.929l1.452-1.452c2.84 2.651 4.481 6.312 4.481 10.162 0 1.83-0.379 3.598-1.073 5.302-0.126-1.010-0.631-1.893-1.325-2.462 0.189-0.694 0.252-1.389 0.316-2.083 0.631-0.379 1.073-1.010 1.073-1.767 0-0.884-0.568-1.641-1.389-1.957-0.568-2.146-1.83-4.166-3.535-5.744zM25.183 19.629c0-0.568 0.442-1.010 1.010-1.010s1.010 0.442 1.010 1.010c0 0.568-0.442 1.010-1.010 1.010-0.505 0.063-1.010-0.442-1.010-1.010zM15.527 24.805c0.189-0.568 0.757-1.010 1.452-1.010h5.176c-0.316 0.316-0.568 0.631-0.757 1.010h-5.87zM30.864 30.99h-18.493v-0.505c0-0.82 0.694-1.515 1.515-1.515h9.215v-1.010h-1.010v-1.515c0-1.389 1.136-2.588 2.588-2.588s2.588 1.136 2.588 2.588v1.515h-3.093v1.010h5.112c0.82 0 1.515 0.694 1.515 1.515l0.063 0.505z"></path>
</svg>
