<!-- Generated by IcoMoon.io -->
<svg version="1.1" xmlns="http://www.w3.org/2000/svg" width="32" height="32" viewBox="0 0 32 32">
<path d="M13.11 17.338c0.093 0.093 0.215 0.14 0.337 0.14s0.244-0.047 0.337-0.14l8.688-8.688c0.186-0.186 0.186-0.489 0-0.675s-0.488-0.186-0.675 0l-8.688 8.688c-0.186 0.186-0.186 0.488 0 0.675z"></path>
<path d="M16.012 21.397c5.243 0 9.509-4.266 9.509-9.509s-4.266-9.509-9.509-9.509c-5.243 0-9.509 4.266-9.509 9.509s4.265 9.509 9.509 9.509zM16.012 3.334c1.083 0 2.118 0.203 3.072 0.571l-7.296 7.296c-0.186 0.186-0.186 0.488 0 0.675 0.093 0.093 0.215 0.14 0.337 0.14s0.244-0.046 0.337-0.14l7.548-7.547c2.707 1.438 4.556 4.287 4.556 7.56 0 4.717-3.837 8.554-8.554 8.554-2.189 0-4.189-0.827-5.703-2.185l7.792-7.792c0.186-0.186 0.186-0.488 0-0.675s-0.488-0.186-0.675 0l-7.791 7.792c-1.353-1.514-2.177-3.51-2.177-5.695 0-4.717 3.837-8.554 8.554-8.554z"></path>
<path d="M31.109 10.458h-1.908c-0.263 0-0.477 0.213-0.477 0.477v0.477h-0.834c-0.251-6.335-5.483-11.412-11.878-11.412-3.445 0-6.717 1.493-8.978 4.095-0.173 0.199-0.152 0.5 0.047 0.673s0.5 0.152 0.673-0.047c2.080-2.394 5.090-3.767 8.258-3.767 6.030 0 10.935 4.905 10.935 10.935s-4.905 10.935-10.935 10.935-10.935-4.905-10.935-10.935c0-2.069 0.581-4.083 1.679-5.825 0.141-0.223 0.074-0.517-0.149-0.658s-0.517-0.074-0.658 0.149c-1.11 1.76-1.733 3.775-1.816 5.857h-0.833v-0.477c0-0.263-0.214-0.477-0.477-0.477h-1.908c-0.263 0-0.477 0.213-0.477 0.477v0.954c0 4.16 1.62 8.071 4.562 11.013 2.552 2.552 5.834 4.109 9.375 4.476v1.912h-3.112c-1.232 0-2.234 1.002-2.234 2.233 0 0.263 0.213 0.477 0.477 0.477h13.012c0.263 0 0.477-0.214 0.477-0.477 0-1.231-1.002-2.233-2.234-2.233h-3.112v-1.912c3.541-0.368 6.823-1.924 9.375-4.476 2.942-2.942 4.561-6.853 4.561-11.013v-0.954c0-0.263-0.213-0.477-0.477-0.477zM21.949 31.046h-11.874c0.189-0.47 0.65-0.802 1.188-0.802h9.499c0.537 0 0.998 0.333 1.187 0.802zM16.695 29.29h-1.367v-1.842c0.227 0.010 0.455 0.016 0.684 0.016s0.456-0.006 0.683-0.016zM30.632 11.889c0 3.905-1.521 7.577-4.282 10.338s-6.433 4.282-10.338 4.282-7.577-1.521-10.338-4.282c-2.761-2.761-4.282-6.433-4.282-10.338v-0.477h0.954v0.477c0 7.536 6.131 13.666 13.666 13.666 0.696 0 1.395-0.053 2.078-0.158 0.261-0.040 0.439-0.283 0.399-0.544s-0.283-0.439-0.544-0.399c-0.636 0.097-1.286 0.147-1.934 0.147-6.85 0-12.451-5.446-12.703-12.235h0.824c0.251 6.335 5.483 11.412 11.878 11.412s11.627-5.076 11.878-11.412h0.825c-0.095 2.587-0.961 5.041-2.52 7.123-1.6 2.138-3.875 3.75-6.408 4.54-0.251 0.078-0.392 0.346-0.313 0.597s0.346 0.392 0.597 0.313c2.722-0.849 5.168-2.581 6.888-4.879 1.778-2.376 2.718-5.2 2.719-8.169 0-0.001 0-0.002 0-0.003s-0-0.002-0-0.002v-0.475h0.954z"></path>
</svg>
