<!-- Generated by IcoMoon.io -->
<svg version="1.1" xmlns="http://www.w3.org/2000/svg" width="32" height="32" viewBox="0 0 32 32">
<path d="M13.504 13.12c-0.32-0.192-0.704-0.064-0.832 0.256v0c-0.192 0.32-0.064 0.704 0.256 0.832 0.128 0.064 0.192 0.064 0.32 0.064 0.192 0 0.448-0.128 0.512-0.32v0c0.128-0.256 0.064-0.64-0.256-0.832z"></path>
<path d="M30.784 18.112l-4.8-8.384c0.576-0.384 0.96-1.024 0.96-1.792 0-0.384-0.064-0.704-0.256-1.024 2.24-0.512 3.904-2.496 3.904-4.864 0-0.32-0.256-0.64-0.64-0.64-0.32 0-0.64 0.256-0.64 0.64 0 1.92-1.472 3.584-3.392 3.776l0.96-1.344c0.576-0.832 0.64-1.856 0.064-2.688s-1.536-1.216-2.496-1.024l-1.152 0.256c-0.256 0.064-0.576 0-0.832-0.128l-0.96-0.576c-0.768-0.448-1.728-0.448-2.496 0l-0.96 0.576c-0.128 0.192-0.448 0.256-0.768 0.192l-1.152-0.256c-0.96-0.256-1.984 0.192-2.496 1.024-0.576 0.832-0.512 1.92 0.064 2.688l1.152 1.536c-0.704 0.32-1.152 1.088-1.152 1.92 0 0.768 0.384 1.408 0.96 1.792l-0.896 1.536c-0.192 0.32-0.064 0.704 0.256 0.832 0.32 0.192 0.704 0.064 0.832-0.256l1.024-1.856h8.832l4.928 8.64c2.176 3.776 0.896 8.64-2.88 10.88-1.152 0.768-2.56 1.152-4.032 1.152h-4.8c-1.472 0-2.88-0.384-4.096-1.152l-0.128 0.192v-0.768h1.28c0.32 0 0.64-0.256 0.64-0.64v-3.008c0-0.32-0.256-0.64-0.64-0.64h-1.28v-1.728h1.28c0.32 0 0.64-0.256 0.64-0.64v-3.008c0-0.32-0.256-0.64-0.64-0.64h-4.032l1.408-2.432c0.192-0.32 0.064-0.704-0.256-0.832-0.32-0.192-0.704-0.064-0.832 0.256l-1.408 2.432c-0.128 0.192-0.192 0.384-0.32 0.64h-7.040c-0.32 0-0.64 0.256-0.64 0.64v2.368h-1.216c-0.32 0-0.64 0.256-0.64 0.64v3.008c0 0.32 0.256 0.64 0.64 0.64h1.28v1.728h-1.28c-0.32 0-0.64 0.256-0.64 0.64v2.944c0 0.32 0.256 0.64 0.64 0.64h12.48c0.32 0 0.64-0.256 0.64-0.64v-0.384c1.28 0.64 2.752 1.024 4.224 1.024h4.8c1.664 0 3.328-0.448 4.736-1.28 2.112-1.28 3.584-3.264 4.224-5.632 0.576-2.368 0.256-4.8-0.96-6.976zM15.296 8.704c-0.192-0.128-0.384-0.448-0.384-0.704 0-0.512 0.384-0.896 0.896-0.896h0.192c0 0 0 0 0 0s0 0 0 0h0.896l-1.6 1.6zM18.688 8.832h-1.792l1.664-1.664c0 0 0.064-0.064 0.064-0.064h1.856l-1.792 1.728zM22.208 8.832h-1.728l1.664-1.664c0 0 0.064-0.064 0.064-0.064h1.728l-1.728 1.728zM24.832 8.832h-0.832l1.472-1.472c0.128 0.128 0.256 0.384 0.256 0.576 0 0.512-0.384 0.896-0.896 0.896zM24.384 5.888h-8.064l-1.6-2.112c-0.32-0.448-0.256-0.96-0.064-1.28s0.64-0.576 1.216-0.448l1.152 0.256c0.64 0.128 1.216 0.064 1.792-0.256l0.96-0.576c0.384-0.192 0.832-0.192 1.152 0l0.96 0.576c0.512 0.256 1.152 0.384 1.792 0.256l1.152-0.256c0.576-0.128 0.96 0.128 1.216 0.448 0.192 0.32 0.32 0.832-0.064 1.28l-1.6 2.112zM3.136 20.032v0h6.848c0 0 0 0 0 0s0 0 0 0h4.352v1.728h-1.856v-0.576c0-0.32-0.256-0.64-0.64-0.64-0.32 0-0.64 0.256-0.64 0.64v0.576h-1.856v-0.576c0-0.32-0.256-0.64-0.64-0.64s-0.64 0.256-0.64 0.64v0.576h-1.792v-0.576c0-0.32-0.256-0.64-0.64-0.64-0.32 0-0.64 0.256-0.64 0.64v0.576h-1.856v-1.728zM1.28 24.768v-1.728h11.264v1.728h-1.856v-0.448c0-0.32-0.256-0.64-0.64-0.64s-0.64 0.256-0.64 0.64v0.384h-1.856v-0.384c0-0.32-0.256-0.64-0.64-0.64s-0.64 0.256-0.64 0.64v0.384h-1.92v-0.384c0-0.32-0.256-0.64-0.64-0.64s-0.64 0.256-0.64 0.64v0.384h-1.792zM12.48 30.72h-1.856v-0.576c0-0.32-0.256-0.64-0.64-0.64s-0.64 0.256-0.64 0.64v0.576h-1.856v-0.576c0-0.32-0.256-0.64-0.64-0.64s-0.64 0.256-0.64 0.64v0.576h-1.856v-0.576c0-0.32-0.256-0.64-0.64-0.64s-0.64 0.256-0.64 0.64v0.576h-1.792v-1.728h11.264v1.728zM12.48 27.776v-0.448c0-0.32-0.256-0.64-0.64-0.64s-0.64 0.256-0.64 0.64v0.448h-1.856v-0.448c0-0.32-0.256-0.64-0.64-0.64s-0.64 0.256-0.64 0.64v0.448h-1.792v-0.448c0-0.32-0.256-0.64-0.64-0.64-0.32 0-0.64 0.256-0.64 0.64v0.448h-1.856v-1.728h11.264v1.728h-1.92z"></path>
<path d="M20.352 21.12c-0.576 0-1.024-0.384-1.024-0.896s0.448-0.896 1.024-0.896c0.576 0 1.024 0.384 1.024 0.896 0 0.32 0.256 0.64 0.64 0.64 0.32 0 0.64-0.256 0.64-0.64 0-0.96-0.704-1.792-1.664-2.048v-0.064c0-0.32-0.256-0.64-0.64-0.64-0.32 0-0.64 0.256-0.64 0.64v0.064c-0.96 0.256-1.664 1.088-1.664 2.048 0 1.152 1.024 2.176 2.304 2.176 0.576 0 1.024 0.384 1.024 0.896 0 0.448-0.448 0.832-0.96 0.896 0 0-0.064 0-0.064 0s-0.064 0-0.064 0c-0.512-0.064-0.96-0.448-0.96-0.896 0-0.32-0.256-0.64-0.64-0.64-0.32 0-0.64 0.256-0.64 0.64 0 0.96 0.704 1.792 1.664 2.048v0.128c0 0.32 0.256 0.64 0.64 0.64 0.32 0 0.64-0.256 0.64-0.64v-0.128c0.96-0.256 1.664-1.088 1.664-2.048 0-1.216-1.024-2.176-2.304-2.176z"></path>
<path d="M25.024 17.024c-2.496-2.496-6.528-2.624-9.152-0.256-0.256 0.256-0.256 0.64-0.064 0.896 0.256 0.256 0.64 0.256 0.896 0.064 2.112-1.92 5.376-1.856 7.424 0.192 2.112 2.112 2.112 5.504 0 7.616-1.152 1.152-2.688 1.728-4.288 1.536-0.32 0-0.64 0.192-0.704 0.576 0 0.32 0.192 0.64 0.576 0.704 0.192 0 0.384 0 0.576 0 1.728 0 3.456-0.704 4.672-1.92 2.624-2.624 2.624-6.784 0.064-9.408z"></path>
<path d="M17.984 26.56c0 0 0 0 0 0-0.32-0.128-0.704 0-0.832 0.32s0 0.704 0.32 0.832v0c0.064 0.064 0.192 0.064 0.256 0.064 0.256 0 0.448-0.128 0.576-0.384s0-0.64-0.32-0.832z"></path>
</svg>
