<!-- Generated by IcoMoon.io -->
<svg version="1.1" xmlns="http://www.w3.org/2000/svg" width="32" height="32" viewBox="0 0 32 32">
<path d="M9.008 0l-9.008 9.008 3.78 3.78 0.378-0.378c1.764-1.764 1.89-4.535 0.315-6.425l1.512-1.512c0.63 0.504 1.323 0.819 2.079 1.008l0.189-1.008c-0.567-0.126-1.134-0.378-1.575-0.693l2.331-2.331 1.638 1.638 0.693-0.693-2.331-2.394zM3.717 11.276l-2.331-2.331 2.331-2.331c1.071 1.386 1.071 3.339 0 4.661z"></path>
<path d="M16.949 9.432l0.896-0.299 0.299 0.896-0.896 0.299-0.299-0.896z"></path>
<path d="M20.85 0.126l-12.031 4.032 2.709 8.063 0.945-0.315-1.008-3.087c2.079-0.945 3.213-3.213 2.709-5.417l2.016-0.693c0.819 1.764 2.52 2.835 4.409 2.835 0.315 0 0.693-0.063 1.008-0.126l2.268 6.803 0.945-0.315-3.968-11.78zM11.15 7.874l-1.071-3.087 3.15-1.008c0.315 1.638-0.567 3.402-2.079 4.095zM17.134 2.457l3.087-1.008 1.008 3.087c-1.638 0.315-3.339-0.567-4.095-2.079z"></path>
<path d="M18.142 10.772c-0.63 0.189-1.134 0.567-1.575 0.945l0.693 0.693c0.315-0.315 0.756-0.567 1.197-0.756 1.071-0.378 2.268-0.063 2.772 0.63l0.819-0.567c-0.693-1.008-2.331-1.449-3.905-0.945z"></path>
<path d="M20.157 15.622h1.008v1.008h-1.008v-1.008z"></path>
<path d="M12.095 15.622h1.008v1.008h-1.008v-1.008z"></path>
<path d="M10.079 15.622h1.008v1.008h-1.008v-1.008z"></path>
<path d="M6.047 15.622h1.008v1.008h-1.008v-1.008z"></path>
<path d="M18.142 15.622h1.008v1.008h-1.008v-1.008z"></path>
<path d="M8.063 15.622h1.008v1.008h-1.008v-1.008z"></path>
<path d="M16.126 15.622h1.008v1.008h-1.008v-1.008z"></path>
<path d="M26.142 15.622h1.008v1.008h-1.008v-1.008z"></path>
<path d="M22.173 15.622h1.008v1.008h-1.008v-1.008z"></path>
<path d="M24.126 15.622h1.008v1.008h-1.008v-1.008z"></path>
<path d="M14.11 15.622h1.008v1.008h-1.008v-1.008z"></path>
<path d="M6.047 28.976h1.008v1.008h-1.008v-1.008z"></path>
<path d="M26.142 28.976h1.008v1.008h-1.008v-1.008z"></path>
<path d="M24.126 28.976h1.008v1.008h-1.008v-1.008z"></path>
<path d="M22.173 28.976h1.008v1.008h-1.008v-1.008z"></path>
<path d="M18.142 28.976h1.008v1.008h-1.008v-1.008z"></path>
<path d="M20.157 28.976h1.008v1.008h-1.008v-1.008z"></path>
<path d="M8.063 28.976h1.008v1.008h-1.008v-1.008z"></path>
<path d="M16.126 28.976h1.008v1.008h-1.008v-1.008z"></path>
<path d="M12.095 28.976h1.008v1.008h-1.008v-1.008z"></path>
<path d="M10.079 28.976h1.008v1.008h-1.008v-1.008z"></path>
<path d="M14.11 28.976h1.008v1.008h-1.008v-1.008z"></path>
<path d="M28.661 18.961v-5.354h-25.134v18.394h25.134v-5.039h2.016v-8h-2.016zM27.654 30.992h-23.118v-1.008h0.504v-1.008h-0.504v-12.346h0.504v-1.008h-0.504v-1.008h23.118v4.346h-5.354c-2.205 0-4.032 1.827-4.032 4.032s1.827 4.032 4.032 4.032h5.354v3.968zM29.669 26.016h-7.37c-1.638 0-3.024-1.323-3.024-3.024s1.323-3.024 3.024-3.024h7.37v6.047z"></path>
<path d="M27.843 0.189c-2.331 0-4.157 1.89-4.157 4.157s1.89 4.157 4.157 4.157c2.331 0 4.157-1.89 4.157-4.157s-1.827-4.157-4.157-4.157zM27.843 7.559c-1.764 0-3.213-1.449-3.213-3.213s1.449-3.213 3.213-3.213c1.764 0 3.213 1.449 3.213 3.213-0.063 1.827-1.449 3.213-3.213 3.213z"></path>
<path d="M29.165 4.661c0-0.063-0.063-0.126-0.126-0.189 0-0.063-0.063-0.126-0.126-0.189s-0.126-0.063-0.189-0.126c-0.063-0.063-0.126-0.063-0.252-0.063-0.063 0-0.126-0.063-0.252-0.063l0.126-0.882c0.063 0 0.126 0 0.126 0.063 0.063 0 0.063 0.063 0.126 0.063s0.063 0 0.126 0.063c0.063 0 0.063 0 0.063 0 0.063 0 0.063 0 0.126 0 0 0 0.063-0.063 0.063-0.063l0.189-0.252c-0.063-0.063-0.189-0.189-0.315-0.252s-0.252-0.126-0.441-0.126l0.063-0.504h-0.252c-0.063 0-0.126 0-0.126 0.063-0.063 0.063-0.063 0.063-0.063 0.126v0.252c-0.189 0-0.378 0-0.504 0.063s-0.252 0.126-0.378 0.252c-0.126 0.126-0.189 0.189-0.252 0.315s-0.063 0.252-0.063 0.378c0 0.189 0 0.315 0.063 0.441s0.126 0.189 0.252 0.252c0.063 0.063 0.189 0.126 0.315 0.189s0.252 0.063 0.315 0.126l-0.063 0.882c-0.063 0-0.126-0.063-0.189-0.063s-0.126-0.063-0.126-0.063c-0.063 0-0.063-0.063-0.126-0.063s-0.063 0-0.126 0-0.063 0-0.126 0-0.063 0.063-0.063 0.063l-0.315 0.315c0.126 0.126 0.252 0.189 0.441 0.252s0.315 0.126 0.504 0.189l-0.063 0.504h0.252c0.063 0 0.126 0 0.126-0.063 0.063-0.063 0.063-0.063 0.063-0.126v-0.315c0.189 0 0.378-0.063 0.504-0.126s0.252-0.126 0.378-0.252c0.126-0.126 0.189-0.252 0.252-0.378s0.063-0.252 0.063-0.441c0.063-0.063 0.063-0.189 0-0.252zM27.843 3.843c-0.126 0-0.189-0.063-0.252-0.126s-0.063-0.126-0.063-0.252c0-0.063 0-0.063 0-0.126s0.063-0.063 0.063-0.126c0 0 0.063-0.063 0.126-0.063s0.126 0 0.189 0l-0.063 0.693zM28.095 5.48l0.063-0.819c0.126 0.063 0.189 0.063 0.252 0.126s0.063 0.126 0.063 0.189c0.063 0.315-0.063 0.441-0.378 0.504z"></path>
<path d="M22.173 20.976c-1.008 0-1.827 0.819-1.827 1.827s0.819 1.827 1.827 1.827c1.008 0 1.827-0.819 1.827-1.827s-0.819-1.827-1.827-1.827zM22.173 23.622c-0.441 0-0.819-0.378-0.819-0.819s0.378-0.819 0.819-0.819c0.441 0 0.819 0.378 0.819 0.819s-0.378 0.819-0.819 0.819z"></path>
</svg>
