<!-- Generated by IcoMoon.io -->
<svg version="1.1" xmlns="http://www.w3.org/2000/svg" width="32" height="32" viewBox="0 0 32 32">
<path d="M8.96 0l-8.96 8.96 3.776 3.776 0.384-0.384c1.728-1.728 1.856-4.544 0.32-6.4l1.472-1.472c0.64 0.512 1.344 0.832 2.112 0.96l0.192-0.96c-0.576-0.128-1.088-0.384-1.6-0.704l2.304-2.368 1.664 1.664 0.704-0.704-2.368-2.368zM3.712 11.264l-2.304-2.304 2.304-2.304c1.088 1.344 1.088 3.264 0 4.608zM16.974 9.442l0.85-0.284 0.284 0.85-0.85 0.284-0.284-0.85zM20.864 0.128l-12.032 4.032 2.688 8.064 0.96-0.32-1.024-3.072c2.048-0.96 3.2-3.2 2.688-5.44l1.984-0.704c0.768 1.728 2.496 2.816 4.352 2.816 0.32 0 0.704-0.064 1.024-0.128l2.24 6.784 0.96-0.32-3.84-11.712zM11.136 7.872l-1.024-3.072 3.072-1.024c0.32 1.664-0.512 3.392-2.048 4.096zM17.152 2.432l3.072-1.024 1.024 3.072c-1.664 0.384-3.392-0.512-4.096-2.048zM18.176 10.752c-0.576 0.192-1.152 0.512-1.6 0.96l0.704 0.704c0.32-0.32 0.704-0.576 1.216-0.704 1.088-0.384 2.24-0.064 2.752 0.64l0.832-0.576c-0.768-1.088-2.368-1.536-3.904-1.024zM20.096 15.616h1.024v1.024h-1.024v-1.024zM12.096 15.616h1.024v1.024h-1.024v-1.024zM10.112 15.616h1.024v1.024h-1.024v-1.024zM6.080 15.616h1.024v1.024h-1.024v-1.024zM18.112 15.616h1.024v1.024h-1.024v-1.024zM8.064 15.616h1.024v1.024h-1.024v-1.024zM16.128 15.616h1.024v1.024h-1.024v-1.024zM26.112 15.616h1.024v1.024h-1.024v-1.024zM22.144 15.616h1.024v1.024h-1.024v-1.024zM24.128 15.616h1.024v1.024h-1.024v-1.024zM14.080 15.616h1.024v1.024h-1.024v-1.024zM6.080 28.992h1.024v1.024h-1.024v-1.024zM26.112 28.992h1.024v1.024h-1.024v-1.024zM24.128 28.992h1.024v1.024h-1.024v-1.024zM22.144 28.992h1.024v1.024h-1.024v-1.024zM18.112 28.992h1.024v1.024h-1.024v-1.024zM20.096 28.992h1.024v1.024h-1.024v-1.024zM8.064 28.992h1.024v1.024h-1.024v-1.024zM16.128 28.992h1.024v1.024h-1.024v-1.024zM12.096 28.992h1.024v1.024h-1.024v-1.024zM10.112 28.992h1.024v1.024h-1.024v-1.024zM14.080 28.992h1.024v1.024h-1.024v-1.024zM28.672 18.944v-5.376h-25.088v18.432h25.088v-4.992h1.984v-8.064h-1.984zM27.648 30.976h-23.104v-1.024h0.512v-1.024h-0.512v-12.352h0.512v-1.024h-0.512v-1.024h23.104v4.352h-5.376c-2.24 0-4.032 1.792-4.032 4.032s1.792 4.032 4.032 4.032h5.376v4.032zM29.632 25.984h-7.36c-1.664 0-3.008-1.344-3.008-3.008s1.344-3.008 3.008-3.008h7.36v6.016zM27.84 0.192c-2.304 0-4.16 1.856-4.16 4.16s1.856 4.16 4.16 4.16 4.16-1.792 4.16-4.096-1.856-4.224-4.16-4.224zM27.84 7.552c-1.728 0-3.2-1.408-3.2-3.2 0-1.728 1.408-3.2 3.2-3.2 1.728 0 3.2 1.408 3.2 3.2-0.064 1.792-1.472 3.2-3.2 3.2zM29.184 4.672c0-0.064-0.064-0.128-0.128-0.192s-0.128-0.128-0.192-0.128c-0.064-0.064-0.128-0.064-0.192-0.128s-0.128-0.064-0.192-0.064c-0.064 0-0.128-0.064-0.256-0.064l0.064-0.832c0.064 0 0.128 0 0.128 0.064 0.064 0 0.064 0.064 0.128 0.064s0.064 0 0.128 0.064 0.064 0 0.064 0c0.064 0 0.064 0 0.128 0 0 0 0.064-0.064 0.064-0.064l0.192-0.256c-0.064-0.064-0.192-0.128-0.32-0.256-0.064-0.256-0.256-0.32-0.384-0.32l0.064-0.448h-0.32c-0.064 0-0.128 0-0.128 0.064-0.064 0.064-0.064 0.064-0.064 0.128v0.256c-0.192 0-0.32 0-0.512 0.064-0.128 0.064-0.256 0.128-0.384 0.256-0.064 0.064-0.192 0.192-0.192 0.32-0.064 0.128-0.064 0.256-0.064 0.384 0 0.192 0 0.32 0.064 0.448s0.128 0.192 0.192 0.256c0.064 0.064 0.192 0.128 0.32 0.192 0.128 0 0.256 0.064 0.32 0.064l-0.064 0.896c-0.064 0-0.128-0.064-0.192-0.064s-0.128-0.064-0.128-0.064c-0.064 0-0.064-0.064-0.128-0.064s-0.064 0-0.128 0-0.064 0-0.128 0-0.064 0-0.064 0.064l-0.256 0.32c0.128 0.128 0.256 0.192 0.448 0.256s0.32 0.128 0.512 0.192l-0.064 0.512h0.256c0.064 0 0.128 0 0.128-0.064 0.064-0.064 0.064-0.064 0.064-0.128v-0.32c0.192 0 0.32-0.064 0.512-0.128 0.128-0.064 0.256-0.128 0.384-0.256s0.192-0.192 0.256-0.384c0.064-0.128 0.064-0.256 0.064-0.448 0 0 0-0.128 0-0.192zM27.776 3.84c-0.128-0.064-0.192-0.064-0.256-0.128s-0.064-0.128-0.064-0.256c0-0.064 0-0.064 0-0.128s0.064-0.064 0.064-0.128 0.128 0 0.192 0c0.064 0 0.128-0.064 0.192-0.064l-0.128 0.704zM28.096 5.504l0.064-0.832c0.128 0.064 0.192 0.064 0.256 0.128s0.064 0.128 0.064 0.192c0 0.32-0.128 0.448-0.384 0.512zM22.144 20.928c-1.024 0-1.856 0.832-1.856 1.856s0.832 1.856 1.856 1.856c1.024 0 1.856-0.832 1.856-1.856s-0.832-1.856-1.856-1.856zM22.144 23.616c-0.448 0-0.832-0.384-0.832-0.832s0.384-0.832 0.832-0.832c0.448 0 0.832 0.384 0.832 0.832s-0.384 0.832-0.832 0.832z"></path>
</svg>
