<!-- Generated by IcoMoon.io -->
<svg version="1.1" xmlns="http://www.w3.org/2000/svg" width="32" height="32" viewBox="0 0 32 32">
<path d="M31.312 7.316h-30.624c-0.38 0-0.688 0.308-0.688 0.688v16.793c0 0.38 0.308 0.688 0.688 0.688h30.624c0.38 0 0.688-0.308 0.688-0.688v-16.793c0-0.38-0.308-0.688-0.688-0.688zM1.376 8.691h3.492c-0.293 1.786-1.706 3.199-3.492 3.492v-3.492zM1.376 24.109v-3.492c1.786 0.293 3.199 1.706 3.492 3.492h-3.492zM30.624 24.109h-3.492c0.293-1.786 1.706-3.199 3.492-3.492v3.492zM30.624 19.228c-2.545 0.313-4.568 2.335-4.881 4.881h-19.487c-0.313-2.546-2.335-4.568-4.881-4.881v-5.656c2.545-0.313 4.568-2.335 4.881-4.881h19.487c0.313 2.545 2.335 4.568 4.881 4.881v5.656zM30.624 12.183c-1.786-0.293-3.199-1.706-3.492-3.492h3.492v3.492zM24.826 13.438c-0.759 0-1.376-0.617-1.376-1.376 0-0.342-0.277-0.619-0.619-0.619h-13.662c-0.342 0-0.619 0.277-0.619 0.619 0 0.759-0.617 1.376-1.376 1.376-0.342 0-0.619 0.277-0.619 0.619v4.687c0 0.342 0.277 0.619 0.619 0.619 0.759 0 1.376 0.617 1.376 1.376 0 0.342 0.277 0.619 0.619 0.619h13.662c0.342 0 0.619-0.277 0.619-0.619 0-0.759 0.617-1.376 1.376-1.376 0.342 0 0.619-0.277 0.619-0.619v-4.687c0-0.342-0.277-0.619-0.619-0.619zM24.206 18.198c-0.945 0.23-1.69 0.976-1.921 1.921h-12.572c-0.23-0.945-0.976-1.69-1.921-1.921v-3.597c0.945-0.23 1.69-0.976 1.921-1.921h12.572c0.23 0.945 0.976 1.69 1.921 1.921v3.597zM13.656 13.556h-0.929c-0.342 0-0.619 0.277-0.619 0.619s0.277 0.619 0.619 0.619h0.31v3.83c0 0.342 0.277 0.619 0.619 0.619s0.619-0.277 0.619-0.619v-4.449c-0-0.342-0.277-0.619-0.619-0.619zM19.238 13.556h-2.847c-0.342 0-0.619 0.277-0.619 0.619v4.449c0 0.342 0.277 0.619 0.619 0.619h2.847c0.342 0 0.619-0.277 0.619-0.619v-4.449c0-0.342-0.277-0.619-0.619-0.619zM18.619 18.005h-1.608v-3.211h1.608v3.211z"></path>
</svg>
