<!-- Generated by IcoMoon.io -->
<svg version="1.1" xmlns="http://www.w3.org/2000/svg" width="32" height="32" viewBox="0 0 32 32">
<path d="M12.23 24.776c-0.507 0-0.95-0.444-0.95-0.951s-0.444-0.951-0.95-0.951-0.95 0.444-0.95 0.951c0 1.204 0.76 2.281 1.901 2.661v0.824c0 0.507 0.444 0.951 0.95 0.951s0.95-0.444 0.95-0.951v-0.824c1.077-0.38 1.838-1.457 1.838-2.661 0-1.521-1.267-2.788-2.788-2.788-0.507 0-0.95-0.444-0.95-0.951s0.444-0.951 0.95-0.951 0.95 0.444 0.95 0.951c0 0.507 0.444 0.951 0.95 0.951s0.95-0.444 0.95-0.951c0-1.204-0.76-2.281-1.838-2.661v-1.394c0-0.507-0.444-0.95-0.95-0.95s-0.95 0.444-0.95 0.95v1.394c-1.077 0.38-1.901 1.457-1.901 2.661 0 1.521 1.267 2.788 2.788 2.788 0.507 0 0.95 0.444 0.95 0.951s-0.444 0.951-0.95 0.951z"></path>
<path d="M3.802 30.479c1.964 1.014 4.626 1.521 8.428 1.521 3.105 0 5.45-0.317 7.224-1.014 0.507 0.634 1.267 1.014 2.154 1.014h7.541c1.521 0 2.788-1.267 2.788-2.788 0-0.697-0.253-1.394-0.697-1.901 0.444-0.507 0.697-1.141 0.697-1.901s-0.253-1.394-0.697-1.901c0.444-0.507 0.697-1.141 0.697-1.901s-0.253-1.394-0.697-1.901c0.444-0.507 0.697-1.141 0.697-1.901 0-1.521-1.267-2.788-2.788-2.788h-7.541c-0.063 0-0.19 0-0.253 0-0.951-1.141-2.028-2.091-3.232-2.851 0.444-0.507 0.697-1.141 0.697-1.901 0-1.141-0.634-2.091-1.584-2.535l1.584-4.816c0.063-0.317 0.063-0.57-0.127-0.824-0.253-0.063-0.507-0.19-0.824-0.19h-2.978c-0.38-1.077-1.457-1.901-2.661-1.901s-2.281 0.76-2.661 1.901h-2.978c-0.253 0-0.57 0.127-0.697 0.38-0.19 0.253-0.253 0.507-0.19 0.824l1.584 4.816c-0.95 0.444-1.584 1.394-1.584 2.535 0 0.697 0.253 1.394 0.697 1.901-3.739 2.218-6.4 6.527-6.4 11.216 0 3.232 1.267 5.513 3.802 6.907zM30.099 21.671c0 0.507-0.444 0.951-0.951 0.951h-7.541c-0.507 0-0.951-0.444-0.951-0.951s0.444-0.951 0.951-0.951h7.541c0.57 0 0.951 0.444 0.951 0.951zM30.099 25.41c0 0.507-0.444 0.951-0.951 0.951h-7.541c-0.507 0-0.951-0.444-0.951-0.951s0.444-0.951 0.951-0.951h7.541c0.57 0.063 0.951 0.444 0.951 0.951zM29.212 30.099h-7.604c-0.507 0-0.951-0.444-0.951-0.951s0.444-0.951 0.951-0.951h7.541c0.507 0 0.951 0.444 0.951 0.951s-0.38 0.951-0.887 0.951zM30.099 17.933c0 0.507-0.444 0.951-0.951 0.951h-7.541c-0.507 0-0.951-0.444-0.951-0.951s0.444-0.951 0.951-0.951h7.541c0.57 0 0.951 0.444 0.951 0.951zM15.968 11.406h-7.414c0 0 0 0 0 0v0c-0.507 0-0.95-0.444-0.95-0.95s0.444-0.95 0.95-0.95v0c0 0 0 0 0 0h7.477c0 0 0 0 0 0v0c0.507 0 0.951 0.444 0.951 0.95-0.063 0.507-0.444 0.95-1.014 0.95v0c0 0 0 0 0 0zM10.392 3.739c0.507 0 0.95-0.444 0.95-0.95s0.444-0.95 0.95-0.95 0.95 0.444 0.95 0.95v1.901c0 0.507 0.444 0.95 0.95 0.95s0.95-0.444 0.95-0.95v-0.95h1.521l-1.267 3.865h-6.147l-1.267-3.865h2.408zM8.681 13.244h7.16c1.394 0.57 2.725 1.521 3.802 2.725-0.507 0.507-0.824 1.204-0.824 1.964 0 0.697 0.253 1.394 0.697 1.901-0.444 0.507-0.697 1.141-0.697 1.901s0.253 1.394 0.697 1.901c-0.444 0.507-0.697 1.141-0.697 1.901s0.253 1.394 0.697 1.901c-0.444 0.507-0.697 1.141-0.697 1.901 0 0 0 0.063 0 0.063-1.584 0.57-3.675 0.887-6.59 0.887-3.485 0-5.893-0.444-7.541-1.331-1.901-1.014-2.852-2.725-2.852-5.259 0.063-4.562 2.852-8.745 6.844-10.455z"></path>
</svg>
