<!-- Generated by IcoMoon.io -->
<svg version="1.1" xmlns="http://www.w3.org/2000/svg" width="32" height="32" viewBox="0 0 32 32">
<path d="M8.484 6.428v-1.741c0.369 0.121 0.601 0.365 0.601 0.59 0 0.277 0.224 0.501 0.501 0.501s0.501-0.224 0.501-0.501c0-0.799-0.673-1.45-1.603-1.624v-0.080c0-0.277-0.224-0.501-0.501-0.501s-0.501 0.224-0.501 0.501v0.080c-0.93 0.174-1.603 0.825-1.603 1.624 0 1.116 0.892 1.586 1.603 1.856v1.741c-0.369-0.121-0.601-0.365-0.601-0.59 0-0.277-0.224-0.501-0.501-0.501s-0.501 0.224-0.501 0.501c0 0.799 0.673 1.45 1.603 1.624v0.080c0 0.277 0.224 0.501 0.501 0.501s0.501-0.224 0.501-0.501v-0.080c0.93-0.174 1.603-0.825 1.603-1.624 0-1.116-0.892-1.586-1.603-1.856zM7.482 6.039c-0.5-0.245-0.601-0.459-0.601-0.762 0-0.226 0.232-0.469 0.601-0.59v1.353zM8.484 8.874v-1.353c0.499 0.245 0.601 0.459 0.601 0.762 0 0.226-0.232 0.469-0.601 0.59zM16 4.141h-4.276c-0.277 0-0.501 0.224-0.501 0.501s0.224 0.501 0.501 0.501h4.276c0.277 0 0.501-0.224 0.501-0.501s-0.224-0.501-0.501-0.501zM12.259 8.417h-0.534c-0.277 0-0.501 0.224-0.501 0.501s0.224 0.501 0.501 0.501h0.534c0.277 0 0.501-0.224 0.501-0.501s-0.224-0.501-0.501-0.501zM21.345 12.158h-14.965c-0.277 0-0.501 0.224-0.501 0.501s0.224 0.501 0.501 0.501h14.965c0.277 0 0.501-0.224 0.501-0.501s-0.224-0.501-0.501-0.501zM11.19 15.364h-1.603c-0.277 0-0.501 0.224-0.501 0.501s0.224 0.501 0.501 0.501h1.603c0.277 0 0.501-0.224 0.501-0.501s-0.224-0.501-0.501-0.501zM7.449 15.364h-1.069c-0.277 0-0.501 0.224-0.501 0.501s0.224 0.501 0.501 0.501h1.069c0.277 0 0.501-0.224 0.501-0.501s-0.224-0.501-0.501-0.501zM11.19 17.502h-1.603c-0.277 0-0.501 0.224-0.501 0.501s0.224 0.501 0.501 0.501h1.603c0.277 0 0.501-0.224 0.501-0.501s-0.224-0.501-0.501-0.501zM7.449 17.502h-1.069c-0.277 0-0.501 0.224-0.501 0.501s0.224 0.501 0.501 0.501h1.069c0.277 0 0.501-0.224 0.501-0.501s-0.224-0.501-0.501-0.501zM11.19 19.64h-1.603c-0.277 0-0.501 0.224-0.501 0.501s0.224 0.501 0.501 0.501h1.603c0.277 0 0.501-0.224 0.501-0.501s-0.224-0.501-0.501-0.501zM7.449 19.64h-1.069c-0.277 0-0.501 0.224-0.501 0.501s0.224 0.501 0.501 0.501h1.069c0.277 0 0.501-0.224 0.501-0.501s-0.224-0.501-0.501-0.501zM11.19 21.778h-1.603c-0.277 0-0.501 0.224-0.501 0.501s0.224 0.501 0.501 0.501h1.603c0.277 0 0.501-0.224 0.501-0.501s-0.224-0.501-0.501-0.501zM7.449 21.778h-1.069c-0.277 0-0.501 0.224-0.501 0.501s0.224 0.501 0.501 0.501h1.069c0.277 0 0.501-0.224 0.501-0.501s-0.224-0.501-0.501-0.501zM11.19 23.916h-1.603c-0.277 0-0.501 0.224-0.501 0.501s0.224 0.501 0.501 0.501h1.603c0.277 0 0.501-0.224 0.501-0.501s-0.224-0.501-0.501-0.501zM7.449 23.916h-1.069c-0.277 0-0.501 0.224-0.501 0.501s0.224 0.501 0.501 0.501h1.069c0.277 0 0.501-0.224 0.501-0.501s-0.224-0.501-0.501-0.501zM17.603 8.417h-0.534c-0.277 0-0.501 0.224-0.501 0.501s0.224 0.501 0.501 0.501h0.534c0.277 0 0.501-0.224 0.501-0.501s-0.224-0.501-0.501-0.501zM20.276 8.417h-0.534c-0.277 0-0.501 0.224-0.501 0.501s0.224 0.501 0.501 0.501h0.534c0.277 0 0.501-0.224 0.501-0.501s-0.224-0.501-0.501-0.501zM14.931 8.417h-0.534c-0.277 0-0.501 0.224-0.501 0.501s0.224 0.501 0.501 0.501h0.534c0.277 0 0.501-0.224 0.501-0.501s-0.224-0.501-0.501-0.501zM17.069 6.279h-5.345c-0.277 0-0.501 0.224-0.501 0.501s0.224 0.501 0.501 0.501h5.345c0.277 0 0.501-0.224 0.501-0.501s-0.224-0.501-0.501-0.501zM26.689 14.296h-2.171v-8.050c0-0.133-0.053-0.26-0.147-0.354l-5.345-5.345c-0.094-0.094-0.221-0.147-0.354-0.147h-13.896c-0.866 0-1.57 0.704-1.57 1.57v25.653c0 0.866 0.704 1.57 1.57 1.57h8.050v1.102c0 1.16 0.944 2.104 2.104 2.104h11.758c1.16 0 2.104-0.944 2.104-2.104v-13.896c0-1.16-0.944-2.104-2.104-2.104zM19.173 2.111l3.634 3.634h-2.532c-0.608 0-1.102-0.495-1.102-1.102v-2.532zM12.827 16.4v11.791h-8.050c-0.313 0-0.568-0.255-0.568-0.568v-25.653c0-0.313 0.255-0.568 0.568-0.568h13.395v3.24c0 1.16 0.944 2.104 2.104 2.104h3.24v7.549h-8.585c-1.16 0-2.104 0.944-2.104 2.104zM27.791 30.296c0 0.608-0.494 1.102-1.102 1.102h-11.758c-0.608 0-1.102-0.494-1.102-1.102v-13.896c0-0.608 0.495-1.102 1.102-1.102h11.758c0.608 0 1.102 0.495 1.102 1.102v13.896zM25.62 16.433h-9.62c-0.571 0-1.036 0.465-1.036 1.035v2.138c0 0.571 0.464 1.035 1.036 1.035h9.62c0.571 0 1.035-0.465 1.035-1.035v-2.138c0-0.571-0.465-1.035-1.035-1.035zM25.654 19.607c0 0.018-0.015 0.033-0.033 0.033h-9.62c-0.018 0-0.033-0.015-0.033-0.033v-2.138c0-0.018 0.015-0.033 0.033-0.033h9.62c0.018 0 0.033 0.015 0.033 0.033v2.138zM17.069 22.312h-1.069c-0.571 0-1.036 0.465-1.036 1.035v1.069c0 0.571 0.464 1.035 1.036 1.035h1.069c0.571 0 1.035-0.465 1.035-1.035v-1.069c0-0.571-0.465-1.035-1.035-1.035zM17.102 24.417c0 0.018-0.015 0.033-0.033 0.033h-1.069c-0.018 0-0.033-0.015-0.033-0.033v-1.069c0-0.018 0.015-0.033 0.033-0.033h1.069c0.018 0 0.033 0.015 0.033 0.033v1.069zM25.62 22.312h-1.069c-0.571 0-1.035 0.465-1.035 1.035v1.069c0 0.571 0.465 1.035 1.035 1.035h1.069c0.571 0 1.035-0.465 1.035-1.035v-1.069c0-0.571-0.465-1.035-1.035-1.035zM25.654 24.417c0 0.018-0.015 0.033-0.033 0.033h-1.069c-0.018 0-0.033-0.015-0.033-0.033v-1.069c0-0.018 0.015-0.033 0.033-0.033h1.069c0.018 0 0.033 0.015 0.033 0.033v1.069zM21.345 22.312h-1.069c-0.571 0-1.035 0.465-1.035 1.035v1.069c0 0.571 0.465 1.035 1.035 1.035h1.069c0.571 0 1.035-0.465 1.035-1.035v-1.069c0-0.571-0.465-1.035-1.035-1.035zM21.378 24.417c0 0.018-0.015 0.033-0.033 0.033h-1.069c-0.018 0-0.033-0.015-0.033-0.033v-1.069c0-0.018 0.015-0.033 0.033-0.033h1.069c0.018 0 0.033 0.015 0.033 0.033v1.069zM17.069 26.588h-1.069c-0.571 0-1.036 0.465-1.036 1.035v1.069c0 0.571 0.464 1.035 1.036 1.035h1.069c0.571 0 1.035-0.465 1.035-1.035v-1.069c0-0.571-0.465-1.035-1.035-1.035zM17.102 28.692c0 0.018-0.015 0.033-0.033 0.033h-1.069c-0.018 0-0.033-0.015-0.033-0.033v-1.069c0-0.018 0.015-0.033 0.033-0.033h1.069c0.018 0 0.033 0.015 0.033 0.033v1.069zM25.62 26.588h-1.069c-0.571 0-1.035 0.465-1.035 1.035v1.069c0 0.571 0.465 1.035 1.035 1.035h1.069c0.571 0 1.035-0.465 1.035-1.035v-1.069c0-0.571-0.465-1.035-1.035-1.035zM25.654 28.692c0 0.018-0.015 0.033-0.033 0.033h-1.069c-0.018 0-0.033-0.015-0.033-0.033v-1.069c0-0.018 0.015-0.033 0.033-0.033h1.069c0.018 0 0.033 0.015 0.033 0.033v1.069zM21.345 26.588h-1.069c-0.571 0-1.035 0.465-1.035 1.035v1.069c0 0.571 0.465 1.035 1.035 1.035h1.069c0.571 0 1.035-0.465 1.035-1.035v-1.069c0-0.571-0.465-1.035-1.035-1.035zM21.378 28.692c0 0.018-0.015 0.033-0.033 0.033h-1.069c-0.018 0-0.033-0.015-0.033-0.033v-1.069c0-0.018 0.015-0.033 0.033-0.033h1.069c0.018 0 0.033 0.015 0.033 0.033v1.069z"></path>
</svg>
