<!-- Generated by IcoMoon.io -->
<svg version="1.1" xmlns="http://www.w3.org/2000/svg" width="32" height="32" viewBox="0 0 32 32">
<path d="M18.419 8.506c1.2-1.444 2.006-4.656 2.356-6.244l0.262-1.175-4.381 1.887c-0.394 0.131-0.781 0.063-1.113-0.131-0.719-0.456-1.569-0.519-2.35-0.194l-2.35 1.044c-0.525 0.263-0.912 0.719-1.044 1.306-0.063 0.588 0.063 1.175 0.456 1.631 0.731 0.806 1.9 1.613 2.756 2.156-4.15 2.194-7.013 8.55-7.013 12.956 0 5.475 4.513 9.969 10 9.969 5.556 0 10-4.494 10-9.969 0-4.613-3.137-11.35-7.581-13.238zM11.231 5.844c-0.131-0.131-0.194-0.325-0.131-0.519 0-0.131 0.131-0.325 0.325-0.394l2.35-1.044c0.325-0.194 0.781-0.131 1.113 0.063 0.656 0.456 1.506 0.519 2.288 0.194l2.094-0.913c-0.656 2.544-1.569 4.694-2.094 4.756v0.119c-0.387-0.081-0.775-0.119-1.175-0.119-0.537 0-1.069 0.075-1.581 0.219-0.7-0.394-2.325-1.394-3.188-2.362zM16 30.475c-4.838 0-8.756-3.913-8.756-8.731s3.987-12.512 8.756-12.512 8.756 7.688 8.756 12.512c0 4.819-3.919 8.731-8.756 8.731zM18.744 19.919c-0.394-0.394-1.113-0.719-2.094-0.913h-0.063v-2.413c0.587 0.063 1.244 0.325 1.762 0.719l0.781-1.175c-0.85-0.519-1.7-0.85-2.613-0.912v-0.65h-0.781v0.65c-0.781 0.063-1.438 0.325-1.963 0.781s-0.781 1.044-0.781 1.756 0.194 1.238 0.656 1.631c0.456 0.394 1.175 0.719 2.094 0.913v2.475c-0.719-0.131-1.438-0.519-2.156-1.106l-0.912 1.106c0.912 0.781 1.894 1.238 3.075 1.369v0.913h0.85v-0.913c0.85-0.063 1.506-0.325 2.025-0.781s0.781-1.044 0.781-1.756c-0.006-0.781-0.206-1.3-0.663-1.694zM15.806 18.813c-0.525-0.131-0.781-0.262-0.981-0.456-0.194-0.131-0.262-0.394-0.262-0.65 0-0.325 0.131-0.519 0.325-0.719 0.194-0.194 0.456-0.325 0.912-0.325v2.15zM17.512 22.462c-0.262 0.194-0.525 0.325-0.981 0.394v-2.281c0.525 0.131 0.85 0.262 1.044 0.456s0.262 0.456 0.262 0.719c0 0.256-0.069 0.512-0.325 0.712z"></path>
</svg>
