<!-- Generated by IcoMoon.io -->
<svg version="1.1" xmlns="http://www.w3.org/2000/svg" width="32" height="32" viewBox="0 0 32 32">
<path d="M17.078 20.085h-1.83c-0.665 0-1.204-0.539-1.204-1.204s0.539-1.204 1.204-1.204h3.22c0.439 0 0.798-0.359 0.798-0.798s-0.359-0.798-0.798-0.798h-1.51v-1.111c0-0.439-0.359-0.798-0.798-0.798s-0.798 0.359-0.798 0.798v1.111h-0.113c-1.543 0-2.801 1.257-2.801 2.801s1.257 2.801 2.801 2.801h1.83c0.665 0 1.204 0.539 1.204 1.204s-0.539 1.204-1.204 1.204h-3.28c-0.439 0-0.798 0.359-0.798 0.798s0.359 0.798 0.798 0.798h1.57v1.138c0 0.439 0.359 0.798 0.798 0.798s0.798-0.359 0.798-0.798v-1.138h0.133c0.007 0 0.013 0 0.020 0 1.53-0.020 2.761-1.271 2.761-2.801 0-1.543-1.257-2.801-2.801-2.801z"></path>
<path d="M28.161 18.275c-0.838-1.929-1.996-3.799-3.459-5.548-1.77-2.129-3.533-3.553-4.431-4.211l3.393-6.294c0.166-0.313 0.113-0.699-0.146-0.945-0.878-0.858-1.81-1.277-2.847-1.277-0.951 0-1.823 0.359-2.581 0.679-0.599 0.246-1.164 0.486-1.623 0.486-0.14 0-0.259-0.020-0.379-0.067-1.583-0.579-2.801-0.938-3.978-0.938-1.49 0-2.761 0.599-4.005 1.876-0.259 0.266-0.299 0.685-0.093 0.998l3.659 5.528c-0.905 0.672-2.635 2.082-4.371 4.165-1.457 1.75-2.621 3.619-3.459 5.548-1.051 2.428-1.583 4.963-1.583 7.531 0 3.413 2.781 6.194 6.194 6.194h15.102c3.413 0 6.194-2.781 6.194-6.194 0-2.568-0.532-5.103-1.583-7.531zM9.713 2.701c0.772-0.665 1.51-0.958 2.395-0.958 0.945 0 2.009 0.319 3.426 0.845 0.293 0.106 0.605 0.16 0.925 0.16 0.778 0 1.523-0.306 2.235-0.605 0.685-0.286 1.337-0.559 1.969-0.559 0.306 0 0.738 0.053 1.284 0.439l-3.193 5.934h-5.562l-3.479-5.256zM23.551 30.403h-15.102c-2.535 0-4.597-2.062-4.597-4.597 0-4.264 1.563-8.309 4.637-12.022 1.943-2.348 3.918-3.805 4.517-4.231h5.974c0.605 0.419 2.575 1.883 4.517 4.231 3.080 3.712 4.637 7.751 4.637 12.022 0.013 2.535-2.049 4.597-4.584 4.597z"></path>
</svg>
