<!-- Generated by IcoMoon.io -->
<svg version="1.1" xmlns="http://www.w3.org/2000/svg" width="32" height="32" viewBox="0 0 32 32">
<path d="M30.068 2.146h-28.136c-1.065 0-1.932 0.867-1.932 1.932v19.426c0 1.065 0.867 1.932 1.932 1.932h9.641v1.406c0 1.289-1.048 2.337-2.337 2.337h-2.125c-0.407 0-0.738 0.33-0.738 0.738s0.33 0.738 0.738 0.738h17.777c0.407 0 0.738-0.33 0.738-0.738s-0.33-0.738-0.738-0.738h-2.125c-1.289 0-2.337-1.048-2.337-2.337v-1.406h9.641c1.065 0 1.932-0.867 1.932-1.932v-19.426c0-1.065-0.866-1.932-1.932-1.932zM12.245 29.179c0.503-0.646 0.804-1.457 0.804-2.337v-1.406h5.903v1.406c0 0.88 0.301 1.691 0.804 2.337h-7.51zM30.525 23.504c0 0.252-0.205 0.456-0.456 0.456h-28.136c-0.252 0-0.457-0.205-0.457-0.456v-3.877h29.049v3.877zM30.525 18.152h-29.049v-14.074c0-0.252 0.205-0.457 0.457-0.457h28.136c0.252 0 0.457 0.205 0.457 0.457v14.074zM16.796 21.794c0 0.44-0.356 0.796-0.796 0.796s-0.796-0.356-0.796-0.796c0-0.44 0.356-0.796 0.796-0.796s0.796 0.356 0.796 0.796zM17.265 7.228c-0.288-0.288-0.755-0.288-1.043 0l-5.213 5.213c-0.288 0.288-0.288 0.755 0 1.043 0.144 0.144 0.333 0.216 0.522 0.216s0.378-0.072 0.522-0.216l5.213-5.213c0.288-0.288 0.288-0.755 0-1.043zM20.355 10.25c-0.288-0.288-0.755-0.288-1.043-0l-2.077 2.077c-0.288 0.288-0.288 0.755 0 1.043 0.144 0.144 0.333 0.216 0.522 0.216s0.378-0.072 0.522-0.216l2.077-2.077c0.288-0.288 0.288-0.755 0-1.043z"></path>
</svg>
