<!-- Generated by IcoMoon.io -->
<svg version="1.1" xmlns="http://www.w3.org/2000/svg" width="32" height="32" viewBox="0 0 32 32">
<path d="M16.4 32c-4.381 0-8.499-1.706-11.597-4.803s-4.803-7.216-4.803-11.597c0-3.601 1.156-7 3.344-9.83 1.048-1.355 2.302-2.536 3.729-3.51 1.439-0.982 3.021-1.732 4.701-2.228 0.307-0.091 0.638 0.011 0.842 0.257s0.242 0.591 0.096 0.875c-1.031 2.011-1.512 3.928-1.512 6.035 0 7.499 6.101 13.6 13.6 13.6 2.107 0 4.024-0.48 6.035-1.512 0.285-0.146 0.629-0.108 0.875 0.096s0.347 0.535 0.257 0.842c-0.496 1.68-1.245 3.262-2.228 4.701-0.974 1.427-2.155 2.681-3.51 3.729-2.829 2.187-6.228 3.344-9.83 3.344zM10.512 2.184c-5.398 2.312-8.912 7.502-8.912 13.416 0 8.161 6.639 14.8 14.8 14.8 5.914 0 11.104-3.515 13.416-8.912-1.638 0.612-3.293 0.912-5.016 0.912-4.060 0-7.877-1.581-10.748-4.452s-4.452-6.688-4.452-10.748c0-1.723 0.3-3.378 0.912-5.016z"></path>
</svg>
