<!-- Generated by IcoMoon.io -->
<svg version="1.1" xmlns="http://www.w3.org/2000/svg" width="32" height="32" viewBox="0 0 32 32">
<path d="M29.366 16.234l-4.8-4.8c-0.312-0.312-0.819-0.312-1.131 0s-0.312 0.819 0 1.131l3.434 3.434h-10.869v-10.869l3.434 3.434c0.156 0.156 0.361 0.234 0.566 0.234s0.409-0.078 0.566-0.234c0.312-0.312 0.312-0.819 0-1.131l-4.8-4.8c-0.312-0.312-0.819-0.312-1.131 0l-4.8 4.8c-0.312 0.312-0.312 0.819 0 1.131s0.819 0.312 1.131 0l3.434-3.434v10.869h-10.869l3.434-3.434c0.312-0.312 0.312-0.819 0-1.131s-0.819-0.312-1.131 0l-4.8 4.8c-0.312 0.312-0.312 0.819 0 1.131l4.8 4.8c0.156 0.156 0.361 0.234 0.566 0.234s0.409-0.078 0.566-0.234c0.312-0.312 0.312-0.819 0-1.131l-3.434-3.434h10.869v10.869l-3.434-3.434c-0.312-0.312-0.819-0.312-1.131 0s-0.312 0.819 0 1.131l4.8 4.8c0.156 0.156 0.361 0.234 0.566 0.234s0.409-0.078 0.566-0.234l4.8-4.8c0.312-0.312 0.312-0.819 0-1.131s-0.819-0.312-1.131 0l-3.434 3.434v-10.869h10.869l-3.434 3.434c-0.312 0.312-0.312 0.819 0 1.131 0.156 0.156 0.361 0.234 0.566 0.234s0.409-0.078 0.566-0.234l4.8-4.8c0.312-0.312 0.312-0.819 0-1.131z"></path>
</svg>
