<!-- Generated by IcoMoon.io -->
<svg version="1.1" xmlns="http://www.w3.org/2000/svg" width="31" height="32" viewBox="0 0 31 32">
<path d="M27.941 3.122c-0.234 0-0.39 0.156-0.39 0.39s0.234 0.39 0.39 0.39c1.015 0 1.873 0.859 1.873 1.873v20.449c0 1.015-0.859 1.873-1.873 1.873h-1.795v-9.288c0-0.234-0.156-0.39-0.39-0.39s-0.39 0.156-0.39 0.39v10.537c0 1.015-0.859 1.873-1.873 1.873h-19.902c-1.561 0-2.81-1.249-2.81-2.81v-24.82c0-1.561 1.249-2.81 2.81-2.81h19.044c1.561 0 2.81 1.249 2.81 2.81v9.6c0 0.234 0.156 0.39 0.39 0.39s0.39-0.156 0.39-0.39v-9.6c0-2.029-1.639-3.59-3.59-3.59h-19.044c-2.029 0-3.59 1.561-3.59 3.59v24.898c0 1.951 1.561 3.512 3.59 3.512h19.98c1.483 0 2.654-1.171 2.654-2.654v-0.468h1.795c1.483 0 2.654-1.171 2.654-2.654v-20.449c0-1.483-1.249-2.654-2.732-2.654z"></path>
<path d="M16.624 19.2c-1.405 0-2.498 1.093-2.498 2.498s1.093 2.498 2.498 2.498c1.405 0 2.498-1.093 2.498-2.498 0 0 0-0.078 0-0.078v-9.132c0-0.546-0.312-1.093-0.78-1.327l-5.229-3.2c-0.39-0.234-0.859-0.234-1.249 0s-0.624 0.624-0.624 1.093v6.478c-0.468-0.468-1.093-0.702-1.717-0.702-1.327 0-2.498 1.093-2.498 2.498s1.093 2.498 2.498 2.498c1.405 0 2.498-1.093 2.498-2.498 0 0 0 0 0 0v-8.273c0-0.156 0.078-0.312 0.234-0.39 0.078-0.078 0.234-0.156 0.468 0l5.229 3.2c0.234 0.156 0.39 0.39 0.39 0.702v7.337c-0.39-0.468-1.015-0.702-1.717-0.702zM9.522 19.044c-0.937 0-1.717-0.78-1.717-1.717s0.78-1.717 1.717-1.717 1.717 0.78 1.717 1.717c0.078 0.937-0.702 1.717-1.717 1.717zM16.624 23.415c-0.937 0-1.717-0.78-1.717-1.717s0.78-1.717 1.717-1.717c0.937 0 1.717 0.702 1.717 1.639v0.078c0 0 0 0 0 0 0 0.937-0.702 1.717-1.717 1.717z"></path>
</svg>
