<!-- Generated by IcoMoon.io -->
<svg version="1.1" xmlns="http://www.w3.org/2000/svg" width="32" height="32" viewBox="0 0 32 32">
<path d="M30.639 0.545c-0.126-0.11-0.291-0.16-0.459-0.14l-18.036 2.334c-0.29 0.038-0.507 0.284-0.507 0.577v20.72c-1.062-1.277-2.75-2.108-4.655-2.108-3.208 0-5.818 2.349-5.818 5.236s2.61 5.236 5.818 5.236 5.818-2.349 5.818-5.236c0-0.135-0.011-0.268-0.023-0.4 0.008-0.038 0.023-0.072 0.023-0.112v-16.874l16.873-2.184v10.622c-1.062-1.276-2.75-2.107-4.655-2.107-3.208 0-5.818 2.349-5.818 5.236s2.61 5.236 5.818 5.236c3.179 0 5.768-2.308 5.814-5.159 0-0.008 0.004-0.014 0.004-0.022v-20.419c0-0.168-0.072-0.327-0.198-0.437zM6.982 31.236c-2.566 0-4.655-1.828-4.655-4.073s2.088-4.073 4.655-4.073 4.655 1.828 4.655 4.073-2.088 4.073-4.655 4.073zM25.018 25.418c-2.566 0-4.655-1.828-4.655-4.073s2.088-4.073 4.655-4.073 4.655 1.828 4.655 4.073-2.088 4.073-4.655 4.073zM12.8 8.604v-4.778l16.873-2.183v4.777l-16.873 2.184z"></path>
</svg>
