<!-- Generated by IcoMoon.io -->
<svg version="1.1" xmlns="http://www.w3.org/2000/svg" width="32" height="32" viewBox="0 0 32 32">
<path d="M31.713 1.786c-0.182-0.152-0.422-0.215-0.656-0.173l-17.6 3.2c-0.38 0.069-0.657 0.401-0.657 0.787v18.238c-0.218-0.148-0.457-0.287-0.717-0.417-1.318-0.659-3.052-1.022-4.883-1.022s-3.566 0.363-4.883 1.022c-1.494 0.747-2.317 1.805-2.317 2.978s0.823 2.231 2.317 2.978c1.318 0.659 3.052 1.022 4.883 1.022s3.566-0.363 4.883-1.022c1.494-0.747 2.317-1.805 2.317-2.978v-16.134l16-2.955v13.327c-0.218-0.148-0.457-0.287-0.717-0.417-1.318-0.659-3.052-1.022-4.883-1.022s-3.566 0.363-4.883 1.022c-1.494 0.747-2.317 1.805-2.317 2.978s0.823 2.231 2.317 2.978c1.318 0.659 3.052 1.022 4.883 1.022s3.566-0.363 4.883-1.022c1.494-0.747 2.317-1.805 2.317-2.978v-20.8c0-0.237-0.105-0.462-0.287-0.614zM7.2 28.8c-3.205 0-5.6-1.267-5.6-2.4s2.395-2.4 5.6-2.4 5.6 1.267 5.6 2.4-2.395 2.4-5.6 2.4zM14.4 8.639v-2.371l16-2.909v2.326l-16 2.955zM24.8 25.6c-3.205 0-5.6-1.267-5.6-2.4s2.395-2.4 5.6-2.4c3.205 0 5.6 1.267 5.6 2.4s-2.395 2.4-5.6 2.4z"></path>
</svg>
