<!-- Generated by IcoMoon.io -->
<svg version="1.1" xmlns="http://www.w3.org/2000/svg" width="32" height="32" viewBox="0 0 32 32">
<path d="M28.427 0.885c-0.724-0.505-1.651-0.624-2.479-0.319l-13.617 5.016c-1.057 0.389-1.768 1.408-1.768 2.535v15.328c-0.777-0.552-1.774-0.769-2.867-0.613-1.233 0.176-2.453 0.814-3.435 1.796s-1.62 2.202-1.796 3.435c-0.187 1.311 0.161 2.485 0.981 3.306 0.675 0.675 1.59 1.031 2.625 1.031 0.222 0 0.449-0.016 0.681-0.049 1.233-0.176 2.453-0.814 3.435-1.796s1.62-2.202 1.796-3.435c0.028-0.195 0.043-0.387 0.047-0.576 0.001-0.011 0.002-13.291 0.002-13.291l16.082-5.924v9.652c-0.777-0.551-1.774-0.769-2.867-0.613-1.233 0.176-2.453 0.814-3.435 1.796s-1.62 2.202-1.796 3.435c-0.187 1.311 0.161 2.485 0.981 3.306 0.675 0.675 1.59 1.031 2.625 1.031 0.222 0 0.449-0.016 0.681-0.049 1.233-0.176 2.453-0.814 3.435-1.796s1.62-2.202 1.796-3.435c0.028-0.195 0.048-17.552 0.048-17.552-0-0.883-0.432-1.711-1.156-2.216zM10.564 26.461c-0.001 0.146-0.012 0.296-0.034 0.45-0.132 0.921-0.622 1.846-1.381 2.605s-1.684 1.249-2.605 1.381c-0.843 0.12-1.574-0.081-2.060-0.566s-0.686-1.217-0.566-2.060c0.132-0.921 0.622-1.846 1.381-2.605s1.684-1.249 2.605-1.381c0.16-0.023 0.315-0.034 0.466-0.034 0.645 0 1.2 0.207 1.594 0.6 0.392 0.392 0.598 0.944 0.6 1.586v0.023zM28.115 5.762l-16.082 5.925v-3.57c0-0.514 0.324-0.979 0.807-1.157l13.617-5.016c0.384-0.141 0.796-0.088 1.131 0.146s0.528 0.602 0.528 1.011v2.661zM28.115 19.994c-0.001 0.146-0.012 0.297-0.034 0.452-0.132 0.921-0.622 1.846-1.381 2.605s-1.684 1.249-2.605 1.381c-0.843 0.12-1.574-0.081-2.060-0.566s-0.686-1.217-0.566-2.060c0.132-0.921 0.622-1.846 1.381-2.605s1.684-1.249 2.605-1.381c0.16-0.023 0.315-0.034 0.466-0.034 0.645 0 1.2 0.207 1.594 0.6 0.392 0.392 0.598 0.945 0.6 1.587v0.021z"></path>
</svg>
