<!-- Generated by IcoMoon.io -->
<svg version="1.1" xmlns="http://www.w3.org/2000/svg" width="32" height="32" viewBox="0 0 32 32">
<path d="M15.2 32c-4.060 0-7.877-1.581-10.748-4.452s-4.452-6.688-4.452-10.748c0-4.060 1.581-7.877 4.452-10.748s6.688-4.452 10.748-4.452c4.060 0 7.877 1.581 10.748 4.452s4.452 6.688 4.452 10.748-1.581 7.877-4.452 10.748c-2.871 2.871-6.688 4.452-10.748 4.452zM15.2 3.2c-7.499 0-13.6 6.101-13.6 13.6s6.101 13.6 13.6 13.6 13.6-6.101 13.6-13.6-6.101-13.6-13.6-13.6zM10.4 12.8c-1.323 0-2.4-1.077-2.4-2.4s1.077-2.4 2.4-2.4 2.4 1.077 2.4 2.4-1.077 2.4-2.4 2.4zM10.4 9.6c-0.441 0-0.8 0.359-0.8 0.8s0.359 0.8 0.8 0.8 0.8-0.359 0.8-0.8-0.359-0.8-0.8-0.8zM20 12.8c-1.323 0-2.4-1.077-2.4-2.4s1.077-2.4 2.4-2.4 2.4 1.077 2.4 2.4-1.077 2.4-2.4 2.4zM20 9.6c-0.441 0-0.8 0.359-0.8 0.8s0.359 0.8 0.8 0.8 0.8-0.359 0.8-0.8-0.359-0.8-0.8-0.8zM25.477 19.573c-0.177-0.281-0.508-0.423-0.834-0.358-0.299 0.060-0.588 0.090-0.858 0.090-0 0-0 0-0 0-1.395-0-2.243-0.805-3.14-1.658-0.852-0.81-1.734-1.648-3.045-1.648-0.955 0-1.813 0.421-2.4 1.087-0.587-0.666-1.445-1.087-2.4-1.087-1.311 0-2.193 0.838-3.045 1.648-0.897 0.853-1.745 1.658-3.14 1.658-0.27 0-0.559-0.030-0.858-0.090-0.325-0.065-0.657 0.077-0.834 0.358s-0.162 0.641 0.037 0.907c1.851 2.468 4.228 2.987 5.896 2.987 0.993 0 1.785-0.187 2.168-0.299 0.849-0.247 1.628-0.867 2.176-1.645 0.548 0.777 1.328 1.398 2.177 1.645 0.383 0.111 1.175 0.299 2.168 0.299 1.668-0 4.044-0.518 5.895-2.987 0.199-0.265 0.214-0.626 0.037-0.906zM12.577 21.632c-0.301 0.088-0.926 0.235-1.721 0.235-0.936 0-2.158-0.21-3.311-1.047 1.496-0.286 2.489-1.229 3.313-2.012 0.788-0.749 1.303-1.208 1.943-1.208 0.882 0 1.6 0.718 1.6 1.6 0 0.977-0.886 2.159-1.823 2.432zM19.544 21.867c-0.795 0-1.419-0.147-1.721-0.235-0.937-0.273-1.823-1.454-1.823-2.432 0-0.882 0.718-1.6 1.6-1.6 0.64 0 1.155 0.459 1.943 1.208 0.824 0.783 1.817 1.726 3.313 2.012-1.153 0.837-2.376 1.047-3.311 1.047z"></path>
</svg>
