<!-- Generated by IcoMoon.io -->
<svg version="1.1" xmlns="http://www.w3.org/2000/svg" width="32" height="32" viewBox="0 0 32 32">
<path d="M16.693 15.141v-0.416c1.291-0.341 2.251-1.525 2.251-2.933s-0.96-2.592-2.251-2.933v-2.784c0.576 0.245 1.088 0.672 1.291 0.875 0.309 0.32 0.811 0.32 1.131 0.021 0.32-0.309 0.331-0.811 0.021-1.131-0.128-0.128-1.131-1.131-2.443-1.451v-0.416c0-0.437-0.363-0.8-0.8-0.8s-0.8 0.363-0.8 0.8v0.437c-1.269 0.363-2.197 1.536-2.197 2.912 0 1.387 0.928 2.549 2.197 2.912v2.72c-0.555-0.309-1.067-0.811-1.259-1.035-0.288-0.341-0.789-0.373-1.131-0.096-0.341 0.288-0.373 0.789-0.096 1.131 0.139 0.16 1.173 1.333 2.475 1.728v0.448c0 0.437 0.363 0.8 0.8 0.8 0.459 0.011 0.811-0.341 0.811-0.789zM17.344 11.803c0 0.501-0.256 0.949-0.651 1.205v-2.4c0.395 0.245 0.651 0.683 0.651 1.195zM14.496 7.333c0-0.48 0.235-0.907 0.597-1.163v2.325c-0.363-0.256-0.597-0.683-0.597-1.163zM15.093 27.237v4.363c0 0.437 0.363 0.8 0.8 0.8s0.8-0.363 0.8-0.8v-0.917h5.248c2.336 0 4.245-1.899 4.245-4.245v-3.445c0-0.437-0.363-0.8-0.8-0.8h-3.445c-2.336 0-4.245 1.899-4.245 4.245v2.645h-1.003v-10.485c4.64-0.405 8.288-4.32 8.288-9.077 0.011-5.035-4.075-9.12-9.088-9.12s-9.099 4.085-9.099 9.109c0 4.757 3.648 8.672 8.299 9.077v7.040h-0.8v-2.645c0-2.336-1.899-4.245-4.245-4.245h-3.445c-0.213 0-0.416 0.085-0.565 0.235s-0.235 0.352-0.235 0.565v3.445c0 2.336 1.899 4.245 4.245 4.245l5.045 0.011zM10.048 25.637c-1.461 0-2.645-1.184-2.645-2.645v-2.645h2.645c1.461 0 2.645 1.184 2.645 2.645v2.645h-2.645zM8.405 9.52c0-4.139 3.36-7.509 7.499-7.509 4.128 0 7.488 3.371 7.488 7.509s-3.36 7.509-7.488 7.509c-4.139 0-7.499-3.371-7.499-7.509zM24.587 26.437c0 1.461-1.184 2.645-2.645 2.645v0h-2.645v-2.645c0-1.461 1.184-2.645 2.645-2.645h2.645v2.645z"></path>
</svg>
