<!-- Generated by IcoMoon.io -->
<svg version="1.1" xmlns="http://www.w3.org/2000/svg" width="32" height="32" viewBox="0 0 32 32">
<path d="M30.125 5.625c0-1.502-0.598-2.917-1.685-3.983-1.078-1.059-2.5-1.642-4.003-1.642-3.102 0-5.625 2.523-5.625 5.625s2.523 5.625 5.625 5.625c1.503 0 2.925-0.583 4.003-1.642 1.086-1.067 1.685-2.481 1.685-3.983zM24.438 9.375c-2.068 0-3.75-1.682-3.75-3.75s1.682-3.75 3.75-3.75c2.102 0 3.813 1.682 3.813 3.75s-1.71 3.75-3.813 3.75z"></path>
<path d="M16.875 5.625c0-2.068-1.682-3.75-3.75-3.75s-3.75 1.682-3.75 3.75 1.682 3.75 3.75 3.75 3.75-1.682 3.75-3.75zM13.125 7.5c-1.034 0-1.875-0.841-1.875-1.875s0.841-1.875 1.875-1.875 1.875 0.841 1.875 1.875-0.841 1.875-1.875 1.875z"></path>
<path d="M0 14.063v8.5h7.5v3.75h9.375v5.688h15.125v-13.25c0-4.136-3.393-7.5-7.563-7.5-2.322 0-4.402 1.043-5.79 2.681-0.501-2.592-2.787-4.556-5.523-4.556-1.816 0-3.434 0.866-4.463 2.206-0.829-1.323-2.3-2.206-3.974-2.206-2.585 0-4.688 2.103-4.688 4.688zM24.438 13.125c3.136 0 5.688 2.523 5.688 5.625v11.375h-11.375c0-0.679 0-10.781 0-11.375 0-3.102 2.551-5.625 5.688-5.625zM13.125 11.25c2.068 0 3.75 1.682 3.75 3.75v9.438h-7.5c0-0.918 0-8.367 0-9.438 0-2.068 1.682-3.75 3.75-3.75zM1.875 14.063c0-1.551 1.262-2.813 2.813-2.813s2.813 1.262 2.813 2.813v6.625h-5.625z"></path>
<path d="M7.5 6.563c0-1.551-1.262-2.813-2.813-2.813s-2.813 1.262-2.813 2.813 1.262 2.813 2.813 2.813 2.813-1.262 2.813-2.813zM4.688 7.5c-0.517 0-0.938-0.421-0.938-0.938s0.421-0.938 0.938-0.938 0.938 0.421 0.938 0.938-0.421 0.938-0.938 0.938z"></path>
</svg>
