<!-- Generated by IcoMoon.io -->
<svg version="1.1" xmlns="http://www.w3.org/2000/svg" width="32" height="32" viewBox="0 0 32 32">
<path d="M25 14c-1.96 0-3.728 0.814-5 2.116v-0.116c0-3.308-2.692-6-6-6-1.946 0-3.66 0.946-4.758 2.386-0.882-1.426-2.446-2.386-4.242-2.386-2.756 0-5 2.244-5 5v7h8v4h10v6h14v-11c0-3.86-3.14-7-7-7z"></path>
<path d="M31 6c0 3.314-2.686 6-6 6s-6-2.686-6-6c0-3.314 2.686-6 6-6s6 2.686 6 6z"></path>
<path d="M18 5c0 2.209-1.791 4-4 4s-4-1.791-4-4c0-2.209 1.791-4 4-4s4 1.791 4 4z"></path>
<path d="M8 6c0 1.657-1.343 3-3 3s-3-1.343-3-3c0-1.657 1.343-3 3-3s3 1.343 3 3z"></path>
</svg>
