<!-- Generated by IcoMoon.io -->
<svg version="1.1" xmlns="http://www.w3.org/2000/svg" width="32" height="32" viewBox="0 0 32 32">
<path d="M15.2 32c-4.060 0-7.877-1.581-10.748-4.452s-4.452-6.688-4.452-10.748c0-4.060 1.581-7.877 4.452-10.748s6.688-4.452 10.748-4.452c4.060 0 7.877 1.581 10.748 4.452s4.452 6.688 4.452 10.748-1.581 7.877-4.452 10.748c-2.871 2.871-6.688 4.452-10.748 4.452zM15.2 3.2c-7.499 0-13.6 6.101-13.6 13.6s6.101 13.6 13.6 13.6 13.6-6.101 13.6-13.6-6.101-13.6-13.6-13.6zM21.6 20.8h-12.8c-0.442 0-0.8-0.358-0.8-0.8s0.358-0.8 0.8-0.8h12.8c0.442 0 0.8 0.358 0.8 0.8s-0.358 0.8-0.8 0.8zM20 12.8c-1.323 0-2.4-1.077-2.4-2.4s1.077-2.4 2.4-2.4 2.4 1.077 2.4 2.4-1.077 2.4-2.4 2.4zM20 9.6c-0.441 0-0.8 0.359-0.8 0.8s0.359 0.8 0.8 0.8 0.8-0.359 0.8-0.8-0.359-0.8-0.8-0.8zM10.4 12.8c-1.323 0-2.4-1.077-2.4-2.4s1.077-2.4 2.4-2.4 2.4 1.077 2.4 2.4-1.077 2.4-2.4 2.4zM10.4 9.6c-0.441 0-0.8 0.359-0.8 0.8s0.359 0.8 0.8 0.8 0.8-0.359 0.8-0.8-0.359-0.8-0.8-0.8z"></path>
</svg>
