<!-- Generated by IcoMoon.io -->
<svg version="1.1" xmlns="http://www.w3.org/2000/svg" width="26" height="32" viewBox="0 0 26 32">
<path d="M15.152 5.405l-5.359-1.668 0.257-0.827 5.359 1.668-0.257 0.827zM21.125 9.093l-11.851-3.689 0.257-0.827 11.851 3.689-0.257 0.827zM7.454 11.252l5.359 1.669-0.258 0.827-5.359-1.669 0.258-0.827zM12.293 14.588l-0.257 0.827-5.36-1.666 0.257-0.827 5.36 1.666zM7.973 9.582l5.358 1.667-0.257 0.827-5.358-1.667 0.257-0.827zM9.011 6.246l11.851 3.689-0.257 0.827-11.851-3.689 0.257-0.827zM8.492 7.915l11.851 3.687-0.257 0.827-11.851-3.688 0.257-0.827zM24.571 5.39l-16.033-4.99-3.173 10.195-3.096 1.862v13.621h20.541v-13.6l-0.375-0.227 2.136-6.862zM21.944 24.843l-8.608-5.663 8.608-5.654v11.317zM3.135 19.778v-6.273l8.624 5.674-8.624 5.664v-5.065zM18.57 14.706l-0.845 0.555-0.906-0.282c0.023-0.049 0.044-0.099 0.061-0.152 0.103-0.332 0.071-0.683-0.091-0.99s-0.432-0.533-0.763-0.636c-0.126-0.039-0.257-0.059-0.388-0.059-0.571 0-1.068 0.367-1.238 0.913-0.103 0.332-0.071 0.683 0.091 0.99s0.432 0.533 0.764 0.636c0.015 0.005 0.029 0.005 0.044 0.009l-0.414 1.332 0.11 0.034-0.211 0.139-1.531-0.476 1.3-4.179 4.279 1.331-0.26 0.837zM15.425 16.736l0.493-1.585 1.338 0.417-1.795 1.179-0.036-0.011zM15.383 15.267c-0.221-0.069-0.402-0.219-0.509-0.424s-0.129-0.44-0.060-0.66c0.113-0.364 0.445-0.609 0.825-0.609 0.088 0 0.174 0.013 0.259 0.040 0.221 0.069 0.402 0.219 0.509 0.423s0.129 0.439 0.060 0.66c-0.016 0.054-0.041 0.102-0.068 0.15l-0.764-0.238-0.208 0.667c-0.015-0.003-0.029-0.004-0.043-0.008zM12.547 19.697l8.384 5.515h-16.782l8.398-5.515zM9.106 1.484l14.38 4.475-2.158 6.935-1.618 1.063 0.204-0.657-5.933-1.846-1.814 5.832 1.679 0.523-1.298 0.852-7.293-4.798 3.852-12.379zM4.502 13.368l-0.987-0.649 1.463-0.88-0.476 1.529z"></path>
</svg>
