<!-- Generated by IcoMoon.io -->
<svg version="1.1" xmlns="http://www.w3.org/2000/svg" width="41" height="32" viewBox="0 0 41 32">
<path d="M34.335 10.897h-11.589c-0.259 0-0.432 0.173-0.432 0.432s0.173 0.432 0.432 0.432h11.589c0.259 0 0.432-0.173 0.432-0.432s-0.259-0.432-0.432-0.432z"></path>
<path d="M22.746 15.914h5.535c0.259 0 0.432-0.173 0.432-0.432s-0.173-0.432-0.432-0.432h-5.535c-0.259 0-0.432 0.173-0.432 0.432s0.173 0.432 0.432 0.432z"></path>
<path d="M34.335 6.746h-11.589c-0.259 0-0.432 0.173-0.432 0.432s0.173 0.432 0.432 0.432h11.589c0.259 0 0.432-0.173 0.432-0.432s-0.259-0.432-0.432-0.432z"></path>
<path d="M12.195 15.481c0 0 0 0.086 0 0 0 0.086 0.086 0.086 0 0 0.346 0.259 0.692 0.346 1.038 0.346h5.016c0.951 0 1.643-0.778 1.643-1.643v-5.708c0-0.951-0.778-1.643-1.643-1.643h-5.016c-0.951 0-1.643 0.778-1.643 1.643v5.795c0 0.432 0.259 0.951 0.605 1.211zM19.113 14.184c0 0.432-0.346 0.778-0.778 0.778h-5.016c0 0 0 0 0 0l5.708-7.005c0.087 0.086 0.087 0.259 0.087 0.432v5.795zM12.454 8.476c0-0.432 0.346-0.778 0.778-0.778h4.93l-5.708 6.919c0-0.086-0.086-0.173-0.086-0.346v-5.795z"></path>
<path d="M34.335 19.719h-11.589c-0.259 0-0.432 0.173-0.432 0.432s0.173 0.432 0.432 0.432h11.589c0.259 0 0.432-0.173 0.432-0.432s-0.259-0.432-0.432-0.432z"></path>
<path d="M12.022 20.584h6.227c0.259 0 0.432-0.173 0.432-0.432s-0.173-0.432-0.432-0.432h-6.227c-0.259 0-0.432 0.173-0.432 0.432s0.173 0.432 0.432 0.432z"></path>
<path d="M12.022 25.254h11.589c0.259 0 0.432-0.173 0.432-0.432s-0.173-0.432-0.432-0.432h-11.589c-0.259 0-0.432 0.173-0.432 0.432s0.173 0.432 0.432 0.432z"></path>
<path d="M34.335 24.389h-6.227c-0.259 0-0.432 0.173-0.432 0.432s0.173 0.432 0.432 0.432h6.227c0.259 0 0.432-0.173 0.432-0.432s-0.259-0.432-0.432-0.432z"></path>
<path d="M5.881 16.432c0.259 0 0.432-0.173 0.432-0.432v-11.243c0-2.162 1.73-3.892 3.892-3.892h16.346c0.259 0 0.432-0.173 0.432-0.432s-0.173-0.432-0.432-0.432h-16.346c-2.595 0-4.757 2.162-4.757 4.757v11.243c0 0.259 0.173 0.432 0.432 0.432z"></path>
<path d="M36.151 0h-2.768c-0.259 0-0.519 0.173-0.519 0.432s0.259 0.432 0.432 0.432h2.768c2.162 0 3.892 1.73 3.892 3.892v22.486c0 2.162-1.73 3.892-3.892 3.892h-25.946c-2.162 0-3.892-1.73-3.892-3.892v-5.708c0-0.259-0.173-0.432-0.432-0.432s-0.432 0.173-0.432 0.432v5.708c0 2.595 2.162 4.757 4.757 4.757h25.946c2.595 0 4.757-2.162 4.757-4.757v-22.486c0.087-2.595-2.076-4.757-4.67-4.757z"></path>
<path d="M4.757 4.324c0.259 0 0.432-0.173 0.432-0.432s-0.173-0.432-0.432-0.432c-2.595 0-4.757 2.162-4.757 4.757v15.568c0 2.595 2.162 4.757 4.757 4.757 0.259 0 0.432-0.173 0.432-0.432s-0.173-0.432-0.432-0.432c-2.162 0-3.892-1.73-3.892-3.892v-15.568c0-2.162 1.73-3.892 3.892-3.892z"></path>
</svg>
