<!-- Generated by IcoMoon.io -->
<svg version="1.1" xmlns="http://www.w3.org/2000/svg" width="32" height="32" viewBox="0 0 32 32">
<path d="M29.85 8.403c-2.136-3.7-5.585-6.346-9.711-7.452s-8.436-0.538-12.136 1.598c-3.7 2.136-6.346 5.585-7.452 9.711s-0.538 8.436 1.598 12.136 5.585 6.346 9.711 7.452c1.378 0.369 2.776 0.552 4.165 0.552 2.771-0 5.506-0.727 7.971-2.15 3.699-2.136 6.346-5.585 7.451-9.711s0.538-8.436-1.598-12.136zM29.839 20.108c-0.991 3.697-3.361 6.786-6.676 8.7s-7.175 2.422-10.872 1.431c-3.697-0.991-6.786-3.361-8.7-6.676s-2.422-7.175-1.431-10.872c0.99-3.697 3.361-6.786 6.676-8.7s7.176-2.422 10.872-1.431c3.697 0.99 6.786 3.361 8.7 6.676s2.422 7.175 1.431 10.872zM19.49 15.013l-8.686-5.015c-0.502-0.289-1.1-0.289-1.601-0s-0.801 0.808-0.801 1.387v10.029c0 0.579 0.299 1.097 0.801 1.387 0.251 0.145 0.526 0.217 0.801 0.217s0.55-0.072 0.801-0.217l8.686-5.015c0.501-0.289 0.801-0.808 0.801-1.387s-0.299-1.097-0.801-1.387zM10.068 21.304v-9.808l8.494 4.904-8.494 4.904zM22.765 9.975c-0.46 0-0.833 0.373-0.833 0.833v11.185c0 0.46 0.373 0.833 0.833 0.833s0.833-0.373 0.833-0.833v-11.185c0-0.46-0.373-0.833-0.833-0.833z"></path>
</svg>
