<!-- Generated by IcoMoon.io -->
<svg version="1.1" xmlns="http://www.w3.org/2000/svg" width="30" height="32" viewBox="0 0 30 32">
<path d="M26.537 6.946c-0.156-0.156-0.39-0.156-0.546-0.078-0.156 0.156-0.156 0.39-0.078 0.546 2.263 2.576 3.512 5.932 3.512 9.366 0 7.883-6.4 14.361-14.361 14.361-7.883 0.078-14.283-6.322-14.283-14.283 0-7.883 6.4-14.283 14.361-14.283 1.717 0 3.356 0.312 4.917 0.859l-2.263 0.702c-0.234 0.078-0.312 0.312-0.234 0.468s0.234 0.312 0.39 0.312c0 0 0.078 0 0.078 0l3.512-1.015-1.015-3.512c-0.078-0.234-0.312-0.312-0.468-0.234-0.234 0.078-0.312 0.312-0.234 0.468l0.624 2.263c-1.717-0.624-3.434-0.937-5.307-0.937-8.351-0.156-15.141 6.634-15.141 14.907 0 8.351 6.79 15.141 15.141 15.141s15.141-6.79 15.141-15.141c-0.078-3.59-1.405-7.102-3.746-9.912z"></path>
<path d="M20.527 12.644h-10.849c-0.234 0-0.39 0.156-0.39 0.39s0.156 0.39 0.39 0.39h10.849c0.234 0 0.39-0.156 0.39-0.39s-0.156-0.39-0.39-0.39z"></path>
<path d="M20.527 16.39h-10.849c-0.234 0-0.39 0.156-0.39 0.39s0.156 0.39 0.39 0.39h10.849c0.234 0 0.39-0.156 0.39-0.39s-0.156-0.39-0.39-0.39z"></path>
<path d="M20.527 20.137h-10.849c-0.234 0-0.39 0.156-0.39 0.39s0.156 0.39 0.39 0.39h10.849c0.234 0 0.39-0.156 0.39-0.39s-0.156-0.39-0.39-0.39z"></path>
</svg>
