<!-- Generated by IcoMoon.io -->
<svg version="1.1" xmlns="http://www.w3.org/2000/svg" width="32" height="32" viewBox="0 0 32 32">
<path d="M5.471 29.646h1.336v0.954h-1.336v-0.954z"></path>
<path d="M2.99 30.537h1.845v-0.954h-1.845c-0.318 0-0.573-0.254-0.573-0.636v-0.636h-0.891v0.636c0 0.891 0.636 1.59 1.463 1.59z"></path>
<path d="M18.449 9.161h1.081v0.954h-1.081v-0.954z"></path>
<path d="M16.414 9.161h1.081v0.954h-1.081v-0.954z"></path>
<path d="M31.555 11.579l-8.652-7.761c-0.254-0.254-0.636-0.382-1.018-0.382h-0.573v-3.435h-8.080v3.435c-0.7 0.064-1.272 0.7-1.272 1.463v7.825h-0.573v-3.181h-6.871v3.181h-2.736c-1.018 0-1.781 0.763-1.781 1.781v15.714c0 0.954 0.763 1.781 1.781 1.781h28.755c0.827 0 1.463-0.636 1.463-1.463v-17.877c0-0.445-0.191-0.827-0.445-1.082zM14.187 0.954h6.235v0.763h-6.235v-0.763zM14.187 2.672h6.235v0.763h-6.235v-0.763zM9.988 10.497h0.445v2.227h-0.445v-2.227zM8.398 10.497h0.636v2.227h-0.636v-2.227zM6.807 10.497h0.636v2.227h-0.636v-2.227zM5.471 10.497h0.445v2.227h-0.445v-2.227zM14.95 28.946v1.272c0 0.445-0.382 0.827-0.827 0.827h-12.342c-0.445 0-0.827-0.382-0.827-0.827v-2.672h13.996v1.4zM14.95 26.592h-13.996v-8.398h13.996v8.398zM14.95 17.241h-13.996v-2.736c0-0.445 0.382-0.827 0.827-0.827h12.342c0 0 0.064 0 0.127 0 0.382 0.064 0.7 0.382 0.7 0.827v2.736zM15.65 13.614c0-0.064-0.064-0.064-0.064-0.127 0 0 0 0 0 0s-0.064-0.064-0.064-0.064c0 0 0 0 0 0s-0.064-0.064-0.064-0.064c0 0 0 0 0 0s-0.064-0.064-0.064-0.064c0 0 0 0 0 0s-0.064-0.064-0.064-0.064c0 0 0 0 0 0s-0.064-0.064-0.064-0.064c0 0 0 0 0 0s-0.064-0.064-0.127-0.064c0 0 0 0 0 0-0.064 0-0.064-0.064-0.127-0.064 0 0 0 0 0 0-0.064 0-0.064 0-0.127-0.064 0 0 0 0 0 0v-5.662c0-0.191 0.127-0.318 0.318-0.318h6.425c0.064 0 0.191 0.064 0.254 0.064l7.189 6.68c0.064 0.064 0.064 0.127 0.064 0.191 0 0 0 0.064 0 0.064v14.632c0 0.191-0.127 0.318-0.318 0.318h-12.915v-14.441c0-0.064 0-0.064 0-0.127 0 0 0 0 0 0 0-0.064 0-0.064 0-0.127 0 0 0 0 0 0 0-0.064 0-0.064 0-0.127 0 0 0 0 0 0 0-0.064 0-0.064 0-0.127 0 0 0 0 0 0 0-0.064 0-0.064-0.064-0.127 0 0 0 0 0 0 0-0.064 0-0.064-0.064-0.127 0 0 0 0 0 0-0.064-0.064-0.127-0.127-0.127-0.127s0 0 0 0zM30.537 31.046h-14.823c0 0 0 0 0 0s0-0.064 0-0.064c0 0 0 0 0-0.064 0 0 0-0.064 0-0.064s0 0 0 0 0-0.064 0-0.064c0 0 0 0 0 0s0-0.064 0-0.064c0 0 0 0 0 0s0-0.064 0-0.064c0 0 0 0 0-0.064 0 0 0-0.064 0-0.064s0 0 0-0.064c0 0 0-0.064 0-0.064s0 0 0 0c0-0.064 0-0.064 0-0.127v-0.382h12.978c0.7 0 1.272-0.573 1.272-1.272v-14.759c0-0.318-0.127-0.7-0.382-0.891l-7.062-6.68c-0.191-0.191-0.382-0.254-0.636-0.318-0.064 0-0.127 0-0.254 0h-6.553c-0.7 0-1.272 0.573-1.272 1.272v5.471h-0.954v-7.825c0-0.254 0.254-0.509 0.509-0.509h8.525c0.127 0 0.254 0.064 0.382 0.127l8.588 7.761c0.127 0.127 0.127 0.254 0.127 0.382v17.877c0.064 0.254-0.191 0.509-0.445 0.509z"></path>
<path d="M21.948 23.221c1.527 0 2.799-1.272 2.799-2.799 0-1.718-2.163-6.107-2.354-6.616l-0.445-0.827-0.445 0.827c-0.254 0.509-2.354 4.899-2.354 6.616 0 1.527 1.272 2.799 2.799 2.799zM21.948 15.078c0.763 1.654 1.845 4.262 1.845 5.344 0 1.018-0.827 1.845-1.845 1.845s-1.845-0.827-1.845-1.845c0-1.081 1.145-3.753 1.845-5.344z"></path>
<path d="M16.795 25.129h10.37v0.954h-10.37v-0.954z"></path>
<path d="M4.262 14.378h7.316v0.954h-7.316v-0.954z"></path>
<path d="M16.795 26.911h10.37v0.954h-10.37v-0.954z"></path>
<path d="M7.952 25.893c1.018 0 1.909-0.827 1.909-1.909s-1.336-3.817-1.463-4.135l-0.445-0.827-0.445 0.827c-0.127 0.318-1.463 2.99-1.463 4.135 0 1.018 0.827 1.909 1.909 1.909zM7.952 21.185c0.445 1.081 0.954 2.29 0.954 2.799s-0.445 0.954-0.954 0.954c-0.509 0-0.954-0.445-0.954-0.954s0.445-1.781 0.954-2.799z"></path>
</svg>
