<!-- Generated by IcoMoon.io -->
<svg version="1.1" xmlns="http://www.w3.org/2000/svg" width="32" height="32" viewBox="0 0 32 32">
<path d="M8.451 27.711l3.847 4.289 3.702-9.167 3.702 9.167 3.847-4.289 5.747 0.414-4.882-12.087c1.187-1.698 1.826-3.715 1.826-5.831 0-2.726-1.062-5.29-2.99-7.218s-4.491-2.99-7.218-2.99-5.29 1.062-7.218 2.99c-1.928 1.928-2.99 4.491-2.99 7.218 0 2.090 0.625 4.084 1.784 5.77l-4.907 12.148 5.747-0.414zM16.033 2.26c2.123 0 4.118 0.827 5.619 2.328s2.328 3.497 2.328 5.619c0 1.102-0.223 2.17-0.648 3.152-0.362 0.837-0.87 1.612-1.512 2.293-0.055 0.059-0.111 0.117-0.168 0.174-1.029 1.029-2.29 1.741-3.665 2.087-0.47 0.118-0.954 0.193-1.446 0.224-0.168 0.011-0.338 0.016-0.508 0.016-0.192 0-0.383-0.007-0.573-0.020-0.496-0.035-0.982-0.116-1.455-0.24-1.346-0.353-2.581-1.057-3.591-2.067-0.073-0.073-0.145-0.148-0.215-0.224-0.64-0.691-1.144-1.476-1.499-2.323-0.402-0.96-0.614-2-0.614-3.072 0-2.123 0.827-4.118 2.328-5.619s3.497-2.328 5.619-2.328zM25.842 25.61l-3.236-0.233-2.166 2.415-3.017-7.471c1.968-0.266 3.802-1.096 5.309-2.412l3.11 7.701zM9.285 17.866c1.501 1.326 3.33 2.168 5.295 2.447l-3.021 7.48-2.166-2.415-3.236 0.233 3.128-7.744z"></path>
<path d="M15.449 8.643v6.637h2.26v-10.86l-5.236 3.49 1.254 1.881z"></path>
</svg>
