<!-- Generated by IcoMoon.io -->
<svg version="1.1" xmlns="http://www.w3.org/2000/svg" width="27" height="32" viewBox="0 0 27 32">
<path d="M5.109 31.495c-0.337 0-0.561-0.225-0.561-0.561v-10.611c0-0.337 0.225-0.561 0.561-0.561s0.561 0.225 0.561 0.561v10.611c0 0.337-0.225 0.561-0.561 0.561z"></path>
<path d="M5.109 5.67c-0.337 0-0.561-0.225-0.561-0.561v-4.547c0-0.337 0.225-0.561 0.561-0.561s0.561 0.225 0.561 0.561v4.547c0 0.337-0.225 0.561-0.561 0.561z"></path>
<path d="M21.839 31.495c-0.337 0-0.561-0.225-0.561-0.561v-4.547c0-0.337 0.225-0.561 0.561-0.561s0.561 0.225 0.561 0.561v4.547c0 0.337-0.281 0.561-0.561 0.561z"></path>
<path d="M21.839 11.733c-0.337 0-0.561-0.225-0.561-0.561v-10.611c0-0.337 0.225-0.561 0.561-0.561s0.561 0.225 0.561 0.561v10.611c0 0.337-0.281 0.561-0.561 0.561z"></path>
<path d="M6.625 20.884h-3.032c-2.302 0-3.593-1.291-3.593-3.593v-9.151c0-2.302 1.291-3.593 3.593-3.593h3.032c2.302 0 3.593 1.291 3.593 3.593v9.095c0 2.302-1.291 3.649-3.593 3.649zM3.593 5.67c-1.684 0-2.47 0.786-2.47 2.47v9.095c0 1.684 0.786 2.47 2.47 2.47h3.032c1.684 0 2.47-0.786 2.47-2.47v-9.095c0-1.684-0.786-2.47-2.47-2.47h-3.032z"></path>
<path d="M23.354 26.947h-3.032c-2.302 0-3.593-1.291-3.593-3.593v-9.095c0-2.302 1.291-3.593 3.593-3.593h3.032c2.302 0 3.593 1.291 3.593 3.593v9.095c0 2.302-1.291 3.593-3.593 3.593zM20.323 11.733c-1.684 0-2.47 0.786-2.47 2.47v9.095c0 1.684 0.786 2.47 2.47 2.47h3.032c1.684 0 2.47-0.786 2.47-2.47v-9.039c0-1.684-0.786-2.47-2.47-2.47h-3.032z"></path>
</svg>
