<!-- Generated by IcoMoon.io -->
<svg version="1.1" xmlns="http://www.w3.org/2000/svg" width="32" height="32" viewBox="0 0 32 32">
<path d="M1.184 4.246h3.394l4.834 17.481c0.138 0.513 0.612 0.868 1.144 0.868h14.857c0.474 0 0.888-0.276 1.085-0.71l5.406-12.43c0.158-0.375 0.118-0.789-0.099-1.125s-0.592-0.533-0.987-0.533h-16.416c-0.651 0-1.184 0.533-1.184 1.184s0.533 1.184 1.184 1.184h14.6l-4.38 10.062h-13.18l-4.834-17.481c-0.138-0.513-0.612-0.868-1.144-0.868h-4.282c-0.651 0-1.184 0.533-1.184 1.184s0.533 1.184 1.184 1.184zM9.431 30.922c1.48 0 2.683-1.204 2.683-2.683s-1.204-2.683-2.683-2.683-2.683 1.203-2.683 2.683 1.204 2.683 2.683 2.683zM26.202 30.922c0.059 0 0.138 0 0.197 0 0.71-0.059 1.361-0.375 1.835-0.927 0.474-0.533 0.691-1.223 0.651-1.953-0.099-1.46-1.381-2.585-2.861-2.486s-2.585 1.401-2.486 2.861c0.099 1.401 1.263 2.506 2.664 2.506z"></path>
</svg>
