<!-- Generated by IcoMoon.io -->
<svg version="1.1" xmlns="http://www.w3.org/2000/svg" width="32" height="32" viewBox="0 0 32 32">
<path d="M4.895 3.776c-0.001 0-0.002 0-0.003 0-0.303 0-0.587 0.118-0.802 0.332-0.217 0.217-0.337 0.505-0.337 0.813v17.171c0 0.63 0.514 1.143 1.147 1.145 2.665 0.006 7.131 0.562 10.212 3.786v-17.97c0-0.213-0.055-0.414-0.157-0.58-2.528-4.072-7.387-4.691-10.059-4.697z"></path>
<path d="M28.247 22.092v-17.171c0-0.307-0.12-0.596-0.337-0.813-0.215-0.214-0.5-0.332-0.802-0.332-0.001 0-0.002 0-0.003 0-2.671 0.006-7.53 0.625-10.059 4.697-0.103 0.166-0.157 0.366-0.157 0.58v17.97c3.081-3.224 7.546-3.779 10.212-3.786 0.632-0.002 1.146-0.515 1.146-1.145z"></path>
<path d="M30.855 7.736h-0.83v14.356c0 1.608-1.31 2.919-2.92 2.923-2.261 0.005-5.989 0.447-8.629 2.946 4.566-1.118 9.379-0.391 12.123 0.234 0.343 0.078 0.696-0.003 0.971-0.221s0.43-0.544 0.43-0.894v-18.198c0-0.631-0.514-1.145-1.145-1.145z"></path>
<path d="M1.975 22.092v-14.356h-0.83c-0.631 0-1.145 0.514-1.145 1.145v18.198c0 0.35 0.157 0.676 0.43 0.894s0.628 0.3 0.971 0.221c2.743-0.625 7.557-1.352 12.122-0.234-2.64-2.499-6.368-2.941-8.629-2.946-1.61-0.004-2.92-1.315-2.92-2.922z"></path>
</svg>
