<!-- Generated by IcoMoon.io -->
<svg version="1.1" xmlns="http://www.w3.org/2000/svg" width="32" height="32" viewBox="0 0 32 32">
<path d="M31.487 4.983h-13.893c-0.637 0-1.208 0.284-1.595 0.731-0.387-0.447-0.958-0.731-1.595-0.731h-13.893c-0.283 0-0.513 0.229-0.513 0.513v21.809c0 0.283 0.23 0.513 0.513 0.513h30.975c0.283 0 0.513-0.23 0.513-0.513v-21.809c0-0.283-0.229-0.513-0.513-0.513zM1.025 26.792v-1.025h13.381c0.289 0 0.56 0.113 0.765 0.317 0.191 0.191 0.3 0.441 0.314 0.708h-14.459zM15.487 25.040c-0.323-0.194-0.695-0.298-1.082-0.298h-13.381v-18.733h13.38c0.597 0 1.082 0.485 1.082 1.082v17.949zM25.533 6.008h2.255v5.357l-0.82-0.615c-0.182-0.137-0.433-0.137-0.615 0l-0.82 0.615v-5.357zM30.975 26.792h-14.459c0.030-0.57 0.502-1.025 1.079-1.025h13.381v1.025zM30.975 24.742h-13.381c-0.395 0-0.765 0.109-1.082 0.3v-17.951c0-0.597 0.485-1.082 1.082-1.082h6.914v2.857h-4.1c-0.283 0-0.513 0.229-0.513 0.513s0.229 0.513 0.513 0.513h4.1v1.251h-4.1c-0.283 0-0.513 0.229-0.513 0.513s0.229 0.513 0.513 0.513h4.1v0.224c0 0.194 0.11 0.372 0.283 0.458s0.381 0.068 0.537-0.048l1.333-1 1.333 1c0.090 0.068 0.199 0.103 0.308 0.103 0.078 0 0.157-0.018 0.229-0.054 0.174-0.087 0.283-0.264 0.283-0.458v-6.382h2.161v18.733zM11.592 8.865h-7.893c-0.283 0-0.513 0.229-0.513 0.513s0.229 0.513 0.513 0.513h7.893c0.283 0 0.513-0.229 0.513-0.513s-0.229-0.513-0.513-0.513zM11.592 11.141h-7.893c-0.283 0-0.513 0.229-0.513 0.513s0.229 0.513 0.513 0.513h7.893c0.283 0 0.513-0.229 0.513-0.513s-0.229-0.513-0.513-0.513zM11.592 15.692h-7.893c-0.283 0-0.513 0.229-0.513 0.513s0.229 0.513 0.513 0.513h7.893c0.283 0 0.513-0.23 0.513-0.513s-0.229-0.513-0.513-0.513zM11.592 20.244h-7.893c-0.283 0-0.513 0.23-0.513 0.513s0.229 0.513 0.513 0.513h7.893c0.283 0 0.513-0.23 0.513-0.513s-0.229-0.513-0.513-0.513zM3.699 14.442h1.126c0.283 0 0.513-0.229 0.513-0.513s-0.229-0.513-0.513-0.513h-1.126c-0.283 0-0.513 0.229-0.513 0.513s0.229 0.513 0.513 0.513zM6.831 13.917c-0.011-0.436-0.565-0.669-0.874-0.35-0.173 0.168-0.195 0.445-0.065 0.644-0.004-0.006-0.007-0.010 0.001 0.002 0.008 0.011 0.006 0.009 0.003 0.004 0.018 0.027 0.039 0.052 0.061 0.074 0.318 0.327 0.886 0.073 0.874-0.375zM11.592 13.417h-3.736c-0.283 0-0.513 0.229-0.513 0.513s0.229 0.513 0.513 0.513h3.736c0.283 0 0.513-0.229 0.513-0.513s-0.229-0.513-0.513-0.513zM11.592 17.968h-1.126c-0.283 0-0.513 0.23-0.513 0.513s0.229 0.513 0.513 0.513h1.126c0.283 0 0.513-0.23 0.513-0.513s-0.229-0.513-0.513-0.513zM9.335 18.118c-0.202-0.196-0.523-0.196-0.725 0-0.159 0.164-0.196 0.415-0.083 0.616 0.107 0.19 0.329 0.289 0.543 0.25-0.007 0.001-0.012 0.002 0.003-0s0.010-0.002 0.003-0.001c0.098-0.021 0.187-0.069 0.26-0.139 0.196-0.202 0.196-0.523 0-0.725zM3.699 18.993h3.736c0.283 0 0.513-0.23 0.513-0.513s-0.229-0.513-0.513-0.513h-3.736c-0.283 0-0.513 0.23-0.513 0.513s0.229 0.513 0.513 0.513zM28.301 20.244h-7.893c-0.283 0-0.513 0.23-0.513 0.513s0.229 0.513 0.513 0.513h7.893c0.283 0 0.513-0.23 0.513-0.513s-0.229-0.513-0.513-0.513zM28.301 17.968h-7.893c-0.283 0-0.513 0.23-0.513 0.513s0.229 0.513 0.513 0.513h7.893c0.283 0 0.513-0.23 0.513-0.513s-0.229-0.513-0.513-0.513zM28.301 13.417h-7.893c-0.283 0-0.513 0.229-0.513 0.513s0.229 0.513 0.513 0.513h7.893c0.283 0 0.513-0.229 0.513-0.513s-0.229-0.513-0.513-0.513zM28.301 15.692h-1.126c-0.283 0-0.513 0.229-0.513 0.513s0.229 0.513 0.513 0.513h1.126c0.283 0 0.513-0.23 0.513-0.513s-0.229-0.513-0.513-0.513zM25.319 15.842c-0.294 0.303-0.113 0.831 0.312 0.873 0.423 0.042 0.709-0.442 0.476-0.795-0.018-0.028-0.040-0.054-0.064-0.078-0.202-0.196-0.523-0.196-0.725 0zM26.108 15.92c0.019 0.028-0.018-0.028 0 0v0zM20.408 16.717h3.736c0.283 0 0.513-0.23 0.513-0.513s-0.229-0.513-0.513-0.513h-3.736c-0.283 0-0.513 0.229-0.513 0.513s0.229 0.513 0.513 0.513z"></path>
</svg>
