<!-- Generated by IcoMoon.io -->
<svg version="1.1" xmlns="http://www.w3.org/2000/svg" width="32" height="32" viewBox="0 0 32 32">
<path d="M1.024 9.465h29.952c0.565 0 1.024-0.459 1.024-1.024s-0.459-1.024-1.024-1.024h-29.952c-0.565 0-1.024 0.458-1.024 1.024s0.459 1.024 1.024 1.024zM30.976 15.376h-29.952c-0.565 0-1.024 0.458-1.024 1.024s0.459 1.024 1.024 1.024h29.952c0.565 0 1.024-0.458 1.024-1.024s-0.459-1.024-1.024-1.024zM30.976 23.335h-29.952c-0.565 0-1.024 0.459-1.024 1.024s0.459 1.024 1.024 1.024h29.952c0.565 0 1.024-0.459 1.024-1.024s-0.459-1.024-1.024-1.024z"></path>
</svg>
