<!-- Generated by IcoMoon.io -->
<svg version="1.1" xmlns="http://www.w3.org/2000/svg" width="35" height="32" viewBox="0 0 35 32">
<path d="M23.933 22.38h-12.939c-0.080 0-0.16-0.016-0.234-0.047s-0.142-0.077-0.198-0.134c-0.057-0.058-0.102-0.126-0.132-0.201s-0.047-0.156-0.047-0.237 0.016-0.162 0.047-0.237c0.031-0.075 0.076-0.143 0.132-0.201s0.124-0.103 0.198-0.134c0.074-0.031 0.154-0.047 0.234-0.047h12.936c0.080 0 0.16 0.016 0.234 0.047s0.142 0.077 0.198 0.134c0.057 0.058 0.102 0.126 0.132 0.201s0.046 0.156 0.046 0.237-0.016 0.162-0.046 0.237c-0.031 0.075-0.076 0.143-0.132 0.201s-0.124 0.103-0.198 0.134-0.154 0.047-0.234 0.047h0.003z"></path>
<path d="M23.933 17.378h-12.939c-0.162 0-0.318-0.065-0.432-0.182s-0.179-0.274-0.179-0.438 0.064-0.322 0.179-0.438c0.115-0.116 0.27-0.181 0.432-0.181h12.936c0.162 0 0.317 0.065 0.432 0.181s0.179 0.274 0.179 0.438-0.064 0.322-0.179 0.438c-0.115 0.116-0.27 0.182-0.432 0.182h0.003z"></path>
<path d="M23.936 12.376h-9.182c-0.162 0-0.318-0.065-0.432-0.182s-0.179-0.274-0.179-0.438 0.064-0.322 0.179-0.438c0.115-0.116 0.27-0.182 0.432-0.182h9.182c0.162 0 0.317 0.065 0.432 0.182s0.179 0.274 0.179 0.438-0.064 0.322-0.179 0.438c-0.115 0.116-0.27 0.182-0.432 0.182z"></path>
<path d="M28.97 32h-23.158c-0.162 0-0.317-0.065-0.432-0.182s-0.179-0.274-0.179-0.438v-30.76c0-0.164 0.064-0.322 0.179-0.438s0.27-0.182 0.432-0.182h23.158c0.162 0 0.317 0.065 0.432 0.182s0.179 0.274 0.179 0.438v30.76c0 0.164-0.064 0.322-0.179 0.438s-0.27 0.182-0.432 0.182zM6.422 30.759h21.936v-29.519h-21.936v29.519z"></path>
<path d="M5.811 28.952h-5.202c-0.162-0.001-0.317-0.066-0.431-0.182s-0.178-0.274-0.178-0.438v-24.666c0-0.164 0.064-0.322 0.179-0.438s0.27-0.182 0.432-0.182h5.202c0.162 0 0.317 0.065 0.432 0.182s0.179 0.274 0.179 0.438c0 0.164-0.064 0.322-0.179 0.438s-0.27 0.182-0.432 0.182h-4.593v23.429h4.591c0.162 0 0.317 0.065 0.432 0.182s0.179 0.274 0.179 0.438c0 0.164-0.064 0.322-0.179 0.438s-0.27 0.181-0.432 0.181v-0.003z"></path>
<path d="M34.172 28.952h-5.202c-0.162 0-0.317-0.065-0.432-0.181s-0.179-0.274-0.179-0.438 0.064-0.322 0.179-0.438c0.115-0.116 0.27-0.182 0.432-0.182h4.591v-23.426h-4.591c-0.162 0-0.317-0.065-0.432-0.182s-0.179-0.274-0.179-0.438 0.064-0.322 0.179-0.438c0.115-0.116 0.27-0.182 0.432-0.182h5.202c0.162 0 0.318 0.065 0.432 0.182s0.179 0.274 0.179 0.438v24.666c0 0.081-0.015 0.162-0.046 0.238s-0.076 0.144-0.132 0.201c-0.057 0.058-0.124 0.103-0.199 0.134s-0.154 0.047-0.234 0.047z"></path>
</svg>
