<!-- Generated by IcoMoon.io -->
<svg version="1.1" xmlns="http://www.w3.org/2000/svg" width="38" height="32" viewBox="0 0 38 32">
<path d="M4.72 8.16h8.16v1.12h-8.16v-1.12zM4.72 10.56h5.84v1.12h-5.84v-1.12zM4.72 14.080h8.16v1.12h-8.16v-1.12zM4.72 16.4h5.84v1.12h-5.84v-1.12zM4.72 19.92h8.16v1.12h-8.16v-1.12zM4.72 22.24h4.72v1.12h-4.72v-1.12zM36.8 28.24l-6.24-6.24-1.12 1.2-2.48-2.48c1.12-1.36 1.84-3.040 1.84-4.96 0-3.84-2.88-7.040-6.64-7.52v-8.24h-17.12l-5.040 4.96v26.56h22.16v-6.48h-1.12v5.36h-20v-24.64h4.72v-4.64h15.28v7.040c-4.080 0.080-7.44 3.44-7.44 7.6s3.36 7.6 7.6 7.6c1.92 0 3.6-0.72 4.96-1.84l2.48 2.48-1.2 1.2 6.24 6.24c0.4 0.4 0.96 0.64 1.52 0.64s1.12-0.24 1.52-0.64c0.96-0.96 0.96-2.32 0.080-3.2zM4.72 4.72h-2.88l2.8-2.88v2.88zM21.2 22.24c-3.6 0-6.48-2.88-6.48-6.48s2.88-6.48 6.48-6.48 6.48 2.88 6.48 6.48-2.88 6.48-6.48 6.48zM36.080 30.56c-0.24 0.24-0.48 0.32-0.8 0.32s-0.56-0.080-0.8-0.32l-5.44-5.44 1.6-1.6 5.44 5.44c0.4 0.48 0.4 1.2 0 1.6zM21.36 12.88c-0.080 0-0.080 0-0.16 0s-0.080 0-0.16 0c-2.72 0.080-4.88 2.4-4.96 2.56l0.8 0.72c0 0 0.64-0.64 1.52-1.28-0.080 0.24-0.16 0.56-0.16 0.88 0 1.6 1.28 2.88 2.88 2.88s2.88-1.28 2.88-2.88c0-0.32-0.080-0.64-0.16-0.88 0.88 0.56 1.52 1.2 1.52 1.28l0.8-0.72c0.080-0.16-2.080-2.48-4.8-2.56zM21.2 17.52c-0.96 0-1.76-0.8-1.76-1.76s0.72-1.76 1.68-1.76c0 0 0.080 0 0.080 0s0.080 0 0.080 0c0.96 0.080 1.68 0.8 1.68 1.76 0.080 0.96-0.72 1.76-1.76 1.76z"></path>
</svg>
