<!-- Generated by IcoMoon.io -->
<svg version="1.1" xmlns="http://www.w3.org/2000/svg" width="32" height="32" viewBox="0 0 32 32">
<path d="M28.576 3.736h-1.519v-2.184c0-0.856-0.696-1.552-1.552-1.552h-20.032c-0.856 0-1.552 0.696-1.552 1.552v2.184h-1.426c-0.259 0-0.469 0.21-0.469 0.469s0.21 0.469 0.469 0.469h1.426v2.184c0 0.856 0.696 1.552 1.552 1.552h0.679v1.494c0 1.027 0.835 1.862 1.862 1.862 0.336 0 0.652-0.090 0.924-0.247v2.253c0 1.027 0.835 1.862 1.862 1.862s1.862-0.835 1.862-1.862v-5.362h1.776c0.259 0 0.469-0.21 0.469-0.469s-0.21-0.469-0.469-0.469h-0.65c0.169-0.285 0.267-0.617 0.267-0.972v-2.357c0.285 0.169 0.617 0.266 0.972 0.266 1.053 0 1.91-0.857 1.91-1.91v-1.561h8.568c0.339 0 0.614 0.275 0.614 0.614v5.306c0 0.339-0.275 0.614-0.614 0.614h-8.879c-0.259 0-0.469 0.21-0.469 0.469s0.21 0.469 0.469 0.469h8.879c0.856 0 1.552-0.696 1.552-1.552v-2.184h1.519c0.254 0 0.461 0.207 0.461 0.461v4.783c0 0.415-0.278 0.788-0.676 0.907l-12.571 3.744c-0.453 0.135-0.77 0.559-0.77 1.032v0.822h-2.099c-0.66 0-1.196 0.537-1.196 1.196v0.646c0 0.605 0.451 1.105 1.035 1.184l-0.865 8.68c-0.206 2.067 1.419 3.871 3.505 3.871 2.077 0 3.711-1.796 3.505-3.871l-0.304-3.049c-0.026-0.258-0.255-0.446-0.513-0.42s-0.446 0.255-0.42 0.513l0.304 3.049c0.151 1.516-1.041 2.841-2.572 2.841-1.524 0-2.724-1.318-2.572-2.841l0.873-8.761h3.397l0.351 3.525c0.026 0.258 0.254 0.446 0.513 0.42 0.258-0.026 0.446-0.255 0.42-0.513l-0.342-3.432h0.104c0.66 0 1.196-0.537 1.196-1.196v-0.646c0-0.66-0.537-1.196-1.196-1.196h-2.185v-0.822c0-0.061 0.041-0.116 0.1-0.134l12.571-3.744c0.793-0.236 1.346-0.978 1.346-1.805v-4.783c0-0.771-0.627-1.398-1.398-1.398zM8.938 9.903c0 0.51-0.415 0.924-0.924 0.924s-0.924-0.415-0.924-0.924v-1.494h1.848v1.494zM11.724 13.771c0 0.51-0.415 0.924-0.924 0.924s-0.924-0.415-0.924-0.924c0-0.653 0-4.752 0-5.362h1.848v5.362zM15.027 3.471c-0.536 0-0.972-0.436-0.972-0.972 0-0.259-0.21-0.469-0.469-0.469s-0.469 0.21-0.469 0.469v4c0 0.536-0.436 0.972-0.972 0.972-3.43 0-3.259 0-6.673 0-0.339 0-0.614-0.275-0.614-0.614v-5.306c0-0.339 0.275-0.614 0.614-0.614h10.526v1.561h0c-0 0.536-0.436 0.972-0.972 0.972zM18.143 17.36c0.14 0 0.259 0.119 0.259 0.259v0.646c0 0.14-0.119 0.259-0.259 0.259-1.898 0-3.302 0-5.222 0-0.14 0-0.259-0.119-0.259-0.259v-0.646c0-0.14 0.118-0.259 0.259-0.259h5.222z"></path>
<path d="M15.398 26.74c-0.867 0-1.572 0.705-1.572 1.572s0.705 1.572 1.572 1.572c0.867 0 1.572-0.705 1.572-1.572s-0.705-1.572-1.572-1.572zM15.399 28.946c-0.35 0-0.634-0.285-0.634-0.634s0.285-0.634 0.634-0.634c0.35-0 0.634 0.285 0.634 0.634s-0.285 0.634-0.634 0.634z"></path>
</svg>
