<!-- Generated by IcoMoon.io -->
<svg version="1.1" xmlns="http://www.w3.org/2000/svg" width="32" height="32" viewBox="0 0 32 32">
<path d="M31.817 5.003c-0.244-0.244-0.64-0.244-0.884 0s-0.244 0.64 0 0.884c0.244 0.244 0.64 0.244 0.884 0s0.244-0.639 0-0.884z"></path>
<path d="M30.049 1.468c-0.244-0.244-0.64-0.244-0.884 0s-0.244 0.64 0 0.884c0.244 0.244 0.64 0.244 0.884 0s0.244-0.639 0-0.884z"></path>
<path d="M25.63 0.584c-0.244-0.244-0.64-0.244-0.884 0s-0.244 0.64 0 0.884c0.244 0.244 0.64 0.244 0.884 0s0.244-0.639 0-0.884z"></path>
<path d="M3.749 27.85c-0.244-0.244-0.64-0.244-0.884 0s-0.244 0.64 0 0.884c0.244 0.244 0.64 0.244 0.884 0s0.244-0.64 0-0.884z"></path>
<path d="M8.83 22.676c-0.247-0.241-0.643-0.236-0.884 0.011l-3.319 3.402c-0.241 0.247-0.236 0.643 0.011 0.884 0.122 0.119 0.279 0.178 0.436 0.178 0.163 0 0.325-0.063 0.447-0.189l3.319-3.402c0.241-0.247 0.236-0.643-0.011-0.884z"></path>
<path d="M29.165 14.726l-2.204-2.204c-0.003-0.003-0.007-0.007-0.010-0.010l-2.642-2.642c-0.003-0.003-0.006-0.006-0.009-0.009l-2.642-2.642c-0.003-0.003-0.006-0.006-0.009-0.009l-2.643-2.643c-0.003-0.003-0.006-0.006-0.009-0.009l-2.205-2.205c-0.117-0.117-0.276-0.183-0.442-0.183s-0.325 0.066-0.442 0.183l-7.955 7.955c-1.218 1.219-1.218 3.201 0 4.419l1.768 1.768c0.118 0.118 0.183 0.275 0.183 0.442s-0.065 0.324-0.183 0.442l-0.872 0.872-7.571 6.781c-0 0-0.001 0.001-0.001 0.001-0.064 0.057-0.123 0.112-0.179 0.168-1.462 1.462-1.462 3.841 0 5.303 0.707 0.707 1.649 1.097 2.652 1.097s1.944-0.389 2.652-1.096c0.057-0.057 0.114-0.117 0.172-0.184 0-0 0-0 0-0s0.001-0.001 0.001-0.001l6.697-7.651 0.869-0.869c0.244-0.244 0.64-0.244 0.884 0l1.768 1.767c0.59 0.591 1.375 0.916 2.21 0.916s1.619-0.325 2.209-0.916l7.955-7.954c0.244-0.244 0.244-0.64 0-0.884zM5.633 29.494v0c-0.041 0.046-0.079 0.087-0.117 0.125-0.471 0.471-1.099 0.73-1.768 0.73s-1.297-0.259-1.768-0.73c-0.975-0.975-0.975-2.561-0-3.535 0.039-0.039 0.080-0.077 0.126-0.118 0.001-0.001 0.001-0.001 0.002-0.002s0.001-0.001 0.002-0.002l7.144-6.398 2.704 2.704-6.325 7.226zM20.326 22.681c-0.354 0.354-0.825 0.549-1.325 0.549s-0.971-0.195-1.326-0.55l-1.768-1.767c-0.731-0.731-1.92-0.731-2.651 0l-0.442 0.442-2.652-2.652 0.442-0.442c0.354-0.354 0.549-0.825 0.549-1.326s-0.195-0.972-0.549-1.326l-1.768-1.768c-0.731-0.731-0.731-1.921-0-2.652l0.442-0.442 11.491 11.491-0.442 0.442zM21.652 21.355l-11.491-11.491 6.187-6.187 1.326 1.326-3.094 3.093c-0.244 0.244-0.244 0.64-0 0.884 0.122 0.122 0.282 0.183 0.442 0.183s0.32-0.061 0.442-0.183l3.094-3.093 1.768 1.768-3.094 3.093c-0.244 0.244-0.244 0.64-0 0.884 0.122 0.122 0.282 0.183 0.442 0.183s0.32-0.061 0.442-0.183l3.094-3.093 1.767 1.767-3.094 3.093c-0.244 0.244-0.244 0.64-0 0.884 0.122 0.122 0.282 0.183 0.442 0.183s0.32-0.061 0.442-0.183l3.094-3.093 1.768 1.768-3.094 3.093c-0.244 0.244-0.244 0.64-0 0.884 0.122 0.122 0.282 0.183 0.442 0.183s0.32-0.061 0.442-0.183l3.094-3.093 1.326 1.326-6.187 6.187z"></path>
<path d="M23.862 2.352c-0.244-0.244-0.64-0.244-0.884 0l-1.767 1.768c-0.244 0.244-0.244 0.64 0 0.884 0.122 0.122 0.282 0.183 0.442 0.183s0.32-0.061 0.442-0.183l1.767-1.768c0.244-0.244 0.244-0.64 0-0.884z"></path>
<path d="M20.326 0.584c-0.244-0.244-0.64-0.244-0.884 0l-0.884 0.884c-0.244 0.244-0.244 0.64 0 0.884 0.122 0.122 0.282 0.183 0.442 0.183s0.32-0.061 0.442-0.183l0.884-0.884c0.244-0.244 0.244-0.64 0-0.884z"></path>
<path d="M28.281 3.236c-0.244-0.244-0.64-0.244-0.884 0l-3.536 3.536c-0.244 0.244-0.244 0.64 0 0.884 0.122 0.122 0.282 0.183 0.442 0.183s0.32-0.061 0.442-0.183l3.536-3.536c0.244-0.244 0.244-0.64 0-0.884z"></path>
<path d="M30.049 6.772c-0.244-0.244-0.64-0.244-0.884-0l-2.652 2.651c-0.244 0.244-0.244 0.64-0 0.884 0.122 0.122 0.282 0.183 0.442 0.183s0.32-0.061 0.442-0.183l2.652-2.651c0.244-0.244 0.244-0.64 0-0.884z"></path>
<path d="M30.933 11.191c-0.244-0.244-0.64-0.244-0.884 0l-0.884 0.884c-0.244 0.244-0.244 0.64 0 0.884 0.122 0.122 0.282 0.183 0.442 0.183s0.32-0.061 0.442-0.183l0.884-0.884c0.244-0.244 0.244-0.64 0-0.884z"></path>
</svg>
