<!-- Generated by IcoMoon.io -->
<svg version="1.1" xmlns="http://www.w3.org/2000/svg" width="32" height="32" viewBox="0 0 32 32">
<path d="M31.564 1.622c-0.918-0.918-2.759-0.394-5.794 1.649-2.578 1.735-5.671 4.364-8.709 7.401-4.503 4.503-7.926 8.924-9.066 11.654-0.188-0.068-0.382-0.122-0.583-0.162-1.179-0.233-2.461 0.065-3.515 0.818-1.513 1.080-1.914 2.623-1.972 2.883-0.319 1.189-0.922 2.324-1.745 3.283-0.265 0.308-0.235 0.772 0.068 1.043 1.058 0.948 2.411 1.424 3.819 1.424 1.357 0 2.764-0.442 4.005-1.328 0.582-0.416 1.023-0.875 1.108-0.966 1.054-1.133 1.502-2.619 1.28-3.977 2.678-0.96 7.347-4.511 12.054-9.219 3.037-3.037 5.666-6.13 7.401-8.709 2.043-3.035 2.566-4.876 1.648-5.794zM8.087 28.301c-0.040 0.043-0.406 0.428-0.883 0.769-1.733 1.238-3.855 1.381-5.397 0.428 0.722-0.99 1.258-2.105 1.566-3.266v-0c0.003-0.013 0.007-0.026 0.009-0.039 0.003-0.012 0.262-1.195 1.382-1.995 0.721-0.515 1.58-0.722 2.357-0.568 0.641 0.127 1.18 0.492 1.517 1.030 0.662 1.055 0.429 2.587-0.553 3.642zM9.951 23.941c-0.015-0.026-0.242-0.486-0.664-0.828 0.364-0.972 1.147-2.287 2.238-3.796l2.341 2.341c-1.647 1.185-2.996 1.958-3.915 2.282zM15.075 20.755l-2.644-2.644c0.457-0.588 0.951-1.197 1.478-1.82l2.988 2.988c-0.632 0.534-1.241 1.027-1.822 1.476zM28.447 6.917c-1.683 2.432-4.165 5.327-6.989 8.151-1.186 1.186-2.335 2.264-3.428 3.231l-3.141-3.141c0.996-1.127 2.082-2.284 3.229-3.43 2.824-2.824 5.719-5.307 8.151-6.99 2.995-2.072 4.028-2.075 4.227-2.048 0.027 0.198 0.024 1.232-2.049 4.227zM7.454 26.282c-0.361-0.199-0.816-0.067-1.015 0.294-0.020 0.037-0.044 0.071-0.072 0.102-0.056 0.058-0.239 0.236-0.43 0.372-0.289 0.207-0.602 0.355-0.928 0.44-0.399 0.104-0.638 0.513-0.534 0.912 0.088 0.336 0.391 0.558 0.722 0.558 0.063 0 0.126-0.008 0.19-0.024 0.503-0.132 0.98-0.357 1.418-0.67 0.281-0.201 0.654-0.568 0.657-0.571 0.111-0.12 0.207-0.254 0.286-0.398 0.199-0.361 0.067-0.816-0.294-1.015z"></path>
</svg>
