<!-- Generated by IcoMoon.io -->
<svg version="1.1" xmlns="http://www.w3.org/2000/svg" width="32" height="32" viewBox="0 0 32 32">
<path d="M32 3.924c0-0.004 0-0.008 0-0.011s-0-0.009-0-0.013c0-0.008 0-0.016-0-0.024-0-0.007-0.001-0.014-0.002-0.021-0-0.001-0-0.002-0-0.003-0-0.004-0-0.008-0.001-0.012s-0.001-0.009-0.002-0.013c-0.001-0.006-0.002-0.013-0.003-0.019-0.002-0.009-0.003-0.018-0.005-0.027-0-0.001-0-0.002-0.001-0.003-0.002-0.006-0.004-0.012-0.005-0.019-0.003-0.009-0.005-0.017-0.008-0.026-0.001-0.004-0.003-0.008-0.005-0.012s-0.003-0.007-0.005-0.011c0-0-0-0-0-0-0.003-0.007-0.006-0.014-0.009-0.021s-0.008-0.015-0.012-0.023c-0.002-0.004-0.004-0.007-0.006-0.011s-0.003-0.006-0.005-0.009c-0.006-0.010-0.013-0.021-0.020-0.031-0.002-0.003-0.004-0.007-0.006-0.010-0-0-0-0-0-0.001s-0.001-0.001-0.001-0.001c-0.006-0.008-0.013-0.017-0.020-0.025-0.004-0.005-0.008-0.010-0.013-0.015-0.002-0.002-0.004-0.004-0.006-0.006-0.003-0.003-0.007-0.006-0.010-0.010-0.007-0.007-0.014-0.014-0.021-0.021-0-0-0.001-0.001-0.001-0.001-0.003-0.003-0.006-0.005-0.009-0.007-0.001-0.001-0.003-0.002-0.004-0.003s-0.004-0.004-0.006-0.006c-0.001-0.001-0.003-0.002-0.004-0.003-0.005-0.004-0.009-0.007-0.014-0.011s-0.009-0.006-0.014-0.010-0.017-0.012-0.027-0.017c-0.007-0.004-0.014-0.007-0.020-0.011s-0.015-0.008-0.022-0.011c-0.003-0.001-0.006-0.003-0.009-0.004-0.002-0.001-0.004-0.002-0.006-0.002-0.003-0.001-0.006-0.003-0.010-0.004-0.006-0.003-0.013-0.005-0.019-0.008s-0.014-0.005-0.021-0.007c-0.004-0.001-0.008-0.002-0.012-0.004s-0.009-0.002-0.013-0.004-0.019-0.004-0.028-0.006c-0.005-0.001-0.010-0.002-0.016-0.003-0.001-0-0.003-0-0.004-0.001-0.009-0.001-0.017-0.002-0.026-0.003-0.007-0.001-0.015-0.002-0.022-0.002-0.003-0-0.007-0-0.010-0s-0.008 0-0.012 0c-0.001 0-0.001 0-0.002 0-0.008 0-0.017-0-0.025 0-0.007 0-0.013 0.001-0.020 0.002-0.004 0-0.009 0.001-0.013 0.001s-0.010 0.001-0.015 0.002c-0.007 0.001-0.013 0.002-0.020 0.004-0.008 0.002-0.017 0.003-0.025 0.005-0.001 0-0.002 0.001-0.003 0.001-0.007 0.002-0.014 0.004-0.021 0.006-0.008 0.002-0.017 0.005-0.025 0.008-0.004 0.001-0.008 0.003-0.012 0.005-0.001 0-0.002 0.001-0.003 0.001l-31 12c-0.193 0.075-0.32 0.26-0.32 0.467s0.128 0.392 0.321 0.466l9.242 3.555 2.962 9.133c0 0.001 0.001 0.002 0.002 0.004 0.001 0.003 0.002 0.005 0.002 0.008 0.007 0.020 0.016 0.039 0.025 0.058 0.002 0.004 0.004 0.008 0.006 0.012 0.009 0.017 0.020 0.034 0.031 0.051 0.002 0.002 0.003 0.005 0.004 0.007 0.001 0.001 0.002 0.002 0.002 0.003s0.002 0.002 0.003 0.003c0.004 0.005 0.008 0.010 0.012 0.015s0.009 0.012 0.014 0.018c0.004 0.004 0.008 0.008 0.012 0.012 0.002 0.002 0.004 0.004 0.006 0.006s0.006 0.006 0.008 0.009c0.003 0.003 0.006 0.006 0.009 0.009s0.006 0.005 0.009 0.008c0.010 0.008 0.019 0.017 0.030 0.024 0.001 0 0.001 0.001 0.002 0.002s0.002 0.001 0.003 0.002 0.006 0.004 0.009 0.006c0.016 0.011 0.033 0.021 0.050 0.031 0.003 0.002 0.006 0.003 0.008 0.005 0.001 0 0.002 0.001 0.003 0.001 0.017 0.008 0.033 0.016 0.051 0.022 0.004 0.001 0.008 0.002 0.011 0.004 0.005 0.002 0.010 0.003 0.015 0.005 0.021 0.007 0.043 0.012 0.065 0.015 0.001 0 0.002 0 0.003 0.001 0.002 0 0.004 0 0.006 0.001 0.024 0.003 0.048 0.006 0.072 0.006 0 0 0 0 0 0v0c0 0 0 0 0 0 0.002 0 0.004-0 0.006-0 0.021-0 0.041-0.002 0.061-0.005 0.003-0 0.006-0 0.009-0.001 0.004-0.001 0.009-0.002 0.013-0.003 0.016-0.003 0.031-0.006 0.047-0.011 0.005-0.001 0.010-0.002 0.015-0.004 0.001-0 0.002-0 0.003-0.001 0.002-0.001 0.005-0.002 0.007-0.003 0.007-0.003 0.015-0.006 0.022-0.008 0.010-0.004 0.019-0.008 0.029-0.012 0.001-0.001 0.003-0.001 0.004-0.002s0.002-0.001 0.003-0.001c0.005-0.002 0.009-0.005 0.014-0.007 0.010-0.005 0.019-0.010 0.028-0.016 0.006-0.004 0.012-0.008 0.018-0.012 0-0 0-0 0-0 0.002-0.001 0.004-0.002 0.005-0.003 0.008-0.006 0.016-0.012 0.024-0.018 0.005-0.004 0.009-0.007 0.014-0.011s0.010-0.009 0.014-0.013c0.004-0.003 0.007-0.007 0.011-0.010 0.015-0.015 0.030-0.031 0.043-0.047 0.001-0.001 0.002-0.003 0.003-0.004s0.003-0.004 0.004-0.006c0.001-0.001 0.002-0.003 0.003-0.004l3.654-4.937c0.164-0.222 0.117-0.535-0.105-0.699s-0.535-0.117-0.699 0.105l-1.587 2.145 1.262-3.444 11.942 4.533c0.057 0.022 0.117 0.033 0.177 0.033 0.087 0 0.174-0.023 0.252-0.068 0.13-0.076 0.219-0.207 0.242-0.356l3.455-22.532c0-0.001 0-0.002 0-0.003 0.001-0.008 0.002-0.017 0.003-0.025s0.002-0.015 0.002-0.023zM28.098 5.753l-14.282 10.372c-0.223 0.162-0.273 0.475-0.111 0.698 0.098 0.135 0.25 0.206 0.405 0.206 0.102 0 0.205-0.031 0.293-0.096l13.643-9.909-12.768 14.337c-0.050 0.049-0.090 0.109-0.116 0.178-0.005 0.012-0.008 0.024-0.011 0.036l-2.121 5.791-2.588-7.982c-0.048-0.149-0.16-0.26-0.296-0.312-0.001-0-0.001-0.001-0.002-0.001l-8.254-3.175 26.209-10.145zM27.645 25.744l-11.158-4.235 14.263-16.015-3.105 20.251zM11.594 18.857c0.102 0 0.205-0.031 0.293-0.096l0.972-0.706c0.223-0.162 0.273-0.475 0.111-0.698s-0.475-0.273-0.698-0.111l-0.972 0.706c-0.223 0.162-0.273 0.475-0.111 0.698 0.098 0.135 0.25 0.206 0.405 0.206z"></path>
</svg>
