<!-- Generated by IcoMoon.io -->
<svg version="1.1" xmlns="http://www.w3.org/2000/svg" width="35" height="32" viewBox="0 0 35 32">
<path d="M34.419 17.093c-0.234 0-0.39 0.156-0.39 0.39v3.044c0 0.234 0.156 0.39 0.39 0.39s0.39-0.156 0.39-0.39v-3.044c0-0.156-0.156-0.39-0.39-0.39z"></path>
<path d="M34.419 14.049c-0.234 0-0.39 0.156-0.39 0.39v0.546c0 0.234 0.156 0.39 0.39 0.39s0.39-0.156 0.39-0.39v-0.546c0-0.234-0.156-0.39-0.39-0.39z"></path>
<path d="M34.419 11.005c-0.234 0-0.39 0.156-0.39 0.39v0.546c0 0.234 0.156 0.39 0.39 0.39s0.39-0.156 0.39-0.39v-0.546c0-0.156-0.156-0.39-0.39-0.39z"></path>
<path d="M13.737 14.595c0 1.249 1.015 2.185 2.263 2.185s2.263-1.015 2.263-2.185c0-1.249-1.015-2.263-2.263-2.263s-2.263 1.015-2.263 2.263zM17.405 14.595c0 0.78-0.624 1.405-1.405 1.405s-1.483-0.624-1.483-1.405 0.624-1.483 1.483-1.483 1.405 0.624 1.405 1.483z"></path>
<path d="M21.385 26.459l-1.795 1.795c-0.156 0.156-0.156 0.39 0 0.546 0.078 0.078 0.156 0.078 0.312 0.078s0.234 0 0.312-0.078l0.859-0.859c-0.156 1.795-1.639 3.2-3.512 3.2h-9.132c-1.951 0-3.512-1.561-3.512-3.512v-2.263h0.937c0.234 0 0.39-0.156 0.39-0.39s-0.156-0.39-0.39-0.39h-2.341c-1.483 0.078-2.732-1.171-2.732-2.732v-11.707c0-1.561 1.249-2.732 2.732-2.732h13.737c0.234 0 0.39-0.156 0.39-0.39s-0.156-0.39-0.39-0.39h-13.737c-1.951-0.078-3.512 1.561-3.512 3.512v11.707c0 1.951 1.561 3.59 3.512 3.59h0.546v2.263c0 2.341 1.951 4.293 4.293 4.293h9.054c2.263 0 4.137-1.795 4.293-4.059l0.937 0.937c0.156 0.156 0.39 0.156 0.546 0s0.156-0.39 0-0.546l-1.795-1.873z"></path>
<path d="M26.146 6.556h-0.546v-2.263c0-2.341-1.951-4.293-4.293-4.293h-9.132c-2.263 0-4.137 1.795-4.293 3.981l-0.859-0.859c-0.156-0.156-0.39-0.156-0.546 0s-0.156 0.39 0 0.546l1.795 1.795 1.795-1.795c0.156-0.156 0.156-0.39 0-0.546s-0.39-0.156-0.546 0l-0.859 0.859c0.234-1.795 1.717-3.2 3.512-3.2h9.054c1.951 0 3.512 1.561 3.512 3.512v2.263h-2.029c-0.234 0-0.39 0.156-0.39 0.39s0.156 0.39 0.39 0.39h3.356c1.561 0 2.732 1.249 2.732 2.732v7.571l-2.263-2.498-4.839 6.010-3.59-2.966-6.712 6.478h-1.795c-0.234 0-0.39 0.156-0.39 0.39s0.156 0.39 0.39 0.39h16.468c1.951 0 3.512-1.561 3.512-3.512v-11.785c0.078-1.951-1.483-3.59-3.434-3.59zM26.146 24.663h-13.502l5.62-5.385 3.668 3.044 4.761-5.932 2.263 2.419v3.044c-0.078 1.561-1.327 2.81-2.81 2.81z"></path>
</svg>
