<!-- Generated by IcoMoon.io -->
<svg version="1.1" xmlns="http://www.w3.org/2000/svg" width="32" height="32" viewBox="0 0 32 32">
<path d="M15.965 0c-8.504 0-15.303 3.871-15.927 12.456-0.41 5.662 2.675 8.167 3.020 8.759l5.045-3.989c-0.242-0.472-1.781-2.364-1.66-4.528 0.169-3.052 3.804-6.843 9.415-6.85 5.686 0 9.511 3.808 9.515 7.364 0.005 3.707-3.475 4.958-5.316 5.102-1.153 0.090-2.205-0.157-2.747-0.643-0.243-0.218-0.362-0.462-0.374-0.765v-7.532l-5.625 0.010v13.048c-0.036 3.389-1.861 3.654-2.416 3.655-0.492-0.001-1.028-0.245-1.648-0.527l-1.352-0.611c-0.197 2.127-0.275 2.839-0.27 3.633 0.004 0.677 0.012 2.085 1.353 2.678 1.093 0.484 2.276 0.739 3.426 0.739 4.762-0.007 6.459-3.722 6.533-8.521l0-0.081c0.928 0.186 2.095 0.383 3.377 0.355 5.487-0.12 10.863-4.198 11.596-9.814 1.078-8.26-7.549-13.937-15.944-13.937zM30.049 13.694c-0.645 4.936-5.577 8.091-9.778 8.183-1.304 0.028-2.488-0.218-3.439-0.416-0.233-0.049-0.454-0.094-0.662-0.133l-1.11-0.208v2.336c-0.094 5.969-2.705 6.664-4.664 6.667-0.873 0-1.818-0.206-2.661-0.579-0.103-0.045-0.231-0.102-0.236-0.975-0.002-0.273 0.011-0.556 0.032-0.862 0.428 0.148 0.877 0.251 1.363 0.253 0.456-0 1.627-0.103 2.658-1.040 1.064-0.968 1.614-2.473 1.635-4.476v-11.19l1.875-0.003v5.67l0 0.027c0.024 0.822 0.368 1.553 0.995 2.117 0.938 0.843 2.449 1.25 4.146 1.117 3.697-0.288 7.051-2.875 7.045-6.973-0.006-4.523-4.585-9.236-11.392-9.236-6.619 0.009-11.061 4.579-11.286 8.621-0.075 1.346 0.276 2.723 1.071 4.188l-2.269 1.794c-1.166-1.723-1.633-3.648-1.464-5.985 0.703-9.673 10.065-10.717 14.057-10.717 7.158 0 15.012 4.717 14.085 11.819z"></path>
</svg>
