<!-- Generated by IcoMoon.io -->
<svg version="1.1" xmlns="http://www.w3.org/2000/svg" width="32" height="32" viewBox="0 0 32 32">
<path d="M29.85 8.403c-2.136-3.7-5.585-6.346-9.711-7.452s-8.436-0.538-12.136 1.598c-3.7 2.136-6.346 5.585-7.452 9.711s-0.538 8.436 1.598 12.136c2.136 3.7 5.585 6.346 9.711 7.452 1.378 0.369 2.776 0.552 4.165 0.552 2.771-0 5.506-0.727 7.971-2.15 3.7-2.136 6.346-5.585 7.452-9.711s0.538-8.436-1.598-12.136zM29.839 20.108c-0.991 3.697-3.361 6.786-6.676 8.7s-7.175 2.422-10.872 1.431c-3.697-0.991-6.786-3.361-8.7-6.676s-2.422-7.175-1.431-10.872c0.991-3.697 3.361-6.786 6.676-8.7 2.208-1.275 4.658-1.926 7.141-1.926 1.244 0 2.497 0.164 3.732 0.494 3.697 0.991 6.786 3.361 8.7 6.676s2.422 7.175 1.431 10.872zM13.169 8.72h-2.070c-0.918 0-1.665 0.747-1.665 1.665v12.029c0 0.918 0.747 1.666 1.665 1.666h2.070c0.918 0 1.665-0.747 1.665-1.666v-12.029c0-0.918-0.747-1.665-1.665-1.665zM13.169 22.415h-2.070v-12.029h2.070l0.001 12.029c0 0-0 0-0.001 0zM20.901 8.72h-2.070c-0.918 0-1.666 0.747-1.666 1.665v12.029c0 0.918 0.747 1.666 1.666 1.666h2.070c0.918 0 1.666-0.747 1.666-1.666v-12.029c0-0.918-0.747-1.665-1.666-1.665zM20.901 22.415h-2.070v-12.029h2.070l0.001 12.029c0 0-0 0-0.001 0z"></path>
</svg>
