<!-- Generated by IcoMoon.io -->
<svg version="1.1" xmlns="http://www.w3.org/2000/svg" width="32" height="32" viewBox="0 0 32 32">
<path d="M4.8 19.2c-1.794 0-3.2-2.116-3.2-4.817s1.406-4.817 3.2-4.817 3.2 2.116 3.2 4.817-1.406 4.817-3.2 4.817zM4.8 11.165c-0.755 0-1.6 1.376-1.6 3.217s0.845 3.217 1.6 3.217 1.6-1.376 1.6-3.217-0.845-3.217-1.6-3.217zM11.197 12.8c-1.793 0-3.197-2.108-3.197-4.8s1.404-4.8 3.197-4.8 3.197 2.108 3.197 4.8-1.404 4.8-3.197 4.8zM11.197 4.8c-0.754 0-1.597 1.369-1.597 3.2s0.843 3.2 1.597 3.2 1.597-1.369 1.597-3.2-0.843-3.2-1.597-3.2zM19.2 12.8c-1.794 0-3.2-2.108-3.2-4.8s1.406-4.8 3.2-4.8 3.2 2.108 3.2 4.8-1.406 4.8-3.2 4.8zM19.2 4.8c-0.755 0-1.6 1.369-1.6 3.2s0.845 3.2 1.6 3.2 1.6-1.369 1.6-3.2-0.845-3.2-1.6-3.2zM25.6 19.2c-1.794 0-3.2-2.116-3.2-4.817s1.406-4.817 3.2-4.817 3.2 2.116 3.2 4.817-1.406 4.817-3.2 4.817zM25.6 11.165c-0.755 0-1.6 1.376-1.6 3.217s0.845 3.217 1.6 3.217 1.6-1.376 1.6-3.217-0.845-3.217-1.6-3.217zM20.8 28.8c-1.389 0-2.328-0.47-3.156-0.884-0.768-0.384-1.431-0.716-2.444-0.716-1.009 0-1.672 0.331-2.44 0.715-0.83 0.415-1.77 0.885-3.16 0.885-0.889 0-1.727-0.484-2.299-1.329-1.003-1.482-1.019-3.73-0.044-6.168 1.755-4.387 4.65-6.903 7.943-6.903s6.188 2.516 7.943 6.903c0.975 2.438 0.959 4.686-0.044 6.168-0.572 0.845-1.41 1.329-2.299 1.329zM15.2 25.6c1.391 0 2.331 0.47 3.16 0.885 0.767 0.384 1.429 0.715 2.44 0.715 0.349 0 0.704-0.228 0.974-0.626 0.691-1.020 0.647-2.768-0.116-4.677-1.499-3.748-3.853-5.897-6.457-5.897s-4.958 2.149-6.457 5.897c-0.763 1.909-0.807 3.657-0.117 4.677 0.269 0.398 0.624 0.626 0.974 0.626 1.012 0 1.676-0.332 2.444-0.716 0.829-0.414 1.769-0.884 3.156-0.884z"></path>
</svg>
