<!-- Generated by IcoMoon.io -->
<svg version="1.1" xmlns="http://www.w3.org/2000/svg" width="32" height="32" viewBox="0 0 32 32">
<path d="M31.831 4.638l-4.070-4.070c-0.108-0.108-0.254-0.169-0.407-0.169s-0.299 0.061-0.407 0.169l-1.546 1.546-0.244-0.244c-0.225-0.225-0.589-0.225-0.814 0l-20.107 20.107c-2.295 2.295-3.489 5.442-3.301 8.673l-0.767 0.767c-0.225 0.225-0.225 0.589 0 0.814 0.112 0.112 0.26 0.169 0.407 0.169s0.295-0.056 0.407-0.169l0.767-0.767c0.221 0.013 0.442 0.020 0.663 0.020 2.995 0 5.873-1.183 8.010-3.321l19.7-19.7 0.116 0.116c0.165 0.165 0.255 0.383 0.255 0.616s-0.091 0.452-0.255 0.616l-7.001 7.001c-0.715 0.715-0.971 1.759-0.669 2.724 0.077 0.246 0.304 0.403 0.549 0.403 0.057 0 0.115-0.009 0.172-0.027 0.303-0.095 0.472-0.418 0.377-0.721-0.174-0.555-0.027-1.155 0.384-1.566l7.001-7.001c0.382-0.382 0.593-0.89 0.593-1.43s-0.21-1.048-0.593-1.43l-0.767-0.767 1.546-1.547c0.225-0.225 0.225-0.589 0-0.814zM2.073 30.327c-0.087-2.621 0.837-5.163 2.583-7.117l4.535 4.535c-1.954 1.746-4.496 2.669-7.117 2.583zM10.016 26.942l-4.558-4.558 9.595-9.595 4.558 4.558-9.595 9.595zM21.752 15.206l-1.524-1.524c-0.225-0.225-0.589-0.225-0.814 0s-0.225 0.589 0 0.814l1.524 1.524-0.513 0.513-4.558-4.558 0.513-0.513 0.418 0.418c0.112 0.112 0.26 0.169 0.407 0.169s0.295-0.056 0.407-0.169c0.225-0.225 0.225-0.589 0-0.814l-0.418-0.418 7.556-7.556 4.558 4.558-7.556 7.556zM29.471 6.185l-3.256-3.256 1.139-1.139 3.256 3.256-1.139 1.139zM18.854 12.324c-0.441-0.291-1.024 0.138-0.87 0.645 0.070 0.231 0.282 0.395 0.522 0.408s0.467-0.133 0.56-0.355c0.104-0.248 0.013-0.55-0.212-0.698zM18.854 12.324c0.031 0.021-0.031-0.021 0 0v0z"></path>
</svg>
