<!-- Generated by IcoMoon.io -->
<svg version="1.1" xmlns="http://www.w3.org/2000/svg" width="29" height="32" viewBox="0 0 29 32">
<path d="M19.6 2.56c-1.68 0-3.2 0.64-4.32 1.84l-0.56 0.56-0.56-0.56c-1.2-1.2-2.72-1.84-4.32-1.84-3.36 0-6.16 2.8-6.16 6.16 0 1.68 0.64 3.2 1.84 4.4l5.44 5.44-2.96 6h0.8c1.68 0 3.040 1.2 3.36 2.88h-1.2v1.040h0.64v3.52h6.4v-3.6h0.64v-1.040h-1.2c0.24-1.6 1.68-2.88 3.36-2.88h0.8l-2.96-6 5.44-5.44c1.2-1.2 1.84-2.72 1.84-4.32-0.16-3.36-2.88-6.16-6.32-6.16zM16.88 30.96h-4.32v-2.56h4.32v2.56zM16.32 27.36h-3.2c-0.24-1.92-1.68-3.44-3.6-3.84l4.64-9.28v5.76c-0.72 0.24-1.2 0.88-1.2 1.6 0 0.96 0.8 1.68 1.68 1.68 0.96 0 1.68-0.8 1.68-1.68 0-0.8-0.48-1.44-1.2-1.6v-5.68l4.64 9.28c-1.76 0.32-3.2 1.84-3.44 3.76zM14.72 20.96c0.4 0 0.64 0.32 0.64 0.64 0 0.4-0.32 0.64-0.64 0.64-0.4 0-0.64-0.32-0.64-0.64s0.24-0.64 0.64-0.64zM23.28 12.4l-5.28 5.2-3.28-6.64-3.28 6.64-5.2-5.2c-0.96-0.96-1.52-2.24-1.52-3.6 0-2.8 2.32-5.12 5.12-5.12 1.36 0 2.64 0.56 3.6 1.52l1.28 1.2 1.28-1.28c0.96-0.96 2.24-1.52 3.6-1.52 2.8 0 5.12 2.32 5.12 5.12 0 1.36-0.48 2.72-1.44 3.68zM28.24 7.12c-0.8-4.080-4.4-7.12-8.64-7.12-1.76 0-3.44 0.48-4.88 1.52-1.44-1.040-3.12-1.52-4.88-1.52-4.24 0-7.84 3.040-8.64 7.12h-1.2v3.2h3.2v-3.2h-0.96c0.72-3.52 3.92-6.080 7.52-6.080 1.68 0 3.28 0.56 4.56 1.52l0.32 0.24 0.32-0.24c1.36-0.96 2.96-1.52 4.56-1.52 3.68 0 6.8 2.56 7.52 6.080h-0.88v3.2h3.2v-3.2h-1.12zM2.16 9.28h-1.12v-1.12h1.12v1.12zM28.4 9.28h-1.12v-1.12h1.12v1.12z"></path>
</svg>
