<!-- Generated by IcoMoon.io -->
<svg version="1.1" xmlns="http://www.w3.org/2000/svg" width="32" height="32" viewBox="0 0 32 32">
<path d="M29.84 22.72c0-0.080-0.080-0.16-0.16-0.24l-6.4-6.48c0 0 8.16-8.16 8.16-8.16 0.72-0.72 0.72-2 0-2.72l-4.64-4.64c-0.72-0.72-2-0.72-2.72 0l-3.6 3.6c-0.16 0.16-0.16 0.48 0 0.64s0.48 0.16 0.64 0l3.68-3.52c0.4-0.4 1.040-0.4 1.36 0l4.64 4.64c0.4 0.4 0.4 1.040 0 1.36l-3.28 3.28-2.4-2.4c-0.16-0.16-0.48-0.16-0.64 0s-0.16 0.48 0 0.64l2.4 2.4-0.56 0.56-1.44-1.44c-0.16-0.16-0.48-0.16-0.64 0s-0.16 0.48 0 0.64l1.44 1.44-0.56 0.56-1.44-1.44c-0.16-0.16-0.48-0.16-0.64 0s-0.16 0.48 0 0.64l1.44 1.44-0.56 0.56-1.68-1.28c-0.16-0.16-0.48-0.16-0.64 0s-0.16 0.48 0 0.64l1.44 1.44-0.48 0.48-6-6 3.28-3.28c0.16-0.16 0.16-0.48 0-0.64s-0.48-0.16-0.64 0l-3.28 3.28-0.48-0.48c0.16-0.24 0.16-0.48 0.16-0.8 0-0.4-0.16-0.88-0.48-1.12-0.48-0.48-1.28-0.64-1.92-0.32l-1.6-1.6c0.16-0.24 0.16-0.48 0.16-0.8 0-0.4-0.16-0.88-0.48-1.12-0.48-0.48-1.28-0.64-1.92-0.32 0 0-0.88-0.88-0.88-0.88-1.040-1.040-2.72-1.040-3.68 0l-3.52 3.6c-1.040 1.040-1.040 2.64 0 3.68l0.88 0.88c-0.32 0.64-0.24 1.36 0.32 1.92 0.48 0.48 1.28 0.64 1.92 0.32l1.6 1.6c-0.32 0.64-0.24 1.36 0.32 1.92 0.48 0.48 1.28 0.64 1.92 0.32l0.48 0.48c0 0-8.16 8.16-8.16 8.16-0.72 0.72-0.72 2 0 2.72l4.64 4.64c0.32 0.32 0.8 0.48 1.28 0.48s0.96-0.16 1.36-0.56l8.16-8.16 2.56 2.56c0.16 0.16 0.48 0.16 0.64 0s0.16-0.48 0-0.64l-10.4-10.4 5.92-5.92 13.6 13.52-2.080 0.080c-0.24 0-0.4 0.24-0.48 0.48l-0.16 2.72c0 0-2.72 0.16-2.72 0.16-0.24 0-0.4 0.24-0.48 0.48v2l-1.84-1.84c-0.16-0.16-0.48-0.16-0.64 0s-0.16 0.48 0 0.64c0 0 2.56 2.56 2.56 2.56 0.080 0.080 0.16 0.080 0.24 0.16 0 0 3.76 0.96 3.76 0.96s2.16 0.56 2.16 0.56c0.8 0.24 1.68-0.24 2.16-0.8 0.4-0.48 0.72-1.28 0.56-2l-1.52-5.84zM2 7.92c-0.64-0.64-0.64-1.68 0-2.4 0 0 3.52-3.52 3.52-3.52 0.64-0.64 1.68-0.64 2.4 0l0.8 0.8-5.92 5.92-0.8-0.8zM4.080 10.64c-0.24 0.24-0.72 0.24-0.96 0s-0.24-0.72 0-0.96c0 0 6.56-6.56 6.56-6.56 0.24-0.24 0.72-0.24 0.96 0s0.24 0.72 0 0.96c0 0-6.56 6.56-6.56 6.56zM5.12 11.040l5.92-5.92 1.52 1.52-5.92 5.92-1.52-1.52zM9.36 16.64l6 6-0.4 0.4-2.4-2.4c-0.16-0.16-0.48-0.16-0.64 0s-0.16 0.48 0 0.64l2.4 2.4-0.56 0.56-1.44-1.44c-0.16-0.16-0.48-0.16-0.64 0s-0.16 0.48 0 0.64l1.44 1.44-0.56 0.56-1.52-1.44c-0.16-0.16-0.48-0.16-0.64 0s-0.16 0.48 0 0.64l1.44 1.44-0.56 0.56-1.44-1.44c-0.16-0.16-0.48-0.16-0.64 0s-0.16 0.48 0 0.64l1.44 1.44-0.64 0.72-1.44-1.44c-0.16-0.16-0.48-0.16-0.64 0s-0.16 0.48 0 0.64l1.44 1.44-0.56 0.56-2.4-2.4c-0.16-0.16-0.48-0.16-0.64 0s-0.16 0.48 0 0.64l2.4 2.4c0 0-0.88 0.88-0.88 0.88-0.4 0.4-1.040 0.4-1.36 0l-4.64-4.64c-0.16-0.16-0.32-0.4-0.32-0.72 0-0.24 0.080-0.48 0.32-0.72l8.080-8zM14.48 7.92c0 0-6.56 6.56-6.56 6.56-0.24 0.24-0.72 0.24-0.96 0s-0.24-0.72 0-0.96c0 0 6.56-6.56 6.56-6.56 0.24-0.24 0.72-0.24 0.96 0 0.32 0.24 0.32 0.72 0 0.96zM26.4 29.84l-3.12-0.8 0.16-2.32 2.72-0.16c0.24 0 0.4-0.24 0.48-0.48l0.16-2.72 2.32-0.16 0.8 3.12-3.52 3.52zM30.16 30c-0.32 0.4-0.8 0.56-1.28 0.48l-1.36-0.32 2.64-2.64 0.32 1.36c0.080 0.4-0.080 0.8-0.32 1.12zM27.6 4.4c-0.72-0.72-1.84-0.72-2.56 0s-0.72 1.84 0 2.56c0.32 0.32 0.8 0.56 1.28 0.56s0.96-0.16 1.28-0.56c0.72-0.72 0.72-1.84 0-2.56zM26.88 6.32c-0.32 0.32-0.88 0.32-1.2 0s-0.32-0.88 0-1.2c0.16-0.24 0.4-0.32 0.64-0.32s0.48 0.080 0.64 0.24c0.32 0.4 0.32 0.96-0.080 1.28z"></path>
</svg>
