<!-- Generated by IcoMoon.io -->
<svg version="1.1" xmlns="http://www.w3.org/2000/svg" width="32" height="32" viewBox="0 0 32 32">
<path d="M31.29 3.89l-2.781-2.781c-0.945-0.945-2.482-0.945-3.426 0l-22.359 22.359c-0.065 0.065-0.113 0.144-0.141 0.232l-2.555 7.946c-0.066 0.206-0.012 0.432 0.141 0.585 0.11 0.11 0.258 0.169 0.409 0.169 0.059 0 0.119-0.009 0.177-0.028l7.946-2.555c0.087-0.028 0.167-0.077 0.232-0.141l22.358-22.359c0.458-0.458 0.71-1.066 0.71-1.713s-0.252-1.256-0.71-1.713zM22.638 5.187l0.596 0.596-18.689 18.689-0.596-0.596 18.689-18.689zM24.051 6.6l1.749 1.749-18.689 18.689-1.749-1.749 18.689-18.689zM1.472 30.928l0.834-2.594c0.377 0.186 0.72 0.431 1.024 0.735s0.549 0.648 0.736 1.025l-2.595 0.834zM5.177 29.736c-0.249-0.551-0.594-1.049-1.029-1.484-0.429-0.429-0.935-0.778-1.485-1.028l0.73-2.271 4.053 4.053-2.269 0.73zM8.523 28.45l-0.596-0.596 18.689-18.689 0.596 0.596-18.689 18.689zM30.474 6.5l-1.11 1.111-1.529-1.529c-0.226-0.226-0.591-0.226-0.817 0s-0.226 0.591 0 0.817l1.529 1.53-0.517 0.517-4.574-4.574 0.517-0.517 0.42 0.42c0.113 0.113 0.261 0.169 0.408 0.169s0.296-0.056 0.408-0.169c0.226-0.226 0.226-0.591 0-0.817l-0.42-0.42 1.11-1.11c0.494-0.494 1.298-0.494 1.793 0l2.781 2.781c0.239 0.239 0.371 0.558 0.371 0.896s-0.132 0.657-0.371 0.896zM26.668 4.977c0.015 0.035-0.014-0.035 0 0v0zM26.615 4.878c-0.021-0.032-0.045-0.062-0.072-0.088-0.217-0.223-0.6-0.223-0.816 0-0.223 0.217-0.223 0.599 0 0.816 0.217 0.223 0.6 0.223 0.816 0 0.165-0.16 0.214-0.419 0.125-0.629-0.014-0.035-0.032-0.069-0.053-0.099z"></path>
</svg>
