<!-- Generated by IcoMoon.io -->
<svg version="1.1" xmlns="http://www.w3.org/2000/svg" width="32" height="32" viewBox="0 0 32 32">
<path d="M30.566 1.434c-0.899-0.899-2.094-1.394-3.366-1.394s-2.467 0.495-3.366 1.394l-20.4 20.4c-0.083 0.083-0.146 0.182-0.186 0.292l-3.2 8.8c-0.106 0.292-0.034 0.619 0.186 0.839 0.153 0.153 0.357 0.234 0.566 0.234 0.092 0 0.184-0.016 0.273-0.048l8.8-3.2c0.11-0.040 0.21-0.104 0.292-0.186l20.4-20.4c0.899-0.899 1.394-2.094 1.394-3.366s-0.495-2.467-1.394-3.366zM9.16 27.309l-7.022 2.553 2.553-7.022 17.709-17.709 4.469 4.469-17.709 17.709zM29.434 7.034l-1.434 1.434-4.469-4.469 1.434-1.434c0.597-0.597 1.39-0.925 2.234-0.925s1.637 0.329 2.234 0.925c0.597 0.597 0.925 1.39 0.925 2.234s-0.329 1.638-0.925 2.234z"></path>
</svg>
