<!-- Generated by IcoMoon.io -->
<svg version="1.1" xmlns="http://www.w3.org/2000/svg" width="32" height="32" viewBox="0 0 32 32">
<path d="M0 31.439l31.016-31.016 0.941 0.941-31.016 31.016-0.941-0.941zM6.973 14.287c3.829 0 6.933-3.105 6.933-6.933s-3.105-6.933-6.933-6.933-6.933 3.105-6.933 6.933 3.105 6.933 6.933 6.933zM6.973 1.731c3.105 0 5.622 2.518 5.622 5.622s-2.518 5.622-5.622 5.622-5.622-2.518-5.622-5.622 2.518-5.622 5.622-5.622zM25.067 18.513c-3.829 0-6.933 3.105-6.933 6.933s3.105 6.933 6.933 6.933 6.933-3.105 6.933-6.933-3.105-6.933-6.933-6.933zM25.067 31.069c-3.105 0-5.622-2.518-5.622-5.622s2.518-5.622 5.622-5.622 5.622 2.518 5.622 5.622-2.518 5.622-5.622 5.622z"></path>
</svg>
