<!-- Generated by IcoMoon.io -->
<svg version="1.1" xmlns="http://www.w3.org/2000/svg" width="32" height="32" viewBox="0 0 32 32">
<path d="M16 0c-6.72 0-12.188 5.467-12.188 12.188 0 5.053 5.526 13.588 8.938 17.423 1.874 2.106 2.694 2.39 3.249 2.39s1.375-0.284 3.249-2.39c3.408-3.83 8.938-12.368 8.938-17.423 0-6.72-5.467-12.188-12.188-12.188zM18.149 28.020c-1.271 1.48-1.92 1.936-2.149 2.067-0.229-0.131-0.877-0.588-2.149-2.067-3.306-3.848-8.164-11.612-8.164-15.833 0-5.686 4.626-10.313 10.313-10.313s10.313 4.626 10.313 10.313c0 4.192-4.803 11.922-8.164 15.833z"></path>
<path d="M16 3.75c-4.652 0-8.438 3.785-8.438 8.438s3.785 8.438 8.438 8.438 8.438-3.785 8.438-8.438-3.785-8.438-8.438-8.438zM12.576 6.591c0.886 0.154 1.549 0.921 1.549 1.847 0 1.034-0.841 1.875-1.875 1.875-0.925 0-1.693-0.663-1.847-1.549 0.543-0.884 1.289-1.63 2.173-2.173zM16 18.75c-3.619 0-6.563-2.944-6.563-6.563 0-0.393 0.035-0.779 0.102-1.153 0.683 0.712 1.644 1.153 2.711 1.153 2.068 0 3.75-1.682 3.75-3.75 0-1.067-0.441-2.028-1.153-2.711 0.374-0.067 0.76-0.102 1.153-0.102 3.619 0 6.563 2.944 6.563 6.563s-2.944 6.563-6.563 6.563z"></path>
</svg>
