<!-- Generated by IcoMoon.io -->
<svg version="1.1" xmlns="http://www.w3.org/2000/svg" width="32" height="32" viewBox="0 0 32 32">
<path d="M25.719 32.4c-1.331 0-2.939-0.334-4.708-1.001-3.877-1.462-8.095-4.35-11.877-8.133-3.783-3.783-6.672-8.002-8.135-11.879-1.329-3.525-1.332-6.418-0.008-7.742 0.191-0.191 0.384-0.395 0.584-0.606 1.209-1.271 2.575-2.702 4.385-2.637 1.247 0.052 2.456 0.827 3.694 2.367 3.657 4.549 2.008 6.169 0.1 8.049l-0.337 0.334c-0.312 0.312-0.902 1.758 4.585 7.245 1.791 1.791 3.318 3.102 4.539 3.895 0.768 0.499 2.143 1.255 2.707 0.691l0.339-0.342c1.877-1.904 3.498-3.548 8.043 0.107 1.54 1.238 2.314 2.445 2.366 3.695 0.074 1.809-1.367 3.178-2.639 4.386-0.21 0.2-0.414 0.394-0.605 0.583-0.658 0.659-1.709 0.989-3.034 0.989zM5.832 1.476c-1.286 0-2.448 1.223-3.475 2.304-0.207 0.217-0.407 0.428-0.604 0.625-0.987 0.986-0.887 3.577 0.254 6.602 1.41 3.737 4.212 7.821 7.889 11.498 3.677 3.676 7.758 6.477 11.496 7.886 3.026 1.143 5.616 1.24 6.601 0.255 0.197-0.197 0.408-0.397 0.625-0.603 1.105-1.050 2.359-2.241 2.304-3.562-0.038-0.907-0.699-1.884-1.964-2.901-3.788-3.046-4.847-1.971-6.603-0.189l-0.344 0.348c-0.84 0.841-2.203 0.654-4.055-0.549-1.284-0.835-2.871-2.194-4.713-4.037-4.554-4.553-6.010-7.339-4.585-8.768l0.343-0.339c1.786-1.757 2.863-2.817-0.184-6.606-1.019-1.265-1.994-1.926-2.902-1.964-0.028-0.001-0.056-0.001-0.084-0.001z"></path>
</svg>
