<!-- Generated by IcoMoon.io -->
<svg version="1.1" xmlns="http://www.w3.org/2000/svg" width="32" height="32" viewBox="0 0 32 32">
<path d="M25.6 32c-2.834 0-5.849-0.803-8.96-2.387-2.869-1.46-5.703-3.552-8.196-6.048s-4.581-5.332-6.040-8.203c-1.581-3.113-2.383-6.128-2.383-8.962 0-1.837 1.711-3.611 2.447-4.288 1.058-0.974 2.722-2.111 3.931-2.111 0.601 0 1.306 0.393 2.219 1.238 0.681 0.63 1.446 1.485 2.213 2.471 0.462 0.594 2.768 3.633 2.768 5.091 0 1.196-1.352 2.027-2.782 2.906-0.553 0.34-1.125 0.691-1.538 1.023-0.441 0.354-0.52 0.54-0.533 0.582 1.519 3.785 6.161 8.427 9.944 9.943 0.034-0.011 0.221-0.084 0.581-0.534 0.331-0.414 0.683-0.985 1.023-1.538 0.88-1.431 1.71-2.782 2.906-2.782 1.458 0 4.497 2.306 5.091 2.768 0.986 0.767 1.841 1.532 2.471 2.213 0.845 0.912 1.238 1.617 1.238 2.218 0 1.209-1.137 2.879-2.11 3.941-0.678 0.739-2.453 2.459-4.29 2.459zM6.39 1.6c-0.429 0.008-1.582 0.533-2.837 1.688-1.191 1.097-1.931 2.289-1.931 3.112 0 10.766 13.222 24 23.978 24 0.821 0 2.013-0.744 3.11-1.941 1.156-1.261 1.681-2.419 1.69-2.849-0.052-0.304-0.893-1.486-3.195-3.259-1.979-1.524-3.584-2.34-3.997-2.351-0.029 0.009-0.208 0.077-0.571 0.538-0.316 0.401-0.654 0.951-0.98 1.482-0.896 1.458-1.743 2.836-2.973 2.836-0.198 0-0.394-0.038-0.581-0.113-4.199-1.68-9.166-6.646-10.846-10.846-0.202-0.504-0.234-1.294 0.758-2.193 0.528-0.478 1.258-0.927 1.964-1.361 0.531-0.327 1.081-0.664 1.482-0.98 0.461-0.363 0.53-0.542 0.538-0.571-0.011-0.413-0.827-2.018-2.351-3.997-1.772-2.302-2.955-3.143-3.259-3.195z"></path>
</svg>
