<!-- Generated by IcoMoon.io -->
<svg version="1.1" xmlns="http://www.w3.org/2000/svg" width="32" height="32" viewBox="0 0 32 32">
<path d="M31.528 10.35c-0.131-0.072-3.202-1.667-8.32-2.631l-0.197-0.84c-0.512-2.198-2.447-3.74-4.711-3.74h-4.6c-2.257 0-4.193 1.535-4.711 3.74l-0.197 0.84c-5.118 0.958-8.189 2.559-8.32 2.631-0.289 0.151-0.472 0.453-0.472 0.781v10.433c0 4.18 3.399 7.585 7.585 7.585 0.492 0 0.886-0.394 0.886-0.886s-0.394-0.886-0.886-0.886c-3.202 0-5.813-2.605-5.813-5.813v-9.875c1.063-0.486 3.871-1.634 7.907-2.329 0.348-0.059 0.63-0.328 0.709-0.669l0.328-1.411c0.328-1.391 1.549-2.369 2.985-2.369h4.6c1.43 0 2.657 0.971 2.985 2.369l0.328 1.411c0.079 0.348 0.361 0.61 0.709 0.669 4.022 0.696 6.837 1.844 7.907 2.329v9.875c0 3.202-2.605 5.813-5.813 5.813-0.492 0-0.886 0.394-0.886 0.886s0.394 0.886 0.886 0.886c4.18 0 7.585-3.399 7.585-7.585v-10.433c0-0.328-0.177-0.63-0.472-0.781zM2.9 8.539c0.092 0 0.184-0.013 0.276-0.046 0.932-0.308 1.909-0.584 2.907-0.82 0.479-0.112 0.768-0.591 0.656-1.063-0.112-0.479-0.591-0.768-1.063-0.656-1.043 0.249-2.073 0.538-3.058 0.86-0.466 0.151-0.715 0.656-0.564 1.115 0.131 0.374 0.479 0.61 0.846 0.61zM16.003 9.261c-5.623 0-10.196 4.573-10.196 10.196s4.573 10.203 10.196 10.203 10.196-4.573 10.196-10.196-4.573-10.203-10.196-10.203zM16.003 27.889c-4.645 0-8.425-3.779-8.425-8.425s3.779-8.431 8.425-8.431 8.425 3.779 8.425 8.425-3.779 8.431-8.425 8.431z"></path>
</svg>
