<!-- Generated by IcoMoon.io -->
<svg version="1.1" xmlns="http://www.w3.org/2000/svg" width="32" height="32" viewBox="0 0 32 32">
<path d="M16 9.929c-4.532 0-8.219 3.687-8.219 8.219s3.687 8.219 8.219 8.219 8.219-3.687 8.219-8.219-3.687-8.219-8.219-8.219zM16 25.059c-3.81 0-6.911-3.1-6.911-6.911s3.1-6.911 6.911-6.911c3.811 0 6.911 3.1 6.911 6.911s-3.1 6.911-6.911 6.911zM16 13.020c-2.828 0-5.128 2.301-5.128 5.128s2.301 5.128 5.128 5.128 5.128-2.301 5.128-5.128-2.301-5.128-5.128-5.128zM16 22.037c-2.144 0-3.889-1.744-3.889-3.889s1.744-3.889 3.889-3.889 3.889 1.744 3.889 3.889c0 2.144-1.744 3.889-3.889 3.889zM29.934 7.546h-8.425l-0.861-2.344c-0.253-0.689-0.916-1.152-1.651-1.152h-5.994c-0.734 0-1.398 0.463-1.651 1.152l-0.861 2.344h-2.863v-0.918c0-0.741-0.602-1.343-1.343-1.343h-1.982c-0.741 0-1.343 0.603-1.343 1.343v0.919h-0.894c-1.139 0-2.066 0.927-2.066 2.066v17.072c0 1.139 0.927 2.066 2.066 2.066h27.867c1.139 0 2.066-0.927 2.066-2.066v-17.072c0-1.139-0.927-2.066-2.066-2.066zM12.645 5.677c0.055-0.149 0.198-0.25 0.358-0.25h5.994c0.159 0 0.303 0.1 0.358 0.25l0.686 1.869h-8.082l0.686-1.869zM4.269 6.627c0-0.019 0.015-0.034 0.034-0.034h1.982c0.019 0 0.034 0.016 0.034 0.034v0.919h-2.051v-0.919zM1.378 12.758h2.040v10.779h-2.040v-10.779zM30.622 26.684c0 0.38-0.309 0.689-0.689 0.689h-27.867c-0.38 0-0.689-0.309-0.689-0.689v-1.769h2.729c0.38 0 0.689-0.308 0.689-0.689v-12.157c0-0.38-0.308-0.689-0.689-0.689h-2.729v-1.769c0-0.38 0.309-0.689 0.689-0.689h18.956c0.002 0 0.003 0 0.005 0s0.003-0 0.005-0h8.902c0.38 0 0.689 0.309 0.689 0.689v1.769h-2.729c-0.38 0-0.689 0.308-0.689 0.689v12.157c0 0.38 0.308 0.689 0.689 0.689h2.729v1.769zM30.622 23.538h-2.040v-10.779h2.040v10.779zM16 15.614c-1.397 0-2.534 1.137-2.534 2.534 0 0.342 0.277 0.62 0.62 0.62s0.62-0.277 0.62-0.62c0-0.714 0.581-1.294 1.294-1.294 0.342 0 0.62-0.277 0.62-0.62s-0.277-0.62-0.62-0.62z"></path>
</svg>
