<!-- Generated by IcoMoon.io -->
<svg version="1.1" xmlns="http://www.w3.org/2000/svg" width="31" height="32" viewBox="0 0 31 32">
<path d="M15.365 12.952c-0.825 0-1.524-0.698-1.524-1.524s0.698-1.524 1.524-1.524c0.825 0 1.524 0.698 1.524 1.524s-0.698 1.524-1.524 1.524zM15.365 10.857c-0.317 0-0.571 0.254-0.571 0.571s0.254 0.571 0.571 0.571 0.571-0.254 0.571-0.571-0.254-0.571-0.571-0.571z"></path>
<path d="M15.365 6.54c-0.825 0-1.524-0.698-1.524-1.524s0.698-1.524 1.524-1.524c0.825 0 1.524 0.698 1.524 1.524s-0.698 1.524-1.524 1.524zM15.365 4.444c-0.317 0-0.571 0.254-0.571 0.571s0.254 0.571 0.571 0.571 0.571-0.254 0.571-0.571-0.254-0.571-0.571-0.571z"></path>
<path d="M15.365 25.714c-0.825 0-1.524-0.698-1.524-1.524s0.698-1.524 1.524-1.524c0.825 0 1.524 0.698 1.524 1.524s-0.698 1.524-1.524 1.524zM15.365 23.619c-0.317 0-0.571 0.254-0.571 0.571s0.254 0.571 0.571 0.571 0.571-0.254 0.571-0.571c0-0.317-0.254-0.571-0.571-0.571z"></path>
<path d="M3.111 27.683c0.127 0.19 0.254 0.254 0.444 0.254 0.063 0 0.063 0 0.127 0l5.524-1.206c0.825-0.19 1.524-0.825 1.714-1.651l0.571-2.73c0.254-1.016 0.317-2.095 0.19-3.175l-0.19-2.286c0-0.19-0.19-0.381-0.381-0.444-0.19 0-0.444 0.127-0.508 0.317l-1.27 3.746c-0.063 0.254-0.19 0.444-0.381 0.571l-5.778 6.095c-0.127 0.127-0.127 0.381-0.063 0.508zM9.651 21.778c0.254-0.254 0.444-0.571 0.571-0.952l0.508-1.587c0.063 0.952 0 1.905-0.19 2.857l-0.571 2.73c-0.127 0.508-0.508 0.889-0.952 0.952l-4.064 0.889 4.698-4.889z"></path>
<path d="M20.825 24.825l-0.127-0.571c-0.064-0.254-0.317-0.381-0.571-0.381-0.254 0.064-0.381 0.317-0.381 0.571l0.127 0.571c0.19 0.825 0.825 1.524 1.714 1.651l5.524 1.206c0.064 0 0.064 0 0.127 0 0.19 0 0.317-0.064 0.381-0.254 0.127-0.19 0.064-0.381-0.064-0.571l-5.778-6.032c-0.19-0.19-0.317-0.381-0.381-0.571l-1.27-3.746c-0.064-0.19-0.254-0.317-0.508-0.317-0.19 0-0.381 0.19-0.381 0.444l-0.19 2.286c-0.064 1.079 0 2.095 0.19 3.175l0.064 0.254c0.064 0.254 0.317 0.381 0.571 0.381 0.254-0.064 0.381-0.317 0.381-0.571l-0.064-0.254c-0.19-0.952-0.254-1.905-0.19-2.857v0l0.508 1.587c0.127 0.381 0.317 0.698 0.571 0.952l4.698 4.952-4.064-0.889c-0.444-0.127-0.825-0.508-0.889-1.016z"></path>
<path d="M30.667 28.508c-0.127-0.444-0.444-0.762-0.889-0.889l-5.46-8.444c0 0 0 0 0 0-0.127-0.19-0.254-0.444-0.317-0.698 0 0 0 0 0-0.064l-1.079-4.698c-0.064-0.381-0.127-0.698-0.317-1.016l1.079-0.889c0.254 0.19 0.571 0.254 0.889 0.254 0.889 0 1.587-0.698 1.587-1.587s-0.698-1.587-1.587-1.587-1.587 0.698-1.587 1.587c0 0.19 0.064 0.444 0.127 0.635l-0.952 0.762c-0.444-0.571-1.016-1.016-1.651-1.27l-1.587-0.635c-0.508-0.254-0.889-0.698-1.016-1.27l-0.127-0.635c0.889-1.016 1.46-2.476 1.46-3.746 0-1.143-0.19-2.032-0.635-2.667-0.635-1.016-1.714-1.524-3.238-1.524-3.873 0-3.873 3.175-3.873 4.19 0 1.27 0.571 2.73 1.46 3.746l-0.127 0.635c-0.063 0.571-0.444 1.079-1.016 1.27l-1.587 0.635c-1.27 0.571-2.222 1.714-2.413 3.111v0.254c-0.064 0.254 0.127 0.508 0.381 0.571s0.508-0.127 0.571-0.381l0.063-0.317c0 0 0 0 0-0.063 0.127-1.079 0.889-1.968 1.841-2.413l1.587-0.635c0.825-0.381 1.397-1.079 1.587-1.968l0.127-0.825c0-0.127 0-0.317-0.127-0.381-0.825-0.889-1.397-2.159-1.397-3.302 0-1.714 0.381-3.302 2.921-3.302 2.032 0 2.921 1.016 2.921 3.302 0 1.143-0.508 2.413-1.397 3.302-0.127 0.127-0.127 0.254-0.127 0.381l0.127 0.825c0.127 0.889 0.762 1.651 1.587 1.968l1.587 0.635c0.508 0.19 0.952 0.571 1.27 1.016l-5.079 4.19c-0.254-0.19-0.571-0.317-0.889-0.317-0.825 0-1.524 0.698-1.524 1.524s0.698 1.524 1.524 1.524c0.825 0 1.524-0.698 1.524-1.524 0-0.127 0-0.317-0.064-0.444l5.016-4.127c0.064 0.19 0.127 0.381 0.127 0.571 0 0 0 0 0 0.063l1.079 4.698c0.064 0.381 0.19 0.762 0.444 1.079l5.524 8.444c0.064 0.127 0.19 0.254 0.317 0.317 0 0 0 0 0 0v0c0.19 0.064 0.381 0.19 0.444 0.381s0.064 0.381-0.127 0.571c-0.952 1.206-2.476 1.841-4 1.714l-10.286-1.46c-0.063 0-0.063 0-0.127 0l-10.159 1.46c-1.524 0.127-3.048-0.508-4-1.714-0.127-0.19-0.19-0.381-0.127-0.571s0.254-0.317 0.444-0.381c0.127 0 0.254-0.127 0.317-0.19l5.524-8.571c0.254-0.317 0.381-0.698 0.444-1.079l0.571-2.54c0.063-0.254-0.127-0.508-0.381-0.571s-0.508 0.127-0.571 0.381l-0.571 2.54c0 0 0 0 0 0.064-0.064 0.254-0.127 0.508-0.317 0.698 0 0 0 0 0 0l-5.397 8.444c-0.444 0.127-0.762 0.508-0.889 0.952-0.19 0.508-0.064 1.016 0.254 1.46 1.079 1.333 2.603 2.032 4.254 2.032 0.19 0 0.381 0 0.508 0 0 0 0 0 0 0l10.222-1.46 10.222 1.46c0 0 0 0 0 0 1.841 0.19 3.619-0.571 4.825-2.032 0.381-0.444 0.444-1.016 0.254-1.46zM24.571 9.778c0.381 0 0.635 0.317 0.635 0.635s-0.317 0.635-0.635 0.635c-0.381 0-0.635-0.317-0.635-0.635s0.254-0.635 0.635-0.635zM15.365 18.413c-0.317 0-0.571-0.254-0.571-0.571s0.254-0.571 0.571-0.571 0.571 0.254 0.571 0.571c0 0.317-0.254 0.571-0.571 0.571z"></path>
</svg>
