<!-- Generated by IcoMoon.io -->
<svg version="1.1" xmlns="http://www.w3.org/2000/svg" width="32" height="32" viewBox="0 0 32 32">
<path d="M24 2.158v19.842h6.826c0.752-1.854 1.174-3.876 1.174-6 0-5.918-3.222-11.074-8-13.842z"></path>
<path d="M16 0c-1.928 0-3.768 0.358-5.48 0.984l11.48 10.714v-10.524c-1.854-0.752-3.876-1.174-6-1.174z"></path>
<path d="M10 24v6.826c1.854 0.752 3.876 1.174 6 1.174 5.918 0 11.074-3.222 13.842-8h-19.842z"></path>
<path d="M8.524 1.858c-5.068 2.686-8.524 8.008-8.524 14.142 0 1.41 0.2 2.772 0.544 4.074l13.504-13.062-5.524-5.154z"></path>
<path d="M1.24 22.184c1.358 3.232 3.752 5.916 6.76 7.658v-14.196l-6.76 6.538z"></path>
</svg>
