<!-- Generated by IcoMoon.io -->
<svg version="1.1" xmlns="http://www.w3.org/2000/svg" width="32" height="32" viewBox="0 0 32 32">
<path d="M16 0c-8.822 0-16 7.15-16 15.938 0 8.805 7.185 16.063 16 16.063 8.812 0 16-7.254 16-16.063 0-8.788-7.178-15.938-16-15.938zM9.375 22.625v-10.019l5.683-5.783 7.567 7.233v8.569zM22.625 3.521v7.941l-9.682-9.255c0.985-0.217 2.008-0.333 3.057-0.333 2.393 0 4.648 0.596 6.625 1.646zM10.881 2.831l2.821 2.697-11.744 11.951c-0.055-0.506-0.084-1.020-0.084-1.541 0-5.958 3.741-11.061 9.006-13.106zM2.385 19.719l5.115-5.205v12.746c-2.447-1.858-4.275-4.495-5.115-7.541zM16 30.125c-2.393 0-4.648-0.602-6.625-1.661v-3.965h17.88c-2.582 3.415-6.666 5.626-11.255 5.626zM28.454 22.625h-3.954v-17.911c3.414 2.569 5.625 6.644 5.625 11.224 0 2.417-0.605 4.694-1.671 6.687z"></path>
</svg>
