<!-- Generated by IcoMoon.io -->
<svg version="1.1" xmlns="http://www.w3.org/2000/svg" width="32" height="32" viewBox="0 0 32 32">
<path d="M29.6 32h-27.2c-1.323 0-2.4-1.077-2.4-2.4v-27.2c0-1.323 1.077-2.4 2.4-2.4h27.2c1.323 0 2.4 1.077 2.4 2.4v27.2c0 1.323-1.077 2.4-2.4 2.4zM2.4 1.6c-0.441 0-0.8 0.359-0.8 0.8v27.2c0 0.441 0.359 0.8 0.8 0.8h27.2c0.441 0 0.8-0.359 0.8-0.8v-27.2c0-0.441-0.359-0.8-0.8-0.8h-27.2zM20.8 14.4c-1.765 0-3.2-1.435-3.2-3.2s1.436-3.2 3.2-3.2 3.2 1.436 3.2 3.2-1.436 3.2-3.2 3.2zM20.8 9.6c-0.882 0-1.6 0.718-1.6 1.6s0.718 1.6 1.6 1.6 1.6-0.718 1.6-1.6-0.718-1.6-1.6-1.6zM28 3.2h-24c-0.442 0-0.8 0.358-0.8 0.8v19.2c0 0.442 0.358 0.8 0.8 0.8h24c0.442 0 0.8-0.358 0.8-0.8v-19.2c0-0.442-0.358-0.8-0.8-0.8zM4.8 18.704l5.135-5.777c0.131-0.148 0.303-0.23 0.483-0.232 0.179-0.003 0.354 0.076 0.489 0.221l8.852 9.484h-14.959v-3.696zM27.2 22.4h-5.252l-9.871-10.576c-0.446-0.478-1.041-0.738-1.678-0.729-0.636 0.008-1.225 0.281-1.66 0.769l-3.939 4.431v-11.496h22.4v17.6z"></path>
</svg>
