<!-- Generated by IcoMoon.io -->
<svg version="1.1" xmlns="http://www.w3.org/2000/svg" width="32" height="32" viewBox="0 0 32 32">
<path d="M29.769 6.825c-2.631-4.025-7.063-6.425-11.856-6.425-0.35 0-0.637 0.287-0.637 0.637v13.512c0 0.231 0.125 0.45 0.331 0.563 0.094 0.050 0.2 0.075 0.306 0.075 0.119 0 0.244-0.037 0.35-0.106l11.319-7.381c0.144-0.094 0.244-0.237 0.275-0.4 0.038-0.162 0-0.338-0.087-0.475zM18.55 13.375v-11.688c3.906 0.194 7.488 2.131 9.787 5.306l-9.788 6.381zM27.856 10.525c-0.194-0.294-0.587-0.375-0.881-0.188l-10.338 6.737v-12.338c0-0.35-0.288-0.638-0.637-0.638-3.231 0-6.387 1.119-8.894 3.144-3.337 2.706-5.256 6.719-5.256 11.006 0 3.781 1.469 7.331 4.144 10.006s6.225 4.144 10.006 4.144 7.331-1.469 10.006-4.144c2.675-2.675 4.144-6.225 4.144-10.006 0-2.756-0.794-5.425-2.294-7.725zM15.363 5.394v11.056l-6.95-8.6c2.019-1.475 4.45-2.331 6.95-2.456zM16 31.125c-7.1 0-12.875-5.775-12.875-12.875 0-3.694 1.556-7.156 4.294-9.6l8.081 10c0.206 0.256 0.569 0.313 0.844 0.131l10.781-7.019c1.15 1.963 1.75 4.194 1.75 6.488 0 7.1-5.775 12.875-12.875 12.875zM25.169 14.694c-0.194-0.294-0.587-0.381-0.881-0.188l-4.15 2.706c-0.294 0.194-0.381 0.587-0.188 0.881 0.125 0.188 0.325 0.288 0.538 0.288 0.119 0 0.238-0.031 0.35-0.106l4.15-2.7c0.288-0.188 0.375-0.588 0.181-0.881zM27.131 13.419c-0.194-0.294-0.587-0.381-0.881-0.188l-0.225 0.144c-0.294 0.194-0.381 0.588-0.188 0.881 0.125 0.188 0.325 0.287 0.538 0.287 0.119 0 0.238-0.031 0.35-0.106l0.225-0.144c0.288-0.188 0.375-0.581 0.181-0.875z"></path>
</svg>
