<!-- Generated by IcoMoon.io -->
<svg version="1.1" xmlns="http://www.w3.org/2000/svg" width="32" height="32" viewBox="0 0 32 32">
<path d="M13.6 32c-3.633 0-7.048-1.415-9.617-3.983s-3.983-5.984-3.983-9.617c0-3.633 1.415-7.048 3.983-9.617s5.984-3.983 9.617-3.983c0.442 0 0.8 0.358 0.8 0.8v12h12c0.442 0 0.8 0.358 0.8 0.8 0 3.633-1.415 7.048-3.983 9.617s-5.984 3.983-9.617 3.983zM12.8 6.426c-6.245 0.413-11.2 5.626-11.2 11.974 0 6.617 5.383 12 12 12 6.348 0 11.56-4.955 11.974-11.2h-11.974c-0.442 0-0.8-0.358-0.8-0.8v-11.974zM29.6 16h-12.8c-0.442 0-0.8-0.358-0.8-0.8v-12.8c0-0.442 0.358-0.8 0.8-0.8 3.633 0 7.048 1.415 9.617 3.983s3.983 5.984 3.983 9.617c0 0.442-0.358 0.8-0.8 0.8zM17.6 14.4h11.174c-0.396-5.98-5.193-10.778-11.174-11.174v11.174z"></path>
</svg>
