<!-- Generated by IcoMoon.io -->
<svg version="1.1" xmlns="http://www.w3.org/2000/svg" width="32" height="32" viewBox="0 0 32 32">
<path d="M27.314 5.086c-3.022-3.022-7.040-4.686-11.314-4.686s-8.292 1.664-11.314 4.686c-3.022 3.022-4.686 7.040-4.686 11.314 0 2.813 0.741 5.58 2.142 8.002 1.382 2.388 3.368 4.391 5.745 5.792 2.449 1.444 5.255 2.207 8.113 2.207s5.664-0.763 8.113-2.207c2.377-1.401 4.363-3.404 5.745-5.792 1.401-2.422 2.142-5.189 2.142-8.002 0-4.274-1.664-8.292-4.686-11.314zM1.275 16.4c0-7.906 6.263-14.377 14.088-14.711v14.343l-12.424 7.173c-1.090-2.091-1.664-4.43-1.664-6.805zM16 31.125c-5.027 0-9.729-2.596-12.423-6.817l12.423-7.172 12.423 7.172c-2.694 4.221-7.396 6.817-12.423 6.817zM29.061 23.205l-12.424-7.173v-14.343c7.825 0.335 14.088 6.806 14.088 14.711 0 2.375-0.574 4.714-1.664 6.805zM25.755 18.654l-0.22-0.128c-0.304-0.177-0.695-0.074-0.872 0.23s-0.074 0.695 0.23 0.872l0.22 0.128c0.101 0.059 0.211 0.087 0.32 0.087 0.22 0 0.433-0.114 0.552-0.317 0.177-0.304 0.074-0.695-0.23-0.872zM23.779 17.504l-5.036-2.93c-0.304-0.177-0.695-0.074-0.872 0.23s-0.074 0.695 0.23 0.872l5.036 2.93c0.101 0.059 0.211 0.087 0.32 0.087 0.22 0 0.433-0.114 0.552-0.317 0.177-0.304 0.074-0.695-0.23-0.872z"></path>
</svg>
