<!-- Generated by IcoMoon.io -->
<svg version="1.1" xmlns="http://www.w3.org/2000/svg" width="32" height="32" viewBox="0 0 32 32">
<path d="M14.425 17.712l3.587-11.225c-1.375-0.5-2.85-0.775-4.394-0.775-7.156 0-12.956 5.863-12.956 13.087s5.8 13.087 12.956 13.087 12.956-5.863 12.956-13.087c0-1.313-0.194-2.581-0.55-3.781l-11.6 2.694zM13.619 30.756c-6.531 0-11.831-5.35-11.831-11.95s5.294-11.95 11.831-11.95c0.994 0 1.95 0.125 2.875 0.356l-3.975 12.431 12.744-2.956c0.125 0.688 0.188 1.394 0.188 2.119 0 6.6-5.294 11.95-11.831 11.95zM31.288 11.594c-2.044-8.975-9.569-10.325-9.569-10.325l-3.975 13.419 13.544-3.094zM22.563 2.831c4.35 1.538 6.313 5.050 7.181 7.819l-10.181 2.325 3-10.144z"></path>
</svg>
