<!-- Generated by IcoMoon.io -->
<svg version="1.1" xmlns="http://www.w3.org/2000/svg" width="32" height="32" viewBox="0 0 32 32">
<path d="M16.75 0.4c-8.733 0-13.137 6.261-13.137 11.482 0 3.161 1.197 5.973 3.763 7.022 0.421 0.172 0.799 0.006 0.921-0.46 0.085-0.323 0.285-1.136 0.375-1.475 0.123-0.461 0.075-0.622-0.264-1.024-0.74-0.873-1.213-2.003-1.213-3.605 0-4.645 3.475-8.803 9.050-8.803 4.935 0 7.647 3.016 7.647 7.044 0 5.3-2.345 9.772-5.827 9.772-1.923 0-3.362-1.59-2.901-3.541 0.552-2.328 1.622-4.842 1.622-6.522 0-1.504-0.807-2.76-2.479-2.76-1.966 0-3.545 2.034-3.545 4.757 0 1.735 0.586 2.909 0.586 2.909s-2.012 8.523-2.364 10.016c-0.703 2.972-0.105 6.616-0.055 6.984 0.029 0.218 0.309 0.27 0.436 0.105 0.182-0.237 2.523-3.127 3.319-6.015 0.225-0.818 1.292-5.052 1.292-5.052 0.639 1.218 2.505 2.291 4.49 2.291 5.908 0 9.918-5.387 9.918-12.597 0-5.452-4.618-10.53-11.637-10.53z"></path>
</svg>
