<!-- Generated by IcoMoon.io -->
<svg version="1.1" xmlns="http://www.w3.org/2000/svg" width="32" height="32" viewBox="0 0 32 32">
<path d="M6.251 18.645l1.085 0.71 0.41-1.54c0.726-2.708 0.649-2.588 0.722-2.888-0.030-0.169-0.794-2.203-0.262-4.674l0.011-0.057c0.728-4.805 8.769-6.113 12.503-2.986 1.611 1.349 2.217 3.373 1.752 5.854-0.334 1.781-0.916 3.11-1.832 4.18-1.265 1.478-2.856 1.598-3.798 1.084-0.351-0.191-1.128-0.766-0.768-1.972 0.515-1.726 1.447-4.325 1.557-6.21 0.098-1.679-0.915-3.046-2.52-3.401-1.79-0.396-3.852 0.57-4.743 2.823-0.642 1.62-0.64 3.304 0.005 5.146 0.021 0.454-0.441 2.168-0.814 3.55-1.128 4.179-2.672 9.902-1.168 12.817l0.475 0.92 0.868-0.565c2.481-1.613 3.931-6.305 4.725-9.228 2.091 1.549 5.055 1.679 7.986 0.248 4.706-2.298 7.844-7.782 6.272-13.887-1.753-6.805-8.556-9.443-15.408-8.316-5.649 0.929-9.241 4.588-10.195 9.097-0.804 3.805 0.456 7.541 3.136 9.295zM4.949 9.737c0.852-4.029 4.091-6.884 8.665-7.636 5.493-0.903 11.733 0.89 13.29 6.934 1.44 5.589-1.727 10.001-5.279 11.736-2.179 1.064-5.14 1.379-6.917-0.927l-1.159-1.504-0.489 1.835c-0.646 2.421-1.689 6.531-3.366 8.727-0.329-2.717 0.895-7.255 1.677-10.151 0.746-2.764 1.039-3.914 0.789-4.614-0.505-1.416-0.52-2.686-0.047-3.881 0.53-1.338 1.66-1.89 2.596-1.683 0.338 0.075 1.118 0.367 1.054 1.462-0.095 1.619-0.999 4.168-1.481 5.783-0.507 1.696 0.147 3.326 1.667 4.154 1.707 0.93 4.27 0.649 6.119-1.511 1.139-1.331 1.854-2.937 2.25-5.054 0.307-1.637 0.234-3.143-0.216-4.475-0.418-1.239-1.15-2.303-2.175-3.161-4.836-4.050-14.571-2.19-15.555 4.114-0.35 1.648-0.293 3.363 0.17 5.103-0.074 0.326-0.18 0.744-0.292 1.173-1.304-1.534-1.822-3.944-1.298-6.424z"></path>
</svg>
