<!-- Generated by IcoMoon.io -->
<svg version="1.1" xmlns="http://www.w3.org/2000/svg" width="32" height="32" viewBox="0 0 32 32">
<path d="M29.488 23.175v-15.569c0-2.606-2.15-4.756-4.756-4.756h-15.506v-1.762h-8.537v12.188h8.537v-2.213h10.619c0.781 0 1.431 0.65 1.431 1.431v10.688h-2.019v8.531h12.056v-8.537h-1.825zM7.919 11.969h-5.925v-9.575h5.931v9.575zM19.844 9.819h-10.619v-5.669h15.506c1.887 0 3.456 1.563 3.456 3.456v15.575h-5.669l0.063-10.619c0-1.506-1.238-2.744-2.738-2.744zM30.006 30.406h-9.512v-5.994h9.512v5.994z"></path>
</svg>
