<!-- Generated by IcoMoon.io -->
<svg version="1.1" xmlns="http://www.w3.org/2000/svg" width="32" height="32" viewBox="0 0 32 32">
<path d="M24.992 6.944c-3.968-3.968-7.968-6.304-11.904-6.912-0.832-0.128-1.632 0.32-1.92 1.088l-11.072 28.704c-0.224 0.608-0.096 1.248 0.352 1.696 0.32 0.32 0.704 0.48 1.12 0.48 0.192 0 0.384-0.032 0.576-0.096l28.736-11.104c0.8-0.288 1.248-1.088 1.12-1.92-0.608-3.872-2.944-7.904-7.008-11.936zM7.936 11.744c0.448 0.224 0.8 0.576 0.992 1.024 0.224 0.512 0.256 1.088 0.032 1.632-0.384 1.024-1.504 1.568-2.56 1.28l1.536-3.936zM1.888 31.136c-0.32 0.128-0.64 0.064-0.864-0.192-0.224-0.224-0.288-0.544-0.16-0.832l5.28-13.696c0.288 0.096 0.576 0.128 0.832 0.128 1.184 0 2.304-0.704 2.752-1.888 0.288-0.736 0.256-1.536-0.064-2.24-0.288-0.64-0.8-1.152-1.44-1.44l2.208-5.696c0.672 0.096 1.952 0.32 3.712 1.152-0.672 0.096-1.344 0.384-1.888 0.928-0.608 0.608-0.96 1.44-0.96 2.304s0.352 1.664 0.96 2.304c0.64 0.64 1.472 0.96 2.304 0.96s1.664-0.32 2.304-0.96c0.608-0.608 0.96-1.408 0.96-2.304 0-0.352-0.064-0.704-0.192-1.056 0.96 0.736 1.984 1.6 3.072 2.688 0.416 0.416 0.8 0.832 1.184 1.248-1.376-0.416-2.912-0.064-4 1.024-0.768 0.768-1.184 1.792-1.184 2.848 0 1.088 0.416 2.080 1.184 2.848 0.8 0.8 1.824 1.184 2.848 1.184s2.080-0.384 2.848-1.184v0c0.768-0.768 1.184-1.792 1.184-2.848 0 0 0-0.032 0-0.032 1.056 1.76 1.728 3.488 1.984 5.184l-7.392 2.848c0.16-0.352 0.256-0.768 0.256-1.152 0-0.736-0.288-1.44-0.832-1.984-1.088-1.088-2.88-1.088-3.968 0-0.544 0.544-0.832 1.216-0.832 1.984 0 0.736 0.288 1.44 0.832 1.984 0.256 0.256 0.544 0.448 0.864 0.576l-8.192 3.168c-0.544-1.152-1.888-1.696-3.104-1.216-0.608 0.256-1.088 0.704-1.344 1.312-0.224 0.544-0.256 1.12-0.096 1.696l-1.056 0.352zM16.256 11.36c-0.96 0.96-2.496 0.96-3.456 0-0.448-0.448-0.704-1.056-0.704-1.728 0-0.64 0.256-1.248 0.704-1.728 0.48-0.48 1.088-0.704 1.728-0.704s1.248 0.224 1.728 0.704c0.448 0.448 0.704 1.088 0.704 1.728 0.032 0.672-0.224 1.28-0.704 1.728zM22.976 18.688v0c-1.28 1.248-3.328 1.248-4.576 0-0.608-0.608-0.96-1.44-0.96-2.304s0.352-1.664 0.96-2.304c0.64-0.64 1.472-0.96 2.304-0.96s1.664 0.32 2.304 0.96c0.608 0.608 0.96 1.44 0.96 2.304-0.032 0.864-0.384 1.696-0.992 2.304zM15.36 24.672c-0.384-0.384-0.576-0.864-0.576-1.408s0.224-1.024 0.576-1.408c0.384-0.384 0.896-0.576 1.408-0.576s1.024 0.192 1.408 0.576c0.384 0.384 0.576 0.864 0.576 1.408s-0.192 1.024-0.576 1.408c-0.736 0.768-2.016 0.768-2.816 0zM3.744 30.432c-0.096-0.352-0.096-0.736 0.064-1.088 0.16-0.416 0.48-0.704 0.896-0.864 0.8-0.32 1.664 0.032 2.048 0.768l-3.008 1.184zM30.592 20.064l-3.104 1.184c-0.576-3.456-2.688-6.976-6.272-10.56-5.12-5.12-8.992-5.952-10.496-6.208l1.184-3.104c0.16-0.416 0.576-0.672 1.056-0.576 3.744 0.576 7.616 2.848 11.456 6.72 3.872 3.872 6.208 7.84 6.784 11.488 0.064 0.48-0.16 0.896-0.608 1.056zM8.128 26.4c0.736 0 1.472-0.288 2.016-0.832s0.832-1.248 0.832-2.016c0-0.768-0.288-1.472-0.832-2.016-1.12-1.12-2.944-1.12-4.064 0-0.544 0.544-0.832 1.248-0.832 2.016s0.288 1.472 0.832 2.016c0.576 0.544 1.312 0.832 2.048 0.832zM6.656 22.080c0.416-0.416 0.928-0.608 1.472-0.608s1.056 0.192 1.472 0.608c0.384 0.384 0.608 0.896 0.608 1.472 0 0.544-0.224 1.056-0.608 1.472v0c-0.8 0.8-2.112 0.8-2.912 0-0.384-0.384-0.608-0.896-0.608-1.472-0.032-0.576 0.192-1.088 0.576-1.472zM12.544 20.704c0.672 0 1.344-0.256 1.856-0.768 0 0 0 0 0 0 0.512-0.512 0.768-1.152 0.768-1.856s-0.288-1.376-0.768-1.856c-1.024-1.024-2.688-1.024-3.712 0-0.512 0.512-0.768 1.152-0.768 1.856s0.288 1.376 0.768 1.856c0.512 0.512 1.184 0.768 1.856 0.768zM11.264 16.8c0.352-0.352 0.832-0.544 1.28-0.544 0.48 0 0.928 0.192 1.28 0.544s0.544 0.8 0.544 1.28c0 0.48-0.192 0.96-0.544 1.28v0c-0.704 0.704-1.888 0.704-2.592 0-0.352-0.352-0.544-0.8-0.544-1.28 0.032-0.48 0.224-0.928 0.576-1.28zM3.968 26.528c0.064 0.16 0.224 0.256 0.384 0.256 0.032 0 0.096 0 0.128-0.032 0.224-0.064 0.32-0.288 0.256-0.512l-0.288-0.8c-0.064-0.224-0.288-0.32-0.512-0.256s-0.32 0.288-0.256 0.512l0.288 0.832zM7.552 19.040c0.064 0.16 0.224 0.256 0.384 0.256 0.032 0 0.096 0 0.128-0.032 0.224-0.064 0.32-0.288 0.256-0.512l-0.288-0.8c-0.064-0.224-0.288-0.32-0.512-0.256s-0.32 0.288-0.256 0.512l0.288 0.832zM21.952 22.304c0.064 0 0.096 0 0.16-0.032l0.8-0.352c0.192-0.096 0.288-0.32 0.192-0.512s-0.32-0.288-0.512-0.192l-0.8 0.352c-0.192 0.096-0.288 0.32-0.192 0.512 0.064 0.128 0.192 0.224 0.352 0.224zM12.768 24.128c-0.224-0.064-0.416 0.064-0.48 0.288l-0.224 0.864c-0.064 0.224 0.064 0.416 0.288 0.48 0.032 0 0.064 0 0.096 0 0.192 0 0.352-0.128 0.384-0.32l0.192-0.832c0.064-0.192-0.064-0.416-0.256-0.48zM11.264 13.792c0.064 0.064 0.192 0.128 0.288 0.128s0.192-0.032 0.288-0.128c0.16-0.16 0.16-0.416 0-0.576l-0.608-0.608c-0.16-0.16-0.416-0.16-0.576 0s-0.16 0.416 0 0.576l0.608 0.608zM14.72 15.104c0.064 0 0.128 0 0.192-0.032l0.768-0.384c0.192-0.096 0.288-0.352 0.192-0.544s-0.352-0.288-0.544-0.192l-0.768 0.384c-0.192 0.096-0.288 0.352-0.192 0.544 0.064 0.128 0.192 0.224 0.352 0.224z"></path>
</svg>
