<!-- Generated by IcoMoon.io -->
<svg version="1.1" xmlns="http://www.w3.org/2000/svg" width="32" height="32" viewBox="0 0 32 32">
<path d="M16 31.712l-7.7-16.744c-0.65-1.238-1.362-2.869-1.362-4.756 0-5.019 4.075-9.125 9.063-9.125s9.063 4.106 9.063 9.125c0 1.887-0.712 3.519-1.356 4.756v0.063l-7.706 16.681zM9.463 14.512l6.537 14.269 6.6-14.338c0.581-1.106 1.231-2.544 1.231-4.237 0-4.369-3.494-7.881-7.831-7.881s-7.831 3.519-7.831 7.888c0 1.694 0.65 3.125 1.231 4.238l0.063 0.063zM16 16.006c-3.175 0-5.762-2.606-5.762-5.8s2.588-5.8 5.762-5.8 5.762 2.606 5.762 5.8-2.587 5.8-5.762 5.8zM16 5.65c-2.525 0-4.531 2.019-4.531 4.563s2.006 4.563 4.531 4.563 4.531-2.019 4.531-4.563-2.006-4.563-4.531-4.563z"></path>
</svg>
