<!-- Generated by IcoMoon.io -->
<svg version="1.1" xmlns="http://www.w3.org/2000/svg" width="32" height="32" viewBox="0 0 32 32">
<path d="M27.926 31.273l-4.219-8.924c-0.084-0.178-0.23-0.314-0.405-0.389l-2.099-0.934 3.637-6.095c0.009-0.015 0.017-0.029 0.025-0.045 0.723-1.411 1.090-2.936 1.090-4.532 0-2.685-1.053-5.202-2.965-7.088s-4.444-2.903-7.13-2.866c-2.609 0.036-5.066 1.084-6.918 2.951s-2.88 4.332-2.895 6.942c-0.010 1.595 0.367 3.183 1.089 4.592 0.008 0.015 0.016 0.030 0.025 0.045l3.636 6.095-2.111 0.939c-0.173 0.077-0.312 0.213-0.393 0.384l-4.219 8.924c-0.141 0.298-0.082 0.653 0.149 0.889s0.584 0.304 0.886 0.169l5.285-2.353 5.285 2.353c0.204 0.091 0.438 0.091 0.642 0l5.285-2.353 5.285 2.353c0.103 0.046 0.213 0.068 0.321 0.068 0.208 0 0.413-0.082 0.565-0.238 0.231-0.236 0.29-0.591 0.149-0.889zM8.53 14.144c-0.608-1.196-0.912-2.488-0.904-3.841 0.027-4.527 3.73-8.261 8.256-8.323 2.26-0.030 4.391 0.825 6 2.411s2.494 3.704 2.494 5.963c0 1.335-0.304 2.61-0.905 3.79l-6.792 11.384c-0.207 0.348-0.543 0.385-0.678 0.385s-0.471-0.038-0.678-0.385l-6.792-11.384zM21.927 28.393c-0.204-0.091-0.438-0.091-0.642 0l-5.285 2.353-5.285-2.353c-0.204-0.091-0.438-0.091-0.642 0l-3.661 1.63 3.184-6.734 2.016-0.897 2.354 3.946c0.431 0.723 1.192 1.155 2.034 1.155s1.603-0.432 2.034-1.155l2.354-3.946 2.016 0.898 3.183 6.734-3.661-1.63zM16 6.75c-1.987 0-3.604 1.617-3.604 3.604s1.617 3.604 3.604 3.604c1.987 0 3.604-1.617 3.604-3.604s-1.617-3.604-3.604-3.604zM16 12.379c-1.116 0-2.025-0.908-2.025-2.024s0.908-2.024 2.025-2.024c1.116 0 2.024 0.908 2.024 2.024s-0.908 2.024-2.024 2.024z"></path>
</svg>
