<!-- Generated by IcoMoon.io -->
<svg version="1.1" xmlns="http://www.w3.org/2000/svg" width="32" height="32" viewBox="0 0 32 32">
<path d="M16.104 7.413c-2.255 0-4.091 1.836-4.091 4.091s1.836 4.091 4.091 4.091 4.091-1.836 4.091-4.091-1.836-4.091-4.091-4.091zM16.104 14.426c-1.611 0-2.922-1.311-2.922-2.922s1.311-2.922 2.922-2.922 2.922 1.311 2.922 2.922-1.311 2.922-2.922 2.922zM23.925 3.683c-2.117-2.117-4.931-3.283-7.924-3.283s-5.808 1.166-7.924 3.283c-3.917 3.917-4.404 11.286-1.054 15.751l8.979 12.967 8.965-12.949c3.363-4.483 2.876-11.852-1.041-15.769zM24.018 18.768l-8.017 11.578-8.030-11.596c-3.038-4.051-2.603-10.706 0.933-14.241 1.896-1.896 4.416-2.94 7.098-2.94s5.202 1.044 7.098 2.94c3.536 3.535 3.971 10.19 0.919 14.259z"></path>
</svg>
