<!-- Generated by IcoMoon.io -->
<svg version="1.1" xmlns="http://www.w3.org/2000/svg" width="32" height="32" viewBox="0 0 32 32">
<path d="M3.001 16.895h-1.385c-0.891 0-1.616 0.725-1.616 1.616v10.247c0 0.891 0.725 1.616 1.616 1.616h1.385c0.891 0 1.616-0.725 1.616-1.616v-10.247c0-0.891-0.725-1.616-1.616-1.616zM3.679 28.758c0 0.374-0.304 0.678-0.678 0.678h-1.385c-0.374 0-0.678-0.304-0.678-0.678v-10.247c0-0.374 0.304-0.678 0.678-0.678h1.385c0.374 0 0.678 0.304 0.678 0.678v10.247z"></path>
<path d="M31.671 20.987c-0.588-0.864-1.772-1.093-2.639-0.51l-2.482 1.661c-0.204-0.799-0.612-1.542-1.188-2.142-0.677-0.706-1.559-1.192-2.511-1.387-0.549-1.754-2.070-3.059-3.898-3.325-0.747-0.624-1.663-1.004-2.627-1.095v-1.475l1.116-0.966c0.552 0.245 1.835 0.749 3.422 0.934 0.394 0.046 0.779 0.069 1.155 0.069 2.309 0 4.287-0.855 5.771-2.507 2.68-2.985 2.671-7.613 2.669-7.808 0-0.002-0-0.004-0-0.005-0-0.020-0.002-0.040-0.005-0.060-0.002-0.012-0.004-0.023-0.007-0.035-0.001-0.003-0.001-0.006-0.002-0.008-0.036-0.158-0.143-0.295-0.3-0.346-0.189-0.062-0.386-0.010-0.507 0.147-0.046 0.042-0.362 0.312-1.263 0.64-0.893 0.326-2.563 0.78-5.447 1.090-3.476 0.373-4.935 2.375-5.547 3.988-0.509 1.342-0.521 2.619-0.499 3.147l-0.555 0.481v-0.95c0.011-0.059 0.011-0.119 0-0.177v-7.001c0-0.259-0.21-0.469-0.469-0.469s-0.469 0.21-0.469 0.469v6.055l-0.423-0.366c0.019-0.497 0.002-1.658-0.46-2.877-0.564-1.487-1.908-3.332-5.11-3.676-2.625-0.282-4.148-0.694-4.963-0.99s-1.107-0.539-1.154-0.581c-0.12-0.158-0.317-0.209-0.506-0.148-0.158 0.051-0.266 0.19-0.301 0.349-0 0.002-0.001 0.003-0.001 0.005-0.003 0.012-0.005 0.025-0.007 0.037-0.003 0.020-0.004 0.040-0.005 0.060-0 0.002-0 0.004-0 0.005-0.002 0.18-0.010 4.43 2.453 7.174 1.366 1.521 3.186 2.308 5.311 2.308 0.346 0 0.701-0.021 1.063-0.063 1.434-0.167 2.6-0.618 3.12-0.848l0.983 0.851v1.805c-0.005 0.039-0.005 0.079 0 0.118v1.628c-0.954 0.096-1.86 0.474-2.601 1.093-1.827 0.266-3.349 1.571-3.898 3.326-0.245 0.050-0.486 0.121-0.722 0.209-0.408-0.056-0.821-0.084-1.236-0.084h-0.605c-0.259 0-0.469 0.21-0.469 0.469s0.21 0.469 0.469 0.469h0.605c0.415 0 0.827 0.032 1.234 0.094 0.169 0.026 0.336 0.057 0.502 0.092 0.031 0.007 0.062 0.013 0.093 0.020 0.039 0.009 0.078 0.018 0.117 0.028 0.050 0.012 0.1 0.025 0.149 0.038 0.024 0.006 0.048 0.012 0.072 0.019 0.078 0.021 0.155 0.044 0.232 0.067 0.013 0.004 0.026 0.008 0.040 0.012 0.072 0.022 0.144 0.046 0.215 0.070 0.009 0.003 0.019 0.006 0.028 0.009 0.165 0.057 0.328 0.119 0.488 0.186 0.007 0.003 0.014 0.006 0.020 0.009 0.079 0.033 0.157 0.067 0.235 0.103 0.001 0.001 0.003 0.001 0.004 0.002 0.079 0.036 0.158 0.074 0.237 0.113 0.010 0.005 0.019 0.010 0.028 0.015 0.064 0.032 0.128 0.065 0.191 0.099 0.018 0.010 0.036 0.019 0.053 0.029 0.072 0.039 0.144 0.080 0.215 0.121 1.034 0.605 2.159 0.996 3.345 1.164 0.004 0.001 0.008 0.001 0.012 0.002l4.848 0.558c0.842 0.122 1.488 0.797 1.572 1.644l0.018 0.185-8.51-0.337c-0.036-0.006-0.060-0.025-0.073-0.041-0.014-0.017-0.031-0.046-0.027-0.087 0.023-0.258-0.167-0.486-0.425-0.51s-0.486 0.167-0.51 0.425c-0.025 0.281 0.060 0.556 0.241 0.773s0.435 0.35 0.717 0.376c0.008 0.001 0.016 0.001 0.024 0.002l9.597 0.38 1.272 0.071c0.009 0 0.018 0.001 0.026 0.001 0.010 0 0.020-0.002 0.030-0.002s0.018-0.001 0.027-0.002 0.032-0.005 0.048-0.009c0.008-0.002 0.015-0.003 0.023-0.005 0.017-0.005 0.034-0.011 0.051-0.018 0.006-0.002 0.012-0.004 0.017-0.007 0.022-0.010 0.044-0.022 0.064-0.036l2.998-2.007c0-0 0-0 0.001-0l3.081-2.062c0.44-0.296 1.041-0.18 1.34 0.259 0.273 0.401 0.205 0.946-0.16 1.27l-6.010 5.405c-0.496 0.402-1.090 0.668-1.72 0.769l-9.309 1.342c-0.004 0.001-0.009 0.001-0.013 0.002-0.276 0.044-0.564 0.025-0.856-0.054l-6.322-2.394c-0.242-0.092-0.513 0.030-0.605 0.273s0.030 0.513 0.273 0.605l6.342 2.402c0.013 0.005 0.026 0.009 0.039 0.013 0.278 0.079 0.557 0.118 0.832 0.118 0.15 0 0.298-0.012 0.446-0.035 0.001-0 0.001-0 0.002-0l9.308-1.342c0.002-0 0.005-0.001 0.007-0.001 0.798-0.127 1.551-0.465 2.177-0.976 0.006-0.005 0.012-0.010 0.017-0.015l6.016-5.411c0.714-0.634 0.848-1.708 0.311-2.498zM27.092 9.615c-1.529 1.703-3.579 2.422-6.091 2.137-1.125-0.128-2.1-0.438-2.718-0.675 0.343-0.258 0.676-0.495 0.999-0.714 0.509 0.225 1.707 0.686 2.963 0.686 0.196 0 0.394-0.011 0.591-0.037 0.257-0.033 0.439-0.268 0.406-0.525s-0.268-0.439-0.525-0.406c-0.877 0.112-1.814-0.123-2.458-0.345 1.408-0.854 2.635-1.388 3.765-1.88 0.106-0.046 0.21-0.091 0.314-0.137 0.36 0.11 1.202 0.322 2.367 0.322 0.026 0 0.052-0 0.079-0 0.259-0.002 0.467-0.214 0.465-0.473-0.002-0.258-0.212-0.465-0.469-0.465-0.001 0-0.003 0-0.004 0-0.369 0.003-0.702-0.019-0.993-0.051 1.279-0.646 2.439-1.442 3.593-2.903-0.227 1.544-0.805 3.82-2.283 5.466zM18.259 8.177c0.754-1.989 2.359-3.129 4.769-3.388 2.676-0.287 4.398-0.701 5.497-1.082-1.352 1.655-2.712 2.338-4.4 3.080-0.001 0.001-0.003 0.001-0.004 0.002-0.155 0.068-0.312 0.137-0.473 0.207-0.363 0.158-0.737 0.321-1.123 0.496 0.069-0.358 0.193-0.801 0.418-1.237 0.119-0.23 0.029-0.513-0.202-0.632s-0.513-0.029-0.632 0.202c-0.439 0.85-0.561 1.713-0.595 2.148-1.102 0.55-2.311 1.249-3.685 2.271 0.034-0.553 0.14-1.301 0.43-2.067zM11.177 9.704c-2.299 0.267-4.171-0.386-5.567-1.94-1.301-1.449-1.837-3.436-2.058-4.839 0.545 0.67 1.123 1.221 1.764 1.685 0.431 0.312 0.875 0.573 1.331 0.809-0.286 0.027-0.614 0.040-0.976 0.028-0.256-0.009-0.476 0.194-0.485 0.453s0.194 0.476 0.453 0.485c0.101 0.003 0.2 0.005 0.296 0.005 1.056 0 1.825-0.19 2.165-0.293 0.091 0.040 0.182 0.080 0.274 0.12 1.014 0.441 2.113 0.919 3.37 1.675-0.595 0.199-1.433 0.394-2.213 0.278-0.256-0.038-0.495 0.139-0.533 0.395s0.139 0.495 0.395 0.533c0.208 0.031 0.417 0.045 0.624 0.045 1.141 0 2.228-0.412 2.708-0.623 0.272 0.184 0.551 0.383 0.838 0.597-0.559 0.21-1.407 0.473-2.386 0.586zM10.723 6.262c-0.037-0.446-0.172-1.336-0.664-2.171-0.132-0.223-0.419-0.297-0.643-0.166s-0.298 0.419-0.166 0.643c0.244 0.414 0.379 0.852 0.454 1.211-0.328-0.148-0.646-0.287-0.956-0.422-1.708-0.743-3.043-1.325-4.361-2.892 1.014 0.338 2.563 0.696 4.907 0.948 2.178 0.234 3.632 1.259 4.321 3.046 0.257 0.665 0.358 1.321 0.395 1.823-1.222-0.903-2.303-1.527-3.288-2.020zM23.084 24.457l-1.254-0.070-0.031-0.314c-0.127-1.28-1.106-2.301-2.38-2.481-0.004-0.001-0.008-0.001-0.012-0.002l-4.848-0.558c-1.062-0.151-2.071-0.502-2.997-1.044-0.082-0.048-0.165-0.095-0.249-0.14-0.022-0.012-0.044-0.023-0.066-0.035-0.064-0.034-0.127-0.067-0.192-0.1-0.023-0.011-0.046-0.023-0.068-0.034-0.067-0.033-0.135-0.065-0.203-0.097-0.018-0.008-0.036-0.017-0.054-0.025-0.080-0.036-0.16-0.072-0.241-0.106-0.006-0.003-0.013-0.005-0.019-0.008-0.184-0.077-0.37-0.148-0.558-0.212-0.005-0.002-0.010-0.003-0.015-0.005-0.063-0.021-0.125-0.043-0.188-0.063 0.004-0.011 0.007-0.022 0.009-0.033 0.38-1.572 1.715-2.751 3.322-2.935 0.096-0.011 0.186-0.051 0.258-0.115 0.71-0.63 1.623-0.977 2.572-0.977s1.862 0.347 2.572 0.977c0.072 0.064 0.162 0.104 0.258 0.115 1.607 0.183 2.941 1.363 3.322 2.935 0.045 0.188 0.201 0.328 0.393 0.355 1.678 0.229 3.025 1.56 3.296 3.214l-2.627 1.758z"></path>
</svg>
