<!-- Generated by IcoMoon.io -->
<svg version="1.1" xmlns="http://www.w3.org/2000/svg" width="32" height="32" viewBox="0 0 32 32">
<path d="M27.314 5.086c-3.022-3.022-7.040-4.686-11.314-4.686s-8.292 1.664-11.314 4.686c-3.022 3.022-4.686 7.040-4.686 11.314s1.664 8.292 4.686 11.314c3.022 3.022 7.040 4.686 11.314 4.686s8.292-1.664 11.314-4.686c3.022-3.022 4.686-7.040 4.686-11.314s-1.664-8.292-4.686-11.314zM23.499 7.277l0.703-2.922c2.801 1.913 4.903 4.777 5.839 8.122l-0.368 0.071c-0.55 0.106-0.993 0.526-1.128 1.069l-0.143 0.576c-0.002 0.007-0.003 0.011-0.013 0.014s-0.014 0.001-0.019-0.003l-0.854-0.64c-0.442-0.332-1.045-0.381-1.535-0.124l-1.065 0.558c-0.511 0.268-0.806 0.791-0.771 1.367s0.393 1.059 0.933 1.262l0.050 0.019c0.006 0.002 0.010 0.004 0.013 0.014s-0 0.014-0.005 0.019l-0.664 0.763c-0.007 0.008-0.018 0.009-0.027 0.004l-1.789-1.154c-0.41-0.265-0.922-0.305-1.368-0.106s-0.76 0.604-0.838 1.086l-0.138 0.843c-0.078 0.476 0.086 0.957 0.438 1.287l0.933 0.873c0.007 0.007 0.009 0.018 0.003 0.026l-1.52 2.305c-0.145 0.219-0.227 0.474-0.237 0.737l-0.132 3.3c-0 0.005-0.002 0.010-0.006 0.014l-2.025 1.985c-0.007 0.007-0.017 0.008-0.025 0.003l-1.313-0.769c-0.005-0.003-0.009-0.008-0.010-0.013 0 0-0.637-2.89-0.661-2.954l-0.579-1.554c-0.194-0.519-0.675-0.886-1.227-0.934l-2.65-0.23c-0.007-0.001-0.013-0.004-0.016-0.010l-1.508-2.599c-0.002-0.004-0.003-0.009-0.003-0.013l0.379-2.521c0.001-0.005 0.004-0.010 0.008-0.013l2.315-1.747c0.006-0.004 0.014-0.005 0.020-0.003l2.243 0.936c0.128 0.053 0.262 0.088 0.399 0.103l3.107 0.338c0.354 0.038 0.707-0.055 0.997-0.262l2.058-1.475c0.555-0.397 0.755-1.138 0.477-1.761l-0.191-0.427c-0.222-0.496-0.696-0.823-1.238-0.852l-5.78-0.316c-0.003-0-0.006-0.001-0.009-0.003-0.006-0.003-0.009-0.006-0.009-0.006v0c-0.003-0.007-0.001-0.023 0.003-0.027 0.001-0.001 0.005-0.002 0.012-0.004l1.735-0.468c0.23-0.062 0.442-0.181 0.615-0.344l2.122-2.003c0.003-0.003 0.007-0.005 0.012-0.005l3.194-0.329c0.608-0.063 1.112-0.503 1.255-1.098zM12.68 6.103l1.194-2.247c0.176-0.332 0.232-0.718 0.156-1.087l-0.162-0.79c0.696-0.103 1.408-0.156 2.132-0.156 0.73 0 1.448 0.055 2.15 0.159 0 0-0.171 0.187-0.201 0.199l-1.691 0.678c-0.242 0.097-0.459 0.253-0.628 0.451l-2.635 3.080c-0.036 0.042-0.088 0.067-0.143 0.070-0.084 0.004-0.135-0.043-0.16-0.069-0.094-0.104-0.021-0.269-0.012-0.286zM6.464 5.382v2.134c0 0.596-0.299 1.145-0.799 1.469l-1.531 0.993c-0.355 0.23-0.656 0.524-0.894 0.873l-1.39 2.036c0.735-2.961 2.377-5.567 4.613-7.506zM7.393 26.374l-0.201 1.634c-2.28-1.734-4.035-4.122-4.983-6.883h0.905c0.111 0 0.213 0.056 0.273 0.149l1.83 2.851c0.082 0.128 0.181 0.245 0.293 0.347l1.78 1.623c0.077 0.070 0.117 0.175 0.104 0.279zM16 30.978c-2.735 0-5.296-0.758-7.485-2.073l0.29-2.356c0.069-0.561-0.139-1.124-0.557-1.504 0 0-1.819-1.664-1.835-1.688l-1.83-2.851c-0.323-0.503-0.873-0.804-1.47-0.804h-1.314c-0.247-1.061-0.377-2.167-0.377-3.302 0-0.123 0.002-0.245 0.005-0.367l2.988-4.379c0.132-0.193 0.297-0.356 0.494-0.483l1.53-0.993c0.906-0.587 1.447-1.583 1.447-2.662v-3.221c1.381-0.928 2.928-1.626 4.587-2.040l0.164 0.8c0.009 0.045 0.002 0.093-0.019 0.134l-1.194 2.247c-0.075 0.14-0.171 0.509-0.171 0.509-0.097 0.491 0.034 0.99 0.36 1.37 0.31 0.362 0.755 0.566 1.229 0.566 0.023 0 0.711 0.034 1.234-0.567l2.635-3.079c0.021-0.024 0.048-0.044 0.077-0.055l1.691-0.678c0.241-0.096 0.457-0.251 0.626-0.448l0.638-0.742c1.124 0.299 2.195 0.728 3.195 1.271-0.017 0.038-0.821 3.363-0.821 3.363-0.002 0.008-0.009 0.015-0.018 0.016l-3.194 0.329c-0.314 0.032-0.613 0.169-0.842 0.386l-2.122 2.003c-0.002 0.002-0.005 0.004-0.009 0.005l-1.735 0.468c-0.566 0.153-0.98 0.627-1.056 1.209s0.205 1.146 0.714 1.437c0.194 0.111 0.415 0.176 0.638 0.188l5.78 0.316c0.008 0 0.015 0.005 0.018 0.012l0.191 0.427c0.004 0.009 0.001 0.020-0.007 0.025l-2.058 1.475c-0.004 0.003-0.009 0.004-0.014 0.004l-3.112-0.339-2.243-0.936c-0.471-0.197-1.017-0.128-1.425 0.18l-2.315 1.747c-0.303 0.229-0.501 0.562-0.558 0.937l-0.379 2.521c-0.049 0.323 0.015 0.656 0.179 0.938l1.508 2.6c0.236 0.406 0.655 0.673 1.123 0.714l2.65 0.23c0.008 0.001 0.015 0.006 0.018 0.013l0.58 1.557 0.603 2.759c0.086 0.392 0.334 0.734 0.68 0.937l1.313 0.769c0.226 0.133 0.478 0.197 0.728 0.197 0.369 0 0.735-0.141 1.011-0.412l2.025-1.985c0.264-0.259 0.417-0.604 0.432-0.973l0.132-3.299c0-0.004 0.001-0.008 0.003-0.011l1.52-2.305c0.388-0.589 0.296-1.366-0.219-1.848l-0.933-0.873c-0.005-0.005-0.007-0.012-0.006-0.018l0.138-0.843c0.001-0.007 0.002-0.011 0.012-0.015s0.014-0.002 0.020 0.002l1.789 1.154c0.599 0.386 1.403 0.272 1.871-0.265l0.664-0.763c0.31-0.357 0.426-0.843 0.31-1.301s-0.449-0.831-0.892-0.997l-0.050-0.019c-0.006-0.002-0.010-0.005-0.010-0.005-0.004-0.005-0.005-0.021-0.002-0.027 0.001-0.001 0.004-0.003 0.010-0.006l1.065-0.558c0.007-0.004 0.016-0.003 0.022 0.002l0.854 0.64c0.388 0.291 0.893 0.368 1.35 0.205s0.799-0.541 0.916-1.012l0.143-0.576c0.002-0.008 0.008-0.014 0.016-0.015l0.415-0.080c0.145 0.824 0.221 1.671 0.221 2.535-0 8.038-6.54 14.578-14.578 14.578z"></path>
</svg>
