<!-- Generated by IcoMoon.io -->
<svg version="1.1" xmlns="http://www.w3.org/2000/svg" width="32" height="32" viewBox="0 0 32 32">
<path d="M30.231 9.075c-1.119-2.175-2.756-4.094-4.725-5.55-0.288-0.212-0.7-0.15-0.913 0.138s-0.15 0.7 0.137 0.912c1.813 1.338 3.313 3.1 4.344 5.1 1.081 2.094 1.625 4.356 1.625 6.725 0 8.106-6.594 14.7-14.7 14.7s-14.7-6.594-14.7-14.7 6.594-14.7 14.7-14.7c0.363 0 0.65-0.294 0.65-0.65s-0.288-0.65-0.65-0.65c-8.825 0-16 7.175-16 16s7.175 16 16 16 16-7.175 16-16c0-2.544-0.613-5.075-1.769-7.325zM11.906 8.969c-0.206 0.119-0.331 0.331-0.331 0.569v14.294c0 0.363 0.294 0.65 0.65 0.65s0.65-0.294 0.65-0.65v-13.15l9.644 5.737-7.088 4.569c-0.3 0.194-0.387 0.6-0.194 0.9s0.6 0.387 0.9 0.194l7.975-5.137c0.188-0.125 0.3-0.331 0.3-0.556-0.006-0.225-0.125-0.431-0.319-0.55l-11.531-6.863c-0.206-0.119-0.45-0.119-0.656-0.006z"></path>
</svg>
