<!-- Generated by IcoMoon.io -->
<svg version="1.1" xmlns="http://www.w3.org/2000/svg" width="32" height="32" viewBox="0 0 32 32">
<path d="M31.776 3.446l-0.426-0.543c-0.132-0.168-0.321-0.275-0.532-0.3s-0.421 0.033-0.589 0.164l-1.205 0.944c-0.291 0.228-0.414 0.618-0.307 0.973l-2.287 1.792c-0.275-0.161-0.612-0.165-0.886-0.020 0.145-0.274 0.141-0.612-0.020-0.886l1.792-2.287c0.356 0.106 0.745-0.016 0.973-0.307l0.944-1.205c0.272-0.346 0.211-0.849-0.136-1.121l-0.543-0.426c-0.308-0.241-0.722-0.292-1.079-0.131l-2.18 0.98c-1.106 0.497-2.086 1.264-2.834 2.218l-1.6 2.041c-0.526 0.671-0.908 1.458-1.111 2.287l-4.021 2.5c-0.081-0.047-0.17-0.081-0.263-0.1l-2.318-0.454c-0.559-0.103-1.087 0.188-1.284 0.708l-0.485 1.278c-2.421 0.776-7.048 2.956-11.079 8.862-0.456 0.668-0.39 1.624 0.16 2.326l0.39 0.498c0.056 0.072 0.118 0.141 0.182 0.205 0.392 0.392 0.918 0.615 1.436 0.615 0.056 0 0.112-0.002 0.168-0.008 0.504-0.048 0.936-0.302 1.216-0.716 2.359-3.489 4.894-5.385 6.604-6.362 2.124-1.212 3.71-1.446 3.724-1.447 0.061-0.008 0.12-0.028 0.173-0.059l3.045-1.757c0.1-0.058 0.186-0.135 0.253-0.225l1.056-0.192-0.192 1.057c-0.090 0.067-0.167 0.153-0.225 0.253l-1.756 3.044c-0.030 0.052-0.050 0.111-0.058 0.171-0.002 0.016-0.236 1.603-1.448 3.726-0.977 1.711-2.873 4.246-6.362 6.605-0.413 0.279-0.667 0.711-0.716 1.216-0.054 0.569 0.173 1.169 0.608 1.604v0c0.064 0.064 0.133 0.125 0.205 0.181l0.498 0.39c0.39 0.306 0.859 0.462 1.313 0.462 0.363 0 0.716-0.099 1.012-0.302 5.906-4.030 8.085-8.658 8.861-11.078l1.278-0.485c0.52-0.197 0.811-0.726 0.707-1.291l-0.453-2.312c-0.018-0.093-0.052-0.182-0.1-0.263l2.5-4.021c0.83-0.203 1.614-0.584 2.288-1.111l2.041-1.6c0.954-0.748 1.721-1.728 2.218-2.833l0.98-2.18c0.161-0.357 0.11-0.771-0.131-1.079zM21.6 5.91l1.6-2.041c0.655-0.835 1.512-1.507 2.48-1.941l2.18-0.98c0.038-0.018 0.083-0.012 0.116 0.014l0.434 0.34-0.844 1.077c-0.007-0.002-0.015-0.005-0.023-0.007-0.349-0.099-0.722 0.024-0.95 0.315l-1.821 2.323c-0.228 0.291-0.259 0.682-0.079 0.997 0.004 0.007 0.008 0.014 0.013 0.021l-0.226 0.289c-0.112 0.143-0.198 0.302-0.258 0.47-0.047-0.036-0.090-0.079-0.128-0.127-0.523-0.667-1.46-0.833-2.18-0.385l-0.884 0.55c0.157-0.324 0.349-0.632 0.571-0.915zM13.959 14.61c-0.4 0.072-1.969 0.406-3.967 1.546-1.797 1.026-4.457 3.013-6.917 6.651-0.122 0.18-0.304 0.286-0.528 0.308-0.294 0.027-0.612-0.098-0.852-0.337-0.037-0.037-0.073-0.078-0.106-0.12l-0.39-0.498c-0.296-0.378-0.348-0.89-0.124-1.219 3.89-5.699 8.324-7.776 10.62-8.507 0.254-0.081 0.455-0.272 0.551-0.525l0.495-1.303c0.039-0.104 0.124-0.124 0.184-0.124 0.020 0 0.036 0.002 0.049 0.004l2.278 0.447 1.582 2.019zM23.128 12.487l-1.958 3.15-1.63-1.277c-0.021-0.016-0.042-0.031-0.064-0.046l0.219-1.202zM21.394 19.258l-1.303 0.495c-0.253 0.096-0.444 0.297-0.525 0.551-0.73 2.297-2.807 6.731-8.507 10.62-0.329 0.224-0.841 0.172-1.219-0.124l-0.499-0.391c-0.042-0.033-0.083-0.069-0.12-0.106-0.239-0.239-0.365-0.558-0.337-0.851 0.021-0.224 0.128-0.407 0.308-0.528 3.638-2.46 5.625-5.119 6.651-6.916 1.14-1.997 1.475-3.567 1.546-3.967l1.658-2.875 2.019 1.583 0.446 2.272c0.010 0.054 0.019 0.187-0.119 0.239zM31.052 4.14l-0.98 2.18c-0.435 0.968-1.106 1.825-1.941 2.48l-2.041 1.6c-0.648 0.508-1.419 0.854-2.229 1.002l-6.175 1.123c-0.014-0.022-0.030-0.043-0.046-0.064l-1.277-1.63 6.046-3.759c0.313-0.194 0.72-0.122 0.947 0.167 0.564 0.719 1.608 0.846 2.327 0.282l0.289-0.226c0.007 0.004 0.014 0.008 0.021 0.012 0.316 0.18 0.707 0.149 0.998-0.078l2.323-1.821c0.291-0.228 0.414-0.6 0.314-0.95-0.002-0.008-0.004-0.015-0.007-0.022l1.077-0.844 0.34 0.433c0.026 0.033 0.032 0.078 0.014 0.116z"></path>
<path d="M22.459 11.041c-0.445 0-0.885-0.197-1.18-0.573-0.509-0.65-0.395-1.593 0.255-2.102 0.315-0.247 0.707-0.356 1.104-0.308s0.751 0.248 0.998 0.563c0.247 0.315 0.356 0.707 0.308 1.104s-0.248 0.751-0.563 0.998c-0.273 0.214-0.599 0.318-0.922 0.318zM22.456 8.985c-0.124 0-0.245 0.041-0.344 0.119-0.243 0.19-0.286 0.543-0.095 0.786s0.543 0.285 0.786 0.095c0.118-0.092 0.192-0.225 0.21-0.373s-0.023-0.295-0.115-0.413c-0.092-0.118-0.225-0.192-0.373-0.21-0.023-0.003-0.046-0.004-0.069-0.004zM21.823 8.735h0.001z"></path>
</svg>
