<!-- Generated by IcoMoon.io -->
<svg version="1.1" xmlns="http://www.w3.org/2000/svg" width="32" height="32" viewBox="0 0 32 32">
<path d="M12.8 27.2c0-0.659 0.2-1.271 0.542-1.78-1.246-0.438-2.142-1.626-2.142-3.020 0-0.659 0.2-1.271 0.542-1.78-1.246-0.438-2.142-1.626-2.142-3.020 0-0.583 0.157-1.129 0.431-1.6h-5.231c-1.764 0-3.2-1.435-3.2-3.2s1.436-3.2 3.2-3.2h11.797l-3.733-2.153c-0.76-0.418-1.301-1.099-1.524-1.919-0.217-0.799-0.102-1.63 0.324-2.339 0.871-1.452 2.838-2.004 4.387-1.233 0.097 0.047 2.188 1.069 8.561 4.255 3.001 1.5 5.145 3.147 6.375 4.894 0.965 1.372 1.014 2.319 1.014 2.495v8c0 1.357-0.393 2.612-1.167 3.73-0.749 1.081-1.843 2.015-3.253 2.774-2.789 1.502-6.793 2.296-11.579 2.296-1.764 0-3.2-1.436-3.2-3.2zM26.821 26.696c1.633-0.879 3.579-2.477 3.579-5.096v-7.984c-0.005-0.063-0.080-0.736-0.84-1.752-0.758-1.013-2.355-2.567-5.664-4.222-6.487-3.243-8.53-4.24-8.55-4.25-0.002-0.001-0.005-0.002-0.007-0.004-0.804-0.402-1.859-0.117-2.303 0.623-0.2 0.333-0.253 0.722-0.152 1.096 0.108 0.399 0.377 0.732 0.756 0.939 0.006 0.003 0.011 0.006 0.017 0.009l4.328 2.497c0.933 0.511 1.325 1.085 1.166 1.707-0.159 0.624-0.782 0.94-1.851 0.94h-12.5c-0.882 0-1.6 0.718-1.6 1.6s0.718 1.6 1.6 1.6h10.4c0.442 0 0.8 0.358 0.8 0.8s-0.358 0.8-0.8 0.8h-2.4c-0.882 0-1.6 0.718-1.6 1.6s0.718 1.6 1.6 1.6h2.4c0.442 0 0.8 0.358 0.8 0.8s-0.358 0.8-0.8 0.8h-0.8c-0.882 0-1.6 0.718-1.6 1.6s0.718 1.6 1.6 1.6h2.4c0.442 0 0.8 0.358 0.8 0.8s-0.358 0.8-0.8 0.8h-0.8c-0.882 0-1.6 0.718-1.6 1.6s0.718 1.6 1.6 1.6c4.522 0 8.264-0.728 10.821-2.104z"></path>
</svg>
