<!-- Generated by IcoMoon.io -->
<svg version="1.1" xmlns="http://www.w3.org/2000/svg" width="32" height="32" viewBox="0 0 32 32">
<path d="M27.292 21.285c-0.124-0.070-0.252-0.139-0.382-0.206 1.529-1.198 1.89-2.508 1.89-3.478 0-2.271-1.909-4.248-5.079-5.454 0.184-0.561 0.279-1.152 0.279-1.746 0-3.088-2.512-5.6-5.6-5.6-1.095 0-2.4-0.278-2.4-1.6 0-0.725 0.924-1.517 1.246-1.736 0.292-0.196 0.422-0.56 0.319-0.897s-0.413-0.567-0.765-0.567c-2.508 0-5.084 0.824-7.069 2.261-1.013 0.733-1.817 1.581-2.389 2.52-0.625 1.025-0.942 2.108-0.942 3.219 0 0.461 0.039 0.918 0.113 1.369-1.358 0.656-2.506 1.522-3.344 2.529-1.026 1.232-1.568 2.651-1.568 4.102 0 0.874 0.196 1.765 0.569 2.626-1.422 1.366-2.169 2.937-2.169 4.574 0 2.44 1.644 4.698 4.629 6.356 2.837 1.576 6.591 2.444 10.571 2.444 4.092 0 7.806-0.532 10.456-1.498 3.921-1.429 4.744-3.454 4.744-4.902 0-1.165-0.539-2.86-3.108-4.315zM25.108 28.998c-2.479 0.904-5.998 1.402-9.908 1.402-3.713 0-7.191-0.796-9.794-2.242-2.454-1.364-3.806-3.124-3.806-4.957 0-1.276 0.656-2.337 1.386-3.123 0.184 0.262 0.385 0.518 0.602 0.766 1.274 1.454 3.046 2.564 4.989 3.125 0.074 0.021 0.149 0.032 0.222 0.032 0.347 0 0.667-0.228 0.768-0.578 0.123-0.424-0.122-0.868-0.547-0.991-3.319-0.958-5.822-3.723-5.822-6.431 0-1.959 1.407-3.838 3.727-5.049 0.838 2.308 2.608 4.226 4.806 5.003 0.088 0.031 0.178 0.046 0.267 0.046 0.329 0 0.638-0.205 0.754-0.534 0.147-0.417-0.071-0.874-0.488-1.021-2.432-0.86-4.267-3.631-4.267-6.446 0-1.619 0.948-3.197 2.669-4.443 1.19-0.862 2.628-1.469 4.124-1.76-0.231 0.412-0.393 0.886-0.393 1.403 0 1.547 1.051 3.2 4 3.2 2.206 0 4 1.794 4 4 0 0.433-0.067 0.853-0.2 1.254-0.653-0.178-1.345-0.327-2.073-0.444-0.436-0.070-0.847 0.226-0.917 0.663s0.226 0.847 0.663 0.917c2.22 0.358 4.101 1.036 5.442 1.962 0.86 0.594 1.886 1.571 1.886 2.848 0 1.032-0.685 1.949-2.038 2.729-1.463-0.521-3.178-0.902-5.070-1.123-0.439-0.052-0.836 0.263-0.887 0.702s0.263 0.836 0.702 0.887c2.698 0.315 4.979 0.966 6.596 1.882 1.048 0.594 2.297 1.583 2.297 2.923 0 1.696-2.008 2.784-3.692 3.398z"></path>
</svg>
