<!-- Generated by IcoMoon.io -->
<svg version="1.1" xmlns="http://www.w3.org/2000/svg" width="53" height="32" viewBox="0 0 53 32">
<path d="M25.054 31.22h-3.2c-0.234 0-0.39 0.156-0.39 0.39s0.156 0.39 0.39 0.39h3.2c0.234 0 0.39-0.156 0.39-0.39s-0.234-0.39-0.39-0.39z"></path>
<path d="M28.254 31.22h-0.546c-0.234 0-0.39 0.156-0.39 0.39s0.156 0.39 0.39 0.39h0.546c0.234 0 0.39-0.156 0.39-0.39s-0.156-0.39-0.39-0.39z"></path>
<path d="M31.376 31.22h-0.546c-0.234 0-0.39 0.156-0.39 0.39s0.156 0.39 0.39 0.39h0.546c0.234 0 0.39-0.156 0.39-0.39s-0.156-0.39-0.39-0.39z"></path>
<path d="M28.488 5.854h-14.985c-0.234 0-0.39 0.156-0.39 0.39s0.156 0.39 0.39 0.39h14.907c0.312 0 0.468-0.234 0.468-0.39s-0.156-0.39-0.39-0.39z"></path>
<path d="M24.351 9.834h-10.849c-0.234 0-0.39 0.156-0.39 0.39s0.156 0.39 0.39 0.39h10.849c0.234 0 0.39-0.156 0.39-0.39s-0.156-0.39-0.39-0.39z"></path>
<path d="M40.741 0h-28.254c-2.341 0-4.293 1.951-4.293 4.293v15.766c0 2.341 1.951 4.293 4.293 4.293h28.254c2.341 0 4.293-1.951 4.293-4.293v-15.766c0-2.341-1.951-4.293-4.293-4.293zM40.741 23.571h-12.020l5.307-5.151 3.512 2.888 4.605-5.698 2.107 2.341v2.029c0 2.029-1.561 3.59-3.512 3.59zM44.254 16.937l-2.185-2.341-4.605 5.698-3.434-2.888-6.4 6.166h-15.141c-1.951 0-3.512-1.561-3.512-3.512v-15.766c0-1.951 1.561-3.512 3.512-3.512h28.254c1.951 0 3.512 1.561 3.512 3.512v12.644z"></path>
<path d="M4.527 5.073h1.639c0.234 0 0.39-0.156 0.39-0.39s-0.234-0.39-0.39-0.39h-1.639c-2.498 0-4.527 2.029-4.527 4.449v6.868c0 2.498 2.029 4.449 4.527 4.449h1.639c0.234 0 0.39-0.156 0.39-0.39s-0.156-0.39-0.39-0.39h-1.639c-2.107 0-3.746-1.639-3.746-3.668v-6.79c0-2.107 1.639-3.746 3.746-3.746z"></path>
<path d="M48.781 4.293h-1.639c-0.234 0-0.39 0.156-0.39 0.39s0.156 0.39 0.39 0.39h1.639c2.029 0 3.746 1.639 3.746 3.746v6.79c0 2.029-1.639 3.668-3.746 3.668h-1.639c-0.234 0-0.39 0.156-0.39 0.39s0.156 0.39 0.39 0.39h1.639c2.498 0 4.527-2.029 4.527-4.449v-6.79c-0.078-2.498-2.107-4.527-4.527-4.527z"></path>
<path d="M31.922 11.785c-1.171 0-2.185 0.937-2.185 2.185s0.937 2.185 2.185 2.185 2.185-0.937 2.185-2.185-1.015-2.185-2.185-2.185zM31.922 15.298c-0.78 0-1.405-0.624-1.405-1.405s0.624-1.405 1.405-1.405 1.405 0.624 1.405 1.405-0.702 1.405-1.405 1.405z"></path>
</svg>
