<!-- Generated by IcoMoon.io -->
<svg version="1.1" xmlns="http://www.w3.org/2000/svg" width="75" height="32" viewBox="0 0 75 32">
<path d="M5.215 3.556c-0.158-0.158-0.395-0.158-0.553 0l-4.662 4.109 4.662 4.188c0.079 0.079 0.158 0.079 0.237 0.079s0.237-0.079 0.316-0.158c0.158-0.158 0.158-0.395 0-0.553l-4.030-3.556 4.030-3.556c0.158-0.158 0.158-0.395 0-0.553z"></path>
<path d="M69.847 3.477c-0.158-0.158-0.395-0.158-0.553 0s-0.158 0.395 0 0.553l4.030 3.556-4.030 3.556c-0.158 0.158-0.158 0.395 0 0.553 0.079 0.079 0.158 0.158 0.316 0.158 0.079 0 0.158 0 0.237-0.079l4.662-4.188-4.662-4.109z"></path>
<path d="M20.938 0h-7.427c-2.212 0-3.951 1.738-3.951 3.951v7.427c0 2.212 1.738 3.951 3.951 3.951h7.427c2.212 0 3.951-1.738 3.951-3.951v-7.427c0-2.212-1.738-3.951-3.951-3.951zM20.938 14.538h-7.427c-0.79 0-1.58-0.316-2.133-0.869l4.425-4.188 2.844 2.37 3.714-4.583 1.738 1.896c0 0 0 0 0 0v2.133c0 1.817-1.343 3.239-3.16 3.239zM24.099 8.059l-1.817-1.975-3.793 4.741-2.765-2.37-4.82 4.662c-0.316-0.474-0.474-1.106-0.474-1.738v-7.427c0-1.738 1.422-3.16 3.161-3.16h7.427c1.738 0 3.16 1.422 3.16 3.16v4.109z"></path>
<path d="M13.985 3.872c-1.027 0-1.817 0.79-1.817 1.817s0.79 1.817 1.817 1.817 1.817-0.79 1.817-1.817-0.79-1.817-1.817-1.817zM13.985 6.795c-0.553 0-1.027-0.474-1.027-1.027s0.474-1.027 1.027-1.027c0.553 0 1.027 0.474 1.027 1.027s-0.474 1.027-1.027 1.027z"></path>
<path d="M23.704 18.252h-13.748c-0.237 0-0.395 0.158-0.395 0.395s0.158 0.395 0.395 0.395h13.748c0.237 0 0.395-0.158 0.395-0.395s-0.158-0.395-0.395-0.395z"></path>
<path d="M20.385 20.859h-10.43c-0.237 0-0.395 0.158-0.395 0.395s0.158 0.395 0.395 0.395h10.43c0.237 0 0.395-0.158 0.395-0.395s-0.237-0.395-0.395-0.395z"></path>
<path d="M16.356 23.467h-6.4c-0.237 0-0.395 0.158-0.395 0.395s0.158 0.395 0.395 0.395h6.4c0.237 0 0.395-0.158 0.395-0.395s-0.158-0.395-0.395-0.395z"></path>
<path d="M40.928 0h-7.427c-2.212 0-3.951 1.738-3.951 3.951v7.427c0 2.212 1.738 3.951 3.951 3.951h7.427c2.212 0 3.951-1.738 3.951-3.951v-7.427c0-2.212-1.738-3.951-3.951-3.951zM40.928 14.538h-7.427c-0.79 0-1.58-0.316-2.133-0.869l4.346-4.188 2.844 2.37 3.714-4.583 1.738 1.896c0 0 0 0 0 0v2.133c0.079 1.817-1.264 3.239-3.081 3.239zM44.089 8.059l-1.817-1.975-3.793 4.741-2.765-2.37-4.82 4.662c-0.316-0.474-0.474-1.106-0.474-1.738v-7.427c0-1.738 1.422-3.16 3.161-3.16h7.427c1.738 0 3.16 1.422 3.16 3.16v4.109z"></path>
<path d="M33.975 3.872c-1.027 0-1.817 0.79-1.817 1.817s0.79 1.817 1.817 1.817 1.817-0.79 1.817-1.817-0.79-1.817-1.817-1.817zM33.975 6.795c-0.553 0-1.027-0.474-1.027-1.027s0.474-1.027 1.027-1.027c0.553 0 1.027 0.474 1.027 1.027 0.079 0.553-0.395 1.027-1.027 1.027z"></path>
<path d="M43.694 18.252h-13.748c-0.237 0-0.395 0.158-0.395 0.395s0.158 0.395 0.395 0.395h13.748c0.237 0 0.395-0.158 0.395-0.395s-0.158-0.395-0.395-0.395z"></path>
<path d="M40.375 20.859h-10.43c-0.237 0-0.395 0.158-0.395 0.395s0.158 0.395 0.395 0.395h10.43c0.237 0 0.395-0.158 0.395-0.395s-0.158-0.395-0.395-0.395z"></path>
<path d="M36.346 23.467h-6.4c-0.237 0-0.395 0.158-0.395 0.395s0.158 0.395 0.395 0.395h6.4c0.237 0 0.395-0.158 0.395-0.395s-0.158-0.395-0.395-0.395z"></path>
<path d="M60.998 0h-7.427c-2.212 0-3.951 1.738-3.951 3.951v7.427c0 2.212 1.738 3.951 3.951 3.951h7.427c2.212 0 3.951-1.738 3.951-3.951v-7.427c0-2.212-1.817-3.951-3.951-3.951zM60.998 14.538h-7.427c-0.79 0-1.58-0.316-2.133-0.869l4.346-4.188 2.844 2.37 3.714-4.583 1.738 1.896c0 0 0 0 0 0v2.133c0.079 1.817-1.343 3.239-3.081 3.239zM64.158 8.059l-1.817-1.975-3.793 4.741-2.765-2.37-4.82 4.662c-0.316-0.474-0.474-1.106-0.474-1.738v-7.427c0-1.738 1.422-3.16 3.16-3.16h7.427c1.738 0 3.16 1.422 3.16 3.16v4.109z"></path>
<path d="M53.965 3.872c-1.027 0-1.817 0.79-1.817 1.817s0.79 1.817 1.817 1.817 1.817-0.79 1.817-1.817-0.79-1.817-1.817-1.817zM53.965 6.795c-0.553 0-1.027-0.474-1.027-1.106 0-0.553 0.474-1.027 1.027-1.027s1.027 0.474 1.027 1.027c0.079 0.632-0.395 1.106-1.027 1.106z"></path>
<path d="M63.684 18.252h-13.748c-0.237 0-0.395 0.158-0.395 0.395s0.158 0.395 0.395 0.395h13.748c0.237 0 0.395-0.158 0.395-0.395s-0.158-0.395-0.395-0.395z"></path>
<path d="M60.365 20.859h-10.43c-0.237 0-0.395 0.158-0.395 0.395s0.158 0.395 0.395 0.395h10.43c0.237 0 0.395-0.158 0.395-0.395s-0.158-0.395-0.395-0.395z"></path>
<path d="M56.336 23.467h-6.4c-0.237 0-0.395 0.158-0.395 0.395s0.158 0.395 0.395 0.395h6.4c0.237 0 0.395-0.158 0.395-0.395s-0.158-0.395-0.395-0.395z"></path>
<path d="M35.635 31.21h-3.239c-0.237 0-0.395 0.158-0.395 0.395s0.158 0.395 0.395 0.395h3.239c0.237 0 0.395-0.158 0.395-0.395s-0.158-0.395-0.395-0.395z"></path>
<path d="M38.953 31.21h-0.553c-0.237 0-0.395 0.158-0.395 0.395s0.158 0.395 0.395 0.395h0.553c0.237 0 0.395-0.158 0.395-0.395s-0.237-0.395-0.395-0.395z"></path>
<path d="M42.114 31.21h-0.553c-0.237 0-0.395 0.158-0.395 0.395s0.158 0.395 0.395 0.395h0.553c0.237 0 0.395-0.158 0.395-0.395s-0.237-0.395-0.395-0.395z"></path>
</svg>
