<!-- Generated by IcoMoon.io -->
<svg version="1.1" xmlns="http://www.w3.org/2000/svg" width="76" height="32" viewBox="0 0 76 32">
<path d="M15.775 0h-11.268c-2.524 0-4.507 1.983-4.507 4.507v11.268c0 0.992 0.361 1.983 0.992 2.704 0 0.090 0.090 0.18 0.090 0.18s0.090 0.090 0.18 0.090c0.811 0.901 1.983 1.442 3.335 1.442h11.268c2.524 0 4.507-1.983 4.507-4.507v-11.177c-0.090-2.524-2.073-4.507-4.597-4.507zM15.775 19.38h-11.268c-0.992 0-1.803-0.361-2.434-0.992l6.13-5.949 3.786 3.155 4.958-6.13 2.344 2.614c0 0 0.090 0.090 0.090 0.090v3.515c0 2.073-1.623 3.696-3.606 3.696zM19.38 10.997l-2.524-2.794-5.048 6.22-3.696-3.155-6.67 6.4c-0.361-0.541-0.541-1.172-0.541-1.893v-11.268c0-1.983 1.623-3.606 3.606-3.606h11.268c1.983 0 3.606 1.623 3.606 3.606v6.49z"></path>
<path d="M5.859 5.228c-1.262 0-2.344 1.082-2.344 2.344s1.082 2.344 2.344 2.344 2.344-1.082 2.344-2.344-1.082-2.344-2.344-2.344zM5.859 9.014c-0.811 0-1.442-0.631-1.442-1.442s0.631-1.442 1.442-1.442 1.442 0.631 1.442 1.442-0.631 1.442-1.442 1.442z"></path>
<path d="M18.208 24.248h-17.758c-0.27 0-0.451 0.18-0.451 0.451s0.18 0.451 0.451 0.451h17.758c0.27 0 0.451-0.18 0.451-0.451s-0.18-0.451-0.451-0.451z"></path>
<path d="M14.242 27.673h-13.792c-0.27 0-0.451 0.18-0.451 0.451s0.18 0.451 0.451 0.451h13.792c0.27 0 0.451-0.18 0.451-0.451s-0.18-0.451-0.451-0.451z"></path>
<path d="M8.924 31.099h-8.473c-0.27 0-0.451 0.18-0.451 0.451s0.18 0.451 0.451 0.451h8.473c0.27 0 0.451-0.18 0.451-0.451s-0.18-0.451-0.451-0.451z"></path>
<path d="M43.628 0h-11.358c-2.524 0-4.507 1.983-4.507 4.507v11.268c0 0.992 0.361 1.983 0.992 2.704 0 0.090 0.090 0.18 0.090 0.18s0.090 0.090 0.18 0.090c0.811 0.901 1.983 1.442 3.335 1.442h11.268c2.524 0 4.507-1.983 4.507-4.507v-11.177c0-2.524-2.073-4.507-4.507-4.507zM43.628 19.38h-11.358c-0.992 0-1.803-0.361-2.434-0.992l6.13-5.949 3.786 3.155 4.958-6.13 2.434 2.614c0 0 0.090 0.090 0.090 0.090v3.515c0 2.073-1.623 3.696-3.606 3.696zM47.234 10.997l-2.524-2.794-5.048 6.13-3.696-3.065-6.67 6.4c-0.361-0.541-0.541-1.172-0.541-1.893v-11.268c0-1.983 1.623-3.606 3.606-3.606h11.268c1.983 0 3.606 1.623 3.606 3.606v6.49z"></path>
<path d="M33.623 5.228c-1.262 0-2.344 1.082-2.344 2.344s1.082 2.344 2.344 2.344 2.344-1.082 2.344-2.344-0.992-2.344-2.344-2.344zM33.623 9.014c-0.811 0-1.442-0.631-1.442-1.442s0.631-1.442 1.442-1.442 1.442 0.631 1.442 1.442-0.631 1.442-1.442 1.442z"></path>
<path d="M46.062 24.248h-17.848c-0.27 0-0.451 0.18-0.451 0.451s0.18 0.451 0.451 0.451h17.758c0.27 0 0.451-0.18 0.451-0.451s-0.090-0.451-0.361-0.451z"></path>
<path d="M42.096 27.673h-13.882c-0.27 0-0.451 0.18-0.451 0.451s0.18 0.451 0.451 0.451h13.792c0.27 0 0.451-0.18 0.451-0.451s-0.18-0.451-0.361-0.451z"></path>
<path d="M36.777 31.099h-8.563c-0.27 0-0.451 0.18-0.451 0.451s0.18 0.451 0.451 0.451h8.563c0.27 0 0.451-0.18 0.451-0.451s-0.18-0.451-0.451-0.451z"></path>
<path d="M71.392 0h-11.268c-2.524 0-4.507 1.983-4.507 4.507v11.268c0 0.992 0.361 1.983 0.992 2.704 0 0.090 0.090 0.18 0.090 0.18s0.090 0.090 0.18 0.090c0.811 0.901 1.983 1.442 3.335 1.442h11.268c2.524 0 4.507-1.983 4.507-4.507v-11.177c-0.090-2.524-2.073-4.507-4.597-4.507zM56.518 4.507c0-1.983 1.623-3.606 3.606-3.606h11.268c1.983 0 3.606 1.623 3.606 3.606v6.49l-2.524-2.794-5.048 6.22-3.696-3.065-6.67 6.4c-0.361-0.541-0.541-1.172-0.541-1.893v-11.358zM71.392 19.38h-11.268c-0.992 0-1.803-0.361-2.434-0.992l6.13-5.949 3.786 3.155 4.958-6.13 2.344 2.614c0 0 0.090 0.090 0.090 0.090v3.515c0 2.073-1.623 3.696-3.606 3.696z"></path>
<path d="M61.476 9.915c1.262 0 2.344-1.082 2.344-2.344s-1.082-2.344-2.344-2.344-2.344 1.082-2.344 2.344 0.992 2.344 2.344 2.344zM61.476 6.13c0.811 0 1.442 0.631 1.442 1.442s-0.631 1.442-1.442 1.442-1.442-0.631-1.442-1.442 0.631-1.442 1.442-1.442z"></path>
<path d="M73.825 24.248h-17.758c-0.27 0-0.451 0.18-0.451 0.451s0.18 0.451 0.451 0.451h17.758c0.27 0 0.451-0.18 0.451-0.451s-0.18-0.451-0.451-0.451z"></path>
<path d="M69.859 27.673h-13.792c-0.27 0-0.451 0.18-0.451 0.451s0.18 0.451 0.451 0.451h13.792c0.27 0 0.451-0.18 0.451-0.451s-0.18-0.451-0.451-0.451z"></path>
<path d="M64.541 31.099h-8.563c-0.27 0-0.451 0.18-0.451 0.451s0.18 0.451 0.451 0.451h8.563c0.27 0 0.451-0.18 0.451-0.451s-0.18-0.451-0.451-0.451z"></path>
</svg>
