<!-- Generated by IcoMoon.io -->
<svg version="1.1" xmlns="http://www.w3.org/2000/svg" width="35" height="32" viewBox="0 0 35 32">
<path d="M12.583 1.267c0.726 0.001 1.423 0.29 1.936 0.803s0.802 1.21 0.803 1.936v7.207c-0.001 0.726-0.29 1.422-0.804 1.936s-1.21 0.803-1.936 0.804h-8.577c-0.726-0.001-1.423-0.29-1.936-0.803s-0.802-1.21-0.803-1.936v-7.207c0.001-0.726 0.29-1.423 0.803-1.936s1.21-0.802 1.936-0.803h8.577zM12.583 0.582h-8.577c-0.908 0-1.779 0.361-2.421 1.003s-1.003 1.513-1.003 2.421v7.207c0 0.908 0.361 1.779 1.003 2.421s1.513 1.003 2.421 1.003h8.577c0.908 0 1.779-0.361 2.421-1.003s1.003-1.513 1.003-2.421v-7.207c0-0.908-0.361-1.779-1.003-2.421s-1.513-1.003-2.421-1.003z"></path>
<path d="M1.627 13.546c-0.068-0-0.135-0.021-0.192-0.059s-0.1-0.093-0.126-0.156c-0.025-0.063-0.031-0.133-0.017-0.2s0.048-0.128 0.098-0.175l5.376-5.167 2.797 2.35 3.82-4.726 2.353 2.573c0.061 0.067 0.093 0.156 0.089 0.247s-0.044 0.176-0.111 0.238c-0.067 0.061-0.156 0.093-0.247 0.089s-0.176-0.044-0.238-0.111l-1.815-1.986-3.758 4.65-2.857-2.402-4.933 4.739c-0.064 0.062-0.15 0.097-0.239 0.096z"></path>
<path d="M5.022 6.754c-0.353 0-0.699-0.105-0.993-0.301s-0.523-0.475-0.658-0.802c-0.135-0.327-0.171-0.686-0.102-1.032s0.239-0.665 0.489-0.915c0.25-0.25 0.568-0.42 0.915-0.489s0.706-0.034 1.032 0.102c0.327 0.135 0.606 0.364 0.802 0.658s0.301 0.639 0.301 0.993c-0.001 0.474-0.189 0.928-0.524 1.263s-0.789 0.523-1.263 0.524zM5.022 3.865c-0.218 0-0.431 0.065-0.612 0.186s-0.322 0.293-0.406 0.495c-0.083 0.201-0.105 0.423-0.063 0.637s0.147 0.41 0.302 0.564c0.154 0.154 0.35 0.259 0.564 0.302s0.435 0.021 0.637-0.063c0.201-0.083 0.373-0.225 0.495-0.406s0.186-0.394 0.186-0.612c-0-0.292-0.117-0.572-0.323-0.779s-0.487-0.323-0.779-0.323z"></path>
<path d="M33.985 4.531h-13.518c-0.091 0-0.178-0.036-0.242-0.1s-0.1-0.151-0.1-0.242 0.036-0.178 0.1-0.242c0.064-0.064 0.151-0.1 0.242-0.1h13.518c0.091 0 0.178 0.036 0.242 0.1s0.1 0.151 0.1 0.242-0.036 0.178-0.1 0.242c-0.064 0.064-0.151 0.1-0.242 0.1z"></path>
<path d="M30.966 7.125h-10.501c-0.091 0-0.178-0.036-0.242-0.1s-0.1-0.151-0.1-0.242 0.036-0.178 0.1-0.242c0.064-0.064 0.151-0.1 0.242-0.1h10.501c0.091 0 0.178 0.036 0.242 0.1s0.1 0.151 0.1 0.242-0.036 0.178-0.1 0.242c-0.064 0.064-0.151 0.1-0.242 0.1z"></path>
<path d="M26.942 9.72h-6.475c-0.091 0-0.178-0.036-0.242-0.1s-0.1-0.151-0.1-0.242 0.036-0.178 0.1-0.242c0.064-0.064 0.151-0.1 0.242-0.1h6.475c0.091 0 0.178 0.036 0.242 0.1s0.1 0.151 0.1 0.242-0.036 0.178-0.1 0.242c-0.064 0.064-0.151 0.1-0.242 0.1z"></path>
<path d="M12.583 18.063c0.726 0.001 1.423 0.29 1.936 0.803s0.802 1.21 0.803 1.936v7.207c-0.001 0.726-0.29 1.423-0.803 1.936s-1.21 0.802-1.936 0.803h-8.577c-0.726-0.001-1.423-0.29-1.936-0.803s-0.802-1.21-0.803-1.936v-7.207c0.001-0.726 0.29-1.423 0.803-1.936s1.21-0.802 1.936-0.803h8.577zM12.583 17.378h-8.577c-0.908 0-1.779 0.361-2.421 1.003s-1.003 1.513-1.003 2.421v7.207c0 0.908 0.361 1.779 1.003 2.421s1.513 1.003 2.421 1.003h8.577c0.908 0 1.779-0.361 2.421-1.003s1.003-1.513 1.003-2.421v-7.207c0-0.908-0.361-1.779-1.003-2.421s-1.513-1.003-2.421-1.003z"></path>
<path d="M1.627 30.342c-0.068-0-0.135-0.021-0.191-0.059s-0.1-0.092-0.126-0.156c-0.025-0.063-0.031-0.133-0.017-0.199s0.048-0.128 0.097-0.175l5.376-5.167 2.797 2.349 3.82-4.726 2.353 2.573c0.061 0.067 0.093 0.156 0.089 0.247s-0.044 0.176-0.111 0.238-0.156 0.093-0.247 0.089c-0.091-0.004-0.176-0.044-0.238-0.111l-1.815-1.986-3.758 4.649-2.857-2.403-4.932 4.74c-0.064 0.062-0.151 0.097-0.24 0.096z"></path>
<path d="M5.022 23.55c-0.353-0-0.699-0.105-0.992-0.301s-0.523-0.475-0.658-0.802c-0.135-0.326-0.17-0.686-0.101-1.032s0.239-0.665 0.489-0.914 0.568-0.42 0.915-0.489c0.346-0.069 0.706-0.034 1.032 0.102s0.605 0.364 0.802 0.658c0.196 0.294 0.301 0.639 0.301 0.992-0.001 0.474-0.189 0.928-0.524 1.263s-0.789 0.523-1.263 0.524zM5.022 20.662c-0.218 0-0.431 0.065-0.612 0.186s-0.322 0.293-0.405 0.494c-0.083 0.201-0.105 0.423-0.063 0.636s0.147 0.41 0.301 0.564 0.35 0.259 0.564 0.301c0.214 0.043 0.435 0.021 0.636-0.063s0.373-0.224 0.494-0.405 0.186-0.394 0.186-0.612c-0-0.292-0.116-0.572-0.323-0.779s-0.487-0.323-0.779-0.323z"></path>
<path d="M33.985 21.327h-13.518c-0.091 0-0.178-0.036-0.242-0.1s-0.1-0.151-0.1-0.242 0.036-0.178 0.1-0.242c0.064-0.064 0.151-0.1 0.242-0.1h13.518c0.091 0 0.178 0.036 0.242 0.1s0.1 0.151 0.1 0.242-0.036 0.178-0.1 0.242c-0.064 0.064-0.151 0.1-0.242 0.1z"></path>
<path d="M30.966 23.922h-10.501c-0.091 0-0.178-0.036-0.242-0.1s-0.1-0.151-0.1-0.242 0.036-0.178 0.1-0.242c0.064-0.064 0.151-0.1 0.242-0.1h10.501c0.091 0 0.178 0.036 0.242 0.1s0.1 0.151 0.1 0.242-0.036 0.178-0.1 0.242c-0.064 0.064-0.151 0.1-0.242 0.1z"></path>
<path d="M26.942 26.516h-6.475c-0.091 0-0.178-0.036-0.242-0.1s-0.1-0.151-0.1-0.242 0.036-0.178 0.1-0.242c0.064-0.064 0.151-0.1 0.242-0.1h6.475c0.091 0 0.178 0.036 0.242 0.1s0.1 0.151 0.1 0.242-0.036 0.178-0.1 0.242c-0.064 0.064-0.151 0.1-0.242 0.1z"></path>
</svg>
