<!-- Generated by IcoMoon.io -->
<svg version="1.1" xmlns="http://www.w3.org/2000/svg" width="46" height="32" viewBox="0 0 46 32">
<path d="M5.62 7.102h12.020c0.234 0 0.39-0.156 0.39-0.39s-0.156-0.39-0.39-0.39h-12.020c-0.156 0-0.39 0.156-0.39 0.39s0.234 0.39 0.39 0.39z"></path>
<path d="M5.62 10.693h9.054c0.234 0 0.39-0.156 0.39-0.39s-0.156-0.39-0.39-0.39h-9.054c-0.234 0-0.39 0.156-0.39 0.39s0.234 0.39 0.39 0.39z"></path>
<path d="M5.62 14.283h5.62c0.234 0 0.39-0.156 0.39-0.39s-0.156-0.39-0.39-0.39h-5.62c-0.234 0-0.39 0.156-0.39 0.39s0.234 0.39 0.39 0.39z"></path>
<path d="M2.966 20.605h25.132c1.639 0 2.966-1.327 2.966-2.966v-14.673c0-1.639-1.327-2.966-2.966-2.966h-25.132c-1.639 0-2.966 1.327-2.966 2.966v14.595c0 1.717 1.327 3.044 2.966 3.044zM0.78 2.966c0-1.171 1.015-2.185 2.185-2.185h25.132c1.249 0 2.185 1.015 2.185 2.185v14.595c0 1.249-1.015 2.185-2.185 2.185h-25.132c-1.249 0-2.185-1.015-2.185-2.185v-14.595z"></path>
<path d="M44.176 23.571h-41.99c-1.171 0-2.185 1.015-2.185 2.185v3.98c0 1.249 1.015 2.263 2.185 2.263h41.912c1.249 0 2.185-1.015 2.185-2.185v-4.059c0.078-1.171-0.937-2.185-2.107-2.185zM45.581 29.815c0 0.78-0.624 1.405-1.405 1.405h-41.99c-0.78 0-1.405-0.624-1.405-1.405v-4.059c0-0.78 0.624-1.405 1.405-1.405h41.912c0.78 0 1.405 0.624 1.405 1.405v4.059z"></path>
<path d="M43.707 8.273h-6.79c-0.234 0-0.39 0.156-0.39 0.39s0.156 0.39 0.39 0.39h6.79c0.234 0 0.39-0.156 0.39-0.39s-0.156-0.39-0.39-0.39z"></path>
<path d="M41.834 10.927h-4.995c-0.234 0-0.39 0.156-0.39 0.39s0.234 0.39 0.468 0.39h4.995c0.234 0 0.39-0.156 0.39-0.39s-0.234-0.39-0.468-0.39z"></path>
<path d="M39.102 13.659h-2.185c-0.234 0-0.39 0.156-0.39 0.39s0.156 0.39 0.39 0.39h2.185c0.234 0 0.39-0.156 0.39-0.39s-0.156-0.39-0.39-0.39z"></path>
<path d="M43.785 0h-7.102c-1.405 0-2.576 1.171-2.576 2.576v15.454c0 1.405 1.171 2.576 2.576 2.576h7.181c0.702 0 1.327-0.234 1.873-0.78 0.468-0.468 0.78-1.171 0.78-1.795v-15.454c-0.156-1.405-1.249-2.576-2.732-2.576zM45.581 18.029c0 0.468-0.156 0.937-0.546 1.249-0.312 0.312-0.78 0.546-1.327 0.546h-7.024c-1.015 0-1.795-0.78-1.795-1.795v-15.454c-0.078-1.015 0.78-1.795 1.795-1.795h7.181c1.015 0 1.795 0.78 1.795 1.795v15.454z"></path>
</svg>
