<!-- Generated by IcoMoon.io -->
<svg version="1.1" xmlns="http://www.w3.org/2000/svg" width="32" height="32" viewBox="0 0 32 32">
<path d="M15.2 19.2c-0.442 0-0.8-0.358-0.8-0.8v-14.4c0-0.442 0.358-0.8 0.8-0.8s0.8 0.358 0.8 0.8v14.4c0 0.442-0.358 0.8-0.8 0.8zM15.2 30.4c-3.205 0-6.219-1.248-8.485-3.515s-3.515-5.28-3.515-8.485c0-2.637 0.839-5.14 2.427-7.237 1.536-2.029 3.718-3.544 6.144-4.266 0.423-0.126 0.869 0.115 0.995 0.539s-0.115 0.869-0.539 0.995c-4.374 1.302-7.428 5.401-7.428 9.969 0 5.735 4.665 10.4 10.4 10.4s10.4-4.665 10.4-10.4c0-4.568-3.055-8.668-7.428-9.97-0.424-0.126-0.665-0.572-0.539-0.995s0.572-0.665 0.995-0.539c2.426 0.722 4.609 2.237 6.145 4.266 1.588 2.097 2.427 4.6 2.427 7.237 0 3.205-1.248 6.219-3.515 8.485s-5.28 3.515-8.485 3.515z"></path>
</svg>
