<!-- Generated by IcoMoon.io -->
<svg version="1.1" xmlns="http://www.w3.org/2000/svg" width="32" height="32" viewBox="0 0 32 32">
<path d="M16 0.4c-8.822 0-16 7.178-16 16s7.178 16 16 16 16-7.178 16-16-7.178-16-16-16zM16 30.734c-7.904 0-14.334-6.43-14.334-14.334s6.43-14.334 14.334-14.334 14.334 6.43 14.334 14.334-6.43 14.334-14.334 14.334zM21.17 7.593c-0.396-0.233-0.907-0.101-1.14 0.296s-0.101 0.907 0.296 1.14c2.603 1.531 4.22 4.355 4.22 7.371 0 4.712-3.833 8.546-8.546 8.546s-8.546-3.834-8.546-8.546c0-3.016 1.617-5.84 4.22-7.371 0.397-0.233 0.529-0.744 0.296-1.14s-0.744-0.529-1.14-0.296c-3.11 1.829-5.041 5.204-5.041 8.807 0 5.631 4.581 10.212 10.211 10.212s10.211-4.581 10.211-10.212c0-3.604-1.932-6.978-5.041-8.807zM16 5.077c-0.46 0-0.833 0.373-0.833 0.833v10.49c0 0.46 0.373 0.833 0.833 0.833s0.833-0.373 0.833-0.833v-10.49c0-0.46-0.373-0.833-0.833-0.833z"></path>
</svg>
