<!-- Generated by IcoMoon.io -->
<svg version="1.1" xmlns="http://www.w3.org/2000/svg" width="32" height="32" viewBox="0 0 32 32">
<path d="M30.566 2.643h-13.85v-0.807c0-0.396-0.321-0.717-0.717-0.717s-0.717 0.321-0.717 0.717v0.807h-13.85c-0.791 0-1.434 0.643-1.434 1.434v1.33c0 0.79 0.643 1.434 1.434 1.434h0.195v16.112c0 0.791 0.643 1.434 1.434 1.434h12.221v2.104l-5.312 3.896c-0.319 0.234-0.388 0.683-0.154 1.002s0.683 0.388 1.002 0.154l4.464-3.274v2.697c0 0.396 0.321 0.717 0.717 0.717s0.717-0.321 0.717-0.717v-2.697l4.464 3.274c0.128 0.094 0.276 0.139 0.423 0.139 0.221 0 0.438-0.101 0.579-0.293 0.234-0.319 0.165-0.768-0.154-1.002l-5.312-3.896v-2.104h12.221c0.791 0 1.434-0.643 1.434-1.434v-16.112h0.195c0.791 0 1.434-0.643 1.434-1.434v-1.33c0-0.791-0.643-1.434-1.434-1.434zM28.938 22.952h-25.876v-16.112h25.876v16.112zM30.566 5.406h-29.133v-1.33h29.133v1.33zM15.986 8.916c-0.356 0-0.645 0.289-0.645 0.645v4.947h-4.947c-0.356 0-0.645 0.289-0.645 0.645 0 3.439 2.798 6.238 6.238 6.238s6.238-2.798 6.238-6.238-2.798-6.238-6.238-6.238zM15.986 20.101c-2.509 0-4.588-1.878-4.905-4.302h4.905c0.356 0 0.645-0.289 0.645-0.645v-4.905c2.424 0.317 4.302 2.396 4.302 4.905 0 2.728-2.219 4.947-4.947 4.947zM13.803 8.248c-2.603 0-4.721 2.118-4.721 4.722 0 0.356 0.289 0.645 0.645 0.645h4.076c0.356 0 0.645-0.289 0.645-0.645v-4.077c0-0.356-0.289-0.645-0.645-0.645zM13.158 12.325h-2.725c0.263-1.376 1.349-2.463 2.725-2.725v2.725z"></path>
</svg>
