<!-- Generated by IcoMoon.io -->
<svg version="1.1" xmlns="http://www.w3.org/2000/svg" width="31" height="32" viewBox="0 0 31 32">
<path d="M27.941 3.122c-0.234 0-0.39 0.156-0.39 0.39s0.234 0.39 0.39 0.39c1.015 0 1.873 0.859 1.873 1.873v20.449c0 1.015-0.859 1.873-1.873 1.873h-1.795v-9.288c0-0.234-0.156-0.39-0.39-0.39s-0.39 0.156-0.39 0.39v9.6c0 1.561-1.249 2.888-2.888 2.888h-18.81c-1.561 0-2.888-1.249-2.888-2.888v-24.741c0-1.639 1.249-2.888 2.888-2.888h18.966c1.561 0 2.888 1.249 2.888 2.888v9.522c0 0.234 0.156 0.39 0.39 0.39s0.39-0.156 0.39-0.39v-9.522c0-2.029-1.639-3.668-3.668-3.668h-18.966c-2.029 0-3.668 1.639-3.668 3.668v24.741c0 1.951 1.639 3.59 3.668 3.59h18.966c1.795 0 3.356-1.327 3.59-3.122h1.795c1.483 0 2.654-1.171 2.654-2.654v-20.449c0-1.483-1.249-2.654-2.732-2.654z"></path>
<path d="M7.415 7.415c0.546 0 1.093 0.468 1.093 1.093 0 0.234 0.156 0.39 0.39 0.39s0.39-0.156 0.39-0.39c0-0.859-0.624-1.639-1.483-1.795v-0.702c0-0.234-0.156-0.39-0.39-0.39s-0.39 0.156-0.39 0.39v0.702c-0.78 0.156-1.405 0.859-1.405 1.795 0 1.015 0.859 1.873 1.795 1.873 0.546 0 1.093 0.468 1.093 1.015s-0.468 1.093-1.093 1.093c-0.546 0-1.015-0.468-1.015-1.093 0-0.234-0.156-0.468-0.39-0.468s-0.39 0.156-0.39 0.39c0 0.859 0.624 1.639 1.405 1.795v0.702c0 0.234 0.156 0.39 0.39 0.39s0.39-0.156 0.39-0.39v-0.702c0.859-0.156 1.483-0.937 1.483-1.795 0-1.015-0.859-1.795-1.873-1.795-0.546 0-1.015-0.468-1.015-1.093s0.468-1.015 1.015-1.015z"></path>
<path d="M20.215 9.522h-8.351c-0.234 0-0.39 0.156-0.39 0.39s0.156 0.39 0.39 0.39h8.351c0.234 0 0.39-0.156 0.39-0.39s-0.156-0.39-0.39-0.39z"></path>
<path d="M20.215 7.259h-8.351c-0.234 0-0.39 0.156-0.39 0.39s0.156 0.39 0.39 0.39h8.351c0.234 0 0.39-0.156 0.39-0.39s-0.156-0.39-0.39-0.39z"></path>
<path d="M11.863 12.566h4.137c0.234 0 0.39-0.156 0.39-0.39s-0.156-0.39-0.39-0.39h-4.137c-0.234 0-0.39 0.156-0.39 0.39s0.156 0.39 0.39 0.39z"></path>
<path d="M7.415 19.59c0.546 0 1.093 0.468 1.093 1.093 0 0.234 0.156 0.39 0.39 0.39s0.39-0.156 0.39-0.39c0-0.859-0.624-1.639-1.483-1.795v-0.702c0-0.234-0.156-0.39-0.39-0.39s-0.39 0.156-0.39 0.39v0.702c-0.859 0.156-1.405 0.937-1.405 1.795 0 1.015 0.859 1.795 1.795 1.795 0.546 0 1.093 0.468 1.093 1.093 0 0.546-0.468 1.015-1.093 1.015-0.546 0-1.015-0.468-1.015-1.015 0-0.234-0.156-0.39-0.39-0.39s-0.39 0.156-0.39 0.39c0 0.859 0.624 1.639 1.405 1.795v0.702c0 0.234 0.156 0.39 0.39 0.39s0.39-0.156 0.39-0.39v-0.702c0.859-0.156 1.483-0.937 1.483-1.795 0-1.015-0.859-1.873-1.873-1.873-0.546 0-1.015-0.468-1.015-1.015 0-0.624 0.468-1.093 1.015-1.093z"></path>
<path d="M20.605 22.088c0-0.234-0.156-0.39-0.39-0.39h-8.351c-0.234 0-0.39 0.156-0.39 0.39s0.156 0.39 0.39 0.39h8.351c0.234 0 0.39-0.156 0.39-0.39z"></path>
<path d="M20.215 19.434h-8.351c-0.234 0-0.39 0.156-0.39 0.39s0.156 0.39 0.39 0.39h8.351c0.234 0 0.39-0.156 0.39-0.39s-0.156-0.39-0.39-0.39z"></path>
<path d="M11.863 23.961c-0.234 0-0.39 0.156-0.39 0.39s0.156 0.39 0.39 0.39h4.137c0.234 0 0.39-0.156 0.39-0.39s-0.156-0.39-0.39-0.39h-4.137z"></path>
</svg>
