<!-- Generated by IcoMoon.io -->
<svg version="1.1" xmlns="http://www.w3.org/2000/svg" width="27" height="32" viewBox="0 0 27 32">
<path d="M3.253 7.048h20.060c0.144 0 0.282-0.057 0.383-0.159s0.159-0.24 0.159-0.383v-3.795c0-0.144-0.057-0.282-0.159-0.383s-0.24-0.159-0.383-0.159h-20.060c-0.144 0-0.282 0.057-0.383 0.159s-0.159 0.24-0.159 0.383v3.795c0 0.144 0.057 0.282 0.159 0.383s0.24 0.159 0.383 0.159zM3.795 3.253h18.976v2.711h-18.976v-2.711z"></path>
<path d="M24.94 0h-23.313c-0.431 0-0.845 0.172-1.15 0.477s-0.476 0.718-0.477 1.15v28.735c0 0.431 0.172 0.845 0.477 1.15s0.718 0.476 1.15 0.477h16.265c2.3-0.003 4.505-0.917 6.131-2.544s2.541-3.831 2.544-6.131v-21.687c-0-0.431-0.172-0.845-0.477-1.15s-0.718-0.476-1.15-0.477zM1.084 30.361v-28.735c0-0.144 0.057-0.282 0.159-0.383s0.24-0.159 0.383-0.159h23.313c0.144 0 0.282 0.057 0.383 0.159s0.159 0.24 0.159 0.383v18.976c-0.002 1.294-0.516 2.534-1.431 3.449s-2.155 1.429-3.449 1.431c-0.144 0-0.282 0.057-0.383 0.159s-0.159 0.24-0.159 0.383c-0.002 1.294-0.516 2.534-1.431 3.449s-2.155 1.429-3.449 1.431h-13.554c-0.144 0-0.282-0.057-0.383-0.159s-0.159-0.24-0.159-0.383zM18.657 30.865c0.698-0.501 1.279-1.146 1.704-1.892s0.684-1.575 0.759-2.43c0.855-0.075 1.684-0.334 2.43-0.759s1.392-1.006 1.892-1.704c-0.179 1.739-0.951 3.363-2.187 4.598s-2.86 2.008-4.598 2.187z"></path>
<path d="M3.253 11.928h2.169c0.144 0 0.282-0.057 0.383-0.159s0.159-0.24 0.159-0.383c0-0.144-0.057-0.282-0.159-0.383s-0.24-0.159-0.383-0.159h-2.169c-0.144 0-0.282 0.057-0.383 0.159s-0.159 0.24-0.159 0.383c0 0.144 0.057 0.282 0.159 0.383s0.24 0.159 0.383 0.159z"></path>
<path d="M3.253 13.825h4.879c0.144 0 0.282-0.057 0.383-0.159s0.159-0.24 0.159-0.383c0-0.144-0.057-0.282-0.159-0.383s-0.24-0.159-0.383-0.159h-4.879c-0.144 0-0.282 0.057-0.383 0.159s-0.159 0.24-0.159 0.383c0 0.144 0.057 0.282 0.159 0.383s0.24 0.159 0.383 0.159z"></path>
<path d="M10.843 14.638h-7.59c-0.144 0-0.282 0.057-0.383 0.159s-0.159 0.24-0.159 0.383c0 0.144 0.057 0.282 0.159 0.383s0.24 0.159 0.383 0.159h7.59c0.144 0 0.282-0.057 0.383-0.159s0.159-0.24 0.159-0.383c0-0.144-0.057-0.282-0.159-0.383s-0.24-0.159-0.383-0.159z"></path>
<path d="M17.188 11.541c0.103 0.103 0.161 0.242 0.161 0.387 0 0.144 0.057 0.282 0.159 0.383s0.24 0.159 0.383 0.159c0.144 0 0.282-0.057 0.383-0.159s0.159-0.24 0.159-0.383c0.001-0.336-0.103-0.665-0.297-0.939s-0.469-0.482-0.787-0.593v-0.637c0-0.144-0.057-0.282-0.159-0.383s-0.24-0.159-0.383-0.159c-0.144 0-0.282 0.057-0.383 0.159s-0.159 0.24-0.159 0.383v0.637c-0.23 0.082-0.438 0.213-0.611 0.384-0.303 0.305-0.473 0.718-0.473 1.148s0.143 0.849 0.408 1.188c0.265 0.339 0.636 0.58 1.054 0.685l0.066 0.017c0.183 0.047 0.345 0.152 0.461 0.301s0.18 0.332 0.181 0.52c-0 0.142-0.056 0.279-0.155 0.381-0.103 0.098-0.24 0.153-0.383 0.155s-0.28-0.052-0.385-0.149c-0.103-0.103-0.161-0.242-0.161-0.387 0-0.144-0.057-0.282-0.159-0.383s-0.24-0.159-0.383-0.159c-0.144 0-0.282 0.057-0.383 0.159s-0.159 0.24-0.159 0.383c-0.001 0.336 0.103 0.665 0.297 0.939s0.469 0.482 0.787 0.593v0.637c0 0.144 0.057 0.282 0.159 0.383s0.24 0.159 0.383 0.159c0.144 0 0.282-0.057 0.383-0.159s0.159-0.24 0.159-0.383v-0.637c0.229-0.082 0.438-0.213 0.611-0.384 0.303-0.305 0.473-0.718 0.473-1.147s-0.143-0.849-0.408-1.188-0.636-0.58-1.054-0.684l-0.065-0.017c-0.183-0.045-0.346-0.151-0.463-0.3s-0.18-0.333-0.179-0.522c0-0.142 0.056-0.279 0.155-0.381 0.103-0.098 0.24-0.154 0.383-0.155s0.28 0.052 0.385 0.149z"></path>
<path d="M3.253 21.958h2.169c0.144 0 0.282-0.057 0.383-0.159s0.159-0.24 0.159-0.383c0-0.144-0.057-0.282-0.159-0.383s-0.24-0.159-0.383-0.159h-2.169c-0.144 0-0.282 0.057-0.383 0.159s-0.159 0.24-0.159 0.383c0 0.144 0.057 0.282 0.159 0.383s0.24 0.159 0.383 0.159z"></path>
<path d="M3.253 23.855h4.879c0.144 0 0.282-0.057 0.383-0.159s0.159-0.24 0.159-0.383c0-0.144-0.057-0.282-0.159-0.383s-0.24-0.159-0.383-0.159h-4.879c-0.144 0-0.282 0.057-0.383 0.159s-0.159 0.24-0.159 0.383c0 0.144 0.057 0.282 0.159 0.383s0.24 0.159 0.383 0.159z"></path>
<path d="M10.843 24.668h-7.59c-0.144 0-0.282 0.057-0.383 0.159s-0.159 0.24-0.159 0.383c0 0.144 0.057 0.282 0.159 0.383s0.24 0.159 0.383 0.159h7.59c0.144 0 0.282-0.057 0.383-0.159s0.159-0.24 0.159-0.383c0-0.144-0.057-0.282-0.159-0.383s-0.24-0.159-0.383-0.159z"></path>
<path d="M17.188 21.571c0.103 0.103 0.161 0.242 0.161 0.387 0 0.144 0.057 0.282 0.159 0.383s0.24 0.159 0.383 0.159c0.144 0 0.282-0.057 0.383-0.159s0.159-0.24 0.159-0.383c0.001-0.336-0.103-0.665-0.297-0.939s-0.469-0.482-0.787-0.593v-0.637c0-0.144-0.057-0.282-0.159-0.383s-0.24-0.159-0.383-0.159c-0.144 0-0.282 0.057-0.383 0.159s-0.159 0.24-0.159 0.383v0.637c-0.23 0.081-0.438 0.213-0.611 0.384-0.303 0.305-0.473 0.718-0.473 1.148s0.143 0.849 0.408 1.188c0.265 0.339 0.636 0.58 1.054 0.685l0.065 0.016c0.183 0.045 0.346 0.151 0.463 0.3s0.18 0.333 0.179 0.522c-0 0.142-0.056 0.279-0.155 0.381-0.103 0.098-0.24 0.153-0.383 0.155s-0.28-0.052-0.385-0.149c-0.103-0.103-0.161-0.242-0.161-0.387 0-0.144-0.057-0.282-0.159-0.383s-0.24-0.159-0.383-0.159c-0.144 0-0.282 0.057-0.383 0.159s-0.159 0.24-0.159 0.383c-0.001 0.336 0.103 0.665 0.297 0.939s0.469 0.482 0.787 0.593v0.637c0 0.144 0.057 0.282 0.159 0.383s0.24 0.159 0.383 0.159c0.144 0 0.282-0.057 0.383-0.159s0.159-0.24 0.159-0.383v-0.637c0.229-0.081 0.438-0.213 0.611-0.384 0.303-0.305 0.473-0.718 0.473-1.147s-0.143-0.849-0.408-1.188-0.636-0.58-1.054-0.684l-0.065-0.017c-0.183-0.045-0.346-0.151-0.463-0.3s-0.18-0.333-0.179-0.522c0-0.142 0.056-0.279 0.155-0.381 0.103-0.098 0.24-0.153 0.383-0.155s0.28 0.052 0.385 0.149z"></path>
</svg>
