<!-- Generated by IcoMoon.io -->
<svg version="1.1" xmlns="http://www.w3.org/2000/svg" width="32" height="32" viewBox="0 0 32 32">
<path d="M29.746 7.164h-5.974v-3.372c0-0.375-0.304-0.679-0.679-0.679h-14.187c-0.375 0-0.679 0.304-0.679 0.679v3.372h-5.974c-1.243-0-2.254 1.011-2.254 2.254v10.802c0 1.243 1.011 2.254 2.254 2.254h5.974v6.532c0 0.375 0.304 0.679 0.679 0.679h14.187c0.375 0 0.679-0.304 0.679-0.679v-6.532h5.974c1.243 0 2.254-1.011 2.254-2.254v-10.802c-0-1.243-1.011-2.254-2.254-2.254zM23.772 8.521h1.619v1.899h-1.619v-1.899zM9.585 4.471h12.83v5.949h-12.83v-5.949zM6.61 8.521h1.619v1.899h-1.619v-1.899zM22.415 28.329h-12.83v-8.936h12.83v8.936zM30.643 20.221h-0c0 0.495-0.402 0.897-0.897 0.897h-5.974v-1.725h1.238c0.375 0 0.679-0.304 0.679-0.679s-0.304-0.679-0.679-0.679h-18.019c-0.375 0-0.679 0.304-0.679 0.679s0.304 0.679 0.679 0.679h1.238v1.725h-5.974c-0.495 0-0.897-0.402-0.897-0.897v-10.802c0-0.495 0.402-0.897 0.897-0.897h2.998v2.578c0 0.375 0.304 0.679 0.679 0.679h20.138c0.375 0 0.679-0.304 0.679-0.679v-2.578h2.998c0.495 0 0.897 0.402 0.897 0.897v10.802zM5.15 14.104c0 0.47-0.381 0.85-0.85 0.85s-0.85-0.381-0.85-0.85c0-0.47 0.381-0.85 0.85-0.85s0.85 0.381 0.85 0.85zM15.803 24.553h-3.168c-0.375 0-0.679 0.304-0.679 0.679s0.304 0.679 0.679 0.679h3.168c0.375 0 0.679-0.304 0.679-0.679s-0.304-0.679-0.679-0.679zM19.364 21.118h-6.729c-0.375 0-0.679 0.304-0.679 0.679s0.304 0.679 0.679 0.679h6.729c0.375 0 0.679-0.304 0.679-0.679s-0.304-0.679-0.678-0.679z"></path>
</svg>
