<!-- Generated by IcoMoon.io -->
<svg version="1.1" xmlns="http://www.w3.org/2000/svg" width="34" height="32" viewBox="0 0 34 32">
<path d="M25.616 21.255l-1.168-0.467c-0.389-0.156-0.779-0.078-1.090 0.156s-0.389 0.701-0.311 1.090l0.311 1.168c0 0.078 0 0.156-0.078 0.234l-0.779 0.934c-0.234 0.311-0.311 0.701-0.156 1.090s0.545 0.623 0.934 0.623l1.246 0.078c0.078 0 0.156 0.078 0.234 0.156l0.623 1.090c0.156 0.311 0.545 0.467 0.856 0.467 0 0 0.078 0 0.078 0 0.389 0 0.701-0.311 0.856-0.701l0.467-1.168c0-0.078 0.078-0.156 0.156-0.156l1.246-0.311c0.389-0.078 0.701-0.389 0.779-0.779s-0.078-0.779-0.389-1.012l-0.934-0.779c-0.078-0.078-0.078-0.156-0.078-0.234l0.078-1.246c0-0.389-0.156-0.779-0.467-0.934-0.311-0.234-0.779-0.234-1.090 0l-1.012 0.701c-0.156 0.078-0.234 0.078-0.311 0zM27.251 21.255c0.156-0.078 0.234 0 0.311 0s0.156 0.078 0.156 0.234l-0.078 1.246c0 0.311 0.156 0.701 0.389 0.856l1.012 0.779c0.078 0.078 0.078 0.234 0.078 0.234s-0.078 0.156-0.156 0.234l-1.246 0.311c-0.311 0.078-0.623 0.311-0.701 0.623l-0.545 1.168c-0.078 0.156-0.156 0.156-0.234 0.156s-0.156 0-0.234-0.156l-0.701-1.090c-0.156-0.311-0.467-0.467-0.856-0.467l-1.246-0.078c-0.156 0-0.234-0.078-0.234-0.156s-0.078-0.156 0.078-0.311l0.779-0.934c0.234-0.234 0.311-0.623 0.234-0.934l-0.311-1.168c-0.078-0.156 0.078-0.234 0.078-0.234s0.078-0.078 0.156-0.078c0 0 0.078 0 0.078 0l1.168 0.467c0.311 0.156 0.701 0.078 0.934-0.078l1.090-0.623z"></path>
<path d="M33.635 23.669c-0.234 0-0.389 0.156-0.389 0.389 0 3.971-3.192 7.163-7.163 7.163s-7.163-3.192-7.163-7.163c0-3.737 2.803-6.774 6.462-7.163l-0.467 0.389c-0.156 0.156-0.156 0.389 0 0.545 0.078 0.078 0.156 0.078 0.311 0.078 0.078 0 0.234 0 0.311-0.078l1.401-1.401-1.401-1.401c-0.156-0.156-0.389-0.156-0.545 0s-0.156 0.389 0 0.545l0.467 0.467c-1.479 0.156-2.881 0.623-3.971 1.479 0 0 0 0 0 0l-1.246-2.491c-0.156-0.389-0.311-0.779-0.389-1.168 0 0 0 0 0 0 0-0.078 0-0.156-0.078-0.156-0.078-0.389-0.156-0.856-0.156-1.246 0-0.623 0.078-1.324 0.311-1.869 0.311-0.856 0.623-2.18 0.623-3.582 0-1.635 0.078-3.893 0.701-5.061 0.156-0.234 0.156-0.545 0-0.779-0.078-0.234-0.311-0.389-0.545-0.467l-2.725-0.701-0.078 0.311c0 0 0 0 0 0-0.701 2.336-2.803 3.893-5.294 3.893-2.414 0-4.516-1.557-5.217-3.815l-0.156-0.389-0.389 0.156c0 0 0 0 0 0s0 0 0 0l-2.258 0.467c-0.234 0.078-0.467 0.234-0.545 0.467s-0.078 0.545 0 0.779c0.623 1.090 0.701 3.426 0.701 5.061 0 1.479 0.389 2.881 0.623 3.582 0.156 0.623 0.311 1.246 0.311 1.869 0 0.934-0.234 1.791-0.545 2.647l-3.815 8.253c0 0 0 0 0 0l-1.168 2.491c-0.234 0.545-0.234 1.168 0 1.713s0.701 0.934 1.246 1.168c3.582 1.246 7.397 1.869 11.212 1.869 1.168 0 2.258-0.078 3.426-0.156 0.234 0 0.389-0.234 0.311-0.389 0-0.234-0.234-0.389-0.389-0.311-1.090 0.078-2.18 0.156-3.348 0.156-3.737 0-7.397-0.623-10.9-1.791-0.389-0.156-0.623-0.389-0.779-0.701s-0.156-0.701 0-1.090l1.168-2.491c0 0 0 0 0 0l3.737-8.253c0.156-0.389 0.311-0.701 0.389-1.090h2.959l-1.168 5.917c-0.078 0.234 0.078 0.389 0.311 0.467 0 0 0.078 0 0.078 0 0.156 0 0.311-0.156 0.389-0.311l1.168-6.073h5.528l1.168 6.073c0 0.156 0.234 0.311 0.389 0.311 0 0 0.078 0 0.078 0 0.234-0.078 0.311-0.234 0.311-0.467l-1.168-5.917h2.881c0.078 0.389 0.234 0.779 0.389 1.090l1.168 2.569c0 0.078 0.078 0.078 0.156 0.156-1.635 1.479-2.725 3.581-2.725 5.995 0 4.36 3.581 7.942 7.942 7.942s7.942-3.581 7.942-7.942c0-0.389-0.156-0.545-0.389-0.545zM4.749 1.479l-0.311 0.156 0.389-0.234 1.946-0.467c0 0.078 0.078 0.078 0.078 0.156 0.078 0.234 0.156 0.467 0.234 0.701 0 0.078 0.078 0.156 0.156 0.234 0.078 0.156 0.234 0.311 0.389 0.545 0 0.078 0.078 0.078 0.156 0.156 0.156 0.234 0.311 0.389 0.545 0.545 0.078 0.078 0.078 0.078 0.156 0.078 0.078 0.234 0.311 0.389 0.545 0.545 0.078 0 0.078 0.078 0.156 0.078 0.234 0.156 0.389 0.234 0.623 0.389 0.078 0 0.156 0.078 0.234 0.078 0.234 0.078 0.389 0.156 0.623 0.234 0.078 0 0.234 0.078 0.311 0.078 0.156 0.078 0.389 0.078 0.623 0.156s0.545 0.078 0.779 0.078c0.078 0 0.156 0 0.156 0s0 0 0 0 0 0 0 0c0.311 0 0.701 0 1.012-0.078 0.078 0 0.078 0 0.156 0 0.311-0.078 0.545-0.078 0.779-0.234 0.078 0 0.156-0.078 0.156-0.078 0.234-0.078 0.467-0.156 0.701-0.311 0.078 0 0.156-0.078 0.156-0.078 0.234-0.156 0.467-0.234 0.623-0.389 0.078-0.078 0.156-0.078 0.156-0.156 0.156-0.156 0.389-0.311 0.545-0.467 0.234-0.078 0.311-0.156 0.389-0.156 0.156-0.156 0.311-0.389 0.467-0.545 0.078-0.156 0.078-0.156 0.156-0.234 0.156-0.234 0.234-0.389 0.389-0.623 0-0.078 0.078-0.156 0.078-0.234 0.078-0.156 0.156-0.311 0.234-0.467l2.102 0.545c-0.701 1.246-0.779 3.581-0.779 5.45 0 1.401-0.389 2.725-0.545 3.348-0.078 0.311-0.156 0.623-0.234 1.012h-12.769c0-0.389-0.078-0.701-0.234-1.012-0.234-0.701-0.545-2.024-0.545-3.348 0-1.869-0.078-4.204-0.779-5.45zM6.307 13.47c0.078-0.389 0.078-0.701 0.078-1.090 0-0.156 0-0.234 0-0.389h12.535c0 0.156 0 0.234 0 0.389 0 0.389 0 0.701 0.078 1.090h-12.691z"></path>
</svg>
