<!-- Generated by IcoMoon.io -->
<svg version="1.1" xmlns="http://www.w3.org/2000/svg" width="30" height="32" viewBox="0 0 30 32">
<path d="M25.771 20.788h-4.983c-0.234 0-0.389 0.156-0.389 0.389s0.156 0.389 0.389 0.389h4.983c0.234 0 0.389-0.156 0.389-0.389s-0.156-0.389-0.389-0.389z"></path>
<path d="M24.837 22.89h-3.192c-0.234 0-0.389 0.156-0.389 0.389s0.156 0.389 0.389 0.389h3.192c0.234 0 0.389-0.156 0.389-0.389s-0.156-0.389-0.389-0.389z"></path>
<path d="M29.976 29.275l-2.336-3.971c0.701-0.934 1.168-2.102 1.168-3.426 0-3.037-2.491-5.606-5.606-5.606-0.934 0-1.791 0.234-2.569 0.623 0 0 0 0 0 0l-1.090-2.491c-0.156-0.389-0.311-0.701-0.389-1.090 0 0 0 0 0 0 0-0.078 0-0.156-0.078-0.156-0.078-0.389-0.156-0.779-0.156-1.246 0-0.623 0.078-1.246 0.311-1.869 0.234-0.856 0.623-2.18 0.623-3.504 0-1.557 0.078-3.815 0.623-4.905 0.156-0.234 0.156-0.467 0-0.701-0.078-0.234-0.311-0.389-0.545-0.467l-2.569-0.467-0.078 0.311c-0.701 2.258-2.725 3.737-5.061 3.737s-4.36-1.479-5.061-3.737l-0.156-0.311-2.491 0.623c-0.311 0.078-0.467 0.234-0.545 0.467-0.156 0.234-0.156 0.467 0 0.701 0.545 1.090 0.623 3.27 0.623 4.905 0 1.324 0.311 2.647 0.623 3.504 0.156 0.545 0.234 1.168 0.234 1.791 0 0.856-0.156 1.713-0.545 2.491l-3.582 8.019-1.090 2.491c-0.234 0.467-0.234 1.090 0 1.635s0.623 0.934 1.168 1.090c3.504 1.168 7.163 1.791 10.822 1.791 0.389 0 0.856 0 1.246 0 0.234 0 0.389-0.156 0.389-0.389s-0.234-0.389-0.389-0.389c-0.389 0-0.779 0-1.168 0-3.737-0.078-7.319-0.701-10.745-1.869-0.311-0.078-0.545-0.311-0.701-0.623s-0.156-0.623 0-0.934l1.168-2.491 3.582-7.942c0.156-0.311 0.311-0.701 0.389-1.012h2.881l-1.090 5.606c-0.078 0.234 0.078 0.389 0.311 0.467 0 0 0.078 0 0.078 0 0.156 0 0.311-0.156 0.389-0.311l1.168-5.839h5.294l1.168 5.839c0 0.156 0.234 0.311 0.389 0.311 0 0 0.078 0 0.078 0 0.234-0.078 0.311-0.234 0.311-0.467l-1.090-5.684h2.803c0.078 0.389 0.234 0.701 0.389 1.012l1.090 2.491c0 0 0.078 0.078 0.078 0.078-1.401 1.012-2.336 2.647-2.336 4.516 0 1.246 0.467 2.491 1.168 3.426l-2.336 3.971c-0.156 0.311-0.156 0.701 0 1.012 0.156 0.234 0.467 0.311 0.779 0.234l1.401-0.545 0.156 1.557c0.078 0.311 0.311 0.545 0.545 0.545 0 0 0.078 0 0.078 0 0.311 0 0.623-0.156 0.779-0.467l2.336-4.049c0.156 0 0.311 0 0.467 0s0.311 0 0.467 0l2.336 4.049c0.156 0.311 0.467 0.467 0.779 0.467 0 0 0.078 0 0.078 0 0.311-0.078 0.545-0.234 0.623-0.623l0.156-1.479 1.401 0.623c0.311 0.078 0.623 0 0.779-0.234 0.234-0.389 0.311-0.701 0.078-1.090zM4.672 1.401l1.869-0.467c0 0.078 0.078 0.156 0.156 0.234 0 0.234 0.078 0.389 0.156 0.467 0.078 0.156 0.156 0.311 0.234 0.389 0.078 0.156 0.156 0.311 0.311 0.467 0.078 0.078 0.156 0.234 0.234 0.311 0.156 0.156 0.234 0.311 0.389 0.389 0.078 0.078 0.156 0.156 0.234 0.234 0.156 0.156 0.311 0.234 0.467 0.389 0.078 0.078 0.156 0.078 0.234 0.156 0.156 0.156 0.389 0.234 0.545 0.311 0.078 0 0.078 0 0.156 0.078 0.779 0.389 1.635 0.545 2.569 0.545 0.856-0.078 1.791-0.234 2.569-0.623 0 0 0.078 0 0.078-0.078 0.234-0.078 0.389-0.234 0.623-0.389 0.078-0.078 0.156-0.078 0.156-0.078 0.156-0.156 0.311-0.234 0.467-0.389 0.078-0.078 0.156-0.156 0.234-0.156 0.156-0.156 0.311-0.311 0.389-0.467 0.078-0.078 0.156-0.156 0.234-0.234 0.156-0.156 0.234-0.311 0.389-0.467 0.078-0.078 0.156-0.234 0.234-0.311 0.078-0.156 0.156-0.311 0.234-0.467 0-0.078 0.078-0.156 0.078-0.234l1.946 0.545c-0.623 1.246-0.701 3.426-0.701 5.217 0 1.246-0.311 2.414-0.545 3.27-0.078 0.311-0.156 0.623-0.234 0.934h-12.224c-0.078-0.311-0.156-0.623-0.234-0.934-0.234-0.779-0.545-2.024-0.545-3.27 0-1.869-0.078-4.127-0.701-5.372zM6.151 13.002c0.078-0.311 0.078-0.701 0.078-1.012 0-0.156 0-0.234 0-0.311h12.068c0 0.156 0 0.234 0 0.311 0 0.311 0 0.701 0.078 1.012h-12.224zM19.698 31.144c0 0 0 0 0 0l-0.234-1.479c-0.078-0.234-0.156-0.389-0.311-0.467s-0.389-0.156-0.623-0.078l-1.401 0.545c0 0 0 0 0 0l2.18-3.737c0.701 0.701 1.557 1.168 2.569 1.401l-2.18 3.815zM18.453 21.878c0-2.647 2.18-4.827 4.827-4.827s4.827 2.18 4.827 4.827-2.18 4.827-4.827 4.827-4.827-2.18-4.827-4.827zM27.951 29.119c-0.234-0.078-0.389-0.078-0.545 0.078-0.156 0.078-0.311 0.234-0.389 0.545l-0.156 1.401c0 0 0 0 0 0l-2.18-3.815c0.934-0.234 1.869-0.701 2.569-1.401l2.18 3.737c0 0 0 0 0 0l-1.479-0.545z"></path>
</svg>
