<!-- Generated by IcoMoon.io -->
<svg version="1.1" xmlns="http://www.w3.org/2000/svg" width="27" height="32" viewBox="0 0 27 32">
<path d="M26.394 26.861l-5.061-11.134c-0.156-0.389-0.311-0.779-0.389-1.168 0 0 0 0 0-0.078s0-0.156-0.078-0.234c-0.078-0.467-0.156-0.856-0.156-1.324 0-0.701 0.078-1.324 0.311-2.024 0.311-0.934 0.623-2.336 0.623-3.815 0-1.713 0.078-4.127 0.701-5.372 0.156-0.234 0.156-0.545 0-0.779-0.078-0.234-0.311-0.389-0.545-0.467l-2.803-0.467-0.078 0.311c-0.779 2.414-2.959 4.049-5.528 4.049-1.246 0-2.491-0.389-3.426-1.090-1.012-0.701-1.791-1.713-2.18-2.881 0 0 0 0 0-0.078l-0.156-0.311-2.725 0.701c-0.234 0.078-0.389 0.234-0.545 0.467-0.078 0.234-0.078 0.545 0 0.779 0.701 1.168 0.779 3.582 0.779 5.294 0 1.401 0.311 2.881 0.623 3.815 0.234 0.623 0.311 1.324 0.311 2.024 0 0.934-0.234 1.869-0.623 2.725l-3.971 8.642c0 0 0 0 0 0l-1.324 2.959c-0.234 0.467-0.234 1.012 0 1.479s0.623 0.856 1.090 1.090c3.893 1.324 7.942 2.024 12.068 2.024 1.869 0 3.815-0.156 5.762-0.467 0.234 0 0.389-0.234 0.311-0.467 0-0.234-0.234-0.389-0.467-0.311-5.917 0.934-11.835 0.389-17.363-1.479-0.311-0.078-0.545-0.311-0.701-0.623-0.078-0.311-0.078-0.623 0-0.934l1.324-2.959c0 0 0 0 0 0l3.971-8.642c0.156-0.389 0.311-0.779 0.389-1.168h3.192l-1.246 6.229c-0.078 0.234 0.078 0.389 0.311 0.467 0 0 0.078 0 0.078 0 0.156 0 0.311-0.156 0.389-0.311l1.246-6.384h5.839l1.246 6.384c0 0.156 0.234 0.311 0.389 0.311 0 0 0.078 0 0.078 0 0.234-0.078 0.311-0.234 0.311-0.467l-1.246-6.229h3.114c0.078 0.389 0.234 0.779 0.389 1.168l5.061 11.134c0.156 0.389 0.156 0.856 0 1.324-0.156 0.389-0.467 0.701-0.934 0.856s-0.934 0.311-1.401 0.467c-0.234 0.078-0.311 0.311-0.234 0.467s0.234 0.311 0.389 0.311c0 0 0.078 0 0.078 0 0.467-0.156 1.012-0.311 1.479-0.467 0.623-0.234 1.090-0.701 1.401-1.246 0.234-0.779 0.234-1.479-0.078-2.102zM5.061 1.557c0-0.078 0-0.078 0-0.078l2.024-0.467c0.078 0.156 0.156 0.311 0.234 0.545 0 0.078 0.078 0.156 0.078 0.234 0.234 0.078 0.311 0.311 0.467 0.545 0.078 0.078 0.078 0.156 0.156 0.234 0.156 0.156 0.311 0.311 0.389 0.467 0.156 0.078 0.234 0.234 0.311 0.311 0.156 0.156 0.311 0.234 0.467 0.389 0.078 0.078 0.234 0.234 0.389 0.311s0.311 0.156 0.389 0.234c0.156 0.078 0.311 0.156 0.467 0.234 0.078 0.078 0.234 0.078 0.311 0.156 0.234 0.078 0.389 0.156 0.623 0.234 0.078 0 0.078 0 0.156 0 0.623 0.156 1.246 0.311 1.869 0.311 2.803 0 5.217-1.713 6.151-4.282 0 0 0 0 0 0l2.18 0.545c0 0 0 0.078 0 0.078-0.701 1.324-0.779 3.737-0.779 5.684 0 1.324-0.311 2.647-0.623 3.582-0.078 0.311-0.156 0.701-0.234 1.090h-13.392c-0.078-0.389-0.156-0.701-0.234-1.012-0.234-1.012-0.545-2.336-0.545-3.659 0-1.946-0.156-4.36-0.856-5.684zM6.696 14.17c0.078-0.389 0.078-0.779 0.078-1.090 0-0.156 0-0.311 0-0.389h13.236c0 0.156 0 0.311 0 0.389 0 0.389 0 0.779 0.078 1.168h-13.392z"></path>
</svg>
