<!-- Generated by IcoMoon.io -->
<svg version="1.1" xmlns="http://www.w3.org/2000/svg" width="32" height="32" viewBox="0 0 32 32">
<path d="M30.287 17.985h-8.409l-1.168-2.569c-0.156-0.389-0.311-0.779-0.389-1.168 0 0 0 0 0 0 0-0.078 0-0.156-0.078-0.156-0.078-0.467-0.156-0.856-0.156-1.324 0-0.623 0.078-1.324 0.311-1.946 0.389-1.324 0.623-2.569 0.623-3.659 0-1.713 0.078-4.049 0.701-5.217 0.156-0.234 0.156-0.545 0-0.779-0.078-0.234-0.311-0.389-0.545-0.467l-2.725-0.701-0.078 0.311c-0.779 2.414-2.881 3.971-5.372 3.971s-4.672-1.557-5.372-3.971l-0.234-0.311-2.647 0.623c-0.311 0.078-0.467 0.234-0.623 0.467-0.078 0.234-0.078 0.545 0 0.779 0.623 1.168 0.701 3.504 0.701 5.217 0 1.090 0.234 2.336 0.623 3.659 0.234 0.623 0.311 1.324 0.311 1.946 0 0.934-0.234 1.869-0.545 2.725l-3.815 8.487c0 0 0 0 0 0l-1.246 2.569c-0.234 0.545-0.234 1.168 0 1.713s0.701 0.934 1.246 1.168c3.737 1.246 7.552 1.869 11.445 1.869 0.934 0 1.869 0 2.725-0.078 0.234 0 0.389-0.234 0.389-0.389 0-0.234-0.234-0.389-0.389-0.389-0.856 0.078-1.713 0.078-2.647 0.078-3.815 0-7.63-0.623-11.212-1.869-0.389-0.156-0.623-0.389-0.779-0.701s-0.156-0.779 0-1.090l1.168-2.569c0 0 0 0 0 0l3.815-8.487c0.156-0.389 0.311-0.779 0.389-1.090h3.037l-1.168 6.073c-0.078 0.234 0.078 0.389 0.311 0.467 0 0 0.078 0 0.078 0 0.156 0 0.311-0.156 0.389-0.311l1.246-6.229h5.684l1.246 6.229c0 0.156 0.234 0.311 0.389 0.311 0 0 0.078 0 0.078 0 0.234-0.078 0.311-0.234 0.311-0.467l-1.168-6.073h2.959c0.078 0.389 0.234 0.779 0.389 1.090l1.090 2.336c-0.623 0.156-1.090 0.779-1.090 1.479v10.978c0 0.623 0.311 1.168 0.856 1.401s1.168 0.156 1.635-0.234l2.881-2.959c0.311-0.234 0.701-0.234 0.934 0l2.881 2.959c0.311 0.234 0.623 0.389 1.012 0.389 0.234 0 0.467-0.078 0.623-0.156 0.545-0.234 0.856-0.779 0.856-1.401v-11.056c0-0.779-0.623-1.479-1.479-1.479zM4.905 1.479v-0.078l2.024-0.467c0 0.078 0.078 0.156 0.078 0.311 0.078 0.156 0.156 0.311 0.234 0.467s0.156 0.234 0.234 0.311c0.078 0.234 0.234 0.389 0.311 0.545 0.078 0.078 0.156 0.156 0.234 0.234 0.156 0.156 0.311 0.311 0.389 0.467 0.078 0.078 0.156 0.156 0.234 0.156 0.156 0.156 0.311 0.311 0.545 0.467 0.078 0.078 0.156 0.078 0.156 0.156 0.234 0.156 0.389 0.234 0.623 0.389 0 0 0.078 0 0.078 0.078 0.856 0.389 1.791 0.623 2.725 0.623 1.324 0 2.569-0.389 3.659-1.090 0 0 0.078 0 0.078-0.078 0.234-0.156 0.467-0.311 0.623-0.545 0 0 0.078-0.078 0.078-0.078 0.311-0.234 0.467-0.389 0.701-0.623 0.078-0.078 0.078-0.156 0.156-0.156 0.156-0.156 0.234-0.389 0.389-0.545 0.078-0.078 0.156-0.156 0.156-0.311 0.078-0.156 0.156-0.311 0.234-0.545 0-0.078 0.078-0.156 0.156-0.234l2.102 0.467 0.078-0.389-0.078 0.467c-0.701 1.324-0.779 3.659-0.779 5.528 0 1.012-0.234 2.18-0.623 3.426-0.078 0.311-0.156 0.701-0.234 1.012h-13.002c0-0.234-0.078-0.545-0.234-0.934-0.389-1.246-0.623-2.414-0.623-3.426 0.078-1.946 0-4.282-0.701-5.606zM6.462 13.859c0.078-0.389 0.078-0.701 0.078-1.090 0-0.156 0-0.234 0-0.389h12.847c0 0.156 0 0.234 0 0.389 0 0.389 0 0.701 0.078 1.090h-13.002zM30.988 30.443c0 0.311-0.156 0.545-0.467 0.701-0.234 0.156-0.545 0.078-0.779-0.078l-2.881-3.037c-0.545-0.467-1.401-0.467-2.024 0l-2.881 2.959c-0.234 0.234-0.545 0.234-0.779 0.078-0.311-0.156-0.467-0.389-0.467-0.701v-10.9c0-0.389 0.311-0.779 0.779-0.779h8.798c0.389 0 0.779 0.311 0.779 0.779v10.978z"></path>
<path d="M28.574 21.489h-5.528c-0.234 0-0.389 0.156-0.389 0.389s0.156 0.389 0.389 0.389h5.528c0.234 0 0.389-0.156 0.389-0.389s-0.156-0.389-0.389-0.389z"></path>
<path d="M26.55 24.292h-3.504c-0.234 0-0.389 0.156-0.389 0.389s0.156 0.389 0.389 0.389h3.504c0.234 0 0.389-0.156 0.389-0.389s-0.156-0.389-0.389-0.389z"></path>
</svg>
