<!-- Generated by IcoMoon.io -->
<svg version="1.1" xmlns="http://www.w3.org/2000/svg" width="32" height="32" viewBox="0 0 32 32">
<path d="M25.905 24.889c-0.317 0-0.635 0.254-0.635 0.635v4.635c0 0.317-0.254 0.635-0.635 0.635h-22.73c-0.317 0-0.635-0.254-0.635-0.635v-28.254c0-0.317 0.254-0.635 0.635-0.635h22.794c0.317 0 0.635 0.254 0.635 0.635v6.794c0 0.317 0.254 0.635 0.635 0.635s0.635-0.254 0.635-0.635v-6.794c0-1.016-0.825-1.905-1.905-1.905h-22.794c-1.079 0-1.905 0.825-1.905 1.905v28.254c0 1.016 0.825 1.905 1.905 1.905h22.794c1.016 0 1.905-0.825 1.905-1.905v-4.635c-0.064-0.317-0.381-0.635-0.698-0.635z"></path>
<path d="M18.984 9.143c0-3.175-2.603-5.778-5.778-5.778s-5.778 2.603-5.778 5.778c0 1.651 0.698 3.111 1.778 4.19 0 0 0.063 0.063 0.063 0.063 1.016 0.952 2.413 1.524 3.873 1.524s2.857-0.571 3.873-1.524c0 0 0.064-0.063 0.064-0.063 1.206-1.079 1.905-2.54 1.905-4.19zM13.27 4.635c2.476 0 4.508 2.032 4.508 4.508 0 1.016-0.317 1.905-0.889 2.667-0.444-0.698-1.079-1.206-1.841-1.524 0.317-0.381 0.444-0.889 0.444-1.397v-0.381c0-1.27-1.016-2.222-2.222-2.222s-2.222 1.016-2.222 2.222v0.381c0 0.508 0.19 1.016 0.444 1.397-0.762 0.317-1.397 0.889-1.841 1.524-0.571-0.762-0.889-1.651-0.889-2.667 0-2.476 2.032-4.508 4.508-4.508zM12.254 8.889v-0.381c0-0.571 0.444-1.016 1.016-1.016s1.016 0.444 1.016 1.016v0.381c0 0.571-0.444 1.016-1.016 1.016s-1.016-0.444-1.016-1.016zM10.54 12.698c0.571-0.952 1.587-1.587 2.73-1.587s2.159 0.635 2.73 1.587c-0.762 0.571-1.714 0.889-2.73 0.889s-1.968-0.317-2.73-0.889z"></path>
<path d="M16.635 27.365h-3.365c-0.317 0-0.635 0.254-0.635 0.635s0.254 0.635 0.635 0.635h3.365c0.317 0 0.635-0.254 0.635-0.635s-0.317-0.635-0.635-0.635z"></path>
<path d="M16.635 23.873h-8.889c-0.317 0-0.635 0.254-0.635 0.635 0 0.317 0.254 0.635 0.635 0.635h8.889c0.317 0 0.635-0.254 0.635-0.635 0-0.317-0.317-0.635-0.635-0.635z"></path>
<path d="M16.635 20.381h-8.889c-0.317 0-0.635 0.254-0.635 0.635s0.254 0.635 0.635 0.635h8.889c0.317 0 0.635-0.254 0.635-0.635s-0.317-0.635-0.635-0.635z"></path>
<path d="M5.524 17.079c-0.127-0.127-0.254-0.19-0.444-0.19s-0.317 0.064-0.444 0.19c-0.127 0.127-0.19 0.254-0.19 0.444s0.064 0.317 0.19 0.444c0.127 0.127 0.254 0.19 0.444 0.19s0.317-0.064 0.444-0.19c0.127-0.127 0.19-0.317 0.19-0.444 0-0.19-0.064-0.317-0.19-0.444z"></path>
<path d="M5.524 20.571c-0.127-0.127-0.254-0.19-0.444-0.19s-0.317 0.064-0.444 0.19c-0.127 0.127-0.19 0.254-0.19 0.444s0.064 0.317 0.19 0.444c0.127 0.127 0.254 0.19 0.444 0.19s0.317-0.064 0.444-0.19c0.127-0.127 0.19-0.254 0.19-0.444s-0.064-0.317-0.19-0.444z"></path>
<path d="M5.079 23.873c-0.19 0-0.317 0.064-0.444 0.19s-0.19 0.317-0.19 0.444c0 0.19 0.064 0.317 0.19 0.444s0.254 0.19 0.444 0.19c0.19 0 0.317-0.064 0.444-0.19s0.19-0.254 0.19-0.444c0-0.19-0.064-0.317-0.19-0.444s-0.254-0.19-0.444-0.19z"></path>
<path d="M16.635 16.889h-8.889c-0.317 0-0.635 0.254-0.635 0.635 0 0.317 0.254 0.635 0.635 0.635h8.889c0.317 0 0.635-0.254 0.635-0.635s-0.317-0.635-0.635-0.635z"></path>
<path d="M30.73 8.127c-0.635-0.381-1.333-0.444-1.968-0.254-0.698 0.19-1.27 0.635-1.587 1.206l-7.936 13.651c-0.064 0.064-0.064 0.127-0.064 0.254l-0.571 4.952c0 0.254 0.064 0.508 0.317 0.635 0.127 0.064 0.19 0.064 0.317 0.064s0.254-0.064 0.381-0.127l4-2.984c0.064-0.064 0.127-0.127 0.19-0.19l7.873-13.651c0.698-1.206 0.254-2.794-0.952-3.556zM20.317 24.064l1.841 1.016-2.159 1.587 0.317-2.603zM23.048 24.19l-2.413-1.333 6.286-10.921 2.413 1.397-6.286 10.857zM30.603 11.111l-0.635 1.079-2.413-1.397 0.635-1.079c0.19-0.317 0.508-0.571 0.825-0.635 0.381-0.063 0.698-0.063 1.016 0.127s0.571 0.508 0.635 0.825c0.127 0.381 0.127 0.762-0.064 1.079z"></path>
</svg>
