<!-- Generated by IcoMoon.io -->
<svg version="1.1" xmlns="http://www.w3.org/2000/svg" width="41" height="32" viewBox="0 0 41 32">
<path d="M19.824 4.293c1.171 0 2.107-0.937 2.107-2.107s-0.937-2.185-2.107-2.185-2.107 0.937-2.107 2.107 0.937 2.185 2.107 2.185zM19.824 0.78c0.78 0 1.327 0.624 1.327 1.327s-0.624 1.327-1.327 1.327-1.327-0.624-1.327-1.327 0.624-1.327 1.327-1.327z"></path>
<path d="M25.288 5.385c-1.171 0-2.107 0.937-2.107 2.107s0.937 2.107 2.107 2.107 2.107-0.937 2.107-2.107-0.937-2.107-2.107-2.107zM25.288 8.898c-0.78 0-1.327-0.624-1.327-1.327s0.624-1.327 1.327-1.327c0.78 0 1.327 0.624 1.327 1.327s-0.624 1.327-1.327 1.327z"></path>
<path d="M18.341 9.054c0.078 0.078 0.156 0.078 0.312 0.078s0.234 0 0.312-0.078l7.805-7.883c0.156-0.156 0.156-0.39 0-0.546s-0.39-0.156-0.546 0l-7.883 7.883c-0.156 0.156-0.156 0.39 0 0.546z"></path>
<path d="M2.966 20.839h34.888c1.639 0 2.966-1.327 2.966-2.966s-1.327-2.966-2.966-2.966h-34.888c-1.639 0-2.966 1.327-2.966 2.966s1.327 2.966 2.966 2.966zM2.966 15.688h34.888c1.171 0 2.185 0.937 2.185 2.185s-0.937 2.185-2.185 2.185h-34.888c-1.171 0-2.185-0.937-2.185-2.185s0.937-2.185 2.185-2.185z"></path>
<path d="M23.18 18.263h7.883c0.234 0 0.39-0.156 0.39-0.39s-0.156-0.39-0.39-0.39h-7.883c-0.234 0-0.39 0.156-0.39 0.39s0.234 0.39 0.39 0.39z"></path>
<path d="M2.732 18.263h17.717c0.234 0 0.39-0.156 0.39-0.39s-0.156-0.39-0.39-0.39h-17.717c-0.234 0-0.39 0.156-0.39 0.39s0.156 0.39 0.39 0.39z"></path>
<path d="M37.854 26.068h-34.888c-1.639 0-2.966 1.327-2.966 2.966s1.327 2.966 2.966 2.966h34.888c1.639 0 2.966-1.327 2.966-2.966s-1.327-2.966-2.966-2.966zM37.854 31.22h-34.888c-1.249 0-2.185-0.937-2.185-2.185 0-1.171 0.937-2.185 2.185-2.185h34.888c1.171 0 2.185 0.937 2.185 2.185s-1.015 2.185-2.185 2.185z"></path>
<path d="M25.522 28.644h-7.961c-0.234 0-0.39 0.156-0.39 0.39s0.156 0.39 0.39 0.39h7.961c0.234 0 0.39-0.156 0.39-0.39s-0.156-0.39-0.39-0.39z"></path>
<path d="M14.751 28.644h-12.020c-0.234 0-0.39 0.156-0.39 0.39s0.156 0.39 0.39 0.39h12.020c0.234 0 0.39-0.156 0.39-0.39s-0.156-0.39-0.39-0.39z"></path>
</svg>
