<!-- Generated by IcoMoon.io -->
<svg version="1.1" xmlns="http://www.w3.org/2000/svg" width="28" height="32" viewBox="0 0 28 32">
<path d="M13.937 16.039c0 0 0-0.078-0.078-0.156 0 0 0 0.078 0 0.078l0.078 0.078z"></path>
<path d="M8.175 10.667v10.044c0 1.012 0.856 1.869 1.869 1.869h5.217c0.467 0 0.934-0.156 1.246-0.545l2.491-2.491c0.311-0.311 0.545-0.779 0.545-1.246v-7.63c0-0.467-0.156-1.012-0.545-1.324-0.389-0.389-0.856-0.545-1.324-0.545h-7.708c-0.934 0-1.791 0.856-1.791 1.869zM18.53 9.888c0.234 0.234 0.311 0.467 0.311 0.779v7.63c0 0.311-0.078 0.545-0.311 0.701l-2.491 2.491c-0.234 0.234-0.467 0.311-0.779 0.311h-5.217c-0.623 0-1.090-0.467-1.090-1.090v-10.044c0-0.623 0.467-1.090 1.090-1.090h7.708c0.234 0 0.545 0.078 0.779 0.311z"></path>
<path d="M10.9 13.236h5.995c0.234 0 0.389-0.156 0.389-0.389s-0.234-0.389-0.389-0.389h-5.995c-0.234 0-0.389 0.156-0.389 0.389s0.156 0.389 0.389 0.389z"></path>
<path d="M10.9 15.338h5.995c0.234 0 0.389-0.156 0.389-0.389s-0.156-0.389-0.389-0.389h-5.995c-0.234 0-0.389 0.156-0.389 0.389s0.156 0.389 0.389 0.389z"></path>
<path d="M10.9 17.363h5.995c0.234 0 0.389-0.156 0.389-0.389s-0.156-0.389-0.389-0.389h-5.995c-0.234 0-0.389 0.156-0.389 0.389s0.156 0.389 0.389 0.389z"></path>
<path d="M13.859 0l-13.859 8.019v1.557c0 8.954 4.827 17.207 12.535 21.645l1.324 0.779 1.324-0.779c7.708-4.438 12.535-12.769 12.535-21.645v-1.557l-13.859-8.019zM26.939 9.577c0 8.642-4.672 16.662-12.146 21.022l-0.934 0.545-0.934-0.545c-7.474-4.36-12.146-12.38-12.146-21.022v-1.090l13.080-7.552 13.080 7.552v1.090z"></path>
</svg>
