<!-- Generated by IcoMoon.io -->
<svg version="1.1" xmlns="http://www.w3.org/2000/svg" width="28" height="32" viewBox="0 0 28 32">
<path d="M13.859 0l-13.859 8.019v1.557c0 8.954 4.827 17.207 12.535 21.645l1.324 0.779 1.324-0.779c7.708-4.438 12.535-12.769 12.535-21.645v-1.557l-13.859-8.019zM26.939 9.577c0 8.642-4.672 16.662-12.146 21.022l-0.934 0.545-0.934-0.545c-7.474-4.36-12.146-12.38-12.146-21.022v-1.090l13.080-7.552 13.080 7.552v1.090z"></path>
<path d="M11.29 10.822v1.246c0 0.234 0.156 0.389 0.389 0.389s0.389-0.156 0.389-0.389v-1.246c0-0.467 0.389-0.856 0.856-0.856h1.946c0.467 0 0.856 0.389 0.856 0.856v3.037h2.102c0.467 0 0.856 0.389 0.856 0.856v4.983c0 0.467-0.389 0.856-0.856 0.856h-7.786c-0.467 0-0.856-0.389-0.856-0.856v-4.983c0-0.467 0.389-0.856 0.856-0.856h4.204c0.234 0 0.389-0.156 0.389-0.389s-0.156-0.389-0.389-0.389h-4.204c-0.856 0-1.635 0.701-1.635 1.635v4.983c0 0.856 0.701 1.635 1.635 1.635h7.786c0.856 0 1.635-0.701 1.635-1.635v-4.983c0-0.856-0.701-1.635-1.635-1.635h-1.324v-2.258c0-0.856-0.701-1.635-1.635-1.635h-1.946c-0.934 0.078-1.635 0.779-1.635 1.635z"></path>
<path d="M13.859 16.818c-0.234 0-0.389 0.156-0.389 0.389v1.791h0.389c1.012 0 1.791-0.779 1.791-1.791s-0.779-1.791-1.791-1.791-1.791 0.779-1.791 1.791c0 0.467 0.156 0.934 0.467 1.246 0.156 0.156 0.389 0.156 0.545 0s0.156-0.389 0-0.545c-0.156-0.156-0.234-0.389-0.234-0.701 0-0.545 0.467-1.012 1.012-1.012s1.012 0.467 1.012 1.012c0 0.467-0.234 0.779-0.623 0.934v-0.934c0-0.234-0.156-0.389-0.389-0.389z"></path>
</svg>
