<!-- Generated by IcoMoon.io -->
<svg version="1.1" xmlns="http://www.w3.org/2000/svg" width="28" height="32" viewBox="0 0 28 32">
<path d="M13.47 11.29v4.127h-4.127c-0.234 0-0.389 0.156-0.389 0.389s0.156 0.389 0.389 0.389h9.11c0.234 0 0.389-0.156 0.389-0.389s-0.156-0.389-0.389-0.389h-4.127v-4.127c0-0.234-0.156-0.389-0.389-0.389s-0.467 0.234-0.467 0.389z"></path>
<path d="M13.859 17.908c-0.234 0-0.389 0.156-0.389 0.389v2.102c0 0.234 0.156 0.389 0.389 0.389s0.389-0.156 0.389-0.389v-2.102c0-0.156-0.156-0.389-0.389-0.389z"></path>
<path d="M13.859 0l-13.859 8.019v1.557c0 8.954 4.827 17.207 12.535 21.645l1.324 0.779 1.324-0.779c7.708-4.438 12.535-12.769 12.535-21.645v-1.557l-13.859-8.019zM26.939 9.577c0 8.642-4.672 16.662-12.146 21.022l-0.934 0.545-0.934-0.545c-7.474-4.36-12.146-12.38-12.146-21.022v-1.090l13.080-7.552 13.080 7.552v1.090z"></path>
</svg>
