<!-- Generated by IcoMoon.io -->
<svg version="1.1" xmlns="http://www.w3.org/2000/svg" width="32" height="32" viewBox="0 0 32 32">
<path d="M31.823 10.699l-10.122-10.122c-0.113-0.113-0.267-0.177-0.427-0.177s-0.313 0.064-0.427 0.177l-0.466 0.466c-0.584 0.584-0.906 1.361-0.906 2.187s0.322 1.603 0.906 2.187l0.099 0.099-8.254 7.447c-0.58-0.564-1.343-0.874-2.154-0.874-0.826 0-1.603 0.322-2.187 0.906l-1.055 1.055c-0.236 0.236-0.236 0.618 0 0.853l3.925 3.925-10.324 10.324c-0.096 0.096-0.157 0.223-0.173 0.358l-0.254 2.217c-0.021 0.183 0.043 0.365 0.173 0.495 0.114 0.114 0.268 0.177 0.427 0.177 0.023 0 0.046-0.001 0.069-0.004l2.217-0.254c0.135-0.016 0.261-0.076 0.358-0.173l10.324-10.324 3.925 3.925c0.113 0.113 0.267 0.177 0.427 0.177s0.313-0.064 0.427-0.177l1.055-1.055c0.584-0.584 0.906-1.361 0.906-2.187 0-0.811-0.31-1.573-0.874-2.154l7.447-8.254 0.099 0.099c0.584 0.584 1.361 0.906 2.187 0.906s1.603-0.322 2.187-0.906l0.466-0.466c0.236-0.235 0.236-0.618-0-0.853zM2.542 30.967l-1.253 0.144 0.144-1.253 10.175-10.175 1.109 1.109-10.175 10.175zM18.551 23.661l-0.629 0.629-9.812-9.812 0.629-0.629c0.356-0.356 0.83-0.552 1.334-0.552s0.978 0.196 1.334 0.552l7.145 7.145c0.356 0.356 0.552 0.83 0.552 1.334s-0.196 0.977-0.553 1.334zM18.583 19.318l-5.501-5.501 8.253-7.446 4.694 4.694-7.446 8.253zM30.504 11.165c-0.356 0.356-0.83 0.553-1.334 0.553s-0.978-0.196-1.334-0.553l-6.601-6.601c-0.356-0.356-0.553-0.83-0.553-1.334s0.196-0.978 0.553-1.334l0.040-0.040 9.269 9.269-0.040 0.040z"></path>
</svg>
