<!-- Generated by IcoMoon.io -->
<svg version="1.1" xmlns="http://www.w3.org/2000/svg" width="32" height="32" viewBox="0 0 32 32">
<path d="M28.8 10.869l-8.469-8.469c-0.302-0.302-0.703-0.468-1.131-0.468s-0.83 0.166-1.131 0.468l-0.469 0.469c-0.464 0.464-0.8 1.276-0.8 1.931v1.6c0 0.228-0.17 0.639-0.331 0.8l-4.469 4.469c-0.161 0.161-0.572 0.331-0.8 0.331h-1.6c-0.656 0-1.468 0.336-1.931 0.8l-0.469 0.469c-0.624 0.624-0.624 1.639 0 2.263l2.485 2.485-7.92 10.295c-0.245 0.319-0.216 0.769 0.068 1.053 0.155 0.155 0.36 0.234 0.566 0.234 0.171 0 0.343-0.055 0.488-0.166l10.295-7.92 2.486 2.485c0.302 0.302 0.703 0.468 1.131 0.468s0.83-0.166 1.131-0.468l0.469-0.469c0.464-0.464 0.8-1.276 0.8-1.931v-1.6c0-0.228 0.17-0.639 0.331-0.8l4.469-4.469c0.161-0.161 0.572-0.331 0.8-0.331h1.6c0.655 0 1.468-0.336 1.931-0.8l0.469-0.469c0.302-0.302 0.468-0.703 0.468-1.131s-0.166-0.83-0.468-1.131zM6.774 24.426l4.053-5.269 1.216 1.216-5.269 4.053zM27.2 12.469c-0.161 0.161-0.572 0.331-0.8 0.331h-1.6c-0.655 0-1.468 0.336-1.931 0.8l-4.469 4.469c-0.464 0.464-0.8 1.276-0.8 1.931v1.6c0 0.228-0.17 0.639-0.331 0.8l-0.467 0.467c-0 0-0.001 0-0.002 0v0.001l-8.469-8.469 0.469-0.469c0.161-0.161 0.572-0.331 0.8-0.331h1.6c0.656 0 1.468-0.336 1.931-0.8l4.469-4.469c0.464-0.464 0.8-1.276 0.8-1.931v-1.6c0-0.228 0.17-0.639 0.331-0.8l0.469-0.469 8.469 8.469-0.469 0.469z"></path>
</svg>
