<!-- Generated by IcoMoon.io -->
<svg version="1.1" xmlns="http://www.w3.org/2000/svg" width="32" height="32" viewBox="0 0 32 32">
<path d="M31.319 30.744l-11.081-11.063 3.9-3.894-9.887-9.869 0.25-0.25c1.050-1.050 1.050-2.75 0-3.8v0c-1.050-1.050-2.756-1.050-3.806 0l-9.213 9.206c-1.050 1.050-1.050 2.75 0 3.8v0c1.050 1.050 2.756 1.050 3.806 0l0.269-0.269 9.856 9.9 3.863-3.863 11.081 11.063 0.962-0.962zM2.362 13.988v0c-0.563-0.563-0.563-1.469 0-2.031l9.212-9.2c0.563-0.563 1.475-0.563 2.037 0v0c0.563 0.563 0.563 1.469 0 2.031l-9.213 9.2c-0.563 0.563-1.475 0.563-2.038 0zM6.5 13.656l6.806-6.794 8.881 8.925-6.781 6.769-8.906-8.9z"></path>
</svg>
