<!-- Generated by IcoMoon.io -->
<svg version="1.1" xmlns="http://www.w3.org/2000/svg" width="32" height="32" viewBox="0 0 32 32">
<path d="M6.322 0h-3.668c-1.483 0-2.654 1.171-2.654 2.654v3.668h6.322v-6.322zM5.541 5.541h-4.761v-2.888c0-1.015 0.859-1.873 1.873-1.873h2.888v4.761z"></path>
<path d="M0.39 11.395h5.541c0.234 0 0.39-0.156 0.39-0.39s-0.156-0.39-0.39-0.39h-5.541c-0.234 0-0.39 0.156-0.39 0.39s0.156 0.39 0.39 0.39z"></path>
<path d="M31.532 10.615h-5.541c-0.234 0-0.39 0.156-0.39 0.39s0.156 0.39 0.39 0.39h5.541c0.234 0 0.39-0.156 0.39-0.39s-0.156-0.39-0.39-0.39z"></path>
<path d="M10.927 20.605h-10.537c-0.234 0-0.39 0.156-0.39 0.39s0.156 0.39 0.39 0.39h10.537c0.234 0 0.39-0.156 0.39-0.39s-0.156-0.39-0.39-0.39z"></path>
<path d="M29.268 0h-3.668v6.322h6.322v-3.668c0-1.483-1.171-2.654-2.654-2.654zM31.141 5.541h-4.761v-4.761h2.888c1.015 0 1.873 0.859 1.873 1.873v2.888z"></path>
<path d="M0 29.346c0 1.483 1.171 2.654 2.654 2.654h3.668v-6.322h-6.322v3.668zM0.78 26.459h4.761v4.761h-2.888c-1.015 0-1.873-0.859-1.873-1.873v-2.888z"></path>
<path d="M31.532 31.22h-5.541c-0.234 0-0.39 0.156-0.39 0.39s0.156 0.39 0.39 0.39h5.541c0.234 0 0.39-0.156 0.39-0.39s-0.156-0.39-0.39-0.39z"></path>
<path d="M21.385 31.22h-5.151v-5.463c0-0.234-0.156-0.39-0.39-0.39s-0.39 0.156-0.39 0.39v6.244h5.932c0.234 0 0.39-0.156 0.39-0.39s-0.156-0.39-0.39-0.39z"></path>
<path d="M15.844 6.634c0.234 0 0.39-0.156 0.39-0.39v-5.854c0-0.234-0.156-0.39-0.39-0.39s-0.39 0.156-0.39 0.39v5.854c0 0.234 0.156 0.39 0.39 0.39z"></path>
<path d="M0.39 16.39h15.063v4.839c0 0.234 0.156 0.39 0.39 0.39s0.39-0.156 0.39-0.39v-5.62h-15.844c-0.234 0-0.39 0.156-0.39 0.39s0.156 0.39 0.39 0.39z"></path>
<path d="M15.532 10.927c0 0.234 0.156 0.39 0.39 0.39h5.541v-10.927c0-0.234-0.234-0.39-0.39-0.39s-0.39 0.156-0.39 0.39v10.146h-4.761c-0.234 0-0.39 0.156-0.39 0.39z"></path>
<path d="M31.532 25.6h-10.146v-9.522c0-0.234-0.156-0.39-0.39-0.39s-0.39 0.156-0.39 0.39v10.302h10.927c0.234 0 0.39-0.156 0.39-0.39s-0.156-0.39-0.39-0.39z"></path>
<path d="M25.6 20.995c0 0.234 0.156 0.39 0.39 0.39s0.39-0.156 0.39-0.39v-4.605h4.761v4.605c0 0.234 0.156 0.39 0.39 0.39s0.39-0.156 0.39-0.39v-5.385h-6.322v5.385z"></path>
<path d="M10.927 25.366c-0.234 0-0.39 0.156-0.39 0.39v5.854c0 0.234 0.156 0.39 0.39 0.39s0.39-0.156 0.39-0.39v-5.854c0-0.234-0.156-0.39-0.39-0.39z"></path>
<path d="M10.927 11.395c0.234 0 0.39-0.156 0.39-0.39v-10.615c0-0.234-0.156-0.39-0.39-0.39s-0.39 0.156-0.39 0.39v10.615c0 0.234 0.234 0.39 0.39 0.39z"></path>
</svg>
