<!-- Generated by IcoMoon.io -->
<svg version="1.1" xmlns="http://www.w3.org/2000/svg" width="32" height="32" viewBox="0 0 32 32">
<path d="M25.948 6.052c-2.871-2.871-6.688-4.452-10.748-4.452s-7.877 1.581-10.748 4.452-4.452 6.688-4.452 10.748 1.581 7.877 4.452 10.748 6.688 4.452 10.748 4.452 7.877-1.581 10.748-4.452 4.452-6.688 4.452-10.748-1.581-7.877-4.452-10.748zM15.2 30.4c-7.499 0-13.6-6.101-13.6-13.6s6.101-13.6 13.6-13.6c7.499 0 13.6 6.101 13.6 13.6s-6.101 13.6-13.6 13.6zM15.2 24c-0.442 0-0.8-0.358-0.8-0.8v-3.2c0-0.442 0.358-0.8 0.8-0.8 3.088 0 5.6-2.512 5.6-5.6s-2.512-5.6-5.6-5.6-5.6 2.512-5.6 5.6c0 0.442-0.358 0.8-0.8 0.8s-0.8-0.358-0.8-0.8c0-3.97 3.23-7.2 7.2-7.2s7.2 3.23 7.2 7.2c0 3.7-2.805 6.757-6.4 7.156v2.444c0 0.442-0.358 0.8-0.8 0.8zM15.2 28.8c-0 0 0 0 0 0-0.442 0-0.8-0.358-0.8-0.8v-1.6c0-0.442 0.358-0.8 0.8-0.8 0 0 0 0 0 0 0.442 0 0.8 0.358 0.8 0.8v1.6c0 0.442-0.358 0.8-0.8 0.8z"></path>
</svg>
