<!-- Generated by IcoMoon.io -->
<svg version="1.1" xmlns="http://www.w3.org/2000/svg" width="32" height="32" viewBox="0 0 32 32">
<path d="M15.301 10.724c0-4.183-3.402-7.584-7.584-7.584s-7.591 3.408-7.591 7.591 3.402 7.591 7.591 7.591c0.504 0 1.014-0.050 1.518-0.157-0.876 3.968-2.759 7.257-3.811 9.077-0.277 0.479-0.491 0.863-0.636 1.153-0.126 0.265-0.397 0.819 0.013 1.184 0.132 0.12 0.283 0.17 0.435 0.17 0.328 0 0.687-0.233 0.989-0.422 0.409-0.258 0.989-0.674 1.997-1.417l0.044-0.038c1.764-1.581 3.232-3.433 4.353-5.499 0.907-1.669 1.606-3.49 2.066-5.411 0.743-3.093 0.661-5.55 0.617-6.236v0zM13.569 16.69c-0.983 4.113-3.017 7.578-6.041 10.293-0.258 0.189-0.661 0.479-1.052 0.762 1.165-2.035 3.295-5.764 4.088-10.293l0.17-0.97-0.932 0.321c-0.68 0.239-1.38 0.353-2.079 0.353-3.54 0-6.425-2.879-6.425-6.425s2.872-6.431 6.419-6.431c3.54 0 6.425 2.872 6.425 6.419v0.044c0 0.006 0 0.025 0 0.044 0.050 0.643 0.126 2.954-0.573 5.883zM31.968 10.737v0c0-4.189-3.402-7.591-7.584-7.591s-7.584 3.402-7.584 7.584 3.402 7.584 7.584 7.584c0.504 0 1.014-0.050 1.518-0.157-0.876 3.968-2.759 7.257-3.811 9.077-0.277 0.479-0.491 0.863-0.636 1.153-0.126 0.265-0.397 0.819 0.013 1.184 0.132 0.12 0.283 0.17 0.435 0.17 0.328 0 0.687-0.233 0.995-0.416 0.409-0.258 0.989-0.674 1.997-1.417l0.044-0.038c1.764-1.581 3.232-3.433 4.353-5.499 0.907-1.669 1.606-3.49 2.066-5.411 0.743-3.087 0.661-5.543 0.611-6.224zM30.23 16.69c-0.983 4.12-3.017 7.578-6.041 10.299-0.258 0.189-0.661 0.479-1.052 0.762 1.165-2.035 3.294-5.764 4.088-10.293l0.17-0.97-0.926 0.315c-0.68 0.239-1.38 0.353-2.079 0.353-3.54 0-6.425-2.879-6.425-6.425 0-3.54 2.879-6.425 6.425-6.425 3.54 0 6.425 2.872 6.425 6.419v0.044c0 0.006 0 0.025 0 0.044 0.038 0.636 0.12 2.948-0.586 5.877z"></path>
</svg>
