<!-- Generated by IcoMoon.io -->
<svg version="1.1" xmlns="http://www.w3.org/2000/svg" width="32" height="32" viewBox="0 0 32 32">
<path d="M18.35 14.435c-0.863 0-1.565 0.702-1.565 1.565s0.702 1.565 1.565 1.565 1.565-0.702 1.565-1.565c0-0.863-0.702-1.565-1.565-1.565z"></path>
<path d="M19.387 9.69v2.823c0.804 0.239 1.492 0.749 1.958 1.424l2.685-0.872c-0.913-1.76-2.62-3.043-4.643-3.375z"></path>
<path d="M24.672 15.036l-2.686 0.873c0.001 0.030 0.002 0.061 0.002 0.091 0 0.831-0.281 1.597-0.751 2.211l1.658 2.282c1.142-1.156 1.849-2.743 1.849-4.493 0-0.328-0.025-0.65-0.073-0.964z"></path>
<path d="M18.35 2.35h-12.613c-0.573 0-1.037 0.464-1.037 1.037s0.464 1.037 1.037 1.037h5.389c-1.137 0.712-2.162 1.587-3.043 2.591h-7.047c-0.573 0-1.037 0.464-1.037 1.037s0.464 1.037 1.037 1.037h5.547c-1.196 2.028-1.884 4.391-1.884 6.912 0 2.933 0.93 5.652 2.51 7.88h-2.942c-0.573 0-1.037 0.464-1.037 1.037s0.464 1.037 1.037 1.037h4.751c0.646 0.606 1.352 1.151 2.106 1.623h-9.982c-0.573 0-1.037 0.464-1.037 1.037s0.464 1.037 1.037 1.037h17.206c7.527 0 13.65-6.123 13.65-13.65s-6.123-13.65-13.65-13.65zM23.386 22.804c-0.019 0.016-0.038 0.032-0.059 0.047-0.023 0.017-0.047 0.032-0.071 0.047-1.385 0.988-3.079 1.57-4.907 1.57s-3.521-0.582-4.907-1.57c-0.024-0.015-0.048-0.030-0.071-0.047-0.021-0.015-0.039-0.031-0.059-0.047-2.081-1.544-3.432-4.019-3.432-6.804 0-4.669 3.799-8.468 8.468-8.468s8.468 3.799 8.468 8.468c0 2.785-1.351 5.259-3.432 6.804z"></path>
<path d="M12.67 13.064l2.685 0.872c0.466-0.675 1.154-1.185 1.958-1.424v-2.823c-2.023 0.331-3.73 1.615-4.643 3.375z"></path>
<path d="M19.561 19.431c-0.379 0.134-0.787 0.208-1.211 0.208s-0.832-0.074-1.211-0.208l-1.659 2.283c0.863 0.435 1.838 0.681 2.87 0.681s2.006-0.246 2.87-0.681l-1.659-2.283z"></path>
<path d="M14.711 16c0-0.031 0.002-0.061 0.002-0.091l-2.686-0.873c-0.048 0.315-0.073 0.636-0.073 0.964 0 1.75 0.707 3.337 1.849 4.493l1.658-2.282c-0.471-0.613-0.751-1.38-0.751-2.211z"></path>
</svg>
