<!-- Generated by IcoMoon.io -->
<svg version="1.1" xmlns="http://www.w3.org/2000/svg" width="34" height="32" viewBox="0 0 34 32">
<path d="M25.088 19.712c0.256 0 0.512-0.192 0.512-0.512v-4.48c0-1.024-0.576-1.984-1.536-2.432l-3.968-1.792c-0.192-0.064-0.32-0.32-0.32-0.512v-1.344c0.96-0.768 1.6-1.984 1.6-3.328v-2.112c0-1.728-0.576-2.88-0.576-2.88-0.192-0.192-0.32-0.32-0.512-0.32h-4.032c-0.512 0-0.96 0.192-1.344 0.448 0 0 0 0-0.064 0-0.704 0.064-2.048 0.64-2.048 2.432v2.432c0 1.344 0.64 2.56 1.6 3.328v1.344c0 0.192-0.128 0.448-0.32 0.512l-3.968 1.792c-0.96 0.448-1.536 1.344-1.536 2.432v4.48c0 0.256 0.192 0.512 0.512 0.512 0.256 0 0.512-0.192 0.512-0.512v-1.408l1.664 0.64v2.112l-1.408 0.192c-0.576 0.064-1.024 0.448-1.152 1.024-0.192 0.512 0 1.088 0.384 1.472l3.008 2.88-0.704 4.096c-0.064 0.576 0.128 1.088 0.576 1.408s1.024 0.384 1.536 0.128l3.712-1.92 3.712 1.92c0.192 0.128 0.448 0.192 0.704 0.192 0.32 0 0.576-0.064 0.832-0.256 0.448-0.32 0.704-0.896 0.576-1.408l-0.704-4.096 3.008-2.88c0.384-0.384 0.512-0.96 0.384-1.472-0.192-0.512-0.64-0.896-1.152-1.024l-1.408-0.192v-2.048l1.664-0.32v0.96c-0.256 0.256 0 0.512 0.256 0.512zM13.824 2.88c0-0.512 0.128-0.832 0.448-1.088 0.064 0.128 0.128 0.256 0.32 0.256 0.256 0.064 0.576-0.064 0.64-0.32 0.128-0.448 0.512-0.704 1.024-0.704h3.712c0.128 0.32 0.32 1.024 0.384 1.856-0.704 0.256-2.432 0.64-4.416-0.192-0.256-0.064-0.512 0-0.64 0.192 0 0-0.512 0.768-1.408 1.216l-0.064-1.216zM13.824 5.312v-0.128c1.024-0.32 1.728-1.024 2.048-1.408 1.92 0.704 3.52 0.384 4.416 0.128v1.408c0 1.792-1.472 3.264-3.264 3.264-1.728 0-3.2-1.472-3.2-3.264zM19.648 11.392v0c-0.32 1.152-1.344 1.984-2.56 1.984s-2.24-0.832-2.624-1.92h0.064c0.576-0.256 0.896-0.832 0.896-1.408v-0.768c0.512 0.192 1.088 0.32 1.664 0.32s1.152-0.128 1.664-0.32v0.768c-0.064 0.512 0.32 1.088 0.896 1.344zM24.192 21.76c0.192 0 0.32 0.128 0.384 0.32s0 0.32-0.128 0.448l-3.136 3.072c-0.128 0.128-0.192 0.256-0.128 0.448l0.768 4.352c0 0.192-0.064 0.32-0.192 0.448s-0.32 0.128-0.512 0.064l-3.968-2.048c-0.064-0.064-0.128-0.064-0.256-0.064s-0.128 0-0.256 0.064l-3.904 2.048c-0.128 0.064-0.32 0.064-0.512-0.064-0.128-0.128-0.192-0.256-0.192-0.448l0.768-4.352c0-0.192 0-0.32-0.128-0.448l-3.136-3.072c-0.128-0.128-0.192-0.32-0.128-0.448 0.064-0.192 0.192-0.256 0.384-0.32l4.352-0.64c0.192 0 0.32-0.128 0.384-0.256l1.984-3.968c0.064-0.192 0.256-0.256 0.384-0.256 0.192 0 0.32 0.064 0.384 0.256l1.984 3.968c0.064 0.128 0.192 0.256 0.384 0.256l4.416 0.64zM24.576 17.216l-1.664 0.32v-1.536c0-0.256-0.192-0.512-0.512-0.512-0.256 0-0.512 0.192-0.512 0.512v2.112c0 0 0 0 0 0v2.304l-1.664-0.256-1.856-3.712c-0.256-0.512-0.768-0.832-1.28-0.832-0.576 0-1.088 0.32-1.28 0.832l-1.856 3.712-1.664 0.256v-2.304c0 0 0 0 0 0v-2.112c0-0.256-0.192-0.512-0.512-0.512s-0.512 0.192-0.512 0.512v1.408l-1.664-0.64v-2.048c0-0.64 0.384-1.216 0.96-1.472l3.072-1.408c0.512 1.472 1.92 2.56 3.52 2.56s3.008-1.024 3.52-2.56l3.072 1.408c0.576 0.256 0.96 0.832 0.96 1.472l-0.128 2.496z"></path>
<path d="M10.304 26.496c-0.192-0.192-0.512-0.192-0.704 0l-1.024 1.024c-0.128 0.128-0.192 0.256-0.128 0.448l0.512 2.88c0 0.064 0 0.128-0.064 0.128 0 0-0.064 0.064-0.128 0l-2.624-1.344c-0.128-0.064-0.32-0.064-0.448 0l-2.624 1.344c-0.064 0.064-0.128 0-0.128 0s-0.064-0.064-0.064-0.128l0.512-2.88c0-0.192 0-0.32-0.128-0.448l-2.112-2.048c-0.064-0.064-0.064-0.128-0.064-0.128 0-0.064 0.064-0.064 0.128-0.064l2.944-0.448c0.192 0 0.32-0.128 0.384-0.256l1.28-2.624c-0.064-0.192 0-0.192 0-0.192s0.064 0 0.128 0.064l1.152 2.304c0.128 0.256 0.448 0.32 0.64 0.256 0.256-0.128 0.32-0.448 0.256-0.64l-1.152-2.304c-0.192-0.384-0.576-0.64-1.024-0.64s-0.832 0.256-1.024 0.64l-1.216 2.432-2.688 0.384c-0.448 0.064-0.768 0.384-0.896 0.768s0 0.832 0.32 1.152l1.92 1.856-0.448 2.624c-0.064 0.448 0.128 0.832 0.448 1.088 0.192 0.128 0.448 0.192 0.64 0.192s0.384-0.064 0.512-0.128l2.368-1.28 2.368 1.28c0.384 0.192 0.832 0.192 1.216-0.064s0.512-0.704 0.448-1.088l-0.448-2.624 0.832-0.832c0.32-0.192 0.32-0.512 0.128-0.704z"></path>
<path d="M34.112 24.96c-0.128-0.384-0.512-0.704-0.896-0.768l-2.688-0.384-1.216-2.432c-0.192-0.384-0.576-0.64-1.024-0.64s-0.832 0.256-1.024 0.64l-1.152 2.304c-0.128 0.256 0 0.576 0.256 0.64 0.256 0.128 0.576 0 0.64-0.256l1.152-2.304c0-0.064 0.064-0.064 0.128-0.064s0.064 0 0.128 0.064l1.28 2.624c0.064 0.128 0.192 0.256 0.384 0.256l2.944 0.448c0.064 0 0.128 0.064 0.128 0.064 0 0.064 0 0.064-0.064 0.128l-2.112 2.048c-0.128 0.128-0.192 0.256-0.128 0.448l0.512 2.88c0 0.064 0 0.128-0.064 0.128 0 0-0.064 0.064-0.128 0l-2.624-1.344c-0.128-0.064-0.32-0.064-0.448 0l-2.624 1.344c-0.064 0.064-0.128 0-0.128 0s-0.064-0.064-0.064-0.128l0.512-2.88c0-0.192 0-0.32-0.128-0.448l-1.024-1.024c-0.192-0.192-0.512-0.192-0.704 0s-0.192 0.512 0 0.704l0.832 0.832-0.448 2.624c-0.064 0.448 0.128 0.832 0.448 1.088 0.384 0.256 0.832 0.32 1.216 0.064l2.368-1.28 2.368 1.28c0.192 0.064 0.32 0.128 0.512 0.128 0.256 0 0.448-0.064 0.64-0.192 0.384-0.256 0.512-0.704 0.448-1.088l-0.448-2.624 1.92-1.856c0.32-0.128 0.448-0.576 0.32-1.024z"></path>
</svg>
