<!-- Generated by IcoMoon.io -->
<svg version="1.1" xmlns="http://www.w3.org/2000/svg" width="32" height="32" viewBox="0 0 32 32">
<path d="M9.911 25.976c1.735 0.822 3.897 1.274 6.089 1.274s4.354-0.453 6.089-1.274l-0.803-1.695c-1.489 0.706-3.366 1.094-5.286 1.094s-3.797-0.388-5.286-1.094z"></path>
<path d="M1.998 19.318c-0.081 0.45-0.123 0.907-0.123 1.37 0 2.814 1.517 5.439 4.271 7.394 2.652 1.882 6.152 2.919 9.854 2.919s7.202-1.037 9.855-2.919c2.754-1.954 4.27-4.58 4.27-7.394 0-0.462-0.042-0.919-0.123-1.37 1.21-0.635 1.998-1.895 1.998-3.318 0-2.068-1.682-3.75-3.75-3.75-0.943 0-1.831 0.349-2.511 0.964-2.46-1.707-5.626-2.699-9.001-2.825l1.791-6.949 4.099 1.418c0.058 2.018 1.716 3.641 3.747 3.641 2.068 0 3.75-1.682 3.75-3.75s-1.682-3.75-3.75-3.75c-1.444 0-2.699 0.821-3.326 2.021l-5.828-2.017-2.426 9.408c-3.199 0.197-6.188 1.173-8.534 2.801-0.68-0.614-1.568-0.964-2.511-0.964-2.068 0-3.75 1.682-3.75 3.75 0 1.423 0.788 2.683 1.998 3.318zM26.375 2.875c1.034 0 1.875 0.841 1.875 1.875s-0.841 1.875-1.875 1.875-1.875-0.841-1.875-1.875 0.841-1.875 1.875-1.875zM30.125 16c0 0.585-0.267 1.115-0.698 1.461-0.489-1.092-1.227-2.116-2.194-3.036 0.298-0.193 0.649-0.3 1.017-0.3 1.034 0 1.875 0.841 1.875 1.875zM16 12.25c3.317 0 6.431 0.914 8.77 2.573 2.244 1.593 3.48 3.675 3.48 5.864s-1.236 4.272-3.48 5.864c-2.338 1.659-5.453 2.573-8.77 2.573s-6.431-0.914-8.77-2.573c-2.244-1.593-3.48-3.675-3.48-5.864s1.236-4.272 3.48-5.864c2.338-1.659 5.453-2.573 8.77-2.573zM3.75 14.125c0.368 0 0.719 0.107 1.017 0.3-0.968 0.92-1.706 1.945-2.194 3.036-0.431-0.346-0.698-0.876-0.698-1.461 0-1.034 0.841-1.875 1.875-1.875z"></path>
<path d="M10.313 21.625c1.551 0 2.813-1.262 2.813-2.813s-1.262-2.813-2.813-2.813-2.813 1.262-2.813 2.813 1.262 2.813 2.813 2.813zM10.313 17.875c0.517 0 0.938 0.421 0.938 0.938s-0.421 0.938-0.938 0.938-0.938-0.421-0.938-0.938 0.421-0.938 0.938-0.938z"></path>
<path d="M21.688 21.625c1.551 0 2.813-1.262 2.813-2.813s-1.262-2.813-2.813-2.813-2.813 1.262-2.813 2.813 1.262 2.813 2.813 2.813zM21.688 17.875c0.517 0 0.938 0.421 0.938 0.938s-0.421 0.938-0.938 0.938-0.938-0.421-0.938-0.938 0.421-0.938 0.938-0.938z"></path>
</svg>
