<!-- Generated by IcoMoon.io -->
<svg version="1.1" xmlns="http://www.w3.org/2000/svg" width="32" height="32" viewBox="0 0 32 32">
<path d="M10.952 17.989v0.002h0.996z"></path>
<path d="M20.909 17.989v0.002h0.996z"></path>
<path d="M32 15.004c0-2.196-1.786-3.983-3.983-3.983-0.878 0-1.712 0.287-2.394 0.806-2.222-1.543-5.134-2.463-8.23-2.696l1.671-3.919 4.861 1.135c0.155 1.503 1.414 2.682 2.957 2.682 1.647 0 2.987-1.34 2.987-2.987s-1.34-2.987-2.987-2.987c-1.043 0-1.961 0.54-2.495 1.354l-5.681-1.328c-0.482-0.11-0.954 0.135-1.145 0.579l-2.31 5.416c-3.343 0.116-6.529 1.057-8.935 2.698-0.655-0.486-1.468-0.755-2.334-0.755-2.196 0-3.983 1.786-3.983 3.983 0 1.456 0.795 2.772 2.013 3.447-0.016 0.175-0.022 0.354-0.022 0.536 0 5.49 6.253 9.956 13.939 9.956 7.684 0 13.939-4.466 13.939-9.956 0-0.155-0.006-0.309-0.016-0.462 1.298-0.661 2.147-2.009 2.147-3.521zM26.882 5.048c0.548 0 0.996 0.446 0.996 0.996s-0.448 0.996-0.996 0.996-0.996-0.446-0.996-0.996c0-0.55 0.448-0.996 0.996-0.996zM8.961 17.991c0-1.097 0.894-1.991 1.991-1.991s1.991 0.894 1.991 1.991c0 1.099-0.894 1.991-1.991 1.991s-1.991-0.892-1.991-1.991zM20.528 24.596c-1.374 0.994-2.987 1.491-4.598 1.491s-3.224-0.498-4.598-1.491c-0.446-0.323-0.546-0.946-0.223-1.39s0.946-0.544 1.39-0.223c2.053 1.483 4.809 1.488 6.862 0 0.444-0.321 1.065-0.225 1.39 0.223 0.323 0.446 0.221 1.067-0.223 1.39zM20.909 19.983c-1.099 0-1.991-0.892-1.991-1.991 0-1.097 0.892-1.991 1.991-1.991s1.991 0.894 1.991 1.991c0 1.099-0.892 1.991-1.991 1.991z"></path>
</svg>
