<!-- Generated by IcoMoon.io -->
<svg version="1.1" xmlns="http://www.w3.org/2000/svg" width="32" height="32" viewBox="0 0 32 32">
<path d="M9.887 3.813c5.706-2.8 12.488-1.394 16.594 3.25l-4.363-0.713-0.194 1.306 6.637 1.044 0.325-6.781-1.3-0.063-0.212 4.319c-4.506-5.031-11.856-6.563-18.131-3.531-6.644 3.25-10.025 10.813-7.944 17.988l1.237-0.325c-1.887-6.588 1.169-13.563 7.35-16.494zM30.7 12.219l-1.238 0.325c1.887 6.581-1.169 13.494-7.288 16.494-5.744 2.788-12.506 1.406-16.619-3.256l4.387 0.65 0.194-1.238-6.694-1.044-0.256 6.713 1.238 0.063 0.213-4.313c2.962 3.325 7.112 5.1 11.363 5.1 2.275 0 4.556-0.519 6.762-1.5 6.637-3.256 10.019-10.819 7.938-17.994zM10.469 18.806v3.519h11.056v-3.519c0-2.219-1.756-3.975-3.969-3.975h-3.125c-2.206-0.006-3.963 1.756-3.963 3.975zM14.438 16.2h3.125c1.431 0 2.669 1.175 2.669 2.675v2.212h-8.463v-2.219c0-1.431 1.175-2.669 2.669-2.669zM19.188 10.069c0-1.762-1.431-3.194-3.188-3.194s-3.188 1.431-3.188 3.194 1.431 3.194 3.188 3.194 3.188-1.431 3.188-3.194zM14.113 10.069c0-1.044 0.844-1.887 1.887-1.887s1.887 0.85 1.887 1.887c0 1.044-0.844 1.887-1.887 1.887s-1.887-0.844-1.887-1.887z"></path>
</svg>
