<!-- Generated by IcoMoon.io -->
<svg version="1.1" xmlns="http://www.w3.org/2000/svg" width="27" height="32" viewBox="0 0 27 32">
<path d="M13.714 0c1.903 0 3.537 1.269 4.048 3.048h5.856c2.104 0 3.81 1.706 3.81 3.81v21.333c0 2.104-1.706 3.81-3.81 3.81h-19.81c-2.104 0-3.81-1.706-3.81-3.81v-21.333c0-2.104 1.706-3.81 3.81-3.81h5.856c0.511-1.779 2.146-3.048 4.048-3.048zM3.81 4.571c-1.262 0-2.286 1.023-2.286 2.286v21.333c0 1.262 1.023 2.286 2.286 2.286h19.81c1.262 0 2.286-1.023 2.286-2.286v-21.333c0-1.262-1.023-2.286-2.286-2.286h-5.613l0.167 1.335 0.012 0.169c0.013 0.838-0.665 1.544-1.524 1.544h-5.893c-0.916-0-1.626-0.803-1.512-1.713l0.167-1.335h-5.613zM7.822 24.624c3.050-3.286 8.683-3.46 11.793 0.010 0.281 0.313 0.254 0.795-0.059 1.076s-0.795 0.254-1.076-0.059c-2.476-2.763-7.064-2.658-9.54 0.010-0.286 0.308-0.769 0.326-1.077 0.040s-0.326-0.769-0.040-1.077zM13.704 12.19c2.079 0 3.729 1.725 3.729 3.81s-1.651 3.81-3.729 3.81c-2.078-0-3.728-1.725-3.728-3.81s1.65-3.809 3.728-3.81zM13.704 13.714c-1.199 0-2.205 1.004-2.205 2.286s1.006 2.285 2.205 2.286c1.199 0 2.205-1.004 2.205-2.286s-1.007-2.286-2.205-2.286zM13.714 1.524c-1.357 0-2.501 1.010-2.67 2.356l-0.277 2.215h5.893l-0.277-2.215c-0.168-1.346-1.313-2.356-2.67-2.356z"></path>
</svg>
