<!-- Generated by IcoMoon.io -->
<svg version="1.1" xmlns="http://www.w3.org/2000/svg" width="32" height="32" viewBox="0 0 32 32">
<path d="M30.137 14.537c0-7.795-6.342-14.137-14.137-14.137s-14.137 6.342-14.137 14.137c0 0.463 0.375 0.838 0.838 0.838s0.838-0.376 0.838-0.838c0-6.871 5.59-12.46 12.46-12.46s12.46 5.59 12.46 12.46c0 6.87-5.59 12.46-12.46 12.46h-1.455l2.080-2.328c0.309-0.345 0.279-0.875-0.067-1.184s-0.876-0.279-1.184 0.067l-2.973 3.328c-0.487 0.545-0.487 1.367 0 1.912l2.973 3.328c0.166 0.185 0.395 0.28 0.626 0.28 0.199 0 0.398-0.070 0.558-0.213 0.345-0.309 0.375-0.839 0.067-1.184l-2.080-2.328h1.455c7.795 0 14.137-6.342 14.137-14.137z"></path>
</svg>
