<!-- Generated by IcoMoon.io -->
<svg version="1.1" xmlns="http://www.w3.org/2000/svg" width="32" height="32" viewBox="0 0 32 32">
<path d="M10.172 18.626l-7.348 7.348c-0.183 0.183-0.183 0.48 0 0.663 0.091 0.091 0.211 0.137 0.331 0.137s0.24-0.046 0.332-0.137l7.348-7.348c0.183-0.183 0.183-0.48 0-0.663s-0.48-0.183-0.663 0z"></path>
<path d="M11.442 19.895l-7.348 7.348c-0.183 0.183-0.183 0.48 0 0.663 0.092 0.092 0.211 0.137 0.332 0.137s0.24-0.046 0.331-0.137l7.348-7.348c0.183-0.183 0.183-0.48 0-0.663s-0.48-0.183-0.663 0z"></path>
<path d="M5.363 29.175c0.092 0.092 0.211 0.137 0.332 0.137s0.24-0.046 0.331-0.137l7.348-7.348c0.183-0.183 0.183-0.48 0-0.663s-0.48-0.183-0.663 0l-7.348 7.348c-0.183 0.183-0.183 0.48 0 0.663z"></path>
<path d="M31.667 1.562l-1.229-1.229c-0.374-0.374-0.948-0.441-1.398-0.163l-3.642 2.251c-0.221 0.137-0.39 0.347-0.475 0.593l-0.846 2.443-8.388 8.388-0.97-0.97c-0.608-0.608-1.596-0.608-2.204 0-0.435 0.435-0.573 1.087-0.353 1.661l0.186 0.484c0.123 0.319 0.045 0.682-0.196 0.924-0.192 0.192-0.468 0.284-0.736 0.245l-0.637-0.091c-0.483-0.069-0.978 0.095-1.323 0.441l-3.311 3.311c-0.183 0.183-0.183 0.48 0 0.663s0.48 0.183 0.663 0l3.311-3.311c0.138-0.137 0.335-0.203 0.527-0.176l0.637 0.091c0.56 0.081 1.132-0.11 1.532-0.51 0.503-0.503 0.664-1.258 0.408-1.923l-0.186-0.484c-0.088-0.229-0.033-0.489 0.141-0.662 0.117-0.117 0.273-0.182 0.439-0.182s0.322 0.065 0.439 0.182l4.405 4.406c0.242 0.242 0.242 0.636 0 0.878-0.173 0.173-0.433 0.229-0.662 0.141l-0.484-0.186c-0.665-0.255-1.419-0.095-1.923 0.408-0.4 0.4-0.59 0.973-0.51 1.532l0.091 0.637c0.028 0.193-0.038 0.39-0.176 0.527l-8.653 8.653c-0.339 0.339-0.791 0.526-1.27 0.526s-0.931-0.187-1.271-0.526l-2.14-2.14c-0.7-0.7-0.7-1.84 0-2.541l4.008-4.008c0.183-0.183 0.183-0.48 0-0.663s-0.48-0.183-0.663 0l-4.008 4.008c-0.516 0.517-0.801 1.203-0.801 1.933s0.284 1.417 0.801 1.933l2.14 2.14c0.516 0.516 1.203 0.801 1.933 0.801s1.417-0.284 1.933-0.801l8.653-8.653c0.345-0.345 0.51-0.84 0.441-1.323l-0.092-0.637c-0.039-0.269 0.053-0.544 0.245-0.736 0.242-0.242 0.605-0.319 0.924-0.196l0.484 0.186c0.574 0.22 1.226 0.082 1.661-0.353 0.608-0.608 0.608-1.596 0-2.204l-0.97-0.97 5.751-5.751c0.183-0.183 0.183-0.48 0-0.663s-0.48-0.183-0.663 0l-5.751 5.751-1.14-1.14 8.133-8.133 1.14 1.14-1.074 1.073c-0.183 0.183-0.183 0.48 0 0.663 0.092 0.092 0.211 0.137 0.331 0.137s0.24-0.046 0.332-0.137l1.329-1.329 2.443-0.846c0.246-0.085 0.456-0.254 0.593-0.475l2.251-3.642c0.278-0.449 0.211-1.024-0.163-1.398zM31.032 2.467l-2.251 3.642c-0.024 0.038-0.060 0.067-0.103 0.082l-2.268 0.786-1.388-1.388 0.786-2.268c0.015-0.042 0.044-0.079 0.082-0.103l3.642-2.251c0.078-0.048 0.177-0.037 0.242 0.028l1.229 1.229c0.065 0.065 0.076 0.164 0.028 0.242z"></path>
</svg>
