<!-- Generated by IcoMoon.io -->
<svg version="1.1" xmlns="http://www.w3.org/2000/svg" width="32" height="32" viewBox="0 0 32 32">
<path d="M27.8 15.119c-3.687-3.52-8.647-4-10.467-4.047v-4.667c0-0.367-0.3-0.667-0.667-0.667-0.153 0-0.307 0.053-0.427 0.153l-11.334 9.334c-0.287 0.233-0.327 0.653-0.093 0.94 0.027 0.033 0.060 0.060 0.093 0.093l11.334 9.334c0.287 0.233 0.707 0.193 0.94-0.093 0.1-0.12 0.153-0.267 0.153-0.427v-4.84c1.86-0.507 8.994-1.793 13.414 6.487 0.113 0.22 0.34 0.353 0.587 0.353 0.213 0 0.42-0.1 0.553-0.293 0.080-0.113 0.113-0.253 0.113-0.393-0.007-4.82-1.42-8.607-4.2-11.267zM20.259 18.559c-2.22 0-3.78 0.533-3.82 0.553-0.267 0.093-0.44 0.347-0.44 0.627v3.92l-9.621-7.92 9.621-7.92v3.92c0 0.18 0.073 0.353 0.207 0.48s0.307 0.193 0.493 0.187c0.060 0 6.114-0.22 10.194 3.687 2.007 1.92 3.22 4.52 3.627 7.76-3.227-4.347-7.32-5.294-10.261-5.294zM12.459 24.593c-0.013-0.007-0.020-0.020-0.033-0.027l-10.714-8.827 10.714-8.82c0.293-0.227 0.347-0.647 0.12-0.933s-0.647-0.347-0.933-0.12c-0.013 0.007-0.020 0.020-0.033 0.027l-11.334 9.334c-0.287 0.233-0.327 0.653-0.093 0.94 0.027 0.033 0.060 0.060 0.093 0.093l11.334 9.334c0.28 0.24 0.7 0.213 0.94-0.060 0.24-0.28 0.213-0.7-0.060-0.94z"></path>
</svg>
