<!-- Generated by IcoMoon.io -->
<svg version="1.1" xmlns="http://www.w3.org/2000/svg" width="32" height="32" viewBox="0 0 32 32">
<path d="M24.052 11.694c-0.044 0-21.796 0-21.796 0l4.583-5.137c0.297-0.333 0.268-0.844-0.065-1.141s-0.844-0.268-1.141 0.065l-5.161 5.785c-0.629 0.705-0.629 1.768 0 2.472l5.161 5.785c0.16 0.179 0.381 0.27 0.603 0.27 0.192 0 0.384-0.068 0.538-0.205 0.333-0.297 0.362-0.808 0.065-1.141l-4.583-5.137c0 0 21.752 0 21.796 0 3.491 0 6.331 2.84 6.331 6.331s-2.84 6.331-6.331 6.331h-3.849c-0.446 0-0.808 0.362-0.808 0.808s0.362 0.808 0.808 0.808h3.849c4.383 0 7.948-3.565 7.948-7.948s-3.565-7.948-7.948-7.948z"></path>
</svg>
