<!-- Generated by IcoMoon.io -->
<svg version="1.1" xmlns="http://www.w3.org/2000/svg" width="46" height="32" viewBox="0 0 46 32">
<path d="M14.034 29.102h11.26c0.373 0 0.745 0.124 1.035 0.414s0.414 0.621 0.414 1.035c0 0.373-0.124 0.745-0.414 1.035s-0.621 0.414-1.035 0.414h-11.26c-1.987 0-3.684-0.704-5.133-2.111-1.407-1.407-2.111-3.105-2.111-5.133v-19.788l-4.305 4.264c-0.29 0.29-0.621 0.455-1.035 0.455s-0.704-0.166-0.994-0.455c-0.29-0.248-0.455-0.58-0.455-0.994 0-0.373 0.166-0.745 0.455-1.035l6.748-6.748c0.29-0.29 0.662-0.455 1.035-0.455s0.745 0.166 0.994 0.455l6.789 6.748c0.29 0.29 0.414 0.662 0.414 1.035s-0.124 0.745-0.414 0.994c-0.29 0.29-0.621 0.455-1.035 0.455-0.373 0-0.745-0.166-1.035-0.455l-4.264-4.264v19.788c0 1.159 0.414 2.194 1.283 3.063 0.828 0.869 1.863 1.283 3.063 1.283zM45.909 22.768c0.29 0.29 0.455 0.621 0.455 0.994s-0.166 0.745-0.455 1.035l-6.748 6.748c-0.29 0.29-0.662 0.455-1.035 0.455s-0.704-0.166-0.994-0.455l-6.789-6.748c-0.29-0.29-0.414-0.662-0.414-1.035s0.124-0.745 0.414-0.994c0.29-0.29 0.662-0.455 1.035-0.455s0.745 0.166 0.994 0.455l4.305 4.264v-19.788c0-1.159-0.414-2.194-1.283-3.063-0.828-0.869-1.863-1.283-3.063-1.283h-11.26c-0.373 0-0.745-0.124-1.035-0.414s-0.414-0.621-0.414-1.035c0-0.373 0.124-0.745 0.414-1.035s0.621-0.414 1.035-0.414h11.26c1.987 0 3.684 0.704 5.133 2.111 1.407 1.408 2.111 3.105 2.111 5.133v19.788l4.305-4.264c0.29-0.29 0.621-0.455 1.035-0.455s0.745 0.166 0.994 0.455z"></path>
</svg>
