<!-- Generated by IcoMoon.io -->
<svg version="1.1" xmlns="http://www.w3.org/2000/svg" width="32" height="32" viewBox="0 0 32 32">
<path d="M8.846 5.748c0.217 0.628 0.802 1.051 1.456 1.051h3.963c0.654 0 1.239-0.422 1.456-1.051 0.207-0.601 0.857-1.944 1.362-2.371 0.442-0.375 0.65-0.956 0.541-1.516-0.107-0.551-0.491-0.986-1.028-1.164-1.601-0.531-3.020-0.352-4.106 0.516-0.195 0.156-0.456 0.156-0.651 0-1.085-0.867-2.504-1.046-4.106-0.515-0.537 0.178-0.922 0.612-1.029 1.164-0.109 0.56 0.099 1.141 0.541 1.516 0.571 0.483 1.446 1.922 1.601 2.37zM7.752 2.066c0.019-0.1 0.086-0.278 0.317-0.354 0.496-0.164 0.958-0.246 1.386-0.246 0.658 0 1.233 0.194 1.718 0.582 0.584 0.468 1.4 0.467 1.983 0 0.801-0.64 1.844-0.753 3.104-0.336 0.23 0.076 0.297 0.255 0.316 0.354 0.036 0.185-0.033 0.371-0.183 0.499-0.815 0.69-1.544 2.441-1.68 2.837-0.068 0.198-0.249 0.332-0.447 0.332h-3.963c-0.199 0-0.379-0.133-0.447-0.332-0.222-0.644-1.212-2.237-1.92-2.837-0.151-0.128-0.22-0.314-0.183-0.499zM16.818 7.866c0-0.294-0.239-0.533-0.533-0.533-0.099 0-0.187 0.035-0.267 0.082-0.079-0.047-0.167-0.082-0.267-0.082h-6.4c-0.294 0-0.533 0.239-0.533 0.533s0.239 0.533 0.533 0.533h6.4v0.533h-5.867c-0.294 0-0.533 0.239-0.533 0.533s0.239 0.533 0.533 0.533h6.36c0.478 0.398 1.067 0.626 1.696 0.626 0.712 0 1.382-0.278 1.886-0.782 0.209-0.209 0.209-0.546 0-0.754s-0.546-0.209-0.754 0c-0.603 0.603-1.647 0.604-2.254 0.007v-1.23zM11.484 14.266c-3.419 0-7.467 4.337-7.467 8 0 0.294 0.239 0.533 0.533 0.533s0.533-0.239 0.533-0.533c0-3.045 3.589-6.934 6.4-6.934 0.294 0 0.533-0.239 0.533-0.533s-0.239-0.533-0.533-0.533zM26.418 17.466c-0.55 0-1.205 0.032-1.865 0.107-0.718-1.315-1.666-2.446-2.861-3.362l-3.841-2.611c-0.635-0.487-1.636-1.068-2.798-1.068h-4.148c-1.026 0-2.035 0.349-2.827 0.972l-3.775 2.751c-3.935 3.093-5.18 8.514-2.961 12.89 0.808 1.592 2.156 3.516 4.001 3.641 0.145 0.010 0.291 0.015 0.438 0.015h10.378c0.783 0.974 1.981 1.6 3.325 1.6 1.546 0 2.898-0.829 3.647-2.064 0.953 0.296 2.122 0.463 3.287 0.463 2.565 0 5.334-0.816 5.334-2.133v-2.933h-0.042c0.026-0.086 0.042-0.175 0.042-0.267v-6.134c0-1.474-3.353-1.867-5.334-1.867zM30.644 19.328c-0.011 0.011-0.020 0.022-0.036 0.035-0.021 0.017-0.046 0.034-0.074 0.052-0.035 0.022-0.078 0.046-0.124 0.069-0.038 0.019-0.077 0.039-0.123 0.059-0.056 0.025-0.122 0.050-0.19 0.076-0.054 0.020-0.109 0.041-0.171 0.061-0.078 0.026-0.167 0.051-0.258 0.076-0.070 0.020-0.14 0.040-0.218 0.059-0.101 0.025-0.215 0.048-0.329 0.071-0.086 0.018-0.167 0.036-0.26 0.052-0.128 0.022-0.271 0.042-0.412 0.061-0.097 0.013-0.187 0.028-0.29 0.040-0.168 0.019-0.353 0.033-0.538 0.046-0.094 0.007-0.179 0.017-0.277 0.022-0.291 0.016-0.599 0.026-0.929 0.026s-0.637-0.010-0.929-0.026c-0.098-0.005-0.183-0.015-0.277-0.022-0.185-0.014-0.37-0.027-0.538-0.046-0.103-0.012-0.193-0.027-0.29-0.040-0.141-0.019-0.284-0.038-0.412-0.061-0.093-0.017-0.174-0.035-0.26-0.052-0.114-0.023-0.228-0.046-0.329-0.071-0.078-0.019-0.147-0.039-0.218-0.059-0.090-0.025-0.179-0.051-0.258-0.076-0.062-0.020-0.117-0.041-0.171-0.061-0.068-0.026-0.134-0.051-0.19-0.076-0.045-0.020-0.085-0.039-0.123-0.059-0.046-0.024-0.089-0.047-0.124-0.069-0.028-0.018-0.053-0.035-0.074-0.052-0.014-0.011-0.022-0.021-0.033-0.032 0.006-0.005 0.011-0.011 0.018-0.017 0.020-0.017 0.048-0.035 0.076-0.053 0.043-0.028 0.097-0.058 0.161-0.090 0.035-0.018 0.069-0.035 0.109-0.052 0.042-0.019 0.091-0.037 0.139-0.057 0.058-0.022 0.121-0.045 0.187-0.067 0.048-0.016 0.094-0.033 0.148-0.049 0.119-0.036 0.25-0.072 0.394-0.107 0.066-0.016 0.143-0.030 0.215-0.045 0.087-0.019 0.176-0.037 0.27-0.054 0.104-0.019 0.214-0.036 0.329-0.053 0.601-0.091 1.321-0.154 2.179-0.154 2.521-0.001 3.93 0.519 4.229 0.795zM22.511 23.716c0.048 0.020 0.098 0.039 0.148 0.059 0.093 0.036 0.188 0.070 0.286 0.104 0.052 0.018 0.102 0.035 0.155 0.051 0.113 0.035 0.228 0.068 0.347 0.099 0.042 0.011 0.082 0.023 0.124 0.034 0.162 0.041 0.327 0.078 0.497 0.111 0.035 0.007 0.072 0.012 0.108 0.019 0.136 0.026 0.274 0.049 0.413 0.070 0.060 0.009 0.12 0.017 0.18 0.025 0.12 0.016 0.241 0.030 0.363 0.043 0.064 0.006 0.128 0.013 0.192 0.019 0.126 0.011 0.252 0.020 0.379 0.027 0.057 0.003 0.113 0.007 0.17 0.010 0.182 0.008 0.364 0.013 0.546 0.013s0.363-0.005 0.546-0.013c0.058-0.003 0.115-0.007 0.173-0.010 0.125-0.007 0.251-0.016 0.375-0.027 0.066-0.006 0.131-0.012 0.196-0.019 0.12-0.012 0.239-0.027 0.357-0.043 0.062-0.008 0.124-0.016 0.185-0.025 0.138-0.020 0.273-0.044 0.407-0.069 0.038-0.007 0.076-0.013 0.114-0.020 0.169-0.034 0.333-0.070 0.494-0.11 0.045-0.011 0.087-0.024 0.132-0.036 0.116-0.031 0.229-0.063 0.339-0.098 0.054-0.017 0.106-0.035 0.158-0.052 0.098-0.033 0.193-0.068 0.285-0.103 0.050-0.019 0.099-0.039 0.147-0.059 0.096-0.041 0.187-0.083 0.275-0.127 0.028-0.014 0.059-0.026 0.086-0.039l0.003 1.88c-0.125 0.303-1.504 0.98-3.678 1.088-0.195 0.007-0.384 0.017-0.595 0.017-1.175 0-2.336-0.18-3.222-0.497-0.003-0.005-0.007-0.011-0.010-0.016-0.063-0.11-0.13-0.217-0.202-0.321-0.011-0.015-0.023-0.030-0.034-0.045-0.067-0.093-0.135-0.185-0.21-0.272-0.022-0.026-0.046-0.050-0.069-0.076-0.066-0.074-0.132-0.147-0.202-0.217-0.036-0.036-0.075-0.068-0.113-0.102-0.062-0.057-0.123-0.113-0.187-0.166-0.006-0.005-0.012-0.011-0.018-0.016 0-0.209 0.001-0.672 0.001-1.255 0.027 0.014 0.060 0.027 0.087 0.041 0.088 0.043 0.178 0.085 0.272 0.125zM15.465 29.733h-9.685c-0.123 0-0.246-0.004-0.367-0.012-1.048-0.071-2.156-1.157-3.121-3.059-1.99-3.923-0.867-8.789 2.653-11.557l3.775-2.751c0.62-0.487 1.395-0.755 2.183-0.755h4.148c0.862 0 1.644 0.461 2.174 0.866l3.841 2.61c0.954 0.732 1.749 1.627 2.371 2.667-0.675 0.139-1.328 0.351-1.777 0.663-0.012 0.009-0.025 0.017-0.037 0.026-0.068 0.049-0.13 0.101-0.186 0.155-0.024 0.023-0.045 0.046-0.067 0.070-0.042 0.046-0.083 0.093-0.116 0.143-0.028 0.041-0.048 0.085-0.069 0.129-0.019 0.039-0.041 0.077-0.054 0.119-0.029 0.090-0.047 0.185-0.047 0.285v4.848c-0.18-0.073-0.366-0.132-0.557-0.18-0.025-0.006-0.050-0.013-0.075-0.019-0.187-0.044-0.377-0.077-0.572-0.095-0.022-0.002-0.044-0.002-0.066-0.003-0.109-0.009-0.219-0.017-0.331-0.017-0.059 0-0.115 0.006-0.173 0.009-0.045 0.002-0.091 0.004-0.136 0.007-0.19 0.014-0.378 0.036-0.56 0.074-0.004 0.001-0.007 0.001-0.011 0.002-0.014 0.003-0.028 0.009-0.042 0.012-0.167 0.037-0.33 0.085-0.489 0.142-0.058 0.020-0.115 0.041-0.172 0.063-0.158 0.063-0.313 0.134-0.462 0.215-0.056 0.030-0.108 0.066-0.163 0.099-0.104 0.063-0.205 0.13-0.303 0.202-0.058 0.042-0.116 0.083-0.171 0.128-0.125 0.101-0.245 0.21-0.358 0.325-0.050 0.050-0.095 0.103-0.142 0.156-0.080 0.090-0.156 0.183-0.228 0.279-0.039 0.052-0.080 0.102-0.117 0.156-0.094 0.137-0.178 0.281-0.255 0.429-0.030 0.058-0.057 0.116-0.085 0.175-0.061 0.131-0.115 0.264-0.163 0.402-0.014 0.040-0.031 0.078-0.043 0.118-0.055 0.175-0.095 0.356-0.127 0.54-0.004 0.023-0.013 0.046-0.017 0.069-0.004 0.029-0.004 0.060-0.008 0.089-0.017 0.125-0.028 0.252-0.034 0.381-0.002 0.046-0.006 0.091-0.007 0.138 0 0.020-0.003 0.039-0.003 0.059 0 0.085 0.008 0.167 0.013 0.251 0.021 0.461 0.096 0.924 0.235 1.349zM19.484 31.333c-1.752 0-3.178-1.416-3.198-3.162 0-0.042 0.001-0.083 0.003-0.124 0.002-0.059 0.004-0.117 0.009-0.175 0.004-0.049 0.010-0.098 0.015-0.146 0.006-0.050 0.014-0.099 0.022-0.147 0.024-0.139 0.055-0.276 0.097-0.409 0.004-0.014 0.011-0.028 0.015-0.042 0.045-0.134 0.099-0.265 0.161-0.391 0.006-0.012 0.012-0.025 0.018-0.036 0.287-0.564 0.741-1.041 1.291-1.355 0.002-0.001 0.004-0.003 0.006-0.004 0.125-0.071 0.256-0.131 0.389-0.184 0.035-0.014 0.070-0.026 0.105-0.038 0.118-0.042 0.239-0.079 0.363-0.106 0.017-0.004 0.033-0.010 0.050-0.013 0.154-0.031 0.309-0.049 0.463-0.058 0.029-0.002 0.059-0.004 0.089-0.004 0.157-0.005 0.314-0.001 0.469 0.018 0.009 0.001 0.018 0.003 0.026 0.004 0.163 0.020 0.325 0.053 0.484 0.099 0.002 0.001 0.005 0.001 0.007 0.002 0.164 0.047 0.324 0.109 0.481 0.183 0.144 0.068 0.284 0.145 0.415 0.233l0.021 0.015c0.019 0.013 0.036 0.027 0.054 0.040 0.089 0.063 0.173 0.131 0.255 0.203 0.020 0.017 0.039 0.035 0.058 0.053 0.082 0.076 0.159 0.155 0.233 0.238 0.007 0.009 0.015 0.016 0.022 0.025 0.17 0.197 0.316 0.415 0.433 0.65 0.027 0.053 0.054 0.107 0.078 0.162 0.041 0.093 0.076 0.188 0.107 0.283 0.002 0.007 0.005 0.014 0.007 0.021 0.031 0.097 0.056 0.195 0.077 0.293 0.002 0.008 0.004 0.015 0.006 0.023 0.020 0.098 0.035 0.197 0.046 0.297 0.001 0.009 0.003 0.017 0.004 0.026 0.011 0.109 0.017 0.218 0.017 0.329 0 0.113-0.006 0.226-0.018 0.338-0.002 0.017-0.005 0.032-0.007 0.049-0.012 0.097-0.026 0.193-0.047 0.287-0.002 0.011-0.006 0.021-0.008 0.031-0.023 0.101-0.050 0.202-0.083 0.301-0.002 0.004-0.003 0.009-0.005 0.013-0.035 0.103-0.076 0.205-0.122 0.306-0.506 1.105-1.619 1.876-2.911 1.876zM26.418 29.733c-1.012 0-2.020-0.135-2.848-0.377 0.001-0.001 0.001-0.002 0.001-0.003 0.052-0.173 0.090-0.351 0.119-0.532 0.007-0.043 0.014-0.086 0.020-0.13 0.024-0.183 0.041-0.369 0.041-0.558 0-0.138-0.007-0.275-0.021-0.411-0.005-0.049-0.013-0.097-0.020-0.145-0.009-0.069-0.015-0.138-0.028-0.206 0.809 0.149 1.749 0.229 2.735 0.229 1.275 0 3.117-0.163 4.269-0.671l0.003 1.7c-0.137 0.33-1.755 1.105-4.272 1.105zM26.418 23.333c-2.508 0-4.123-0.769-4.264-1.064 0.001-0.608 0.001-1.225 0.001-1.739 0.013 0.006 0.029 0.011 0.043 0.017 0.127 0.054 0.261 0.106 0.403 0.153 0.007 0.003 0.015 0.005 0.023 0.007 0.145 0.047 0.298 0.089 0.454 0.128 0.051 0.013 0.104 0.025 0.156 0.036 0.114 0.026 0.229 0.051 0.347 0.074 0.057 0.011 0.114 0.022 0.171 0.032 0.13 0.023 0.26 0.043 0.391 0.062 0.042 0.006 0.083 0.013 0.124 0.019 0.172 0.023 0.345 0.043 0.516 0.060 0.043 0.004 0.085 0.007 0.129 0.011 0.132 0.012 0.262 0.022 0.391 0.031 0.056 0.004 0.11 0.007 0.165 0.010 0.119 0.007 0.236 0.012 0.351 0.017 0.049 0.002 0.097 0.004 0.145 0.005 0.156 0.004 0.309 0.007 0.453 0.007s0.296-0.003 0.452-0.007c0.049-0.002 0.098-0.004 0.147-0.005 0.114-0.004 0.23-0.010 0.349-0.017 0.056-0.003 0.111-0.006 0.167-0.010 0.129-0.009 0.26-0.019 0.391-0.031 0.043-0.004 0.084-0.007 0.127-0.011 0.172-0.017 0.344-0.037 0.516-0.060 0.042-0.006 0.084-0.013 0.126-0.019 0.131-0.019 0.261-0.039 0.39-0.062 0.058-0.010 0.115-0.021 0.172-0.032 0.118-0.023 0.234-0.047 0.348-0.074 0.052-0.012 0.105-0.023 0.156-0.036 0.159-0.040 0.315-0.083 0.463-0.131 0.007-0.003 0.014-0.005 0.021-0.007 0.139-0.046 0.271-0.097 0.396-0.15 0.015-0.006 0.033-0.012 0.047-0.018l0.003 1.7c-0.137 0.331-1.756 1.106-4.273 1.106z"></path>
</svg>
