<!-- Generated by IcoMoon.io -->
<svg version="1.1" xmlns="http://www.w3.org/2000/svg" width="32" height="32" viewBox="0 0 32 32">
<path d="M31.788 16.544l-5.706-5.706c-0.262-0.262-0.688-0.262-0.95 0s-0.262 0.688 0 0.95l4.581 4.581h-20.481c-0.369 0-0.669 0.3-0.662 0.656 0 0.369 0.3 0.669 0.669 0.669h20.475l-4.581 4.581c-0.262 0.262-0.262 0.688 0 0.95 0.131 0.137 0.3 0.2 0.475 0.2s0.344-0.069 0.475-0.2l5.706-5.706c0.131-0.119 0.212-0.294 0.212-0.488 0-0.188-0.081-0.363-0.212-0.488zM6.206 16.369h-5.537c-0.369 0-0.662 0.3-0.669 0.669 0 0.369 0.3 0.669 0.669 0.669h5.537c0.369 0 0.669-0.3 0.669-0.669s-0.3-0.669-0.669-0.669z"></path>
</svg>
