<!-- Generated by IcoMoon.io -->
<svg version="1.1" xmlns="http://www.w3.org/2000/svg" width="32" height="32" viewBox="0 0 32 32">
<path d="M27.328 4.672c-3.008-3.008-7.040-4.672-11.328-4.672s-8.32 1.664-11.328 4.672c-3.008 3.008-4.672 7.040-4.672 11.328s1.664 8.32 4.672 11.328 7.040 4.672 11.328 4.672c4.288 0 8.32-1.664 11.328-4.672s4.672-7.040 4.672-11.328-1.664-8.32-4.672-11.328zM16 30.144c-7.808 0-14.144-6.336-14.144-14.144s6.336-14.144 14.144-14.144 14.144 6.336 14.144 14.144-6.336 14.144-14.144 14.144z"></path>
<path d="M23.616 10.88c-0.384-0.384-0.96-0.384-1.344 0l-8.256 8.256-4.352-4.352c-0.384-0.384-0.96-0.384-1.344 0s-0.384 0.96 0 1.344l4.992 4.992c0.192 0.192 0.448 0.256 0.64 0.256 0.256 0 0.448-0.064 0.64-0.256l8.96-8.96c0.448-0.32 0.448-0.896 0.064-1.28z"></path>
</svg>
