<!-- Generated by IcoMoon.io -->
<svg version="1.1" xmlns="http://www.w3.org/2000/svg" width="34" height="32" viewBox="0 0 34 32">
<path d="M33.275 18.422c-0.637-1.976-1.785-3.633-3.378-4.908 1.211-0.701 2.104-1.594 2.422-2.614 0.51-1.594-0.127-3.187-1.53-3.57-0.892-0.319-1.721-0.064-2.231 0.191-0.255-0.51-0.765-1.147-1.721-1.402-0.637-0.319-1.339-0.191-1.976 0.191-0.574 0.382-1.020 1.020-1.275 1.721-0.319 0.956-0.191 2.040 0.255 3.187-1.211-0.064-2.422 0.127-3.57 0.51-0.128 0.064-0.191 0.064-0.319 0.127-0.765-1.785-2.104-3.315-3.761-4.462-1.657-1.084-3.633-1.721-5.61-1.721 0.191-0.382 0.319-0.701 0.382-1.084 0.064-0.255-0.064-0.51-0.319-0.637-0.255-0.064-0.51 0.064-0.637 0.319-0.127 0.51-0.382 1.020-0.701 1.594 0 0 0 0 0 0-0.255 0.446-0.574 0.892-0.956 1.339-0.255 0.319-0.637 0.446-1.020 0.319-2.359-0.51-3.825-1.53-4.271-2.869-0.319-1.084 0.064-2.040 0.892-2.359 0.892-0.255 1.594 0.191 1.785 0.319 0.128 0.127 0.319 0.127 0.51 0.064s0.319-0.191 0.382-0.382c0.064-0.255 0.382-1.020 1.275-1.275 0.829-0.255 1.721 0.319 2.104 1.402 0 0 0 0 0 0.064 0.064 0.255 0.382 0.382 0.637 0.319s0.382-0.382 0.319-0.637c0 0 0-0.064 0-0.064-0.51-1.594-1.976-2.486-3.315-2.040-0.892 0.319-1.402 0.956-1.721 1.402-0.574-0.191-1.339-0.382-2.295-0.064-1.339 0.382-1.976 1.976-1.466 3.57 0.319 1.020 1.084 1.912 2.295 2.55-1.657 1.147-2.996 2.805-3.697 4.717-0.892 2.231-0.956 4.717-0.191 6.948 0.637 2.040 1.912 3.825 3.633 5.1 0.064 0.064 0.191 0.128 0.319 0.128s0.319-0.064 0.382-0.191c0.191-0.191 0.128-0.51-0.128-0.701-1.53-1.147-2.677-2.741-3.251-4.59-1.339-4.080 0.382-8.669 4.016-10.9 0.382 0.127 0.829 0.319 1.275 0.446-1.594 0.765-2.932 2.040-3.825 3.761-1.466 2.614-1.339 5.673 0.255 8.159 1.53 2.486 4.207 4.016 7.139 4.016 1.020 0 1.976-0.191 2.869-0.51 0.064 0.255 0.127 0.574 0.255 0.829 0 0.064 0 0.064 0.064 0.128-0.064 0-0.191 0.064-0.255 0.064-2.295 0.701-4.717 0.574-6.884-0.446-0.255-0.128-0.574 0-0.637 0.255-0.128 0.255 0 0.574 0.255 0.637 1.402 0.637 2.869 0.956 4.398 0.956 1.084 0 2.167-0.191 3.187-0.51 0.127-0.064 0.191-0.064 0.319-0.128 0.956 2.167 2.614 3.952 4.717 5.036 1.466 0.765 3.123 1.147 4.717 1.147 1.084 0 2.167-0.191 3.187-0.51 2.614-0.829 4.781-2.677 6.056-5.163 1.275-2.295 1.466-5.1 0.637-7.777zM24.542 8.351c0.191-0.51 0.446-0.956 0.892-1.211 0.191-0.128 0.446-0.255 0.765-0.255 0.128 0 0.255 0 0.446 0.064 0.892 0.255 1.211 1.084 1.275 1.275s0.191 0.319 0.382 0.382c0.191 0.064 0.319 0 0.51-0.064 0 0 0 0 0 0 0.191-0.127 0.892-0.574 1.785-0.319 0.829 0.255 1.211 1.275 0.892 2.359-0.446 1.339-1.912 2.359-4.143 2.932-0.382 0.064-0.765-0.064-1.020-0.319-1.657-1.849-2.231-3.506-1.785-4.845zM20.526 12.685c1.275-0.382 2.55-0.51 3.825-0.382 0.191 0.382 0.51 0.765 0.765 1.147 0 0-0.064 0-0.064 0-1.53-0.319-3.060-0.191-4.526 0.319-0.064-0.319-0.128-0.574-0.255-0.829 0-0.064 0-0.064 0-0.127 0.064-0.127 0.191-0.127 0.255-0.127zM9.944 6.629c4.207-0.191 8.096 2.422 9.371 6.502 1.211 3.761-0.064 7.904-3.123 10.263-0.064-0.382-0.191-0.765-0.191-1.147 1.912-1.721 2.932-4.207 2.805-6.693 0-0.064 0-0.064 0-0.127-0.064-0.701-0.191-1.402-0.382-2.040 0-0.064-0.064-0.127-0.064-0.191s-0.064-0.064-0.064-0.127c-1.147-3.123-3.952-5.227-7.331-5.418-0.637-0.064-1.211 0-1.785 0.064 0.255-0.382 0.574-0.701 0.765-1.084zM16 20.908c0.064-0.892 0.382-1.849 0.765-2.677 0.255-0.51 0.637-1.020 1.020-1.466-0.128 1.466-0.765 2.932-1.785 4.143zM13.578 18.104c-0.574 1.594-0.701 3.187-0.51 4.845-0.829 0.319-1.785 0.51-2.677 0.51-2.614 0-4.972-1.339-6.311-3.57s-1.466-4.972-0.255-7.267c1.402-2.677 4.080-4.207 7.139-4.016 2.869 0.191 5.291 1.912 6.375 4.59-1.721 1.275-3.060 2.996-3.761 4.908zM31.745 25.88c-1.147 2.231-3.123 3.888-5.482 4.653-2.422 0.765-4.908 0.574-7.139-0.574s-3.888-3.123-4.653-5.482c-1.211-3.761 0.064-7.841 3.123-10.263 0.064 0.382 0.191 0.765 0.191 1.084-0.765 0.701-1.402 1.466-1.849 2.422-1.020 1.976-1.211 4.271-0.51 6.438 0 0.064 0.064 0.128 0.064 0.191 0 0 0 0 0 0.064 1.084 3.187 3.888 5.291 7.203 5.546 0.255 0 0.51 0 0.765 0 3.187 0 5.992-1.721 7.458-4.526 1.020-1.976 1.211-4.271 0.51-6.438-0.128-0.446-0.319-0.892-0.574-1.339-0.128-0.255-0.446-0.319-0.637-0.191-0.255 0.128-0.319 0.446-0.191 0.637 0.191 0.382 0.382 0.765 0.51 1.211 0.574 1.912 0.446 3.888-0.446 5.673-1.402 2.741-4.143 4.271-7.203 4.016-2.869-0.255-5.163-1.976-6.247-4.59 1.657-1.211 2.996-2.932 3.697-4.908 0.574-1.53 0.701-3.187 0.51-4.781 2.805-1.084 6.12-0.319 8.159 1.849 0.128 0.128 0.255 0.128 0.382 0.128s0.255-0.064 0.319-0.128c0.191-0.191 0.191-0.51 0-0.701-0.574-0.574-1.147-1.084-1.849-1.466 0.446-0.127 0.829-0.255 1.211-0.382 1.657 1.211 2.805 2.805 3.442 4.781 0.574 2.295 0.382 4.845-0.765 7.076z"></path>
</svg>
