<!-- Generated by IcoMoon.io -->
<svg version="1.1" xmlns="http://www.w3.org/2000/svg" width="32" height="32" viewBox="0 0 32 32">
<path d="M31.82 1.049c-0.034-0.275-0.251-0.492-0.526-0.526-2.48-0.307-5.038-0.039-7.4 0.773s-4.545 2.175-6.311 3.941l-4.031 4.031-5.818 0.75c-0.133 0.017-0.256 0.078-0.35 0.172l-5.61 5.61c-0.159 0.159-0.217 0.393-0.15 0.607s0.247 0.374 0.467 0.415l4.241 0.786 0.833 0.833-1.774 0.961c-0.168 0.091-0.283 0.256-0.311 0.445s0.036 0.38 0.171 0.515l6.729 6.729c0.114 0.114 0.268 0.177 0.428 0.177 0.029 0 0.058-0.002 0.087-0.006 0.189-0.027 0.354-0.143 0.445-0.311l0.961-1.774 0.833 0.833 0.786 4.241c0.041 0.221 0.201 0.401 0.415 0.467 0.059 0.018 0.119 0.027 0.179 0.027 0.158 0 0.313-0.062 0.428-0.177l5.61-5.61c0.095-0.095 0.155-0.218 0.172-0.35l0.75-5.818 4.031-4.031c1.766-1.766 3.129-3.948 3.941-6.311s1.079-4.921 0.773-7.4zM6.425 16.396l-2.983-0.552 4.651-4.651 4.059-0.523-5.727 5.727zM12.263 25.662l-5.582-5.582 1.378-0.746 4.95 4.95-0.746 1.378zM21.151 24.25l-4.651 4.651-0.553-2.983 5.727-5.727-0.523 4.059zM26.25 13.905l-10.955 10.955-7.812-7.812 10.955-10.955c1.592-1.592 3.548-2.829 5.668-3.588 0.274 1.411 0.963 2.719 1.988 3.744s2.333 1.714 3.744 1.988c-0.759 2.12-1.996 4.076-3.588 5.668zM30.202 7.075c-1.226-0.209-2.366-0.795-3.253-1.681s-1.472-2.026-1.681-3.252c1.753-0.472 3.595-0.634 5.402-0.468 0.165 1.807 0.004 3.649-0.468 5.402zM17.848 9.306c-1.431 1.431-1.431 3.758 0 5.189 0.715 0.715 1.655 1.073 2.595 1.073s1.879-0.358 2.594-1.073h0c1.431-1.431 1.431-3.758-0-5.189s-3.758-1.431-5.189 0zM22.182 13.64c-0.959 0.959-2.52 0.959-3.478 0s-0.959-2.519 0-3.478c0.479-0.479 1.109-0.719 1.739-0.719s1.26 0.24 1.739 0.719c0.959 0.959 0.959 2.519 0 3.478zM7.932 24.525c-0.236-0.236-0.619-0.236-0.855 0l-5.189 5.189c-0.236 0.236-0.236 0.619 0 0.855 0.118 0.118 0.273 0.177 0.428 0.177s0.31-0.059 0.428-0.177l5.189-5.189c0.236-0.236 0.236-0.619 0-0.855zM8.73 26.179l-2.338 2.338c-0.236 0.236-0.236 0.619 0 0.855 0.118 0.118 0.273 0.177 0.428 0.177s0.31-0.059 0.428-0.177l2.338-2.338c0.236-0.236 0.236-0.619 0-0.855s-0.619-0.236-0.855 0zM5.574 29.585c-0.253 0-0.484 0.163-0.569 0.401-0.087 0.242-0.006 0.519 0.195 0.679 0.205 0.163 0.505 0.172 0.72 0.021 0.229-0.16 0.322-0.469 0.213-0.728-0.090-0.224-0.318-0.373-0.558-0.373zM6.132 29.959c0.015 0.036-0.014-0.036 0 0v0zM3.864 31.046l-0.322 0.322c-0.236 0.236-0.236 0.619-0 0.855 0.118 0.118 0.273 0.177 0.428 0.177s0.31-0.059 0.428-0.177l0.322-0.322c0.236-0.236 0.236-0.619 0-0.855s-0.619-0.236-0.855-0zM3.427 25.722c-0.236-0.236-0.619-0.236-0.855 0l-2.338 2.338c-0.236 0.236-0.236 0.619 0 0.855 0.118 0.118 0.273 0.177 0.428 0.177s0.31-0.059 0.428-0.177l2.338-2.338c0.236-0.236 0.236-0.619-0-0.855zM4.393 25.49c0.245-0.062 0.43-0.276 0.455-0.527 0.025-0.246-0.11-0.488-0.33-0.599-0.233-0.118-0.526-0.069-0.707 0.12-0.194 0.203-0.222 0.518-0.069 0.753-0.005-0.007-0.009-0.013 0.001 0.002s0.007 0.010 0.002 0.002c0.143 0.207 0.403 0.31 0.648 0.248zM5.957 24.049l0.322-0.322c0.236-0.236 0.236-0.619-0-0.855s-0.619-0.236-0.855 0l-0.322 0.322c-0.236 0.236-0.236 0.619 0 0.855 0.118 0.118 0.273 0.177 0.428 0.177s0.31-0.059 0.428-0.177z"></path>
</svg>
