<!-- Generated by IcoMoon.io -->
<svg version="1.1" xmlns="http://www.w3.org/2000/svg" width="32" height="32" viewBox="0 0 32 32">
<path d="M21.6 14.4c-2.206 0-4-1.794-4-4s1.794-4 4-4 4 1.794 4 4-1.794 4-4 4zM21.6 8c-1.323 0-2.4 1.077-2.4 2.4s1.077 2.4 2.4 2.4 2.4-1.077 2.4-2.4-1.077-2.4-2.4-2.4zM0.8 32c-0.209 0-0.413-0.082-0.566-0.234-0.22-0.22-0.292-0.547-0.186-0.839 2.462-6.77 5.050-10.203 7.694-10.203 0.871 0 1.687 0.374 2.424 1.111 1.165 1.165 1.207 2.325 1.036 3.093-0.535 2.412-3.943 4.776-10.129 7.025-0.089 0.032-0.182 0.048-0.273 0.048zM7.742 22.324c-0.792 0-1.725 0.694-2.696 2.007-0.956 1.292-1.915 3.131-2.86 5.484 2.136-0.859 3.853-1.731 5.119-2.6 1.708-1.173 2.213-2.080 2.336-2.634 0.123-0.556-0.075-1.084-0.606-1.615-0.432-0.432-0.855-0.642-1.293-0.642zM31.2 0c-4.152 0-7.852 0.704-10.998 2.093-2.594 1.145-4.815 2.752-6.602 4.778-0.334 0.378-0.642 0.76-0.928 1.143-1.379 0.092-2.79 0.64-4.199 1.632-1.192 0.839-2.389 2-3.56 3.452-1.968 2.439-3.178 4.843-3.229 4.945-0.175 0.35-0.070 0.775 0.247 1.005 0.141 0.102 0.305 0.152 0.469 0.152 0.205 0 0.41-0.079 0.564-0.232 0.008-0.008 0.772-0.759 2.077-1.498 1.075-0.609 2.733-1.323 4.738-1.45 0.507 1.298 1.958 2.849 2.655 3.546s2.248 2.148 3.546 2.655c-0.126 2.005-0.841 3.663-1.449 4.738-0.738 1.305-1.49 2.070-1.497 2.076-0.277 0.277-0.313 0.715-0.083 1.033 0.155 0.215 0.399 0.332 0.649 0.332 0.121 0 0.243-0.027 0.357-0.084 0.101-0.051 2.505-1.261 4.945-3.229 1.451-1.171 2.613-2.369 3.452-3.56 0.992-1.409 1.54-2.819 1.632-4.199 0.383-0.286 0.765-0.594 1.143-0.928 2.025-1.787 3.633-4.008 4.778-6.602 1.389-3.146 2.093-6.847 2.093-10.998v-0.8h-0.8zM4.972 15.693c1.525-2.213 3.856-4.956 6.483-5.82-1.038 1.819-1.576 3.49-1.769 4.549-1.854 0.113-3.452 0.653-4.714 1.271zM16.308 27.024c0.618-1.261 1.156-2.858 1.269-4.71 1.058-0.193 2.729-0.731 4.548-1.769-0.864 2.622-3.606 4.953-5.817 6.479zM24.071 17.2c-3.328 2.936-6.775 3.6-7.271 3.6-0.003 0-0.331-0.007-1.215-0.629-0.617-0.434-1.334-1.051-2.020-1.736s-1.303-1.403-1.736-2.020c-0.622-0.884-0.629-1.211-0.629-1.215 0-0.496 0.664-3.943 3.6-7.271 3.513-3.981 8.892-6.158 15.59-6.32-0.162 6.699-2.338 12.077-6.32 15.59z"></path>
</svg>
