<!-- Generated by IcoMoon.io -->
<svg version="1.1" xmlns="http://www.w3.org/2000/svg" width="32" height="32" viewBox="0 0 32 32">
<path d="M16 0.4c-1.197 0-2.17 0.974-2.17 2.17v5.399c0 1.196 0.974 2.17 2.17 2.17s2.17-0.974 2.17-2.17v-5.399c0-1.196-0.974-2.17-2.17-2.17zM16.93 7.97c0 0.513-0.417 0.93-0.93 0.93s-0.93-0.417-0.93-0.93v-5.399c0-0.513 0.417-0.93 0.93-0.93s0.93 0.417 0.93 0.93v5.399zM11.573 8.904l-3.818-3.818c-0.846-0.846-2.223-0.846-3.069 0-0.41 0.41-0.636 0.955-0.636 1.535s0.226 1.125 0.636 1.534l3.818 3.818c0.423 0.423 0.979 0.635 1.534 0.635s1.111-0.212 1.534-0.635c0.846-0.846 0.846-2.223 0-3.069zM10.696 11.097c-0.363 0.363-0.952 0.363-1.315 0l-3.818-3.818c-0.176-0.175-0.272-0.409-0.272-0.657s0.097-0.482 0.272-0.658c0.181-0.181 0.42-0.272 0.658-0.272s0.477 0.091 0.658 0.272l3.818 3.818c0.363 0.363 0.363 0.953 0 1.316zM7.57 14.23h-5.399c-1.196 0-2.17 0.974-2.17 2.17s0.974 2.17 2.17 2.17h5.399c1.197 0 2.17-0.974 2.17-2.17s-0.974-2.17-2.17-2.17zM7.57 17.33h-5.399c-0.513 0-0.93-0.417-0.93-0.93s0.417-0.93 0.93-0.93h5.399c0.513 0 0.93 0.417 0.93 0.93s-0.417 0.93-0.93 0.93zM11.573 20.827c-0.819-0.82-2.249-0.82-3.069 0l-3.818 3.818c-0.41 0.41-0.636 0.955-0.636 1.535s0.226 1.125 0.636 1.535c0.423 0.423 0.979 0.635 1.534 0.635s1.111-0.212 1.535-0.635l3.818-3.818c0.846-0.846 0.846-2.223 0-3.069zM10.696 23.019l-3.818 3.818c-0.363 0.363-0.953 0.363-1.315 0-0.176-0.176-0.272-0.409-0.272-0.658s0.097-0.482 0.272-0.658l3.818-3.818c0.175-0.176 0.409-0.273 0.657-0.273s0.482 0.097 0.657 0.273h0c0.363 0.363 0.363 0.953-0 1.315zM16 22.66c-1.197 0-2.17 0.974-2.17 2.17v5.399c0 1.197 0.974 2.17 2.17 2.17s2.17-0.974 2.17-2.17v-5.399c0-1.196-0.974-2.17-2.17-2.17zM16.93 30.23c0 0.513-0.417 0.93-0.93 0.93s-0.93-0.417-0.93-0.93v-5.399c0-0.513 0.417-0.93 0.93-0.93s0.93 0.417 0.93 0.93v5.399zM27.313 24.645l-3.818-3.818c-0.82-0.82-2.25-0.819-3.069 0-0.846 0.846-0.846 2.223 0 3.069l3.818 3.818c0.41 0.41 0.955 0.635 1.534 0.635s1.125-0.226 1.534-0.635c0.41-0.41 0.636-0.955 0.636-1.535s-0.226-1.125-0.636-1.534zM26.437 26.837c-0.351 0.351-0.963 0.352-1.315 0l-3.818-3.818c-0.363-0.363-0.363-0.953 0-1.315v-0c0.176-0.176 0.409-0.272 0.658-0.272s0.482 0.097 0.658 0.273l3.818 3.818c0.176 0.175 0.273 0.409 0.273 0.657s-0.097 0.482-0.272 0.658zM29.83 14.23h-5.399c-1.197 0-2.17 0.974-2.17 2.17s0.974 2.17 2.17 2.17h5.399c1.197 0 2.17-0.974 2.17-2.17s-0.974-2.17-2.17-2.17zM29.83 17.33h-5.399c-0.513 0-0.93-0.417-0.93-0.93s0.417-0.93 0.93-0.93h5.399c0.513 0 0.93 0.417 0.93 0.93s-0.417 0.93-0.93 0.93zM27.313 5.086c-0.818-0.819-2.248-0.82-3.069 0l-3.818 3.818c-0.846 0.846-0.846 2.223 0 3.069 0.409 0.41 0.954 0.635 1.534 0.635s1.124-0.226 1.534-0.635l3.818-3.818c0.41-0.41 0.636-0.955 0.636-1.535s-0.226-1.125-0.636-1.535zM26.437 7.279l-3.818 3.818c-0.351 0.352-0.965 0.351-1.315 0-0.363-0.363-0.363-0.953 0-1.315l3.818-3.818c0.176-0.176 0.409-0.272 0.658-0.272s0.482 0.097 0.658 0.272c0.176 0.176 0.273 0.409 0.273 0.658s-0.097 0.482-0.272 0.658z"></path>
</svg>
