<!-- Generated by IcoMoon.io -->
<svg version="1.1" xmlns="http://www.w3.org/2000/svg" width="32" height="32" viewBox="0 0 32 32">
<path d="M0.938 7.5c12.992 0 23.563 10.57 23.563 23.563v0.938h7.5v-0.938c0-8.456-3.423-16.238-9.124-21.939s-13.482-9.124-21.939-9.124h-0.938v7.5zM1.875 1.89c15.351 0.486 27.749 12.884 28.235 28.235h-3.752c-0.233-6.381-2.88-12.445-7.459-17.024-4.57-4.569-10.629-7.226-17.024-7.459z"></path>
<path d="M13.25 31.063v0.938h7.5v-0.938c0-5.261-2.104-10.259-5.829-13.984-3.72-3.72-8.716-5.829-13.984-5.829h-0.938v7.5h0.938c6.674 0 12.313 5.638 12.313 12.313zM1.875 13.149c9.146 0.473 16.502 7.83 16.976 16.976h-3.757c-0.226-3.407-1.679-6.598-4.15-9.069s-5.662-3.925-9.069-4.15z"></path>
<path d="M4.75 32c2.581 0 4.75-2.149 4.75-4.75 0-2.581-2.149-4.75-4.75-4.75-2.581 0-4.75 2.149-4.75 4.75 0 2.581 2.149 4.75 4.75 4.75zM4.75 24.375c1.558 0 2.875 1.317 2.875 2.875s-1.317 2.875-2.875 2.875-2.875-1.317-2.875-2.875 1.317-2.875 2.875-2.875z"></path>
</svg>
