<!-- Generated by IcoMoon.io -->
<svg version="1.1" xmlns="http://www.w3.org/2000/svg" width="32" height="32" viewBox="0 0 32 32">
<path d="M4.496 23.409c-2.479 0-4.496 2.017-4.496 4.496s2.017 4.496 4.496 4.496c2.479 0 4.496-2.017 4.496-4.496s-2.017-4.496-4.496-4.496zM4.496 30.514c-1.439 0-2.609-1.171-2.609-2.609s1.171-2.609 2.609-2.609c1.439 0 2.609 1.171 2.609 2.609s-1.171 2.609-2.609 2.609zM21.606 29.58c-0.917-4.624-3.17-8.843-6.516-12.202-3.369-3.383-7.612-5.659-12.269-6.583-0.696-0.138-1.41 0.041-1.959 0.491-0.547 0.449-0.861 1.113-0.861 1.822v2.328c0 1.112 0.759 2.058 1.845 2.301 3.129 0.699 5.987 2.273 8.267 4.552s3.854 5.139 4.552 8.266c0.243 1.086 1.189 1.845 2.301 1.845h2.328c0.708 0 1.372-0.314 1.822-0.861s0.629-1.262 0.491-1.958zM19.657 30.341c-0.053 0.064-0.17 0.172-0.364 0.172h-2.328c-0.222 0-0.411-0.152-0.46-0.37-0.776-3.478-2.526-6.656-5.060-9.189s-5.711-4.282-9.189-5.059c-0.218-0.049-0.369-0.238-0.369-0.46v-2.328c0-0.194 0.108-0.311 0.172-0.364 0.054-0.044 0.156-0.108 0.298-0.108 0.030 0 0.063 0.003 0.096 0.010 4.289 0.851 8.196 2.948 11.3 6.064 3.082 3.094 5.157 6.98 6.002 11.238 0.038 0.192-0.046 0.329-0.099 0.394zM31.98 29.737c-0.491-3.71-1.582-7.289-3.245-10.638-1.621-3.265-3.747-6.239-6.318-8.84-2.617-2.647-5.625-4.836-8.939-6.505-3.399-1.712-7.037-2.834-10.812-3.334-0.671-0.089-1.349 0.116-1.859 0.563-0.512 0.448-0.805 1.095-0.805 1.775v2.303c0 1.163 0.873 2.165 2.030 2.331 5.742 0.823 10.976 3.419 15.134 7.505 2.087 2.052 3.82 4.408 5.149 7.003 1.362 2.659 2.268 5.508 2.692 8.466 0.166 1.159 1.17 2.032 2.335 2.032h2.3c0.68 0 1.327-0.293 1.775-0.805 0.447-0.51 0.652-1.187 0.564-1.858zM29.998 30.351c-0.053 0.060-0.17 0.162-0.357 0.162h-2.3c-0.237 0-0.434-0.174-0.468-0.414-0.454-3.165-1.423-6.213-2.88-9.058-1.422-2.775-3.274-5.295-5.506-7.489-4.448-4.37-10.046-7.146-16.189-8.027-0.238-0.034-0.411-0.229-0.411-0.464v-2.303c0-0.187 0.101-0.304 0.162-0.356 0.052-0.046 0.157-0.116 0.305-0.116 0.020 0 0.042 0.001 0.064 0.004 3.566 0.473 7.002 1.532 10.212 3.149 3.131 1.577 5.973 3.645 8.446 6.147 2.43 2.458 4.439 5.268 5.97 8.352 1.57 3.163 2.601 6.543 3.064 10.047 0.024 0.181-0.060 0.308-0.112 0.367z"></path>
</svg>
