<!-- Generated by IcoMoon.io -->
<svg version="1.1" xmlns="http://www.w3.org/2000/svg" width="32" height="32" viewBox="0 0 32 32">
<path d="M15.2 32c-4.060 0-7.877-1.581-10.748-4.452s-4.452-6.688-4.452-10.748c0-4.060 1.581-7.877 4.452-10.748s6.688-4.452 10.748-4.452c4.060 0 7.877 1.581 10.748 4.452s4.452 6.688 4.452 10.748-1.581 7.877-4.452 10.748c-2.871 2.871-6.688 4.452-10.748 4.452zM15.2 3.2c-7.499 0-13.6 6.101-13.6 13.6s6.101 13.6 13.6 13.6 13.6-6.101 13.6-13.6-6.101-13.6-13.6-13.6zM10.4 12.8c-1.323 0-2.4-1.077-2.4-2.4s1.077-2.4 2.4-2.4 2.4 1.077 2.4 2.4-1.077 2.4-2.4 2.4zM10.4 9.6c-0.441 0-0.8 0.359-0.8 0.8s0.359 0.8 0.8 0.8 0.8-0.359 0.8-0.8-0.359-0.8-0.8-0.8zM20 12.8c-1.323 0-2.4-1.077-2.4-2.4s1.077-2.4 2.4-2.4 2.4 1.077 2.4 2.4-1.077 2.4-2.4 2.4zM20 9.6c-0.441 0-0.8 0.359-0.8 0.8s0.359 0.8 0.8 0.8 0.8-0.359 0.8-0.8-0.359-0.8-0.8-0.8zM8.799 24c-0.167 0-0.336-0.052-0.48-0.16-0.353-0.265-0.425-0.767-0.159-1.12 0.803-1.069 1.854-1.954 3.042-2.561 1.246-0.636 2.591-0.959 3.998-0.959s2.753 0.323 3.998 0.959c1.187 0.607 2.239 1.492 3.042 2.561 0.265 0.353 0.194 0.855-0.159 1.12s-0.855 0.194-1.12-0.159c-1.375-1.831-3.475-2.88-5.761-2.88s-4.386 1.050-5.761 2.88c-0.157 0.209-0.397 0.32-0.64 0.32z"></path>
</svg>
