<!-- Generated by IcoMoon.io -->
<svg version="1.1" xmlns="http://www.w3.org/2000/svg" width="32" height="32" viewBox="0 0 32 32">
<path d="M30.125 22.724v-2.974c0-3.087-0.995-6.021-2.878-8.485-1.671-2.187-3.982-3.864-6.563-4.778-0.072-1.487-1.304-2.675-2.809-2.675h-3.75c-1.505 0-2.737 1.188-2.809 2.675-2.58 0.913-4.891 2.591-6.563 4.778-1.883 2.464-2.878 5.398-2.878 8.485v2.974c-1.091 0.387-1.875 1.429-1.875 2.651 0 1.551 1.262 2.813 2.813 2.813h26.375c1.551 0 2.813-1.262 2.813-2.813 0-1.222-0.784-2.264-1.875-2.651zM3.75 19.75c0-3.381 1.444-6.546 3.813-8.803v3.178c0 0.518 0.42 0.938 0.938 0.938s0.938-0.42 0.938-0.938v-4.649c0.591-0.377 1.217-0.706 1.875-0.98v7.504c0 0.518 0.42 0.938 0.938 0.938s0.938-0.42 0.938-0.938v-8.817c0-0.003 0-0.005 0-0.008v-0.551c0-0.517 0.421-0.938 0.938-0.938h3.75c0.517 0 0.938 0.421 0.938 0.938v0.55c0 0.003-0 0.005 0 0.008v8.817c0 0.518 0.42 0.938 0.938 0.938s0.938-0.42 0.938-0.938v-7.504c0.658 0.274 1.284 0.603 1.875 0.98v4.649c0 0.518 0.42 0.938 0.938 0.938s0.938-0.42 0.938-0.938v-3.178c2.368 2.258 3.813 5.423 3.813 8.803v2.813h-24.5v-2.813zM29.188 26.313h-26.375c-0.517 0-0.938-0.421-0.938-0.938s0.421-0.938 0.938-0.938h26.375c0.517 0 0.938 0.421 0.938 0.938s-0.421 0.938-0.938 0.938z"></path>
</svg>
