<!-- Generated by IcoMoon.io -->
<svg version="1.1" xmlns="http://www.w3.org/2000/svg" width="36" height="32" viewBox="0 0 36 32">
<path d="M33.524 11.365v-0.571c0 0 0 0 0-0.063s0-0.127-0.063-0.19c0 0 0-0.063 0-0.063 0-0.063-0.063-0.127-0.127-0.19v0l-7.746-7.746c-0.127-0.127-0.254-0.19-0.444-0.19h-2.413v-1.778c0-0.317-0.254-0.571-0.571-0.571h-2.984c-0.317 0-0.571 0.254-0.571 0.571v1.778h-8.444c0 0 0 0 0 0-0.063 0-0.127 0-0.19 0.063 0 0-0.063 0-0.063 0-0.063 0-0.127 0.063-0.127 0.127 0 0 0 0 0 0l-7.238 7.81 0.889 0.825 6.794-7.302 7.175 7.175v10.54h-4.19v-7.238c0-0.317-0.254-0.571-0.571-0.571h-4.19c-0.317 0-0.571 0.254-0.571 0.571v4.19h1.206v-3.619h2.984v6.667h-0.571v1.206h13.206v-1.206h-5.968v-10.159h14.794zM19.746 1.206h1.841v3.619h-1.778v-3.619zM18.222 10.159l-6.603-6.54h6.921v1.778c0 0.317 0.254 0.571 0.571 0.571h2.984c0.317 0 0.571-0.254 0.571-0.571v-1.778h2.159l6.667 6.54h-13.27z"></path>
<path d="M20.952 13.778c-0.317 0-0.571 0.254-0.571 0.571v2.984c0 0.317 0.254 0.571 0.571 0.571h2.984c0.317 0 0.571-0.254 0.571-0.571v-2.984c0-0.317-0.254-0.571-0.571-0.571h-2.984zM23.365 16.762h-1.778v-1.778h1.778v1.778z"></path>
<path d="M26.984 13.778c-0.317 0-0.571 0.254-0.571 0.571v2.984c0 0.317 0.254 0.571 0.571 0.571h2.984c0.317 0 0.571-0.254 0.571-0.571v-2.984c0-0.317-0.254-0.571-0.571-0.571h-2.984zM29.333 16.762h-1.778v-1.778h1.778v1.778z"></path>
<path d="M0 21.016c0 0.825 0.19 1.651 0.571 2.413l4.317 8.571 1.079-0.508-4.317-8.571c-0.317-0.571-0.444-1.206-0.444-1.905v-6.984c0-0.508 0.381-0.889 0.889-0.889s0.889 0.381 0.889 0.889v6.921c0 0.127 0.063 0.254 0.127 0.381l0.762 0.889 2.857 3.302c0.254 0.254 0.635 0.254 0.825 0.064 0.254-0.19 0.254-0.571 0.064-0.825l-2.857-3.302c-0.317-0.381-0.254-0.889 0.127-1.206s0.889-0.254 1.206 0.127l2.984 3.429c0 0 0.063 0.064 0.063 0.064 1.333 1.016 2.159 2.603 2.159 4.317v3.556h1.206v-3.619c0-2.032-0.952-4-2.603-5.206l-2.984-3.365c-0.444-0.444-1.016-0.698-1.651-0.698-0.444 0-0.889 0.19-1.206 0.444v-5.206c0-1.143-0.952-2.095-2.095-2.095s-1.968 0.889-1.968 2.095v6.921z"></path>
<path d="M33.841 12c-1.143 0-2.095 0.952-2.095 2.095v5.206c-0.317-0.254-0.762-0.444-1.206-0.444-0.635 0-1.206 0.254-1.651 0.698l-2.984 3.365c-1.651 1.27-2.603 3.175-2.603 5.206v3.619h1.206v-3.619c0-1.714 0.825-3.302 2.159-4.317 0.064 0 0.064-0.064 0.064-0.064l2.984-3.429c0.19-0.19 0.444-0.317 0.698-0.317 0.508 0 0.825 0.444 0.825 0.889 0 0.19-0.064 0.381-0.19 0.508l-2.73 3.365c-0.19 0.254-0.19 0.635 0.127 0.825 0.254 0.19 0.571 0.19 0.825-0.064l2.857-3.302 0.762-0.889c0.063-0.127 0.127-0.254 0.127-0.381v-6.857c0-0.508 0.381-0.889 0.889-0.889s0.889 0.381 0.889 0.889v6.984c0 0.635-0.127 1.27-0.444 1.905l-4.317 8.571 1.079 0.508 4.317-8.571c0.381-0.762 0.571-1.587 0.571-2.413v-6.984c-0.063-1.206-1.016-2.095-2.159-2.095z"></path>
</svg>
