<!-- Generated by IcoMoon.io -->
<svg version="1.1" xmlns="http://www.w3.org/2000/svg" width="32" height="32" viewBox="0 0 32 32">
<path d="M29.714 0.4h-27.429c-1.26 0-2.286 1.025-2.286 2.286v27.429c0 1.26 1.025 2.286 2.286 2.286h27.429c1.26 0 2.286-1.025 2.286-2.286v-27.429c0-1.26-1.025-2.286-2.286-2.286zM1.524 9.374h3.612v1.473h-3.612v-1.473zM1.524 12.371h2.171v8.058h-2.171v-8.058zM1.524 21.953h3.612v1.473h-3.612v-1.473zM30.476 30.114c0 0.42-0.342 0.762-0.762 0.762h-27.429c-0.42 0-0.762-0.342-0.762-0.762v-5.164h2.171v2.65c0 0.609 0.496 1.105 1.105 1.105h22.4c0.609 0 1.105-0.496 1.105-1.105v-22.4c0-0.609-0.496-1.105-1.105-1.105h-22.4c-0.609 0-1.105 0.496-1.105 1.105v2.65h-2.171v-5.164c0-0.42 0.342-0.762 0.762-0.762h27.429c0.42 0 0.762 0.342 0.762 0.762v27.429zM5.897 20.429h-0.754v-8.058h0.754c0.421 0 0.762-0.341 0.762-0.762v-2.997c0-0.421-0.341-0.762-0.762-0.762h-0.754v-2.307h21.714v21.714h-21.714v-2.307h0.754c0.421 0 0.762-0.341 0.762-0.762v-2.997c0-0.421-0.341-0.762-0.762-0.762zM21.28 11.12c-2.911-2.911-7.648-2.911-10.559 0s-2.911 7.648 0 10.56c1.456 1.456 3.368 2.183 5.28 2.183s3.824-0.728 5.28-2.183c2.911-2.911 2.911-7.648 0-10.56zM22.052 15.714l-1.912 0c-0.104-0.636-0.352-1.234-0.728-1.757l1.354-1.354c0.733 0.918 1.161 2.001 1.286 3.111zM16.686 10.348c1.111 0.125 2.193 0.553 3.111 1.286l-1.354 1.354c-0.523-0.376-1.121-0.624-1.757-0.728v-1.912zM15.314 10.348v1.912c-0.636 0.104-1.234 0.352-1.757 0.728l-1.354-1.354c0.918-0.733 2.001-1.161 3.111-1.286zM11.233 12.603l1.354 1.354c-0.376 0.523-0.624 1.121-0.728 1.757h-1.912c0.125-1.111 0.553-2.193 1.286-3.111zM9.948 17.086h1.912c0.104 0.636 0.352 1.234 0.728 1.757l-1.354 1.354c-0.733-0.918-1.161-2.001-1.286-3.111zM15.314 22.453c-1.111-0.125-2.193-0.553-3.111-1.286l1.354-1.354c0.523 0.376 1.121 0.624 1.757 0.728v1.912zM14.002 18.398c-0.534-0.534-0.828-1.243-0.828-1.998s0.294-1.464 0.828-1.998c0.534-0.534 1.243-0.828 1.998-0.828s1.464 0.294 1.998 0.828c0.534 0.534 0.828 1.243 0.828 1.998s-0.294 1.464-0.828 1.998c-0.534 0.534-1.243 0.828-1.998 0.828s-1.464-0.294-1.998-0.828zM16.686 22.453v-1.912c0.636-0.104 1.234-0.352 1.757-0.728l1.354 1.354c-0.918 0.733-2.001 1.161-3.111 1.286zM20.767 20.197l-1.354-1.354c0.376-0.523 0.624-1.121 0.728-1.757h1.912c-0.125 1.111-0.553 2.193-1.286 3.111z"></path>
</svg>
