<!-- Generated by IcoMoon.io -->
<svg version="1.1" xmlns="http://www.w3.org/2000/svg" width="32" height="32" viewBox="0 0 32 32">
<path d="M31.374 0.839h-29.537c-0.346 0-0.626 0.28-0.626 0.626v4.408h-0.586c-0.346 0-0.626 0.28-0.626 0.626v3.2c0 0.346 0.28 0.626 0.626 0.626h0.586v12.15h-0.586c-0.346 0-0.626 0.28-0.626 0.626v3.2c0 0.346 0.28 0.626 0.626 0.626h0.586v4.408c0 0.346 0.28 0.626 0.626 0.626h29.537c0.346 0 0.626-0.28 0.626-0.626v-29.871c0-0.345-0.28-0.626-0.626-0.626zM1.252 7.124h3.424v1.949h-3.424v-1.949zM3.464 10.325v12.15h-1.001v-12.15h1.001zM1.252 25.675v-1.949h3.424v1.949h-3.424zM30.748 30.709h-28.285v-3.782h1.001v2.155c0 0.346 0.28 0.626 0.626 0.626h25.031c0.346 0 0.626-0.28 0.626-0.626v-25.365c0-0.346-0.28-0.626-0.626-0.626h-25.031c-0.346 0-0.626 0.28-0.626 0.626v2.155h-1.001v-3.782h28.285v28.619zM5.301 22.475h-0.585v-12.15h0.585c0.346 0 0.626-0.28 0.626-0.626v-3.2c0-0.346-0.28-0.626-0.626-0.626h-0.585v-1.53h23.78v24.113h-23.78v-1.53h0.585c0.346 0 0.626-0.28 0.626-0.626v-3.2c0-0.346-0.28-0.626-0.626-0.626zM16.606 22.696c3.471 0 6.296-2.824 6.296-6.296s-2.824-6.296-6.296-6.296c-3.471 0-6.296 2.824-6.296 6.296s2.824 6.296 6.296 6.296zM15.98 21.404c-0.923-0.115-1.769-0.479-2.469-1.025l1.386-1.386c0.324 0.214 0.69 0.37 1.083 0.45v1.96zM17.232 21.404v-1.96h-0c0.393-0.081 0.759-0.236 1.083-0.45l1.386 1.386c-0.699 0.545-1.545 0.91-2.468 1.025zM20.585 19.494l-1.386-1.386c0.214-0.324 0.37-0.69 0.45-1.083h1.96c-0.115 0.923-0.479 1.769-1.025 2.468zM21.609 15.774h-1.96c-0.081-0.393-0.236-0.759-0.45-1.083l1.386-1.386c0.545 0.7 0.91 1.545 1.025 2.468zM17.232 11.396c0.923 0.115 1.769 0.479 2.468 1.025l-1.386 1.386c-0.324-0.214-0.69-0.37-1.083-0.45v-1.96zM18.461 16.4c0 1.023-0.833 1.856-1.856 1.856s-1.856-0.832-1.856-1.856 0.832-1.856 1.856-1.856 1.856 0.833 1.856 1.856zM15.98 11.396v1.96c-0.393 0.081-0.759 0.236-1.083 0.45l-1.386-1.386c0.7-0.545 1.546-0.91 2.469-1.025zM12.627 13.306l1.386 1.386c-0.214 0.324-0.37 0.69-0.45 1.083h-1.96c0.115-0.923 0.479-1.769 1.025-2.469zM13.562 17.026v0c0.081 0.393 0.236 0.759 0.451 1.083l-1.386 1.386c-0.545-0.7-0.91-1.546-1.025-2.469h1.96z"></path>
</svg>
