<!-- Generated by IcoMoon.io -->
<svg version="1.1" xmlns="http://www.w3.org/2000/svg" width="32" height="32" viewBox="0 0 32 32">
<path d="M31.582 0.417c-0.002-0.002-0.003-0.003-0.005-0.004-0.265-0.262-0.629-0.413-1.002-0.413h-0.002c-0.322 0-0.637 0.111-0.887 0.311-3.403 2.718-6.819 5.524-10.152 8.339-0.811 0.684-1.622 1.374-2.433 2.068l-9.255-9.255c-0.914-0.914-2.401-0.914-3.315 0l-4.395 4.396c-0.183 0.183-0.183 0.48 0 0.663s0.48 0.183 0.663 0l3.070-3.070 0.671 0.671-3.070 3.070c-0.183 0.183-0.183 0.48 0 0.663 0.091 0.091 0.212 0.137 0.331 0.137s0.24-0.046 0.331-0.137l3.070-3.070 0.671 0.671-3.070 3.070c-0.183 0.183-0.183 0.48 0 0.663 0.091 0.091 0.212 0.137 0.331 0.137s0.24-0.046 0.331-0.137l3.070-3.070 0.671 0.671-3.070 3.070c-0.183 0.183-0.183 0.48 0 0.663 0.091 0.091 0.212 0.137 0.331 0.137s0.24-0.046 0.331-0.137l3.070-3.070 0.671 0.671-3.070 3.070c-0.183 0.183-0.183 0.48 0 0.663 0.091 0.091 0.212 0.137 0.331 0.137s0.24-0.046 0.331-0.137l3.070-3.070 0.671 0.671-3.070 3.070c-0.183 0.183-0.183 0.48 0 0.663 0.091 0.091 0.212 0.137 0.331 0.137s0.24-0.046 0.331-0.137l3.070-3.070 0.671 0.671-3.070 3.070c-0.183 0.183-0.183 0.48 0 0.663 0.091 0.091 0.211 0.137 0.331 0.137s0.24-0.046 0.331-0.137l3.070-3.070 0.671 0.671-3.070 3.070c-0.183 0.183-0.183 0.48 0 0.663 0.091 0.091 0.211 0.137 0.331 0.137s0.24-0.046 0.331-0.137l3.070-3.070 0.694 0.694c-1.439 1.253-2.871 2.514-4.287 3.777-0.001 0-0.001 0-0.001 0.001-0.421 0.374-0.879 0.805-1.332 1.213-0.277 0.201-0.224 0.553-0.087 0.691 0 0 0 0.001 0.001 0.001 0.451 0.546 0.701 1.244 0.701 1.965 0 0.843-0.324 1.632-0.914 2.221-0.006 0.006-1.408 1.408-1.414 1.414-2.038 2.086-5.628 0.663-5.63-2.292 0.001-1.794 1.45-3.275 3.28-3.276 0.997 0.001 1.927 0.444 2.553 1.216 0.17 0.209 0.481 0.232 0.679 0.052 0.003-0.002 0.004-0.004 0.007-0.006l0.004-0.004c0.22-0.197 0.204-0.553-0.041-0.729-0.801-0.933-1.967-1.467-3.199-1.467h-0.006c-2.344 0-4.217 1.908-4.214 4.214-0.002 1.737 1.060 3.271 2.63 3.909 0.933 0.378 1.954 0.404 2.877 0.108-0.88 2.736 1.167 5.511 4.012 5.511h0.005c2.325 0 4.219-1.882 4.217-4.216 0.001-1.109-0.426-2.156-1.202-2.949 0-0 0.957-1.088 0.957-1.088 1.689-1.879 3.359-3.767 5.009-5.659l0.706 0.706-3.070 3.070c-0.183 0.183-0.183 0.48 0 0.663 0.092 0.091 0.212 0.137 0.331 0.137s0.24-0.046 0.331-0.137l3.070-3.070 0.671 0.671-3.070 3.070c-0.183 0.183-0.183 0.48 0 0.663 0.092 0.091 0.212 0.137 0.331 0.137s0.24-0.046 0.331-0.137l3.070-3.070 0.671 0.671-3.070 3.070c-0.183 0.183-0.183 0.48 0 0.663 0.092 0.091 0.212 0.137 0.331 0.137s0.24-0.046 0.331-0.137l3.070-3.070 0.671 0.671-3.070 3.070c-0.183 0.183-0.183 0.48 0 0.663 0.092 0.091 0.212 0.137 0.331 0.137s0.24-0.046 0.331-0.137l3.070-3.070 0.671 0.671-3.070 3.070c-0.183 0.183-0.183 0.48 0 0.663 0.092 0.091 0.212 0.137 0.331 0.137s0.24-0.046 0.331-0.137l3.070-3.070 0.671 0.671-3.070 3.070c-0.183 0.183-0.183 0.48 0 0.663 0.092 0.091 0.212 0.137 0.331 0.137s0.24-0.046 0.331-0.137l3.070-3.070 0.671 0.671-3.070 3.070c-0.183 0.183-0.183 0.48 0 0.663 0.092 0.091 0.212 0.137 0.331 0.137s0.24-0.046 0.331-0.137l3.070-3.070 0.671 0.671-3.070 3.070c-0.183 0.183-0.183 0.48 0 0.663 0.092 0.091 0.212 0.137 0.331 0.137s0.24-0.046 0.331-0.137l3.401-3.401c0-0 0-0 0-0s0-0 0-0l0.994-0.994c0.443-0.443 0.686-1.031 0.686-1.657s-0.244-1.215-0.686-1.657l-9.265-9.264c3.594-4.193 7.078-8.398 10.416-12.576 0.453-0.567 0.407-1.382-0.106-1.895zM4.533 2.789l0.663-0.663c0.548-0.548 1.44-0.548 1.989 0l9.204 9.204c-0.594 0.51-1.187 1.022-1.779 1.535l-10.077-10.077zM29.874 24.816c0.266 0.266 0.412 0.619 0.412 0.994s-0.146 0.729-0.412 0.994l-0.663 0.663c-0.31-0.31-9.423-9.423-10.088-10.088 0.514-0.592 1.027-1.184 1.537-1.777l9.214 9.214zM13.060 22.829c-0.227-0.174-0.833-0.475-0.934-1.33-0.028-0.236-0.227-0.414-0.464-0.414-0.283 0-0.499 0.246-0.467 0.524 0.001 0 0.001 0 0.001 0 0.089 0.764 0.504 1.44 1.138 1.853 0.033 0.022 0.066 0.044 0.101 0.069-0.325 0.371-0.594 0.683-0.901 1.023-0.086 0.095-0.129 0.223-0.119 0.351s0.072 0.247 0.172 0.328c0.787 0.642 1.217 1.566 1.218 2.551-0.001 1.806-1.457 3.277-3.281 3.279-1.803-0.002-3.281-1.456-3.281-3.279 0.002-1.484 0.94-2.278 1.013-2.38l1.391-1.391c0.766-0.766 1.189-1.803 1.189-2.884 0.001-0.79-0.226-1.553-0.653-2.206 0.367-0.336 0.686-0.633 1.057-0.964l0.002-0.003c10.163-9.062 19.914-16.852 20.097-16.957-0.126 0.126-18.415 18.407-18.499 18.502-0.172 0.194-0.154 0.491 0.039 0.662 0.194 0.173 0.491 0.153 0.662-0.039 0.056-0.064 18.327-18.328 18.461-18.462-0.038 0.067-7.587 9.629-17.939 21.166z"></path>
<path d="M5.877 20.817c-1.479-1.479-4.001-0.413-4.001 1.657 0 0.626 0.244 1.214 0.687 1.657 0.457 0.457 1.057 0.685 1.657 0.685s1.2-0.228 1.657-0.685c0.915-0.915 0.915-2.399 0-3.314zM5.214 23.468c-0.548 0.548-1.44 0.548-1.989 0-0.878-0.878-0.263-2.399 0.994-2.399 1.261 0 1.869 1.525 0.994 2.399z"></path>
<path d="M9.523 25.441c-0.964 0-1.792 0.553-2.161 1.444-0.371 0.895-0.178 1.875 0.504 2.556 0.453 0.453 1.036 0.69 1.638 0.69 0.304 0 0.613-0.061 0.913-0.185 0.895-0.371 1.45-1.199 1.45-2.162-0-1.292-1.051-2.343-2.344-2.343zM10.057 29.080c-0.419 0.174-1.041 0.186-1.529-0.302s-0.475-1.112-0.3-1.534c0.173-0.418 0.604-0.866 1.295-0.866 0.775 0 1.406 0.631 1.406 1.406 0 0.689-0.45 1.122-0.872 1.296z"></path>
</svg>
