<!-- Generated by IcoMoon.io -->
<svg version="1.1" xmlns="http://www.w3.org/2000/svg" width="32" height="32" viewBox="0 0 32 32">
<path d="M16.418 17.464c-0.059-0.013-0.12-0.015-0.18-0.006-0.601-0.070-1.054-0.578-1.055-1.183 0-0.29-0.235-0.525-0.525-0.525s-0.525 0.235-0.525 0.525c0.002 1.010 0.677 1.895 1.651 2.162v0.525c0 0.29 0.235 0.525 0.525 0.525s0.525-0.235 0.525-0.525v-0.493c1.124-0.235 1.888-1.282 1.77-2.425s-1.081-2.010-2.229-2.011c-0.658 0-1.192-0.534-1.192-1.192s0.534-1.192 1.192-1.192 1.192 0.534 1.192 1.192c0 0.29 0.235 0.525 0.525 0.525s0.525-0.235 0.525-0.525c-0.002-1.061-0.745-1.975-1.782-2.194v-0.478c0-0.29-0.235-0.525-0.525-0.525s-0.525 0.235-0.525 0.525v0.51c-1.083 0.296-1.78 1.347-1.631 2.46s1.099 1.944 2.222 1.943c0.649 0 1.179 0.52 1.191 1.169s-0.498 1.188-1.147 1.212z"></path>
<path d="M8.763 14.599c0 4.204 3.408 7.611 7.611 7.611s7.611-3.408 7.611-7.611-3.408-7.611-7.611-7.611c-4.202 0.005-7.607 3.41-7.611 7.611zM16.374 8.037c3.624 0 6.562 2.938 6.562 6.562s-2.938 6.562-6.562 6.562-6.562-2.938-6.562-6.562c0.004-3.622 2.939-6.558 6.562-6.562z"></path>
<path d="M26.573 23.504l-4.112 1.943c-0.568-1.056-1.657-1.728-2.855-1.762l-3.796-0.104c-0.601-0.017-1.191-0.169-1.725-0.445l-0.386-0.2c-1.978-1.031-4.335-1.028-6.31 0.007l0.024-0.875c0.008-0.29-0.22-0.531-0.51-0.539l-4.162-0.115c-0.29-0.008-0.531 0.22-0.539 0.51l-0.251 9.134c-0.008 0.29 0.22 0.531 0.51 0.539l4.177 0.115c0.285 0 0.517-0.226 0.525-0.511l0.012-0.437 1.081-0.579c0.424-0.228 0.921-0.283 1.384-0.151l6.457 1.812c0.011 0.003 0.023 0.006 0.034 0.008 0.467 0.098 0.942 0.147 1.419 0.146 1.010 0.001 2.008-0.217 2.926-0.638 0.023-0.010 0.044-0.022 0.065-0.036l9.362-6.056c0.233-0.151 0.309-0.457 0.172-0.699-0.695-1.233-2.237-1.703-3.502-1.067zM3.014 30.561l0.222-8.085 3.113 0.086-0.222 8.085zM20.003 30.424c-1.14 0.515-2.414 0.657-3.639 0.406l-6.44-1.808c-0.725-0.205-1.501-0.12-2.164 0.237l-0.553 0.296 0.148-5.375c1.751-1.165 3.997-1.284 5.861-0.313l0.386 0.2c0.675 0.349 1.42 0.541 2.179 0.563l3.796 0.104c1.066 0.031 1.972 0.79 2.188 1.835l-5.654-0.156c-0.29-0.008-0.531 0.221-0.539 0.51s0.221 0.531 0.51 0.539l6.254 0.172c0.284-0 0.517-0.227 0.524-0.511 0.006-0.228-0.011-0.456-0.051-0.681l4.217-1.993c0.004-0.002 0.008-0.004 0.012-0.006 0.598-0.303 1.321-0.201 1.814 0.254z"></path>
<path d="M16.899 5.511v-4.986c0-0.29-0.235-0.525-0.525-0.525s-0.525 0.235-0.525 0.525v4.986c0 0.29 0.235 0.525 0.525 0.525s0.525-0.235 0.525-0.525z"></path>
<path d="M20.836 5.511v-2.362c0-0.29-0.235-0.525-0.525-0.525s-0.525 0.235-0.525 0.525v2.362c0 0.29 0.235 0.525 0.525 0.525s0.525-0.235 0.525-0.525z"></path>
<path d="M12.962 5.511v-2.362c0-0.29-0.235-0.525-0.525-0.525s-0.525 0.235-0.525 0.525v2.362c0 0.29 0.235 0.525 0.525 0.525s0.525-0.235 0.525-0.525z"></path>
</svg>
