<!-- Generated by IcoMoon.io -->
<svg version="1.1" xmlns="http://www.w3.org/2000/svg" width="32" height="32" viewBox="0 0 32 32">
<path d="M31 18c-1.15-0.969-2.856-0.863-3.869 0.231l-2.756 2.962c-0.331-1.069-1.288-1.869-2.444-1.969 0.488-0.344 0.95-0.725 1.387-1.156 1.969-1.956 3.056-4.544 3.056-7.294 0-5.681-4.669-10.375-10.375-10.375-5.688 0-10.313 4.681-10.313 10.375 0 2.575 0.95 5.012 2.65 6.894-0.456 0.231-0.888 0.519-1.287 0.863-0.513-0.719-1.35-1.194-2.3-1.194h-3.813c-0.519 0-0.938 0.419-0.938 0.938v13.188c0 0.519 0.419 0.938 0.938 0.938h3.813c1.225 0 2.275-0.788 2.656-1.887 0.050 0.006 0.1 0.012 0.156 0.012h14.125c2.056 0 4.019-0.981 5.25-2.631l4.5-6.063c0.894-1.188 0.706-2.869-0.438-3.831zM5.688 29.587c0 0.519-0.419 0.938-0.938 0.938h-2.875v-11.313h2.875c0.519 0 0.938 0.419 0.938 0.938v9.438zM7.563 10.775c0-4.688 3.787-8.5 8.438-8.5 4.688 0 8.5 3.813 8.5 8.5 0 4.475-3.531 8.15-7.969 8.419-0.163-0.031-0.319-0.106-0.444-0.219l-0.438-0.387c-1.494-1.313-3.444-1.831-5.3-1.556-1.775-1.6-2.787-3.856-2.787-6.256zM29.938 20.712l-4.5 6.063c-0.881 1.175-2.281 1.875-3.75 1.875h-14.125v-8.075l0.656-0.575c1.762-1.556 4.425-1.556 6.194 0 0.319 0.281 1.181 1.087 1.594 1.087 0.794 0 5.194 0 5.688 0 0.519 0 0.938 0.419 0.938 0.938s-0.419 0.938-0.938 0.938c-0.669 0-6.050 0-6.725 0-0.519 0-0.938 0.419-0.938 0.938s0.419 0.938 0.938 0.938c0.5 0 0.313 0 7.356 0 0.775 0 1.525-0.325 2.056-0.894l4.125-4.431c0.337-0.363 0.875-0.394 1.25-0.113 0.4 0.306 0.494 0.894 0.181 1.313zM16 9.838c-0.519 0-0.938-0.419-0.938-0.938 0-0.394 0.25-0.75 0.619-0.881 0.481-0.175 1.044 0.063 1.537 0.65 0.331 0.394 0.925 0.45 1.319 0.113s0.45-0.925 0.113-1.319c-0.506-0.606-1.094-1.019-1.712-1.225v-1.088c0-0.519-0.419-0.938-0.938-0.938s-0.938 0.419-0.938 0.938v1.1c-0.006 0-0.019 0.006-0.025 0.006-1.106 0.4-1.85 1.463-1.85 2.644 0 1.55 1.262 2.813 2.813 2.813 0.519 0 0.938 0.419 0.938 0.938 0 0.375-0.225 0.719-0.575 0.863-0.419 0.175-0.925 0.025-1.381-0.419-0.369-0.363-0.963-0.35-1.325 0.019-0.363 0.375-0.35 0.963 0.019 1.325 0.425 0.412 0.894 0.7 1.381 0.863v1.1c0 0.519 0.419 0.938 0.938 0.938s0.938-0.419 0.938-0.938v-1.1c0.056-0.019 0.106-0.037 0.156-0.063 1.044-0.444 1.719-1.456 1.719-2.588 0.006-1.55-1.256-2.813-2.806-2.813z"></path>
</svg>
