<!-- Generated by IcoMoon.io -->
<svg version="1.1" xmlns="http://www.w3.org/2000/svg" width="32" height="32" viewBox="0 0 32 32">
<path d="M28.994 8.014l-6.881-6.881c-0.731-0.731-1.704-1.133-2.74-1.133s-2.009 0.403-2.74 1.133l-1.722 1.722c-0.183 0.183-0.183 0.48 0 0.663s0.48 0.183 0.663 0l1.722-1.722c1.145-1.145 3.009-1.145 4.154 0l6.881 6.881c0.206 0.205 0.206 0.54 0 0.745-0.1 0.1-0.232 0.155-0.373 0.155s-0.273-0.055-0.373-0.155l-1.818-1.818c-0-0-0.001-0.001-0.001-0.001s-0.001-0.001-0.001-0.001l-5.061-5.061c-0.355-0.355-0.828-0.551-1.332-0.551s-0.976 0.196-1.332 0.551l-10.384 10.384c-0.734 0.734-0.734 1.929 0 2.663l6.881 6.881c0.205 0.206 0.205 0.54 0 0.745s-0.54 0.206-0.745 0l-6.881-6.881c-1.145-1.145-1.145-3.009 0-4.154l7.337-7.337c0.183-0.183 0.183-0.48 0-0.663s-0.48-0.183-0.663 0l-7.337 7.337c-0.731 0.731-1.133 1.704-1.133 2.74s0.403 2.009 1.133 2.74l4.73 4.73-0.711 0.711c-0.153-0.093-0.329-0.143-0.512-0.143-0.263 0-0.511 0.103-0.697 0.289l-5.915 5.915c-0.294 0.294-0.456 0.685-0.456 1.101s0.162 0.807 0.456 1.101l0.842 0.842c0.294 0.294 0.685 0.456 1.101 0.456s0.807-0.162 1.101-0.456l3.71-3.709c0.183-0.183 0.183-0.48 0-0.663s-0.48-0.183-0.663 0l-3.71 3.709c-0.117 0.117-0.273 0.182-0.438 0.182s-0.322-0.064-0.438-0.182l-0.842-0.842c-0.117-0.117-0.182-0.273-0.182-0.438s0.064-0.321 0.182-0.438l5.915-5.915c0.019-0.019 0.050-0.019 0.069 0l1.65 1.65c0.010 0.010 0.014 0.021 0.014 0.034s-0.005 0.025-0.014 0.034l-0.88 0.88c-0.183 0.183-0.183 0.48 0 0.663s0.48 0.183 0.663 0l0.88-0.88c0.186-0.186 0.289-0.434 0.289-0.697 0-0.184-0.050-0.36-0.143-0.512l0.711-0.711 0.17 0.17c0.286 0.286 0.661 0.428 1.036 0.428s0.75-0.143 1.036-0.428c0.571-0.571 0.571-1.5 0-2.071l-0.17-0.17 0.482-0.482c0.378-0.378 0.399-0.979 0.065-1.382l9.296-9.296 0.017 0.017c0.171 0.171 0.399 0.266 0.642 0.266s0.47-0.094 0.642-0.266l0.578-0.578 0.17 0.17c0.277 0.276 0.644 0.429 1.036 0.429s0.759-0.153 1.035-0.429c0.571-0.571 0.571-1.5 0-2.071zM11.605 23.737l-0.655-0.655 0.692-0.692 0.655 0.655zM13.714 20.319l0.482-0.482c0.022-0.022 0.047-0.026 0.063-0.026s0.042 0.004 0.064 0.026l0.26 0.26c0.001 0.001 0.002 0.002 0.004 0.004s0.002 0.002 0.003 0.003l0.26 0.26c0.035 0.035 0.035 0.093 0 0.127l-0.482 0.482zM14.915 19.109c-0.184-0.153-0.414-0.236-0.656-0.236-0.274 0-0.532 0.107-0.727 0.301l-0.482 0.482-4.73-4.73c-0.369-0.369-0.369-0.969 0-1.337l10.384-10.384c0.178-0.178 0.416-0.276 0.669-0.276s0.49 0.098 0.668 0.276l4.73 4.73-0.578 0.578c-0.354 0.354-0.354 0.93 0 1.284l0.017 0.017zM25.532 9.81l-0.324-0.324c-0.001-0.001-0.002-0.002-0.003-0.003s-0.002-0.002-0.003-0.003l-0.324-0.324 0.557-0.557 0.655 0.655z"></path>
</svg>
