<!-- Generated by IcoMoon.io -->
<svg version="1.1" xmlns="http://www.w3.org/2000/svg" width="32" height="32" viewBox="0 0 32 32">
<path d="M3.873 4.444v8.698c0 0.317 0.254 0.635 0.635 0.635h8.698c0.317 0 0.635-0.254 0.635-0.635v-1.714c0-0.317-0.254-0.635-0.635-0.635-0.317 0-0.635 0.254-0.635 0.635v1.016h-7.429v-7.429h7.429v1.524c0 0.317 0.254 0.635 0.635 0.635 0.317 0 0.635-0.254 0.635-0.635v-2.095c0-0.317-0.254-0.635-0.635-0.635h-8.698c-0.381 0-0.635 0.254-0.635 0.635z"></path>
<path d="M7.556 6.857c-0.317 0-0.635 0.254-0.635 0.635v2.603c0 0.317 0.254 0.635 0.635 0.635h2.603c0.317 0 0.635-0.254 0.635-0.635v-2.603c0-0.317-0.254-0.635-0.635-0.635h-2.603zM9.524 9.46h-1.333v-1.333h1.333v1.333z"></path>
<path d="M13.143 18.222h-8.635c-0.317 0-0.635 0.254-0.635 0.635v8.698c0 0.317 0.254 0.635 0.635 0.635h8.698c0.317 0 0.635-0.254 0.635-0.635v-8.698c-0.063-0.381-0.317-0.635-0.698-0.635zM12.571 26.857h-7.429v-7.365h7.429v7.365z"></path>
<path d="M18.984 13.714h8.698c0.317 0 0.635-0.254 0.635-0.635v-8.635c0-0.317-0.254-0.635-0.635-0.635h-8.698c-0.317 0-0.635 0.254-0.635 0.635v8.698c0 0.317 0.254 0.571 0.635 0.571zM19.556 5.016h7.429v7.429h-7.429v-7.429z"></path>
<path d="M28.254 27.492v-8.635c0-0.317-0.254-0.635-0.635-0.635h-8.635c-0.317 0-0.635 0.254-0.635 0.635v8.698c0 0.317 0.254 0.635 0.635 0.635h8.698c0.317-0.064 0.571-0.317 0.571-0.698zM26.984 26.857h-7.429v-7.365h7.429v7.365z"></path>
<path d="M27.619 16.635c0.317 0 0.635-0.254 0.635-0.635 0-0.317-0.254-0.635-0.635-0.635h-10.984v-11.048c0-0.317-0.254-0.635-0.635-0.635-0.317 0-0.635 0.254-0.635 0.635v11.048h-8.317c-0.317 0-0.635 0.254-0.635 0.635 0 0.317 0.254 0.635 0.635 0.635h8.317v10.857c0 0.317 0.254 0.635 0.635 0.635 0.317 0 0.635-0.254 0.635-0.635v-10.857h10.984z"></path>
<path d="M7.556 25.143h2.603c0.317 0 0.635-0.254 0.635-0.635v-2.603c0-0.317-0.254-0.635-0.635-0.635h-2.603c-0.317 0-0.635 0.254-0.635 0.635v2.603c0 0.381 0.254 0.635 0.635 0.635zM8.19 22.54h1.333v1.333h-1.333v-1.333z"></path>
<path d="M24.571 6.857h-2.603c-0.317 0-0.635 0.254-0.635 0.635v2.603c0 0.317 0.254 0.635 0.635 0.635h2.603c0.317 0 0.635-0.254 0.635-0.635v-2.603c0-0.381-0.254-0.635-0.635-0.635zM24 9.46h-1.333v-1.333h1.333v1.333z"></path>
<path d="M21.968 25.143h2.603c0.317 0 0.635-0.254 0.635-0.635v-2.603c0-0.317-0.254-0.635-0.635-0.635h-2.603c-0.317 0-0.635 0.254-0.635 0.635v2.603c0.064 0.381 0.317 0.635 0.635 0.635zM22.603 22.54h1.333v1.333h-1.333v-1.333z"></path>
<path d="M4.381 15.365v0c-0.381 0.063-0.571 0.444-0.508 0.762s0.317 0.508 0.635 0.508c0.064 0 0.127 0 0.127 0h0.064c0.317-0.127 0.508-0.444 0.444-0.762-0.127-0.381-0.444-0.571-0.762-0.508z"></path>
<path d="M13.079 8.381v0c-0.381 0.063-0.571 0.444-0.508 0.762s0.317 0.508 0.635 0.508c0.063 0 0.127 0 0.127 0h0.063c0.317-0.063 0.571-0.444 0.444-0.762-0.127-0.381-0.444-0.571-0.762-0.508z"></path>
<path d="M0.635 5.143c0.317 0 0.635-0.254 0.635-0.635v-3.238h3.111c0.317 0 0.635-0.254 0.635-0.635 0-0.317-0.254-0.635-0.635-0.635h-3.746c-0.381 0-0.635 0.254-0.635 0.635v3.873c0 0.381 0.254 0.635 0.635 0.635z"></path>
<path d="M31.365 0h-3.746c-0.317 0-0.635 0.254-0.635 0.635 0 0.317 0.254 0.635 0.635 0.635h3.111v3.238c0 0.317 0.254 0.635 0.635 0.635 0.317 0 0.635-0.254 0.635-0.635v-3.873c0-0.381-0.254-0.635-0.635-0.635z"></path>
<path d="M4.381 30.73h-3.111v-3.238c0-0.317-0.254-0.635-0.635-0.635-0.317 0-0.635 0.254-0.635 0.635v3.873c0 0.317 0.254 0.635 0.635 0.635h3.746c0.317 0 0.635-0.254 0.635-0.635s-0.254-0.635-0.635-0.635z"></path>
<path d="M31.365 26.857c-0.317 0-0.635 0.254-0.635 0.635v3.238h-3.111c-0.317 0-0.635 0.254-0.635 0.635 0 0.317 0.254 0.635 0.635 0.635h3.746c0.317 0 0.635-0.254 0.635-0.635v-3.873c0-0.381-0.254-0.635-0.635-0.635z"></path>
</svg>
