<!-- Generated by IcoMoon.io -->
<svg version="1.1" xmlns="http://www.w3.org/2000/svg" width="32" height="32" viewBox="0 0 32 32">
<path d="M25.27 8.984c0 0-0.176-6.294-0.184-6.37-0.012-0.117-0.043-0.232-0.091-0.343-0.124-0.281-0.35-0.498-0.637-0.609l-1.865-0.723c-0.287-0.111-0.6-0.104-0.881 0.020s-0.498 0.35-0.609 0.637l-1.28 3.299c-0.195-0.047-0.393-0.087-0.593-0.121v-1.244c0-1.726-1.404-3.129-3.129-3.129s-3.129 1.404-3.129 3.129v1.244c-0.2 0.034-0.399 0.074-0.594 0.121l-1.28-3.299c-0.111-0.287-0.328-0.513-0.609-0.637s-0.594-0.131-0.881-0.020l-1.865 0.723c-0.287 0.111-0.513 0.328-0.637 0.609-0.047 0.107-0.077 0.218-0.090 0.33-0.009 0.079-0.185 6.385-0.185 6.385-0.793 1.328-1.249 2.878-1.249 4.534v16.939c0 1.070 0.871 1.941 1.941 1.941h17.159c1.070 0 1.941-0.871 1.941-1.941v-16.939c0-1.656-0.457-3.208-1.251-4.536zM24.202 7.546c-0.204-0.223-0.419-0.436-0.645-0.638l0.581-1.498 0.064 2.136zM21.957 1.966c0.025-0.065 0.099-0.098 0.164-0.072l1.865 0.723c0.041 0.016 0.061 0.045 0.070 0.067s0.018 0.057 0.002 0.097l-1.342 3.461c-0.618-0.431-1.292-0.786-2.011-1.051l1.251-3.225zM16 1.425c1.047 0 1.917 0.768 2.078 1.77-0.557-0.496-1.289-0.795-2.078-0.795-0.773 0-1.503 0.279-2.077 0.789 0.163-0.999 1.032-1.764 2.077-1.764zM17.913 4.654c-0.087-0.003-3.739-0.003-3.827 0 0.103-0.225 0.245-0.433 0.425-0.613 0.398-0.397 0.926-0.616 1.488-0.616 0.837 0 1.578 0.5 1.913 1.229zM7.941 2.684c0.010-0.022 0.030-0.051 0.070-0.067l1.865-0.723c0.065-0.025 0.139 0.007 0.164 0.072l1.252 3.226c-0.718 0.264-1.393 0.62-2.010 1.051l-1.343-3.462c-0.016-0.041-0.008-0.075 0.002-0.097zM7.86 5.41l0.582 1.499c-0.226 0.202-0.441 0.415-0.645 0.638l0.063-2.138zM25.496 30.459c0 0.505-0.411 0.916-0.916 0.916h-17.159c-0.505 0-0.916-0.411-0.916-0.916v-16.939c0-4.326 3.52-7.846 7.846-7.846h3.3c4.326 0 7.846 3.52 7.846 7.846v16.939zM9.048 17.733c-0.827 0-1.5 0.673-1.5 1.5v9.655c0 0.827 0.673 1.5 1.5 1.5h13.904c0.827 0 1.5-0.673 1.5-1.5v-9.655c0-0.827-0.673-1.5-1.5-1.5h-13.904zM22.952 29.363h-13.904c-0.262 0-0.475-0.213-0.475-0.475v-6.44h12.897v1.165h1.025v-1.165h0.932v6.44c0 0.262-0.213 0.475-0.475 0.475zM23.427 19.233v2.19h-14.854v-2.19c0-0.262 0.213-0.475 0.475-0.475h13.904c0.262 0 0.475 0.213 0.475 0.475zM19.252 7.78h-6.504v2.926h6.504v-2.926zM18.227 9.681h-4.455v-0.876h4.455v0.876z"></path>
</svg>
