<!-- Generated by IcoMoon.io -->
<svg version="1.1" xmlns="http://www.w3.org/2000/svg" width="35" height="32" viewBox="0 0 35 32">
<path d="M16 0c1.395 0 2.526 1.131 2.526 2.526v26.947c0 1.395-1.131 2.526-2.526 2.526h-10.105c-3.256 0-5.895-2.639-5.895-5.895v-20.211c0-3.256 2.639-5.895 5.895-5.895h10.105zM24.421 30.316c0.465 0 0.842 0.377 0.842 0.842s-0.377 0.842-0.842 0.842h-1.684c-0.465 0-0.842-0.377-0.842-0.842s0.377-0.842 0.842-0.842h1.684zM34.526 25.263c0.465 0 0.842 0.377 0.842 0.842 0 3.256-2.639 5.895-5.895 5.895-0.465 0-0.842-0.377-0.842-0.842s0.377-0.842 0.842-0.842c2.325 0 4.211-1.885 4.211-4.211 0-0.465 0.377-0.842 0.842-0.842zM5.895 1.684c-2.325 0-4.211 1.885-4.211 4.211v20.211c0 2.325 1.885 4.211 4.211 4.211h10.105c0.465 0 0.842-0.377 0.842-0.842v-26.947c0-0.465-0.377-0.842-0.842-0.842h-10.105zM34.526 11.789c0.465 0 0.842 0.377 0.842 0.842v6.737c0 0.465-0.377 0.842-0.842 0.842s-0.842-0.377-0.842-0.842v-6.737c0-0.465 0.377-0.842 0.842-0.842zM29.474 0c3.256 0 5.895 2.639 5.895 5.895 0 0.465-0.377 0.842-0.842 0.842s-0.842-0.377-0.842-0.842c0-2.325-1.885-4.211-4.211-4.211-0.465 0-0.842-0.377-0.842-0.842s0.377-0.842 0.842-0.842zM24.421 0c0.465 0 0.842 0.377 0.842 0.842s-0.377 0.842-0.842 0.842h-1.684c-0.465 0-0.842-0.377-0.842-0.842s0.377-0.842 0.842-0.842h1.684z"></path>
</svg>
