<!-- Generated by IcoMoon.io -->
<svg version="1.1" xmlns="http://www.w3.org/2000/svg" width="50" height="32" viewBox="0 0 50 32">
<path d="M28.776 0c3.089 0 5.389 2.569 5.389 5.39v20.979c0.23 3.084-2.328 5.631-5.173 5.631h-23.603c-3.089 0-5.39-2.569-5.39-5.39v-21.22c0-3.089 2.569-5.39 5.39-5.39h23.387zM47.887 26.231c0.329-0.329 0.862-0.329 1.191 0s0.329 0.862 0 1.191l-3.248 3.248-0.063 0.058c-0.331 0.27-0.819 0.251-1.127-0.058l-3.248-3.248c-0.328-0.329-0.329-0.862 0-1.191s0.863-0.329 1.192 0l2.653 2.653 2.652-2.653zM5.39 1.684c-1.943 0-3.706 1.598-3.706 3.706v21.22c0 1.943 1.598 3.706 3.706 3.706h23.603c1.905-0 3.666-1.76 3.492-3.852l-0.003-0.035v-21.040c0-1.943-1.597-3.705-3.705-3.706h-23.387zM10.885 12.424c0-2.22 2.482-3.373 4.267-2.221l6.83 4.055c0.944 0.49 1.35 1.397 1.31 2.27-0.039 0.851-0.499 1.705-1.291 2.181l-0.036 0.022-0.040 0.018-6.846 3.208c-0.906 0.445-1.926 0.358-2.712-0.035s-1.482-1.176-1.482-2.224v-7.274zM14.255 11.627c-0.779-0.519-1.686 0.038-1.686 0.797v7.274c0 0.235 0.16 0.523 0.551 0.718 0.385 0.192 0.853 0.213 1.225 0.026l0.010-0.004 0.009-0.005 6.792-3.184c0.264-0.17 0.439-0.481 0.453-0.798 0.013-0.293-0.105-0.55-0.418-0.706l-0.027-0.014-0.026-0.015-6.883-4.089zM45.234 12.928c0.465 0 0.842 0.377 0.842 0.842v4.46c-0 0.465-0.377 0.842-0.842 0.842s-0.842-0.377-0.842-0.842v-4.46c0-0.465 0.377-0.842 0.842-0.842zM44.701 0.189c0.331-0.27 0.819-0.251 1.127 0.058l3.248 3.248c0.328 0.329 0.329 0.862 0 1.191s-0.863 0.329-1.192 0l-2.653-2.653-2.652 2.653c-0.329 0.329-0.862 0.329-1.191 0s-0.329-0.862 0-1.191l3.248-3.248 0.063-0.058z"></path>
</svg>
