<!-- Generated by IcoMoon.io -->
<svg version="1.1" xmlns="http://www.w3.org/2000/svg" width="31" height="32" viewBox="0 0 31 32">
<path d="M27.941 3.122c-0.234 0-0.39 0.156-0.39 0.39s0.234 0.39 0.39 0.39c1.015 0 1.873 0.859 1.873 1.873v20.449c0 1.015-0.859 1.873-1.873 1.873h-1.795v-9.288c0-0.234-0.156-0.39-0.39-0.39s-0.39 0.156-0.39 0.39v10.537c0 1.015-0.859 1.873-1.873 1.873h-19.902c-1.561 0-2.81-1.249-2.81-2.81v-24.82c0-1.561 1.249-2.81 2.81-2.81h19.044c1.561 0 2.81 1.249 2.81 2.81v9.6c0 0.234 0.156 0.39 0.39 0.39s0.39-0.156 0.39-0.39v-9.6c0-2.029-1.639-3.59-3.59-3.59h-19.044c-2.029 0-3.59 1.561-3.59 3.59v24.898c0 1.951 1.561 3.512 3.59 3.512h19.98c1.483 0 2.654-1.171 2.654-2.654v-0.468h1.795c1.483 0 2.654-1.171 2.654-2.654v-20.449c0-1.483-1.249-2.654-2.732-2.654z"></path>
<path d="M8.429 21.541c-0.156 0.156-0.156 0.39 0 0.546l4.605 4.605 4.605-4.605c0.156-0.156 0.156-0.39 0-0.546s-0.39-0.156-0.546 0l-3.98 3.98-3.98-3.98c-0.312-0.156-0.546-0.156-0.702 0z"></path>
<path d="M17.561 9.912l-4.605-4.605-4.605 4.605c-0.156 0.156-0.156 0.39 0 0.546 0.078 0.078 0.156 0.078 0.312 0.078s0.234 0 0.312-0.078l3.98-3.981 3.98 3.981c0.156 0.156 0.39 0.156 0.546 0s0.234-0.39 0.078-0.546z"></path>
<path d="M15.532 16.39c0.234 0 0.39-0.156 0.39-0.39s-0.156-0.39-0.39-0.39h-5.073c-0.234 0-0.39 0.156-0.39 0.39s0.156 0.39 0.39 0.39h5.073z"></path>
</svg>
