<!-- Generated by IcoMoon.io -->
<svg version="1.1" xmlns="http://www.w3.org/2000/svg" width="32" height="32" viewBox="0 0 32 32">
<path d="M5.671 11.296c-0.345 0-0.625 0.28-0.625 0.625s0.28 0.625 0.625 0.625c0.345 0 0.625-0.28 0.625-0.625s-0.28-0.625-0.625-0.625z"></path>
<path d="M23.183 18.764c-0.117-0.117-0.276-0.183-0.442-0.183-0.006 0.001-0.247-0.012-0.442 0.183l-0.442 0.442-1.436-1.436c3.169-4.442 2.687-10.57-1.216-14.472-4.396-4.396-11.512-4.397-15.908 0s-4.397 11.512 0 15.908c3.893 3.893 10.018 4.393 14.472 1.216l1.436 1.436-0.442 0.442c-0.244 0.244-0.244 0.64 0 0.884l7.901 7.901c1.221 1.222 3.197 1.222 4.418 0 1.222-1.221 1.222-3.197 0-4.418zM20.089 20.973l-1.338-1.338c0.156-0.139 0.308-0.282 0.455-0.43s0.29-0.299 0.43-0.454l1.338 1.338zM4.181 18.322c-3.908-3.907-3.908-10.233 0-14.141s10.233-3.908 14.141 0c3.899 3.899 3.919 10.222 0 14.141-3.963 3.963-10.286 3.855-14.141 0zM22.741 20.089l1.767 1.768-2.651 2.651-1.768-1.767zM30.2 30.2c-0.732 0.733-1.918 0.733-2.651 0l-4.808-4.808 2.651-2.651 4.808 4.809c0.733 0.732 0.734 1.917-0 2.651z"></path>
<path d="M17.438 5.065c-3.418-3.418-8.955-3.42-12.374-0-3.411 3.411-3.411 8.962 0 12.374 3.42 3.419 8.953 3.42 12.373 0 3.411-3.412 3.412-8.962 0-12.373zM16.554 16.554c-2.931 2.931-7.674 2.932-10.606 0-2.923-2.924-2.923-7.682 0-10.606 2.929-2.929 7.676-2.93 10.606 0.001 2.924 2.924 2.924 7.681-0 10.605z"></path>
<path d="M11.251 5.003c-1.67 0-3.24 0.65-4.419 1.83-0.684 0.684-1.187 1.491-1.495 2.401-0.111 0.327 0.064 0.682 0.391 0.792s0.682-0.065 0.793-0.391c0.246-0.726 0.649-1.372 1.196-1.919 0.943-0.944 2.199-1.463 3.535-1.463 0.345 0 0.625-0.28 0.625-0.625s-0.28-0.625-0.625-0.625z"></path>
</svg>
