<!-- Generated by IcoMoon.io -->
<svg version="1.1" xmlns="http://www.w3.org/2000/svg" width="32" height="32" viewBox="0 0 32 32">
<path d="M32 29.469l-9.447-9.447c1.568-2.093 2.509-4.681 2.509-7.491 0-6.91-5.621-12.531-12.531-12.531s-12.531 5.621-12.531 12.531 5.621 12.531 12.531 12.531c2.81 0 5.398-0.941 7.491-2.509l9.447 9.447 2.531-2.531zM1.193 12.531c0-6.252 5.086-11.338 11.338-11.338s11.338 5.086 11.338 11.338-5.086 11.338-11.338 11.338-11.338-5.086-11.338-11.338zM21.223 21.537c0.106-0.103 0.211-0.207 0.313-0.313 0.087-0.090 0.181-0.173 0.266-0.266l8.51 8.51-0.844 0.844-8.51-8.511c0.093-0.084 0.175-0.178 0.265-0.265z"></path>
</svg>
