<!-- Generated by IcoMoon.io -->
<svg version="1.1" xmlns="http://www.w3.org/2000/svg" width="32" height="32" viewBox="0 0 32 32">
<path d="M11.319 10.819c1.95 0 3.581-1.644 3.644-3.681 0-2.037-1.625-3.681-3.644-3.681s-3.644 1.644-3.644 3.681 1.625 3.681 3.644 3.681zM11.319 4.838c1.238 0 2.344 1.050 2.344 2.369 0 1.313-1.044 2.369-2.344 2.369s-2.344-1.050-2.344-2.369c0-1.319 1.037-2.369 2.344-2.369zM30.506 27.131l-6.962-7.038-1.488 1.506-2.65-2.681c1.619-1.887 2.6-4.356 2.6-7.050 0-5.956-4.775-10.781-10.662-10.781s-10.662 4.825-10.662 10.781 4.775 10.781 10.662 10.781c2.75 0 5.263-1.056 7.156-2.788l2.637 2.669-1.431 1.444 6.894 7.038c1.281 1.050 3.031 0.813 3.906 0 1.081-1.012 1.044-2.831 0-3.881zM1.925 11.869c0-5.256 4.219-9.519 9.419-9.519s9.419 4.263 9.419 9.519c0 2.362-0.85 4.519-2.256 6.181-0.331-3.169-2.981-5.581-6.144-5.581h-2.15c-3.181 0-5.75 2.406-6.131 5.462-1.35-1.65-2.156-3.762-2.156-6.063zM5.331 19.194v-0.481c0-2.694 2.212-4.931 4.881-4.931h2.15c2.669 0 4.881 2.237 4.881 4.931v0.581c-1.613 1.313-3.662 2.094-5.894 2.094-2.294 0-4.388-0.825-6.019-2.194zM29.531 30.087c-0.519 0.525-1.494 0.525-2.019 0l-6.050-6.119 2.019-2.038 6.050 6.119c0.587 0.525 0.587 1.45 0 2.038z"></path>
</svg>
