<!-- Generated by IcoMoon.io -->
<svg version="1.1" xmlns="http://www.w3.org/2000/svg" width="32" height="32" viewBox="0 0 32 32">
<path d="M31.292 27.874l-8.348-8.349c3.86-5.747 2.329-13.535-3.418-17.395s-13.535-2.329-17.395 3.418-2.329 13.535 3.418 17.395c4.227 2.838 9.75 2.838 13.977 0l8.348 8.349c0.944 0.944 2.474 0.944 3.418 0s0.944-2.474 0-3.418zM12.548 24.006c-6.325-0.007-11.451-5.133-11.458-11.458 0-6.328 5.13-11.458 11.458-11.458s11.458 5.13 11.458 11.458-5.13 11.458-11.458 11.458zM30.539 30.538c-0.253 0.254-0.598 0.396-0.956 0.396-0.359 0.001-0.703-0.141-0.956-0.395l-8.131-8.132 1.911-1.911 8.131 8.132c0.528 0.527 0.528 1.383 0.001 1.911z"></path>
<path d="M12.829 2.159l-0.028 1.066c2.758 0.071 5.342 1.363 7.054 3.526l0.835-0.663c-1.908-2.41-4.788-3.849-7.861-3.929z"></path>
<path d="M21.467 7.21l-0.914 0.548c0.199 0.33 0.377 0.672 0.533 1.024l0.972-0.431c-0.173-0.392-0.371-0.774-0.591-1.142z"></path>
</svg>
