<!-- Generated by IcoMoon.io -->
<svg version="1.1" xmlns="http://www.w3.org/2000/svg" width="32" height="32" viewBox="0 0 32 32">
<path d="M31.096 26.729l-7.973-7.973c-0.59-0.59-1.36-0.891-2.133-0.903 2.991-4.456 2.52-10.563-1.416-14.499-4.472-4.472-11.748-4.472-16.22 0s-4.472 11.748 0 16.22c3.935 3.935 10.042 4.407 14.499 1.416 0.013 0.773 0.313 1.543 0.903 2.133l7.973 7.973c1.206 1.206 3.161 1.206 4.367 0s1.206-3.161 0-4.367zM17.078 17.078c-3.096 3.096-8.133 3.096-11.229 0s-3.096-8.133 0-11.229c3.096-3.096 8.133-3.096 11.229 0s3.096 8.133 0 11.229z"></path>
</svg>
