<!-- Generated by IcoMoon.io -->
<svg version="1.1" xmlns="http://www.w3.org/2000/svg" width="31" height="32" viewBox="0 0 31 32">
<path d="M27.941 3.122c-0.234 0-0.39 0.156-0.39 0.39s0.234 0.39 0.39 0.39c1.015 0 1.873 0.859 1.873 1.873v20.449c0 1.015-0.859 1.873-1.873 1.873h-1.795v-9.288c0-0.234-0.156-0.39-0.39-0.39s-0.39 0.156-0.39 0.39v10.537c0 1.015-0.859 1.873-1.873 1.873h-19.902c-1.561 0-2.81-1.249-2.81-2.81v-24.82c0-1.561 1.249-2.81 2.81-2.81h19.044c1.561 0 2.81 1.249 2.81 2.81v9.6c0 0.234 0.156 0.39 0.39 0.39s0.39-0.156 0.39-0.39v-9.6c0-2.029-1.639-3.59-3.59-3.59h-19.044c-2.029 0-3.59 1.561-3.59 3.59v24.898c0 1.951 1.561 3.512 3.59 3.512h19.98c1.483 0 2.654-1.171 2.654-2.654v-0.468h1.795c1.483 0 2.654-1.171 2.654-2.654v-20.449c0-1.483-1.249-2.654-2.732-2.654z"></path>
<path d="M11.707 9.132c-2.81 0-5.073 2.263-5.073 5.073s2.263 5.073 5.073 5.073c1.249 0 2.419-0.468 3.278-1.249l4.761 4.761c0.078 0.078 0.156 0.078 0.312 0.078s0.234 0 0.312-0.078c0.156-0.156 0.156-0.39 0-0.546l-4.761-4.761c0.78-0.859 1.171-2.029 1.171-3.278-0.078-2.81-2.341-5.073-5.073-5.073zM11.707 18.419c-2.341 0-4.293-1.873-4.293-4.293 0-2.341 1.873-4.293 4.293-4.293s4.293 1.873 4.293 4.293c-0.078 2.419-1.951 4.293-4.293 4.293z"></path>
<path d="M11.707 11.239c-0.234 0-0.39 0.156-0.39 0.39s0.156 0.39 0.39 0.39c0.859 0 1.561 0.468 1.951 1.249 0.078 0.156 0.234 0.234 0.39 0.234 0.078 0 0.078 0 0.156 0 0.156-0.078 0.312-0.312 0.156-0.546-0.546-1.015-1.561-1.717-2.654-1.717z"></path>
</svg>
