<!-- Generated by IcoMoon.io -->
<svg version="1.1" xmlns="http://www.w3.org/2000/svg" width="32" height="32" viewBox="0 0 32 32">
<path d="M18.78 5.367c-1.791-1.791-4.173-2.778-6.707-2.778s-4.915 0.987-6.707 2.778-2.778 4.173-2.778 6.707c0 2.534 0.987 4.915 2.778 6.707s4.173 2.778 6.707 2.778c2.534 0 4.915-0.987 6.707-2.778s2.778-4.173 2.778-6.707c0-2.534-0.987-4.915-2.778-6.707zM17.887 17.887c-1.553 1.553-3.618 2.408-5.814 2.408s-4.261-0.855-5.814-2.408c-3.206-3.206-3.206-8.422 0-11.628 1.553-1.553 3.618-2.408 5.814-2.408s4.261 0.855 5.814 2.408c3.206 3.206 3.206 8.422 0 11.628z"></path>
<path d="M15.913 5.75c-0.298-0.181-0.686-0.087-0.867 0.211s-0.087 0.686 0.211 0.867c0.417 0.254 0.805 0.559 1.154 0.908 0.123 0.123 0.285 0.185 0.446 0.185s0.323-0.062 0.446-0.185c0.247-0.247 0.247-0.646 0-0.893-0.42-0.42-0.888-0.788-1.391-1.094z"></path>
<path d="M7.29 7.921c0.162 0 0.323-0.062 0.446-0.185 1.38-1.38 3.356-2.024 5.287-1.723 0.345 0.054 0.667-0.182 0.721-0.527s-0.182-0.667-0.527-0.721c-2.328-0.362-4.71 0.414-6.374 2.078-0.247 0.247-0.247 0.646 0 0.893 0.123 0.123 0.285 0.185 0.446 0.185z"></path>
<path d="M8.833 17.283c-0.395-0.246-0.764-0.54-1.096-0.872-0.247-0.247-0.646-0.247-0.893 0s-0.247 0.646 0 0.893c0.4 0.4 0.845 0.754 1.321 1.051 0.104 0.065 0.219 0.096 0.333 0.096 0.211 0 0.417-0.105 0.536-0.297 0.184-0.296 0.094-0.685-0.202-0.87z"></path>
<path d="M16.411 16.411c-1.338 1.338-3.183 1.977-5.064 1.754-0.346-0.041-0.66 0.206-0.701 0.553s0.206 0.66 0.553 0.701c0.297 0.035 0.593 0.053 0.888 0.053 1.952 0 3.817-0.766 5.218-2.167 0.247-0.247 0.247-0.646 0-0.893s-0.646-0.246-0.893 0z"></path>
<path d="M31.234 27.527l-7.64-7.64c-0.247-0.247-0.646-0.247-0.893 0l-0.306 0.306-0.75-0.75c3.65-4.733 3.306-11.574-1.030-15.911-4.71-4.71-12.373-4.71-17.082 0s-4.71 12.373 0 17.082c2.355 2.355 5.448 3.532 8.541 3.532 2.603 0 5.206-0.834 7.369-2.502l0.75 0.75-0.306 0.306c-0.118 0.118-0.185 0.279-0.185 0.446s0.067 0.328 0.185 0.446l7.64 7.64c0.511 0.511 1.182 0.766 1.853 0.766s1.342-0.255 1.853-0.766c1.022-1.022 1.022-2.684-0-3.706zM4.425 19.722c-2.043-2.043-3.168-4.759-3.168-7.648s1.125-5.605 3.168-7.648c2.043-2.043 4.759-3.168 7.648-3.168s5.606 1.125 7.649 3.168c2.043 2.043 3.168 4.759 3.168 7.648s-1.125 5.605-3.168 7.648c-2.043 2.043-4.759 3.168-7.648 3.168s-5.605-1.125-7.649-3.168zM20.404 20.82c0.071-0.068 0.141-0.136 0.211-0.206s0.138-0.14 0.206-0.211l0.682 0.682-0.417 0.417-0.682-0.682zM30.341 30.341c-0.53 0.53-1.391 0.529-1.921 0l-7.194-7.194 1.921-1.921 7.194 7.194c0.53 0.53 0.53 1.391 0 1.921z"></path>
</svg>
