<!-- Generated by IcoMoon.io -->
<svg version="1.1" xmlns="http://www.w3.org/2000/svg" width="32" height="32" viewBox="0 0 32 32">
<path d="M15.031 12.006c-0.65-0.531-1.625-0.925-2.931-1.256h-0.063v-3.306c0.912 0.131 1.694 0.463 2.475 0.994l1.106-1.588c-1.106-0.8-2.344-1.263-3.581-1.325v-0.925h-1.106v0.794c-1.106 0.069-2.019 0.394-2.738 1.056s-1.044 1.519-1.044 2.512c0 1.056 0.325 1.787 0.913 2.313 0.588 0.531 1.563 0.925 2.862 1.256v3.438c-1.044-0.131-2.019-0.662-2.994-1.519l-1.237 1.519c1.237 1.125 2.669 1.787 4.231 1.919v1.256h1.106v-1.256c1.175-0.069 2.15-0.394 2.863-1.056 0.719-0.663 1.044-1.519 1.044-2.512s-0.256-1.787-0.906-2.313zM10.863 10.419c-0.65-0.2-1.044-0.463-1.3-0.662-0.194-0.2-0.325-0.531-0.325-0.925s0.131-0.725 0.456-0.994c0.262-0.263 0.719-0.463 1.175-0.463v3.044zM13.331 15.506c-0.325 0.262-0.781 0.463-1.369 0.531v-3.175c0.719 0.2 1.175 0.394 1.431 0.662 0.262 0.262 0.394 0.594 0.394 0.994 0 0.394-0.131 0.725-0.456 0.988zM30.525 27.012l-6.962-7.075-1.5 1.519-2.669-2.706c1.544-1.869 2.469-4.275 2.469-6.9 0-5.938-4.744-10.75-10.588-10.75s-10.588 4.813-10.588 10.75 4.744 10.75 10.588 10.75c2.794 0 5.331-1.1 7.225-2.887l2.644 2.681-1.425 1.444 6.9 7.075c1.281 1.35 3.231 0.75 3.906 0.069 0.688-0.731 1.369-2.631 0-3.969zM11.281 21.275c-5.131 0-9.287-4.219-9.287-9.431s4.156-9.425 9.287-9.425 9.288 4.219 9.288 9.431-4.163 9.425-9.287 9.425zM29.55 29.988c-0.519 0.531-1.5 0.531-2.019 0l-6.056-6.15 2.019-2.119 6.056 6.15c0.925 0.8 0.262 1.856 0 2.119z"></path>
</svg>
