<!-- Generated by IcoMoon.io -->
<svg version="1.1" xmlns="http://www.w3.org/2000/svg" width="32" height="32" viewBox="0 0 32 32">
<path d="M12.8 24.388c2.729 0 5.209-0.967 7.144-2.605l8.682 8.682c0.198 0.198 0.447 0.298 0.719 0.298s0.521-0.099 0.719-0.298c0.397-0.397 0.397-1.042 0-1.439l-8.682-8.682c1.612-1.935 2.605-4.44 2.605-7.144 0-6.177-5.011-11.188-11.188-11.188-6.152 0-11.188 5.036-11.188 11.188 0 6.177 5.036 11.188 11.188 11.188zM12.8 4.046c5.060 0 9.153 4.118 9.153 9.153 0 5.060-4.093 9.153-9.153 9.153s-9.153-4.118-9.153-9.153c0-5.036 4.118-9.153 9.153-9.153z"></path>
</svg>
