<!-- Generated by IcoMoon.io -->
<svg version="1.1" xmlns="http://www.w3.org/2000/svg" width="32" height="32" viewBox="0 0 32 32">
<path d="M8.8 24h-6.4c-1.323 0-2.4-1.077-2.4-2.4v-19.2c0-1.323 1.077-2.4 2.4-2.4h22.4c1.323 0 2.4 1.077 2.4 2.4v11.2c0 0.442-0.358 0.8-0.8 0.8s-0.8-0.358-0.8-0.8v-11.2c0-0.441-0.359-0.8-0.8-0.8h-22.4c-0.441 0-0.8 0.359-0.8 0.8v19.2c0 0.441 0.359 0.8 0.8 0.8h6.4c0.442 0 0.8 0.358 0.8 0.8s-0.358 0.8-0.8 0.8zM20.8 32c-0.317 0-0.618-0.19-0.743-0.503l-2.715-6.788-4.74 5.417c-0.219 0.251-0.571 0.339-0.883 0.222s-0.519-0.416-0.519-0.749v-24c0-0.317 0.187-0.604 0.476-0.732s0.627-0.073 0.862 0.14l17.6 16c0.245 0.222 0.327 0.572 0.208 0.88s-0.416 0.512-0.746 0.512h-6.818l2.761 6.903c0.164 0.41-0.035 0.876-0.446 1.040l-4 1.6c-0.097 0.039-0.198 0.057-0.297 0.057zM17.6 22.4c0.045 0 0.090 0.004 0.135 0.011 0.274 0.047 0.505 0.233 0.608 0.491l2.903 7.257 2.514-1.006-2.903-7.257c-0.099-0.247-0.069-0.526 0.080-0.746s0.397-0.352 0.663-0.352h5.931l-14.731-13.392v20.062l4.198-4.798c0.153-0.175 0.374-0.273 0.602-0.273z"></path>
</svg>
