<!-- Generated by IcoMoon.io -->
<svg version="1.1" xmlns="http://www.w3.org/2000/svg" width="32" height="32" viewBox="0 0 32 32">
<path d="M27.829 22.095l-2.985 4.288-2.106-1.729c-0.227-0.187-0.564-0.153-0.75 0.074-0.187 0.228-0.154 0.564 0.074 0.75l2.553 2.095c0.096 0.079 0.215 0.122 0.338 0.122 0.024 0 0.049-0.002 0.073-0.005 0.147-0.020 0.279-0.101 0.365-0.223l3.314-4.762c0.168-0.242 0.109-0.574-0.133-0.742-0.242-0.171-0.574-0.11-0.742 0.133z"></path>
<path d="M5.6 3.2c-1.323 0-2.4 1.077-2.4 2.4s1.077 2.4 2.4 2.4 2.4-1.077 2.4-2.4-1.077-2.4-2.4-2.4zM5.6 6.933c-0.735 0-1.333-0.598-1.333-1.333s0.598-1.333 1.333-1.333 1.333 0.598 1.333 1.333-0.598 1.333-1.333 1.333z"></path>
<path d="M27.2 4.8c0 0.295-0.239 0.533-0.533 0.533s-0.533-0.239-0.533-0.533c0-0.295 0.239-0.533 0.533-0.533s0.533 0.239 0.533 0.533z"></path>
<path d="M25.067 4.8c0 0.295-0.239 0.533-0.533 0.533s-0.533-0.239-0.533-0.533c0-0.295 0.239-0.533 0.533-0.533s0.533 0.239 0.533 0.533z"></path>
<path d="M28.267 6.4c0 0.295-0.239 0.533-0.533 0.533s-0.533-0.239-0.533-0.533c0-0.295 0.239-0.533 0.533-0.533s0.533 0.239 0.533 0.533z"></path>
<path d="M26.133 6.4c0 0.295-0.239 0.533-0.533 0.533s-0.533-0.239-0.533-0.533c0-0.295 0.239-0.533 0.533-0.533s0.533 0.239 0.533 0.533z"></path>
<path d="M22.933 4.8c0 0.295-0.239 0.533-0.533 0.533s-0.533-0.239-0.533-0.533c0-0.295 0.239-0.533 0.533-0.533s0.533 0.239 0.533 0.533z"></path>
<path d="M24 6.4c0 0.295-0.239 0.533-0.533 0.533s-0.533-0.239-0.533-0.533c0-0.295 0.239-0.533 0.533-0.533s0.533 0.239 0.533 0.533z"></path>
<path d="M20.8 4.8c0 0.295-0.239 0.533-0.533 0.533s-0.533-0.239-0.533-0.533c0-0.295 0.239-0.533 0.533-0.533s0.533 0.239 0.533 0.533z"></path>
<path d="M21.867 6.4c0 0.295-0.239 0.533-0.533 0.533s-0.533-0.239-0.533-0.533c0-0.295 0.239-0.533 0.533-0.533s0.533 0.239 0.533 0.533z"></path>
<path d="M18.667 4.8c0 0.295-0.239 0.533-0.533 0.533s-0.533-0.239-0.533-0.533c0-0.295 0.239-0.533 0.533-0.533s0.533 0.239 0.533 0.533z"></path>
<path d="M19.733 6.4c0 0.295-0.239 0.533-0.533 0.533s-0.533-0.239-0.533-0.533c0-0.295 0.239-0.533 0.533-0.533s0.533 0.239 0.533 0.533z"></path>
<path d="M32 8.742v-6.285c0-1.355-1.102-2.458-2.458-2.458h-27.085c-1.355 0-2.458 1.102-2.458 2.458v6.284c0 0.783 0.375 1.474 0.948 1.925-0.573 0.451-0.948 1.141-0.948 1.924v6.284c0 0.783 0.375 1.474 0.948 1.925-0.573 0.451-0.948 1.141-0.948 1.924v6.284c0 1.356 1.102 2.458 2.458 2.458h19.947c0.82 0.342 1.719 0.533 2.662 0.533 3.823 0 6.933-3.11 6.933-6.933 0-1.505-0.487-2.895-1.305-4.033 0.78-0.417 1.305-1.237 1.305-2.158v-6.285c0-0.783-0.375-1.474-0.948-1.924 0.573-0.451 0.948-1.141 0.948-1.924zM20.638 30.4h-18.181c-0.767 0-1.391-0.624-1.391-1.391v-6.285c0-0.767 0.624-1.391 1.391-1.391h16.773c-0.037 0.058-0.070 0.119-0.106 0.178-0.095 0.158-0.184 0.321-0.267 0.486-0.042 0.085-0.085 0.169-0.123 0.255-0.041 0.092-0.079 0.186-0.116 0.28-0.038 0.097-0.074 0.194-0.107 0.292-0.029 0.086-0.060 0.171-0.086 0.259-0.053 0.176-0.099 0.354-0.138 0.533-0.013 0.063-0.023 0.129-0.035 0.193-0.027 0.145-0.050 0.291-0.067 0.438-0.007 0.065-0.015 0.129-0.021 0.194-0.019 0.208-0.031 0.415-0.031 0.625 0 0.253 0.015 0.501 0.042 0.747 0.007 0.070 0.022 0.139 0.032 0.209 0.025 0.175 0.051 0.349 0.088 0.521 0.018 0.082 0.042 0.161 0.062 0.241 0.040 0.156 0.082 0.31 0.132 0.461 0.029 0.087 0.062 0.171 0.094 0.257 0.052 0.139 0.107 0.276 0.168 0.411 0.041 0.091 0.085 0.18 0.13 0.269 0.062 0.122 0.126 0.242 0.195 0.359 0.054 0.093 0.109 0.185 0.167 0.276 0.069 0.106 0.141 0.209 0.215 0.311 0.067 0.093 0.134 0.186 0.206 0.275 0.076 0.094 0.156 0.183 0.237 0.273 0.078 0.088 0.155 0.177 0.237 0.261 0.093 0.094 0.193 0.181 0.291 0.27 0.070 0.063 0.135 0.133 0.209 0.194zM25.067 30.933c-0.802 0-1.566-0.163-2.263-0.455l-0.045-0.020c-0.154-0.066-0.304-0.139-0.451-0.218-0.045-0.023-0.087-0.051-0.131-0.076-0.11-0.063-0.219-0.128-0.325-0.197-0.041-0.027-0.082-0.055-0.122-0.083-0.12-0.083-0.237-0.171-0.35-0.262-0.018-0.015-0.037-0.029-0.055-0.044-0.139-0.115-0.273-0.237-0.401-0.364-0.003-0.003-0.006-0.006-0.009-0.010-0.119-0.119-0.232-0.245-0.341-0.375-0.021-0.025-0.042-0.051-0.062-0.076-0.097-0.119-0.189-0.242-0.276-0.369-0.013-0.020-0.028-0.038-0.041-0.058-0.097-0.144-0.187-0.293-0.271-0.446-0.017-0.030-0.030-0.060-0.046-0.091-0.063-0.12-0.122-0.242-0.177-0.367-0.022-0.051-0.044-0.102-0.065-0.154-0.049-0.121-0.094-0.243-0.135-0.367-0.013-0.041-0.029-0.081-0.042-0.122-0.049-0.159-0.090-0.321-0.125-0.485-0.011-0.051-0.019-0.102-0.028-0.153-0.023-0.126-0.043-0.253-0.059-0.382-0.006-0.053-0.013-0.107-0.018-0.161-0.016-0.174-0.027-0.352-0.027-0.532 0-0.19 0.011-0.378 0.029-0.564 0.009-0.086 0.023-0.171 0.036-0.256 0.014-0.097 0.026-0.194 0.044-0.289 0.021-0.107 0.048-0.213 0.075-0.319 0.018-0.069 0.034-0.139 0.053-0.207 0.034-0.117 0.074-0.233 0.116-0.348 0.019-0.053 0.037-0.106 0.058-0.158 0.049-0.122 0.101-0.243 0.158-0.361 0.020-0.042 0.039-0.084 0.060-0.125 0.062-0.124 0.13-0.246 0.201-0.365 0.020-0.033 0.039-0.066 0.060-0.099 0.077-0.123 0.159-0.244 0.245-0.363 0.019-0.026 0.038-0.051 0.057-0.077 0.091-0.121 0.187-0.238 0.288-0.352 0.017-0.020 0.035-0.038 0.053-0.058 0.122-0.133 0.249-0.261 0.381-0.382 0.019-0.018 0.039-0.036 0.058-0.053 0.135-0.121 0.275-0.234 0.42-0.341 0.017-0.012 0.034-0.026 0.051-0.038 0.153-0.111 0.311-0.213 0.474-0.309 0.010-0.006 0.020-0.012 0.030-0.018 0.173-0.1 0.351-0.191 0.533-0.273 0.001-0.001 0.002-0.001 0.003-0.001 0.553-0.247 1.142-0.409 1.749-0.476 0.006-0.001 0.013-0.002 0.020-0.003 0.204-0.022 0.409-0.033 0.616-0.033 1.028 0 2.031 0.275 2.911 0.78 0.002 0.001 0.004 0.002 0.005 0.003 0.17 0.098 0.335 0.205 0.495 0.321 0.012 0.009 0.024 0.018 0.036 0.027 0.149 0.109 0.293 0.224 0.431 0.347 0.017 0.015 0.034 0.031 0.051 0.046 0.133 0.121 0.262 0.248 0.385 0.382 0.959 1.045 1.551 2.433 1.551 3.96 0 3.235-2.632 5.867-5.867 5.867zM30.933 12.591v6.284c0 0.599-0.394 1.123-0.949 1.31-1.105-1.113-2.583-1.854-4.229-2.018-0.228-0.023-0.458-0.035-0.689-0.035-1.955 0-3.719 0.817-4.981 2.122-0.004 0.004-0.008 0.007-0.012 0.011h-17.616c-0.767 0-1.391-0.624-1.391-1.391v-6.285c0-0.767 0.624-1.391 1.391-1.391h27.084c0.767 0 1.391 0.624 1.391 1.391zM2.458 10.133c-0.767 0-1.391-0.624-1.391-1.391v-6.285c0-0.767 0.624-1.391 1.391-1.391h27.084c0.767 0 1.391 0.624 1.391 1.391v6.284c0 0.767-0.624 1.391-1.391 1.391h-27.085z"></path>
<path d="M5.6 18.133c1.323 0 2.4-1.077 2.4-2.4s-1.077-2.4-2.4-2.4-2.4 1.077-2.4 2.4 1.077 2.4 2.4 2.4zM5.6 14.4c0.735 0 1.333 0.598 1.333 1.333s-0.598 1.333-1.333 1.333-1.333-0.598-1.333-1.333 0.598-1.333 1.333-1.333z"></path>
<path d="M27.2 14.933c0 0.295-0.239 0.533-0.533 0.533s-0.533-0.239-0.533-0.533c0-0.295 0.239-0.533 0.533-0.533s0.533 0.239 0.533 0.533z"></path>
<path d="M25.067 14.933c0 0.295-0.239 0.533-0.533 0.533s-0.533-0.239-0.533-0.533c0-0.295 0.239-0.533 0.533-0.533s0.533 0.239 0.533 0.533z"></path>
<path d="M28.267 16.533c0 0.295-0.239 0.533-0.533 0.533s-0.533-0.239-0.533-0.533c0-0.295 0.239-0.533 0.533-0.533s0.533 0.239 0.533 0.533z"></path>
<path d="M26.133 16.533c0 0.295-0.239 0.533-0.533 0.533s-0.533-0.239-0.533-0.533c0-0.295 0.239-0.533 0.533-0.533s0.533 0.239 0.533 0.533z"></path>
<path d="M22.933 14.933c0 0.295-0.239 0.533-0.533 0.533s-0.533-0.239-0.533-0.533c0-0.295 0.239-0.533 0.533-0.533s0.533 0.239 0.533 0.533z"></path>
<path d="M24 16.533c0 0.295-0.239 0.533-0.533 0.533s-0.533-0.239-0.533-0.533c0-0.295 0.239-0.533 0.533-0.533s0.533 0.239 0.533 0.533z"></path>
<path d="M20.8 14.933c0 0.295-0.239 0.533-0.533 0.533s-0.533-0.239-0.533-0.533c0-0.295 0.239-0.533 0.533-0.533s0.533 0.239 0.533 0.533z"></path>
<path d="M21.867 16.533c0 0.295-0.239 0.533-0.533 0.533s-0.533-0.239-0.533-0.533c0-0.295 0.239-0.533 0.533-0.533s0.533 0.239 0.533 0.533z"></path>
<path d="M18.667 14.933c0 0.295-0.239 0.533-0.533 0.533s-0.533-0.239-0.533-0.533c0-0.295 0.239-0.533 0.533-0.533s0.533 0.239 0.533 0.533z"></path>
<path d="M19.733 16.533c0 0.295-0.239 0.533-0.533 0.533s-0.533-0.239-0.533-0.533c0-0.295 0.239-0.533 0.533-0.533s0.533 0.239 0.533 0.533z"></path>
<path d="M5.6 23.467c-1.323 0-2.4 1.077-2.4 2.4s1.077 2.4 2.4 2.4 2.4-1.077 2.4-2.4-1.077-2.4-2.4-2.4zM5.6 27.2c-0.735 0-1.333-0.598-1.333-1.333s0.598-1.333 1.333-1.333 1.333 0.598 1.333 1.333-0.598 1.333-1.333 1.333z"></path>
</svg>
