<!-- Generated by IcoMoon.io -->
<svg version="1.1" xmlns="http://www.w3.org/2000/svg" width="32" height="32" viewBox="0 0 32 32">
<path d="M31.039 25.611c-0.293-0.055-0.57 0.129-0.629 0.417-0.595 2.934-2.904 4.906-5.744 4.906-2.682 0-5.038-1.76-5.839-4.267h2.506v-1.067h-4.267v4.267h1.067v-2.053c1.157 2.497 3.688 4.186 6.533 4.186 3.362 0 6.091-2.315 6.79-5.761 0.059-0.289-0.128-0.57-0.417-0.629z"></path>
<path d="M30.933 21.498c-1.2-2.376-3.575-3.898-6.267-3.898-3.258 0-6.155 2.132-7.045 5.185-0.082 0.283 0.080 0.579 0.363 0.661s0.579-0.080 0.661-0.363c0.746-2.558 3.277-4.415 6.021-4.415 2.435 0 4.566 1.475 5.509 3.733h-2.442v1.067h4.267v-4.267h-1.067v2.298z"></path>
<path d="M5.6 3.2c-1.323 0-2.4 1.077-2.4 2.4s1.077 2.4 2.4 2.4 2.4-1.077 2.4-2.4-1.077-2.4-2.4-2.4zM5.6 6.933c-0.735 0-1.333-0.598-1.333-1.333s0.598-1.333 1.333-1.333 1.333 0.598 1.333 1.333-0.598 1.333-1.333 1.333z"></path>
<path d="M27.2 4.8c0 0.295-0.239 0.533-0.533 0.533s-0.533-0.239-0.533-0.533c0-0.295 0.239-0.533 0.533-0.533s0.533 0.239 0.533 0.533z"></path>
<path d="M25.067 4.8c0 0.295-0.239 0.533-0.533 0.533s-0.533-0.239-0.533-0.533c0-0.295 0.239-0.533 0.533-0.533s0.533 0.239 0.533 0.533z"></path>
<path d="M28.267 6.4c0 0.295-0.239 0.533-0.533 0.533s-0.533-0.239-0.533-0.533c0-0.295 0.239-0.533 0.533-0.533s0.533 0.239 0.533 0.533z"></path>
<path d="M26.133 6.4c0 0.295-0.239 0.533-0.533 0.533s-0.533-0.239-0.533-0.533c0-0.295 0.239-0.533 0.533-0.533s0.533 0.239 0.533 0.533z"></path>
<path d="M22.933 4.8c0 0.295-0.239 0.533-0.533 0.533s-0.533-0.239-0.533-0.533c0-0.295 0.239-0.533 0.533-0.533s0.533 0.239 0.533 0.533z"></path>
<path d="M24 6.4c0 0.295-0.239 0.533-0.533 0.533s-0.533-0.239-0.533-0.533c0-0.295 0.239-0.533 0.533-0.533s0.533 0.239 0.533 0.533z"></path>
<path d="M20.8 4.8c0 0.295-0.239 0.533-0.533 0.533s-0.533-0.239-0.533-0.533c0-0.295 0.239-0.533 0.533-0.533s0.533 0.239 0.533 0.533z"></path>
<path d="M21.867 6.4c0 0.295-0.239 0.533-0.533 0.533s-0.533-0.239-0.533-0.533c0-0.295 0.239-0.533 0.533-0.533s0.533 0.239 0.533 0.533z"></path>
<path d="M18.667 4.8c0 0.295-0.239 0.533-0.533 0.533s-0.533-0.239-0.533-0.533c0-0.295 0.239-0.533 0.533-0.533s0.533 0.239 0.533 0.533z"></path>
<path d="M19.733 6.4c0 0.295-0.239 0.533-0.533 0.533s-0.533-0.239-0.533-0.533c0-0.295 0.239-0.533 0.533-0.533s0.533 0.239 0.533 0.533z"></path>
<path d="M32 8.742v-6.285c0-1.355-1.102-2.458-2.458-2.458h-27.085c-1.355 0-2.458 1.102-2.458 2.458v6.284c0 0.783 0.375 1.474 0.948 1.925-0.573 0.451-0.948 1.141-0.948 1.924v6.284c0 0.783 0.375 1.474 0.948 1.925-0.573 0.451-0.948 1.141-0.948 1.924v6.284c0 1.356 1.102 2.458 2.458 2.458h12.476v-1.067h-12.476c-0.767 0-1.391-0.624-1.391-1.391v-6.285c0-0.767 0.624-1.391 1.391-1.391h13.542v-1.067h-13.542c-0.767 0-1.391-0.624-1.391-1.391v-6.285c0-0.767 0.624-1.391 1.391-1.391h27.084c0.767 0 1.391 0.624 1.391 1.391v3.942h1.067v-3.942c0-0.783-0.375-1.474-0.948-1.924 0.573-0.451 0.948-1.141 0.948-1.924zM2.458 10.133c-0.767 0-1.391-0.624-1.391-1.391v-6.285c0-0.767 0.624-1.391 1.391-1.391h27.084c0.767 0 1.391 0.624 1.391 1.391v6.284c0 0.767-0.624 1.391-1.391 1.391h-27.085z"></path>
<path d="M3.2 15.733c0 1.323 1.077 2.4 2.4 2.4s2.4-1.077 2.4-2.4-1.077-2.4-2.4-2.4-2.4 1.077-2.4 2.4zM6.933 15.733c0 0.735-0.598 1.333-1.333 1.333s-1.333-0.598-1.333-1.333 0.598-1.333 1.333-1.333 1.333 0.598 1.333 1.333z"></path>
<path d="M27.2 14.933c0 0.295-0.239 0.533-0.533 0.533s-0.533-0.239-0.533-0.533c0-0.295 0.239-0.533 0.533-0.533s0.533 0.239 0.533 0.533z"></path>
<path d="M25.067 14.933c0 0.295-0.239 0.533-0.533 0.533s-0.533-0.239-0.533-0.533c0-0.295 0.239-0.533 0.533-0.533s0.533 0.239 0.533 0.533z"></path>
<path d="M28.267 16.533c0 0.295-0.239 0.533-0.533 0.533s-0.533-0.239-0.533-0.533c0-0.295 0.239-0.533 0.533-0.533s0.533 0.239 0.533 0.533z"></path>
<path d="M26.133 16.533c0 0.295-0.239 0.533-0.533 0.533s-0.533-0.239-0.533-0.533c0-0.295 0.239-0.533 0.533-0.533s0.533 0.239 0.533 0.533z"></path>
<path d="M22.933 14.933c0 0.295-0.239 0.533-0.533 0.533s-0.533-0.239-0.533-0.533c0-0.295 0.239-0.533 0.533-0.533s0.533 0.239 0.533 0.533z"></path>
<path d="M24 16.533c0 0.295-0.239 0.533-0.533 0.533s-0.533-0.239-0.533-0.533c0-0.295 0.239-0.533 0.533-0.533s0.533 0.239 0.533 0.533z"></path>
<path d="M20.8 14.933c0 0.295-0.239 0.533-0.533 0.533s-0.533-0.239-0.533-0.533c0-0.295 0.239-0.533 0.533-0.533s0.533 0.239 0.533 0.533z"></path>
<path d="M21.867 16.533c0 0.295-0.239 0.533-0.533 0.533s-0.533-0.239-0.533-0.533c0-0.295 0.239-0.533 0.533-0.533s0.533 0.239 0.533 0.533z"></path>
<path d="M18.667 14.933c0 0.295-0.239 0.533-0.533 0.533s-0.533-0.239-0.533-0.533c0-0.295 0.239-0.533 0.533-0.533s0.533 0.239 0.533 0.533z"></path>
<path d="M19.733 16.533c0 0.295-0.239 0.533-0.533 0.533s-0.533-0.239-0.533-0.533c0-0.295 0.239-0.533 0.533-0.533s0.533 0.239 0.533 0.533z"></path>
<path d="M3.2 25.867c0 1.323 1.077 2.4 2.4 2.4s2.4-1.077 2.4-2.4-1.077-2.4-2.4-2.4-2.4 1.077-2.4 2.4zM6.933 25.867c0 0.735-0.598 1.333-1.333 1.333s-1.333-0.598-1.333-1.333 0.598-1.333 1.333-1.333 1.333 0.598 1.333 1.333z"></path>
</svg>
