<!-- Generated by IcoMoon.io -->
<svg version="1.1" xmlns="http://www.w3.org/2000/svg" width="32" height="32" viewBox="0 0 32 32">
<path d="M28.267 21.867c0-2.058-1.675-3.733-3.733-3.733s-3.733 1.675-3.733 3.733v0.533h-2.133v9.6h11.733v-9.6h-2.133v-0.533zM21.867 21.867c0-1.47 1.196-2.667 2.667-2.667s2.667 1.196 2.667 2.667v0.533h-5.333v-0.533zM29.333 23.467v7.467h-9.6v-7.467h9.6z"></path>
<path d="M24 29.258v0.609c0 0.295 0.239 0.533 0.533 0.533s0.533-0.238 0.533-0.533v-0.609c0.917-0.238 1.6-1.066 1.6-2.058 0-1.177-0.957-2.133-2.133-2.133s-2.133 0.957-2.133 2.133c0 0.991 0.683 1.819 1.6 2.058zM24.533 26.133c0.588 0 1.067 0.478 1.067 1.067s-0.478 1.067-1.067 1.067-1.067-0.478-1.067-1.067 0.478-1.067 1.067-1.067z"></path>
<path d="M5.6 3.2c-1.323 0-2.4 1.077-2.4 2.4s1.077 2.4 2.4 2.4 2.4-1.077 2.4-2.4-1.077-2.4-2.4-2.4zM5.6 6.933c-0.735 0-1.333-0.598-1.333-1.333s0.598-1.333 1.333-1.333 1.333 0.598 1.333 1.333-0.598 1.333-1.333 1.333z"></path>
<path d="M27.2 4.8c0 0.295-0.239 0.533-0.533 0.533s-0.533-0.239-0.533-0.533c0-0.295 0.239-0.533 0.533-0.533s0.533 0.239 0.533 0.533z"></path>
<path d="M25.067 4.8c0 0.295-0.239 0.533-0.533 0.533s-0.533-0.239-0.533-0.533c0-0.295 0.239-0.533 0.533-0.533s0.533 0.239 0.533 0.533z"></path>
<path d="M28.267 6.4c0 0.295-0.239 0.533-0.533 0.533s-0.533-0.239-0.533-0.533c0-0.295 0.239-0.533 0.533-0.533s0.533 0.239 0.533 0.533z"></path>
<path d="M26.133 6.4c0 0.295-0.239 0.533-0.533 0.533s-0.533-0.239-0.533-0.533c0-0.295 0.239-0.533 0.533-0.533s0.533 0.239 0.533 0.533z"></path>
<path d="M22.933 4.8c0 0.295-0.239 0.533-0.533 0.533s-0.533-0.239-0.533-0.533c0-0.295 0.239-0.533 0.533-0.533s0.533 0.239 0.533 0.533z"></path>
<path d="M24 6.4c0 0.295-0.239 0.533-0.533 0.533s-0.533-0.239-0.533-0.533c0-0.295 0.239-0.533 0.533-0.533s0.533 0.239 0.533 0.533z"></path>
<path d="M20.8 4.8c0 0.295-0.239 0.533-0.533 0.533s-0.533-0.239-0.533-0.533c0-0.295 0.239-0.533 0.533-0.533s0.533 0.239 0.533 0.533z"></path>
<path d="M21.867 6.4c0 0.295-0.239 0.533-0.533 0.533s-0.533-0.239-0.533-0.533c0-0.295 0.239-0.533 0.533-0.533s0.533 0.239 0.533 0.533z"></path>
<path d="M18.667 4.8c0 0.295-0.239 0.533-0.533 0.533s-0.533-0.239-0.533-0.533c0-0.295 0.239-0.533 0.533-0.533s0.533 0.239 0.533 0.533z"></path>
<path d="M19.733 6.4c0 0.295-0.239 0.533-0.533 0.533s-0.533-0.239-0.533-0.533c0-0.295 0.239-0.533 0.533-0.533s0.533 0.239 0.533 0.533z"></path>
<path d="M32 8.742v-6.285c0-1.355-1.102-2.458-2.458-2.458h-27.085c-1.355 0-2.458 1.102-2.458 2.458v6.284c0 0.783 0.375 1.474 0.948 1.925-0.573 0.451-0.948 1.141-0.948 1.924v6.284c0 0.783 0.375 1.474 0.948 1.925-0.573 0.451-0.948 1.141-0.948 1.924v6.284c0 1.356 1.102 2.458 2.458 2.458h13.542v-1.067h-13.542c-0.767 0-1.391-0.624-1.391-1.391v-6.285c0-0.767 0.624-1.391 1.391-1.391h15.142v-1.067h-15.142c-0.767 0-1.391-0.624-1.391-1.391v-6.285c0-0.767 0.624-1.391 1.391-1.391h27.084c0.767 0 1.391 0.624 1.391 1.391v7.676h1.067v-7.676c0-0.783-0.375-1.474-0.948-1.924 0.573-0.451 0.948-1.141 0.948-1.924zM2.458 10.133c-0.767 0-1.391-0.624-1.391-1.391v-6.285c0-0.767 0.624-1.391 1.391-1.391h27.084c0.767 0 1.391 0.624 1.391 1.391v6.284c0 0.767-0.624 1.391-1.391 1.391h-27.085z"></path>
<path d="M3.2 15.733c0 1.323 1.077 2.4 2.4 2.4s2.4-1.077 2.4-2.4-1.077-2.4-2.4-2.4-2.4 1.077-2.4 2.4zM6.933 15.733c0 0.735-0.598 1.333-1.333 1.333s-1.333-0.598-1.333-1.333 0.598-1.333 1.333-1.333 1.333 0.598 1.333 1.333z"></path>
<path d="M27.2 14.933c0 0.295-0.239 0.533-0.533 0.533s-0.533-0.239-0.533-0.533c0-0.295 0.239-0.533 0.533-0.533s0.533 0.239 0.533 0.533z"></path>
<path d="M25.067 14.933c0 0.295-0.239 0.533-0.533 0.533s-0.533-0.239-0.533-0.533c0-0.295 0.239-0.533 0.533-0.533s0.533 0.239 0.533 0.533z"></path>
<path d="M28.267 16.533c0 0.295-0.239 0.533-0.533 0.533s-0.533-0.239-0.533-0.533c0-0.295 0.239-0.533 0.533-0.533s0.533 0.239 0.533 0.533z"></path>
<path d="M26.133 16.533c0 0.295-0.239 0.533-0.533 0.533s-0.533-0.239-0.533-0.533c0-0.295 0.239-0.533 0.533-0.533s0.533 0.239 0.533 0.533z"></path>
<path d="M22.933 14.933c0 0.295-0.239 0.533-0.533 0.533s-0.533-0.239-0.533-0.533c0-0.295 0.239-0.533 0.533-0.533s0.533 0.239 0.533 0.533z"></path>
<path d="M24 16.533c0 0.295-0.239 0.533-0.533 0.533s-0.533-0.239-0.533-0.533c0-0.295 0.239-0.533 0.533-0.533s0.533 0.239 0.533 0.533z"></path>
<path d="M20.8 14.933c0 0.295-0.239 0.533-0.533 0.533s-0.533-0.239-0.533-0.533c0-0.295 0.239-0.533 0.533-0.533s0.533 0.239 0.533 0.533z"></path>
<path d="M21.867 16.533c0 0.295-0.239 0.533-0.533 0.533s-0.533-0.239-0.533-0.533c0-0.295 0.239-0.533 0.533-0.533s0.533 0.239 0.533 0.533z"></path>
<path d="M18.667 14.933c0 0.295-0.239 0.533-0.533 0.533s-0.533-0.239-0.533-0.533c0-0.295 0.239-0.533 0.533-0.533s0.533 0.239 0.533 0.533z"></path>
<path d="M19.733 16.533c0 0.295-0.239 0.533-0.533 0.533s-0.533-0.239-0.533-0.533c0-0.295 0.239-0.533 0.533-0.533s0.533 0.239 0.533 0.533z"></path>
<path d="M3.2 25.867c0 1.323 1.077 2.4 2.4 2.4s2.4-1.077 2.4-2.4-1.077-2.4-2.4-2.4-2.4 1.077-2.4 2.4zM6.933 25.867c0 0.735-0.598 1.333-1.333 1.333s-1.333-0.598-1.333-1.333 0.598-1.333 1.333-1.333 1.333 0.598 1.333 1.333z"></path>
</svg>
