<!-- Generated by IcoMoon.io -->
<svg version="1.1" xmlns="http://www.w3.org/2000/svg" width="37" height="32" viewBox="0 0 37 32">
<path d="M33.093 6.244h-29.581c-1.951 0-3.512 1.561-3.512 3.512v4.293c0 0.937 0.624 1.717 1.483 1.873l11.005 2.576c0.234 0.078 0.39-0.078 0.468-0.312s-0.078-0.39-0.312-0.468l-10.927-2.498c-0.546-0.156-0.937-0.624-0.937-1.171v-4.293c0-1.483 1.249-2.732 2.732-2.732h29.581c1.483 0 2.732 1.249 2.732 2.732v4.293c0 0.546-0.39 1.015-0.937 1.171l-13.581 3.122v-0.156c0-0.859-0.702-1.639-1.639-1.639h-2.888c-0.859 0-1.639 0.702-1.639 1.639v2.888c0 0.859 0.702 1.639 1.639 1.639h2.888c0.859 0 1.639-0.702 1.639-1.639v-1.951l13.737-3.122c0.859-0.234 1.483-1.015 1.483-1.873v-4.293c0.078-2.029-1.483-3.59-3.434-3.59zM19.746 21.932h-1.015v-2.263c0-0.234-0.156-0.39-0.39-0.39s-0.39 0.156-0.39 0.312v2.263h-1.171c-0.468 0-0.859-0.39-0.859-0.859v-2.888c0-0.468 0.39-0.859 0.859-0.859h2.888c0.468 0 0.859 0.39 0.859 0.859v0.624c0 0 0 0.078 0 0.078v2.263c0 0.468-0.312 0.859-0.78 0.859z"></path>
<path d="M35.512 18.107c-0.234 0-0.39 0.156-0.39 0.39v9.912c0 1.561-1.249 2.81-2.81 2.81h-27.941c-1.561 0-2.81-1.249-2.81-2.81v-9.912c0-0.234-0.156-0.39-0.39-0.39s-0.39 0.156-0.39 0.39v9.912c0 1.951 1.561 3.59 3.59 3.59h28.020c1.951 0 3.59-1.639 3.59-3.59v-9.912c-0.078-0.234-0.234-0.39-0.468-0.39z"></path>
<path d="M12.176 4.215c0.234 0 0.39-0.156 0.39-0.39v-1.405c0-0.937 0.702-1.639 1.639-1.639h8.273c0.859 0 1.639 0.702 1.639 1.639v1.405c0 0.234 0.156 0.39 0.39 0.39s0.39-0.156 0.39-0.39v-1.405c0-1.327-1.093-2.42-2.419-2.42h-8.273c-1.327 0-2.419 1.093-2.419 2.42v1.405c0 0.156 0.156 0.39 0.39 0.39z"></path>
</svg>
