<!-- Generated by IcoMoon.io -->
<svg version="1.1" xmlns="http://www.w3.org/2000/svg" width="32" height="32" viewBox="0 0 32 32">
<path d="M2.095 28.243h9.417v-1.601h-9.417v1.601zM9.582 27.22h1.289v0.447h-1.289v-0.447zM6.475 14.73c0-0.286 0.232-0.518 0.518-0.518s0.518 0.232 0.518 0.518c0 0.285-0.232 0.518-0.518 0.518s-0.518-0.232-0.518-0.518zM9.836 14.73c0-0.286 0.232-0.518 0.518-0.518s0.518 0.232 0.518 0.518c0 0.285-0.233 0.518-0.518 0.518s-0.518-0.232-0.518-0.518zM2.095 24.035h9.417v-1.601h-9.417v1.601zM9.582 23.011h1.289v0.447h-1.289v-0.447zM0 30.887h13.467v-18.905h-13.467v18.905zM10.353 13.365c0.753 0 1.366 0.613 1.366 1.366s-0.613 1.365-1.366 1.365c-0.753 0-1.365-0.613-1.365-1.365s0.612-1.366 1.365-1.366zM6.993 13.365c0.753 0 1.365 0.613 1.365 1.366s-0.612 1.365-1.365 1.365-1.365-0.613-1.365-1.365c0-0.753 0.612-1.366 1.365-1.366zM1.248 17.32h11.113v3.296h-11.113v-3.296zM1.248 21.587h11.113v3.296h-11.113v-3.296zM1.248 25.795h11.113v3.296h-11.113v-3.296zM2.095 19.768h9.417v-1.601h-9.417v1.601zM9.582 18.685h1.289v0.447h-1.289v-0.447zM32 15.295c0 0.829-0.076 1.641-0.213 2.432l-0.247 1.155c-1.593 6.088-7.14 10.595-13.721 10.595-0.836 0-1.654-0.077-2.451-0.217v-8.449c0.375 0.156 0.675 0.425 1.012 0.69 0.495 0.391 1.25 0.071 1.829 0.090 1.451 0.048 1.701 1.614 1.801 2.747 0.074 0.831 0.842 1.517 0.63 2.387-0.095 0.389-0.297 0.781-0.623 1.022 2.307-0.407 4.398-1.438 6.094-2.916-0.588-1.47-2.281-2.368-2.131-4.302 0.347-3.295 4.146-1.883 6.286-3.005 0.13-0.725 0.201-1.469 0.201-2.231 0-4.735-2.617-8.869-6.48-11.036 0.063 0.059 0.128 0.117 0.185 0.174 2.491 2.491 1.15 2.683 1.533 5.558 0 0.958 1.98 0.799 1.789 2.524-0.383 1.725-0.447 3.417-2.172 1.98s-2.874-0.287-3.449-0.479c-0.767-0.383-1.151-2.108-2.109-2.108-2.682 0.192-0.958 5.558-4.216 4.025-0.064-0.033-0.12-0.072-0.18-0.108v-5.679h-1.812c-0.063-2.173-0.233-4.399-2.116-5.765-2.268 1.33-4.076 3.35-5.158 5.765h-1.673c2.066-5.28 7.206-9.032 13.21-9.032 7.821 0 14.183 6.362 14.183 14.182z"></path>
</svg>
