<!-- Generated by IcoMoon.io -->
<svg version="1.1" xmlns="http://www.w3.org/2000/svg" width="32" height="32" viewBox="0 0 32 32">
<path d="M31.567 23.927l-0.77-0.148c-0.361-0.069-0.645-0.306-0.78-0.649s-0.087-0.709 0.131-1.005l0.484-0.659c0.156-0.212 0.133-0.507-0.053-0.693l-1.045-1.044c-0.181-0.18-0.465-0.207-0.676-0.065l-0.649 0.439c-0.304 0.207-0.673 0.241-1.011 0.093-0.337-0.147-0.563-0.44-0.619-0.804l-0.124-0.808c-0.039-0.26-0.263-0.452-0.526-0.452h-1.477c-0.255 0-0.476 0.182-0.524 0.433l-0.191 0.995c-0.068 0.353-0.298 0.635-0.63 0.772-0.333 0.139-0.694 0.101-0.992-0.101l-0.838-0.567c-0.212-0.143-0.495-0.116-0.676 0.065l-1.045 1.044c-0.187 0.186-0.209 0.48-0.053 0.693l0.484 0.659c0.218 0.297 0.266 0.663 0.131 1.005s-0.419 0.579-0.78 0.649l-0.77 0.148c-0.251 0.048-0.433 0.268-0.433 0.524v1.477c0 0.263 0.192 0.487 0.452 0.527l0.808 0.124c0.364 0.056 0.657 0.282 0.804 0.619s0.113 0.706-0.093 1.011l-0.439 0.649c-0.143 0.211-0.116 0.495 0.065 0.676l1.044 1.045c0.186 0.186 0.479 0.209 0.693 0.053l0.659-0.484c0.296-0.217 0.663-0.266 1.005-0.131 0.343 0.134 0.579 0.419 0.649 0.78l0.148 0.77c0.048 0.25 0.268 0.432 0.524 0.432h1.477c0.263 0 0.487-0.192 0.527-0.452l0.087-0.568c0.056-0.367 0.294-0.67 0.636-0.812 0.343-0.142 0.726-0.095 1.025 0.124l0.463 0.34c0.213 0.156 0.507 0.133 0.693-0.053l1.044-1.045c0.181-0.181 0.208-0.465 0.065-0.676l-0.439-0.649c-0.206-0.305-0.241-0.673-0.093-1.011s0.44-0.563 0.804-0.619l0.808-0.124c0.26-0.040 0.452-0.264 0.452-0.527v-1.477c0-0.255-0.182-0.475-0.433-0.524zM30.933 25.471l-0.356 0.055c-0.722 0.111-1.327 0.577-1.619 1.246s-0.222 1.43 0.188 2.035l0.193 0.284-0.41 0.41-0.094-0.069c-0.603-0.441-1.373-0.534-2.063-0.249-0.69 0.286-1.169 0.897-1.283 1.635l-0.018 0.116h-0.579l-0.065-0.338c-0.138-0.718-0.627-1.305-1.306-1.572s-1.437-0.167-2.027 0.263l-0.29 0.213-0.41-0.41 0.193-0.284c0.41-0.605 0.479-1.365 0.188-2.035s-0.898-1.135-1.619-1.246l-0.356-0.054v-0.579l0.338-0.065c0.718-0.138 1.305-0.627 1.572-1.306s0.168-1.437-0.263-2.027l-0.213-0.29 0.41-0.41 0.474 0.321c0.59 0.401 1.339 0.476 1.998 0.203s1.134-0.855 1.269-1.557l0.107-0.562h0.579l0.055 0.356c0.111 0.722 0.577 1.327 1.246 1.619s1.43 0.222 2.035-0.188l0.284-0.193 0.41 0.41-0.213 0.29c-0.432 0.589-0.53 1.346-0.263 2.027 0.267 0.679 0.854 1.168 1.572 1.306l0.337 0.065v0.579z"></path>
<path d="M25.067 22.4c-1.47 0-2.667 1.196-2.667 2.667s1.196 2.667 2.667 2.667 2.667-1.196 2.667-2.667-1.196-2.667-2.667-2.667zM25.067 26.667c-0.882 0-1.6-0.718-1.6-1.6s0.718-1.6 1.6-1.6 1.6 0.718 1.6 1.6-0.718 1.6-1.6 1.6z"></path>
<path d="M5.6 3.2c-1.323 0-2.4 1.077-2.4 2.4s1.077 2.4 2.4 2.4 2.4-1.077 2.4-2.4-1.077-2.4-2.4-2.4zM5.6 6.933c-0.735 0-1.333-0.598-1.333-1.333s0.598-1.333 1.333-1.333 1.333 0.598 1.333 1.333-0.598 1.333-1.333 1.333z"></path>
<path d="M27.2 4.8c0 0.295-0.239 0.533-0.533 0.533s-0.533-0.239-0.533-0.533c0-0.295 0.239-0.533 0.533-0.533s0.533 0.239 0.533 0.533z"></path>
<path d="M25.067 4.8c0 0.295-0.239 0.533-0.533 0.533s-0.533-0.239-0.533-0.533c0-0.295 0.239-0.533 0.533-0.533s0.533 0.239 0.533 0.533z"></path>
<path d="M28.267 6.4c0 0.295-0.239 0.533-0.533 0.533s-0.533-0.239-0.533-0.533c0-0.295 0.239-0.533 0.533-0.533s0.533 0.239 0.533 0.533z"></path>
<path d="M26.133 6.4c0 0.295-0.239 0.533-0.533 0.533s-0.533-0.239-0.533-0.533c0-0.295 0.239-0.533 0.533-0.533s0.533 0.239 0.533 0.533z"></path>
<path d="M22.933 4.8c0 0.295-0.239 0.533-0.533 0.533s-0.533-0.239-0.533-0.533c0-0.295 0.239-0.533 0.533-0.533s0.533 0.239 0.533 0.533z"></path>
<path d="M24 6.4c0 0.295-0.239 0.533-0.533 0.533s-0.533-0.239-0.533-0.533c0-0.295 0.239-0.533 0.533-0.533s0.533 0.239 0.533 0.533z"></path>
<path d="M20.8 4.8c0 0.295-0.239 0.533-0.533 0.533s-0.533-0.239-0.533-0.533c0-0.295 0.239-0.533 0.533-0.533s0.533 0.239 0.533 0.533z"></path>
<path d="M21.867 6.4c0 0.295-0.239 0.533-0.533 0.533s-0.533-0.239-0.533-0.533c0-0.295 0.239-0.533 0.533-0.533s0.533 0.239 0.533 0.533z"></path>
<path d="M18.667 4.8c0 0.295-0.239 0.533-0.533 0.533s-0.533-0.239-0.533-0.533c0-0.295 0.239-0.533 0.533-0.533s0.533 0.239 0.533 0.533z"></path>
<path d="M19.733 6.4c0 0.295-0.239 0.533-0.533 0.533s-0.533-0.239-0.533-0.533c0-0.295 0.239-0.533 0.533-0.533s0.533 0.239 0.533 0.533z"></path>
<path d="M32 8.742v-6.285c0-1.355-1.102-2.458-2.458-2.458h-27.085c-1.355 0-2.458 1.102-2.458 2.458v6.284c0 0.783 0.375 1.474 0.948 1.925-0.573 0.451-0.948 1.141-0.948 1.924v6.284c0 0.783 0.375 1.474 0.948 1.925-0.573 0.451-0.948 1.141-0.948 1.924v6.284c0 1.356 1.102 2.458 2.458 2.458h15.142v-1.067h-15.142c-0.767 0-1.391-0.624-1.391-1.391v-6.285c0-0.767 0.624-1.391 1.391-1.391h12.476v-1.067h-12.476c-0.767 0-1.391-0.624-1.391-1.391v-6.285c0-0.767 0.624-1.391 1.391-1.391h27.084c0.767 0 1.391 0.624 1.391 1.391v6.076h1.067v-6.076c0-0.783-0.375-1.474-0.948-1.924 0.573-0.451 0.948-1.141 0.948-1.924zM2.458 10.133c-0.767 0-1.391-0.624-1.391-1.391v-6.285c0-0.767 0.624-1.391 1.391-1.391h27.084c0.767 0 1.391 0.624 1.391 1.391v6.284c0 0.767-0.624 1.391-1.391 1.391h-27.085z"></path>
<path d="M3.2 15.733c0 1.323 1.077 2.4 2.4 2.4s2.4-1.077 2.4-2.4-1.077-2.4-2.4-2.4-2.4 1.077-2.4 2.4zM6.933 15.733c0 0.735-0.598 1.333-1.333 1.333s-1.333-0.598-1.333-1.333 0.598-1.333 1.333-1.333 1.333 0.598 1.333 1.333z"></path>
<path d="M27.2 14.933c0 0.295-0.239 0.533-0.533 0.533s-0.533-0.239-0.533-0.533c0-0.295 0.239-0.533 0.533-0.533s0.533 0.239 0.533 0.533z"></path>
<path d="M25.067 14.933c0 0.295-0.239 0.533-0.533 0.533s-0.533-0.239-0.533-0.533c0-0.295 0.239-0.533 0.533-0.533s0.533 0.239 0.533 0.533z"></path>
<path d="M28.267 16.533c0 0.295-0.239 0.533-0.533 0.533s-0.533-0.239-0.533-0.533c0-0.295 0.239-0.533 0.533-0.533s0.533 0.239 0.533 0.533z"></path>
<path d="M26.133 16.533c0 0.295-0.239 0.533-0.533 0.533s-0.533-0.239-0.533-0.533c0-0.295 0.239-0.533 0.533-0.533s0.533 0.239 0.533 0.533z"></path>
<path d="M22.933 14.933c0 0.295-0.239 0.533-0.533 0.533s-0.533-0.239-0.533-0.533c0-0.295 0.239-0.533 0.533-0.533s0.533 0.239 0.533 0.533z"></path>
<path d="M24 16.533c0 0.295-0.239 0.533-0.533 0.533s-0.533-0.239-0.533-0.533c0-0.295 0.239-0.533 0.533-0.533s0.533 0.239 0.533 0.533z"></path>
<path d="M20.8 14.933c0 0.295-0.239 0.533-0.533 0.533s-0.533-0.239-0.533-0.533c0-0.295 0.239-0.533 0.533-0.533s0.533 0.239 0.533 0.533z"></path>
<path d="M21.867 16.533c0 0.295-0.239 0.533-0.533 0.533s-0.533-0.239-0.533-0.533c0-0.295 0.239-0.533 0.533-0.533s0.533 0.239 0.533 0.533z"></path>
<path d="M18.667 14.933c0 0.295-0.239 0.533-0.533 0.533s-0.533-0.239-0.533-0.533c0-0.295 0.239-0.533 0.533-0.533s0.533 0.239 0.533 0.533z"></path>
<path d="M19.733 16.533c0 0.295-0.239 0.533-0.533 0.533s-0.533-0.239-0.533-0.533c0-0.295 0.239-0.533 0.533-0.533s0.533 0.239 0.533 0.533z"></path>
<path d="M3.2 25.867c0 1.323 1.077 2.4 2.4 2.4s2.4-1.077 2.4-2.4-1.077-2.4-2.4-2.4-2.4 1.077-2.4 2.4zM6.933 25.867c0 0.735-0.598 1.333-1.333 1.333s-1.333-0.598-1.333-1.333 0.598-1.333 1.333-1.333 1.333 0.598 1.333 1.333z"></path>
</svg>
