<!-- Generated by IcoMoon.io -->
<svg version="1.1" xmlns="http://www.w3.org/2000/svg" width="32" height="32" viewBox="0 0 32 32">
<path d="M5.6 3.733c-1.323 0-2.4 1.077-2.4 2.4s1.077 2.4 2.4 2.4 2.4-1.077 2.4-2.4-1.077-2.4-2.4-2.4zM5.6 7.467c-0.735 0-1.333-0.598-1.333-1.333s0.598-1.333 1.333-1.333 1.333 0.598 1.333 1.333-0.598 1.333-1.333 1.333z"></path>
<path d="M27.2 5.333c0 0.295-0.239 0.533-0.533 0.533s-0.533-0.239-0.533-0.533c0-0.295 0.239-0.533 0.533-0.533s0.533 0.239 0.533 0.533z"></path>
<path d="M25.067 5.333c0 0.295-0.239 0.533-0.533 0.533s-0.533-0.239-0.533-0.533c0-0.295 0.239-0.533 0.533-0.533s0.533 0.239 0.533 0.533z"></path>
<path d="M28.267 6.933c0 0.295-0.239 0.533-0.533 0.533s-0.533-0.239-0.533-0.533c0-0.295 0.239-0.533 0.533-0.533s0.533 0.239 0.533 0.533z"></path>
<path d="M26.133 6.933c0 0.295-0.239 0.533-0.533 0.533s-0.533-0.239-0.533-0.533c0-0.295 0.239-0.533 0.533-0.533s0.533 0.239 0.533 0.533z"></path>
<path d="M22.933 5.333c0 0.295-0.239 0.533-0.533 0.533s-0.533-0.239-0.533-0.533c0-0.295 0.239-0.533 0.533-0.533s0.533 0.239 0.533 0.533z"></path>
<path d="M24 6.933c0 0.295-0.239 0.533-0.533 0.533s-0.533-0.239-0.533-0.533c0-0.295 0.239-0.533 0.533-0.533s0.533 0.239 0.533 0.533z"></path>
<path d="M20.8 5.333c0 0.295-0.239 0.533-0.533 0.533s-0.533-0.239-0.533-0.533c0-0.295 0.239-0.533 0.533-0.533s0.533 0.239 0.533 0.533z"></path>
<path d="M21.867 6.933c0 0.295-0.239 0.533-0.533 0.533s-0.533-0.239-0.533-0.533c0-0.295 0.239-0.533 0.533-0.533s0.533 0.239 0.533 0.533z"></path>
<path d="M18.667 5.333c0 0.295-0.239 0.533-0.533 0.533s-0.533-0.239-0.533-0.533c0-0.295 0.239-0.533 0.533-0.533s0.533 0.239 0.533 0.533z"></path>
<path d="M19.733 6.933c0 0.295-0.239 0.533-0.533 0.533s-0.533-0.239-0.533-0.533c0-0.295 0.239-0.533 0.533-0.533s0.533 0.239 0.533 0.533z"></path>
<path d="M32 9.276v-6.285c0-1.355-1.102-2.458-2.458-2.458h-27.085c-1.355 0-2.458 1.102-2.458 2.458v6.284c0 0.783 0.375 1.475 0.948 1.925-0.573 0.45-0.948 1.141-0.948 1.924v6.284c0 1.356 1.102 2.458 2.458 2.458h13.009v4.321c-1.043 0.213-1.867 1.036-2.079 2.079h-12.854c-0.294 0-0.533 0.238-0.533 0.533s0.239 0.533 0.533 0.533h12.854c0.248 1.215 1.325 2.133 2.613 2.133s2.365-0.918 2.613-2.133h12.854c0.294 0 0.533-0.238 0.533-0.533s-0.239-0.533-0.533-0.533h-12.854c-0.213-1.043-1.036-1.867-2.079-2.079v-4.321h13.009c1.355 0 2.458-1.102 2.458-2.458v-6.285c0-0.783-0.375-1.474-0.948-1.924 0.573-0.45 0.948-1.141 0.948-1.924zM17.6 28.8c0 0.882-0.718 1.6-1.6 1.6s-1.6-0.718-1.6-1.6 0.718-1.6 1.6-1.6 1.6 0.718 1.6 1.6zM30.933 13.124v6.284c0 0.767-0.624 1.391-1.391 1.391h-27.085c-0.767 0-1.391-0.624-1.391-1.391v-6.285c0-0.767 0.624-1.391 1.391-1.391h27.084c0.767 0 1.391 0.624 1.391 1.391zM2.458 10.667c-0.767 0-1.391-0.624-1.391-1.391v-6.285c0-0.767 0.624-1.391 1.391-1.391h27.084c0.767 0 1.391 0.624 1.391 1.391v6.284c0 0.767-0.624 1.391-1.391 1.391h-27.085z"></path>
<path d="M5.6 18.667c1.323 0 2.4-1.077 2.4-2.4s-1.077-2.4-2.4-2.4-2.4 1.077-2.4 2.4 1.077 2.4 2.4 2.4zM5.6 14.933c0.735 0 1.333 0.598 1.333 1.333s-0.598 1.333-1.333 1.333-1.333-0.598-1.333-1.333 0.598-1.333 1.333-1.333z"></path>
<path d="M27.2 15.467c0 0.295-0.239 0.533-0.533 0.533s-0.533-0.239-0.533-0.533c0-0.295 0.239-0.533 0.533-0.533s0.533 0.239 0.533 0.533z"></path>
<path d="M25.067 15.467c0 0.295-0.239 0.533-0.533 0.533s-0.533-0.239-0.533-0.533c0-0.295 0.239-0.533 0.533-0.533s0.533 0.239 0.533 0.533z"></path>
<path d="M28.267 17.067c0 0.295-0.239 0.533-0.533 0.533s-0.533-0.239-0.533-0.533c0-0.295 0.239-0.533 0.533-0.533s0.533 0.239 0.533 0.533z"></path>
<path d="M26.133 17.067c0 0.295-0.239 0.533-0.533 0.533s-0.533-0.239-0.533-0.533c0-0.295 0.239-0.533 0.533-0.533s0.533 0.239 0.533 0.533z"></path>
<path d="M22.933 15.467c0 0.295-0.239 0.533-0.533 0.533s-0.533-0.239-0.533-0.533c0-0.295 0.239-0.533 0.533-0.533s0.533 0.239 0.533 0.533z"></path>
<path d="M24 17.067c0 0.295-0.239 0.533-0.533 0.533s-0.533-0.239-0.533-0.533c0-0.295 0.239-0.533 0.533-0.533s0.533 0.239 0.533 0.533z"></path>
<path d="M20.8 15.467c0 0.295-0.239 0.533-0.533 0.533s-0.533-0.239-0.533-0.533c0-0.295 0.239-0.533 0.533-0.533s0.533 0.239 0.533 0.533z"></path>
<path d="M21.867 17.067c0 0.295-0.239 0.533-0.533 0.533s-0.533-0.239-0.533-0.533c0-0.295 0.239-0.533 0.533-0.533s0.533 0.239 0.533 0.533z"></path>
<path d="M18.667 15.467c0 0.295-0.239 0.533-0.533 0.533s-0.533-0.239-0.533-0.533c0-0.295 0.239-0.533 0.533-0.533s0.533 0.239 0.533 0.533z"></path>
<path d="M19.733 17.067c0 0.295-0.239 0.533-0.533 0.533s-0.533-0.239-0.533-0.533c0-0.295 0.239-0.533 0.533-0.533s0.533 0.239 0.533 0.533z"></path>
</svg>
