<!-- Generated by IcoMoon.io -->
<svg version="1.1" xmlns="http://www.w3.org/2000/svg" width="32" height="32" viewBox="0 0 32 32">
<path d="M9.067 27.201h1.067v1.067h-1.067v-1.067z"></path>
<path d="M11.2 27.201h1.067v1.067h-1.067v-1.067z"></path>
<path d="M9.067 20.801h1.067v1.067h-1.067v-1.067z"></path>
<path d="M11.2 20.801h1.067v1.067h-1.067v-1.067z"></path>
<path d="M25.067 8.001c-0.309 0-0.617 0.021-0.923 0.062-1.437-4.795-6.489-7.516-11.284-6.079-3.656 1.096-6.234 4.365-6.447 8.176-0.182-0.017-0.365-0.026-0.547-0.026-3.24 0-5.867 2.627-5.867 5.867s2.627 5.867 5.867 5.867h1.067v1.6c0 0.295 0.239 0.533 0.533 0.533h1.067v1.067h-1.067c-0.295 0-0.533 0.239-0.533 0.533v4.267c0 0.295 0.239 0.533 0.533 0.533h17.067c0.295 0 0.533-0.239 0.533-0.533v-4.267c0-0.295-0.239-0.533-0.533-0.533h-1.067v-1.067h1.067c0.295 0 0.533-0.239 0.533-0.533v-1.6c3.829 0 6.933-3.104 6.933-6.933s-3.104-6.933-6.933-6.933zM24 26.134v3.2h-16v-3.2h16zM9.6 25.067v-1.067h12.8v1.067h-12.8zM24 22.934h-16v-3.2h16v3.2zM26.266 20.676c-0.395 0.083-0.796 0.124-1.2 0.124v-1.6c0-0.295-0.239-0.533-0.533-0.533h-5.333v-4.8h4.898c0.295 0.833 1.209 1.27 2.042 0.975s1.27-1.209 0.975-2.042c-0.295-0.833-1.209-1.27-2.042-0.975-0.456 0.161-0.814 0.52-0.975 0.975h-5.431c-0.295 0-0.533 0.239-0.533 0.533v5.333h-2.667v-10.133h2.231c0.295 0.833 1.209 1.27 2.042 0.975s1.27-1.209 0.975-2.042c-0.295-0.833-1.209-1.27-2.042-0.975-0.456 0.161-0.814 0.52-0.975 0.975h-2.765c-0.295 0-0.533 0.239-0.533 0.533v10.667h-2.667v-3.733c0-0.295-0.239-0.533-0.533-0.533h-2.765c-0.295-0.833-1.209-1.27-2.042-0.975s-1.27 1.209-0.975 2.042 1.209 1.27 2.042 0.975c0.456-0.161 0.814-0.52 0.975-0.975h2.231v3.2h-3.2c-0.295 0-0.533 0.239-0.533 0.533v1.6h-1.067c-2.651 0-4.8-2.149-4.8-4.8s2.149-4.8 4.8-4.8c0.325 0 0.648 0.033 0.966 0.098 0.158 0.031 0.322-0.010 0.446-0.113s0.195-0.257 0.193-0.418c0-0.011-0.005-0.090-0.005-0.1-0.003-4.416 3.574-7.998 7.99-8.001 3.698-0.002 6.916 2.532 7.78 6.127 0.067 0.28 0.345 0.457 0.627 0.398 3.171-0.663 6.28 1.37 6.943 4.541s-1.37 6.28-4.541 6.943zM25.067 13.334c0-0.295 0.239-0.533 0.533-0.533s0.533 0.239 0.533 0.533-0.239 0.533-0.533 0.533-0.533-0.239-0.533-0.533zM18.667 8.001c0-0.295 0.239-0.533 0.533-0.533s0.533 0.239 0.533 0.533-0.239 0.533-0.533 0.533-0.533-0.239-0.533-0.533zM7.467 14.934c0 0.295-0.239 0.533-0.533 0.533s-0.533-0.239-0.533-0.533 0.239-0.533 0.533-0.533 0.533 0.239 0.533 0.533z"></path>
</svg>
