<!-- Generated by IcoMoon.io -->
<svg version="1.1" xmlns="http://www.w3.org/2000/svg" width="32" height="32" viewBox="0 0 32 32">
<path d="M5.6 3.77c-1.323 0-2.4 1.077-2.4 2.4s1.077 2.4 2.4 2.4 2.4-1.077 2.4-2.4-1.077-2.4-2.4-2.4zM5.6 7.503c-0.735 0-1.333-0.598-1.333-1.333s0.598-1.333 1.333-1.333 1.333 0.598 1.333 1.333-0.598 1.333-1.333 1.333z"></path>
<path d="M27.2 5.37c0 0.295-0.239 0.533-0.533 0.533s-0.533-0.239-0.533-0.533c0-0.295 0.239-0.533 0.533-0.533s0.533 0.239 0.533 0.533z"></path>
<path d="M25.067 5.37c0 0.295-0.239 0.533-0.533 0.533s-0.533-0.239-0.533-0.533c0-0.295 0.239-0.533 0.533-0.533s0.533 0.239 0.533 0.533z"></path>
<path d="M28.267 6.97c0 0.295-0.239 0.533-0.533 0.533s-0.533-0.239-0.533-0.533c0-0.295 0.239-0.533 0.533-0.533s0.533 0.239 0.533 0.533z"></path>
<path d="M26.133 6.97c0 0.295-0.239 0.533-0.533 0.533s-0.533-0.239-0.533-0.533c0-0.295 0.239-0.533 0.533-0.533s0.533 0.239 0.533 0.533z"></path>
<path d="M22.933 5.37c0 0.295-0.239 0.533-0.533 0.533s-0.533-0.239-0.533-0.533c0-0.295 0.239-0.533 0.533-0.533s0.533 0.239 0.533 0.533z"></path>
<path d="M24 6.97c0 0.295-0.239 0.533-0.533 0.533s-0.533-0.239-0.533-0.533c0-0.295 0.239-0.533 0.533-0.533s0.533 0.239 0.533 0.533z"></path>
<path d="M20.8 5.37c0 0.295-0.239 0.533-0.533 0.533s-0.533-0.239-0.533-0.533c0-0.295 0.239-0.533 0.533-0.533s0.533 0.239 0.533 0.533z"></path>
<path d="M21.867 6.97c0 0.295-0.239 0.533-0.533 0.533s-0.533-0.239-0.533-0.533c0-0.295 0.239-0.533 0.533-0.533s0.533 0.239 0.533 0.533z"></path>
<path d="M18.667 5.37c0 0.295-0.239 0.533-0.533 0.533s-0.533-0.239-0.533-0.533c0-0.295 0.239-0.533 0.533-0.533s0.533 0.239 0.533 0.533z"></path>
<path d="M19.733 6.97c0 0.295-0.239 0.533-0.533 0.533s-0.533-0.239-0.533-0.533c0-0.295 0.239-0.533 0.533-0.533s0.533 0.239 0.533 0.533z"></path>
<path d="M32 9.312v-6.284c0-1.355-1.102-2.458-2.458-2.458h-27.085c-1.355 0-2.458 1.102-2.458 2.458v6.284c0 0.783 0.375 1.474 0.948 1.924-0.573 0.451-0.948 1.141-0.948 1.925v6.284c0 1.355 1.102 2.458 2.458 2.458h27.085c1.355 0 2.458-1.102 2.458-2.458v-6.284c0-0.783-0.375-1.474-0.948-1.924 0.573-0.451 0.948-1.141 0.948-1.925zM30.933 13.161v6.284c0 0.767-0.624 1.391-1.391 1.391h-27.085c-0.767 0.001-1.391-0.623-1.391-1.391v-6.284c0-0.767 0.624-1.391 1.391-1.391h27.084c0.767 0 1.391 0.624 1.391 1.391zM2.458 10.703c-0.767 0-1.391-0.624-1.391-1.391v-6.284c0-0.767 0.624-1.391 1.391-1.391h27.084c0.767 0 1.391 0.624 1.391 1.391v6.284c0 0.767-0.624 1.391-1.391 1.391h-27.085z"></path>
<path d="M5.6 18.703c1.323 0 2.4-1.077 2.4-2.4s-1.077-2.4-2.4-2.4-2.4 1.076-2.4 2.4 1.077 2.4 2.4 2.4zM5.6 14.97c0.735 0 1.333 0.598 1.333 1.333s-0.598 1.333-1.333 1.333-1.333-0.598-1.333-1.333 0.598-1.333 1.333-1.333z"></path>
<path d="M16.786 27.443c0.122 0.069 0.234 0.154 0.334 0.251 0.104 0.102 0.239 0.153 0.373 0.153 0.138 0 0.276-0.054 0.381-0.16 0.206-0.211 0.203-0.548-0.007-0.754-0.166-0.163-0.352-0.302-0.554-0.418-0.258-0.145-0.582-0.056-0.727 0.201-0.145 0.256-0.055 0.581 0.201 0.727z"></path>
<path d="M16.802 30.222c-0.12 0.070-0.249 0.124-0.383 0.16-0.284 0.077-0.453 0.369-0.377 0.654 0.065 0.238 0.279 0.395 0.515 0.395 0.046 0 0.092-0.006 0.139-0.018 0.225-0.061 0.442-0.151 0.643-0.268 0.254-0.148 0.341-0.475 0.193-0.73s-0.475-0.34-0.729-0.193z"></path>
<path d="M18.133 28.291c-0.294 0-0.533 0.251-0.533 0.546 0 0.141-0.018 0.279-0.054 0.413-0.076 0.284 0.093 0.577 0.378 0.653 0.046 0.012 0.092 0.018 0.138 0.018 0.236 0 0.451-0.157 0.515-0.396 0.060-0.223 0.090-0.455 0.090-0.688v-0.025c0-0.295-0.239-0.521-0.533-0.521z"></path>
<path d="M15.205 30.225c-0.121-0.069-0.233-0.154-0.331-0.252-0.209-0.208-0.546-0.206-0.754 0.002-0.208 0.209-0.207 0.547 0.002 0.754 0.165 0.164 0.351 0.306 0.554 0.422 0.084 0.048 0.174 0.070 0.265 0.070 0.185 0 0.365-0.097 0.463-0.268 0.146-0.255 0.057-0.581-0.198-0.728z"></path>
<path d="M15.289 26.267c-0.224 0.061-0.439 0.153-0.64 0.271-0.254 0.149-0.339 0.476-0.189 0.73 0.1 0.169 0.278 0.263 0.46 0.263 0.092 0 0.185-0.023 0.27-0.074 0.121-0.071 0.249-0.125 0.383-0.163 0.284-0.078 0.451-0.372 0.372-0.655s-0.372-0.45-0.657-0.372z"></path>
<path d="M14.4 28.837c0-0.138 0.018-0.274 0.052-0.405 0.074-0.285-0.097-0.576-0.382-0.651-0.285-0.074-0.577 0.097-0.651 0.382-0.057 0.219-0.086 0.445-0.086 0.685l0.533 0.001h-0.533c0 0.295 0.238 0.527 0.533 0.527s0.533-0.244 0.533-0.539z"></path>
<path d="M27.2 15.503c0 0.295-0.239 0.533-0.533 0.533s-0.533-0.239-0.533-0.533c0-0.295 0.239-0.533 0.533-0.533s0.533 0.239 0.533 0.533z"></path>
<path d="M25.067 15.503c0 0.295-0.239 0.533-0.533 0.533s-0.533-0.239-0.533-0.533c0-0.295 0.239-0.533 0.533-0.533s0.533 0.239 0.533 0.533z"></path>
<path d="M28.267 17.103c0 0.295-0.239 0.533-0.533 0.533s-0.533-0.239-0.533-0.533c0-0.295 0.239-0.533 0.533-0.533s0.533 0.239 0.533 0.533z"></path>
<path d="M26.133 17.103c0 0.295-0.239 0.533-0.533 0.533s-0.533-0.239-0.533-0.533c0-0.295 0.239-0.533 0.533-0.533s0.533 0.239 0.533 0.533z"></path>
<path d="M22.933 15.503c0 0.295-0.239 0.533-0.533 0.533s-0.533-0.239-0.533-0.533c0-0.295 0.239-0.533 0.533-0.533s0.533 0.239 0.533 0.533z"></path>
<path d="M24 17.103c0 0.295-0.239 0.533-0.533 0.533s-0.533-0.239-0.533-0.533c0-0.295 0.239-0.533 0.533-0.533s0.533 0.239 0.533 0.533z"></path>
<path d="M20.8 15.503c0 0.295-0.239 0.533-0.533 0.533s-0.533-0.239-0.533-0.533c0-0.295 0.239-0.533 0.533-0.533s0.533 0.239 0.533 0.533z"></path>
<path d="M21.867 17.103c0 0.295-0.239 0.533-0.533 0.533s-0.533-0.239-0.533-0.533c0-0.295 0.239-0.533 0.533-0.533s0.533 0.239 0.533 0.533z"></path>
<path d="M18.667 15.503c0 0.295-0.239 0.533-0.533 0.533s-0.533-0.239-0.533-0.533c0-0.295 0.239-0.533 0.533-0.533s0.533 0.239 0.533 0.533z"></path>
<path d="M19.733 17.103c0 0.295-0.239 0.533-0.533 0.533s-0.533-0.239-0.533-0.533c0-0.295 0.239-0.533 0.533-0.533s0.533 0.239 0.533 0.533z"></path>
<path d="M11.733 28.303h-0.533c-0.294 0-0.533 0.238-0.533 0.533s0.239 0.533 0.533 0.533h0.533c0.294 0 0.533-0.238 0.533-0.533s-0.239-0.533-0.533-0.533z"></path>
<path d="M7.467 28.303h-0.533c-0.294 0-0.533 0.238-0.533 0.533s0.239 0.533 0.533 0.533h0.533c0.294 0 0.533-0.238 0.533-0.533s-0.239-0.533-0.533-0.533z"></path>
<path d="M9.6 28.303h-0.533c-0.294 0-0.533 0.238-0.533 0.533s0.239 0.533 0.533 0.533h0.533c0.294 0 0.533-0.238 0.533-0.533s-0.239-0.533-0.533-0.533z"></path>
<path d="M1.067 28.303h-0.533c-0.294 0-0.533 0.238-0.533 0.533s0.239 0.533 0.533 0.533h0.533c0.294 0 0.533-0.238 0.533-0.533s-0.239-0.533-0.533-0.533z"></path>
<path d="M3.2 28.303h-0.533c-0.294 0-0.533 0.238-0.533 0.533s0.239 0.533 0.533 0.533h0.533c0.294 0 0.533-0.238 0.533-0.533s-0.239-0.533-0.533-0.533z"></path>
<path d="M5.333 28.303h-0.533c-0.294 0-0.533 0.238-0.533 0.533s0.239 0.533 0.533 0.533h0.533c0.294 0 0.533-0.238 0.533-0.533s-0.239-0.533-0.533-0.533z"></path>
<path d="M20.8 28.303h-0.533c-0.294 0-0.533 0.238-0.533 0.533s0.239 0.533 0.533 0.533h0.533c0.294 0 0.533-0.238 0.533-0.533s-0.239-0.533-0.533-0.533z"></path>
<path d="M25.067 28.303h-0.533c-0.294 0-0.533 0.238-0.533 0.533s0.239 0.533 0.533 0.533h0.533c0.294 0 0.533-0.238 0.533-0.533s-0.239-0.533-0.533-0.533z"></path>
<path d="M22.933 28.303h-0.533c-0.294 0-0.533 0.238-0.533 0.533s0.239 0.533 0.533 0.533h0.533c0.294 0 0.533-0.238 0.533-0.533s-0.239-0.533-0.533-0.533z"></path>
<path d="M31.467 28.303h-0.533c-0.294 0-0.533 0.238-0.533 0.533s0.239 0.533 0.533 0.533h0.533c0.294 0 0.533-0.238 0.533-0.533s-0.239-0.533-0.533-0.533z"></path>
<path d="M27.2 28.303h-0.533c-0.294 0-0.533 0.238-0.533 0.533s0.239 0.533 0.533 0.533h0.533c0.294 0 0.533-0.238 0.533-0.533s-0.239-0.533-0.533-0.533z"></path>
<path d="M29.333 28.303h-0.533c-0.294 0-0.533 0.238-0.533 0.533s0.239 0.533 0.533 0.533h0.533c0.294 0 0.533-0.238 0.533-0.533s-0.239-0.533-0.533-0.533z"></path>
<path d="M16.533 25.103v-0.533c0-0.295-0.239-0.533-0.533-0.533s-0.533 0.238-0.533 0.533v0.533c0 0.295 0.239 0.533 0.533 0.533s0.533-0.238 0.533-0.533z"></path>
<path d="M15.467 22.437v0.533c0 0.295 0.239 0.533 0.533 0.533s0.533-0.238 0.533-0.533v-0.533c0-0.295-0.239-0.533-0.533-0.533s-0.533 0.238-0.533 0.533z"></path>
</svg>
