<!-- Generated by IcoMoon.io -->
<svg version="1.1" xmlns="http://www.w3.org/2000/svg" width="32" height="32" viewBox="0 0 32 32">
<path d="M29.786 25.511c-0.229-2.19-2.054-3.91-4.242-3.91-1.367 0-2.658 0.686-3.456 1.814-0.155-0.027-0.313-0.041-0.471-0.041-1.237 0-2.337 0.841-2.702 2.034-1.017 0.603-1.662 1.729-1.662 2.934 0 1.87 1.485 3.391 3.311 3.391h5.746c0.032 0 0.063-0.002 0.091-0.004 0.033 0.002 0.066 0.004 0.1 0.004h2.299c1.72 0 3.119-1.433 3.119-3.194-0.001-1.387-0.876-2.599-2.134-3.029zM28.801 30.668l-2.321-0.002-0.091-0.003-5.825 0.005c-1.237 0-2.244-1.043-2.244-2.325 0-0.888 0.506-1.712 1.289-2.099l0.232-0.114 0.054-0.253c0.177-0.832 0.901-1.435 1.722-1.435 0.184 0 0.367 0.030 0.544 0.090l0.414 0.139 0.218-0.379c0.585-1.017 1.613-1.623 2.751-1.623 1.741 0 3.176 1.465 3.199 3.266l0.006 0.434 0.426 0.083c0.972 0.189 1.678 1.068 1.678 2.090 0.001 1.173-0.921 2.128-2.052 2.128z"></path>
<path d="M5.6 3.466c-1.323 0-2.4 1.077-2.4 2.4s1.077 2.4 2.4 2.4 2.4-1.077 2.4-2.4-1.077-2.4-2.4-2.4zM5.6 7.199c-0.735 0-1.333-0.598-1.333-1.333s0.598-1.333 1.333-1.333 1.333 0.598 1.333 1.333-0.598 1.333-1.333 1.333z"></path>
<path d="M27.2 5.066c0 0.295-0.239 0.533-0.533 0.533s-0.533-0.239-0.533-0.533c0-0.295 0.239-0.533 0.533-0.533s0.533 0.239 0.533 0.533z"></path>
<path d="M25.067 5.066c0 0.295-0.239 0.533-0.533 0.533s-0.533-0.239-0.533-0.533c0-0.295 0.239-0.533 0.533-0.533s0.533 0.239 0.533 0.533z"></path>
<path d="M28.267 6.666c0 0.295-0.239 0.533-0.533 0.533s-0.533-0.239-0.533-0.533c0-0.295 0.239-0.533 0.533-0.533s0.533 0.239 0.533 0.533z"></path>
<path d="M26.133 6.666c0 0.295-0.239 0.533-0.533 0.533s-0.533-0.239-0.533-0.533c0-0.295 0.239-0.533 0.533-0.533s0.533 0.239 0.533 0.533z"></path>
<path d="M22.933 5.066c0 0.295-0.239 0.533-0.533 0.533s-0.533-0.239-0.533-0.533c0-0.295 0.239-0.533 0.533-0.533s0.533 0.239 0.533 0.533z"></path>
<path d="M24 6.666c0 0.295-0.239 0.533-0.533 0.533s-0.533-0.239-0.533-0.533c0-0.295 0.239-0.533 0.533-0.533s0.533 0.239 0.533 0.533z"></path>
<path d="M20.8 5.066c0 0.295-0.239 0.533-0.533 0.533s-0.533-0.239-0.533-0.533c0-0.295 0.239-0.533 0.533-0.533s0.533 0.239 0.533 0.533z"></path>
<path d="M21.867 6.666c0 0.295-0.239 0.533-0.533 0.533s-0.533-0.239-0.533-0.533c0-0.295 0.239-0.533 0.533-0.533s0.533 0.239 0.533 0.533z"></path>
<path d="M18.667 5.066c0 0.295-0.239 0.533-0.533 0.533s-0.533-0.239-0.533-0.533c0-0.295 0.239-0.533 0.533-0.533s0.533 0.239 0.533 0.533z"></path>
<path d="M19.733 6.666c0 0.295-0.239 0.533-0.533 0.533s-0.533-0.239-0.533-0.533c0-0.295 0.239-0.533 0.533-0.533s0.533 0.239 0.533 0.533z"></path>
<path d="M32 9.008v-6.285c0-1.355-1.102-2.458-2.458-2.458h-27.085c-1.355 0-2.458 1.102-2.458 2.458v6.285c0 0.783 0.375 1.474 0.948 1.924-0.573 0.451-0.948 1.141-0.948 1.924v6.285c0 0.783 0.375 1.474 0.948 1.924-0.573 0.451-0.948 1.141-0.948 1.924v6.285c0 1.355 1.102 2.458 2.458 2.458h12.476v-1.067h-12.476c-0.767 0-1.391-0.624-1.391-1.391v-6.285c0-0.767 0.624-1.391 1.391-1.391h17.809v-1.067h-17.809c-0.767 0-1.391-0.624-1.391-1.391v-6.285c0-0.767 0.624-1.391 1.391-1.391h27.084c0.767 0 1.391 0.624 1.391 1.391v7.676h1.067v-7.676c0-0.783-0.375-1.474-0.948-1.924 0.573-0.451 0.948-1.141 0.948-1.924zM2.458 10.399c-0.767 0-1.391-0.624-1.391-1.391v-6.285c0-0.767 0.624-1.391 1.391-1.391h27.084c0.767 0 1.391 0.624 1.391 1.391v6.285c0 0.767-0.624 1.391-1.391 1.391h-27.085z"></path>
<path d="M3.2 15.999c0 1.323 1.077 2.4 2.4 2.4s2.4-1.077 2.4-2.4-1.077-2.4-2.4-2.4-2.4 1.077-2.4 2.4zM6.933 15.999c0 0.735-0.598 1.333-1.333 1.333s-1.333-0.598-1.333-1.333 0.598-1.333 1.333-1.333 1.333 0.598 1.333 1.333z"></path>
<path d="M27.2 15.199c0 0.295-0.239 0.533-0.533 0.533s-0.533-0.239-0.533-0.533c0-0.295 0.239-0.533 0.533-0.533s0.533 0.239 0.533 0.533z"></path>
<path d="M25.067 15.199c0 0.295-0.239 0.533-0.533 0.533s-0.533-0.239-0.533-0.533c0-0.295 0.239-0.533 0.533-0.533s0.533 0.239 0.533 0.533z"></path>
<path d="M28.267 16.799c0 0.295-0.239 0.533-0.533 0.533s-0.533-0.239-0.533-0.533c0-0.295 0.239-0.533 0.533-0.533s0.533 0.239 0.533 0.533z"></path>
<path d="M26.133 16.799c0 0.295-0.239 0.533-0.533 0.533s-0.533-0.239-0.533-0.533c0-0.295 0.239-0.533 0.533-0.533s0.533 0.239 0.533 0.533z"></path>
<path d="M22.933 15.199c0 0.295-0.239 0.533-0.533 0.533s-0.533-0.239-0.533-0.533c0-0.295 0.239-0.533 0.533-0.533s0.533 0.239 0.533 0.533z"></path>
<path d="M24 16.799c0 0.295-0.239 0.533-0.533 0.533s-0.533-0.239-0.533-0.533c0-0.295 0.239-0.533 0.533-0.533s0.533 0.239 0.533 0.533z"></path>
<path d="M20.8 15.199c0 0.295-0.239 0.533-0.533 0.533s-0.533-0.239-0.533-0.533c0-0.295 0.239-0.533 0.533-0.533s0.533 0.239 0.533 0.533z"></path>
<path d="M21.867 16.799c0 0.295-0.239 0.533-0.533 0.533s-0.533-0.239-0.533-0.533c0-0.295 0.239-0.533 0.533-0.533s0.533 0.239 0.533 0.533z"></path>
<path d="M18.667 15.199c0 0.295-0.239 0.533-0.533 0.533s-0.533-0.239-0.533-0.533c0-0.295 0.239-0.533 0.533-0.533s0.533 0.239 0.533 0.533z"></path>
<path d="M19.733 16.799c0 0.295-0.239 0.533-0.533 0.533s-0.533-0.239-0.533-0.533c0-0.295 0.239-0.533 0.533-0.533s0.533 0.239 0.533 0.533z"></path>
<path d="M3.2 26.132c0 1.323 1.077 2.4 2.4 2.4s2.4-1.077 2.4-2.4-1.077-2.4-2.4-2.4-2.4 1.077-2.4 2.4zM6.933 26.132c0 0.735-0.598 1.333-1.333 1.333s-1.333-0.598-1.333-1.333 0.598-1.333 1.333-1.333 1.333 0.598 1.333 1.333z"></path>
</svg>
