<!-- Generated by IcoMoon.io -->
<svg version="1.1" xmlns="http://www.w3.org/2000/svg" width="32" height="32" viewBox="0 0 32 32">
<path d="M20.553 23.446c-0.336-0.202-0.682-0.405-1.027-0.605 0.081-0.692 0.081-1.392 0-2.082 0.347-0.2 0.692-0.403 1.027-0.604 0.564-0.339 0.799-1.053 0.547-1.663 0 0 0 0-0-0l-0.736-1.776c-0.252-0.609-0.924-0.948-1.562-0.789-0.379 0.094-0.767 0.195-1.153 0.299-0.431-0.546-0.926-1.041-1.473-1.472 0.104-0.386 0.204-0.774 0.299-1.154 0.159-0.638-0.18-1.31-0.789-1.562l-1.776-0.736c-0.609-0.252-1.324-0.018-1.663 0.546-0.202 0.336-0.405 0.681-0.605 1.027-0.692-0.081-1.391-0.081-2.082-0-0.2-0.347-0.403-0.692-0.604-1.027-0.339-0.564-1.054-0.799-1.663-0.546l-1.776 0.736c-0.609 0.252-0.948 0.924-0.789 1.562 0.095 0.38 0.195 0.768 0.298 1.153-0.546 0.431-1.041 0.926-1.472 1.473-0.387-0.104-0.775-0.204-1.154-0.299-0.638-0.159-1.31 0.18-1.562 0.789l-0.736 1.776c-0.252 0.609-0.017 1.324 0.546 1.663 0.336 0.202 0.681 0.405 1.027 0.605-0.081 0.692-0.081 1.391-0 2.082-0.346 0.2-0.691 0.403-1.027 0.605-0.564 0.339-0.799 1.054-0.546 1.663l0.736 1.776c0.252 0.609 0.923 0.948 1.562 0.789 0.379-0.094 0.767-0.195 1.153-0.299 0.431 0.546 0.926 1.040 1.473 1.472-0.104 0.387-0.204 0.775-0.299 1.154-0.159 0.638 0.18 1.31 0.789 1.562l1.776 0.736c0.165 0.068 0.338 0.101 0.509 0.101 0.46 0 0.907-0.236 1.154-0.647 0.2-0.333 0.403-0.678 0.605-1.027 0.692 0.081 1.392 0.081 2.082 0 0.199 0.345 0.402 0.69 0.604 1.027 0.339 0.564 1.054 0.799 1.663 0.546l1.776-0.736c0.609-0.252 0.948-0.924 0.789-1.562-0.094-0.377-0.194-0.765-0.299-1.153 0.546-0.431 1.041-0.926 1.472-1.473 0.386 0.104 0.774 0.204 1.154 0.299 0.638 0.159 1.31-0.18 1.562-0.789l0.736-1.776c0.252-0.609 0.017-1.324-0.546-1.663zM19.070 26.265c-0.365-0.091-0.737-0.188-1.106-0.288-0.523-0.141-1.076 0.043-1.407 0.469-0.381 0.489-0.822 0.93-1.31 1.311-0.425 0.331-0.609 0.884-0.468 1.407 0.1 0.372 0.197 0.744 0.288 1.106l-1.633 0.676c-0.194-0.324-0.389-0.655-0.579-0.985-0.27-0.47-0.791-0.73-1.326-0.664-0.614 0.076-1.238 0.076-1.853-0-0.537-0.067-1.057 0.194-1.327 0.663-0.192 0.334-0.387 0.665-0.579 0.986l-1.633-0.676c0.091-0.364 0.188-0.736 0.288-1.106 0.141-0.523-0.043-1.076-0.469-1.407-0.489-0.381-0.93-0.822-1.311-1.31-0.331-0.426-0.883-0.609-1.407-0.468-0.37 0.1-0.742 0.196-1.106 0.288l-0.676-1.633c0.323-0.193 0.654-0.388 0.985-0.579 0.47-0.27 0.73-0.791 0.664-1.326-0.076-0.614-0.076-1.238 0-1.853 0.067-0.536-0.194-1.057-0.663-1.327-0.332-0.191-0.663-0.385-0.986-0.579l0.676-1.633c0.364 0.091 0.736 0.188 1.106 0.288 0.523 0.141 1.076-0.043 1.407-0.469 0.381-0.489 0.822-0.93 1.31-1.311 0.426-0.331 0.609-0.884 0.468-1.407-0.099-0.369-0.196-0.741-0.288-1.106l1.633-0.676c0.193 0.322 0.387 0.653 0.579 0.985 0.271 0.47 0.791 0.731 1.326 0.664 0.614-0.076 1.238-0.076 1.854 0 0.536 0.067 1.057-0.194 1.327-0.664 0.191-0.332 0.385-0.663 0.579-0.986l1.633 0.676c-0.091 0.365-0.188 0.736-0.288 1.106-0.141 0.523 0.043 1.076 0.469 1.407 0.489 0.381 0.93 0.822 1.311 1.31 0.331 0.425 0.883 0.609 1.407 0.468 0.37-0.1 0.742-0.196 1.106-0.288l0.676 1.633c-0.322 0.193-0.653 0.387-0.985 0.579-0.47 0.27-0.73 0.791-0.664 1.326 0.076 0.614 0.076 1.238-0 1.854-0.067 0.536 0.194 1.056 0.664 1.327 0.331 0.191 0.662 0.385 0.986 0.579l-0.676 1.633zM15.11 19.932c0 0 0 0-0-0-1.030-2.487-3.891-3.672-6.378-2.642s-3.672 3.891-2.642 6.378c0.499 1.205 1.437 2.143 2.642 2.642 0.602 0.249 1.235 0.374 1.868 0.374s1.266-0.125 1.868-0.374c2.487-1.030 3.672-3.891 2.642-6.378zM11.92 24.987c-0.851 0.353-1.789 0.352-2.64 0s-1.514-1.016-1.867-1.867c-0.728-1.757 0.11-3.779 1.867-4.507 0.43-0.178 0.876-0.263 1.315-0.263 1.354 0 2.642 0.802 3.191 2.129 0.728 1.757-0.11 3.779-1.867 4.507zM31.035 6.708c-0.247-0.037-0.501-0.073-0.757-0.107-0.129-0.429-0.301-0.844-0.513-1.239 0.157-0.205 0.311-0.41 0.46-0.611 0.331-0.448 0.283-1.082-0.111-1.476l-0.988-0.988c-0.394-0.394-1.029-0.442-1.477-0.111-0.202 0.15-0.407 0.304-0.611 0.46-0.395-0.212-0.81-0.385-1.239-0.513-0.034-0.256-0.070-0.51-0.107-0.757-0.082-0.55-0.565-0.966-1.123-0.966h-1.397c-0.558 0-1.040 0.415-1.123 0.965-0.037 0.247-0.073 0.501-0.107 0.757-0.429 0.129-0.844 0.301-1.239 0.513-0.204-0.156-0.409-0.31-0.611-0.46-0.448-0.331-1.082-0.283-1.477 0.111l-0.988 0.988c-0.394 0.394-0.442 1.029-0.111 1.477 0.149 0.201 0.303 0.407 0.46 0.611-0.212 0.395-0.384 0.81-0.513 1.239-0.256 0.034-0.51 0.070-0.757 0.107-0.55 0.082-0.966 0.565-0.966 1.123v1.397c0 0.558 0.415 1.040 0.965 1.123 0.247 0.037 0.501 0.073 0.757 0.107 0.129 0.429 0.301 0.844 0.513 1.239-0.156 0.204-0.311 0.409-0.46 0.611-0.331 0.447-0.283 1.082 0.111 1.476l0.988 0.988c0.394 0.394 1.029 0.442 1.477 0.111 0.202-0.149 0.407-0.304 0.611-0.46 0.395 0.212 0.81 0.384 1.239 0.513 0.034 0.256 0.070 0.51 0.107 0.757 0.082 0.55 0.565 0.965 1.123 0.965h1.397c0.558 0 1.040-0.415 1.123-0.966 0.037-0.247 0.073-0.501 0.107-0.757 0.429-0.129 0.844-0.301 1.239-0.513 0.204 0.156 0.409 0.31 0.611 0.46 0.447 0.331 1.082 0.283 1.477-0.111l0.988-0.988c0.394-0.394 0.442-1.029 0.111-1.477-0.149-0.202-0.303-0.407-0.46-0.611 0.212-0.395 0.384-0.81 0.513-1.239 0.256-0.034 0.51-0.070 0.757-0.107 0.55-0.082 0.966-0.565 0.966-1.123v-1.397c-0-0.558-0.415-1.040-0.965-1.123zM30.639 9.034c-0.224 0.033-0.454 0.064-0.683 0.094-0.455 0.059-0.827 0.382-0.948 0.822-0.116 0.421-0.285 0.828-0.501 1.208-0.226 0.397-0.191 0.888 0.089 1.252 0.141 0.183 0.281 0.368 0.417 0.55l-0.713 0.713c-0.183-0.136-0.367-0.276-0.55-0.417-0.363-0.28-0.855-0.314-1.252-0.089-0.38 0.216-0.787 0.385-1.208 0.501-0.44 0.121-0.763 0.493-0.822 0.948-0.030 0.23-0.061 0.459-0.094 0.683h-1.008c-0.033-0.225-0.064-0.454-0.094-0.683-0.059-0.455-0.382-0.827-0.822-0.948-0.421-0.116-0.827-0.284-1.208-0.501-0.397-0.226-0.889-0.191-1.252 0.089-0.183 0.141-0.367 0.28-0.55 0.417l-0.713-0.713c0.136-0.182 0.276-0.367 0.417-0.55 0.279-0.363 0.314-0.855 0.089-1.252-0.216-0.38-0.384-0.787-0.501-1.208-0.121-0.44-0.493-0.763-0.948-0.822-0.23-0.030-0.459-0.062-0.683-0.094v-1.008c0.224-0.033 0.454-0.064 0.683-0.094 0.455-0.059 0.827-0.382 0.948-0.822 0.116-0.421 0.284-0.828 0.501-1.208 0.226-0.397 0.191-0.888-0.089-1.252-0.141-0.184-0.281-0.368-0.417-0.55l0.713-0.713c0.183 0.136 0.367 0.276 0.55 0.417 0.363 0.28 0.855 0.315 1.252 0.089 0.38-0.216 0.787-0.385 1.208-0.501 0.44-0.121 0.763-0.493 0.822-0.948 0.030-0.23 0.062-0.459 0.094-0.683h1.008c0.033 0.224 0.064 0.454 0.094 0.683 0.059 0.455 0.382 0.827 0.822 0.948 0.421 0.116 0.828 0.285 1.208 0.501 0.397 0.226 0.889 0.191 1.252-0.089 0.183-0.141 0.367-0.28 0.55-0.417l0.713 0.713c-0.136 0.182-0.276 0.367-0.417 0.55-0.279 0.363-0.314 0.855-0.089 1.252 0.216 0.38 0.384 0.787 0.501 1.208 0.121 0.44 0.493 0.763 0.948 0.822 0.23 0.030 0.459 0.062 0.683 0.094v1.008zM23.87 5.63c-1.599 0-2.9 1.301-2.9 2.9s1.301 2.9 2.9 2.9 2.9-1.301 2.9-2.9c0-1.599-1.301-2.9-2.9-2.9zM23.87 10.141c-0.888 0-1.611-0.723-1.611-1.611s0.723-1.611 1.611-1.611c0.888 0 1.611 0.723 1.611 1.611s-0.723 1.611-1.611 1.611z"></path>
</svg>
