<!-- Generated by IcoMoon.io -->
<svg version="1.1" xmlns="http://www.w3.org/2000/svg" width="32" height="32" viewBox="0 0 32 32">
<path d="M31.17 5.99h-19.722v-0.78c0-1.144-0.931-2.074-2.074-2.074h-3.219c-1.144 0-2.074 0.931-2.074 2.074v0.78h-3.251c-0.458 0-0.83 0.372-0.83 0.83s0.371 0.83 0.83 0.83h3.251v0.78c0 1.144 0.931 2.074 2.074 2.074h3.219c1.144 0 2.074-0.931 2.074-2.074v-0.78h19.722c0.458 0 0.83-0.372 0.83-0.83s-0.371-0.83-0.83-0.83zM9.789 8.429c0 0.229-0.186 0.415-0.415 0.415h-3.219c-0.229 0-0.415-0.186-0.415-0.415v-3.219c0-0.229 0.186-0.415 0.415-0.415h3.219c0.229 0 0.415 0.186 0.415 0.415v3.219zM31.17 15.231h-3.251v-0.78c0-1.144-0.93-2.074-2.074-2.074h-3.219c-1.144 0-2.074 0.931-2.074 2.074v0.78h-19.722c-0.458 0-0.83 0.371-0.83 0.83s0.371 0.83 0.83 0.83h19.722v0.779c0 1.144 0.93 2.074 2.074 2.074h3.219c1.144 0 2.074-0.93 2.074-2.074v-0.779h3.251c0.458 0 0.83-0.372 0.83-0.83s-0.371-0.83-0.83-0.83zM26.26 17.67c0 0.229-0.186 0.415-0.415 0.415h-3.219c-0.229 0-0.415-0.186-0.415-0.415v-3.219c0-0.229 0.186-0.415 0.415-0.415h3.219c0.229 0 0.415 0.186 0.415 0.415v3.219zM31.17 25.151h-13.893v-0.78c0-1.144-0.93-2.074-2.074-2.074h-3.219c-1.144 0-2.074 0.93-2.074 2.074v0.78h-9.080c-0.458 0-0.83 0.372-0.83 0.83s0.371 0.83 0.83 0.83h9.080v0.78c0 1.144 0.931 2.074 2.074 2.074h3.219c1.144 0 2.074-0.93 2.074-2.074v-0.78h13.893c0.458 0 0.83-0.372 0.83-0.83s-0.371-0.83-0.83-0.83zM15.618 27.59c0 0.229-0.186 0.415-0.415 0.415h-3.219c-0.229 0-0.415-0.186-0.415-0.415v-3.219c0-0.229 0.186-0.415 0.415-0.415h3.219c0.229 0 0.415 0.186 0.415 0.415v3.219z"></path>
</svg>
