<!-- Generated by IcoMoon.io -->
<svg version="1.1" xmlns="http://www.w3.org/2000/svg" width="32" height="32" viewBox="0 0 32 32">
<path d="M27.119 24.331v-18.462c0-2.6-2.144-4.744-4.744-4.744h-12.813c-2.6 0-4.744 2.144-4.744 4.744v0.65h2.213v4.487h2.019v6.175h1.3v-6.175h2.019v-4.487h8.125v14.175h-16.913v3.644h-2.6v7.35h30.038v-7.356h-3.9zM11.125 9.769h-2.794v-3.25h2.794v3.25zM4.881 21.925h16.906v-16.706h-15.669c0.325-1.625 1.756-2.862 3.444-2.862h12.812c1.95 0 3.512 1.563 3.512 3.513v18.469h-21v-2.413zM29.712 30.381h-27.438v-4.813h27.438v4.813z"></path>
</svg>
