<!-- Generated by IcoMoon.io -->
<svg version="1.1" xmlns="http://www.w3.org/2000/svg" width="32" height="32" viewBox="0 0 32 32">
<path d="M4.627 32h19.546c0.149 0 0.291-0.062 0.392-0.171 3.222-3.469 4.449-8.343 3.254-12.924s-4.646-8.234-9.152-9.688v-1.752c0-0.295-0.239-0.533-0.533-0.533h-1.6v-1.6h1.067c0.295 0 0.533-0.239 0.533-0.533v-0.533h5.413l3.368 3.367c0.208 0.208 0.546 0.208 0.754 0l1.508-1.508c0.208-0.208 0.208-0.546 0-0.754l-4.148-4.148c-0.1-0.1-0.235-0.156-0.377-0.156h-6.616c-0.225-0.637-0.826-1.064-1.502-1.067h-4.267c-0.884 0-1.6 0.716-1.6 1.6v3.2c0 0.295 0.239 0.533 0.533 0.533h1.067v1.6h-1.6c-0.295 0-0.533 0.239-0.533 0.533v1.752c-4.505 1.453-7.957 5.107-9.152 9.688s0.033 9.455 3.254 12.924c0.101 0.109 0.243 0.171 0.391 0.171zM18.134 2.133h6.298l3.615 3.615-0.754 0.754-3.147-3.147c-0.1-0.1-0.236-0.156-0.378-0.156h-5.634zM11.734 4.267v-2.667c0-0.295 0.239-0.533 0.533-0.533h4.267c0.295 0 0.533 0.239 0.533 0.533v2.667zM15.467 5.333v1.6h-2.133v-1.6zM11.2 8h6.4v1.067h-6.4zM10.745 10.133h7.311c4.201 1.251 7.469 4.565 8.662 8.782s0.144 8.752-2.78 12.018h-19.075c-2.923-3.266-3.972-7.8-2.779-12.018s4.461-7.531 8.662-8.782z"></path>
<path d="M10.667 28.267h8c1.472-0.002 2.665-1.195 2.667-2.667v-7.467c-0.002-1.472-1.195-2.665-2.667-2.667h-8c-1.472 0.002-2.665 1.195-2.667 2.667v7.467c0.002 1.472 1.195 2.665 2.667 2.667zM9.067 18.133c0-0.884 0.716-1.6 1.6-1.6h8c0.884 0 1.6 0.716 1.6 1.6v7.467c0 0.884-0.716 1.6-1.6 1.6h-8c-0.884 0-1.6-0.716-1.6-1.6z"></path>
<path d="M16.534 26.133c1.473 0 2.667-1.194 2.667-2.667s-1.194-2.667-2.667-2.667c-1.473 0-2.667 1.194-2.667 2.667 0.002 1.472 1.195 2.665 2.667 2.667zM16.534 21.867c0.884 0 1.6 0.716 1.6 1.6s-0.716 1.6-1.6 1.6-1.6-0.716-1.6-1.6 0.716-1.6 1.6-1.6z"></path>
<path d="M12.267 21.867c1.018 0 1.894-0.718 2.093-1.717s-0.335-1.998-1.276-2.387c-0.94-0.39-2.025-0.061-2.59 0.785s-0.455 1.974 0.265 2.694c0.399 0.401 0.942 0.626 1.508 0.625zM11.513 18.979c0.268-0.277 0.664-0.389 1.037-0.291s0.664 0.389 0.762 0.762c0.097 0.373-0.014 0.77-0.291 1.038-0.422 0.403-1.086 0.403-1.508 0-0.416-0.417-0.416-1.092 0-1.508z"></path>
<path d="M28.628 8.771l-1.539 2.309c-0.485 0.737-0.554 1.672-0.185 2.473 0.337 0.749 1.042 1.266 1.858 1.364 0.103 0.012 0.206 0.017 0.31 0.018s0.208-0.006 0.31-0.018c0.815-0.097 1.52-0.614 1.857-1.363 0.37-0.801 0.3-1.736-0.184-2.473l-1.539-2.309c-0.105-0.14-0.269-0.222-0.444-0.222s-0.339 0.082-0.444 0.222zM30.167 11.671c0.281 0.427 0.321 0.969 0.107 1.433-0.179 0.414-0.566 0.7-1.013 0.752-0.124 0.014-0.249 0.014-0.373 0-0.448-0.052-0.834-0.339-1.014-0.753-0.215-0.464-0.174-1.005 0.107-1.433l1.096-1.643z"></path>
<path d="M10.134 25.067h1.067v1.067h-1.067z"></path>
<path d="M10.134 22.933h1.067v1.067h-1.067z"></path>
<path d="M7.657 15.277l0.308-0.099-0.326-1.013-0.307 0.098c-1.122 0.358-1.991 1.255-2.314 2.388l1.026 0.293c0.224-0.791 0.83-1.416 1.613-1.667z"></path>
<path d="M4.267 18.133h1.067v1.067h-1.067z"></path>
</svg>
