<!-- Generated by IcoMoon.io -->
<svg version="1.1" xmlns="http://www.w3.org/2000/svg" width="32" height="32" viewBox="0 0 32 32">
<path d="M25.355 20.558c-1.841 0-3.482 0.877-4.532 2.233l-8.791-4.91c0.206-0.591 0.319-1.229 0.319-1.887 0-0.664-0.113-1.296-0.326-1.894l8.784-4.904c1.043 1.362 2.691 2.246 4.538 2.246 3.149 0 5.721-2.565 5.721-5.721s-2.565-5.721-5.721-5.721-5.721 2.565-5.721 5.721c0 0.664 0.113 1.302 0.326 1.894l-8.777 4.904c-1.043-1.369-2.691-2.246-4.538-2.246-3.15 0-5.721 2.565-5.721 5.721s2.571 5.721 5.728 5.721c1.847 0 3.495-0.884 4.545-2.253l8.784 4.91c-0.213 0.598-0.332 1.243-0.332 1.907 0 3.149 2.565 5.721 5.721 5.721s5.721-2.565 5.721-5.721-2.571-5.721-5.728-5.721zM25.355 1.801c2.166 0 3.927 1.761 3.927 3.927s-1.761 3.927-3.927 3.927-3.927-1.761-3.927-3.927 1.767-3.927 3.927-3.927zM6.645 19.92c-2.166 0-3.927-1.761-3.927-3.927s1.761-3.927 3.927-3.927 3.927 1.761 3.927 3.927-1.767 3.927-3.927 3.927zM25.355 30.199c-2.166 0-3.927-1.761-3.927-3.927s1.761-3.927 3.927-3.927 3.927 1.761 3.927 3.927c0 2.166-1.761 3.927-3.927 3.927z"></path>
</svg>
