<!-- Generated by IcoMoon.io -->
<svg version="1.1" xmlns="http://www.w3.org/2000/svg" width="32" height="32" viewBox="0 0 32 32">
<path d="M25.492 21.153c-1.449 0-2.811 0.564-3.835 1.589-0.284 0.284-0.529 0.597-0.74 0.927l-9.372-5.689c0.248-0.62 0.388-1.295 0.388-2.003s-0.14-1.383-0.388-2.003l9.374-5.646c0.963 1.512 2.651 2.52 4.573 2.52 2.991 0 5.424-2.433 5.424-5.424s-2.433-5.424-5.424-5.424-5.424 2.433-5.424 5.424c0 0.681 0.132 1.331 0.362 1.932l-9.386 5.653c-0.97-1.477-2.639-2.456-4.535-2.456-2.991 0-5.424 2.433-5.424 5.424s2.433 5.424 5.424 5.424c1.896 0 3.564-0.979 4.534-2.456l9.385 5.697c-0.233 0.611-0.36 1.263-0.36 1.936 0 1.449 0.564 2.811 1.589 3.835s2.386 1.589 3.835 1.589 2.811-0.564 3.835-1.589c1.025-1.024 1.589-2.386 1.589-3.835s-0.564-2.811-1.589-3.835c-1.025-1.025-2.386-1.589-3.835-1.589z"></path>
</svg>
