<!-- Generated by IcoMoon.io -->
<svg version="1.1" xmlns="http://www.w3.org/2000/svg" width="33" height="32" viewBox="0 0 33 32">
<path d="M1.079 30.886c-0.731-0.731-1.079-1.602-1.079-2.612v-9.193c0-0.313 0.104-0.627 0.348-0.87s0.522-0.348 0.871-0.348c0.313 0 0.627 0.104 0.871 0.348s0.348 0.522 0.348 0.87v9.193c0 0.348 0.139 0.662 0.383 0.905s0.557 0.383 0.905 0.383h25.071c0.348 0 0.662-0.139 0.905-0.383s0.383-0.557 0.383-0.905v-9.193c0-0.313 0.104-0.627 0.348-0.87s0.522-0.348 0.87-0.348c0.313 0 0.627 0.104 0.871 0.348s0.348 0.522 0.348 0.87v9.193c0 1.010-0.348 1.88-1.079 2.612s-1.602 1.114-2.646 1.114h-25.071c-1.045 0-1.915-0.383-2.646-1.114zM16.261 0c-0.313 0-0.627 0.104-0.87 0.348l-8.113 8.148c-0.244 0.244-0.383 0.522-0.383 0.836s0.139 0.627 0.383 0.87c0.244 0.244 0.557 0.348 0.87 0.348s0.627-0.104 0.836-0.348l6.059-6.059v16.575c0 0.348 0.104 0.662 0.348 0.87s0.522 0.348 0.87 0.348c0.348 0 0.662-0.104 0.87-0.348s0.348-0.522 0.348-0.87v-16.575l6.059 6.059c0.244 0.244 0.522 0.348 0.836 0.348 0.348 0 0.662-0.104 0.87-0.348 0.244-0.244 0.348-0.557 0.348-0.87s-0.104-0.627-0.348-0.836l-8.113-8.148c-0.244-0.244-0.557-0.348-0.87-0.348z"></path>
</svg>
