<!-- Generated by IcoMoon.io -->
<svg version="1.1" xmlns="http://www.w3.org/2000/svg" width="32" height="32" viewBox="0 0 32 32">
<path d="M25.312 21.905c-1.671 0-3.162 0.786-4.123 2.008l-9.631-5.56c0.243-0.604 0.378-1.262 0.378-1.952s-0.135-1.348-0.378-1.952l9.631-5.56c0.962 1.221 2.452 2.008 4.123 2.008 2.894 0 5.248-2.354 5.248-5.248s-2.354-5.248-5.248-5.248-5.248 2.354-5.248 5.248c0 0.69 0.135 1.348 0.378 1.952l-9.631 5.56c-0.962-1.221-2.452-2.008-4.124-2.008-2.894 0-5.248 2.354-5.248 5.248s2.354 5.248 5.248 5.248c1.672 0 3.162-0.787 4.124-2.008l9.631 5.56c-0.243 0.604-0.378 1.263-0.378 1.953 0 2.894 2.354 5.248 5.248 5.248s5.248-2.354 5.248-5.248c0-2.893-2.354-5.248-5.248-5.248zM25.312 1.888c2.073 0 3.76 1.687 3.76 3.76s-1.687 3.76-3.76 3.76c-2.073 0-3.76-1.687-3.76-3.76s1.687-3.76 3.76-3.76zM6.688 20.16c-2.073 0-3.76-1.687-3.76-3.76s1.687-3.76 3.76-3.76c2.073 0 3.76 1.687 3.76 3.76s-1.687 3.76-3.76 3.76zM25.312 30.912c-2.073 0-3.76-1.687-3.76-3.76s1.687-3.76 3.76-3.76c2.073 0 3.76 1.687 3.76 3.76s-1.687 3.76-3.76 3.76zM6.688 14.188c-1.22 0-2.212 0.992-2.212 2.212 0 0.411 0.333 0.744 0.744 0.744s0.744-0.333 0.744-0.744c0-0.399 0.325-0.724 0.724-0.724 0.411 0 0.744-0.333 0.744-0.744s-0.333-0.744-0.744-0.744z"></path>
</svg>
