<!-- Generated by IcoMoon.io -->
<svg version="1.1" xmlns="http://www.w3.org/2000/svg" width="32" height="32" viewBox="0 0 32 32">
<path d="M26.337 5.475c-5.331 0-10.338-4.356-10.338-4.356s-5.006 4.294-10.338 4.294c-1.731 0-2.925-0.325-2.925-0.325v8.519c0 3.381 1.038 6.7 3.056 9.556 2.019 2.794 5.331 6.569 9.95 8.45l0.263 0.063 0.262-0.131c4.55-1.819 7.931-5.594 9.95-8.45 2.019-2.794 3.056-6.113 3.056-9.556v-8.387c-0.012 0-1.469 0.325-2.938 0.325zM26.469 6.775c0.587 0 1.106-0.063 1.625-0.131v6.894c0 0.769-0.056 1.525-0.169 2.275h-11.338v-12.606c1.7 1.244 5.531 3.569 9.881 3.569zM4.037 6.644c0.519 0.063 1.037 0.063 1.625 0.131 4.244 0 7.912-2.156 9.688-3.425v12.463h-11.144c-0.112-0.75-0.169-1.506-0.169-2.275v-6.894zM6.9 22.381c-1.181-1.625-2-3.431-2.456-5.331h10.906v12.938c-3.806-1.837-6.675-5.094-8.45-7.606zM25.231 22.381c-1.806 2.556-4.744 5.881-8.65 7.7v-13.031h11.106c-0.45 1.9-1.275 3.706-2.456 5.331z"></path>
</svg>
