<!-- Generated by IcoMoon.io -->
<svg version="1.1" xmlns="http://www.w3.org/2000/svg" width="32" height="32" viewBox="0 0 32 32">
<path d="M27.652 3.651l-10.416-3.072c-0.809-0.239-1.664-0.239-2.473 0l-10.416 3.072c-0.769 0.227-1.306 0.945-1.306 1.747v8.626c0 3.992 1.188 7.836 3.437 11.116 2.195 3.203 5.249 5.667 8.833 7.125 0.222 0.090 0.455 0.136 0.689 0.136s0.466-0.045 0.688-0.136c3.584-1.458 6.638-3.922 8.833-7.125 2.248-3.28 3.436-7.124 3.436-11.116v-8.626c0-0.802-0.537-1.52-1.306-1.747zM27.501 14.023c0 3.697-1.1 7.256-3.181 10.293-2.033 2.967-4.862 5.249-8.181 6.599-0.090 0.037-0.189 0.037-0.279 0-3.319-1.351-6.148-3.633-8.181-6.599-2.081-3.037-3.181-6.596-3.181-10.293v-8.626c0-0.16 0.107-0.304 0.261-0.349l10.416-3.072c0.27-0.080 0.547-0.119 0.824-0.119s0.555 0.040 0.824 0.119l10.416 3.072c0.154 0.045 0.261 0.189 0.261 0.349v8.626zM24.072 6.872l-7.763-2.289c-0.202-0.060-0.416-0.060-0.618 0l-7.763 2.289c-0.461 0.136-0.784 0.567-0.784 1.048v6.103c0 3.225 0.975 6.318 2.821 8.945 1.431 2.037 3.343 3.719 5.529 4.864 0.158 0.083 0.332 0.124 0.506 0.124s0.348-0.041 0.506-0.124c2.186-1.145 4.098-2.827 5.529-4.864 1.845-2.627 2.821-5.72 2.821-8.945v-6.103c-0-0.481-0.322-0.912-0.784-1.048zM23.399 14.023c0 2.924-0.884 5.727-2.556 8.108-1.261 1.795-2.932 3.285-4.843 4.32-1.911-1.035-3.582-2.525-4.843-4.32-1.672-2.381-2.556-5.184-2.556-8.108v-5.831l7.399-2.182 7.399 2.182v5.831z"></path>
</svg>
