<!-- Generated by IcoMoon.io -->
<svg version="1.1" xmlns="http://www.w3.org/2000/svg" width="32" height="32" viewBox="0 0 32 32">
<path d="M30.696 7.103l-0.043-1.002-0.998-0.102c-3.833-0.394-7.128-1.824-9.218-2.955-2.288-1.238-3.676-2.4-3.688-2.411l-0.749-0.633-0.75 0.632c-0.014 0.012-1.401 1.173-3.689 2.412-2.089 1.131-5.385 2.561-9.218 2.955l-0.998 0.102-0.043 1.002c-0.008 0.179-0.168 4.454 1.479 9.63 0.972 3.054 2.375 5.791 4.17 8.134 2.255 2.942 5.131 5.262 8.548 6.894l0.5 0.239 0.5-0.239c3.417-1.632 6.293-3.951 8.548-6.894 1.796-2.343 3.199-5.080 4.17-8.134 1.646-5.176 1.486-9.45 1.479-9.63zM16 29.421c-2.851-1.449-5.264-3.441-7.178-5.929-1.631-2.119-2.911-4.605-3.805-7.389-1.093-3.403-1.338-6.438-1.388-7.928 1.537-0.228 3.092-0.612 4.634-1.146 1.508-0.522 3.009-1.187 4.461-1.976 1.473-0.801 2.595-1.567 3.275-2.067 0.681 0.501 1.802 1.266 3.275 2.067 1.452 0.79 2.953 1.455 4.461 1.976 1.543 0.534 3.098 0.918 4.636 1.146-0.048 1.476-0.288 4.468-1.365 7.855-0.89 2.798-2.169 5.297-3.801 7.427-1.919 2.504-4.341 4.509-7.206 5.965z"></path>
<path d="M22.323 10.722l-7.651 7.651-3.473-3.473-1.641 1.641 5.114 5.114 9.292-9.292z"></path>
</svg>
