<!-- Generated by IcoMoon.io -->
<svg version="1.1" xmlns="http://www.w3.org/2000/svg" width="32" height="32" viewBox="0 0 32 32">
<path d="M21.6 30.4h-12.8c-1.323 0-2.4-1.077-2.4-2.4v-14.89l-3.747 1.249c-0.419 0.14-0.872-0.087-1.012-0.506l-1.6-4.8c-0.126-0.378 0.045-0.79 0.401-0.969l9.6-4.8c0.248-0.124 0.543-0.111 0.778 0.035s0.379 0.403 0.379 0.68c0 2.206 1.794 4 4 4s4-1.794 4-4c0-0.277 0.144-0.535 0.379-0.68s0.53-0.159 0.778-0.035l9.6 4.8c0.356 0.178 0.527 0.591 0.401 0.969l-1.6 4.8c-0.14 0.419-0.593 0.646-1.012 0.506l-3.747-1.249v14.89c0 1.323-1.077 2.4-2.4 2.4zM7.2 11.2c0.166 0 0.33 0.052 0.468 0.151 0.209 0.15 0.332 0.392 0.332 0.649v16c0 0.441 0.359 0.8 0.8 0.8h12.8c0.441 0 0.8-0.359 0.8-0.8v-16c0-0.257 0.124-0.499 0.332-0.649s0.477-0.191 0.721-0.11l4.041 1.347 1.128-3.383-7.957-3.979c-0.561 2.5-2.798 4.373-5.465 4.373s-4.904-1.873-5.465-4.373l-7.957 3.978 1.128 3.383 4.041-1.347c0.083-0.027 0.168-0.041 0.253-0.041z"></path>
</svg>
