<!-- Generated by IcoMoon.io -->
<svg version="1.1" xmlns="http://www.w3.org/2000/svg" width="32" height="32" viewBox="0 0 32 32">
<path d="M21.625 5.669v-1.494c0-1.688-1.363-3.056-3.056-3.056h-5.2c-1.688 0-3.056 1.363-3.056 3.056v1.494h-3.706v23.212c0 1.563 1.237 2.794 2.794 2.794h13.131c1.563 0 2.863-1.238 2.863-2.794v-23.212h-3.769zM11.544 4.175c0-0.975 0.844-1.819 1.819-1.819h5.2c0.975 0 1.819 0.844 1.819 1.819v1.494h-8.831v-1.494zM24.156 6.975v16.837h-16.325v-16.837h16.325zM22.594 30.444h-13.2c-0.844 0-1.563-0.712-1.563-1.563v-3.769h16.319v3.769c0.006 0.85-0.712 1.563-1.556 1.563z"></path>
</svg>
