<!-- Generated by IcoMoon.io -->
<svg version="1.1" xmlns="http://www.w3.org/2000/svg" width="32" height="32" viewBox="0 0 32 32">
<path d="M31.304 12.226h-30.609c-0.384 0-0.696 0.312-0.696 0.696s0.312 0.696 0.696 0.696h30.609c0.384 0 0.696-0.312 0.696-0.696s-0.312-0.696-0.696-0.696zM30.095 12.251c-0.367-0.1-0.754 0.117-0.854 0.488l-3.615 13.254c-0.246 0.904-1.074 1.537-2.013 1.537h-15.226c-0.939 0-1.767-0.633-2.015-1.537l-3.615-13.254c-0.1-0.373-0.484-0.589-0.853-0.49-0.371 0.102-0.59 0.484-0.488 0.854l3.615 13.255c0.412 1.51 1.791 2.563 3.356 2.563h15.226c1.565 0 2.944-1.053 3.356-2.563l3.615-13.254c0.102-0.37-0.117-0.753-0.488-0.854zM14.994 3.995c-0.321-0.213-0.753-0.125-0.964 0.193l-5.565 8.348c-0.213 0.32-0.127 0.751 0.193 0.964 0.12 0.079 0.253 0.117 0.385 0.117 0.224 0 0.445-0.109 0.579-0.31l5.565-8.348c0.213-0.32 0.127-0.751-0.193-0.964zM23.534 12.536l-5.565-8.348c-0.213-0.32-0.644-0.406-0.964-0.193s-0.406 0.644-0.193 0.964l5.565 8.348c0.135 0.202 0.355 0.31 0.58 0.31 0.134 0 0.267-0.038 0.384-0.117 0.32-0.213 0.406-0.644 0.193-0.964zM16 15.009c-0.384 0-0.696 0.312-0.696 0.696v9.739c0 0.384 0.312 0.696 0.696 0.696s0.696-0.312 0.696-0.696v-9.739c0-0.384-0.312-0.696-0.696-0.696zM20.968 15.016c-0.378-0.053-0.733 0.21-0.788 0.59l-1.391 9.739c-0.054 0.381 0.21 0.733 0.59 0.788 0.033 0.006 0.067 0.007 0.099 0.007 0.342 0 0.639-0.25 0.689-0.597l1.391-9.739c0.054-0.381-0.21-0.733-0.59-0.787zM13.21 25.345l-1.391-9.739c-0.054-0.381-0.405-0.648-0.787-0.59-0.38 0.054-0.644 0.408-0.59 0.787l1.391 9.739c0.050 0.346 0.348 0.597 0.689 0.597 0.032 0 0.065-0.003 0.099-0.007 0.38-0.054 0.644-0.408 0.59-0.788zM25.928 15.035c-0.364-0.102-0.754 0.109-0.86 0.479l-2.783 9.739c-0.104 0.369 0.109 0.754 0.479 0.86 0.064 0.018 0.128 0.026 0.192 0.026 0.303 0 0.582-0.199 0.668-0.505l2.783-9.739c0.104-0.369-0.109-0.754-0.479-0.86zM9.714 25.253l-2.783-9.739c-0.106-0.37-0.494-0.579-0.86-0.479-0.37 0.106-0.584 0.491-0.479 0.86l2.783 9.739c0.088 0.306 0.366 0.505 0.668 0.505 0.063 0 0.127-0.008 0.192-0.026 0.37-0.106 0.584-0.491 0.479-0.86z"></path>
</svg>
