<!-- Generated by IcoMoon.io -->
<svg version="1.1" xmlns="http://www.w3.org/2000/svg" width="32" height="32" viewBox="0 0 32 32">
<path d="M4.419 31.656h23.163l-0.456-0.913c-3.906-8.525 0-22.188-0.069-22.381l0.262-0.844h-6.050v-2.537c0-2.081-1.694-3.837-3.837-3.837h-2.994c-2.081 0-3.838 1.694-3.838 3.837v2.537h-6.119l0.263 0.844c0.063 0.194 3.969 13.863 0.063 22.381l-0.388 0.913zM11.9 4.981c0-1.431 1.169-2.6 2.606-2.6h2.994c1.431 0 2.606 1.169 2.606 2.6v2.538h-8.206v-2.537zM6.237 8.819h19.456c-0.781 3.056-3.125 13.794-0.131 21.538h-19.194c3.056-7.744 0.65-18.481-0.131-21.538z"></path>
</svg>
