<!-- Generated by IcoMoon.io -->
<svg version="1.1" xmlns="http://www.w3.org/2000/svg" width="32" height="32" viewBox="0 0 32 32">
<path d="M31.807 7.064c-0.175-0.226-0.444-0.358-0.73-0.358h-23.455l-1.024-3.941c-0.106-0.406-0.472-0.69-0.892-0.69h-4.784c-0.509 0-0.922 0.413-0.922 0.922s0.413 0.922 0.922 0.922h4.071l1.024 3.941c0 0 0 0 0 0l3.612 13.888c0.106 0.406 0.472 0.69 0.892 0.69h16.944c0.42 0 0.787-0.284 0.892-0.69l3.613-13.888c0.072-0.276 0.012-0.57-0.163-0.796zM14.492 20.594h-3.257l-0.724-2.785h3.981v2.785zM14.492 15.965h-4.461l-0.725-2.787h5.186v2.787zM14.492 11.335h-5.665l-0.724-2.785h6.389v2.785zM21.652 20.594h-5.316v-2.785h5.316v2.785zM21.652 15.965h-5.316v-2.787h5.316v2.787zM21.652 11.335h-5.316v-2.785h5.316v2.785zM26.753 20.594h-3.257v-2.785h3.981l-0.724 2.785zM27.957 15.965h-4.461v-2.787h5.186l-0.725 2.787zM29.161 11.335h-5.665v-2.785h6.39l-0.724 2.785z"></path>
<path d="M12.968 23.189c-1.857 0-3.368 1.511-3.368 3.368s1.511 3.369 3.368 3.369c1.857 0 3.368-1.511 3.368-3.369s-1.511-3.368-3.368-3.368zM12.968 28.081c-0.84 0-1.524-0.684-1.524-1.524s0.684-1.524 1.524-1.524c0.84 0 1.524 0.684 1.524 1.524s-0.684 1.524-1.524 1.524z"></path>
<path d="M25.019 23.189c-1.857 0-3.368 1.511-3.368 3.368s1.511 3.369 3.368 3.369c1.857 0 3.368-1.511 3.368-3.369s-1.511-3.368-3.368-3.368zM25.019 28.081c-0.84 0-1.523-0.684-1.523-1.524s0.683-1.524 1.523-1.524c0.84 0 1.524 0.684 1.524 1.524s-0.684 1.524-1.524 1.524z"></path>
</svg>
