<!-- Generated by IcoMoon.io -->
<svg version="1.1" xmlns="http://www.w3.org/2000/svg" width="32" height="32" viewBox="0 0 32 32">
<path d="M21.344 26.5c-1.431 0-2.544 1.175-2.544 2.606s1.175 2.606 2.544 2.606 2.544-1.175 2.544-2.606-1.175-2.606-2.544-2.606zM21.344 30.406c-0.719 0-1.238-0.587-1.238-1.306s0.587-1.306 1.238-1.306 1.238 0.587 1.238 1.306-0.587 1.306-1.238 1.306zM7.463 26.5c-1.431 0-2.544 1.175-2.544 2.606s1.175 2.606 2.544 2.606c1.431 0 2.544-1.175 2.544-2.606s-1.175-2.606-2.544-2.606zM7.463 30.406c-0.719 0-1.237-0.587-1.237-1.306s0.588-1.306 1.237-1.306c0.719 0 1.238 0.587 1.238 1.306 0 0.725-0.581 1.306-1.237 1.306zM27.469 1.087l-1.012 3.975h-25.575l4.719 13.981c-1.581 0.231-2.763 1.569-2.763 3.288 0 1.887 1.431 3.387 3.256 3.387h17.725v-1.238h-17.725c-1.106 0-1.956-0.913-1.956-2.087s0.912-2.087 1.956-2.087h17.788l4.625-17.919h2.606v-1.3h-3.644zM22.906 19.006h-15.963l-4.237-12.644h23.394l-3.194 12.644zM9.156 9.425h1.306v7.363h-1.306v-7.363zM13.787 9.425h1.306v7.363h-1.306v-7.363zM18.413 9.425h1.306v7.363h-1.306v-7.363z"></path>
</svg>
