<!-- Generated by IcoMoon.io -->
<svg version="1.1" xmlns="http://www.w3.org/2000/svg" width="32" height="32" viewBox="0 0 32 32">
<path d="M19.45 23.244h-15.512l-3.25-14.925h14.981v1.238h-13.387l2.713 12.45h13.525l7.494-20.919h5.3v1.306h-4.375zM16.4 31.712c-1.856 0-3.381-1.5-3.381-3.387s1.525-3.387 3.381-3.387 3.381 1.5 3.381 3.387c0 1.887-1.525 3.387-3.381 3.387zM16.4 26.238c-1.194 0-2.119 0.975-2.119 2.087 0 1.175 0.925 2.087 2.119 2.087s2.119-0.975 2.119-2.087c0-1.175-0.994-2.087-2.119-2.087zM6.787 31.712c-1.856 0-3.381-1.5-3.381-3.387s1.525-3.387 3.381-3.387 3.381 1.5 3.381 3.387c0 1.887-1.525 3.387-3.381 3.387zM6.787 26.238c-1.194 0-2.119 0.975-2.119 2.087 0 1.175 0.925 2.087 2.119 2.087s2.119-0.975 2.119-2.087c-0.063-1.175-0.994-2.087-2.119-2.087z"></path>
</svg>
