<!-- Generated by IcoMoon.io -->
<svg version="1.1" xmlns="http://www.w3.org/2000/svg" width="32" height="32" viewBox="0 0 32 32">
<path d="M25.337 23.063c-2.2 0-3.99 1.79-3.99 3.99s1.79 3.99 3.99 3.99 3.99-1.79 3.99-3.99-1.79-3.99-3.99-3.99zM25.337 28.649c-0.88 0-1.596-0.716-1.596-1.596s0.716-1.596 1.596-1.596c0.88 0 1.596 0.716 1.596 1.596s-0.716 1.596-1.596 1.596zM31.746 7.642c-0.227-0.29-0.574-0.459-0.942-0.459h-23.414l-1.077-4.508c-0.129-0.539-0.611-0.919-1.164-0.919h-3.95c-0.661-0-1.197 0.536-1.197 1.197s0.536 1.197 1.197 1.197h3.005l3.89 16.278c0.129 0.539 0.611 0.919 1.164 0.919h18.634c0.55 0 1.030-0.375 1.162-0.909l2.913-11.771c0.088-0.357 0.007-0.735-0.22-1.025zM26.954 18.953h-16.752l-2.241-9.376h21.313l-2.32 9.376zM10.853 23.063c-2.2 0-3.99 1.79-3.99 3.99s1.79 3.99 3.99 3.99 3.99-1.79 3.99-3.99-1.79-3.99-3.99-3.99zM10.853 28.649c-0.88 0-1.596-0.716-1.596-1.596s0.716-1.596 1.596-1.596 1.596 0.716 1.596 1.596-0.716 1.596-1.596 1.596z"></path>
</svg>
