<!-- Generated by IcoMoon.io -->
<svg version="1.1" xmlns="http://www.w3.org/2000/svg" width="32" height="32" viewBox="0 0 32 32">
<path d="M23.169 25.488c-1.431 0-2.606 1.175-2.606 2.606s1.175 2.606 2.606 2.606 2.606-1.175 2.606-2.606c0-1.431-1.175-2.606-2.606-2.606zM24.469 28.094c0 0.719-0.587 1.306-1.306 1.306s-1.306-0.587-1.306-1.306c0-0.719 0.587-1.306 1.306-1.306 0.788 0.006 1.375 0.594 1.306 1.306zM14.044 25.488c-1.431 0-2.606 1.175-2.606 2.606s1.175 2.606 2.606 2.606 2.606-1.175 2.606-2.606c0-1.431-1.169-2.606-2.606-2.606zM14.044 29.4c-0.719 0-1.306-0.587-1.306-1.306s0.588-1.306 1.306-1.306c0.719 0 1.306 0.587 1.306 1.306s-0.588 1.306-1.306 1.306zM25.444 10.5c0.256-0.681 0.394-1.412 0.394-2.181 0-3.438-2.788-6.225-6.225-6.225s-6.225 2.787-6.225 6.225c0 0.769 0.137 1.506 0.394 2.181h-4.594l-2.438-8.338h-6.063v1.237h5.081l5.8 19.744h14.463l5.281-12.644h-5.869zM19.619 3.4c2.719 0 4.919 2.2 4.919 4.919s-2.2 4.919-4.919 4.919-4.919-2.2-4.919-4.919c-0.006-2.713 2.2-4.919 4.919-4.919zM25.188 21.844h-12.706l-2.919-10.037h4.894c1.119 1.65 3.012 2.737 5.156 2.737s4.037-1.088 5.156-2.738h4.588l-4.169 10.038zM19 11.287h1.3v-2.281h2.281v-1.306h-2.281v-2.344h-1.3v2.344h-2.35v1.306h2.35z"></path>
</svg>
