<!-- Generated by IcoMoon.io -->
<svg version="1.1" xmlns="http://www.w3.org/2000/svg" width="32" height="32" viewBox="0 0 32 32">
<path d="M13.418 25.577c-1.552 0-2.814 1.262-2.814 2.814s1.262 2.814 2.814 2.814 2.814-1.262 2.814-2.814c-0-1.552-1.263-2.814-2.814-2.814zM13.418 29.634c-0.685 0-1.243-0.558-1.243-1.243s0.558-1.243 1.243-1.243 1.243 0.558 1.243 1.243c0 0.685-0.558 1.243-1.243 1.243zM23.289 25.577c-1.552 0-2.814 1.262-2.814 2.814s1.262 2.814 2.814 2.814 2.814-1.262 2.814-2.814c-0-1.552-1.263-2.814-2.814-2.814zM23.289 29.634c-0.685 0-1.243-0.558-1.243-1.243s0.558-1.243 1.243-1.243c0.685 0 1.243 0.558 1.243 1.243s-0.558 1.243-1.243 1.243zM23.982 10.76h-11.259c-0.434 0-0.786 0.352-0.786 0.786s0.352 0.786 0.786 0.786h11.259c0.434 0 0.786-0.352 0.786-0.786s-0.352-0.786-0.786-0.786zM23.369 14.84h-10.034c-0.434 0-0.786 0.352-0.786 0.786s0.352 0.786 0.786 0.786h10.034c0.434 0 0.786-0.352 0.786-0.786s-0.352-0.786-0.786-0.786zM31.646 7.259c-0.3-0.368-0.744-0.579-1.218-0.579h-24.473l-0.494-2.399c-0.103-0.5-0.445-0.921-0.913-1.124l-3.449-1.497c-0.398-0.173-0.861 0.010-1.034 0.408s0.010 0.861 0.408 1.034l3.449 1.497 3.802 18.454c0.15 0.727 0.797 1.254 1.539 1.254h18.823c0.434 0 0.786-0.352 0.786-0.786s-0.352-0.786-0.786-0.786h-18.823l-0.462-2.245h19.431c0.742 0 1.389-0.527 1.539-1.254l2.198-10.667c0.096-0.464-0.021-0.942-0.321-1.31zM28.231 18.919h-19.754l-2.198-10.667 24.15 0-2.198 10.667z"></path>
</svg>
