<!-- Generated by IcoMoon.io -->
<svg version="1.1" xmlns="http://www.w3.org/2000/svg" width="32" height="32" viewBox="0 0 32 32">
<path d="M31.288 29.106l-2.837-25.931c-0.131-1.175-1.188-2.087-2.375-2.087h-20.156c-1.25 0-2.237 0.913-2.375 2.087l-2.831 25.931c-0.219 1.456 0.887 2.606 2.375 2.606h25.825c1.381 0 2.594-1.169 2.375-2.606zM28.913 30.406h-25.825c-0.563 0-1.181-0.387-1.056-1.175l2.831-25.863c0.069-0.587 0.525-0.975 1.056-0.975v-0.063h20.163c0.525 0 0.988 0.456 1.056 0.975l2.831 25.931c0.113 0.575-0.294 1.169-1.056 1.169zM21.794 4.794c-0.369 0-0.663 0.294-0.663 0.656v6.35c0 2.8-2.3 5.075-5.131 5.075s-5.131-2.275-5.131-5.075v-6.331c0-0.362-0.3-0.656-0.662-0.656-0.369 0-0.662 0.294-0.662 0.656v6.331c0 3.525 2.9 6.387 6.463 6.387s6.462-2.869 6.462-6.387v-6.344c-0.006-0.369-0.306-0.662-0.675-0.662z"></path>
</svg>
