<!-- Generated by IcoMoon.io -->
<svg version="1.1" xmlns="http://www.w3.org/2000/svg" width="32" height="32" viewBox="0 0 32 32">
<path d="M10.069 19.069h18.050l3.194-11.4h-4.7l-1.688-5.213-7.037 2.281 0.962 2.931h-0.331l-1.738-5.213-7.037 2.281 0.963 2.931h-3.763l-0.781-3.125c-0.394-1.563-1.756-2.669-3.325-2.669h-2.15v1.306h2.15c0.975 0 1.825 0.65 2.088 1.631l3.456 13.525c-0.713 0.512-1.181 1.35-1.181 2.306 0 1.563 1.306 2.869 2.869 2.869h17.594v-1.306h-17.594c-0.85 0-1.563-0.719-1.563-1.563 0-0.856 0.719-1.575 1.563-1.575zM24.081 4.081l1.175 3.519h-5.081l-0.719-2.019 4.625-1.5zM15.938 4.081l1.175 3.519h-5.081l-0.719-2.019 4.625-1.5zM29.619 8.906l-2.475 8.863h-17.594l-2.281-8.863h22.35zM21.931 25.456c-1.5 0-2.738 1.238-2.738 2.738s1.238 2.738 2.738 2.738c1.563 0 2.738-1.238 2.738-2.738s-1.238-2.738-2.738-2.738zM21.931 29.694c-0.85 0-1.5-0.719-1.5-1.5 0-0.85 0.719-1.5 1.5-1.5 0.85 0 1.5 0.65 1.5 1.5s-0.719 1.5-1.5 1.5zM11.894 25.456c-1.5 0-2.738 1.238-2.738 2.738s1.238 2.738 2.738 2.738c1.5 0 2.738-1.238 2.738-2.738s-1.238-2.738-2.738-2.738zM11.894 29.694c-0.85 0-1.5-0.719-1.5-1.5 0-0.85 0.719-1.5 1.5-1.5s1.5 0.65 1.5 1.5c0 0.85-0.719 1.5-1.5 1.5z"></path>
</svg>
