<!-- Generated by IcoMoon.io -->
<svg version="1.1" xmlns="http://www.w3.org/2000/svg" width="32" height="32" viewBox="0 0 32 32">
<path d="M31.080 19.396c0.232-1.042 0.352-2.122 0.352-3.23 0-8.31-6.832-15.048-15.262-15.048-0.888 0-1.76 0.076-2.61 0.22-1.364-0.846-2.978-1.338-4.708-1.338-4.89 0-8.852 3.906-8.852 8.728 0 1.61 0.444 3.116 1.216 4.414-0.202 0.976-0.31 1.988-0.31 3.024 0 8.312 6.834 15.050 15.262 15.050 0.956 0 1.89-0.088 2.796-0.252 1.248 0.66 2.672 1.036 4.186 1.036 4.888 0 8.85-3.908 8.85-8.726 0-1.394-0.332-2.708-0.92-3.878zM23.998 23.358c-0.706 0.986-1.748 1.766-3.102 2.318-1.338 0.55-2.94 0.83-4.768 0.83-2.192 0-4.030-0.38-5.466-1.132-1.026-0.546-1.87-1.284-2.512-2.2-0.65-0.92-0.976-1.834-0.976-2.718 0-0.55 0.214-1.028 0.636-1.418 0.418-0.39 0.954-0.584 1.594-0.584 0.524 0 0.976 0.154 1.344 0.46 0.35 0.294 0.652 0.73 0.894 1.288 0.27 0.612 0.564 1.128 0.874 1.53 0.302 0.394 0.732 0.722 1.282 0.98 0.554 0.256 1.3 0.39 2.216 0.39 1.262 0 2.298-0.266 3.074-0.79 0.762-0.51 1.13-1.126 1.13-1.878 0-0.592-0.194-1.060-0.588-1.426-0.416-0.384-0.964-0.682-1.628-0.888-0.694-0.212-1.636-0.444-2.8-0.684-1.586-0.334-2.932-0.73-4-1.18-1.094-0.46-1.978-1.096-2.622-1.892-0.656-0.81-0.988-1.824-0.988-3.016 0-1.136 0.348-2.16 1.036-3.044 0.682-0.878 1.678-1.564 2.964-2.030 1.266-0.462 2.772-0.696 4.478-0.696 1.362 0 2.56 0.156 3.562 0.464 1.006 0.308 1.854 0.724 2.52 1.238 0.672 0.52 1.172 1.070 1.484 1.646 0.316 0.58 0.478 1.158 0.478 1.716 0 0.538-0.21 1.028-0.626 1.452-0.42 0.43-0.948 0.646-1.568 0.646-0.564 0-1.008-0.138-1.314-0.404-0.286-0.25-0.584-0.64-0.912-1.196-0.38-0.712-0.842-1.274-1.37-1.672-0.514-0.386-1.37-0.578-2.55-0.578-1.092 0-1.984 0.216-2.644 0.644-0.636 0.41-0.946 0.882-0.946 1.442 0 0.342 0.1 0.628 0.306 0.874 0.216 0.264 0.522 0.49 0.91 0.682 0.4 0.198 0.814 0.358 1.228 0.47 0.424 0.116 1.134 0.29 2.112 0.512 1.236 0.26 2.37 0.554 3.374 0.872 1.018 0.318 1.894 0.712 2.614 1.174 0.73 0.47 1.308 1.070 1.72 1.79 0.412 0.726 0.62 1.616 0.62 2.652-0.002 1.238-0.362 2.368-1.070 3.356z"></path>
</svg>
