<!-- Generated by IcoMoon.io -->
<svg version="1.1" xmlns="http://www.w3.org/2000/svg" width="32" height="32" viewBox="0 0 32 32">
<path d="M30.034 16.898c0.019-0.299 0.028-0.6 0.028-0.898 0-7.789-6.308-14.125-14.063-14.125-0.299 0-0.6 0.010-0.899 0.028-1.625-1.23-3.643-1.903-5.726-1.903-5.169 0-9.375 4.234-9.375 9.438 0 2.045 0.673 4.041 1.903 5.663-0.019 0.299-0.028 0.6-0.028 0.899 0 7.774 6.352 14.125 14.125 14.125 0.299 0 0.6-0.010 0.899-0.028 1.622 1.23 3.618 1.903 5.663 1.903 5.183 0 9.438-4.256 9.438-9.438 0-2.002-0.696-3.999-1.966-5.664zM22.563 30.125c-3.108 0-4.919-1.871-5.069-1.959-0.255 0.019-0.752 0.084-1.493 0.084-6.755 0-12.25-5.495-12.25-12.25 0-0.744 0.066-1.244 0.084-1.493-0.087-0.147-1.959-1.96-1.959-5.070 0-4.17 3.364-7.563 7.5-7.563 3.187 0 4.982 1.872 5.132 1.959 0.248-0.019 0.75-0.084 1.493-0.084 6.72 0 12.188 5.495 12.188 12.25 0 0.744-0.066 1.244-0.084 1.493 0.087 0.146 2.022 2.051 2.022 5.070 0 4.17-3.393 7.563-7.563 7.563z"></path>
<path d="M16 13.188c-0.926 0-1.829-0.234-2.417-0.626-0.184-0.123-0.306-0.232-0.382-0.312 0.075-0.080 0.198-0.189 0.383-0.312 1.66-1.108 4.575-0.471 5.193 0.289 0.958 1.179 1.973 0.933 2.236 0.961 1.063 0 2.011-0.596 2.475-1.557 0.461-0.955 0.339-2.062-0.319-2.888-2.856-3.592-9.27-3.821-12.768-1.484-1.844 1.228-2.901 3.047-2.901 4.991s1.057 3.763 2.899 4.99c1.496 0.999 3.538 1.573 5.601 1.573 0.926 0 1.829 0.234 2.417 0.626 0.187 0.125 0.298 0.238 0.356 0.312-0.058 0.074-0.169 0.187-0.357 0.312-1.631 1.088-4.611 0.503-5.255-0.289-1.092-1.343-3.749-1.397-4.71 0.596-0.46 0.955-0.338 2.061 0.319 2.888 1.675 2.106 4.561 3.055 7.231 3.055 2.053 0 4.020-0.558 5.537-1.571 1.843-1.228 2.901-3.048 2.901-4.992 0-3.404-3.371-6.563-8.438-6.563zM20.496 23.182c-1.212 0.81-2.809 1.256-4.496 1.256-2.101 0-4.462-0.71-5.764-2.347-0.301-0.378-0.168-0.76-0.098-0.907 0.343-0.71 1.316-0.537 1.567-0.228 1.315 1.618 5.387 2.243 7.751 0.666 0.794-0.53 1.231-1.195 1.231-1.872s-0.437-1.342-1.23-1.871c-0.896-0.598-2.157-0.941-3.458-0.941-1.702 0-3.364-0.458-4.561-1.257-1.312-0.874-2.064-2.124-2.064-3.43s0.753-2.557 2.066-3.432c2.723-1.818 8.048-1.69 10.26 1.091 0.301 0.378 0.168 0.76 0.098 0.906-0.056 0.116-0.279 0.496-0.786 0.496-0.463-0.020-0.526 0.045-0.781-0.268-1.292-1.59-5.296-2.263-7.689-0.666-0.59 0.394-1.293 1.039-1.293 1.872s0.703 1.478 1.292 1.871c0.896 0.598 2.156 0.941 3.458 0.941 1.687 0 3.284 0.446 4.498 1.257 1.312 0.874 2.064 2.124 2.064 3.43s-0.753 2.557-2.066 3.432z"></path>
</svg>
