<!-- Generated by IcoMoon.io -->
<svg version="1.1" xmlns="http://www.w3.org/2000/svg" width="53" height="32" viewBox="0 0 53 32">
<path d="M25.132 5.541c-1.717 0-3.122 1.405-3.122 3.122s1.405 3.122 3.122 3.122 3.122-1.405 3.122-3.122-1.405-3.122-3.122-3.122zM25.132 10.927c-1.249 0-2.341-1.015-2.341-2.341s1.015-2.341 2.341-2.341 2.341 1.015 2.341 2.341-1.093 2.341-2.341 2.341z"></path>
<path d="M25.054 31.22h-3.2c-0.234 0-0.39 0.156-0.39 0.39s0.156 0.39 0.39 0.39h3.2c0.234 0 0.39-0.156 0.39-0.39s-0.234-0.39-0.39-0.39z"></path>
<path d="M28.254 31.22h-0.546c-0.234 0-0.39 0.156-0.39 0.39s0.156 0.39 0.39 0.39h0.546c0.234 0 0.39-0.156 0.39-0.39s-0.156-0.39-0.39-0.39z"></path>
<path d="M31.376 31.22h-0.546c-0.234 0-0.39 0.156-0.39 0.39s0.156 0.39 0.39 0.39h0.546c0.234 0 0.39-0.156 0.39-0.39s-0.156-0.39-0.39-0.39z"></path>
<path d="M40.741 0h-28.254c-2.341 0-4.293 1.951-4.293 4.293v15.766c0 2.341 1.951 4.293 4.293 4.293h28.254c2.341 0 4.293-1.951 4.293-4.293v-15.766c0-2.341-1.951-4.293-4.293-4.293zM40.741 23.571h-20.995l8.663-8.351 5.307 4.449 7.024-8.663 3.434 3.824v5.229c0.078 1.951-1.483 3.512-3.434 3.512zM44.254 13.659l-3.512-3.824-7.102 8.819-5.229-4.371-9.756 9.366h-6.166c-1.951 0-3.512-1.561-3.512-3.512v-15.844c0-1.951 1.561-3.512 3.512-3.512h28.254c1.951 0 3.512 1.561 3.512 3.512v9.366z"></path>
<path d="M4.527 5.073h1.639c0.234 0 0.39-0.156 0.39-0.39s-0.234-0.39-0.39-0.39h-1.639c-2.498 0-4.527 2.029-4.527 4.449v6.868c0 2.498 2.029 4.449 4.527 4.449h1.639c0.234 0 0.39-0.156 0.39-0.39s-0.156-0.39-0.39-0.39h-1.639c-2.107 0-3.746-1.639-3.746-3.668v-6.79c0-2.107 1.639-3.746 3.746-3.746z"></path>
<path d="M48.781 4.293h-1.639c-0.234 0-0.39 0.156-0.39 0.39s0.156 0.39 0.39 0.39h1.639c2.029 0 3.746 1.639 3.746 3.746v6.79c0 2.029-1.639 3.668-3.746 3.668h-1.639c-0.234 0-0.39 0.156-0.39 0.39s0.156 0.39 0.39 0.39h1.639c2.498 0 4.527-2.029 4.527-4.449v-6.79c-0.078-2.498-2.107-4.527-4.527-4.527z"></path>
</svg>
