<!-- Generated by IcoMoon.io -->
<svg version="1.1" xmlns="http://www.w3.org/2000/svg" width="32" height="32" viewBox="0 0 32 32">
<path d="M10.352 15.061c2.567 0 4.655-2.088 4.655-4.655s-2.088-4.655-4.655-4.655-4.655 2.088-4.655 4.655 2.088 4.655 4.655 4.655zM10.352 7.626c1.533 0 2.78 1.247 2.78 2.78s-1.247 2.78-2.78 2.78c-1.533 0-2.78-1.247-2.78-2.78s1.247-2.78 2.78-2.78z"></path>
<path d="M21.681 15.061c2.551 0 4.627-2.076 4.627-4.627s-2.076-4.627-4.627-4.627c-2.551 0-4.627 2.076-4.627 4.627s2.075 4.627 4.627 4.627zM21.681 7.682c1.518 0 2.752 1.234 2.752 2.752s-1.235 2.752-2.752 2.752c-1.517 0-2.752-1.234-2.752-2.752s1.235-2.752 2.752-2.752z"></path>
<path d="M31.452 15.128c-0.37-0.381-0.848-0.576-1.331-0.579v-11.737c0-1.551-1.262-2.812-2.812-2.812h-22.623c-1.551 0-2.812 1.261-2.812 2.812v11.745c-0.486 0.003-0.965 0.198-1.334 0.579-0.679 0.699-0.721 1.751-0.098 2.5l0.11 0.133c1.221 1.471 2.59 3.122 5.095 4.202-0.672 4.892 0.732 7.346 1.662 8.395 0.907 1.022 2.077 1.593 3.319 1.631v0h0.028c0.033 0.001 0.067 0.003 0.1 0.003 0.041 0 0.082-0.001 0.124-0.002l1.369-0.001c1.55-0 2.811-1.262 2.811-2.812v-5.518l1.875 0.313v5.205c0 1.551 1.262 2.812 2.812 2.812h1.394c0.032 0.001 0.064 0.001 0.095 0.001 2.158 0 4.414-1.677 5.085-5.275 0.26-1.391 0.268-2.987 0.026-4.752 2.38-1.027 3.672-2.487 5.205-4.335 0.624-0.75 0.582-1.805-0.101-2.508zM4.685 1.875h22.623c0.517 0 0.937 0.421 0.937 0.937v12.513c-2.231 1.152-3.782 1.489-5.36 1.611h-3.139c-1.064 0-1.991 0.594-2.469 1.467l-2.055-1.028c-0.575-0.288-1.219-0.439-1.861-0.439h-4.253c-1.578-0.122-3.129-0.459-5.36-1.611v-12.513c0-0.517 0.42-0.938 0.938-0.938zM13.185 21.454v7.731c0 0.517-0.421 0.938-0.938 0.938h-1.588c-2.384-0.099-3.953-3.346-3.048-8.59l0.134-0.778-0.744-0.264c-2.491-0.885-3.713-2.358-5.008-3.918l-0.108-0.131c0.002-0.002 0.004-0.004 0.007-0.006 0.005 0.003 0.011 0.007 0.019 0.013l0.056 0.044 0.062 0.035c2.992 1.682 4.951 2.128 6.973 2.281 5.079 0.003 4.27 0.003 4.359 0.003 0.353 0 0.707 0.084 1.023 0.241l2.551 1.275v1.751zM25.049 20.469l-0.813 0.213 0.146 0.848c0.968 5.61-0.918 8.527-3.080 8.592h-1.555c-0.517 0-0.938-0.42-0.938-0.938v-9.437c0-0.517 0.421-0.938 0.938-0.938 0.199-0-0.93 0.001 3.245-0.003 2.021-0.152 3.98-0.598 6.973-2.281l0.061-0.034 0.079-0.061c0.002 0.002 0.004 0.004 0.006 0.006-1.536 1.852-2.679 3.169-5.061 4.031z"></path>
</svg>
