<!-- Generated by IcoMoon.io -->
<svg version="1.1" xmlns="http://www.w3.org/2000/svg" width="32" height="32" viewBox="0 0 32 32">
<path d="M19.294 27.067c-1.029 0-1.867 0.837-1.867 1.867s0.837 1.867 1.867 1.867 1.867-0.837 1.867-1.867-0.838-1.867-1.867-1.867zM19.294 29.733c-0.441 0-0.8-0.359-0.8-0.8s0.359-0.8 0.8-0.8 0.8 0.359 0.8 0.8-0.359 0.8-0.8 0.8zM21.694 20.133c1.177 0 2.133-0.957 2.133-2.133s-0.957-2.133-2.133-2.133-2.133 0.957-2.133 2.133 0.956 2.133 2.133 2.133zM21.694 16.933c0.588 0 1.067 0.478 1.067 1.067s-0.478 1.067-1.067 1.067-1.067-0.478-1.067-1.067 0.478-1.067 1.067-1.067zM8.894 6.8c0.137 0 0.273-0.052 0.377-0.156l1.067-1.067c0.209-0.209 0.209-0.546 0-0.754s-0.546-0.209-0.754 0l-1.067 1.067c-0.209 0.209-0.209 0.546 0 0.754 0.104 0.104 0.241 0.156 0.377 0.156zM28.094 16.265c0-0.469-0.183-0.91-0.515-1.242l-0.297-0.297c0.506-0.448 0.811-1.096 0.811-1.793 0-1.323-1.077-2.4-2.4-2.4-0.097 0-0.193 0.010-0.288 0.021 0.012-0.095 0.021-0.19 0.021-0.288 0-1.323-1.077-2.4-2.4-2.4-0.097 0-0.193 0.010-0.288 0.021 0.012-0.095 0.021-0.19 0.021-0.288 0-1.323-1.077-2.4-2.4-2.4-0.097 0-0.193 0.010-0.288 0.021 0.012-0.095 0.021-0.19 0.021-0.288 0-1.323-1.077-2.4-2.4-2.4-0.698 0-1.345 0.306-1.793 0.811l-2.43-2.43c-0.685-0.685-1.8-0.685-2.484 0l-6.566 6.566c-0.684 0.685-0.684 1.8 0 2.485l4.626 4.626c-0.723 0.414-1.218 1.185-1.218 2.076 0 0.834 0.428 1.569 1.076 1.999 0.033 0.043 0.070 0.086 0.121 0.129l5.737 5.715v0.958h-1.067v6.933h13.867v-6.933h-1.067v-1.616c1.020-0.865 1.6-2.108 1.6-3.451 0-0.928-0.29-1.829-0.819-2.588l0.305-0.305c0.332-0.332 0.515-0.773 0.515-1.242zM27.028 12.933c0 0.41-0.189 0.789-0.5 1.038l-1.873-1.873c0.25-0.311 0.629-0.5 1.038-0.5 0.735 0.001 1.334 0.598 1.334 1.334zM24.361 10.266c0 0.41-0.189 0.789-0.5 1.038l-1.873-1.873c0.25-0.311 0.629-0.5 1.038-0.5 0.735 0.001 1.334 0.598 1.334 1.334zM21.694 7.6c0 0.41-0.189 0.789-0.5 1.038l-1.873-1.873c0.25-0.311 0.629-0.5 1.038-0.5 0.735 0.001 1.334 0.598 1.334 1.334zM17.694 3.6c0.735 0 1.333 0.598 1.333 1.333 0 0.41-0.189 0.789-0.5 1.038l-1.873-1.873c0.25-0.31 0.629-0.499 1.039-0.499zM5.173 9.211c-0.269-0.269-0.269-0.707 0-0.977l6.567-6.566c0.067-0.067 0.145-0.117 0.227-0.15 0.037-0.015 0.079-0.015 0.119-0.023 0.095-0.020 0.189-0.020 0.284 0 0.039 0.009 0.082 0.008 0.119 0.023 0.083 0.034 0.16 0.084 0.227 0.15l1.253 1.253-7.543 7.543-1.253-1.252zM14.723 3.675l12.102 12.102c0.269 0.269 0.269 0.707 0 0.976l-0.233 0.234-6.333 6.333c-0.268 0.269-0.707 0.27-0.977 0l-4.253-4.254h0.531c1.323 0 2.4-1.077 2.4-2.4s-1.077-2.4-2.4-2.4h-5.332l-3.049-3.049 7.543-7.543zM9.939 15.366l0.221-0.025c0.022-0.003 0.044-0.008 0.066-0.008h5.333c0.735 0 1.333 0.598 1.333 1.333s-0.598 1.333-1.333 1.333h-5.333c-0.735 0-1.333-0.598-1.333-1.333 0.001-0.636 0.449-1.168 1.046-1.3zM14.761 31.333v-4.8h4.494c1.639 0 2.973 1.334 2.973 2.973v1.827h-7.467zM26.494 31.333h-3.2v-1.827c0-1.177-0.509-2.234-1.314-2.973h4.514v4.8zM26.508 18.58c0.338 0.545 0.52 1.174 0.52 1.82 0 1.096-0.506 2.105-1.388 2.769l-0.212 0.16v2.138h-9.601v-1.45l-0.188-0.159c-0.024-0.021-0.050-0.040-0.096-0.075l-4.734-4.717h2.712l5.008 5.008c0.343 0.342 0.793 0.514 1.242 0.514s0.9-0.171 1.243-0.514l5.495-5.494z"></path>
</svg>
