<!-- Generated by IcoMoon.io -->
<svg version="1.1" xmlns="http://www.w3.org/2000/svg" width="32" height="32" viewBox="0 0 32 32">
<path d="M16.8 28.8h-1.6c-0.442 0-0.8-0.358-0.8-0.8s0.358-0.8 0.8-0.8h1.6c0.442 0 0.8 0.358 0.8 0.8s-0.358 0.8-0.8 0.8zM23.2 32h-14.4c-1.323 0-2.4-1.077-2.4-2.4v-27.2c0-1.323 1.077-2.4 2.4-2.4h14.4c1.323 0 2.4 1.077 2.4 2.4v27.2c0 1.323-1.077 2.4-2.4 2.4zM8.8 1.6c-0.441 0-0.8 0.359-0.8 0.8v27.2c0 0.441 0.359 0.8 0.8 0.8h14.4c0.441 0 0.8-0.359 0.8-0.8v-27.2c0-0.441-0.359-0.8-0.8-0.8h-14.4zM21.6 25.6h-11.2c-0.442 0-0.8-0.358-0.8-0.8v-20.8c0-0.442 0.358-0.8 0.8-0.8h11.2c0.442 0 0.8 0.358 0.8 0.8v20.8c0 0.442-0.358 0.8-0.8 0.8zM11.2 24h9.6v-19.2h-9.6v19.2z"></path>
</svg>
