<!-- Generated by IcoMoon.io -->
<svg version="1.1" xmlns="http://www.w3.org/2000/svg" width="32" height="32" viewBox="0 0 32 32">
<path d="M16 26.533c-0.979 0-1.775 0.796-1.775 1.775s0.796 1.775 1.775 1.775 1.775-0.796 1.775-1.775-0.796-1.775-1.775-1.775zM16 28.854c-0.301 0-0.546-0.245-0.546-0.546s0.245-0.546 0.546-0.546c0.301 0 0.546 0.245 0.546 0.546s-0.245 0.546-0.546 0.546zM18.912 2.928h-3.15c-0.358 0-0.649 0.291-0.649 0.649s0.291 0.649 0.649 0.649h3.15c0.358 0 0.649-0.29 0.649-0.649s-0.291-0.649-0.649-0.649zM14.451 3.593c0 0.376-0.305 0.681-0.681 0.681s-0.681-0.305-0.681-0.681c0-0.376 0.305-0.681 0.681-0.681s0.681 0.305 0.681 0.681zM23.569 0.4h-15.138c-1.13 0-2.049 0.919-2.049 2.049v27.902c0 1.13 0.919 2.049 2.049 2.049h15.138c1.13 0 2.049-0.919 2.049-2.049v-27.902c0-1.13-0.919-2.049-2.049-2.049zM24.252 30.351c0 0.377-0.306 0.683-0.683 0.683h-15.138c-0.377 0-0.683-0.306-0.683-0.683v-27.902c0-0.377 0.306-0.683 0.683-0.683h15.138c0.377 0 0.683 0.306 0.683 0.683v27.902zM17.151 13.225c-0.267-0.267-0.699-0.267-0.966 0l-3.281 3.281c-0.267 0.267-0.267 0.699 0 0.966 0.133 0.133 0.308 0.2 0.483 0.2s0.35-0.067 0.483-0.2l3.281-3.281c0.267-0.267 0.267-0.699 0-0.966zM19.096 15.127c-0.267-0.267-0.699-0.267-0.966 0l-1.307 1.307c-0.267 0.267-0.267 0.699 0 0.966 0.133 0.133 0.308 0.2 0.483 0.2s0.35-0.067 0.483-0.2l1.307-1.307c0.267-0.267 0.267-0.699 0-0.966zM22.21 5.456h-12.421c-0.339 0-0.615 0.275-0.615 0.615v18.83c0 0.34 0.275 0.615 0.615 0.615h12.421c0.34 0 0.615-0.275 0.615-0.615v-18.83c0-0.339-0.275-0.615-0.615-0.615zM21.596 24.285v0h-11.191v-17.6h11.191v17.6z"></path>
</svg>
