<!-- Generated by IcoMoon.io -->
<svg version="1.1" xmlns="http://www.w3.org/2000/svg" width="32" height="32" viewBox="0 0 32 32">
<path d="M20.267 24.631v-1.165c3.671-1.958 5.538-6.163 4.529-10.199s-4.635-6.868-8.796-6.868-7.787 2.832-8.796 6.868c-1.009 4.036 0.858 8.241 4.529 10.199v1.162c-0.223 0.076-0.425 0.202-0.591 0.37-0.307 0.298-0.478 0.708-0.476 1.135 0.001 0.548 0.283 1.057 0.747 1.349-0.242 0.416-0.28 0.919-0.106 1.367s0.545 0.791 1.004 0.933c0.219 1.279 1.325 2.214 2.622 2.218h2.133c1.297-0.004 2.403-0.939 2.621-2.218 0.459-0.141 0.829-0.485 1.004-0.933s0.136-0.951-0.105-1.366c0.098-0.062 0.189-0.134 0.271-0.217 0.306-0.297 0.478-0.707 0.476-1.134-0.003-0.676-0.43-1.277-1.067-1.502zM8 15.467c0.001-3.954 2.889-7.314 6.798-7.908s7.665 1.756 8.84 5.531-0.583 7.842-4.138 9.572c-0.184 0.089-0.3 0.276-0.3 0.48v1.391h-6.4v-1.392c0-0.204-0.116-0.391-0.3-0.48-2.763-1.329-4.514-4.129-4.5-7.195zM11.897 25.754c0.097-0.099 0.231-0.155 0.37-0.154h7.467c0.295 0 0.533 0.239 0.533 0.533 0.001 0.144-0.059 0.281-0.163 0.38-0.097 0.099-0.231 0.155-0.37 0.154h-7.467c-0.295 0-0.533-0.239-0.533-0.533-0.001-0.144 0.059-0.281 0.163-0.38zM17.067 30.933h-2.133c-0.676-0.003-1.277-0.43-1.502-1.067h5.137c-0.225 0.637-0.826 1.064-1.502 1.067zM19.2 28.8h-6.4c-0.295 0-0.533-0.239-0.533-0.533s0.239-0.533 0.533-0.533h6.4c0.295 0 0.533 0.239 0.533 0.533s-0.239 0.533-0.533 0.533z"></path>
<path d="M31.533 12.804l-2.675-0.334c-0.292-1.071-0.718-2.102-1.268-3.067l1.653-2.127c0.165-0.212 0.146-0.514-0.044-0.705l-3.771-3.771c-0.19-0.19-0.492-0.209-0.705-0.044l-2.126 1.653c-0.965-0.55-1.996-0.976-3.067-1.268l-0.334-2.675c-0.034-0.267-0.26-0.467-0.529-0.467h-5.333c-0.269 0-0.496 0.2-0.529 0.467l-0.334 2.675c-1.072 0.292-2.102 0.718-3.067 1.268l-2.126-1.653c-0.212-0.165-0.514-0.146-0.705 0.044l-3.771 3.771c-0.19 0.19-0.209 0.492-0.044 0.705l1.653 2.127c-0.55 0.965-0.976 1.995-1.268 3.067l-2.675 0.334c-0.267 0.034-0.467 0.26-0.467 0.529v5.333c0 0.269 0.2 0.496 0.467 0.529l2.675 0.335c0.292 1.071 0.719 2.102 1.268 3.067l-1.653 2.126c-0.165 0.212-0.146 0.514 0.044 0.705l3.771 3.771c0.19 0.19 0.492 0.209 0.704 0.044l2.126-1.653c0.16 0.091 0.32 0.179 0.486 0.264l0.489-0.948c-0.252-0.13-0.498-0.268-0.74-0.415-0.189-0.115-0.429-0.101-0.604 0.035l-2.041 1.587-3.105-3.105 1.587-2.041c0.136-0.175 0.15-0.416 0.035-0.605-0.648-1.068-1.129-2.229-1.424-3.442-0.053-0.215-0.233-0.376-0.452-0.403l-2.567-0.321v-4.392l2.567-0.32c0.22-0.027 0.4-0.188 0.452-0.403 0.295-1.214 0.776-2.374 1.424-3.442 0.115-0.189 0.101-0.43-0.035-0.604l-1.587-2.042 3.105-3.105 2.041 1.587c0.175 0.136 0.416 0.15 0.605 0.035 1.068-0.648 2.229-1.129 3.442-1.424 0.215-0.053 0.376-0.233 0.403-0.452l0.321-2.567h4.392l0.32 2.567c0.027 0.22 0.188 0.4 0.403 0.452 1.214 0.295 2.374 0.776 3.442 1.424 0.189 0.115 0.43 0.101 0.605-0.035l2.042-1.587 3.105 3.105-1.587 2.041c-0.136 0.175-0.149 0.415-0.035 0.604 0.648 1.068 1.129 2.229 1.424 3.442 0.053 0.215 0.233 0.376 0.452 0.403l2.567 0.32v4.392l-2.567 0.32c-0.22 0.027-0.4 0.188-0.452 0.403-0.295 1.214-0.776 2.374-1.424 3.442-0.115 0.189-0.101 0.43 0.035 0.605l1.587 2.040-3.105 3.107-2.041-1.587c-0.175-0.136-0.415-0.149-0.604-0.035-0.241 0.147-0.488 0.285-0.74 0.415l0.489 0.948c0.164-0.084 0.326-0.172 0.486-0.264l2.126 1.653c0.212 0.165 0.514 0.146 0.705-0.044l3.771-3.771c0.19-0.19 0.209-0.492 0.044-0.704l-1.653-2.126c0.55-0.965 0.976-1.995 1.268-3.067l2.675-0.335c0.266-0.034 0.466-0.26 0.467-0.529v-5.333c0-0.269-0.2-0.496-0.467-0.529z"></path>
<path d="M15.467 4.267h1.067v1.067h-1.067z"></path>
<path d="M7.326 8.080l0.754-0.754 0.754 0.754-0.754 0.754z"></path>
<path d="M4.267 15.467h1.067v1.067h-1.067z"></path>
<path d="M7.326 23.919l0.754-0.754 0.754 0.754-0.754 0.754z"></path>
<path d="M23.165 23.92l0.754-0.754 0.754 0.754-0.754 0.754z"></path>
<path d="M26.667 15.467h1.067v1.067h-1.067z"></path>
<path d="M23.165 8.081l0.754-0.754 0.754 0.754-0.754 0.754z"></path>
<path d="M13.423 21.096c0.099 0.148 0.265 0.237 0.444 0.237h1.067c0.141 0 0.277-0.056 0.377-0.156l0.69-0.69 0.69 0.69c0.1 0.1 0.236 0.156 0.377 0.156h1.067c0.178 0 0.345-0.089 0.444-0.237l0.908-1.363h0.781c0.141 0 0.277-0.056 0.377-0.156l0.533-0.533c0.1-0.1 0.156-0.236 0.156-0.377v-1.215l1.235-0.412c0.218-0.073 0.365-0.277 0.365-0.506v-2.133c0-0.202-0.114-0.387-0.295-0.477l-0.772-0.386v-1.27c0-0.245-0.166-0.458-0.404-0.517l-1.73-0.432v-0.65c0-0.141-0.056-0.277-0.156-0.377l-0.533-0.533c-0.1-0.1-0.236-0.156-0.377-0.156h-1.6c-0.141 0-0.277 0.056-0.377 0.156l-0.69 0.69-0.69-0.69c-0.1-0.1-0.236-0.156-0.377-0.156h-1.6c-0.141 0-0.277 0.056-0.377 0.156l-0.533 0.533c-0.1 0.1-0.156 0.236-0.156 0.377v0.65l-1.73 0.432c-0.237 0.060-0.404 0.273-0.404 0.517v1.27l-0.772 0.386c-0.181 0.090-0.295 0.275-0.295 0.477v2.133c0 0.23 0.147 0.434 0.365 0.506l1.235 0.412v1.215c0 0.141 0.056 0.277 0.156 0.377l0.533 0.533c0.1 0.1 0.236 0.156 0.377 0.156h0.781zM17.288 10.667h1.158l0.221 0.221v0.625l-0.91 0.91c-0.1 0.1-0.156 0.236-0.156 0.377v1.067h1.067v-0.846l0.697-0.697 1.436 0.359v0.65h-0.533v1.067h0.941l0.659 0.33v1.419l-0.923 0.308-0.677-0.677v-0.313h-1.067v0.533c0 0.141 0.056 0.277 0.156 0.377l0.91 0.91v1.158l-0.221 0.221h-0.846c-0.178 0-0.345 0.089-0.444 0.237l-0.908 1.363h-0.56l-0.754-0.754v-8.092zM11.733 18.446v-1.158l0.91-0.91c0.1-0.1 0.156-0.236 0.156-0.377v-0.533h-1.067v0.313l-0.677 0.677-0.923-0.308v-1.419l0.659-0.33h0.941v-1.067h-0.533v-0.65l1.436-0.359 0.697 0.697v0.846h1.067v-1.067c0-0.141-0.056-0.277-0.156-0.377l-0.91-0.91v-0.625l0.221-0.221h1.158l0.754 0.754v8.092l-0.754 0.754h-0.56l-0.907-1.363c-0.099-0.149-0.266-0.238-0.445-0.237h-0.846z"></path>
<path d="M14.023 18.51l0.754-0.754-0.377-0.377v-1.379h-1.067v1.6c0 0.141 0.056 0.277 0.156 0.377z"></path>
<path d="M18.51 17.977c0.1-0.1 0.156-0.236 0.156-0.377v-1.6h-1.067v1.379l-0.377 0.377 0.754 0.754z"></path>
</svg>
