<!-- Generated by IcoMoon.io -->
<svg version="1.1" xmlns="http://www.w3.org/2000/svg" width="32" height="32" viewBox="0 0 32 32">
<path d="M8.381 18.286c0.63 0 1.215 0.213 1.644 0.642s0.642 1.013 0.642 1.644v9.143c0 0.63-0.213 1.215-0.642 1.644s-1.013 0.642-1.644 0.642h-6.095c-0.63 0-1.215-0.213-1.644-0.642s-0.642-1.013-0.642-1.644v-9.143c0-0.63 0.213-1.215 0.642-1.644s1.013-0.642 1.644-0.642h6.095zM29.714 18.286c0.63 0 1.215 0.213 1.644 0.642s0.642 1.013 0.642 1.644v9.143c0 0.63-0.213 1.215-0.642 1.644s-1.013 0.642-1.644 0.642h-12.19c-0.63 0-1.215-0.213-1.644-0.642s-0.642-1.013-0.642-1.644v-9.143c0-0.63 0.213-1.215 0.642-1.644s1.013-0.642 1.644-0.642h12.19zM2.286 19.81c-0.284 0-0.462 0.091-0.566 0.196s-0.196 0.282-0.196 0.566v9.143c0 0.284 0.091 0.462 0.196 0.566s0.282 0.196 0.566 0.196h6.095c0.284 0 0.462-0.091 0.566-0.196s0.196-0.282 0.196-0.566v-9.143c0-0.284-0.091-0.462-0.196-0.566s-0.282-0.196-0.566-0.196h-6.095zM17.524 19.81c-0.284 0-0.462 0.091-0.566 0.196s-0.196 0.282-0.196 0.566v9.143c0 0.284 0.091 0.462 0.196 0.566s0.282 0.196 0.566 0.196h12.19c0.284 0 0.462-0.091 0.566-0.196s0.196-0.282 0.196-0.566v-9.143c0-0.284-0.091-0.462-0.196-0.566s-0.282-0.196-0.566-0.196h-12.19zM14.476 0c0.63 0 1.215 0.213 1.644 0.642s0.642 1.013 0.642 1.644v9.143c0 0.63-0.213 1.215-0.642 1.644s-1.013 0.642-1.644 0.642h-12.19c-0.63 0-1.215-0.213-1.644-0.642s-0.642-1.013-0.642-1.644v-9.143c0-0.63 0.213-1.215 0.642-1.644s1.013-0.642 1.644-0.642h12.19zM29.714 0c0.63 0 1.215 0.213 1.644 0.642s0.642 1.013 0.642 1.644v9.143c0 0.63-0.213 1.215-0.642 1.644s-1.013 0.642-1.644 0.642h-6.095c-0.63 0-1.215-0.213-1.644-0.642s-0.642-1.013-0.642-1.644v-9.143c0-0.63 0.213-1.215 0.642-1.644s1.013-0.642 1.644-0.642h6.095zM2.286 1.524c-0.284 0-0.462 0.091-0.566 0.196s-0.196 0.282-0.196 0.566v9.143c0 0.284 0.091 0.462 0.196 0.566s0.282 0.196 0.566 0.196h12.19c0.284 0 0.462-0.091 0.566-0.196s0.196-0.282 0.196-0.566v-9.143c0-0.284-0.091-0.462-0.196-0.566s-0.282-0.196-0.566-0.196h-12.19zM23.619 1.524c-0.284 0-0.462 0.091-0.566 0.196s-0.196 0.282-0.196 0.566v9.143c0 0.284 0.091 0.462 0.196 0.566s0.282 0.196 0.566 0.196h6.095c0.284 0 0.462-0.091 0.566-0.196s0.196-0.282 0.196-0.566v-9.143c0-0.284-0.091-0.462-0.196-0.566s-0.282-0.196-0.566-0.196h-6.095z"></path>
</svg>
