<!-- Generated by IcoMoon.io -->
<svg version="1.1" xmlns="http://www.w3.org/2000/svg" width="32" height="32" viewBox="0 0 32 32">
<path d="M31.373 23.402c-4.278-0.704-6.206-5.086-6.284-5.272-0.006-0.012-0.010-0.024-0.018-0.036-0.218-0.444-0.27-0.81-0.15-1.088 0.234-0.548 1.13-0.832 1.722-1.020 0.172-0.054 0.334-0.106 0.468-0.158 0.584-0.23 1-0.48 1.276-0.762 0.328-0.338 0.392-0.662 0.388-0.872-0.010-0.512-0.402-0.968-1.028-1.19-0.21-0.086-0.452-0.132-0.696-0.132-0.166 0-0.414 0.022-0.648 0.132-0.5 0.234-0.948 0.362-1.334 0.38-0.204-0.010-0.348-0.054-0.442-0.096 0.012-0.2 0.024-0.406 0.038-0.618l0.006-0.092c0.138-2.166 0.308-4.86-0.408-6.46-0.49-1.096-1.148-2.038-1.958-2.802-0.678-0.64-1.466-1.16-2.342-1.544-1.522-0.672-2.942-0.772-3.654-0.772h-0.002c-0.028 0-0.054 0-0.078 0-0.198 0.002-0.52 0.006-0.55 0.006-0.71 0-2.132 0.1-3.658 0.772-0.874 0.384-1.658 0.902-2.334 1.542-0.806 0.764-1.462 1.704-1.95 2.796-0.716 1.598-0.546 4.292-0.41 6.456v0.004c0.014 0.232 0.030 0.474 0.044 0.71-0.104 0.046-0.274 0.098-0.524 0.098-0.404 0-0.884-0.128-1.426-0.382-0.16-0.074-0.342-0.112-0.542-0.112-0.322 0-0.664 0.094-0.958 0.268-0.372 0.218-0.612 0.524-0.678 0.866-0.042 0.224-0.040 0.67 0.456 1.122 0.274 0.248 0.674 0.478 1.192 0.682 0.136 0.054 0.298 0.104 0.468 0.158 0.592 0.188 1.49 0.472 1.724 1.020 0.118 0.278 0.066 0.644-0.152 1.088-0.006 0.012-0.012 0.024-0.016 0.036-0.056 0.128-0.566 1.278-1.612 2.492-0.594 0.69-1.248 1.268-1.944 1.716-0.85 0.548-1.768 0.904-2.73 1.062-0.378 0.062-0.648 0.398-0.626 0.78 0.006 0.11 0.032 0.22 0.078 0.326v0.002c0.154 0.358 0.508 0.66 1.084 0.926 0.704 0.326 1.756 0.6 3.13 0.814 0.070 0.132 0.142 0.462 0.192 0.688 0.052 0.24 0.106 0.488 0.184 0.75 0.084 0.284 0.3 0.624 0.858 0.624 0.212 0 0.454-0.048 0.736-0.102 0.412-0.080 0.976-0.19 1.678-0.19 0.39 0 0.794 0.034 1.2 0.102 0.784 0.13 1.46 0.606 2.242 1.158 1.144 0.808 2.44 1.722 4.42 1.722 0.054 0 0.108-0.002 0.162-0.006 0.064 0.004 0.146 0.006 0.23 0.006 1.98 0 3.276-0.914 4.42-1.72l0.002-0.002c0.782-0.55 1.458-1.026 2.242-1.156 0.406-0.068 0.81-0.102 1.2-0.102 0.672 0 1.204 0.086 1.678 0.178 0.31 0.060 0.55 0.090 0.736 0.090h0.036c0.408 0 0.708-0.224 0.822-0.614 0.076-0.258 0.13-0.498 0.184-0.744 0.046-0.212 0.122-0.552 0.19-0.684 1.374-0.216 2.426-0.488 3.13-0.814 0.574-0.266 0.928-0.568 1.082-0.924 0.046-0.106 0.074-0.216 0.080-0.33 0.022-0.378-0.248-0.716-0.626-0.776z"></path>
</svg>
