<!-- Generated by IcoMoon.io -->
<svg version="1.1" xmlns="http://www.w3.org/2000/svg" width="32" height="32" viewBox="0 0 32 32">
<path d="M2.801 21.259l-1.283 0.501c-1.36 0.306-1.952 1.817-1.166 3.019 0.774 1.183 2.461 1.605 3.755 1.857 0.080 0.368 0.196 0.844 0.482 1.259 0.444 0.644 1.147 0.927 1.979 0.799 2.816-0.435 3.133-0.21 4.185 0.535 0.521 0.369 1.363 0.936 1.937 1.206 1.012 0.417 2.16 0.625 3.308 0.625 2.186 0 3.597-0.755 3.603-0.757 1.26-0.723 2.916-2.379 5.45-1.716 0.745 0.195 1.375 0.132 1.874-0.186 0.716-0.456 0.89-1.257 0.985-1.772 1.44-0.295 3.31-0.728 3.929-2.216 0.23-0.554 0.211-1.161-0.053-1.665-0.251-0.48-0.706-0.832-1.256-0.973l-1.327-0.514c-1.518-0.588-2.678-1.77-3.298-3.323h1.407c1.551 0 2.813-1.262 2.813-2.813s-1.262-2.813-2.813-2.813h-1.871l0.081-0.891c0.504-5.544-3.927-10.359-9.523-10.359-5.58 0-10.028 4.797-9.523 10.359l0.081 0.891h-1.872c-1.551 0-2.813 1.262-2.813 2.813s1.262 2.812 2.813 2.812h1.425c-0.621 1.544-1.786 2.726-3.311 3.322zM4.688 16.063c-0.517 0-0.938-0.421-0.938-0.938s0.421-0.938 0.938-0.938h3.926l-0.268-2.936c-0.415-4.561 3.267-8.314 7.655-8.314 4.386 0 8.070 3.752 7.655 8.314l-0.268 2.936h3.925c0.517 0 0.938 0.421 0.938 0.938s-0.42 0.938-0.938 0.938h-3.821l0.238 1.131c0.577 2.739 2.325 4.858 4.796 5.815l1.455 0.564c0.069 0.020 0.065 0.005 0.143 0.042 0.002 0.006 0.002 0.032-0.016 0.077-0.261 0.629-1.876 0.957-2.744 1.133-0.108 0.022-0.212 0.043-0.312 0.064-0.76 0.159-0.899 0.922-0.974 1.332-0.030 0.163-0.090 0.496-0.164 0.595-0.035 0.007-0.151 0.018-0.39-0.044-3.356-0.877-5.637 1.183-6.818 1.882-1.583 0.693-3.636 0.718-5.26 0.064-0.714-0.385-1.189-0.722-1.61-1.020-1.379-0.977-2.133-1.387-5.555-0.858-0.079 0.012-0.121 0.009-0.138 0.006-0.096-0.103-0.184-0.511-0.222-0.687-0.091-0.425-0.244-1.136-0.974-1.273l-0.068-0.013c-0.823-0.153-2.534-0.472-2.959-1.122-0.052-0.079-0.049-0.13-0.043-0.141 0.009-0.020 0.135-0.034 0.157-0.039l1.449-0.566c2.451-0.958 4.219-3.091 4.797-5.769l0.254-1.174z"></path>
</svg>
