<!-- Generated by IcoMoon.io -->
<svg version="1.1" xmlns="http://www.w3.org/2000/svg" width="32" height="32" viewBox="0 0 32 32">
<path d="M26.224 21.307c-2.185 0-4.137 1.327-4.917 3.278l-6.166-4.683c0.624-0.859 1.015-1.951 1.015-3.122 0-1.483-0.546-2.81-1.561-3.746l6.634-4.839c0.859 1.951 2.732 3.278 4.917 3.278 2.966 0 5.385-2.419 5.385-5.385s-2.419-5.385-5.385-5.385-5.307 2.42-5.307 5.385c0 0.468 0.078 0.937 0.156 1.327l-7.024 5.073c-0.937-0.702-2.029-1.093-3.2-1.093-2.966 0-5.385 2.42-5.385 5.385s2.42 5.385 5.385 5.385c1.483 0 2.81-0.624 3.824-1.639l6.4 4.839c-0.078 0.39-0.156 0.859-0.156 1.327 0 2.966 2.419 5.385 5.385 5.385s5.385-2.419 5.385-5.385-2.419-5.385-5.385-5.385zM26.224 1.483c2.498 0 4.605 2.029 4.605 4.605 0 2.498-2.029 4.605-4.605 4.605s-4.605-2.029-4.605-4.605c0-2.576 2.107-4.605 4.605-4.605zM10.771 21.307c-2.498 0-4.605-2.029-4.605-4.605 0-2.498 2.029-4.605 4.605-4.605 2.498 0 4.605 2.029 4.605 4.605 0 2.498-2.029 4.605-4.605 4.605zM26.224 31.22c-2.498 0-4.605-2.029-4.605-4.605 0-0.468 0.078-0.937 0.234-1.405 0 0 0 0 0 0 0.624-1.873 2.341-3.2 4.371-3.2 2.498 0 4.605 2.029 4.605 4.605s-2.107 4.605-4.605 4.605z"></path>
<path d="M30.439 20.527c0 0 0.078 0 0.078 0 0.156 0 0.312-0.078 0.39-0.312 0.468-1.483 0.624-2.966 0.624-4.527 0-1.249-0.156-2.498-0.468-3.668-0.078-0.234-0.234-0.312-0.468-0.312-0.234 0.078-0.312 0.234-0.312 0.468 0.312 1.171 0.39 2.341 0.39 3.512 0 1.483-0.234 2.888-0.624 4.293 0.078 0.312 0.156 0.546 0.39 0.546z"></path>
<path d="M19.356 30.361c-1.171 0.312-2.419 0.468-3.59 0.468-8.273-0.078-14.985-6.79-14.985-15.063s6.712-14.985 14.985-14.985c1.561 0 3.122 0.234 4.527 0.702 0.234 0.078 0.39-0.078 0.468-0.234s0-0.468-0.156-0.468c-1.561-0.468-3.122-0.78-4.761-0.78-8.741 0-15.844 7.102-15.844 15.766s7.102 15.766 15.766 15.766c1.249 0 2.576-0.156 3.824-0.468 0.234-0.078 0.312-0.234 0.312-0.468-0.078-0.156-0.312-0.312-0.546-0.234z"></path>
</svg>
