<!-- Generated by IcoMoon.io -->
<svg version="1.1" xmlns="http://www.w3.org/2000/svg" width="30" height="32" viewBox="0 0 30 32">
<path d="M15.848 4.177v0c-0.305-0.425-0.878-0.517-1.294-0.222s-0.508 0.878-0.213 1.284l0.009 0.009c0.185 0.25 0.462 0.388 0.748 0.388 0.185 0 0.37-0.055 0.536-0.176 0.416-0.296 0.508-0.869 0.213-1.284z"></path>
<path d="M26.733 20.542l-1.645-0.397v-0.296c1.072-0.748 1.765-1.987 1.765-3.391v-2.135c0-2.282-1.857-4.14-4.14-4.14-1.026 0-1.959 0.379-2.68 0.989-0.804-1.968-2.744-3.364-4.999-3.364-2.264 0-4.195 1.395-4.999 3.373-0.721-0.619-1.663-0.998-2.689-0.998-2.282 0-4.14 1.857-4.14 4.14v2.135c0 1.405 0.702 2.643 1.765 3.391v0.296l-1.645 0.397c-1.959 0.471-3.327 2.209-3.327 4.223v1.728c0 0.508 0.416 0.924 0.924 0.924h4.251c-0.009 0.111-0.009 0.222-0.009 0.342v3.327c0 0.508 0.416 0.924 0.924 0.924h5.554c0.508 0 0.924-0.416 0.924-0.924s-0.416-0.924-0.924-0.924h-0.952v-1.913c0-0.508-0.416-0.924-0.924-0.924s-0.924 0.416-0.924 0.924v1.913h-1.839v-2.403c0-1.783 1.21-3.317 2.948-3.733l2.532-0.61 1.7 3.863c0.148 0.333 0.48 0.554 0.85 0.554v0c0.37 0 0.702-0.213 0.85-0.554l1.691-3.853 2.532 0.601c1.737 0.416 2.948 1.95 2.948 3.733v2.393h-1.83v-1.913c0-0.508-0.416-0.924-0.924-0.924s-0.924 0.416-0.924 0.924v1.913h-1.044c-0.508 0-0.924 0.416-0.924 0.924s0.416 0.924 0.924 0.924h5.646c0.508 0 0.924-0.416 0.924-0.924v-3.317c0-0.111 0-0.231-0.009-0.342h4.26c0.508 0 0.924-0.416 0.924-0.924v-1.728c-0.018-2.014-1.386-3.752-3.345-4.223zM22.723 12.040c1.21 0 2.209 0.943 2.282 2.135h-1.284c-1.081 0-2.144-0.259-3.096-0.758 0.342-0.804 1.155-1.377 2.098-1.377zM20.431 16.337c0-0.046 0-0.092 0-0.139v-0.822c1.035 0.425 2.153 0.656 3.28 0.656h1.294v0.444c0 1.257-1.026 2.292-2.292 2.292s-2.292-1.026-2.292-2.292v-0.139zM11.486 13.223v0c0-1.959 1.589-3.548 3.548-3.548 1.765 0 3.234 1.294 3.502 2.985l-1.552-0.915c-0.388-0.231-0.887-0.139-1.174 0.203-0.758 0.906-1.876 1.423-3.059 1.423h-1.266v-0.148zM7.346 12.040c0.943 0 1.746 0.573 2.098 1.377-0.952 0.499-2.014 0.758-3.096 0.758h-1.284c0.074-1.183 1.072-2.135 2.282-2.135zM5.055 16.032h1.294c1.127 0 2.245-0.222 3.29-0.656v1.090c0 1.257-1.026 2.292-2.292 2.292s-2.292-1.026-2.292-2.292v-0.434zM9.518 22.224c-1.82 0.434-3.243 1.7-3.927 3.345h-3.742v-0.804c0-1.155 0.785-2.153 1.913-2.43l2.356-0.564c0.416-0.102 0.712-0.471 0.712-0.896v-0.314c0.166 0.018 0.342 0.037 0.517 0.037s0.342-0.009 0.517-0.037v0.268c0 0.009 0 0.028 0 0.037 0 0.305 0.148 0.601 0.425 0.776 0.102 0.065 0.213 0.111 0.333 0.129l1.377 0.333-0.48 0.12zM12.096 20.791c-0.24-0.102-0.48-0.185-0.739-0.25l-1.654-0.397v-0.286c0.296-0.213 0.564-0.453 0.804-0.73 0.416 0.638 0.952 1.183 1.589 1.589v0.074zM16.116 22.15l-1.081 2.458-1.081-2.467v-0.656c0.351 0.074 0.721 0.111 1.090 0.111s0.73-0.037 1.072-0.111v0.665zM15.034 19.747c-1.959 0-3.548-1.589-3.548-3.548v-0.979h1.266c1.469 0 2.855-0.545 3.927-1.515l1.904 1.118v1.506c-0.074 1.904-1.636 3.419-3.548 3.419zM17.964 20.8v-0.065c0.638-0.416 1.183-0.961 1.599-1.599 0.231 0.277 0.499 0.517 0.795 0.721v0.286l-1.654 0.397c-0.259 0.065-0.508 0.148-0.739 0.259zM28.211 25.569h-3.761c-0.684-1.636-2.107-2.911-3.927-3.345l-0.462-0.111 1.386-0.333c0.111-0.018 0.231-0.065 0.333-0.129 0.277-0.176 0.425-0.471 0.425-0.776 0-0.009 0-0.018 0-0.018v-0.286c0.166 0.018 0.342 0.037 0.517 0.037s0.351-0.009 0.517-0.037v0.314c0 0.425 0.296 0.804 0.712 0.896l2.356 0.564c1.127 0.268 1.913 1.266 1.913 2.43l-0.009 0.795z"></path>
<path d="M15.681 20.874c-0.176-0.176-0.407-0.268-0.656-0.268-0.24 0-0.48 0.102-0.656 0.268-0.176 0.176-0.268 0.407-0.268 0.656 0 0.24 0.102 0.48 0.268 0.656 0.176 0.176 0.407 0.268 0.656 0.268 0.24 0 0.48-0.102 0.656-0.268 0.176-0.176 0.268-0.407 0.268-0.656 0-0.24-0.102-0.48-0.268-0.656z"></path>
<path d="M15.118 0c-0.508 0-0.924 0.416-0.924 0.924v1.386c0 0.508 0.416 0.924 0.924 0.924s0.924-0.416 0.924-0.924v-1.386c0-0.508-0.416-0.924-0.924-0.924z"></path>
<path d="M11.717 3.012l-0.97-0.97c-0.36-0.36-0.943-0.36-1.303 0s-0.36 0.943 0 1.303l0.97 0.97c0.185 0.185 0.416 0.268 0.656 0.268s0.471-0.092 0.656-0.268c0.351-0.351 0.351-0.943-0.009-1.303z"></path>
<path d="M20.773 2.070c-0.36-0.36-0.943-0.36-1.303 0l-0.961 0.961c-0.36 0.36-0.36 0.943 0 1.303 0.185 0.185 0.416 0.268 0.656 0.268s0.471-0.092 0.656-0.268l0.961-0.961c0.351-0.36 0.351-0.943-0.009-1.303z"></path>
</svg>
