<!-- Generated by IcoMoon.io -->
<svg version="1.1" xmlns="http://www.w3.org/2000/svg" width="32" height="32" viewBox="0 0 32 32">
<path d="M11.25 7.563h1.875v16.875h-1.875z"></path>
<path d="M7.5 13.188h1.875v11.25h-1.875z"></path>
<path d="M3.75 11.313h1.875v13.125h-1.875z"></path>
<path d="M0 16.938h1.875v7.5h-1.875z"></path>
<path d="M32 18.813c0-3.102-2.523-5.625-5.625-5.625-0.159 0-0.318 0.007-0.475 0.020-1.179-3.318-4.448-5.645-8.087-5.645-0.714 0-1.423 0.089-2.109 0.266l-0.704 0.181v16.428h11.375c3.102 0 5.625-2.523 5.625-5.625zM16.875 9.504c0.309-0.044 0.623-0.066 0.938-0.066 3.080 0 5.819 2.121 6.511 5.043l0.219 0.923c0.743-0.166 1.135-0.341 1.833-0.341 2.068 0 3.75 1.682 3.75 3.75s-1.682 3.75-3.75 3.75h-9.5z"></path>
</svg>
