<!-- Generated by IcoMoon.io -->
<svg version="1.1" xmlns="http://www.w3.org/2000/svg" width="32" height="32" viewBox="0 0 32 32">
<path d="M1.546 16.663c-0.068 0-0.124 0.054-0.133 0.129l-0.315 2.874 0.315 2.81c0.009 0.075 0.065 0.13 0.133 0.13 0.067 0 0.122-0.054 0.133-0.129l0.358-2.811-0.358-2.874c-0.011-0.076-0.065-0.129-0.133-0.129zM0.363 17.764c-0.066 0-0.119 0.051-0.128 0.125l-0.234 1.777 0.234 1.747c0.009 0.074 0.062 0.125 0.128 0.125 0.065 0 0.117-0.051 0.128-0.124l0.277-1.747-0.277-1.778c-0.010-0.073-0.063-0.124-0.128-0.124zM2.803 16.099c-0.084 0-0.152 0.066-0.16 0.157l-0.299 3.41 0.299 3.285c0.009 0.091 0.076 0.157 0.16 0.157 0.083 0 0.15-0.066 0.16-0.157l0.339-3.286-0.339-3.41c-0.010-0.091-0.077-0.157-0.16-0.157zM4.070 15.979c-0.099 0-0.18 0.079-0.188 0.185l-0.282 3.504 0.282 3.389c0.008 0.105 0.089 0.184 0.188 0.184 0.098 0 0.178-0.080 0.188-0.184l0.32-3.389-0.32-3.504c-0.009-0.105-0.090-0.184-0.188-0.184zM5.563 23.084v0 0.001zM5.563 16.416c-0.008-0.119-0.101-0.211-0.215-0.211-0.116 0-0.208 0.091-0.215 0.212l-0.266 3.25 0.266 3.417c0.007 0.12 0.1 0.211 0.215 0.211 0.114 0 0.207-0.091 0.215-0.211l0.302-3.417-0.302-3.251zM6.636 14.141c-0.13 0-0.236 0.105-0.242 0.24l-0.25 5.287 0.25 3.417c0.007 0.133 0.113 0.239 0.242 0.239 0.128 0 0.234-0.105 0.242-0.24v0.001l0.283-3.417-0.283-5.288c-0.008-0.134-0.114-0.24-0.242-0.24zM7.914 12.923c-0.145 0-0.263 0.117-0.27 0.267 0 0.001-0.234 6.497-0.234 6.497l0.234 3.396c0.007 0.149 0.124 0.266 0.269 0.266s0.263-0.117 0.269-0.267v0.002l0.265-3.397-0.265-6.497c-0.006-0.15-0.125-0.267-0.269-0.267zM9.243 12.336c-0.161 0-0.291 0.13-0.297 0.295 0 0-0.218 7.039-0.218 7.039l0.218 3.361c0.006 0.164 0.136 0.293 0.297 0.293s0.29-0.129 0.297-0.294v0.002l0.246-3.361-0.246-7.040c-0.007-0.165-0.137-0.295-0.297-0.295zM10.886 12.394c-0.006-0.181-0.148-0.322-0.324-0.322-0.177 0-0.319 0.142-0.324 0.322l-0.202 7.276 0.202 3.34c0.005 0.179 0.147 0.32 0.324 0.32 0.176 0 0.318-0.141 0.324-0.321l0.227-3.338-0.227-7.277zM10.886 23.008v0 0.002zM11.891 12.231c-0.193 0-0.347 0.153-0.352 0.35l-0.185 7.091 0.186 3.307c0.004 0.194 0.158 0.348 0.351 0.348 0.192 0 0.346-0.154 0.351-0.35v0.003l0.209-3.309-0.209-7.091c-0.005-0.196-0.159-0.349-0.351-0.349zM13.23 12.462c-0.208 0-0.375 0.166-0.379 0.377l-0.169 6.831 0.169 3.288c0.004 0.209 0.171 0.375 0.379 0.375s0.374-0.165 0.378-0.377v0.003l0.19-3.287-0.19-6.832c-0.004-0.212-0.171-0.378-0.378-0.378zM14.805 11.207c-0.064-0.044-0.142-0.069-0.225-0.069-0.081 0-0.155 0.025-0.219 0.066-0.111 0.072-0.185 0.197-0.187 0.339l-0.001 0.077-0.152 8.051c0 0.005 0.154 3.268 0.154 3.268 0 0.005 0.001 0.009 0.001 0.014 0.005 0.091 0.039 0.175 0.094 0.241 0.075 0.089 0.187 0.147 0.311 0.147 0.11 0 0.211-0.046 0.284-0.119s0.12-0.174 0.122-0.286l0.017-0.323 0.154-2.94-0.171-8.129c-0.003-0.14-0.075-0.263-0.182-0.335zM14.986 22.938v-0.001zM16.145 10.436c-0.064-0.039-0.14-0.062-0.22-0.062-0.103 0-0.199 0.037-0.274 0.099-0.096 0.080-0.158 0.199-0.16 0.334l-0.001 0.044-0.177 8.822 0.090 1.631 0.087 1.587c0.004 0.235 0.198 0.429 0.434 0.429s0.429-0.194 0.433-0.432v0.004l0.193-3.219-0.192-8.868c-0.002-0.157-0.088-0.294-0.213-0.37zM28.064 15.476c-0.539 0-1.054 0.109-1.522 0.305-0.314-3.547-3.288-6.329-6.917-6.329-0.888 0-1.753 0.175-2.518 0.47-0.297 0.115-0.375 0.233-0.378 0.463 0 0 0 12.492 0 12.492 0.003 0.241 0.189 0.428 0.425 0.451 0.010 0.001 10.91 0 10.91 0 2.174 0 3.936-1.742 3.936-3.917s-1.762-3.936-3.936-3.936z"></path>
</svg>
