<!-- Generated by IcoMoon.io -->
<svg version="1.1" xmlns="http://www.w3.org/2000/svg" width="32" height="32" viewBox="0 0 32 32">
<path d="M27 15c-0.356 0-0.706 0.038-1.042 0.11-0.45-4.546-4.296-8.11-8.958-8.11-0.552 0-1 0.448-1 1v16c0 0.552 0.448 1 1 1h10c2.758 0 5-2.242 5-5 0-2.756-2.242-5-5-5z"></path>
<path d="M13 9c-0.552 0-1 0.448-1 1v14c0 0.552 0.448 1 1 1s1-0.448 1-1v-14c0-0.552-0.448-1-1-1z"></path>
<path d="M9 13c-0.552 0-1 0.448-1 1v10c0 0.552 0.448 1 1 1s1-0.448 1-1v-10c0-0.552-0.448-1-1-1z"></path>
<path d="M5 13c-0.552 0-1 0.448-1 1v10c0 0.552 0.448 1 1 1s1-0.448 1-1v-10c0-0.552-0.448-1-1-1z"></path>
<path d="M1 16c-0.552 0-1 0.448-1 1v6c0 0.552 0.448 1 1 1s1-0.448 1-1v-6c0-0.552-0.448-1-1-1z"></path>
</svg>
