<!-- Generated by IcoMoon.io -->
<svg version="1.1" xmlns="http://www.w3.org/2000/svg" width="32" height="32" viewBox="0 0 32 32">
<path d="M19.87 4.115c-0.69-0.369-1.523-0.329-2.174 0.105l-9.103 6.069h-3.451c-0.885 0-1.612 0.683-1.685 1.55h-0.487c-1.638 0-2.97 1.332-2.97 2.97v3.183c0 1.638 1.332 2.97 2.97 2.97h0.487c0.073 0.866 0.8 1.55 1.685 1.55h3.451l9.103 6.069c0.355 0.237 0.764 0.356 1.175 0.356 0.342 0 0.686-0.083 1-0.251 0.69-0.369 1.119-1.085 1.119-1.867v-20.834c0-0.783-0.429-1.498-1.119-1.867zM3.45 19.281h-0.48c-0.711 0-1.289-0.578-1.289-1.289v-3.183c0-0.711 0.578-1.289 1.289-1.289h0.48v5.761zM8.007 20.83h-2.865c-0.006 0-0.011-0.005-0.011-0.012v-8.838c0-0.006 0.005-0.011 0.011-0.011h2.865v8.861zM19.308 26.817c0 0.236-0.162 0.349-0.231 0.386s-0.252 0.109-0.449-0.022l-8.94-5.96v-9.642l8.94-5.96c0.197-0.131 0.38-0.059 0.449-0.022s0.231 0.149 0.231 0.386v20.834zM29.472 16.4l2.306-2.306c0.295-0.295 0.295-0.774 0-1.070s-0.774-0.295-1.070 0l-2.306 2.306-2.306-2.306c-0.295-0.295-0.774-0.295-1.070 0s-0.295 0.774 0 1.070l2.306 2.306-2.306 2.306c-0.295 0.295-0.295 0.774 0 1.070 0.148 0.148 0.341 0.221 0.535 0.221s0.387-0.074 0.535-0.221l2.306-2.306 2.306 2.306c0.148 0.148 0.341 0.221 0.535 0.221s0.387-0.074 0.535-0.221c0.295-0.295 0.295-0.774 0-1.070l-2.306-2.306z"></path>
</svg>
