<!-- Generated by IcoMoon.io -->
<svg version="1.1" xmlns="http://www.w3.org/2000/svg" width="32" height="32" viewBox="0 0 32 32">
<path d="M18.717 4.828c-0.65-0.348-1.435-0.31-2.048 0.099l-8.575 5.717h-3.251c-0.834 0-1.519 0.644-1.587 1.46h-0.459c-1.543 0-2.797 1.255-2.797 2.797v2.998c0 1.543 1.255 2.797 2.797 2.797h0.459c0.069 0.816 0.754 1.46 1.587 1.46h3.251l8.575 5.717c0.334 0.223 0.72 0.336 1.107 0.336 0.323 0 0.646-0.078 0.942-0.237 0.65-0.348 1.054-1.022 1.054-1.759v-19.626c0-0.737-0.404-1.411-1.054-1.759zM3.25 19.114h-0.452c-0.67-0-1.214-0.545-1.214-1.215v-2.998c0-0.67 0.545-1.214 1.214-1.214h0.452v5.427zM7.543 20.573h-2.699c-0.006 0-0.011-0.005-0.011-0.011v-8.325c0-0.006 0.005-0.011 0.011-0.011h2.699v8.347zM18.188 26.213c0 0.223-0.152 0.328-0.218 0.363s-0.238 0.103-0.423-0.020l-8.422-5.615v-9.083l8.422-5.614c0.185-0.124 0.358-0.055 0.423-0.020s0.218 0.141 0.218 0.363v19.626zM27.85 6.367c-0.278-0.278-0.729-0.278-1.008 0s-0.278 0.729 0 1.008c2.407 2.407 3.732 5.612 3.732 9.026s-1.326 6.619-3.732 9.026c-0.278 0.278-0.278 0.729 0 1.007 0.139 0.139 0.321 0.209 0.504 0.209s0.365-0.070 0.504-0.209c2.676-2.676 4.15-6.239 4.15-10.033s-1.474-7.357-4.15-10.033zM23.938 10.279c-0.278-0.278-0.729-0.278-1.008-0s-0.278 0.729 0 1.008c1.363 1.363 2.114 3.179 2.114 5.114s-0.751 3.75-2.114 5.114c-0.278 0.278-0.278 0.729 0 1.008 0.139 0.139 0.321 0.209 0.504 0.209s0.365-0.070 0.504-0.209c1.633-1.633 2.532-3.806 2.532-6.121s-0.899-4.488-2.532-6.121z"></path>
</svg>
