<!-- Generated by IcoMoon.io -->
<svg version="1.1" xmlns="http://www.w3.org/2000/svg" width="32" height="32" viewBox="0 0 32 32">
<path d="M10.167 12.475c-0.085-0.167-0.252-0.277-0.439-0.29l-4.487-0.299c-0.232-0.023-0.447 0.121-0.532 0.338l-3.234 8.266c-0.087 0.222-0.016 0.474 0.174 0.619 0.095 0.073 0.209 0.109 0.323 0.109 0.113 0 0.225-0.035 0.32-0.107l2.685-2.013 1.563 0.313c0.255 0.051 0.51-0.089 0.603-0.333 0.839-2.199 1.85-4.243 3.002-6.076 0.1-0.159 0.109-0.359 0.023-0.526zM6.308 18.276l-1.358-0.271c-0.148-0.029-0.303 0.006-0.425 0.096l-1.375 1.031 2.409-6.156 3.22 0.214c-0.928 1.571-1.757 3.276-2.471 5.086z"></path>
<path d="M20.114 26.759l-0.299-4.487c-0.013-0.188-0.123-0.355-0.29-0.44s-0.367-0.077-0.526 0.023c-1.833 1.152-3.878 2.163-6.076 3.002-0.243 0.092-0.384 0.347-0.333 0.603l0.313 1.563-2.013 2.684c-0.143 0.191-0.142 0.453 0.002 0.643 0.103 0.135 0.261 0.211 0.425 0.211 0.065 0 0.131-0.012 0.195-0.036l8.266-3.234c0.216-0.085 0.353-0.3 0.338-0.532zM12.867 28.848l1.031-1.375c0.091-0.121 0.126-0.276 0.096-0.424l-0.271-1.357c1.81-0.715 3.515-1.543 5.085-2.471l0.215 3.219-6.156 2.409z"></path>
<path d="M15.465 16h-3.593c-0.194 0-0.372 0.105-0.466 0.274l-4.51 8.104c-0.117 0.211-0.078 0.476 0.096 0.643 0.102 0.098 0.236 0.149 0.37 0.149 0.095 0 0.19-0.025 0.276-0.077l8.104-4.904c0.159-0.096 0.257-0.269 0.257-0.456v-3.2c0-0.294-0.239-0.533-0.533-0.533zM14.932 19.433l-6.127 3.708 3.38-6.074h2.747v2.366z"></path>
<path d="M31.973 0.514c-0.022-0.26-0.228-0.466-0.487-0.487-0.177-0.014-17.739-1.24-25.34 18.67-0.075 0.197-0.028 0.419 0.121 0.567l2.536 2.536c0.119 0.119 0.285 0.173 0.452 0.151 0.166-0.024 0.311-0.124 0.392-0.271l2.541-4.613h2.745v2.373l-4.641 2.93c-0.137 0.087-0.227 0.231-0.245 0.392s0.038 0.322 0.153 0.436l2.536 2.536c0.102 0.102 0.238 0.156 0.377 0.156 0.064 0 0.129-0.011 0.19-0.035 19.911-7.602 18.685-25.164 18.67-25.34zM29.175 9.976c-1.871 4.63-6.154 10.925-15.932 14.758l-1.819-1.819 4.325-2.73c0.155-0.098 0.248-0.268 0.248-0.451v-3.2c0-0.294-0.239-0.533-0.533-0.533h-3.594c-0.195 0-0.373 0.106-0.467 0.276l-2.35 4.267-1.788-1.789c6.673-17.024 20.897-17.72 23.662-17.681 0.020 1.244-0.094 4.799-1.752 8.901z"></path>
<path d="M9.135 23.554c-0.116-0.154-0.3-0.228-0.481-0.209 0.019-0.181-0.056-0.365-0.209-0.481-0.804-0.608-1.842-0.81-2.848-0.555-1.068 0.271-1.942 1-2.396 2l-3.153 6.937c-0.092 0.203-0.049 0.441 0.108 0.598 0.102 0.102 0.238 0.156 0.377 0.156 0.075 0 0.15-0.016 0.221-0.048l6.937-3.153c0.999-0.454 1.728-1.327 1.999-2.396 0.255-1.005 0.053-2.044-0.555-2.848zM8.656 26.14c-0.191 0.753-0.704 1.367-1.407 1.687l-5.642 2.565 2.565-5.643c0.319-0.703 0.935-1.216 1.687-1.407 0.198-0.050 0.397-0.075 0.593-0.075 0.332 0 0.657 0.071 0.953 0.209l-0.508 0.899c-0.118 0.209-0.082 0.47 0.087 0.639 0.17 0.17 0.431 0.205 0.639 0.087l0.899-0.508c0.219 0.47 0.268 1.014 0.133 1.546z"></path>
<path d="M31.973 0.515c-0.022-0.26-0.228-0.466-0.487-0.487-0.208-0.017-5.152-0.391-10.966 2.287-0.158 0.072-0.271 0.219-0.302 0.39s0.025 0.348 0.148 0.471l8.458 8.458c0.101 0.101 0.237 0.156 0.377 0.156 0.031 0 0.063-0.003 0.094-0.008 0.172-0.031 0.317-0.143 0.39-0.302 2.679-5.814 2.304-10.758 2.287-10.966zM29.028 10.329l-7.357-7.357c4.256-1.797 7.983-1.92 9.257-1.899 0.021 1.275-0.099 4.991-1.9 9.256z"></path>
<path d="M23.552 8.447c-1.793-1.793-4.711-1.793-6.505 0s-1.793 4.711 0 6.505c0.896 0.897 2.075 1.345 3.252 1.345s2.356-0.448 3.253-1.345c1.793-1.793 1.793-4.711 0-6.505zM22.798 14.198c-1.378 1.377-3.619 1.377-4.996 0s-1.378-3.619 0-4.996c0.689-0.688 1.593-1.033 2.498-1.033s1.809 0.345 2.498 1.033c1.377 1.377 1.377 3.619-0 4.996z"></path>
<path d="M21.36 12.76c-0.584 0.586-1.536 0.585-2.121 0s-0.584-1.536 0-2.121c0.584-0.585 1.536-0.585 2.121 0 0.208 0.209 0.546 0.209 0.754 0s0.209-0.546 0-0.754c-1-1-2.629-1-3.629 0s-1 2.629 0 3.629c0.5 0.5 1.158 0.75 1.815 0.75s1.315-0.25 1.814-0.75c0.209-0.209 0.209-0.546 0-0.754s-0.546-0.209-0.754 0z"></path>
</svg>
