<!-- Generated by IcoMoon.io -->
<svg version="1.1" xmlns="http://www.w3.org/2000/svg" width="30" height="32" viewBox="0 0 30 32">
<path d="M16.128 16.319l-6.948-5.036c-0.191-0.191-0.51-0.127-0.701 0.064s-0.191 0.51-0.064 0.701l5.036 6.948c0.319 0.446 0.829 0.765 1.402 0.765h0.127c1.084 0 1.912-0.829 1.912-1.912 0-0.064 0-0.128 0-0.128 0-0.574-0.319-1.084-0.765-1.402v0zM15.618 18.422c-0.191 0.191-0.382 0.255-0.637 0.255s-0.446-0.128-0.637-0.319l-3.060-4.207 4.207 3.060c0.382 0.255 0.446 0.829 0.191 1.211 0-0.064-0.064 0-0.064 0v0z"></path>
<path d="M28.749 13.896c-0.319-1.211-0.765-2.359-1.402-3.442 0 0 0 0 0-0.064-0.574-0.956-1.211-1.785-1.912-2.55l1.147-1.147 0.765 0.765 2.231-2.359-2.295-2.295-2.231 2.295 0.765 0.765-1.211 1.147c-0.765-0.701-1.657-1.339-2.55-1.912h-0.064c-1.084-0.637-2.231-1.084-3.442-1.402-0.701-0.191-1.402-0.319-2.104-0.382v-0.637h0.765c0.765 0 1.339-0.574 1.339-1.339s-0.574-1.339-1.339-1.339c0 0 0 0 0 0h-4.845c-0.765 0-1.339 0.574-1.339 1.339s0.574 1.339 1.339 1.339c0 0 0 0 0 0h0.829v0.637c-0.701 0.064-1.402 0.191-2.104 0.382-1.211 0.319-2.359 0.765-3.442 1.402-0.956 0.51-1.785 1.211-2.55 1.912l-1.211-1.147 0.637-0.765-2.231-2.231-2.295 2.231 2.295 2.295 0.765-0.765 1.147 1.147c-0.701 0.765-1.339 1.657-1.912 2.55v0.064c-0.637 1.084-1.084 2.231-1.402 3.442s-0.51 2.486-0.51 3.761c0 1.275 0.191 2.55 0.51 3.761s0.765 2.359 1.402 3.442v0.064c0.637 1.084 1.402 2.104 2.295 2.996v0.064c0.892 0.892 1.849 1.657 2.932 2.231h0.064c1.084 0.637 2.231 1.084 3.442 1.402 2.422 0.637 5.036 0.637 7.458 0 1.211-0.319 2.359-0.765 3.442-1.402h0.064c1.084-0.637 2.104-1.339 3.060-2.231v-0.064c0.892-0.892 1.657-1.849 2.231-2.932v-0.064c0.637-1.084 1.084-2.231 1.402-3.442 0.637-2.422 0.829-4.972 0.191-7.394l-0.128-0.127zM27.283 4.335l0.765 0.765-0.765 0.765-0.765-0.765 0.765-0.765zM1.53 5.1l0.765-0.765 0.765 0.765-0.765 0.765-0.765-0.765zM26.582 21.355l1.020 0.255c-0.255 0.765-0.574 1.53-0.956 2.231l-0.892-0.51c-0.255-0.128-0.574-0.064-0.701 0.191s-0.064 0.574 0.191 0.701l0.892 0.51c-0.446 0.701-0.956 1.339-1.466 1.912l-0.765-0.765c-0.191-0.191-0.574-0.191-0.765 0 0 0 0 0 0 0-0.191 0.191-0.191 0.574 0 0.765l0.765 0.765c-0.574 0.574-1.211 1.020-1.912 1.466l-0.51-0.892c-0.128-0.255-0.446-0.319-0.701-0.191s-0.319 0.446-0.191 0.701l0.51 0.892c-0.701 0.382-1.466 0.701-2.231 0.956l-0.319-1.020c-0.064-0.255-0.382-0.446-0.637-0.382 0 0 0 0 0 0-0.255 0.064-0.446 0.382-0.382 0.637l0.255 1.020c-0.765 0.191-1.594 0.319-2.422 0.319v-1.084c0-0.319-0.255-0.51-0.51-0.51-0.319 0-0.51 0.255-0.51 0.51v1.084c-0.829 0-1.594-0.128-2.422-0.319l0.255-1.020c0.064-0.255-0.064-0.574-0.382-0.637-0.255-0.064-0.574 0.064-0.637 0.382v0l-0.319 1.020c-0.765-0.255-1.53-0.574-2.231-0.956l0.51-0.892c0.127-0.255 0.064-0.574-0.191-0.701s-0.574-0.064-0.701 0.191l-0.574 0.892c-0.637-0.446-1.275-0.956-1.912-1.466l0.765-0.765c0.191-0.191 0.191-0.574 0-0.765 0 0 0 0 0 0-0.191-0.191-0.51-0.191-0.765 0 0 0 0 0 0 0l-0.765 0.765c-0.574-0.574-1.020-1.275-1.466-1.912l0.892-0.51c0.255-0.128 0.319-0.446 0.191-0.701s-0.446-0.319-0.701-0.191l-0.892 0.51c-0.382-0.701-0.701-1.466-0.956-2.231l0.956-0.255c0.255-0.064 0.446-0.382 0.382-0.637s-0.382-0.446-0.637-0.382l-1.020 0.255c-0.191-0.765-0.319-1.594-0.319-2.422h1.020c0.319-0.064 0.51-0.319 0.446-0.637-0.064-0.255-0.191-0.382-0.446-0.446h-1.084c0.064-0.829 0.127-1.657 0.382-2.422l1.020 0.255c0.064 0 0.064 0 0.127 0 0.319 0 0.51-0.255 0.574-0.51 0-0.255-0.191-0.446-0.382-0.51l-1.020-0.255c0.191-0.829 0.51-1.53 0.892-2.295l0.892 0.574c0.064 0.064 0.191 0.064 0.255 0.064 0.319 0 0.51-0.191 0.574-0.51 0-0.191-0.128-0.382-0.255-0.51l-0.892-0.51c0.446-0.701 0.956-1.339 1.466-1.912l0.765 0.765c0.128 0.127 0.255 0.127 0.382 0.127s0.255-0.064 0.382-0.127c0.191-0.191 0.191-0.574 0-0.765 0 0 0 0 0 0l-0.765-0.765c0.574-0.574 1.275-1.020 1.912-1.466l0.51 0.956c0.127 0.191 0.255 0.255 0.446 0.255 0.064 0 0.191 0 0.255-0.064 0.255-0.128 0.319-0.446 0.191-0.701l-0.51-0.892c0.701-0.382 1.466-0.701 2.231-0.956l0.255 0.956c0.064 0.255 0.255 0.382 0.51 0.382 0.064 0 0.064 0 0.127 0 0.255-0.064 0.446-0.319 0.382-0.637 0 0 0 0 0 0l-0.255-1.020c0.637-0.128 1.275-0.255 1.912-0.255l0.446-0.064v1.084c0 0.319 0.255 0.51 0.51 0.51 0.319 0 0.51-0.255 0.51-0.51v-1.147l0.446 0.064c0.637 0.064 1.275 0.128 1.912 0.255l-0.255 1.020c-0.064 0.255 0.064 0.574 0.382 0.637 0 0 0 0 0 0 0.064 0 0.064 0 0.128 0 0.255 0 0.51-0.128 0.574-0.382l0.255-1.020c0.956 0.255 1.657 0.574 2.422 0.956l-0.51 0.892c-0.128 0.255-0.064 0.574 0.191 0.701 0.064 0.064 0.191 0.064 0.255 0.064 0.191 0 0.382-0.064 0.51-0.191l0.51-0.892c0.701 0.446 1.339 0.956 1.912 1.466l-0.765 0.765c-0.191 0.191-0.191 0.574 0 0.765 0.128 0.127 0.255 0.127 0.382 0.127s0.255-0.064 0.382-0.127l0.765-0.765c0.574 0.574 1.020 1.275 1.466 1.912l-0.892 0.51c-0.255 0.127-0.319 0.446-0.191 0.701 0.128 0.191 0.255 0.255 0.446 0.255 0.064 0 0.191 0 0.255-0.064l0.892-0.51c0.382 0.701 0.701 1.466 0.956 2.231l-1.020 0.255c-0.319 0.064-0.446 0.382-0.382 0.637s0.255 0.446 0.574 0.446h0.128l1.020-0.255c0.191 0.765 0.255 1.594 0.255 2.422h-1.084c-0.319 0-0.51 0.255-0.51 0.51 0 0.319 0.255 0.51 0.51 0.51v0h1.084c-0.064 0.829-0.128 1.594-0.319 2.422l-1.020-0.255c-0.255-0.064-0.574 0.064-0.637 0.382-0.128 0.319 0.064 0.637 0.382 0.701v0 0zM14.279 3.187v-1.657h-1.912c-0.127 0-0.255-0.127-0.255-0.255s0.127-0.255 0.255-0.255h4.845c0.128 0 0.255 0.127 0.255 0.255s-0.128 0.255-0.255 0.255v0h-1.912v1.657h-1.020z"></path>
</svg>
