<!-- Generated by IcoMoon.io -->
<svg version="1.1" xmlns="http://www.w3.org/2000/svg" width="32" height="32" viewBox="0 0 32 32">
<path d="M16 0c-8.81 0-16 7.191-16 16s7.191 16 16 16c8.81 0 16-7.191 16-16s-7.191-16-16-16zM16 30.125c-7.789 0-14.125-6.336-14.125-14.125s6.336-14.125 14.125-14.125 14.125 6.336 14.125 14.125-6.336 14.125-14.125 14.125z"></path>
<path d="M6.192 9.292l0.325 1.847c6.837-1.202 13.774-0.29 19.837 2.321l0.741-1.722c-6.391-2.752-13.699-3.713-20.904-2.446z"></path>
<path d="M6.489 14.959l-0.048 0.010 0.368 1.839 0.047-0.010c5.99-1.196 12.347-0.447 17.9 2.107l0.783-1.703c-5.909-2.719-12.675-3.515-19.051-2.242z"></path>
<path d="M8.106 20.378l0.33 1.846c4.568-0.816 9.232-0.272 13.488 1.575l0.746-1.72c-4.596-1.994-9.633-2.582-14.564-1.701z"></path>
</svg>
