<!-- Generated by IcoMoon.io -->
<svg version="1.1" xmlns="http://www.w3.org/2000/svg" width="32" height="32" viewBox="0 0 32 32">
<path d="M16 0c-8.822 0-16 7.178-16 16s7.178 16 16 16 16-7.178 16-16-7.178-16-16-16zM23.34 23.096c-0.196 0.278-0.504 0.426-0.818 0.426-0.2 0-0.4-0.058-0.574-0.182-3.75-2.636-9.988-2.782-14.2-1.8-0.534 0.126-1.076-0.21-1.2-0.748s0.208-1.076 0.748-1.202c4.63-1.072 11.55-0.876 15.8 2.114 0.452 0.318 0.56 0.94 0.244 1.392zM25.292 19.194c-0.196 0.272-0.502 0.416-0.812 0.416-0.204 0-0.406-0.060-0.584-0.188-4.35-3.122-9.694-3.898-16.826-2.442-0.538 0.106-1.070-0.238-1.18-0.78-0.112-0.54 0.238-1.070 0.778-1.18 7.714-1.574 13.558-0.694 18.394 2.776 0.448 0.324 0.552 0.948 0.23 1.398zM27.264 13.954c-0.194 0.286-0.51 0.438-0.828 0.438-0.194 0-0.39-0.056-0.562-0.172-5.514-3.742-13.896-3.76-19.322-1.84-0.52 0.18-1.092-0.090-1.276-0.612-0.184-0.52 0.088-1.092 0.61-1.276 5.902-2.086 15.048-2.042 21.114 2.072 0.456 0.31 0.572 0.932 0.264 1.39z"></path>
</svg>
