<!-- Generated by IcoMoon.io -->
<svg version="1.1" xmlns="http://www.w3.org/2000/svg" width="32" height="32" viewBox="0 0 32 32">
<path d="M7.021 1.164h-6.357c-0.366 0-0.663 0.297-0.663 0.663v6.357c0 0.366 0.297 0.663 0.663 0.663h6.357c0.366 0 0.663-0.297 0.663-0.663v-6.357c0-0.366-0.297-0.663-0.663-0.663zM6.357 7.521h-5.031v-5.031h5.031v5.031zM19.179 1.164h-6.357c-0.366 0-0.663 0.297-0.663 0.663v6.357c0 0.366 0.297 0.663 0.663 0.663h6.357c0.366 0 0.663-0.297 0.663-0.663v-6.357c0-0.366-0.297-0.663-0.663-0.663zM18.515 7.521h-5.031v-5.031h5.031v5.031zM31.337 1.164h-6.357c-0.366 0-0.663 0.297-0.663 0.663v6.357c0 0.366 0.297 0.663 0.663 0.663h6.357c0.366 0 0.663-0.297 0.663-0.663v-6.357c0-0.366-0.297-0.663-0.663-0.663zM30.673 7.521h-5.031v-5.031h5.031v5.031zM7.021 12.558h-6.357c-0.366 0-0.663 0.297-0.663 0.663v6.357c0 0.366 0.297 0.663 0.663 0.663h6.357c0.366 0 0.663-0.297 0.663-0.663v-6.357c0-0.366-0.297-0.663-0.663-0.663zM6.357 18.915h-5.031v-5.031h5.031v5.031zM19.179 12.558h-6.357c-0.366 0-0.663 0.297-0.663 0.663v6.357c0 0.366 0.297 0.663 0.663 0.663h6.357c0.366 0 0.663-0.297 0.663-0.663v-6.357c0-0.366-0.297-0.663-0.663-0.663zM18.515 18.915h-5.031v-5.031h5.031v5.031zM31.337 12.558h-6.357c-0.366 0-0.663 0.297-0.663 0.663v6.357c0 0.366 0.297 0.663 0.663 0.663h6.357c0.366 0 0.663-0.297 0.663-0.663v-6.357c0-0.366-0.297-0.663-0.663-0.663zM30.673 18.915h-5.031v-5.031h5.031v5.031zM7.021 23.952h-6.357c-0.366 0-0.663 0.297-0.663 0.663v6.357c0 0.366 0.297 0.663 0.663 0.663h6.357c0.366 0 0.663-0.297 0.663-0.663v-6.357c0-0.366-0.297-0.663-0.663-0.663zM6.357 30.309h-5.031v-5.031h5.031v5.031zM19.179 23.952h-6.357c-0.366 0-0.663 0.297-0.663 0.663v6.357c0 0.366 0.297 0.663 0.663 0.663h6.357c0.366 0 0.663-0.297 0.663-0.663v-6.357c0-0.366-0.297-0.663-0.663-0.663zM18.515 30.309h-5.031v-5.031h5.031v5.031zM31.337 23.952h-6.357c-0.366 0-0.663 0.297-0.663 0.663v6.357c0 0.366 0.297 0.663 0.663 0.663h6.357c0.366 0 0.663-0.297 0.663-0.663v-6.357c0-0.366-0.297-0.663-0.663-0.663zM30.673 30.309h-5.031v-5.031h5.031v5.031z"></path>
</svg>
