<!-- Generated by IcoMoon.io -->
<svg version="1.1" xmlns="http://www.w3.org/2000/svg" width="41" height="32" viewBox="0 0 41 32">
<path d="M27.979 0c1.287 0 2.303-0.001 3.119 0.066 0.827 0.068 1.523 0.208 2.159 0.532 1.032 0.526 1.871 1.366 2.397 2.398 0.56 1.099 0.596 1.845 0.598 3.885 1.321 0.187 2.389 0.572 3.235 1.417 0.878 0.878 1.255 1.993 1.433 3.653 0.176 1.637 0.174 3.967 0.174 7.395s0.002 5.758-0.174 7.395c-0.179 1.66-0.555 2.775-1.433 3.653-0.863 0.862-1.958 1.247-3.317 1.429-1.334 0.179-3.044 0.178-5.211 0.178h-20.825c-2.167 0-3.876 0.002-5.211-0.178-1.359-0.183-2.454-0.567-3.317-1.429-0.899-0.899-1.26-2.229-1.433-3.936-0.175-1.726-0.174-4.050-0.174-7.112 0-3.428-0.001-5.758 0.175-7.395 0.179-1.66 0.554-2.775 1.433-3.653 0.846-0.845 1.915-1.23 3.236-1.417 0.002-2.040 0.039-2.787 0.599-3.886 0.526-1.032 1.365-1.871 2.397-2.397 0.635-0.324 1.332-0.465 2.159-0.532 0.817-0.067 1.832-0.066 3.118-0.066h14.862zM10.135 8.375c-2.214 0-3.79 0.002-4.986 0.163-1.172 0.157-1.852 0.453-2.35 0.951-0.482 0.482-0.788 1.143-0.949 2.642-0.164 1.524-0.165 3.74-0.165 7.215-0 3.101 0.001 5.322 0.165 6.942 0.167 1.638 0.487 2.453 0.949 2.915 0.498 0.498 1.178 0.794 2.35 0.951 1.196 0.161 2.772 0.163 4.986 0.163h20.825c2.214 0 3.79-0.002 4.986-0.163 1.172-0.157 1.853-0.453 2.351-0.951 0.482-0.482 0.787-1.143 0.948-2.643 0.164-1.524 0.165-3.739 0.165-7.214s-0.001-5.69-0.165-7.214c-0.161-1.5-0.466-2.161-0.948-2.643-0.498-0.498-1.179-0.793-2.351-0.951-1.196-0.161-2.772-0.163-4.986-0.163h-20.825zM26.456 17.517c2.099-0.037 4.16 0.534 5.817 1.633 1.54 1.021 2.654 2.448 3.135 4.076 0.066 0.224 0.023 0.466-0.117 0.653s-0.359 0.297-0.593 0.297h-8.141c-1.226 0-2.22-0.994-2.22-2.22v-3.613c0-0.373 0.277-0.687 0.647-0.734 0.487-0.062 0.979-0.093 1.472-0.092zM12.006 21.464c0.465 0 0.842 0.377 0.842 0.842s-0.377 0.842-0.842 0.842h-5.366c-0.465 0-0.842-0.377-0.842-0.842s0.377-0.842 0.842-0.842h5.366zM17.002 15.543c0.465 0 0.842 0.377 0.842 0.842s-0.377 0.842-0.842 0.842h-10.362c-0.465 0-0.842-0.377-0.842-0.842s0.377-0.842 0.842-0.842h10.362zM33.567 14.442c0.511 0 0.925 0.414 0.925 0.925s-0.414 0.925-0.925 0.925h-0.007c-0.511 0-0.925-0.414-0.925-0.925s0.414-0.925 0.925-0.925h0.007zM13.117 1.684c-1.314 0-2.25 0.001-2.982 0.061-0.722 0.059-1.172 0.171-1.53 0.354-0.715 0.364-1.298 0.946-1.662 1.661-0.353 0.693-0.406 1.037-0.414 2.976 1.031-0.046 2.226-0.045 3.606-0.045h20.825c1.381 0 2.576-0.001 3.607 0.045-0.008-1.939-0.060-2.283-0.413-2.975-0.365-0.716-0.947-1.297-1.662-1.662-0.358-0.183-0.809-0.295-1.531-0.354-0.732-0.060-1.668-0.061-2.982-0.061h-14.862z"></path>
</svg>
