<!-- Generated by IcoMoon.io -->
<svg version="1.1" xmlns="http://www.w3.org/2000/svg" width="32" height="32" viewBox="0 0 32 32">
<path d="M24.8 30.4c-0.131 0-0.263-0.032-0.383-0.098l-8.417-4.591-8.417 4.591c-0.269 0.147-0.597 0.127-0.847-0.050s-0.376-0.482-0.325-0.783l1.532-9.194-6.109-6.109c-0.212-0.212-0.288-0.524-0.196-0.81s0.335-0.496 0.63-0.545l9.198-1.533 3.818-7.636c0.136-0.271 0.412-0.442 0.716-0.442s0.58 0.171 0.716 0.442l3.818 7.636 9.198 1.533c0.296 0.049 0.539 0.26 0.63 0.545s0.016 0.598-0.196 0.81l-6.109 6.109 1.532 9.194c0.050 0.302-0.076 0.606-0.325 0.783-0.138 0.098-0.301 0.148-0.464 0.148zM16 24c0.132 0 0.264 0.033 0.383 0.098l7.358 4.013-1.33-7.98c-0.043-0.255 0.041-0.514 0.223-0.697l5.301-5.301-8.067-1.344c-0.253-0.042-0.47-0.202-0.584-0.431l-3.284-6.569-3.284 6.569c-0.114 0.229-0.332 0.389-0.584 0.431l-8.067 1.344 5.301 5.301c0.183 0.183 0.266 0.442 0.223 0.697l-1.33 7.98 7.358-4.013c0.119-0.065 0.251-0.098 0.383-0.098z"></path>
</svg>
