<!-- Generated by IcoMoon.io -->
<svg version="1.1" xmlns="http://www.w3.org/2000/svg" width="32" height="32" viewBox="0 0 32 32">
<path d="M8.799 13.333c-0.384 0-0.723-0.277-0.788-0.669-0.073-0.436 0.222-0.848 0.658-0.921l2.798-0.466 0.618-1.236c0.198-0.395 0.678-0.555 1.073-0.358s0.555 0.678 0.358 1.073l-0.8 1.6c-0.114 0.229-0.332 0.389-0.584 0.431l-3.2 0.533c-0.044 0.007-0.089 0.011-0.132 0.011zM4 16c-0.205 0-0.409-0.078-0.566-0.234l-1.6-1.6c-0.212-0.212-0.288-0.524-0.196-0.81s0.335-0.496 0.63-0.545l3.2-0.533c0.436-0.073 0.848 0.222 0.921 0.658s-0.222 0.848-0.658 0.921l-1.667 0.278 0.501 0.501c0.312 0.312 0.312 0.819 0 1.131-0.156 0.156-0.361 0.234-0.566 0.234zM23.732 24c-0.384 0-0.723-0.277-0.788-0.669l-0.533-3.2c-0.043-0.255 0.041-0.515 0.223-0.697l1.6-1.6c0.312-0.312 0.819-0.312 1.131 0s0.312 0.819 0 1.131l-1.309 1.309 0.466 2.794c0.073 0.436-0.222 0.848-0.658 0.921-0.044 0.007-0.089 0.011-0.132 0.011zM24.8 30.4c-0.131 0-0.263-0.032-0.383-0.098l-4.8-2.618c-0.388-0.212-0.531-0.698-0.319-1.085s0.698-0.531 1.085-0.319l3.358 1.832-0.263-1.579c-0.073-0.436 0.222-0.848 0.658-0.921s0.848 0.222 0.921 0.658l0.533 3.2c0.050 0.302-0.076 0.606-0.325 0.783-0.138 0.098-0.301 0.148-0.464 0.148zM8.534 22.4c-0.044 0-0.088-0.004-0.132-0.011-0.436-0.073-0.73-0.485-0.658-0.921l0.199-1.194-1.309-1.309c-0.312-0.312-0.312-0.819 0-1.131s0.819-0.312 1.131 0l1.6 1.6c0.183 0.183 0.266 0.442 0.223 0.697l-0.267 1.6c-0.065 0.391-0.404 0.669-0.788 0.669zM7.2 30.4c-0.163 0-0.326-0.050-0.464-0.148-0.249-0.177-0.376-0.482-0.325-0.783l0.8-4.8c0.073-0.436 0.485-0.73 0.921-0.658s0.73 0.485 0.658 0.921l-0.53 3.179 1.758-0.959c0.388-0.212 0.874-0.069 1.085 0.319s0.069 0.874-0.319 1.085l-3.2 1.745c-0.12 0.065-0.252 0.098-0.383 0.098zM13.601 26.909c-0.283 0-0.558-0.151-0.703-0.417-0.212-0.388-0.069-0.874 0.319-1.085l2.4-1.309c0.239-0.13 0.527-0.13 0.766 0l0.8 0.436c0.388 0.212 0.531 0.698 0.319 1.085s-0.698 0.531-1.085 0.319l-0.417-0.227-2.017 1.1c-0.122 0.066-0.253 0.098-0.382 0.098zM28 16c-0.205 0-0.409-0.078-0.566-0.234-0.312-0.312-0.312-0.819 0-1.131l0.501-0.501-3.267-0.544c-0.436-0.073-0.73-0.485-0.658-0.921s0.485-0.73 0.921-0.658l4.8 0.8c0.296 0.049 0.539 0.26 0.63 0.545s0.016 0.598-0.196 0.81l-1.6 1.6c-0.156 0.156-0.361 0.234-0.566 0.234zM21.601 13.067c-0.044 0-0.088-0.004-0.133-0.011l-1.6-0.267c-0.252-0.042-0.47-0.202-0.584-0.431l-1.6-3.2c-0.198-0.395-0.037-0.876 0.358-1.073s0.876-0.037 1.073 0.358l1.418 2.835 1.198 0.2c0.436 0.073 0.73 0.485 0.658 0.921-0.065 0.391-0.404 0.668-0.788 0.668zM14.399 8c-0.12 0-0.242-0.027-0.357-0.085-0.395-0.198-0.555-0.678-0.358-1.073l1.6-3.2c0.136-0.271 0.413-0.442 0.716-0.442 0 0 0 0 0 0 0.303 0 0.58 0.171 0.716 0.442l0.8 1.6c0.198 0.395 0.037 0.876-0.358 1.073s-0.876 0.037-1.073-0.358l-0.084-0.169-0.884 1.769c-0.14 0.28-0.423 0.442-0.716 0.442z"></path>
</svg>
