<!-- Generated by IcoMoon.io -->
<svg version="1.1" xmlns="http://www.w3.org/2000/svg" width="32" height="32" viewBox="0 0 32 32">
<path d="M31.956 12.669c-0.105-0.322-0.381-0.552-0.716-0.604l-9.983-1.419-4.492-9.031c-0.151-0.302-0.46-0.493-0.795-0.493v0c-0.335 0-0.644 0.19-0.795 0.499l-4.433 9.057-9.983 1.484c-0.335 0.053-0.611 0.282-0.716 0.604s-0.013 0.677 0.23 0.906l7.244 7.021-1.675 9.944c-0.059 0.335 0.079 0.67 0.355 0.867 0.151 0.112 0.335 0.171 0.519 0.171 0.144 0 0.282-0.033 0.414-0.105l8.913-4.722 8.939 4.67c0.131 0.066 0.269 0.099 0.407 0.099v0c0.486 0 0.887-0.401 0.887-0.887 0-0.072-0.007-0.138-0.026-0.204l-1.727-9.885 7.198-7.060c0.256-0.236 0.342-0.591 0.236-0.913zM22.958 19.704c-0.21 0.204-0.302 0.499-0.25 0.788l1.504 8.624-7.763-4.052c-0.256-0.138-0.565-0.131-0.828 0l-7.737 4.098 1.451-8.637c0.046-0.289-0.046-0.578-0.256-0.782l-6.279-6.095 8.663-1.287c0.289-0.046 0.539-0.223 0.663-0.486l3.849-7.862 3.901 7.842c0.131 0.263 0.381 0.44 0.67 0.486l8.67 1.235-6.259 6.128z"></path>
</svg>
