<!-- Generated by IcoMoon.io -->
<svg version="1.1" xmlns="http://www.w3.org/2000/svg" width="35" height="32" viewBox="0 0 35 32">
<path d="M24.4 14.32c-0.16-0.48-0.56-0.8-1.040-0.88l-3.36-0.48-1.52-3.040c-0.24-0.48-0.64-0.72-1.2-0.72v0c-0.48 0-0.96 0.24-1.2 0.72l-1.52 3.040-3.36 0.48c-0.48 0.080-0.88 0.4-1.040 0.88s0 0.96 0.32 1.36l2.4 2.32-0.56 3.36c-0.080 0.48 0.080 0.96 0.48 1.28 0.24 0.16 0.48 0.24 0.8 0.24 0.24 0 0.4-0.080 0.64-0.16l2.96-1.6 2.96 1.6c0.48 0.24 0.96 0.16 1.36-0.080 0.4-0.32 0.64-0.8 0.48-1.28l-0.56-3.28 2.4-2.32c0.56-0.48 0.72-0.96 0.56-1.44zM20.72 17.040c-0.32 0.32-0.48 0.72-0.4 1.12l0.56 3.2-2.88-1.52c-0.4-0.16-0.8-0.16-1.2 0l-2.88 1.52 0.56-3.2c0.080-0.4-0.080-0.88-0.4-1.12l-2.32-2.32 3.28-0.48c0.4-0.080 0.8-0.32 0.96-0.72l1.44-2.96 1.44 2.96c0.16 0.4 0.56 0.64 0.96 0.72l3.28 0.48-2.4 2.32zM33.6 13.6c0.080-0.080 0.16-0.16 0.24-0.32 0.64-1.84 0.4-3.84-0.72-5.44-0.64-0.96-1.52-1.68-2.48-2.080 0.16-1.68-0.56-3.36-1.84-4.4-1.28-1.12-3.040-1.6-4.72-1.2-0.32 0.080-0.48 0.32-0.56 0.64-0.16 1.68 0.56 3.36 1.84 4.48 0.64 0.56 1.36 0.88 2.080 1.12-0.4 1.6-0.080 3.36 0.88 4.72 0.56 0.88 1.36 1.52 2.24 2-1.040 1.12-1.6 2.56-1.6 4.080 0 1.2 0.32 2.32 0.96 3.28-1.44 0.4-2.64 1.28-3.52 2.48-0.48 0.72-0.8 1.44-0.96 2.32-1.6-0.32-3.28 0.080-4.64 0.96-1.6 1.12-2.56 2.88-2.56 4.8 0 0.32 0.16 0.56 0.48 0.64 0.64 0.24 1.28 0.32 1.92 0.32 1.2 0 2.48-0.4 3.52-1.12 0.8-0.56 1.44-1.28 1.92-2.16 0.080 0.080 0.24 0.080 0.32 0.080 0 0 0 0 0 0 1.92-0.080 3.68-1.12 4.72-2.72 0.8-1.2 1.12-2.64 0.96-4 0 0 0 0 0.080 0 1.52-1.12 2.48-2.96 2.48-4.88 0.080-1.28-0.32-2.56-1.040-3.6zM23.44 29.76c-1.12 0.8-2.4 1.040-3.68 0.72 0.16-1.28 0.88-2.48 2-3.2 1.12-0.8 2.4-1.040 3.68-0.72-0.16 1.28-0.88 2.48-2 3.2zM26.32 4.24c-0.8-0.72-1.36-1.76-1.36-2.8 1.12-0.080 2.16 0.24 2.96 0.96s1.36 1.76 1.36 2.8c-1.040 0.080-2.080-0.24-2.96-0.96zM29.52 10.32c-0.72-1.12-0.96-2.4-0.64-3.68 1.28 0.24 2.4 0.96 3.2 2 0.72 1.12 0.96 2.4 0.64 3.68-0.16 0-0.4-0.080-0.56-0.16 0 0-0.080 0-0.080 0-1.040-0.32-1.92-0.96-2.56-1.84zM30.080 25.36c-0.72 1.12-1.84 1.84-3.2 2-0.32-1.28-0.080-2.64 0.64-3.68 0.72-1.12 1.84-1.84 3.2-2 0.4 1.28 0.16 2.56-0.64 3.68zM31.92 20.64c-0.080-0.16-0.16-0.24-0.32-0.32-0.8-0.88-1.2-1.92-1.2-3.12 0-1.36 0.56-2.56 1.52-3.44 0.96 0.88 1.52 2.16 1.52 3.44-0.080 1.28-0.56 2.56-1.52 3.44zM13.76 26.24c-1.36-0.96-3.040-1.28-4.64-0.96-0.16-0.8-0.48-1.6-0.96-2.32-0.8-1.2-2.080-2.080-3.52-2.48 0.64-0.96 0.96-2.080 0.96-3.28 0-1.52-0.56-3.040-1.6-4.080 0.88-0.48 1.68-1.12 2.24-2 1.040-1.44 1.36-3.12 0.96-4.8 0.8-0.24 1.44-0.56 2.080-1.12 1.28-1.12 1.92-2.8 1.84-4.48 0-0.32-0.24-0.56-0.56-0.64-1.6-0.32-3.36 0.16-4.64 1.28-1.28 1.040-1.92 2.72-1.84 4.4-0.96 0.48-1.84 1.2-2.48 2.16-1.040 1.6-1.36 3.6-0.72 5.44 0.080 0.16 0.16 0.24 0.24 0.32-0.72 0.96-1.12 2.24-1.12 3.52 0 1.92 0.88 3.76 2.48 4.88 0 0 0 0 0.080 0-0.16 1.44 0.16 2.8 0.96 4 1.040 1.6 2.88 2.56 4.72 2.72 0 0 0 0 0 0 0.080 0 0.24 0 0.32-0.080 0.48 0.88 1.12 1.6 1.92 2.16 1.040 0.72 2.24 1.12 3.52 1.12 0.64 0 1.28-0.080 1.92-0.32 0.32-0.080 0.48-0.4 0.48-0.64-0.080-1.92-1.040-3.76-2.64-4.8zM6.8 2.32c0.8-0.72 1.92-1.040 2.96-0.96-0.080 1.12-0.56 2.080-1.36 2.8s-1.92 1.12-2.96 1.040c0.080-1.12 0.56-2.080 1.36-2.88zM2.72 8.64c0.72-1.12 1.84-1.84 3.2-2 0.32 1.28 0.080 2.64-0.64 3.68-0.64 0.88-1.52 1.52-2.48 1.84 0 0-0.080 0-0.080 0-0.16 0.080-0.4 0.080-0.56 0.16-0.4-1.28-0.16-2.56 0.56-3.68zM3.2 20.32c-0.16 0.080-0.24 0.16-0.32 0.32-0.96-0.88-1.52-2.080-1.52-3.44s0.56-2.56 1.52-3.44c0.96 0.88 1.52 2.16 1.52 3.44 0 1.2-0.48 2.24-1.2 3.12zM7.76 27.36c-1.28-0.24-2.4-0.96-3.2-2-0.72-1.12-0.96-2.4-0.64-3.68 1.28 0.24 2.4 0.96 3.2 2 0.72 1.12 0.96 2.48 0.64 3.68zM11.28 29.76c-1.12-0.8-1.76-1.92-2-3.2 1.28-0.24 2.64 0 3.68 0.72 1.12 0.8 1.76 1.92 2 3.2-1.28 0.32-2.56 0.080-3.68-0.72zM17.36 4.32c-0.4 0-0.64 0.32-0.64 0.64v2.32c0 0.4 0.32 0.64 0.64 0.64 0.4 0 0.64-0.32 0.64-0.64v-2.24c0.080-0.4-0.24-0.72-0.64-0.72zM17.84 1.92c-0.16-0.16-0.32-0.16-0.48-0.16s-0.32 0.080-0.48 0.16c-0.080 0.080-0.16 0.24-0.16 0.48 0 0.16 0.080 0.32 0.16 0.48 0.16 0.16 0.32 0.16 0.48 0.16s0.32-0.080 0.48-0.16c0.16-0.16 0.16-0.32 0.16-0.48 0.080-0.24 0-0.4-0.16-0.48zM24.64 7.36c-0.24-0.24-0.72-0.24-0.96 0l-1.68 1.68c-0.24 0.24-0.24 0.72 0 0.96 0.16 0.16 0.32 0.16 0.48 0.16s0.32-0.080 0.48-0.16l1.68-1.68c0.24-0.24 0.24-0.72 0-0.96zM12.72 8.96l-1.68-1.68c-0.24-0.24-0.72-0.24-0.96 0s-0.24 0.72 0 0.96l1.68 1.68c0.16 0.16 0.32 0.16 0.48 0.16s0.32-0.080 0.48-0.16c0.24-0.24 0.24-0.64 0-0.96z"></path>
</svg>
