<!-- Generated by IcoMoon.io -->
<svg version="1.1" xmlns="http://www.w3.org/2000/svg" width="32" height="32" viewBox="0 0 32 32">
<path d="M30.156 25.981h-26.95c-0.275 0-0.475-0.131-0.612-0.325s-0.069-0.456 0.069-0.65l6.944-9.25c0.206-0.262 0.613-0.325 0.887-0.131l3.194 2.088 4.494-8.075c0.069-0.194 0.275-0.325 0.475-0.325s0.406 0.063 0.544 0.194l3.4 3.388 7.012-11.463c0.137-0.262 0.475-0.394 0.75-0.325 0.275 0.063 0.475 0.325 0.475 0.588v23.575c0 0.45-0.344 0.712-0.681 0.712zM4.5 24.681h24.975v-20.581l-6.125 10.094c-0.137 0.194-0.275 0.262-0.475 0.325-0.206 0-0.406-0.063-0.544-0.194l-3.337-3.319-4.425 7.881c-0.069 0.131-0.275 0.262-0.406 0.325-0.206 0.063-0.406 0-0.544-0.063l-3.269-2.15-5.85 7.681zM0.688 30.413h30.625v1.3h-30.625v-1.3z"></path>
</svg>
