<!-- Generated by IcoMoon.io -->
<svg version="1.1" xmlns="http://www.w3.org/2000/svg" width="32" height="32" viewBox="0 0 32 32">
<path d="M31.313 1.087h-30.625v24.431h9.731l-3.313 5.481 1.113 0.681 3.725-6.162h3.406v4.137h1.306v-4.137h3.375l3.744 6.194 1.113-0.681-3.331-5.512h9.756v-24.431zM30.075 24.269h-28.081v-21.869h28.081v21.869zM10.981 12.381h-5.6v8.862h5.606v-8.863zM9.681 19.938h-3v-6.306h3v6.306zM18.8 6.275h-5.606v14.975h5.606v-14.975zM17.5 19.938h-3v-12.35h3v12.35zM26.619 9.625h-5.606v11.625h5.606v-11.625zM25.319 19.938h-3v-9h3v9z"></path>
</svg>
