<!-- Generated by IcoMoon.io -->
<svg version="1.1" xmlns="http://www.w3.org/2000/svg" width="32" height="32" viewBox="0 0 32 32">
<path d="M16 32c8.837 0 16-7.163 16-16s-7.163-16-16-16-16 7.163-16 16c0.010 8.833 7.167 15.99 16 16zM16 1.067c8.248 0 14.933 6.686 14.933 14.933s-6.686 14.933-14.933 14.933-14.933-6.686-14.933-14.933c0.010-8.244 6.69-14.924 14.933-14.933z"></path>
<path d="M16 29.333c7.364 0 13.333-5.969 13.333-13.333s-5.969-13.333-13.333-13.333-13.333 5.969-13.333 13.333c0.008 7.36 5.973 13.325 13.333 13.333zM4.147 19.156l3.286-0.875c1.28-0.342 2.647-0.069 3.698 0.738s1.668 2.056 1.669 3.382v5.44c-4.223-1.151-7.518-4.457-8.653-8.684zM13.867 28.077v-5.677c-0.001-1.656-0.772-3.218-2.085-4.227s-3.022-1.35-4.622-0.923l-3.24 0.862c-0.237-1.341-0.247-2.713-0.030-4.057 2.528-0.914 7.219-2.322 12.111-2.322s9.583 1.408 12.111 2.322c0.217 1.344 0.207 2.716-0.030 4.057l-3.24-0.862c-1.6-0.427-3.308-0.086-4.622 0.923s-2.084 2.571-2.085 4.227v5.678c-1.411 0.252-2.856 0.252-4.267 0zM19.2 27.84v-5.44c0.001-1.325 0.617-2.574 1.669-3.381s2.417-1.080 3.698-0.738l3.287 0.875c-1.136 4.227-4.43 7.533-8.653 8.684zM16 3.733c5.552 0.007 10.409 3.737 11.85 9.099-3.809-1.348-7.81-2.079-11.85-2.166-4.040 0.087-8.040 0.818-11.85 2.166 1.44-5.362 6.298-9.092 11.85-9.099z"></path>
<path d="M19.733 16c0-2.062-1.672-3.733-3.733-3.733s-3.733 1.672-3.733 3.733 1.672 3.733 3.733 3.733c2.061-0.002 3.731-1.673 3.733-3.733zM13.333 16c0-1.473 1.194-2.667 2.667-2.667s2.667 1.194 2.667 2.667-1.194 2.667-2.667 2.667c-1.472-0.002-2.665-1.195-2.667-2.667z"></path>
<path d="M17.6 16c0-0.884-0.717-1.6-1.6-1.6s-1.6 0.717-1.6 1.6 0.717 1.6 1.6 1.6 1.6-0.717 1.6-1.6zM15.467 16c0-0.294 0.239-0.533 0.533-0.533s0.533 0.239 0.533 0.533-0.239 0.533-0.533 0.533-0.533-0.239-0.533-0.533z"></path>
</svg>
