<!-- Generated by IcoMoon.io -->
<svg version="1.1" xmlns="http://www.w3.org/2000/svg" width="32" height="32" viewBox="0 0 32 32">
<path d="M31.961 17.838c-0.236-1.638-1.523-2.925-3.162-3.162v-0.97c0-2.675-2.034-4.853-4.533-4.853-2.428 0-4.46 2.112-4.533 4.708h0.031l-0.031 0.005v10.51c0 3.36-2.512 6.088-5.6 6.088s-5.6-2.732-5.6-6.088v-0.91c0.773 0 1.6-0.561 1.6-2.133v-1.341c3.423-0.875 5.867-3.814 5.867-7.147v-1.112h-1.067l-0.022-6.941c-0.008-1.285-0.93-2.382-2.194-2.611-0.273-0.836-1.171-1.292-2.007-1.019s-1.292 1.171-1.019 2.007c0.273 0.836 1.171 1.292 2.007 1.019 0.447-0.146 0.807-0.483 0.983-0.919 0.683 0.194 1.157 0.816 1.162 1.526l0.024 6.938h-1.067v1.127c-0.043 1.855-1.286 3.467-3.070 3.979-0.954 0.303-1.979 0.303-2.933 0-1.782-0.514-3.022-2.126-3.063-3.979v-1.127h-1.6v-6.933c0.003-0.721 0.488-1.351 1.184-1.538 0.325 0.826 1.258 1.233 2.084 0.908s1.233-1.258 0.908-2.084-1.258-1.233-2.084-0.908c-0.448 0.176-0.793 0.543-0.941 1.001-1.278 0.218-2.214 1.325-2.218 2.621v6.933h-1.067v1.109c0 3.336 2.445 6.276 5.867 7.149v1.341c0 1.573 0.827 2.133 1.6 2.133v0.91c0 3.947 2.99 7.155 6.667 7.155s6.667-3.212 6.667-7.155v-10.485c0.053-2.024 1.61-3.671 3.467-3.671 1.911 0 3.467 1.698 3.467 3.787v0.968c-2.041 0.295-3.456 2.188-3.162 4.228s2.188 3.456 4.228 3.162 3.456-2.188 3.162-4.228zM11.2 2.901c-0.295 0-0.533-0.239-0.533-0.533s0.239-0.533 0.533-0.533 0.533 0.239 0.533 0.533-0.239 0.533-0.533 0.533zM4.8 1.834c0.295 0 0.533 0.239 0.533 0.533s-0.239 0.533-0.533 0.533-0.533-0.239-0.533-0.533 0.239-0.533 0.533-0.533zM1.067 12.543v-0.043h1.6v0.061c0.040 2.318 1.582 4.341 3.807 4.994 1.166 0.369 2.417 0.369 3.583 0 2.226-0.652 3.769-2.675 3.81-4.994v-0.061h1.067v0.043c0 2.967-2.287 5.578-5.44 6.209-0.74 0.148-1.499 0.185-2.25 0.11-0.247-0.024-0.493-0.061-0.737-0.111-3.153-0.63-5.44-3.241-5.44-6.208zM7.467 22.101c-0.48 0-0.533-0.747-0.533-1.067v-1.132c0.043 0.005 0.086 0.007 0.13 0.012 0.053 0.006 0.107 0.010 0.16 0.015 0.252 0.022 0.507 0.037 0.763 0.038h0.027c0.256 0 0.51-0.015 0.761-0.038 0.053-0.005 0.11-0.009 0.165-0.015 0.042-0.005 0.086-0.006 0.128-0.012v1.132c0 0.32-0.053 1.067-0.533 1.067h-1.066zM28.266 21.034c-1.473 0-2.667-1.194-2.667-2.667s1.194-2.667 2.667-2.667c1.473 0 2.667 1.194 2.667 2.667-0.002 1.472-1.195 2.665-2.667 2.667z"></path>
<path d="M28.266 16.767c-0.884 0-1.6 0.716-1.6 1.6s0.716 1.6 1.6 1.6 1.6-0.716 1.6-1.6-0.716-1.6-1.6-1.6zM28.266 18.901c-0.295 0-0.533-0.239-0.533-0.533s0.239-0.533 0.533-0.533 0.533 0.239 0.533 0.533-0.239 0.533-0.533 0.533z"></path>
</svg>
