<!-- Generated by IcoMoon.io -->
<svg version="1.1" xmlns="http://www.w3.org/2000/svg" width="32" height="32" viewBox="0 0 32 32">
<path d="M27.252 0.4h-22.504c-0.331 0-0.598 0.268-0.598 0.599v30.803c0 0.331 0.268 0.598 0.598 0.598h22.504c0.331 0 0.599-0.268 0.599-0.599v-30.803c0-0.331-0.268-0.599-0.599-0.599zM22.434 2.443l3.373 3.373h-3.373v-3.373zM26.653 31.203h-21.307v-0.876h21.307v0.876zM26.653 27.058h-15.162c-0.331 0-0.598 0.268-0.598 0.599s0.268 0.599 0.598 0.599h15.162v0.876h-21.307v-0.876h2.605c0.331 0 0.598-0.268 0.598-0.599s-0.268-0.599-0.598-0.599h-2.605v-0.876h21.307v0.876zM26.653 24.985h-21.307v-23.388h15.89v4.818c0 0.331 0.268 0.598 0.599 0.598h4.818v17.971zM26.653 4.97l-3.373-3.373h3.373v3.373zM10.248 27.428c0.015 0.036-0.015-0.037 0 0v0zM9.99 28.176c0.259-0.145 0.373-0.475 0.258-0.749-0.207-0.499-0.943-0.475-1.119 0.034-0.176 0.511 0.391 0.977 0.861 0.715z"></path>
</svg>
