<!-- Generated by IcoMoon.io -->
<svg version="1.1" xmlns="http://www.w3.org/2000/svg" width="30" height="32" viewBox="0 0 30 32">
<path d="M15.936 20.288c0.576-0.064 1.088-0.32 1.408-0.768l4.992-6.912c0.128-0.192 0.128-0.512-0.064-0.704s-0.448-0.192-0.704-0.064l-6.912 4.992c-0.448 0.32-0.704 0.832-0.768 1.408s0.128 1.088 0.576 1.472c0.384 0.384 0.832 0.576 1.344 0.576 0 0 0.064 0 0.128 0zM14.912 18.304c0-0.256 0.128-0.448 0.32-0.64l4.224-3.072-3.072 4.224c-0.128 0.192-0.384 0.32-0.64 0.32s-0.512-0.064-0.64-0.256c-0.128-0.128-0.192-0.32-0.192-0.576z"></path>
<path d="M27.84 10.432c0 0 0 0 0 0 0-0.064 0-0.064 0 0-0.576-0.96-1.216-1.856-1.92-2.624l1.152-1.152 0.768 0.768 2.24-2.24-2.24-2.24-2.24 2.24 0.768 0.768-1.216 1.088c-0.768-0.704-1.664-1.344-2.56-1.92 0 0 0 0 0 0s0 0-0.064 0c-1.664-0.96-3.52-1.6-5.504-1.792v-0.64h0.832c0.704 0 1.344-0.576 1.344-1.344s-0.576-1.344-1.344-1.344h-4.8c-0.704 0-1.344 0.576-1.344 1.344s0.576 1.344 1.344 1.344h0.832v0.64c-0.576 0.064-1.152 0.128-1.728 0.256-0.256 0.064-0.448 0.32-0.384 0.64 0.064 0.256 0.32 0.448 0.64 0.384 0.512-0.128 0.96-0.192 1.472-0.256l0.576-0.064c0.192 0 0.32 0 0.512 0v1.024c0 0.32 0.256 0.512 0.512 0.512s0.512-0.192 0.512-0.512v-1.024c1.984 0.064 3.904 0.64 5.568 1.536l-0.512 0.896c-0.128 0.256-0.064 0.576 0.192 0.704 0.064 0.064 0.192 0.064 0.256 0.064 0.192 0 0.384-0.064 0.448-0.256l0.512-0.896c1.664 1.088 3.072 2.496 4.16 4.16l-0.896 0.512c-0.256 0.128-0.32 0.448-0.192 0.704 0.128 0.192 0.256 0.256 0.448 0.256 0.064 0 0.192 0 0.256-0.064l0.896-0.512c0.896 1.728 1.408 3.648 1.536 5.632h-1.024c-0.32 0-0.512 0.256-0.512 0.512s0.256 0.512 0.512 0.512h1.024c-0.064 2.048-0.64 3.968-1.536 5.632l-0.896-0.384c-0.256-0.128-0.576-0.064-0.704 0.192s-0.064 0.576 0.192 0.704l0.896 0.512c-1.088 1.664-2.496 3.072-4.16 4.16l-0.512-0.896c-0.128-0.256-0.448-0.32-0.704-0.192s-0.32 0.448-0.192 0.704l0.512 0.896c-1.664 0.896-3.584 1.408-5.568 1.536v-1.024c0-0.32-0.256-0.512-0.512-0.512s-0.512 0.256-0.512 0.512v1.024c-0.832 0-1.728-0.128-2.56-0.32-0.256-0.064-0.576 0.128-0.64 0.384s0.128 0.576 0.384 0.64c1.088 0.256 2.176 0.384 3.2 0.384 0 0 0.064 0 0.064 0s0 0 0 0 0 0 0 0c2.56 0 4.992-0.704 7.040-1.92 0 0 0.064 0 0.064 0s0 0 0 0c2.176-1.28 3.968-3.072 5.184-5.184 0 0 0 0 0-0.064 0 0 0 0 0-0.064 1.216-2.112 1.92-4.544 1.92-7.168s-0.576-5.056-1.792-7.168zM27.84 4.416l0.768 0.768-0.768 0.768-0.768-0.768 0.768-0.768zM14.912 3.2v-1.6h-1.856c-0.128 0-0.256-0.128-0.256-0.256s0.128-0.256 0.256-0.256h4.8c0.128 0 0.256 0.128 0.256 0.256s-0.128 0.256-0.256 0.256h-1.856v1.6c-0.192 0-0.384 0-0.512 0 0 0 0 0-0.064 0 0 0 0 0-0.064 0s-0.192 0-0.256 0c-0.064 0-0.128 0-0.192 0z"></path>
<path d="M10.688 7.488h-2.688c-0.32 0-0.512 0.256-0.512 0.512s0.256 0.512 0.512 0.512h2.688c0.32 0 0.512-0.256 0.512-0.512s-0.256-0.512-0.512-0.512z"></path>
<path d="M10.688 11.2h-5.376c-0.32 0-0.512 0.256-0.512 0.512s0.256 0.512 0.512 0.512h5.312c0.32 0 0.512-0.256 0.512-0.512s-0.192-0.512-0.448-0.512z"></path>
<path d="M10.688 14.912h-8c-0.32 0-0.512 0.256-0.512 0.512s0.192 0.576 0.512 0.576h8c0.32 0 0.512-0.256 0.512-0.512s-0.256-0.576-0.512-0.576z"></path>
<path d="M10.688 18.688h-10.176c-0.256 0-0.512 0.192-0.512 0.512s0.256 0.512 0.512 0.512h10.112c0.32 0 0.512-0.256 0.512-0.512s-0.192-0.512-0.448-0.512z"></path>
<path d="M10.688 22.4h-6.976c-0.256 0-0.512 0.256-0.512 0.512s0.256 0.512 0.512 0.512h6.912c0.32 0 0.512-0.256 0.512-0.512s-0.192-0.512-0.448-0.512z"></path>
<path d="M10.688 26.112h-3.712c-0.32 0-0.512 0.256-0.512 0.512s0.256 0.512 0.512 0.512h3.712c0.32 0 0.512-0.256 0.512-0.512s-0.256-0.512-0.512-0.512z"></path>
</svg>
