<!-- Generated by IcoMoon.io -->
<svg version="1.1" xmlns="http://www.w3.org/2000/svg" width="32" height="32" viewBox="0 0 32 32">
<path d="M30.875 6.619l-6.469-5.369c-0.1-0.094-0.262-0.131-0.394-0.131h-16.094c-0.131 0-0.256 0.031-0.394 0.131l-6.381 5.362c-0.269 0.219-0.456 0.469-0.456 0.819v24.25h15.931v-8.194c0-1.95 1.625-3.512 3.706-3.512 2.019 0 3.706 1.563 3.706 3.512v8.194h7.281v-24.356c0-0.306-0.206-0.5-0.438-0.706zM24.144 9.831c0 1.238-1.044 2.275-2.281 2.275s-2.281-1.037-2.281-2.275v-1.95h4.563v1.95zM18.281 9.831c0 1.238-1.044 2.275-2.281 2.275s-2.281-1.037-2.281-2.275v-1.95h4.563v1.95zM12.419 9.831c0 1.238-1.044 2.275-2.281 2.275s-2.281-1.037-2.281-2.275v-1.95h4.563v1.95zM6.55 9.831c0 1.238-1.044 2.275-2.281 2.275s-2.281-1.037-2.281-2.275v-1.95h4.563v1.95zM17.044 2.419l1.025 4.162h-4.15l0.981-4.162h2.144zM20.494 2.419l3.012 4.162h-4.069l-0.619-2.5-0.4-1.663h2.075zM12.537 6.581h-4.050l3.012-4.162h2.019l-0.981 4.162zM25.45 7.881h4.563v1.95c0 1.238-1.044 2.275-2.281 2.275s-2.281-1.037-2.281-2.275v-1.95zM28.825 6.581h-3.712l-3.012-4.162h1.725l5 4.162zM8.181 2.419h1.725l-2.994 4.162h-3.737l5.006-4.162zM25.331 30.381v-6.894c0-2.669-2.275-4.813-5.006-4.813-2.794 0-5.006 2.144-5.006 4.813v6.956h-13.331v-17.875c0.625 0.519 1.419 0.838 2.281 0.838 1.2 0 2.281-0.613 2.931-1.544 0.65 0.925 1.731 1.544 2.931 1.544s2.281-0.613 2.931-1.544c0.65 0.925 1.731 1.544 2.931 1.544s2.281-0.613 2.931-1.544c0.65 0.925 1.731 1.544 2.931 1.544s2.281-0.613 2.931-1.544c0.65 0.925 1.731 1.544 2.931 1.544 0.863 0 1.663-0.319 2.281-0.838v17.806h-4.669z"></path>
</svg>
