<!-- Generated by IcoMoon.io -->
<svg version="1.1" xmlns="http://www.w3.org/2000/svg" width="32" height="32" viewBox="0 0 32 32">
<path d="M30.875 6.6l-6.469-5.381c-0.094-0.069-0.262-0.131-0.394-0.131h-16.094c-0.131 0-0.287 0.044-0.394 0.131l-6.381 5.369c-0.3 0.206-0.456 0.481-0.456 0.819v24.306h30.625v-24.337c0-0.306-0.194-0.556-0.438-0.775zM24.144 9.819c0 1.238-1.044 2.281-2.281 2.281s-2.281-1.044-2.281-2.281v-1.956h4.563v1.956zM18.281 9.819c0 1.238-1.044 2.281-2.281 2.281s-2.281-1.044-2.281-2.281v-1.956h4.563v1.956zM12.419 9.819c0 1.238-1.044 2.281-2.281 2.281s-2.281-1.044-2.281-2.281v-1.956h4.563v1.956zM17.044 2.394l1.025 4.169h-4.15l0.981-4.169h2.144zM20.494 2.394l3.012 4.169h-4.069l-0.619-2.506-0.4-1.663h2.075zM12.537 6.563h-4.050l3.012-4.169h2.019l-0.981 4.169zM28.825 6.563h-3.712l-3.012-4.169h1.725l5 4.169zM8.181 2.394h1.725l-2.994 4.169h-3.737l5.006-4.169zM1.994 7.862h4.563v1.956c0 1.238-1.044 2.281-2.281 2.281s-2.281-1.044-2.281-2.281v-1.956zM1.994 30.406v-17.837c0.625 0.519 1.419 0.838 2.281 0.838 1.2 0 2.281-0.619 2.931-1.544 0.65 0.931 1.731 1.544 2.931 1.544s2.281-0.619 2.931-1.544c0.65 0.931 1.731 1.544 2.931 1.544s2.281-0.619 2.931-1.544c0.65 0.931 1.731 1.544 2.931 1.544s2.281-0.619 2.931-1.544c0.65 0.931 1.731 1.544 2.931 1.544 0.863 0 1.656-0.319 2.281-0.838v17.844h-28.012zM30.006 9.813c0 1.238-1.044 2.281-2.281 2.281s-2.281-1.044-2.281-2.281v-1.956h4.563v1.956zM1.406 21.35h29.319v1.306h-29.319v-1.306z"></path>
</svg>
