<!-- Generated by IcoMoon.io -->
<svg version="1.1" xmlns="http://www.w3.org/2000/svg" width="32" height="32" viewBox="0 0 32 32">
<path d="M28.8 15.2v-1.6c0-0.124-0.029-0.247-0.084-0.358l-3.2-6.4c-0.136-0.271-0.413-0.442-0.716-0.442h-19.2c-0.303 0-0.58 0.171-0.716 0.442l-3.2 6.4c-0.056 0.111-0.084 0.234-0.084 0.358v1.6c0 1.306 0.629 2.467 1.6 3.198v10.402h-0.8c-0.442 0-0.8 0.358-0.8 0.8s0.358 0.8 0.8 0.8h25.6c0.442 0 0.8-0.358 0.8-0.8s-0.358-0.8-0.8-0.8h-0.8v-10.402c0.971-0.73 1.6-1.892 1.6-3.198zM18.4 17.6c-1.323 0-2.4-1.077-2.4-2.4v-0.8h4.8v0.8c0 1.323-1.077 2.4-2.4 2.4zM3.2 15.2v-0.8h4.8v0.8c0 1.323-1.077 2.4-2.4 2.4s-2.4-1.077-2.4-2.4zM14.4 8v4.8h-4.575l1.2-4.8h3.375zM19.375 8l1.2 4.8h-4.575v-4.8h3.375zM9.6 14.4h4.8v0.8c0 1.323-1.077 2.4-2.4 2.4s-2.4-1.077-2.4-2.4v-0.8zM22.4 14.4h4.8v0.8c0 1.323-1.077 2.4-2.4 2.4s-2.4-1.077-2.4-2.4v-0.8zM26.706 12.8h-4.481l-1.2-4.8h3.281l2.4 4.8zM6.094 8h3.281l-1.2 4.8h-4.481l2.4-4.8zM4.8 19.12c0.259 0.053 0.526 0.080 0.8 0.080 1.307 0 2.47-0.63 3.2-1.603 0.73 0.973 1.893 1.603 3.2 1.603s2.47-0.63 3.2-1.603c0.577 0.769 1.425 1.324 2.4 1.522v9.681h-12.8v-9.68zM25.6 28.8h-6.4v-9.68c0.975-0.199 1.823-0.754 2.4-1.522 0.73 0.973 1.893 1.603 3.2 1.603 0.274 0 0.541-0.028 0.8-0.081v9.681zM22.4 23.2c0 0.442-0.358 0.8-0.8 0.8s-0.8-0.358-0.8-0.8c0-0.442 0.358-0.8 0.8-0.8s0.8 0.358 0.8 0.8zM7.2 24c-0.205 0-0.409-0.078-0.566-0.234-0.312-0.312-0.312-0.819 0-1.131l1.6-1.6c0.312-0.312 0.819-0.312 1.131 0s0.312 0.819 0 1.131l-1.6 1.6c-0.156 0.156-0.361 0.234-0.566 0.234zM8.8 27.2c-0.205 0-0.409-0.078-0.566-0.234-0.312-0.312-0.312-0.819 0-1.131l4.8-4.8c0.312-0.312 0.819-0.312 1.131 0s0.312 0.819 0 1.131l-4.8 4.8c-0.156 0.156-0.361 0.234-0.566 0.234zM13.6 27.2c-0.205 0-0.409-0.078-0.566-0.234-0.312-0.312-0.312-0.819 0-1.131l1.6-1.6c0.312-0.312 0.819-0.312 1.131 0s0.312 0.819 0 1.131l-1.6 1.6c-0.156 0.156-0.361 0.234-0.566 0.234z"></path>
</svg>
