<!-- Generated by IcoMoon.io -->
<svg version="1.1" xmlns="http://www.w3.org/2000/svg" width="32" height="32" viewBox="0 0 32 32">
<path d="M26.4 3.2h-22.4c-0.442 0-0.8 0.358-0.8 0.8s0.358 0.8 0.8 0.8h10.4v7.2c0 0.442 0.358 0.8 0.8 0.8s0.8-0.358 0.8-0.8v-7.2h10.4c0.442 0 0.8-0.358 0.8-0.8s-0.358-0.8-0.8-0.8zM15.2 28.8c-0.442 0-0.8-0.358-0.8-0.8v-6.4c0-0.442 0.358-0.8 0.8-0.8s0.8 0.358 0.8 0.8v6.4c0 0.442-0.358 0.8-0.8 0.8zM29.6 19.2h-28.8c-0.442 0-0.8-0.358-0.8-0.8v-3.2c0-0.442 0.358-0.8 0.8-0.8h28.8c0.442 0 0.8 0.358 0.8 0.8v3.2c0 0.442-0.358 0.8-0.8 0.8zM1.6 17.6h27.2v-1.6h-27.2v1.6z"></path>
</svg>
