<!-- Generated by IcoMoon.io -->
<svg version="1.1" xmlns="http://www.w3.org/2000/svg" width="32" height="32" viewBox="0 0 32 32">
<path d="M25.438 21.125c0 0.517-0.421 0.938-0.938 0.938s-0.938-0.421-0.938-0.938v-5.418l-3.822 1.274-2.741-1.37v5.514c0 4.136 3.364 7.5 7.5 7.5s7.5-3.364 7.5-7.5v-4.219h-6.563zM27.313 21.125v-2.344h2.813v2.344c0 3.102-2.523 5.625-5.625 5.625s-5.625-2.523-5.625-5.625v-2.481l0.722 0.361 2.091-0.697v2.817c0 1.551 1.262 2.813 2.813 2.813s2.813-1.262 2.813-2.813z"></path>
<path d="M15 21.125v-10.313c0-0.499 0.467-0.938 1-0.938s1 0.438 1 0.938v2.702l2.884 1.443 3.678-1.226v-2.918c0-4.137-3.42-7.5-7.563-7.5-4.137 0-7.563 3.357-7.563 7.5v10.313c0 0.517-0.421 0.938-0.938 0.938s-0.938-0.421-0.938-0.938v-4.219h-6.563v4.219c0 4.136 3.365 7.5 7.5 7.5s7.5-3.364 7.5-7.5zM1.875 21.125v-2.344h2.813v2.344c0 1.551 1.262 2.813 2.813 2.813s2.813-1.262 2.813-2.813v-10.313c0-3.102 2.551-5.625 5.688-5.625s5.688 2.523 5.688 5.625v1.567l-1.659 0.553-1.153-0.577v-1.543c0-1.525-1.317-2.813-2.875-2.813s-2.875 1.288-2.875 2.813v10.313c0 3.102-2.523 5.625-5.625 5.625s-5.625-2.523-5.625-5.625z"></path>
</svg>
