<!-- Generated by IcoMoon.io -->
<svg version="1.1" xmlns="http://www.w3.org/2000/svg" width="32" height="32" viewBox="0 0 32 32">
<path d="M16 2.133c-4.117 0-7.467 3.349-7.467 7.467v12.8c0 0.587-0.478 1.067-1.067 1.067s-1.067-0.48-1.067-1.067v-5.333h-6.4v5.333c0 4.117 3.349 7.467 7.467 7.467s7.467-3.349 7.467-7.467v-12.8c0-0.589 0.478-1.067 1.067-1.067s1.067 0.478 1.067 1.067v4.051l3.2 2.133 3.2-2.133v-4.051c0-4.117-3.349-7.467-7.467-7.467z"></path>
<path d="M25.6 17.067v5.333c0 0.587-0.48 1.067-1.067 1.067s-1.067-0.48-1.067-1.067v-6.185l-2.609 1.739c-0.179 0.119-0.384 0.179-0.591 0.179s-0.412-0.060-0.591-0.179l-2.609-1.739v6.185c0 4.117 3.349 7.467 7.467 7.467s7.467-3.349 7.467-7.467v-5.333h-6.4z"></path>
</svg>
