<!-- Generated by IcoMoon.io -->
<svg version="1.1" xmlns="http://www.w3.org/2000/svg" width="30" height="32" viewBox="0 0 30 32">
<path d="M29.037 3.496h-18.548c-0.356 0-0.593-0.237-0.593-0.593s0.237-0.593 0.593-0.593h18.548c0.356 0 0.593 0.237 0.593 0.593s-0.237 0.593-0.593 0.593z"></path>
<path d="M29.037 12.148h-18.548c-0.356 0-0.593-0.237-0.593-0.593s0.237-0.593 0.593-0.593h18.548c0.356 0 0.593 0.237 0.593 0.593s-0.237 0.593-0.593 0.593z"></path>
<path d="M29.037 20.8h-18.548c-0.356 0-0.593-0.237-0.593-0.593s0.237-0.593 0.593-0.593h18.548c0.356 0 0.593 0.237 0.593 0.593s-0.237 0.593-0.593 0.593z"></path>
<path d="M20.8 29.452h-10.311c-0.356 0-0.593-0.237-0.593-0.593s0.237-0.593 0.593-0.593h10.37c0.356 0 0.593 0.237 0.593 0.593s-0.296 0.593-0.652 0.593z"></path>
<path d="M4.030 5.807h-2.193c-1.244 0-1.837-0.593-1.837-1.778v-2.193c0-1.244 0.593-1.837 1.837-1.837h2.193c1.185 0 1.837 0.593 1.837 1.837v2.193c-0.059 1.185-0.652 1.778-1.837 1.778zM1.837 1.185c-0.593 0-0.652 0.059-0.652 0.652v2.193c0 0.533 0.059 0.652 0.652 0.652h2.193c0.533 0 0.652-0.059 0.652-0.652v-2.193c-0.059-0.593-0.119-0.652-0.652-0.652h-2.193z"></path>
<path d="M4.030 14.459h-2.193c-1.185 0-1.837-0.593-1.837-1.837v-2.193c0-1.185 0.593-1.837 1.837-1.837h2.193c1.185 0 1.837 0.593 1.837 1.837v2.193c-0.059 1.244-0.652 1.837-1.837 1.837zM1.837 9.837c-0.533 0-0.652 0.059-0.652 0.652v2.193c0 0.533 0.059 0.652 0.652 0.652h2.193c0.533 0 0.652-0.059 0.652-0.652v-2.193c0-0.533-0.059-0.652-0.652-0.652h-2.193z"></path>
<path d="M4.030 23.111h-2.193c-1.244 0-1.837-0.593-1.837-1.837v-2.193c0-1.185 0.593-1.778 1.837-1.778h2.193c1.185 0 1.837 0.593 1.837 1.778v2.252c-0.059 1.185-0.652 1.778-1.837 1.778zM1.837 18.489c-0.533 0-0.652 0.059-0.652 0.593v2.193c0 0.593 0.059 0.652 0.652 0.652h2.193c0.533 0 0.652-0.059 0.652-0.593v-2.193c0-0.533-0.059-0.593-0.652-0.593h-2.193z"></path>
<path d="M4.030 31.763h-2.193c-1.185 0-1.837-0.593-1.837-1.837v-2.193c0-1.185 0.593-1.837 1.837-1.837h2.193c1.185 0 1.837 0.593 1.837 1.837v2.193c-0.059 1.244-0.652 1.837-1.837 1.837zM1.837 27.081c-0.533 0-0.652 0.059-0.652 0.652v2.193c0 0.533 0.059 0.652 0.652 0.652h2.193c0.533 0 0.652-0.059 0.652-0.652v-2.193c0-0.533-0.059-0.652-0.652-0.652h-2.193z"></path>
</svg>
