<!-- Generated by IcoMoon.io -->
<svg version="1.1" xmlns="http://www.w3.org/2000/svg" width="35" height="32" viewBox="0 0 35 32">
<path d="M30.751 8.273h-2.81c-0.234 0-0.39 0.156-0.39 0.39s0.156 0.39 0.39 0.39h2.81c1.717 0 3.122 1.405 3.122 3.122v15.922c0 1.717-1.405 3.122-3.122 3.122h-26.849c-1.717 0-3.122-1.405-3.122-3.122v-16c0-1.717 1.405-3.122 3.122-3.122h4.683c0.312 4.293 3.98 7.727 8.351 7.727 4.605 0 8.351-3.746 8.351-8.351s-3.824-8.351-8.429-8.351c-4.527 0-8.273 3.668-8.351 8.273h-4.605c-2.107 0-3.902 1.717-3.902 3.902v15.922c0 2.107 1.717 3.902 3.902 3.902h26.927c2.107 0 3.902-1.717 3.902-3.902v-16c-0.078-2.107-1.795-3.824-3.98-3.824zM16.859 0.78c4.215 0 7.571 3.434 7.571 7.571s-3.434 7.571-7.571 7.571c-4.215 0-7.571-3.434-7.571-7.571s3.434-7.571 7.571-7.571z"></path>
<path d="M30.439 13.893c0.156-0.156 0.156-0.39 0.078-0.546-0.156-0.156-0.39-0.156-0.546-0.078l-8.273 7.024c-2.576 2.185-5.776 2.185-8.429 0.078l-8.585-7.024c-0.156-0.156-0.39-0.078-0.546 0.078s-0.078 0.39 0.078 0.546l8.585 6.946-8.585 6.946c-0.156 0.156-0.156 0.39-0.078 0.546 0.078 0.078 0.156 0.156 0.312 0.156 0.078 0 0.156 0 0.234-0.078l8.663-7.024 0.078-0.078c1.249 0.859 2.654 1.327 4.059 1.327s2.81-0.468 4.059-1.327c0.078 0.078 0.078 0.078 0.156 0.156l8.273 6.946c0.078 0.078 0.156 0.078 0.234 0.078s0.234-0.078 0.312-0.156c0.156-0.156 0.156-0.39-0.078-0.546l-8.273-6.946c0 0 0 0 0 0s0 0 0 0l8.273-7.024z"></path>
<path d="M14.517 11.083c0.234 0.312 0.546 0.468 0.937 0.468 0 0 0 0 0.078 0 0.312 0 0.702-0.156 0.937-0.39l4.683-4.683c0.156-0.156 0.156-0.39 0-0.546s-0.39-0.156-0.546 0l-4.683 4.683c-0.078 0.078-0.234 0.156-0.39 0.156s-0.312-0.078-0.39-0.156l-1.561-1.873c-0.156-0.156-0.39-0.156-0.546-0.078-0.156 0.156-0.156 0.39-0.078 0.546l1.561 1.873z"></path>
</svg>
