<!-- Generated by IcoMoon.io -->
<svg version="1.1" xmlns="http://www.w3.org/2000/svg" width="32" height="32" viewBox="0 0 32 32">
<path d="M28.706 4.669h-6.844v-1.106c0-1.369-1.044-2.475-2.413-2.475h-6.969c-1.306 0-2.412 1.106-2.412 2.475v1.106h-6.775c-1.431 0-2.606 1.175-2.606 2.606v21.831c0 1.431 1.175 2.606 2.606 2.606h25.413c1.431 0 2.606-1.175 2.606-2.606v-21.831c0-1.431-1.175-2.606-2.606-2.606zM11.375 3.563c0-0.65 0.519-1.175 1.175-1.175h6.906c0.65 0 1.175 0.519 1.175 1.175v1.106h-9.256v-1.106zM3.294 5.975h25.413c0.719 0 1.306 0.588 1.306 1.306v6.088l-10.744 6.356c-0.469-1.356-1.762-2.344-3.269-2.344s-2.806 0.994-3.269 2.356l-10.738-6.375v-6.088c0-0.713 0.581-1.3 1.3-1.3zM18.15 20.831c0 1.238-0.975 2.212-2.15 2.212s-2.15-0.975-2.15-2.212 0.975-2.212 2.15-2.212 2.15 0.975 2.15 2.212zM28.706 30.406h-25.413c-0.719 0-1.306-0.587-1.306-1.306v-14.225l10.575 6.275c0.162 1.744 1.656 3.137 3.438 3.137 1.787 0 3.281-1.4 3.438-3.15l10.569-6.256v14.225c0 0.719-0.581 1.3-1.3 1.3z"></path>
</svg>
