<!-- Generated by IcoMoon.io -->
<svg version="1.1" xmlns="http://www.w3.org/2000/svg" width="32" height="32" viewBox="0 0 32 32">
<path d="M15.2 23.988c-3.964 0-7.188-3.225-7.188-7.188s3.225-7.188 7.188-7.188 7.188 3.225 7.188 7.188-3.225 7.188-7.188 7.188zM15.2 11.212c-3.081 0-5.588 2.507-5.588 5.588s2.507 5.588 5.588 5.588 5.588-2.507 5.588-5.588-2.507-5.588-5.588-5.588zM15.2 8c-0.442 0-0.8-0.358-0.8-0.8v-4.8c0-0.442 0.358-0.8 0.8-0.8s0.8 0.358 0.8 0.8v4.8c0 0.442-0.358 0.8-0.8 0.8zM15.2 32c-0.442 0-0.8-0.358-0.8-0.8v-4.8c0-0.442 0.358-0.8 0.8-0.8s0.8 0.358 0.8 0.8v4.8c0 0.442-0.358 0.8-0.8 0.8zM5.6 17.6h-4.8c-0.442 0-0.8-0.358-0.8-0.8s0.358-0.8 0.8-0.8h4.8c0.442 0 0.8 0.358 0.8 0.8s-0.358 0.8-0.8 0.8zM29.6 17.6h-4.8c-0.442 0-0.8-0.358-0.8-0.8s0.358-0.8 0.8-0.8h4.8c0.442 0 0.8 0.358 0.8 0.8s-0.358 0.8-0.8 0.8zM7.2 9.6c-0.205 0-0.409-0.078-0.566-0.234l-3.2-3.2c-0.312-0.312-0.312-0.819 0-1.131s0.819-0.312 1.131 0l3.2 3.2c0.312 0.312 0.312 0.819 0 1.131-0.156 0.156-0.361 0.234-0.566 0.234zM4 28.8c-0.205 0-0.409-0.078-0.566-0.234-0.312-0.312-0.312-0.819 0-1.131l3.2-3.2c0.312-0.312 0.819-0.312 1.131 0s0.312 0.819 0 1.131l-3.2 3.2c-0.156 0.156-0.361 0.234-0.566 0.234zM26.4 28.8c-0.205 0-0.409-0.078-0.566-0.234l-3.2-3.2c-0.312-0.312-0.312-0.819 0-1.131s0.819-0.312 1.131 0l3.2 3.2c0.312 0.312 0.312 0.819 0 1.131-0.156 0.156-0.361 0.234-0.566 0.234zM23.2 9.6c-0.205 0-0.409-0.078-0.566-0.234-0.312-0.312-0.312-0.819 0-1.131l3.2-3.2c0.312-0.312 0.819-0.312 1.131 0s0.312 0.819 0 1.131l-3.2 3.2c-0.156 0.156-0.361 0.234-0.566 0.234z"></path>
</svg>
