<!-- Generated by IcoMoon.io -->
<svg version="1.1" xmlns="http://www.w3.org/2000/svg" width="32" height="32" viewBox="0 0 32 32">
<path d="M11.15 32c-0.189 0-0.315-0.063-0.441-0.189l-2.583-2.583h-3.717c-2.394 0-4.409-1.953-4.409-4.346 0 0 0 0 0 0v-9.638c0-2.394 1.953-4.346 4.346-4.346h6.299c0.315 0 0.63 0.252 0.63 0.63s-0.252 0.63-0.63 0.63h-6.299c-1.701 0-3.15 1.386-3.15 3.15v9.638c0 1.701 1.386 3.15 3.15 3.15h4.031c0.252 0 0.504 0.126 0.567 0.378l1.512 1.512v-1.26c0-0.315 0.252-0.63 0.63-0.63h6.74c1.701 0 3.15-1.386 3.15-3.15v-4.283c0-0.315 0.252-0.63 0.63-0.63 0.315 0 0.63 0.252 0.63 0.63v4.283c0 2.394-1.953 4.346-4.346 4.346h-6.11v2.142c0 0.252-0.126 0.504-0.378 0.567-0.126 0-0.189 0-0.252 0z"></path>
<path d="M27.968 20.409c-0.189 0-0.315-0.063-0.441-0.189l-2.331-2.331c-0.756 0.189-1.512 0.315-2.331 0.315h-1.575c-5.039 0.126-9.197-3.78-9.323-8.819s3.78-9.197 8.819-9.323c0.189 0 0.378 0 0.504 0h1.575c5.039 0 9.071 4.095 9.071 9.071 0 1.449-0.315 2.835-1.008 4.095-0.567 1.134-1.386 2.142-2.394 2.961v3.591c0 0.252-0.126 0.504-0.378 0.567 0 0.063-0.063 0.063-0.189 0.063zM25.386 16.567c0.189 0 0.315 0.063 0.441 0.189l1.512 1.512v-2.394c0-0.189 0.063-0.378 0.252-0.504 3.465-2.583 4.157-7.496 1.512-10.961-1.449-1.953-3.78-3.087-6.236-3.15h-1.575c-4.283-0.315-8.063 2.898-8.378 7.244-0.315 4.283 2.898 8.063 7.244 8.378 0.378 0 0.819 0 1.197 0h1.575c0.756 0 1.575-0.126 2.331-0.315 0 0 0.063 0 0.126 0z"></path>
<path d="M22.299 11.717c-0.315 0-0.63-0.252-0.63-0.63v0-1.512c0-0.567 0.378-1.071 0.945-1.134 0.756-0.189 1.197-0.945 1.008-1.701-0.126-0.567-0.63-1.008-1.26-1.071-0.756-0.063-1.449 0.567-1.512 1.323 0 0 0 0.063 0 0.063 0 0.315-0.252 0.63-0.63 0.63-0.315 0-0.63-0.252-0.63-0.63 0-1.449 1.197-2.646 2.646-2.646s2.646 1.197 2.646 2.646c0 1.197-0.819 2.268-2.016 2.583v1.512c0.063 0.315-0.252 0.567-0.567 0.567zM22.299 14.173c-0.189 0-0.315-0.063-0.441-0.189s-0.189-0.252-0.189-0.441c0-0.189 0.063-0.315 0.189-0.441 0.252-0.252 0.63-0.252 0.882 0 0.126 0.126 0.189 0.252 0.189 0.441s-0.063 0.315-0.189 0.441c-0.126 0.126-0.252 0.189-0.441 0.189zM17.197 20.598h-13.228c-0.315-0.063-0.567-0.315-0.567-0.693 0.063-0.315 0.252-0.504 0.567-0.567h13.165c0.315-0.063 0.63 0.189 0.693 0.567 0.063 0.315-0.189 0.63-0.567 0.693 0 0.063-0.063 0.063-0.063 0zM17.197 24.126c-0.189 0-0.315-0.063-0.441-0.189s-0.189-0.252-0.189-0.441c0-0.189 0.063-0.315 0.189-0.441 0.252-0.252 0.63-0.252 0.882 0 0.126 0.126 0.189 0.252 0.189 0.441s-0.063 0.315-0.189 0.441c-0.126 0.126-0.315 0.189-0.441 0.189zM14.74 24.126h-10.709c-0.315 0-0.63-0.252-0.63-0.63 0-0.315 0.252-0.63 0.63-0.63v0h10.709c0.315 0 0.63 0.252 0.63 0.63s-0.315 0.63-0.63 0.63zM13.102 17.134h-9.134c-0.315 0-0.63-0.252-0.63-0.63s0.252-0.63 0.63-0.63v0h9.134c0.315 0 0.63 0.252 0.63 0.63s-0.252 0.63-0.63 0.63z"></path>
</svg>
