<!-- Generated by IcoMoon.io -->
<svg version="1.1" xmlns="http://www.w3.org/2000/svg" width="32" height="32" viewBox="0 0 32 32">
<path d="M27.429 12.714c0-6.343-5.114-11.457-11.429-11.457s-11.429 5.114-11.429 11.429c0 0 0 0 0 0.029-2.543 0.143-4.571 2.257-4.571 4.829v0.571c0 2.686 2.171 4.857 4.857 4.857h0.257l2.029 3.229c1.429 2.286 3.857 3.629 6.543 3.629h0.4c0.257 0.971 1.143 1.714 2.2 1.714 1.257 0 2.286-1.029 2.286-2.286s-1.029-2.286-2.286-2.286c-1.057 0-1.943 0.743-2.2 1.714h-0.4c-2.286 0-4.371-1.171-5.571-3.114l-1.657-2.6h0.4c0.629 0 1.143-0.514 1.143-1.143v-8c0-0.629-0.514-1.143-1.143-1.143h-1.143c0-5.686 4.6-10.286 10.286-10.286s10.286 4.6 10.286 10.286h-1.143c-0.629 0-1.143 0.514-1.143 1.143v8c0 0.629 0.514 1.143 1.143 1.143h2c2.686 0 4.857-2.171 4.857-4.857v-0.571c0-2.571-2.029-4.686-4.571-4.829zM16.286 28.114c0.629 0 1.143 0.514 1.143 1.143s-0.514 1.143-1.143 1.143-1.143-0.514-1.143-1.143 0.514-1.143 1.143-1.143zM6.857 13.829v8h-2c-2.057 0-3.714-1.657-3.714-3.714v-0.571c0-2.057 1.657-3.714 3.714-3.714h2zM30.857 18.114c0 2.057-1.657 3.714-3.714 3.714h-2v-8h2c2.057 0 3.714 1.657 3.714 3.714v0.571zM20.743 5.571c-0.057-0.029-0.143-0.086-0.229-0.143s-0.171-0.114-0.229-0.143c-0.257-0.171-0.629-0.086-0.771 0.2s-0.086 0.6 0.2 0.771c0.057 0.029 0.143 0.086 0.229 0.143s0.171 0.114 0.257 0.143c0.086 0.057 0.2 0.086 0.286 0.086 0.2 0 0.371-0.086 0.486-0.286 0.143-0.257 0.057-0.6-0.229-0.771zM16 4.114c-2.429 0-4.714 1.057-6.286 2.886-0.2 0.229-0.171 0.6 0.057 0.8 0.114 0.086 0.229 0.143 0.371 0.143 0.171 0 0.314-0.057 0.429-0.2 1.371-1.571 3.343-2.486 5.429-2.486 0.514 0 1.029 0.057 1.543 0.171 0.314 0.057 0.6-0.143 0.686-0.429s-0.143-0.6-0.429-0.686c-0.6-0.143-1.2-0.2-1.8-0.2z"></path>
</svg>
