<!-- Generated by IcoMoon.io -->
<svg version="1.1" xmlns="http://www.w3.org/2000/svg" width="32" height="32" viewBox="0 0 32 32">
<path d="M28.5 11.5h-1.512c-0.288-5.845-5.097-10.476-10.988-10.476s-10.7 4.63-10.986 10.45l-0.001 0.026h-1.513c-1.38 0.002-2.498 1.12-2.5 2.5v4c0.002 1.38 1.12 2.498 2.5 2.5h2c0.828 0 1.5-0.672 1.5-1.5v0-6c-0.003-0.639-0.405-1.183-0.969-1.397l-0.010-0.003c0.214-5.347 4.6-9.6 9.98-9.6s9.766 4.253 9.979 9.581l0.001 0.019c-0.575 0.217-0.977 0.761-0.98 1.4v6c0.003 0.647 0.414 1.197 0.99 1.405l0.010 0.003v1.592c-0.006 3.437-2.677 6.249-6.058 6.477l-0.020 0.001c-0.237-0.856-1.007-1.475-1.922-1.479h-4c-1.105 0-2 0.895-2 2s0.895 2 2 2v0h4c0.932-0.003 1.714-0.643 1.933-1.508l0.003-0.014c3.946-0.238 7.057-3.494 7.064-7.477v-1.501h1.5c1.38-0.002 2.498-1.12 2.5-2.5v-4c-0.002-1.38-1.12-2.498-2.5-2.5h-0zM4 19.5h-0.5c-0.828 0-1.5-0.672-1.5-1.5v0-4c0-0.828 0.672-1.5 1.5-1.5v0h0.5zM6 19c0 0.276-0.224 0.5-0.5 0.5v0h-0.5v-7h0.5c0.276 0 0.5 0.224 0.5 0.5v0zM18 30h-4c-0.552 0-1-0.448-1-1s0.448-1 1-1v0h4c0.552 0 1 0.448 1 1s-0.448 1-1 1v0zM27 19.5h-0.5c-0.276 0-0.5-0.224-0.5-0.5v0-6c0-0.276 0.224-0.5 0.5-0.5v0h0.5zM30 18c0 0.828-0.672 1.5-1.5 1.5v0h-0.5v-7h0.5c0.828 0 1.5 0.672 1.5 1.5v0z"></path>
<path d="M23 16c0-3.866-3.134-7-7-7s-7 3.134-7 7c0 3.866 3.134 7 7 7v0c3.864-0.004 6.996-3.136 7-7v-0zM10 16c0-3.314 2.686-6 6-6s6 2.686 6 6c0 3.314-2.686 6-6 6v0c-3.312-0.004-5.996-2.688-6-6v-0z"></path>
<path d="M19.854 12.854l-0.707-0.707-3.146 3.146-1.646-1.646-0.707 0.707 2.354 2.354 3.854-3.854z"></path>
</svg>
