<!-- Generated by IcoMoon.io -->
<svg version="1.1" xmlns="http://www.w3.org/2000/svg" width="32" height="32" viewBox="0 0 32 32">
<path d="M28.505 13.789c-2.59-2.083-4.162-1.761-5.024-1.124-1.549 1.145-1.672 4.089-0.313 7.501 0.896 2.25 2.154 3.99 3.845 5.322l0.002 0.001c1.47 1.152 3.598 0.584 4.262-0.952 1.609-3.719 0.469-8.139-2.771-10.749zM29.556 23.794c-0.176 0.407-0.883 0.614-1.385 0.22-1.424-1.122-2.491-2.608-3.261-4.542-1.161-2.916-0.874-4.886-0.315-5.3 0.336-0.248 1.254-0.115 2.735 1.076 2.586 2.083 3.501 5.596 2.226 8.545z"></path>
<path d="M16.289 12.377l0.919-0.39-0.443-0.883c-0.006-0.013-0.013-0.027-0.019-0.039-2.43-4.919-6.84-7.496-10.966-7.496-2.386 0-4.907 0.796-5.613 3.084-0.607 1.967 0.472 4.24 2.748 5.792 3.813 2.602 9.163 1.72 13.374-0.067zM3.972 10.896l-0.001-0c-1.558-1.062-2.367-2.544-2.013-3.691 0.34-1.103 1.769-1.762 3.822-1.762 2.763 0 6.437 1.488 8.822 5.587-2.595 0.96-7.287 2.147-10.629-0.134z"></path>
<path d="M20.666 13.641l0.562-1.784-1.766 0.618c-2.134 0.747-3.669 2.012-4.562 3.76-0.773 1.514-1.008 3.333-0.68 5.26 0.369 2.171 1.447 4.362 2.957 6.010 1.649 1.8 3.639 2.791 5.605 2.791 1.36 0 2.731-0.38 4.075-1.13l1.6-0.893-1.66-0.775c-4.019-1.877-7.456-9.647-6.131-13.858zM22.782 28.422c-2.92 0-6.057-3.384-6.713-7.24-0.231-1.36-0.37-4.406 2.471-6.203-0.138 2.106 0.361 4.642 1.442 7.137 1.128 2.604 2.679 4.728 4.402 6.074-0.538 0.155-1.073 0.232-1.601 0.232z"></path>
<path d="M19.224 2.559c-2.36 2.008-2.449 5.197-1.361 8.085l0.361 0.958 0.923-0.444c3.022-1.455 4.821-3.588 5.066-6.006 0.221-2.216-0.894-3.051-1.384-3.307-1.058-0.553-2.439-0.279-3.605 0.715zM22.348 4.964c-0.189 1.868-1.727 3.185-3.052 3.985-0.357-1.442-0.496-3.568 1.144-4.963l0.001-0.001c0.401-0.342 1.090-0.705 1.52-0.48 0.317 0.166 0.462 0.712 0.388 1.458z"></path>
<path d="M12.697 21.097l-0.345-2.736-1.394 2.379c-1.039 1.774-1.945 3.675-2.693 5.649-0.275 0.725 0.063 1.462 0.806 1.755 1.903 0.741 3.9 1.334 5.936 1.762l2.68 0.563-1.773-2.087c-1.816-2.138-2.868-4.521-3.217-7.286zM10.205 26.571c0.356-0.902 0.747-1.786 1.17-2.647 0.37 1.25 0.891 2.427 1.569 3.545-0.93-0.264-1.845-0.564-2.739-0.897z"></path>
</svg>
