<!-- Generated by IcoMoon.io -->
<svg version="1.1" xmlns="http://www.w3.org/2000/svg" width="32" height="32" viewBox="0 0 32 32">
<path d="M31.766 13.834c-0.312-0.312-0.819-0.312-1.131 0l-1.838 1.838c-0.082-3.296-1.405-6.383-3.745-8.724-2.418-2.418-5.632-3.749-9.051-3.749-4.759 0-9.098 2.616-11.323 6.826-0.206 0.391-0.057 0.875 0.333 1.081s0.875 0.057 1.081-0.333c1.948-3.685 5.745-5.974 9.909-5.974 6.063 0 11.016 4.843 11.194 10.863l-1.829-1.829c-0.312-0.312-0.819-0.312-1.131 0s-0.312 0.819 0 1.131l3.2 3.2c0.156 0.156 0.361 0.234 0.566 0.234s0.409-0.078 0.566-0.234l3.2-3.2c0.312-0.312 0.312-0.819 0-1.131zM26.99 20.893c-0.391-0.206-0.875-0.057-1.081 0.333-1.948 3.685-5.745 5.974-9.909 5.974-6.063 0-11.016-4.843-11.194-10.863l1.829 1.829c0.156 0.156 0.361 0.234 0.566 0.234s0.409-0.078 0.566-0.234c0.312-0.312 0.312-0.819 0-1.131l-3.2-3.2c-0.312-0.312-0.819-0.312-1.131 0l-3.2 3.2c-0.312 0.312-0.312 0.819 0 1.131s0.819 0.312 1.131 0l1.838-1.838c0.082 3.297 1.405 6.383 3.745 8.724 2.418 2.418 5.632 3.749 9.051 3.749 4.759 0 9.098-2.616 11.323-6.826 0.206-0.391 0.057-0.875-0.333-1.081z"></path>
</svg>
