<!-- Generated by IcoMoon.io -->
<svg version="1.1" xmlns="http://www.w3.org/2000/svg" width="37" height="32" viewBox="0 0 37 32">
<path d="M32.624 22.556v-14.127c0-1.717-1.405-3.122-3.122-3.122h-4.683c-0.78 0-1.405-0.624-1.405-1.405v-0.468c0-1.327-1.093-2.498-2.498-2.498h-4.761c-0.078 0-0.156 0-0.156 0.078-0.156 0-0.312-0.078-0.39-0.078h-4.761c-0.078 0-0.078 0-0.156 0-0.546-0.546-1.249-0.937-2.107-0.937h-5.698c-1.561 0-2.888 1.327-2.888 2.888v22.478c0 1.717 1.405 3.122 3.122 3.122h24.507c0.546 2.029 2.341 3.512 4.605 3.512 2.576 0 4.761-2.107 4.761-4.761-0.078-2.419-1.951-4.449-4.371-4.683zM22.712 3.434v0.546c0 0.546 0.156 1.015 0.468 1.405h-3.668c-0.78 0-1.405-0.624-1.405-1.405v-0.546c0-0.624-0.234-1.249-0.702-1.717h3.59c0.937 0 1.717 0.78 1.717 1.717zM15.61 1.717c0.937 0 1.717 0.78 1.717 1.717v0.546c0 0.546 0.156 1.015 0.468 1.405h-4.605c-0.937 0-1.717-0.78-1.717-1.717v-0.78c0-0.468-0.078-0.859-0.234-1.171h4.371zM3.122 27.707c-1.327 0-2.341-1.015-2.341-2.341v-14.595h19.98c0.234 0 0.39-0.156 0.39-0.39s-0.156-0.39-0.39-0.39h-19.98v-7.102c0-1.171 0.937-2.107 2.107-2.107h5.698c1.171 0 2.107 0.937 2.107 2.107v0.702c0 1.405 1.093 2.498 2.498 2.498h16.312c1.327 0 2.341 1.015 2.341 2.341v1.561h-7.649c-0.234 0-0.39 0.156-0.39 0.39s0.156 0.39 0.39 0.39h7.649v11.785c-2.419 0.234-4.371 2.263-4.371 4.683 0 0.156 0 0.312 0 0.39h-24.351zM32.234 31.22c-2.185 0-3.98-1.795-3.98-3.98s1.795-3.98 3.98-3.98 3.98 1.795 3.98 3.98-1.795 3.98-3.98 3.98z"></path>
<path d="M33.951 26.849h-1.327v-1.327c0-0.234-0.156-0.39-0.39-0.39s-0.39 0.156-0.39 0.39v1.327h-1.327c-0.234 0-0.39 0.156-0.39 0.39s0.156 0.39 0.39 0.39h1.327v1.327c0 0.234 0.156 0.39 0.39 0.39s0.39-0.156 0.39-0.39v-1.327h1.327c0.234 0 0.39-0.156 0.39-0.39s-0.234-0.39-0.39-0.39z"></path>
<path d="M7.337 4.527h-3.278c-0.234 0-0.39 0.156-0.39 0.39s0.156 0.39 0.39 0.39h3.278c0.234 0 0.39-0.156 0.39-0.39s-0.234-0.39-0.39-0.39z"></path>
<path d="M13.893 3.902h0.702c0.234 0 0.39-0.156 0.39-0.39s-0.156-0.39-0.39-0.39h-0.702c-0.234 0-0.39 0.156-0.39 0.39s0.156 0.39 0.39 0.39z"></path>
<path d="M19.902 3.902h0.702c0.234 0 0.39-0.156 0.39-0.39s-0.156-0.39-0.39-0.39h-0.702c-0.156 0-0.39 0.156-0.39 0.39s0.234 0.39 0.39 0.39z"></path>
<path d="M27.083 15.298h-11.707c-0.234 0-0.39 0.156-0.39 0.39s0.156 0.39 0.39 0.39h11.707c0.234 0 0.39-0.156 0.39-0.39s-0.156-0.39-0.39-0.39z"></path>
<path d="M26.927 18.498h-11.551c-0.234 0-0.39 0.156-0.39 0.39s0.156 0.39 0.39 0.39h11.551c0.234 0 0.39-0.156 0.39-0.39s-0.156-0.39-0.39-0.39z"></path>
<path d="M23.571 21.619h-8.195c-0.234 0-0.39 0.156-0.39 0.39s0.156 0.39 0.39 0.39h8.195c0.234 0 0.39-0.156 0.39-0.39s-0.156-0.39-0.39-0.39z"></path>
<path d="M11.551 14.439h-6.088c-0.78 0-1.327 0.624-1.327 1.327v6.088c0 0.78 0.624 1.327 1.327 1.327h6.088c0.78 0 1.327-0.624 1.327-1.327v-6.088c0-0.702-0.624-1.327-1.327-1.327zM12.098 21.932c0 0.312-0.234 0.546-0.546 0.546h-6.088c-0.312 0-0.546-0.234-0.546-0.546v-6.088c0-0.312 0.234-0.546 0.546-0.546h6.088c0.312 0 0.546 0.234 0.546 0.546v6.088z"></path>
</svg>
