<!-- Generated by IcoMoon.io -->
<svg version="1.1" xmlns="http://www.w3.org/2000/svg" width="32" height="32" viewBox="0 0 32 32">
<path d="M27.707 0h-15.063c-0.234 0-0.39 0.156-0.39 0.39s0.156 0.39 0.39 0.39h2.966v7.024h-14.829v-3.512c0-1.951 1.561-3.512 3.512-3.512h2.966c0.234 0 0.39-0.156 0.39-0.39s-0.156-0.39-0.39-0.39h-2.966c-2.341 0-4.293 1.951-4.293 4.293v23.337c0 2.341 1.951 4.293 4.293 4.293h3.824c0 0 0 0 0 0s0 0 0 0h7.727c0 0 0 0 0 0s0 0 0 0h7.727c0 0 0 0 0 0s0 0 0 0h3.824c2.341 0 4.293-1.951 4.293-4.293v-23.337c0.312-2.341-1.639-4.293-3.98-4.293zM16 28.41c-0.234 0-0.39 0.156-0.39 0.39v2.419h-7.024v-7.024h7.024v1.327c0 0.234 0.156 0.39 0.39 0.39s0.39-0.156 0.39-0.39v-1.327h7.024v7.024h-7.024v-2.419c0-0.156-0.156-0.39-0.39-0.39zM8.195 20.839c-0.234 0-0.39 0.156-0.39 0.39v2.185h-7.024v-7.024h7.024v1.483c0 0.234 0.156 0.39 0.39 0.39s0.39-0.156 0.39-0.39v-1.483h7.024v7.024h-7.024v-2.185c0-0.156-0.156-0.39-0.39-0.39zM16.39 23.415v-7.024h7.024v7.024h-7.024zM23.805 10.849c0.234 0 0.39-0.156 0.39-0.39v-1.873h7.024v7.024h-7.024v-1.795c0-0.234-0.156-0.39-0.39-0.39s-0.39 0.156-0.39 0.39v1.795h-7.024v-7.024h7.024v1.873c0 0.234 0.156 0.39 0.39 0.39zM24.195 16.39h7.024v7.024h-7.024v-7.024zM16.39 0.78h11.317c1.951 0 3.512 1.561 3.512 3.512v3.512h-14.829v-7.024zM15.61 15.61h-7.024v-7.024h7.024v7.024zM7.805 8.585v7.024h-7.024v-7.024h7.024zM0.78 27.707v-3.512h7.024v7.024h-3.512c-1.951 0-3.512-1.561-3.512-3.512zM27.707 31.22h-3.512v-7.024h7.024v3.512c0 1.951-1.561 3.512-3.512 3.512z"></path>
</svg>
