<!-- Generated by IcoMoon.io -->
<svg version="1.1" xmlns="http://www.w3.org/2000/svg" width="32" height="32" viewBox="0 0 32 32">
<path d="M12 30.535c-0.642 0-1.245-0.249-1.697-0.701l-8.137-8.137c-0.452-0.452-0.701-1.055-0.701-1.697s0.249-1.245 0.701-1.697l13.737-13.737c0.778-0.779 2.196-1.366 3.297-1.366h7.2c1.323 0 2.4 1.077 2.4 2.4v7.2c0 1.101-0.587 2.518-1.366 3.297l-13.737 13.737c-0.452 0.452-1.055 0.701-1.697 0.701zM19.2 4.8c-0.664 0-1.696 0.428-2.166 0.897l-13.737 13.737c-0.15 0.15-0.232 0.351-0.232 0.566s0.083 0.416 0.232 0.566l8.137 8.137c0.15 0.15 0.351 0.232 0.566 0.232s0.416-0.082 0.566-0.232l13.737-13.737c0.469-0.47 0.897-1.502 0.897-2.166v-7.2c0-0.441-0.359-0.8-0.8-0.8h-7.2zM23.2 11.2c-1.323 0-2.4-1.077-2.4-2.4s1.077-2.4 2.4-2.4 2.4 1.077 2.4 2.4-1.077 2.4-2.4 2.4zM23.2 8c-0.441 0-0.8 0.359-0.8 0.8s0.359 0.8 0.8 0.8 0.8-0.359 0.8-0.8-0.359-0.8-0.8-0.8z"></path>
</svg>
