<!-- Generated by IcoMoon.io -->
<svg version="1.1" xmlns="http://www.w3.org/2000/svg" width="32" height="32" viewBox="0 0 32 32">
<path d="M7.594 4.412c-1.981 0-3.581 1.606-3.581 3.581 0 1.981 1.606 3.581 3.581 3.581 1.981 0 3.581-1.606 3.581-3.581 0.006-1.981-1.6-3.581-3.581-3.581zM7.594 10.306c-1.275 0-2.313-1.037-2.313-2.313s1.037-2.313 2.313-2.313c1.275 0 2.313 1.037 2.313 2.313s-1.031 2.313-2.313 2.313zM15.281 2.263c-0.65-0.719-1.563-1.106-2.544-1.106l-6.706-0.069c-1.431 0-2.8 0.519-3.781 1.563-1.044 0.981-1.563 2.35-1.563 3.781l0.063 6.713c0.063 0.912 0.394 1.825 1.106 2.544l16.031 16.025 13.425-13.425-16.031-16.025zM17.825 29.887l-15.119-15.119c-0.456-0.456-0.719-1.044-0.719-1.694l-0.063-6.644c0-1.044 0.456-2.087 1.175-2.869 0.781-0.781 1.825-1.238 2.931-1.238l6.644 0.063c0.65 0 1.238 0.263 1.694 0.719l15.119 15.119-11.663 11.663z"></path>
</svg>
