<!-- Generated by IcoMoon.io -->
<svg version="1.1" xmlns="http://www.w3.org/2000/svg" width="32" height="32" viewBox="0 0 32 32">
<path d="M28.819 4.831v-1.244c0-1.756-1.431-3.188-3.188-3.188h-8.856c-0.85 0-1.65 0.331-2.25 0.931l-12.531 12.531c-0.6 0.6-0.931 1.4-0.931 2.25s0.331 1.65 0.931 2.25l1.275 1.275c-0.056 0.231-0.081 0.475-0.081 0.719 0 0.85 0.331 1.65 0.931 2.25l8.856 8.856c0.619 0.619 1.438 0.931 2.25 0.931s1.631-0.313 2.25-0.931l12.525-12.525c0.6-0.6 0.931-1.4 0.931-2.25v-8.856c0.006-1.381-0.881-2.563-2.113-3zM3.494 16.863c-0.2-0.2-0.313-0.469-0.313-0.75s0.112-0.55 0.313-0.75l12.525-12.525c0.2-0.2 0.469-0.313 0.75-0.313h8.856c0.587 0 1.063 0.475 1.063 1.063v1.063h-7.794c-0.85 0-1.65 0.331-2.25 0.931l-12.219 12.213-0.931-0.931zM28.506 17.438l-12.531 12.531c-0.412 0.413-1.088 0.413-1.5 0l-8.856-8.856c-0.2-0.2-0.313-0.469-0.313-0.75s0.112-0.55 0.313-0.75l12.525-12.525c0.2-0.2 0.469-0.313 0.75-0.313h8.856c0.587 0 1.063 0.475 1.063 1.063v8.856c0.006 0.281-0.106 0.544-0.306 0.744zM23.506 8.894c-1.756 0-3.188 1.431-3.188 3.188s1.431 3.188 3.188 3.188 3.188-1.431 3.188-3.188-1.431-3.188-3.188-3.188zM23.506 13.137c-0.587 0-1.063-0.475-1.063-1.063s0.475-1.063 1.063-1.063 1.063 0.475 1.063 1.063c0 0.588-0.475 1.063-1.063 1.063z"></path>
</svg>
