<!-- Generated by IcoMoon.io -->
<svg version="1.1" xmlns="http://www.w3.org/2000/svg" width="32" height="32" viewBox="0 0 32 32">
<path d="M31.429 3.556l-2.921-0.127-0.064-2.857c0-0.317-0.317-0.635-0.635-0.571-0.127 0-0.317 0.064-0.444 0.19l-5.333 5.333c-0.127 0.127-0.19 0.317-0.19 0.444v0.635c-6.349-4.381-14.984-2.794-19.365 3.492s-2.794 14.984 3.556 19.365 14.984 2.794 19.365-3.556c3.302-4.762 3.302-11.048 0-15.81h0.635c0.19 0 0.317-0.063 0.444-0.19l5.333-5.333c0.254-0.254 0.254-0.635 0-0.889-0.127-0.063-0.254-0.127-0.381-0.127v0zM26.667 18.032c0 7.048-5.651 12.698-12.698 12.698s-12.698-5.651-12.698-12.698c0-7.048 5.651-12.698 12.698-12.698 2.921 0 5.714 1.016 8 2.794v1.016l-2.413 2.476c-3.492-3.111-8.889-2.73-11.937 0.762s-2.73 8.889 0.762 11.937 8.889 2.73 11.936-0.762c2.794-3.175 2.794-7.873 0.064-11.048l2.476-2.476 1.016 0.063c1.778 2.222 2.794 5.016 2.794 7.936v0zM13.587 18.413c0.254 0.254 0.635 0.254 0.889 0 0 0 0 0 0 0l1.27-1.206c0.127 0.254 0.19 0.508 0.19 0.825 0 1.016-0.825 1.841-1.841 1.905-1.016 0-1.841-0.825-1.905-1.841 0-1.016 0.825-1.841 1.841-1.905 0.254 0 0.571 0.064 0.825 0.19l-1.27 1.206c-0.254 0.19-0.254 0.571 0 0.825zM15.683 15.365c-1.397-0.952-3.302-0.571-4.254 0.825s-0.571 3.302 0.825 4.254c1.397 0.952 3.302 0.571 4.254-0.825 0.698-1.016 0.698-2.349 0-3.365l2.921-2.921c2.54 3.048 2.159 7.619-0.889 10.159s-7.619 2.159-10.159-0.889c-2.54-3.048-2.159-7.619 0.889-10.159 2.667-2.286 6.603-2.286 9.27 0l-2.857 2.921zM25.841 8.825l-2.603-0.063-0.064-2.603 4.127-4.127v2.032c0 0.317 0.254 0.635 0.635 0.635l2.032 0.064-4.127 4.064z"></path>
</svg>
