<!-- Generated by IcoMoon.io -->
<svg version="1.1" xmlns="http://www.w3.org/2000/svg" width="32" height="32" viewBox="0 0 32 32">
<path d="M16.063 11.15c0.441 0 0.819-0.378 0.819-0.819s-0.378-0.819-0.819-0.819c-3.528 0-6.362 2.835-6.362 6.362s2.835 6.362 6.362 6.362c3.528 0 6.362-2.835 6.362-6.362 0-0.441-0.378-0.819-0.819-0.819s-0.819 0.378-0.819 0.819c0 2.646-2.142 4.787-4.787 4.787s-4.787-2.142-4.787-4.787c0.063-2.583 2.205-4.724 4.85-4.724z"></path>
<path d="M31.244 11.213c-0.126-0.441-0.567-0.63-1.008-0.504-0.378 0.126-0.63 0.567-0.504 1.008 2.394 7.559-1.827 15.685-9.449 18.016-7.559 2.394-15.685-1.827-18.016-9.449-2.394-7.559 1.827-15.685 9.449-18.016 2.835-0.882 5.795-0.882 8.63 0 0.441 0.126 0.882-0.126 1.008-0.504 0.063-0.441-0.189-0.882-0.567-1.008-8.441-2.646-17.386 2.016-20.032 10.457-2.646 8.378 2.016 17.386 10.457 20.032s17.386-2.016 20.032-10.457c0.945-3.15 0.945-6.488 0-9.575z"></path>
<path d="M17.575 5.669c0-0.441-0.315-0.819-0.819-0.882-0.252 0-0.504-0.063-0.693-0.063-6.173 0-11.15 4.976-11.15 11.15s4.976 11.15 11.15 11.15c6.173 0 11.15-4.976 11.15-11.15 0-0.315 0-0.567-0.063-0.882-0.063-0.441-0.441-0.756-0.882-0.693s-0.756 0.441-0.693 0.882c0 0 0 0.063 0 0.063 0 0.189 0.063 0.378 0.063 0.567 0 5.291-4.283 9.575-9.575 9.575s-9.575-4.283-9.575-9.575 4.283-9.575 9.575-9.575v0c0.189 0 0.378 0 0.567 0.063h0.126c0.441 0.126 0.756-0.189 0.819-0.63 0 0 0 0 0 0z"></path>
<path d="M20.787 7.181v2.835l-5.354 5.354c-0.315 0.315-0.315 0.819 0 1.134s0.819 0.315 1.134 0c0 0 0 0 0 0l5.354-5.354h2.835c0.189 0 0.441-0.063 0.567-0.252l4.787-4.787c0.315-0.315 0.315-0.819 0-1.134-0.126-0.126-0.378-0.252-0.567-0.252h-2.394v-2.331c0-0.441-0.378-0.819-0.819-0.819-0.189 0-0.441 0.063-0.567 0.252l-4.787 4.787c-0.063 0.126-0.189 0.315-0.189 0.567zM22.425 7.496l3.213-3.213v1.26c0 0.441 0.378 0.819 0.819 0.819h1.26l-3.213 3.213h-2.079v-2.079z"></path>
</svg>
