<!-- Generated by IcoMoon.io -->
<svg version="1.1" xmlns="http://www.w3.org/2000/svg" width="32" height="32" viewBox="0 0 32 32">
<path d="M22.872 12.6h-1.145c-0.296 0-0.537 0.24-0.537 0.537s0.24 0.537 0.537 0.537h1.145c0.296 0 0.537-0.24 0.537-0.537s-0.24-0.537-0.537-0.537z"></path>
<path d="M23.014 17.035c-0.212-0.271-0.531-0.427-0.875-0.427h-12.278c-0.344 0-0.663 0.156-0.875 0.427s-0.285 0.618-0.202 0.952l0.286 1.145c0.124 0.495 0.566 0.84 1.076 0.84h11.705c0.51 0 0.953-0.346 1.076-0.84l0.286-1.145c0.083-0.334 0.010-0.681-0.202-0.952zM22.174 17.727l-0.286 1.145c-0.004 0.016-0.018 0.027-0.035 0.027h-11.705c-0.016 0-0.031-0.011-0.035-0.027l-0.286-1.145c-0.001-0.005-0.004-0.017 0.007-0.031s0.023-0.014 0.028-0.014h12.278c0.005 0 0.017 0 0.028 0.014s0.008 0.026 0.007 0.031z"></path>
<path d="M30.318 13.673c0.928 0 1.682-0.755 1.682-1.682s-0.755-1.682-1.682-1.682h-0.573c-0.836 0-1.532 0.614-1.661 1.414l-1.432-3.939c-0.323-0.888-1.175-1.484-2.119-1.484h-4.084l-0.302-1.511c-0.157-0.784-0.851-1.352-1.65-1.352h-4.995c-0.799 0-1.493 0.569-1.65 1.352l-0.302 1.511h-4.084c-0.945 0-1.796 0.597-2.119 1.484l-1.432 3.939c-0.129-0.801-0.824-1.414-1.661-1.414h-0.573c-0.928 0-1.682 0.755-1.682 1.682s0.755 1.682 1.682 1.682h0.573c0.264 0 0.515-0.062 0.738-0.171l-1.228 1.534c-0.4 0.499-0.62 1.127-0.62 1.766v10.651c0 0.612 0.498 1.11 1.11 1.11h1.718c0.612 0 1.11-0.498 1.11-1.11v-2.327h21.834v2.327c0 0.612 0.498 1.11 1.11 1.11h1.718c0.612 0 1.11-0.498 1.11-1.11v-10.651c0-0.64-0.22-1.267-0.62-1.766l-1.227-1.534c0.223 0.109 0.473 0.171 0.738 0.171h0.573zM2.255 12.6h-0.573c-0.336 0-0.609-0.273-0.609-0.608s0.273-0.608 0.609-0.608h0.573c0.336 0 0.609 0.273 0.609 0.608s-0.273 0.608-0.609 0.608zM12.906 4.999c0.057-0.283 0.308-0.489 0.597-0.489h4.995c0.289 0 0.54 0.206 0.597 0.489l0.26 1.301h-6.708l0.26-1.301zM4.009 27.454c0 0.020-0.016 0.036-0.036 0.036h-1.718c-0.020 0-0.036-0.016-0.036-0.036v-2.662c0.344 0.212 0.748 0.335 1.181 0.335h0.608v2.327zM22.336 24.054h-12.671v-1.181c0-0.020 0.016-0.036 0.036-0.036h12.6c0.020 0 0.036 0.016 0.036 0.036v1.181zM29.781 27.454c0 0.020-0.016 0.036-0.036 0.036h-1.718c-0.020 0-0.036-0.016-0.036-0.036v-2.327h0.608c0.433 0 0.837-0.123 1.181-0.335v2.662zM29.396 15.708c0.248 0.31 0.384 0.699 0.384 1.096v6.069c0 0.651-0.53 1.181-1.181 1.181h-5.19v-1.181c0-0.612-0.498-1.11-1.11-1.11h-12.6c-0.612 0-1.11 0.498-1.11 1.11v1.181h-5.19c-0.651 0-1.181-0.53-1.181-1.181v-6.069c0-0.397 0.136-0.786 0.384-1.096l1.628-2.035h15.205c0.297 0 0.537-0.24 0.537-0.537s-0.24-0.537-0.537-0.537h-14.697l1.618-4.448c0.169-0.465 0.615-0.777 1.11-0.777h17.065c0.495 0 0.941 0.313 1.11 0.777l1.618 4.448h-2.097c-0.296 0-0.537 0.24-0.537 0.537s0.24 0.537 0.537 0.537h2.605l1.628 2.035zM29.136 11.991c0-0.336 0.273-0.608 0.608-0.608h0.573c0.336 0 0.608 0.273 0.608 0.608s-0.273 0.608-0.608 0.608h-0.573c-0.335 0-0.608-0.273-0.608-0.608z"></path>
<path d="M5.691 20.617c-0.612 0-1.11 0.498-1.11 1.11s0.498 1.11 1.11 1.11 1.11-0.498 1.11-1.11-0.498-1.11-1.11-1.11z"></path>
<path d="M26.309 20.617c-0.612 0-1.11 0.498-1.11 1.11s0.498 1.11 1.11 1.11c0.612 0 1.11-0.498 1.11-1.11s-0.498-1.11-1.11-1.11z"></path>
<path d="M5.405 16.036c-1.086 0-1.969 0.883-1.969 1.969s0.883 1.969 1.969 1.969c1.086 0 1.969-0.883 1.969-1.969s-0.883-1.969-1.969-1.969zM5.405 18.899c-0.493 0-0.895-0.401-0.895-0.895s0.401-0.895 0.895-0.895 0.895 0.401 0.895 0.895-0.401 0.895-0.895 0.895z"></path>
<path d="M26.595 16.036c-1.086 0-1.969 0.883-1.969 1.969s0.883 1.969 1.969 1.969c1.086 0 1.969-0.883 1.969-1.969s-0.883-1.969-1.969-1.969zM26.595 18.899c-0.493 0-0.895-0.401-0.895-0.895s0.401-0.895 0.895-0.895c0.493 0 0.895 0.401 0.895 0.895s-0.401 0.895-0.895 0.895z"></path>
</svg>
