<!-- Generated by IcoMoon.io -->
<svg version="1.1" xmlns="http://www.w3.org/2000/svg" width="45" height="32" viewBox="0 0 45 32">
<path d="M23.51 16.522c-4.571 0-8.229-3.722-8.229-8.229 0-4.571 3.657-8.294 8.229-8.294s8.229 3.722 8.229 8.229c0 4.571-3.657 8.294-8.229 8.294zM23.51 1.306c-3.853 0-6.922 3.135-6.922 6.922s3.069 6.988 6.922 6.988c3.853 0 6.922-3.135 6.922-6.922s-3.069-6.988-6.922-6.988z"></path>
<path d="M36.571 31.739c-0.392 0-0.653-0.261-0.653-0.653 0-5.486-5.551-9.992-12.408-9.992s-12.408 4.506-12.408 9.992c0 0.392-0.261 0.653-0.653 0.653s-0.653-0.261-0.653-0.653c0-6.204 6.139-11.298 13.714-11.298s13.714 5.094 13.714 11.298c0 0.327-0.261 0.653-0.653 0.653z"></path>
<path d="M2.612 19.461c-0.131 0-0.261-0.065-0.327-0.131l-1.959-1.959c-0.196-0.196-0.196-0.522 0-0.718l1.959-1.959c0.196-0.196 0.522-0.196 0.718 0s0.196 0.522 0 0.718l-1.633 1.567 1.633 1.633c0.196 0.196 0.196 0.522 0 0.718-0.131 0.065-0.261 0.131-0.392 0.131z"></path>
<path d="M42.449 19.461c-0.131 0-0.261-0.065-0.327-0.131-0.196-0.196-0.196-0.522 0-0.718l1.633-1.633-1.633-1.633c-0.196-0.196-0.196-0.522 0-0.718s0.522-0.196 0.718 0l1.959 1.959c0.196 0.196 0.196 0.522 0 0.718l-1.959 1.959c-0.131 0.131-0.261 0.196-0.392 0.196z"></path>
</svg>
