<!-- Generated by IcoMoon.io -->
<svg version="1.1" xmlns="http://www.w3.org/2000/svg" width="36" height="32" viewBox="0 0 36 32">
<path d="M12.566 8.585c-0.156-0.078-0.39-0.078-0.546 0.156-0.39 0.624-0.624 1.405-0.624 2.185 0 2.498 2.029 4.605 4.605 4.605s4.605-2.029 4.605-4.605c0-2.498-2.029-4.605-4.605-4.605-0.624 0-1.327 0.156-1.873 0.39-0.234 0.078-0.312 0.312-0.156 0.546 0.078 0.234 0.312 0.312 0.546 0.156 0.468-0.234 1.015-0.312 1.561-0.312 2.107 0 3.824 1.717 3.824 3.824s-1.717 3.824-3.824 3.824-3.824-1.717-3.824-3.824c0-0.624 0.156-1.327 0.468-1.873 0.078-0.156 0-0.39-0.156-0.468z"></path>
<path d="M21.619 23.102c-0.156 0.156-0.234 0.39-0.078 0.546s0.39 0.234 0.546 0.078c0.234-0.156 0.468-0.312 0.624-0.468 0.702-0.546 0.859-1.483 0.39-2.263-1.483-2.576-4.215-4.059-7.181-4.059s-5.62 1.483-7.181 4.059c-0.468 0.702-0.234 1.717 0.39 2.263 1.951 1.561 4.215 2.341 6.712 2.341 1.093 0 2.185-0.156 3.2-0.468 0.234-0.078 0.312-0.312 0.234-0.468-0.078-0.234-0.312-0.312-0.468-0.234-0.937 0.312-1.951 0.468-2.966 0.468-2.263 0-4.449-0.78-6.244-2.185-0.39-0.312-0.468-0.859-0.234-1.249 1.405-2.263 3.824-3.668 6.478-3.668s5.073 1.405 6.478 3.668c0.234 0.39 0.156 0.937-0.234 1.249-0.078 0.156-0.234 0.312-0.468 0.39z"></path>
<path d="M36.137 21.776c0-2.419-1.951-4.293-4.293-4.293s-4.293 1.951-4.293 4.293c0 2.185 1.639 3.98 3.746 4.293v1.639c0 1.951-1.561 3.512-3.512 3.512h-23.415c-2.029 0-3.59-1.561-3.59-3.512v-23.415c0-1.951 1.561-3.512 3.512-3.512h23.415c1.951 0 3.512 1.561 3.512 3.512v9.444c0 0.234 0.156 0.39 0.39 0.39s0.39-0.156 0.39-0.39v-9.444c0-2.341-1.951-4.293-4.293-4.293h-23.415c-2.341 0-4.293 1.951-4.293 4.293v23.415c0 2.341 1.951 4.293 4.293 4.293h23.415c2.341 0 4.293-1.951 4.293-4.293v-1.639c2.263-0.078 4.137-2.029 4.137-4.293zM31.766 25.288c-1.951 0-3.512-1.561-3.512-3.512s1.561-3.512 3.512-3.512 3.512 1.561 3.512 3.512-1.561 3.512-3.512 3.512z"></path>
<path d="M33.327 21.385h-1.171v-1.171c0-0.234-0.156-0.39-0.39-0.39s-0.39 0.156-0.39 0.39v1.171h-1.171c-0.234 0-0.39 0.156-0.39 0.39s0.156 0.39 0.39 0.39h1.171v1.171c0 0.234 0.156 0.39 0.39 0.39s0.39-0.156 0.39-0.39v-1.171h1.171c0.234 0 0.39-0.156 0.39-0.39s-0.156-0.39-0.39-0.39z"></path>
</svg>
