<!-- Generated by IcoMoon.io -->
<svg version="1.1" xmlns="http://www.w3.org/2000/svg" width="28" height="32" viewBox="0 0 28 32">
<path d="M20.605 17.249c-4.059 0-7.415 3.278-7.415 7.415s3.278 7.415 7.415 7.415 7.415-3.278 7.415-7.415-3.356-7.415-7.415-7.415zM20.605 31.22c-3.668 0-6.634-2.966-6.634-6.634s2.966-6.634 6.634-6.634c3.668 0 6.634 2.966 6.634 6.634-0.078 3.668-3.044 6.634-6.634 6.634z"></path>
<path d="M23.883 24.195h-2.966v-2.966c0-0.234-0.156-0.39-0.39-0.39s-0.39 0.156-0.39 0.39v2.966h-2.966c-0.234 0-0.39 0.156-0.39 0.39s0.156 0.39 0.39 0.39h6.634c0.234 0 0.39-0.156 0.39-0.39s-0.078-0.39-0.312-0.39z"></path>
<path d="M20.605 25.99c-0.234 0-0.39 0.156-0.39 0.39v1.561c0 0.234 0.156 0.39 0.39 0.39s0.39-0.156 0.39-0.39v-1.561c0-0.156-0.234-0.39-0.39-0.39z"></path>
<path d="M10.224 11.941h0.234c1.327 0 2.498-0.468 3.434-1.405s1.405-2.107 1.405-3.434v-2.263c0-2.654-2.185-4.839-4.839-4.839h-0.234c-2.654 0-4.839 2.185-4.839 4.839v2.263c0 2.654 2.185 4.839 4.839 4.839zM6.166 4.839c0-2.263 1.795-4.059 4.059-4.059h0.234c2.263 0 4.059 1.795 4.059 4.059v2.263c0 1.093-0.39 2.107-1.171 2.888s-1.795 1.171-2.888 1.171h-0.234c-2.263 0-4.059-1.795-4.059-4.059v-2.263z"></path>
<path d="M11.161 24.039h-10.38c0-0.078 0-0.156 0-0.312 0-5.229 4.293-9.522 9.522-9.522 2.185 0 4.371 0.78 6.088 2.185 0.156 0.156 0.39 0.078 0.546-0.078s0.078-0.39-0.078-0.546c-1.873-1.483-4.137-2.341-6.556-2.341-5.698 0.078-10.302 4.683-10.302 10.38 0 0.234 0 0.468 0 0.702v0.39h11.083c0.234 0 0.39-0.156 0.39-0.39s-0.078-0.468-0.312-0.468z"></path>
</svg>
