<!-- Generated by IcoMoon.io -->
<svg version="1.1" xmlns="http://www.w3.org/2000/svg" width="32" height="32" viewBox="0 0 32 32">
<path d="M16 8.387c1.238 0 2.212-1.044 2.212-2.213 0-1.237-0.975-2.212-2.213-2.212s-2.213 0.975-2.213 2.212c0 1.231 0.975 2.213 2.213 2.213zM16 5.125c0.587 0 0.975 0.456 0.975 0.975s-0.456 0.975-0.975 0.975-0.975-0.394-0.975-0.975c0-0.519 0.387-0.975 0.975-0.975zM7.006 20.769c-1.237 0-2.213 0.975-2.213 2.212s0.975 2.212 2.213 2.212c1.175 0 2.213-0.975 2.213-2.212s-0.975-2.212-2.213-2.212zM7.006 23.894c-0.519 0-0.975-0.456-0.975-0.975s0.394-0.975 0.975-0.975c0.519 0 0.975 0.456 0.975 0.975s-0.388 0.975-0.975 0.975zM24.994 18.488c-2.063 0-3.875 0.962-5.025 2.469l-3.381-3.081v-3.581c3.188-0.3 5.731-3.037 5.731-6.294 0-3.519-2.8-6.319-6.319-6.319s-6.319 2.862-6.319 6.313c0 3.319 2.55 6 5.731 6.294v3.544l-3.394 3.1c-1.15-1.494-2.963-2.45-5.013-2.45-3.519 0.006-6.319 2.806-6.319 6.325s2.869 6.319 6.319 6.319 6.319-2.8 6.319-6.319c0-1.006-0.231-1.956-0.637-2.794l3.287-3.025 3.331 3.038c-0.406 0.837-0.631 1.781-0.631 2.781 0 3.519 2.869 6.319 6.319 6.319 3.519 0 6.319-2.8 6.319-6.319s-2.8-6.319-6.319-6.319zM4.162 29.012c0.313-0.988 1.206-1.669 2.263-1.669h1.175c1.050 0 1.944 0.681 2.263 1.669-0.813 0.55-1.794 0.875-2.844 0.875-1.063 0-2.044-0.325-2.856-0.875zM10.825 28.156c-0.619-1.175-1.844-1.988-3.225-1.988h-1.175c-1.438 0-2.669 0.769-3.256 1.95-0.769-0.894-1.238-2.050-1.238-3.319 0-2.8 2.281-5.081 5.081-5.081 2.738 0 5.081 2.281 5.081 5.081-0.006 1.288-0.481 2.462-1.269 3.356zM16 13.075c-1.056 0-2.031-0.325-2.844-0.875 0.313-0.988 1.206-1.669 2.262-1.669h1.175c1.050 0 1.944 0.681 2.262 1.669-0.825 0.556-1.8 0.875-2.856 0.875zM10.919 7.994c0-2.8 2.281-5.081 5.081-5.081s5.081 2.281 5.081 5.081c0 1.281-0.481 2.456-1.269 3.35-0.619-1.175-1.844-1.988-3.225-1.988h-1.175c-1.438 0-2.669 0.769-3.256 1.95-0.769-0.881-1.238-2.044-1.238-3.313zM22.144 29.012c0.313-0.988 1.206-1.669 2.262-1.669h1.175c1.050 0 1.944 0.681 2.262 1.669-0.813 0.55-1.794 0.875-2.844 0.875s-2.044-0.325-2.856-0.875zM28.806 28.156c-0.619-1.175-1.844-1.988-3.225-1.988h-1.175c-1.438 0-2.669 0.769-3.256 1.95-0.769-0.894-1.238-2.050-1.238-3.319 0-2.8 2.281-5.081 5.081-5.081s5.081 2.281 5.081 5.081c0 1.288-0.481 2.462-1.269 3.356zM24.994 20.769c-1.238 0-2.212 0.975-2.212 2.212s0.975 2.212 2.212 2.212 2.212-0.975 2.212-2.212-0.975-2.212-2.212-2.212zM24.994 23.894c-0.519 0-0.975-0.456-0.975-0.975s0.394-0.975 0.975-0.975 0.975 0.456 0.975 0.975-0.387 0.975-0.975 0.975z"></path>
</svg>
