<!-- Generated by IcoMoon.io -->
<svg version="1.1" xmlns="http://www.w3.org/2000/svg" width="32" height="32" viewBox="0 0 32 32">
<path d="M28.431 27.3l-0.526-0.211c2.644-2.941 4.095-6.719 4.095-10.689 0-3.248-0.982-6.374-2.771-9.001-0.022-0.043-0.049-0.081-0.080-0.115-0.784-1.13-1.717-2.166-2.788-3.077-0.213-0.181-0.531-0.155-0.712 0.058s-0.155 0.532 0.057 0.712c0.859 0.731 1.624 1.547 2.287 2.431-1.070 0.418-2.353 0.772-3.786 1.052-0.396-1.179-0.882-2.278-1.454-3.269-0.77-1.337-1.657-2.413-2.622-3.204 1.503 0.43 2.935 1.096 4.249 1.983 0.231 0.156 0.545 0.095 0.701-0.136s0.095-0.545-0.136-0.701c-2.646-1.788-5.74-2.733-8.946-2.733-4.274 0-8.292 1.664-11.314 4.686s-4.686 7.040-4.686 11.314c0 3.976 1.453 7.754 4.101 10.696l-0.519 0.203c-0.191 0.069-1.817 0.718-1.817 2.785v1.81c0 0.279 0.226 0.506 0.505 0.506h7.437c0.024 0 0.048-0.002 0.072-0.006 0.024 0.003 0.047 0.006 0.072 0.006h2.056c0.279 0 0.505-0.226 0.505-0.505s-0.226-0.505-0.505-0.505h-1.551v-1.76c0-1.857 1.458-2.39 1.517-2.411 0.008-0.003 0.016-0.005 0.023-0.009l2.46-0.964c0.005 0.006 0.010 0.012 0.016 0.017l1.308 1.274c0.094 0.092 0.221 0.143 0.353 0.143 0.003 0 0.005 0 0.008-0 0.134-0.002 0.263-0.058 0.356-0.155l1.256-1.303 2.457 0.985c0.009 0.004 0.015 0.006 0.024 0.009 0.062 0.022 1.52 0.556 1.52 2.412v1.76h-8.168c-0.279 0-0.505 0.226-0.505 0.505s0.226 0.505 0.505 0.505h16.254c0.279 0 0.505-0.23 0.505-0.509v-1.807c0-2.059-1.613-2.711-1.815-2.784zM26.902 26.687l-0.498-0.2v-0.288c0.55-0.323 0.974-0.84 1.174-1.457 0.735-0.058 1.316-0.674 1.316-1.423 0-0.446-0.206-0.844-0.526-1.107v-0.898c0-1.731-1.299-3.164-2.974-3.377 0.019-0.343 0.032-0.688 0.039-1.033h5.548c-0.121 3.657-1.558 7.112-4.078 9.782zM25.078 25.55h-0.461c-0.893 0-1.619-0.726-1.619-1.619v-1.337c0.658-0.071 1.824-0.302 2.722-1.052 0.201 0.345 0.512 0.718 0.977 0.936v1.452c-0 0.893-0.726 1.619-1.619 1.619zM25.393 26.54v0.28l-0.563 0.584-0.529-0.515v-0.349c0.104 0.012 0.209 0.020 0.316 0.020h0.461c0.107 0 0.212-0.007 0.316-0.020zM22.494 21.616c-0.001 0-0.001 0-0.002 0-0.017 0-0.035 0.001-0.052 0.003-0.005 0.001-0.011 0.002-0.016 0.002-0.011 0.002-0.023 0.003-0.034 0.005-0.008 0.002-0.015 0.004-0.022 0.006-0.009 0.002-0.017 0.004-0.026 0.007-0.006 0.002-0.011 0.004-0.016 0.006v-0.329c0-1.32 1.074-2.395 2.395-2.395h0.242c1.32 0 2.394 1.074 2.394 2.395v0.325c-0.009-0.003-0.019-0.005-0.029-0.008-0.005-0.001-0.009-0.003-0.014-0.004-0.704-0.16-0.935-1.1-0.936-1.107-0.044-0.194-0.197-0.344-0.392-0.383s-0.394 0.038-0.511 0.199c-0.915 1.265-2.955 1.279-2.981 1.279zM27.707 23.66v-0.681c0.106 0.076 0.176 0.2 0.176 0.34s-0.070 0.264-0.176 0.34zM28.586 8.259c1.464 2.261 2.302 4.893 2.394 7.635h-5.548c-0.041-2.274-0.359-4.468-0.925-6.466 1.553-0.309 2.939-0.703 4.080-1.17zM24.421 15.895h-5.171c-0.001-0-0.001 0-0.002 0-0.689-0.762-1.658-1.265-2.743-1.349v-4.345c2.479-0.025 4.872-0.231 7.004-0.589 0.558 1.932 0.871 4.065 0.912 6.283zM19.964 21.171c0 0.297-0.201 0.548-0.474 0.625v-1.25c0.273 0.077 0.474 0.328 0.474 0.625zM16.505 1.439c2.011 0.215 3.902 1.707 5.373 4.257 0.516 0.895 0.959 1.884 1.324 2.945-2.037 0.334-4.323 0.526-6.697 0.549v-7.751zM16.185 15.543c1.721 0 3.121 1.4 3.121 3.121v0.617c-0.003-0.003-0.007-0.005-0.010-0.008-0.007-0.006-0.015-0.011-0.022-0.017-0.006-0.004-0.012-0.008-0.018-0.012-0.008-0.005-0.015-0.010-0.023-0.014s-0.015-0.008-0.022-0.011c-0.007-0.003-0.014-0.007-0.021-0.010-0.009-0.004-0.018-0.007-0.027-0.011-0.006-0.002-0.013-0.005-0.019-0.007-0.010-0.003-0.021-0.006-0.031-0.009-0.005-0.001-0.009-0.003-0.014-0.004-0.96-0.218-1.264-1.47-1.266-1.481-0.044-0.194-0.197-0.344-0.392-0.383s-0.394 0.038-0.511 0.199c-1.183 1.636-3.797 1.652-3.831 1.652-0 0-0 0-0 0s-0.001 0-0.002 0c-0.017 0-0.035 0.001-0.052 0.003-0.005 0.001-0.010 0.002-0.016 0.002-0.011 0.002-0.023 0.003-0.034 0.005-0.007 0.002-0.014 0.004-0.021 0.006-0.009 0.002-0.018 0.004-0.027 0.007s-0.016 0.006-0.024 0.009c-0.007 0.003-0.015 0.005-0.022 0.008-0.009 0.004-0.018 0.009-0.027 0.013-0.006 0.003-0.012 0.005-0.017 0.008-0.009 0.005-0.018 0.011-0.026 0.016-0.005 0.003-0.010 0.006-0.015 0.009-0.008 0.006-0.016 0.012-0.024 0.018-0.005 0.004-0.010 0.007-0.015 0.011s-0.009 0.008-0.014 0.012v-0.63c0-1.721 1.4-3.121 3.121-3.121h0.302zM7.579 15.895c0.041-2.218 0.355-4.352 0.913-6.284 2.135 0.359 4.53 0.565 7.004 0.59v4.35c-1.059 0.099-2.003 0.599-2.679 1.347-0.018-0.002-0.037-0.003-0.056-0.003h-5.181zM12.59 20.541v1.26c-0.283-0.070-0.494-0.326-0.494-0.63s0.211-0.56 0.494-0.63zM15.495 1.439v7.751c-2.368-0.024-4.656-0.217-6.697-0.551 0.365-1.060 0.808-2.048 1.324-2.943 1.47-2.551 3.362-4.043 5.373-4.257zM11.863 1.991c-0.964 0.791-1.848 1.866-2.617 3.2-0.571 0.991-1.057 2.090-1.453 3.268-1.431-0.279-2.713-0.633-3.78-1.049 1.935-2.574 4.679-4.507 7.851-5.419zM3.418 8.262c1.139 0.465 2.524 0.858 4.076 1.166-0.567 1.998-0.885 4.192-0.926 6.467h-5.548c0.093-2.807 0.962-5.42 2.398-7.633zM6.674 26.541c0.104 0.012 0.209 0.020 0.316 0.020h0.461c0.107 0 0.212-0.007 0.315-0.020v0.28l-0.563 0.584-0.529-0.515v-0.349zM7.45 25.55h-0.461c-0.893 0-1.619-0.726-1.619-1.619v-1.336c0.658-0.071 1.823-0.302 2.722-1.052 0.201 0.345 0.512 0.718 0.977 0.936v1.452c-0 0.893-0.726 1.619-1.619 1.619zM8.751 20.521c-0.044-0.194-0.197-0.344-0.392-0.383s-0.394 0.038-0.511 0.199c-0.916 1.266-2.957 1.279-2.981 1.279-0.001 0-0.001 0-0.002 0-0.017 0-0.035 0.001-0.052 0.003-0.005 0.001-0.010 0.002-0.016 0.002-0.011 0.002-0.023 0.003-0.034 0.005-0.007 0.002-0.014 0.004-0.021 0.006-0.009 0.002-0.018 0.004-0.027 0.007-0.005 0.002-0.011 0.004-0.016 0.006v-0.329c0-1.32 1.074-2.395 2.394-2.395h0.242c1.32 0 2.394 1.074 2.394 2.395v0.325h-0c-0.010-0.003-0.020-0.006-0.030-0.008-0.004-0.001-0.009-0.003-0.013-0.004-0.704-0.16-0.935-1.1-0.936-1.107zM1.020 16.905h5.548c0.006 0.348 0.020 0.696 0.039 1.040-1.648 0.237-2.918 1.657-2.918 3.37v0.894c-0.324 0.262-0.532 0.663-0.532 1.111 0 0.755 0.59 1.374 1.332 1.424 0.201 0.616 0.624 1.133 1.174 1.456v0.285l-0.552 0.216c-2.529-2.672-3.97-6.13-4.091-9.795zM4.36 22.968v0.703c-0.116-0.075-0.193-0.204-0.193-0.352s0.077-0.277 0.193-0.352zM9.346 29.63v1.76h-6.57v-1.306c0-1.409 1.101-1.817 1.144-1.832 0.008-0.003 0.016-0.005 0.023-0.009l1.906-0.746 1.013 0.986c0.094 0.092 0.221 0.143 0.353 0.143 0.003 0 0.005 0 0.008-0 0.134-0.002 0.263-0.058 0.356-0.155l0.957-0.993 1.182 0.474c-0.224 0.459-0.371 1.015-0.371 1.677zM14.221 25.215l-2.682 1.050c-0.341 0.117-0.814 0.389-1.233 0.836l-1.529-0.613v-0.287c0.551-0.323 0.974-0.84 1.175-1.457 0.735-0.058 1.316-0.674 1.316-1.423 0-0.446-0.206-0.844-0.527-1.107v-0.898c0-1.782-1.377-3.248-3.123-3.392-0.019-0.337-0.033-0.677-0.039-1.018h4.566c-0.252 0.534-0.394 1.13-0.394 1.759v1.179c-0.404 0.303-0.665 0.786-0.665 1.328 0 0.907 0.731 1.646 1.635 1.66 0.237 0.801 0.783 1.47 1.5 1.869v0.515zM10.080 23.66v-0.681c0.106 0.076 0.176 0.2 0.176 0.341s-0.070 0.265-0.176 0.34zM16.85 25.567c0 0.001 0 0.001 0 0.002v0.031l-0.828 0.859-0.791-0.77v-0.636c0.17 0.028 0.344 0.044 0.521 0.044h0.576c0.178 0 0.352-0.015 0.521-0.044v0.515zM16.329 24.086h-0.576c-1.186 0-2.152-0.965-2.152-2.151v-1.784c0.806-0.074 2.401-0.355 3.566-1.4 0.246 0.465 0.658 1.005 1.314 1.285v1.899c-0 1.186-0.965 2.152-2.151 2.152zM21.708 27.104c-0.419-0.448-0.892-0.72-1.235-0.838l-2.613-1.048v-0.518c0.717-0.399 1.263-1.068 1.5-1.869 0.894-0.025 1.614-0.759 1.614-1.659 0-0.539-0.259-1.019-0.658-1.323v-1.184c0-0.629-0.142-1.225-0.394-1.759h4.499c-0.007 0.342-0.020 0.683-0.039 1.022-1.719 0.171-3.066 1.625-3.066 3.388v0.894c-0.324 0.262-0.532 0.662-0.532 1.111 0 0.755 0.59 1.374 1.332 1.424 0.201 0.616 0.624 1.133 1.174 1.456v0.285l-1.582 0.62zM21.987 22.968v0.703c-0.116-0.075-0.193-0.204-0.193-0.352s0.077-0.277 0.193-0.352zM29.235 31.39h-6.57v-1.76c0-0.66-0.146-1.213-0.368-1.671l1.18-0.462 1.012 0.986c0.094 0.092 0.221 0.143 0.353 0.143 0.003 0 0.005 0 0.008-0 0.134-0.002 0.263-0.058 0.356-0.155l0.957-0.993 1.902 0.762c0.009 0.004 0.014 0.006 0.023 0.009 0.047 0.017 1.148 0.425 1.148 1.834v1.306z"></path>
</svg>
