<!-- Generated by IcoMoon.io -->
<svg version="1.1" xmlns="http://www.w3.org/2000/svg" width="32" height="32" viewBox="0 0 32 32">
<path d="M32 18.866c0-1.811-1.031-3.395-2.581-4.16v-8.112c0-3.415-2.778-6.194-6.194-6.194s-6.194 2.778-6.194 6.194v0.61c-0.653-0.111-1.332-0.123-2.014-0.018-0.037 0.006-0.073 0.015-0.109 0.022 0.036-0.202 0.059-0.407 0.059-0.614v-2.065c0-0.817-0.635-1.487-1.437-1.544-1.044-1.602-2.839-2.585-4.756-2.585-3.13 0-5.677 2.547-5.677 5.677v0.516c0 1.179 0.589 2.281 1.548 2.953v0.029c0 1.301 0.606 2.461 1.548 3.218v1.105l-2.312 0.385c-2.249 0.374-3.882 2.301-3.882 4.582v4.244h9.129c-1.757 0.69-2.936 2.377-2.936 4.317v4.973h19.613v-4.973c0-1.94-1.178-3.627-2.936-4.317h9.129v-4.244zM18.065 6.594c0-2.846 2.315-5.161 5.161-5.161s5.161 2.315 5.161 5.161v7.747c-0.089-0.020-0.178-0.042-0.269-0.057l-2.312-0.385v-1.105c0.942-0.758 1.548-1.917 1.548-3.218l-0.004-3.27-0.732 0.337c-0.010 0.005-1.042 0.468-3.394 0.468s-3.383-0.462-3.389-0.465l-0.74-0.355v1.655c-0.328-0.189-0.675-0.345-1.032-0.472v-0.88zM21.377 10.238c-0.335-0.589-0.76-1.105-1.248-1.542v-0.88c0.614 0.154 1.626 0.325 3.097 0.325s2.483-0.171 3.097-0.325v1.758c0 1.708-1.389 3.097-3.097 3.097-0.173 0-0.345-0.019-0.516-0.049v-0.76c0-0.803-0.573-1.473-1.333-1.625zM22.261 16.002c0.287-0.686 0.449-1.425 0.449-2.182v-0.152c0.171 0.022 0.344 0.038 0.516 0.038 0.548 0 1.070-0.109 1.548-0.304v0.852l-1.548 4.645-0.965-2.896zM22.303 19.393l-1.414-1.414c0.254-0.236 0.48-0.497 0.685-0.773l0.729 2.187zM25.641 14.917l0.815 0.136 0.338 1.694-2.646 2.646 1.492-4.476zM15.175 8.206c2.225-0.345 4.399 0.763 5.417 2.751l0.145 0.281h0.315c0.345 0 0.625 0.28 0.625 0.625v1.956c0 1.065-0.376 2.093-1.033 2.912l-0.003-3.166-0.713 0.295c-0.011 0.005-1.183 0.476-3.929 0.476s-3.917-0.471-3.926-0.474l-0.719-0.308v1.98c-0.418-0.868-0.593-1.844-0.483-2.826 0.253-2.263 2.062-4.155 4.303-4.501zM10.234 15.531c0.117 0.301 0.252 0.596 0.415 0.876l-0.91-0.547 0.495-0.33zM8.792 15.252l-1.566-1.174v-0.677c0.478 0.195 1.001 0.304 1.548 0.304 0.357 0 0.707-0.051 1.048-0.142 0.014 0.314 0.047 0.625 0.108 0.931l-1.138 0.759zM10.897 17.759l0.506 0.303c0.152 1.116 0.701 2.104 1.5 2.822v1.193h-2.125l-0.436-3.486 0.555-0.832zM13.292 23.153l1.806 1.445-1.522 0.914-1.4-2.101 1.116-0.258zM13.935 22.345v-0.758c0.623 0.311 1.322 0.49 2.065 0.49s1.442-0.179 2.065-0.49v0.758l-2.065 1.652-2.065-1.652zM18.708 23.153l1.116 0.258-1.4 2.101-1.522-0.914 1.806-1.445zM16 21.045c-1.992 0-3.613-1.621-3.613-3.613v-2.408c0.675 0.157 1.846 0.344 3.613 0.344s2.938-0.186 3.613-0.344v2.408c0 1.992-1.621 3.613-3.613 3.613zM4.645 6.29v1.844c-0.328-0.439-0.516-0.978-0.516-1.541v-0.516c0-2.562 2.084-4.645 4.645-4.645 1.649 0 3.189 0.89 4.019 2.323l0.149 0.258h0.477c0.285 0 0.516 0.231 0.516 0.516v2.065c0 0.324-0.065 0.639-0.186 0.942-0.294 0.116-0.577 0.255-0.847 0.414l-0.002-1.644-0.732 0.337c-0.011 0.005-1.042 0.467-3.394 0.467s-3.383-0.462-3.389-0.465l-0.74-0.355zM5.677 9.575v-1.758c0.614 0.154 1.626 0.325 3.097 0.325s2.483-0.171 3.097-0.325v0.885c-1.071 0.967-1.809 2.298-2.005 3.766-0.351 0.134-0.716 0.205-1.092 0.205-1.708-0.001-3.097-1.389-3.097-3.097zM6.577 14.881l1.274 0.955-1.48 0.888-0.987-1.644 1.193-0.199zM6.77 22.077h-2.641v-1.548h-1.032v1.548h-2.065v-3.212c0-1.774 1.27-3.273 3.019-3.564l0.238-0.040 1.727 2.878 0.635-0.381 0.554 0.831-0.436 3.486zM7.81 22.077l0.467-3.739-0.74-1.11 1.237-0.742 1.237 0.742-0.74 1.11 0.467 3.74h-1.928zM13.99 31.368h-3.667v-2.581h-1.032v2.581h-2.065v-3.941c0-1.692 1.151-3.14 2.801-3.52l1.074-0.248 2.163 3.243 0.614-0.369 0.557 0.835-0.444 3.999zM16.972 31.368h-1.943l0.473-4.259-0.738-1.107 1.236-0.742 1.237 0.742-0.738 1.107 0.473 4.259zM24.774 27.427v3.941h-2.065v-2.581h-1.032v2.581h-3.667l-0.444-3.999 0.557-0.835 0.614 0.369 2.163-3.243 1.074 0.248c1.649 0.38 2.801 1.828 2.801 3.52zM30.968 22.077h-2.065v-1.548h-1.032v1.548h-8.774v-1.193c0.583-0.523 1.032-1.19 1.293-1.946l2.836 2.837 4.69-4.689-0.371-1.852 0.404 0.068c1.749 0.292 3.019 1.79 3.019 3.564v3.212z"></path>
</svg>
