<!-- Generated by IcoMoon.io -->
<svg version="1.1" xmlns="http://www.w3.org/2000/svg" width="32" height="32" viewBox="0 0 32 32">
<path d="M31.983 20.426c-0.080-1.833-0.399-3.866-0.877-5.779-0.478-1.833-1.076-3.547-1.794-4.863-2.79-4.902-5.819-4.145-9.446-3.189-1.156 0.279-2.391 0.598-3.667 0.717h-0.399c-1.275-0.12-2.511-0.438-3.667-0.717-3.627-0.917-6.656-1.714-9.446 3.228-0.717 1.315-1.355 3.029-1.794 4.863-0.478 1.913-0.797 3.946-0.877 5.779-0.080 2.033 0.12 3.507 0.558 4.544 0.438 0.957 1.076 1.554 1.913 1.794 0.757 0.199 1.634 0.12 2.551-0.279 1.554-0.638 3.348-1.993 5.102-3.627 1.236-1.196 3.547-1.794 5.859-1.794s4.623 0.598 5.859 1.794c1.754 1.634 3.547 2.989 5.102 3.627 0.917 0.359 1.794 0.478 2.551 0.279 0.797-0.239 1.475-0.797 1.913-1.833 0.438-0.996 0.638-2.471 0.558-4.544zM30.070 24.412c-0.239 0.558-0.558 0.877-0.957 0.996-0.438 0.12-0.996 0.040-1.634-0.199-1.395-0.558-3.029-1.794-4.623-3.308-1.515-1.515-4.185-2.272-6.855-2.272s-5.341 0.757-6.895 2.192c-1.634 1.515-3.268 2.79-4.623 3.308-0.638 0.239-1.196 0.359-1.634 0.199-0.399-0.12-0.717-0.438-0.957-0.996-0.319-0.757-0.478-1.993-0.399-3.826 0.080-1.714 0.359-3.667 0.837-5.5 0.438-1.714 0.996-3.308 1.674-4.504 2.192-3.946 4.743-3.308 7.772-2.511 1.236 0.319 2.511 0.638 3.906 0.757 0.040 0 0.040 0 0.080 0h0.438c0.040 0 0.040 0 0.080 0 1.435-0.12 2.71-0.438 3.946-0.757 3.029-0.757 5.58-1.435 7.772 2.511 0.678 1.196 1.236 2.75 1.674 4.504 0.438 1.833 0.757 3.747 0.837 5.5 0.080 1.833-0.080 3.069-0.438 3.906zM12.333 12.654c-0.399-0.359-0.877-0.638-1.435-0.678-0.040-0.518-0.279-1.036-0.638-1.395l-0.040-0.040c-0.438-0.438-0.996-0.678-1.634-0.678s-1.236 0.279-1.634 0.678c-0.359 0.359-0.638 0.877-0.678 1.435-0.558 0.040-1.036 0.279-1.435 0.638l-0.040 0.040c-0.438 0.438-0.678 0.996-0.678 1.634s0.279 1.236 0.678 1.634c0.399 0.399 0.877 0.638 1.475 0.678 0.040 0.558 0.279 1.076 0.678 1.435 0.438 0.438 0.996 0.678 1.634 0.678s1.236-0.279 1.634-0.678c0.359-0.399 0.638-0.877 0.678-1.435 0.558-0.040 1.076-0.279 1.435-0.678 0.438-0.438 0.678-0.996 0.678-1.634s-0.279-1.236-0.678-1.634zM11.337 14.886c-0.159 0.159-0.359 0.239-0.598 0.239h-0.558c-0.399 0-0.757 0.319-0.757 0.757v0.518c0 0.239-0.080 0.438-0.239 0.598s-0.359 0.239-0.598 0.239c-0.239 0-0.438-0.080-0.598-0.239s-0.239-0.359-0.239-0.598v-0.558c0-0.399-0.319-0.757-0.757-0.757h-0.558c-0.239 0-0.438-0.080-0.598-0.239-0.12-0.12-0.239-0.319-0.239-0.558s0.080-0.438 0.239-0.598c0 0 0 0 0.040-0.040 0.159-0.12 0.359-0.199 0.558-0.199h0.558c0.399 0 0.757-0.319 0.757-0.757v-0.558c0-0.239 0.080-0.438 0.239-0.598s0.359-0.239 0.598-0.239c0.239 0 0.438 0.080 0.598 0.239 0 0 0 0 0.040 0.040 0.12 0.159 0.199 0.359 0.199 0.558v0.558c0 0.399 0.319 0.757 0.757 0.757h0.558c0.239 0 0.438 0.080 0.598 0.239s0.239 0.359 0.239 0.598c0 0.239-0.080 0.438-0.239 0.598zM24.33 11.459c0 0.77-0.625 1.395-1.395 1.395s-1.395-0.625-1.395-1.395c0-0.77 0.625-1.395 1.395-1.395s1.395 0.625 1.395 1.395zM24.33 17.118c0 0.77-0.625 1.395-1.395 1.395s-1.395-0.625-1.395-1.395c0-0.77 0.625-1.395 1.395-1.395s1.395 0.625 1.395 1.395zM21.5 14.288c0 0.77-0.625 1.395-1.395 1.395s-1.395-0.625-1.395-1.395c0-0.77 0.625-1.395 1.395-1.395s1.395 0.625 1.395 1.395zM27.16 14.288c0 0.77-0.625 1.395-1.395 1.395s-1.395-0.625-1.395-1.395c0-0.77 0.625-1.395 1.395-1.395s1.395 0.625 1.395 1.395z"></path>
</svg>
