<!-- Generated by IcoMoon.io -->
<svg version="1.1" xmlns="http://www.w3.org/2000/svg" width="32" height="32" viewBox="0 0 32 32">
<path d="M0 11.362v14.119c0 2.155 1.75 3.905 3.905 3.905h24.189c2.155 0 3.905-1.75 3.905-3.905v-14.119c0-2.051-1.665-3.716-3.716-3.716h-5.198l-0.124-0.542c-0.503-2.175-2.416-3.69-4.65-3.69h-4.63c-2.227 0-4.14 1.515-4.65 3.69l-0.124 0.542h-5.192c-2.051 0-3.716 1.672-3.716 3.716zM9.548 9.246c0.372 0 0.692-0.255 0.777-0.62l0.268-1.162c0.34-1.443 1.607-2.449 3.089-2.449h4.63c1.482 0 2.749 1.006 3.089 2.449l0.268 1.162c0.085 0.359 0.405 0.62 0.777 0.62h5.832c1.169 0 2.116 0.947 2.116 2.116v14.119c0 1.273-1.032 2.305-2.305 2.305h-24.183c-1.273 0-2.305-1.032-2.305-2.305v-14.119c0-1.169 0.947-2.116 2.116-2.116h5.832zM6.485 12.661c0 0.591-0.479 1.071-1.071 1.071s-1.071-0.479-1.071-1.071c0-0.591 0.479-1.071 1.071-1.071s1.071 0.479 1.071 1.071zM16 25.278c3.703 0 6.72-3.017 6.72-6.72s-3.017-6.72-6.72-6.72-6.72 3.011-6.72 6.72 3.017 6.72 6.72 6.72zM16 13.438c2.821 0 5.12 2.299 5.12 5.12s-2.299 5.12-5.12 5.12-5.12-2.299-5.12-5.12 2.299-5.12 5.12-5.12z"></path>
</svg>
