<!-- Generated by IcoMoon.io -->
<svg version="1.1" xmlns="http://www.w3.org/2000/svg" width="32" height="32" viewBox="0 0 32 32">
<path d="M29.048 21.245l-7.302-20.364c-0.104-0.288-0.378-0.481-0.685-0.481l-10.157 0.010c-0.307 0-0.581 0.193-0.684 0.483l-7.269 20.354c-0.080 0.223-0.046 0.47 0.090 0.663s0.358 0.308 0.594 0.308h6.581c-0.957 1.25-1.49 2.769-1.49 4.364 0 2.199 1.003 4.261 2.751 5.659 0.129 0.102 0.289 0.159 0.454 0.159h8.135c0.165 0 0.325-0.057 0.454-0.159 1.749-1.398 2.751-3.46 2.751-5.659 0-1.595-0.533-3.114-1.49-4.364h2.945v3.133c-0.427 0.254-0.727 0.699-0.727 1.231 0 0.803 0.653 1.455 1.455 1.455s1.455-0.652 1.455-1.455c0-0.532-0.301-0.977-0.727-1.231v-3.133h2.182c0.237 0 0.459-0.115 0.594-0.308 0.136-0.195 0.17-0.442 0.090-0.665zM21.818 26.582c0 1.672-0.731 3.25-2.013 4.364h-7.609c-1.283-1.114-2.013-2.692-2.013-4.364 0-1.679 0.753-3.248 2.046-4.364h7.545c1.292 1.115 2.046 2.684 2.046 4.364zM4.668 20.764l6.75-18.899 9.132-0.010 6.78 18.909h-22.662zM10.91 17.855h-2.114l1.991-5.574c0.136-0.378-0.062-0.794-0.44-0.929-0.378-0.133-0.795 0.061-0.929 0.44l-2.338 6.545c-0.080 0.223-0.046 0.47 0.090 0.663s0.358 0.308 0.594 0.308h3.146c0.402 0 0.727-0.325 0.727-0.727s-0.325-0.727-0.727-0.727z"></path>
</svg>
