<!-- Generated by IcoMoon.io -->
<svg version="1.1" xmlns="http://www.w3.org/2000/svg" width="76" height="32" viewBox="0 0 76 32">
<path d="M16 0h-11.111c-2.667 0-4.889 2.222-4.889 4.889v2.311c0 0.267 0.178 0.444 0.444 0.444s0.444-0.178 0.444-0.444v-2.311c0-2.222 1.778-4 4-4h11.111c2.222 0 4 1.778 4 4v11.111c0 2.222-1.778 4-4 4h-11.111c-2.222 0-4-1.778-4-4v-3.2c0-0.267-0.178-0.444-0.444-0.444s-0.444 0.178-0.444 0.444v3.2c0 2.667 2.222 4.889 4.889 4.889h11.111c2.667 0 4.889-2.222 4.889-4.889v-11.111c0-2.667-2.133-4.889-4.889-4.889z"></path>
<path d="M18.4 26.133h-17.511c-0.267 0-0.444 0.178-0.444 0.444s0.178 0.444 0.444 0.444h17.511c0.267 0 0.444-0.178 0.444-0.444s-0.178-0.444-0.444-0.444z"></path>
<path d="M9.244 31.111h-8.356c-0.267 0-0.444 0.178-0.444 0.444s0.178 0.444 0.444 0.444h8.356c0.267 0 0.444-0.178 0.444-0.444s-0.178-0.444-0.444-0.444z"></path>
<path d="M8.978 15.556c-0.267 0.089-0.356 0.356-0.178 0.622 0.089 0.178 0.267 0.267 0.444 0.267 0.089 0 0.089 0 0.178 0 3.022-1.422 4.889-4.444 4.889-7.644 0-0.089 0-0.178 0-0.356 0-2.133-1.689-3.822-3.822-3.822-2.133-0.089-3.822 1.6-3.822 3.733s1.689 3.822 3.822 3.822c0.622 0 1.244-0.178 1.778-0.444 0.178-0.089 0.267-0.356 0.178-0.622-0.089-0.178-0.356-0.267-0.622-0.178-0.444 0.267-0.889 0.356-1.333 0.356-1.6 0-2.933-1.333-2.933-2.933s1.333-2.933 2.933-2.933c1.6 0 2.933 1.333 2.933 2.933v0.089c0 0.089 0 0.089 0 0.178-0.089 2.933-1.778 5.689-4.444 6.933z"></path>
<path d="M43.467 0h-11.111c-2.667 0-4.889 2.222-4.889 4.889v11.111c0 2.667 2.222 4.889 4.889 4.889h11.111c2.667 0 4.889-2.222 4.889-4.889v-3.2c0-0.267-0.178-0.444-0.444-0.444s-0.444 0.178-0.444 0.444v3.2c0 2.222-1.778 4-4 4h-11.111c-2.222 0-4-1.778-4-4v-11.111c0-2.222 1.778-4 4-4h11.111c2.222 0 4 1.778 4 4v2.311c0 0.267 0.178 0.444 0.444 0.444s0.444-0.178 0.444-0.444v-2.311c0-2.667-2.222-4.889-4.889-4.889z"></path>
<path d="M45.867 26.133h-17.6c-0.267 0-0.444 0.178-0.444 0.444s0.178 0.444 0.444 0.444h17.511c0.267 0 0.444-0.178 0.444-0.444s-0.178-0.444-0.356-0.444z"></path>
<path d="M36.711 31.111h-8.444c-0.267 0-0.444 0.178-0.444 0.444s0.178 0.444 0.444 0.444h8.444c0.267 0 0.444-0.178 0.444-0.444s-0.178-0.444-0.444-0.444z"></path>
<path d="M36.356 15.556c-0.267 0.089-0.356 0.356-0.178 0.622 0.089 0.178 0.267 0.267 0.444 0.267 0.089 0 0.089 0 0.178 0 3.022-1.422 4.889-4.444 4.889-7.644 0-0.089 0-0.178 0-0.356 0-2.133-1.689-3.822-3.822-3.822s-3.822 1.689-3.822 3.822 1.689 3.822 3.822 3.822c0.622 0 1.244-0.178 1.778-0.444 0.178-0.089 0.267-0.356 0.178-0.622-0.089-0.178-0.356-0.267-0.622-0.178-0.444 0.267-0.889 0.356-1.333 0.356-1.6 0-2.933-1.333-2.933-2.933s1.333-2.933 2.933-2.933 2.933 1.333 2.933 2.933v0.089c0 0.089 0 0.089 0 0.178 0 2.844-1.778 5.6-4.444 6.844z"></path>
<path d="M70.844 0h-11.111c-2.667 0-4.889 2.222-4.889 4.889v2.311c0 0.267 0.178 0.444 0.444 0.444s0.444-0.178 0.444-0.444v-2.311c0-2.222 1.778-4 4-4h11.111c2.222 0 4 1.778 4 4v11.111c0 2.222-1.778 4-4 4h-11.111c-2.222 0-4-1.778-4-4v-3.2c0-0.267-0.178-0.444-0.444-0.444s-0.444 0.178-0.444 0.444v3.2c0 2.667 2.222 4.889 4.889 4.889h11.111c2.667 0 4.889-2.222 4.889-4.889v-11.111c0-2.667-2.222-4.889-4.889-4.889z"></path>
<path d="M73.244 26.133h-17.511c-0.267 0-0.444 0.178-0.444 0.444s0.178 0.444 0.444 0.444h17.511c0.267 0 0.444-0.178 0.444-0.444s-0.178-0.444-0.444-0.444z"></path>
<path d="M64.089 31.111h-8.444c-0.267 0-0.444 0.178-0.444 0.444s0.178 0.444 0.444 0.444h8.444c0.267 0 0.444-0.178 0.444-0.444s-0.178-0.444-0.444-0.444z"></path>
<path d="M63.822 15.556c-0.267 0.089-0.356 0.356-0.178 0.622 0.089 0.178 0.267 0.267 0.444 0.267 0.089 0 0.089 0 0.178 0 3.022-1.422 4.889-4.444 4.889-7.644 0-0.089 0-0.178 0-0.356 0-2.133-1.689-3.822-3.822-3.822s-3.822 1.6-3.822 3.733 1.689 3.822 3.822 3.822c0.622 0 1.244-0.178 1.778-0.444 0.178-0.089 0.267-0.356 0.178-0.622-0.089-0.178-0.356-0.267-0.622-0.178-0.444 0.267-0.889 0.356-1.333 0.356-1.6 0-2.933-1.333-2.933-2.933s1.333-2.933 2.933-2.933c1.6 0 2.933 1.333 2.933 2.933v0.089c0 0.089 0 0.089 0 0.178-0.089 2.933-1.778 5.689-4.444 6.933z"></path>
</svg>
