<!-- Generated by IcoMoon.io -->
<svg version="1.1" xmlns="http://www.w3.org/2000/svg" width="45" height="32" viewBox="0 0 45 32">
<path d="M45.006 10.013c0-5.574-4.439-10.013-9.91-10.013s-10.013 4.439-10.013 10.013 4.439 10.013 10.013 10.013c1.652 0 3.303-0.413 4.645-1.135 0.206-0.103 0.31-0.413 0.206-0.723-0.103-0.206-0.413-0.31-0.723-0.206-1.239 0.723-2.787 1.032-4.232 1.032-4.955 0-8.981-4.026-8.981-8.981s4.129-8.981 9.084-8.981 8.981 4.026 8.981 8.981v0.31c0 0.206 0 0.31 0 0.516 0 8.568-5.058 16.516-12.903 20.129-0.31 0.103-0.413 0.413-0.206 0.723 0.103 0.206 0.31 0.31 0.516 0.31 0.103 0 0.103 0 0.206 0 8.155-3.819 13.419-12.077 13.419-21.058 0-0.206 0-0.413 0-0.619l-0.103-0.31z"></path>
<path d="M10.013 0c-5.574 0-10.013 4.439-10.013 10.013 0 5.471 4.439 10.013 10.013 10.013 1.652 0 3.303-0.413 4.645-1.135 0.206-0.103 0.31-0.413 0.206-0.723s-0.413-0.31-0.723-0.206c-1.239 0.723-2.787 1.032-4.232 1.032-4.852 0-8.877-4.026-8.877-8.981s4.026-8.981 8.981-8.981c4.955 0 8.981 4.026 8.981 8.981v0.31c0 0.206 0 0.31 0 0.516 0 8.568-5.058 16.516-12.903 20.129-0.31 0.103-0.413 0.413-0.206 0.723 0 0.206 0.206 0.31 0.413 0.31 0.103 0 0.103 0 0.206 0 8.155-3.819 13.419-12.077 13.419-21.058 0-0.206 0-0.413 0-0.619v-0.31c0.103-5.471-4.439-10.013-9.91-10.013z"></path>
</svg>
