<!-- Generated by IcoMoon.io -->
<svg version="1.1" xmlns="http://www.w3.org/2000/svg" width="31" height="32" viewBox="0 0 31 32">
<path d="M18.419 21.463c0-0.234-0.156-0.39-0.39-0.39h-10.459c-0.234 0-0.39 0.156-0.39 0.39s0.156 0.39 0.39 0.39h10.459c0.156 0 0.39-0.234 0.39-0.39z"></path>
<path d="M7.571 23.961c-0.234 0-0.39 0.156-0.39 0.39s0.156 0.39 0.39 0.39h4.995c0.234 0 0.39-0.156 0.39-0.39s-0.156-0.39-0.39-0.39h-4.995z"></path>
<path d="M11.941 16.78c-0.234 0.078-0.312 0.312-0.156 0.546 0.078 0.156 0.234 0.234 0.39 0.234 0.078 0 0.078 0 0.156 0 2.576-1.171 4.293-3.824 4.293-6.634 0-0.078 0-0.156 0-0.312 0-1.795-1.483-3.278-3.278-3.278s-3.278 1.483-3.278 3.278 1.483 3.278 3.278 3.278c0.546 0 1.093-0.156 1.561-0.39 0.156-0.078 0.234-0.312 0.156-0.546-0.078-0.156-0.312-0.234-0.546-0.156-0.39 0.156-0.78 0.312-1.171 0.312-1.405 0-2.498-1.093-2.498-2.498s1.093-2.498 2.498-2.498c1.405 0 2.498 1.093 2.498 2.498v0.078c0 0.078 0 0.078 0 0.156-0.078 2.498-1.561 4.839-3.902 5.932z"></path>
<path d="M27.941 3.122c-0.234 0-0.39 0.156-0.39 0.39s0.234 0.39 0.39 0.39c1.015 0 1.873 0.859 1.873 1.873v20.449c0 1.015-0.859 1.873-1.873 1.873h-1.795v-9.288c0-0.234-0.156-0.39-0.39-0.39s-0.39 0.156-0.39 0.39v10.537c0 1.015-0.859 1.873-1.873 1.873h-19.902c-1.561 0-2.81-1.249-2.81-2.81v-24.82c0-1.561 1.249-2.81 2.81-2.81h19.044c1.561 0 2.81 1.249 2.81 2.81v9.6c0 0.234 0.156 0.39 0.39 0.39s0.39-0.156 0.39-0.39v-9.6c0-2.029-1.639-3.59-3.59-3.59h-19.044c-2.029 0-3.59 1.561-3.59 3.59v24.898c0 1.951 1.561 3.512 3.59 3.512h19.98c1.483 0 2.654-1.171 2.654-2.654v-0.468h1.795c1.483 0 2.654-1.171 2.654-2.654v-20.449c0-1.483-1.249-2.654-2.732-2.654z"></path>
</svg>
