<!-- Generated by IcoMoon.io -->
<svg version="1.1" xmlns="http://www.w3.org/2000/svg" width="53" height="32" viewBox="0 0 53 32">
<path d="M25.054 32h-3.2c-0.234 0-0.39-0.156-0.39-0.39s0.156-0.39 0.39-0.39h3.2c0.234 0 0.39 0.156 0.39 0.39s-0.234 0.39-0.39 0.39z"></path>
<path d="M28.254 32h-0.546c-0.234 0-0.39-0.156-0.39-0.39s0.156-0.39 0.39-0.39h0.546c0.234 0 0.39 0.156 0.39 0.39s-0.156 0.39-0.39 0.39z"></path>
<path d="M31.376 32h-0.546c-0.234 0-0.39-0.156-0.39-0.39s0.156-0.39 0.39-0.39h0.546c0.234 0 0.39 0.156 0.39 0.39s-0.156 0.39-0.39 0.39z"></path>
<path d="M40.741 24.351h-17.795c-0.234 0-0.39-0.156-0.39-0.39s0.156-0.39 0.39-0.39h17.795c1.951 0 3.512-1.561 3.512-3.512v-15.766c0-1.951-1.561-3.512-3.512-3.512h-28.254c-1.951 0-3.512 1.561-3.512 3.512v15.766c0 1.951 1.561 3.512 3.512 3.512h3.2c0.234 0 0.39 0.156 0.39 0.39s-0.156 0.39-0.39 0.39h-3.2c-2.341 0-4.293-1.951-4.293-4.293v-15.766c0-2.341 1.951-4.293 4.293-4.293h28.254c2.341 0 4.293 1.951 4.293 4.293v15.766c0 2.419-1.951 4.293-4.293 4.293z"></path>
<path d="M6.166 20.059h-1.639c-2.498 0-4.527-2.029-4.527-4.449v-6.79c0-2.498 2.029-4.527 4.527-4.527h1.639c0.234 0 0.39 0.156 0.39 0.39s-0.234 0.39-0.39 0.39h-1.639c-2.107 0-3.746 1.639-3.746 3.668v6.868c0 2.029 1.639 3.668 3.746 3.668h1.639c0.234 0 0.39 0.156 0.39 0.39s-0.234 0.39-0.39 0.39z"></path>
<path d="M48.781 20.059h-1.639c-0.234 0-0.39-0.156-0.39-0.39s0.156-0.39 0.39-0.39h1.639c2.029 0 3.746-1.639 3.746-3.668v-6.79c0-2.029-1.639-3.746-3.746-3.746h-1.639c-0.234 0-0.39-0.156-0.39-0.39s0.156-0.39 0.39-0.39h1.639c2.498 0 4.527 2.029 4.527 4.527v6.79c-0.078 2.419-2.107 4.449-4.527 4.449z"></path>
<path d="M36.527 11.707h-10.38c-0.234 0-0.39-0.156-0.39-0.39s0.156-0.39 0.39-0.39h10.459c0.234 0 0.39 0.156 0.39 0.39s-0.234 0.39-0.468 0.39z"></path>
<path d="M31.141 14.673h-4.995c-0.234 0-0.39-0.156-0.39-0.39s0.156-0.39 0.39-0.39h4.995c0.234 0 0.39 0.156 0.39 0.39s-0.156 0.39-0.39 0.39z"></path>
<path d="M36.527 8.741h-10.38c-0.234 0-0.39-0.156-0.39-0.39s0.156-0.39 0.39-0.39h10.459c0.234 0 0.39 0.156 0.39 0.39s-0.234 0.39-0.468 0.39z"></path>
<path d="M18.419 17.327c-0.156 0-0.312-0.078-0.39-0.234-0.078-0.234 0-0.39 0.156-0.546 2.341-1.093 3.824-3.434 3.824-6.010 0-0.078 0-0.156 0-0.156v-0.078c0-1.405-1.093-2.498-2.498-2.498s-2.498 1.093-2.498 2.498 1.093 2.498 2.498 2.498c0.39 0 0.859-0.078 1.171-0.312 0.156-0.078 0.39 0 0.546 0.156 0.078 0.156 0 0.39-0.156 0.546-0.468 0.234-1.015 0.39-1.561 0.39-1.795 0-3.278-1.483-3.278-3.278s1.483-3.278 3.356-3.278c1.795 0 3.278 1.483 3.278 3.278 0 0.156 0 0.234 0 0.312 0 2.81-1.639 5.463-4.293 6.634 0 0.078-0.078 0.078-0.156 0.078z"></path>
</svg>
