<!-- Generated by IcoMoon.io -->
<svg version="1.1" xmlns="http://www.w3.org/2000/svg" width="32" height="32" viewBox="0 0 32 32">
<path d="M28 8h-24c-0.442 0-0.8-0.358-0.8-0.8s0.358-0.8 0.8-0.8h24c0.442 0 0.8 0.358 0.8 0.8s-0.358 0.8-0.8 0.8zM24.8 12.8h-17.6c-0.442 0-0.8-0.358-0.8-0.8s0.358-0.8 0.8-0.8h17.6c0.442 0 0.8 0.358 0.8 0.8s-0.358 0.8-0.8 0.8zM28 17.6h-24c-0.442 0-0.8-0.358-0.8-0.8s0.358-0.8 0.8-0.8h24c0.442 0 0.8 0.358 0.8 0.8s-0.358 0.8-0.8 0.8zM24.8 22.4h-17.6c-0.442 0-0.8-0.358-0.8-0.8s0.358-0.8 0.8-0.8h17.6c0.442 0 0.8 0.358 0.8 0.8s-0.358 0.8-0.8 0.8zM28 27.2h-24c-0.442 0-0.8-0.358-0.8-0.8s0.358-0.8 0.8-0.8h24c0.442 0 0.8 0.358 0.8 0.8s-0.358 0.8-0.8 0.8z"></path>
</svg>
