<!-- Generated by IcoMoon.io -->
<svg version="1.1" xmlns="http://www.w3.org/2000/svg" width="32" height="32" viewBox="0 0 32 32">
<path d="M11.135 26.085l-2.054-4.793c-0.001-0.002-0.002-0.005-0.003-0.007l-2.743-6.4c-0.126-0.294-0.415-0.485-0.735-0.485s-0.609 0.191-0.735 0.485l-2.743 6.4c-0.001 0.002-0.002 0.005-0.003 0.007l-2.054 4.793c-0.174 0.406 0.014 0.876 0.42 1.050s0.876-0.014 1.050-0.42l1.849-4.315h4.431l1.849 4.315c0.13 0.303 0.425 0.485 0.736 0.485 0.105 0 0.212-0.021 0.315-0.065 0.406-0.174 0.594-0.644 0.42-1.050zM4.070 20.8l1.53-3.569 1.53 3.569h-3.059zM31.939 26.092l-3.333-8c-0.001-0.002-0.002-0.004-0.003-0.006l-4.664-11.194c-0.124-0.298-0.416-0.492-0.738-0.492s-0.614 0.194-0.738 0.492l-4.664 11.193c-0.001 0.002-0.002 0.005-0.003 0.007l-3.333 8c-0.17 0.408 0.023 0.876 0.431 1.046s0.876-0.023 1.046-0.431l3.128-7.508h8.267l3.128 7.508c0.128 0.307 0.425 0.492 0.739 0.492 0.103 0 0.207-0.020 0.307-0.062 0.408-0.17 0.601-0.638 0.431-1.046zM19.733 17.6l3.467-8.32 3.467 8.32h-6.933z"></path>
</svg>
