<!-- Generated by IcoMoon.io -->
<svg version="1.1" xmlns="http://www.w3.org/2000/svg" width="32" height="32" viewBox="0 0 32 32">
<path d="M26.4 30.4h-22.4c-0.442 0-0.8-0.358-0.8-0.8s0.358-0.8 0.8-0.8h22.4c0.442 0 0.8 0.358 0.8 0.8s-0.358 0.8-0.8 0.8zM25.535 24.485l-4.111-9.593c-0.001-0.002-0.002-0.005-0.003-0.007l-5.486-12.8c-0.126-0.294-0.415-0.485-0.735-0.485s-0.609 0.191-0.735 0.485l-5.486 12.8c-0.001 0.002-0.002 0.005-0.003 0.007l-4.111 9.593c-0.174 0.406 0.014 0.876 0.42 1.050s0.876-0.014 1.050-0.42l3.906-9.115h9.916l3.907 9.115c0.13 0.303 0.425 0.485 0.736 0.485 0.105 0 0.212-0.021 0.315-0.065 0.406-0.174 0.594-0.644 0.42-1.050zM10.928 14.4l4.272-9.969 4.273 9.969h-8.545z"></path>
</svg>
