<!-- Generated by IcoMoon.io -->
<svg version="1.1" xmlns="http://www.w3.org/2000/svg" width="32" height="32" viewBox="0 0 32 32">
<path d="M30.266 17.933c0.708-0.817 1.111-2.168 1.111-3.454 0-0.849-0.184-1.593-0.533-2.151-0.454-0.727-1.18-1.127-2.045-1.127h-4.189c2.28-4.146 2.857-7.268 1.711-9.291-0.798-1.409-2.261-1.909-3.272-1.909-0.4 0-0.739 0.296-0.793 0.693-0.286 2.111-1.9 4.629-4.429 6.909-2.422 2.183-5.399 3.93-8.458 4.975-0.385-0.813-1.213-1.376-2.17-1.376h-4.8c-1.323 0-2.4 1.077-2.4 2.4v14.4c0 1.323 1.077 2.4 2.4 2.4h4.8c1.014 0 1.882-0.632 2.233-1.522 3.138 0.393 4.319 1.024 5.462 1.635 1.431 0.765 2.783 1.488 7.205 1.488 1.152 0 2.237-0.301 3.056-0.847 0.8-0.534 1.311-1.281 1.481-2.149 0.638-0.259 1.204-0.857 1.639-1.747 0.423-0.865 0.696-1.971 0.696-2.818 0-0.158-0.009-0.304-0.028-0.438 0.404-0.298 0.767-0.758 1.067-1.362 0.432-0.872 0.691-1.965 0.691-2.922 0-0.678-0.126-1.244-0.374-1.682-0.020-0.035-0.041-0.070-0.063-0.103zM7.2 28.8h-4.8c-0.441 0-0.8-0.359-0.8-0.8v-14.4c0-0.441 0.359-0.8 0.8-0.8h4.8c0.441 0 0.8 0.359 0.8 0.8v14.398c0 0.001 0 0.001 0 0.002-0 0.441-0.359 0.8-0.8 0.8zM29.342 16.438c-0.242 0.486-0.487 0.662-0.592 0.662-0.442 0-0.8 0.358-0.8 0.8s0.358 0.8 0.8 0.8c0.067 0 0.116 0 0.187 0.125 0.106 0.186 0.166 0.512 0.166 0.893 0 0.712-0.201 1.559-0.524 2.211-0.317 0.639-0.639 0.87-0.779 0.87-0.442 0-0.8 0.358-0.8 0.8 0 0.283 0.147 0.532 0.37 0.674 0.049 0.506-0.187 1.863-0.801 2.748-0.232 0.335-0.476 0.527-0.669 0.527-0.442 0-0.8 0.358-0.8 0.8 0 1.409-1.555 2.050-3 2.050-4.021 0-5.147-0.602-6.45-1.299-1.219-0.651-2.59-1.384-6.050-1.815v-13.099c3.361-1.102 6.643-3.004 9.299-5.397 2.549-2.297 4.223-4.781 4.79-7.081 0.435 0.14 0.927 0.434 1.241 0.989 0.534 0.944 0.934 3.353-2.388 8.891-0.148 0.247-0.152 0.555-0.010 0.806s0.408 0.406 0.696 0.406h5.572c0.318 0 0.523 0.112 0.687 0.375 0.187 0.3 0.29 0.763 0.29 1.304 0 0.679-0.163 1.412-0.436 1.959z"></path>
</svg>
