<!-- Generated by IcoMoon.io -->
<svg version="1.1" xmlns="http://www.w3.org/2000/svg" width="32" height="32" viewBox="0 0 32 32">
<path d="M16 0c3.57 0 6.324-0.002 8.461 0.286 2.159 0.29 3.803 0.888 5.084 2.169s1.879 2.925 2.169 5.084c0.287 2.137 0.286 4.891 0.286 8.461s0.002 6.324-0.286 8.461c-0.29 2.159-0.888 3.803-2.169 5.084s-2.925 1.879-5.084 2.169c-2.137 0.287-4.891 0.286-8.461 0.286s-6.324 0.002-8.461-0.286c-2.159-0.29-3.803-0.888-5.084-2.169s-1.879-2.925-2.169-5.084c-0.287-2.137-0.286-4.891-0.286-8.461s-0.002-6.325 0.286-8.462c0.29-2.159 0.888-3.802 2.169-5.083s2.924-1.879 5.083-2.169c2.137-0.287 4.892-0.286 8.462-0.286zM16 1.524c-3.613 0-6.247 0.002-8.259 0.272-1.99 0.268-3.259 0.785-4.209 1.736s-1.468 2.219-1.736 4.209c-0.271 2.012-0.272 4.646-0.272 8.259s0.002 6.247 0.272 8.259c0.268 1.99 0.785 3.259 1.736 4.209s2.219 1.468 4.209 1.736c2.012 0.27 4.646 0.272 8.259 0.272s6.247-0.002 8.259-0.272c1.99-0.268 3.259-0.785 4.209-1.736s1.468-2.219 1.736-4.209c0.27-2.012 0.272-4.646 0.272-8.259s-0.002-6.247-0.272-8.259c-0.268-1.99-0.785-3.259-1.736-4.209s-2.219-1.468-4.209-1.736c-2.012-0.271-4.646-0.272-8.259-0.272zM18.411 5.586c0.399 0.025 0.711 0.354 0.714 0.754l0.005 0.546c0.079 0.57 0.395 1.402 1.1 2.208 0.887 1.014 2.363 1.947 4.624 2.147 0.419 0.037 0.729 0.407 0.692 0.826s-0.407 0.729-0.826 0.692c-2.59-0.229-4.407-1.302-5.561-2.579l0.092 10.33c0.001 0.076-0.010 0.152-0.032 0.225-0.552 1.842-1.093 2.932-1.646 3.633-0.571 0.724-1.135 0.996-1.482 1.206-1.753 1.059-3.477 1.047-4.873 0.626-1.368-0.413-2.438-1.222-2.978-1.817-0.005-0.005-0.010-0.010-0.014-0.015-0.531-0.617-1.192-1.697-1.526-3.003-0.338-1.32-0.349-2.913 0.498-4.479 1.688-3.12 5.093-3.439 6.56-3.232 0.417 0.059 0.707 0.444 0.648 0.861s-0.444 0.707-0.861 0.648c-1.164-0.165-3.755 0.132-5.007 2.448-0.623 1.152-0.628 2.334-0.362 3.376 0.269 1.051 0.806 1.92 1.199 2.379 0.376 0.41 1.21 1.050 2.283 1.374 1.053 0.318 2.319 0.329 3.644-0.472 0.416-0.251 0.709-0.382 1.074-0.845 0.375-0.476 0.835-1.333 1.349-3.022l-0.119-13.423c-0.028-0.261-0.029-0.508 0.001-0.734 0.053-0.396 0.404-0.685 0.803-0.66z"></path>
</svg>
