<!-- Generated by IcoMoon.io -->
<svg version="1.1" xmlns="http://www.w3.org/2000/svg" width="32" height="32" viewBox="0 0 32 32">
<path d="M2.667 21.556c0-5.009 3.993-9.112 8.97-9.112 0.736 0 1.333 0.597 1.333 1.333s-0.597 1.333-1.333 1.333c-3.458 0-6.303 2.863-6.303 6.445s2.845 6.444 6.303 6.444c3.458-0 6.302-2.862 6.302-6.444v-18.889c0-0.736 0.597-1.333 1.333-1.333s1.333 0.597 1.333 1.333c0 3.511 3.554 6.444 7.395 6.444 0.736 0 1.333 0.597 1.333 1.333s-0.597 1.333-1.333 1.333c-2.679 0-5.443-1.124-7.395-3.025v12.803c-0 5.008-3.992 9.111-8.969 9.111s-8.97-4.102-8.97-9.111z"></path>
</svg>
