<!-- Generated by IcoMoon.io -->
<svg version="1.1" xmlns="http://www.w3.org/2000/svg" width="27" height="32" viewBox="0 0 27 32">
<path d="M14.080 4.88v-0.56h1.12c0.56 0 1.12-0.24 1.52-0.64s0.64-0.96 0.64-1.52c0-0.56-0.24-1.12-0.64-1.52s-0.96-0.64-1.52-0.64h-3.28c-0.56 0-1.12 0.24-1.52 0.64s-0.64 0.96-0.64 1.52c0 0.56 0.24 1.12 0.64 1.52s0.96 0.64 1.52 0.64h1.12v0.64c-7.2 0.24-13.040 6.16-13.040 13.52 0 7.44 6.080 13.52 13.52 13.52s13.52-6.080 13.52-13.52c0.080-7.36-5.76-13.28-12.96-13.6zM11.92 3.28c-0.32 0-0.56-0.080-0.8-0.32s-0.32-0.48-0.32-0.8c0-0.32 0.080-0.56 0.32-0.8s0.48-0.32 0.8-0.32h3.28c0.32 0 0.56 0.080 0.8 0.32s0.32 0.48 0.32 0.8c0 0.32-0.080 0.56-0.32 0.8s-0.48 0.32-0.8 0.32h-1.12v-1.12h-1.040v1.12h-1.12zM13.52 30.96c-6.88 0-12.56-5.6-12.56-12.56s5.6-12.56 12.56-12.56 12.56 5.6 12.56 12.56-5.6 12.56-12.56 12.56zM24 6.88c0.16-0.16 0.4-0.16 0.48 0l0.64 0.64c0.080 0.080 0.080 0.16 0.080 0.24s0 0.16-0.080 0.24l-0.8 0.8 0.72 0.72 0.8-0.8c0.24-0.24 0.4-0.64 0.4-0.96 0-0.4-0.16-0.72-0.4-0.96l-0.64-0.64c-0.24-0.24-0.64-0.4-0.96-0.4-0.4 0-0.72 0.16-0.96 0.4l-0.8 0.8 0.72 0.72 0.8-0.8zM2.080 9.52l0.72-0.72-0.8-0.8c-0.080-0.080-0.080-0.16-0.080-0.24s0-0.16 0.080-0.24l0.64-0.64c0.16-0.16 0.4-0.16 0.48 0l0.8 0.8 0.72-0.72-0.8-0.8c-0.24-0.24-0.56-0.4-0.96-0.4s-0.72 0.16-0.96 0.4l-0.64 0.64c-0.24 0.24-0.4 0.56-0.4 0.96s0.16 0.72 0.4 0.96l0.8 0.8zM7.701 9.31l0.901-0.52 0.76 1.316-0.901 0.52-0.76-1.316zM3.91 13.435l0.52-0.901 1.316 0.76-0.52 0.901-1.316-0.76zM2.72 17.92h1.52v1.040h-1.52v-1.040zM3.909 23.394l1.316-0.76 0.52 0.901-1.316 0.76-0.52-0.901zM7.649 27.56l0.76-1.316 0.901 0.52-0.76 1.316-0.901-0.52zM13.040 27.76h1.040v1.52h-1.040v-1.52zM17.752 26.77l0.901-0.52 0.76 1.316-0.901 0.52-0.76-1.316zM21.36 23.582l0.52-0.901 1.316 0.76-0.52 0.901-1.316-0.76zM13.52 7.84v1.040c5.12 0 9.28 4 9.6 9.040h-7.52c-0.24-0.96-1.040-1.6-2.080-1.6-1.2 0-2.16 0.96-2.16 2.16s0.96 2.16 2.16 2.16c1.040 0 1.84-0.72 2.080-1.6h8.56v-0.48c0-6-4.72-10.72-10.64-10.72zM13.52 19.52c-0.64 0-1.12-0.48-1.12-1.12s0.48-1.12 1.12-1.12c0.64 0 1.12 0.48 1.12 1.12s-0.48 1.12-1.12 1.12z"></path>
</svg>
