<!-- Generated by IcoMoon.io -->
<svg version="1.1" xmlns="http://www.w3.org/2000/svg" width="72" height="32" viewBox="0 0 72 32">
<path d="M16 0c-8.791 0-16 7.209-16 16s7.209 16 16 16 16-7.209 16-16c0-8.791-7.209-16-16-16zM16 30.242c-7.912 0-14.242-6.33-14.242-14.242s6.33-14.242 14.242-14.242 14.242 6.33 14.242 14.242-6.33 14.242-14.242 14.242z"></path>
<path d="M16 6.681c-0.527 0-0.879 0.352-0.879 0.879s0.352 0.879 0.879 0.879c4.22 0 7.56 3.341 7.56 7.56 0 0.527 0.352 0.879 0.879 0.879s0.879-0.352 0.879-0.879c0-5.099-4.22-9.319-9.319-9.319z"></path>
<path d="M61.538 5.451h-24.615c-0.527 0-0.879 0.352-0.879 0.879s0.352 0.879 0.879 0.879h24.615c4.923 0 8.791 4.044 8.791 8.791s-4.044 8.791-8.791 8.791h-24.615c-0.527 0-0.879 0.352-0.879 0.879s0.352 0.879 0.879 0.879h24.615c5.802 0 10.549-4.747 10.549-10.549s-4.747-10.549-10.549-10.549z"></path>
</svg>
