<!-- Generated by IcoMoon.io -->
<svg version="1.1" xmlns="http://www.w3.org/2000/svg" width="32" height="32" viewBox="0 0 32 32">
<path d="M27.436 26.132c-0.912 0-1.655 0.742-1.655 1.655s0.742 1.655 1.655 1.655c0.912 0 1.655-0.742 1.655-1.655s-0.742-1.655-1.655-1.655zM27.436 28.461c-0.372 0-0.674-0.302-0.674-0.674s0.302-0.674 0.674-0.674c0.372 0 0.674 0.302 0.674 0.674s-0.302 0.674-0.674 0.674zM31.894 27.701c-0.031-1.211-0.544-2.326-1.444-3.137l-9.872-8.904 8.729-8.729c0.057-0.017 0.114-0.038 0.169-0.067l1.89-0.998c0.261-0.138 0.436-0.385 0.48-0.676s-0.050-0.579-0.259-0.788l-2.128-2.128c-0.209-0.209-0.496-0.303-0.788-0.259s-0.538 0.219-0.676 0.48l-0.998 1.89c-0.029 0.055-0.052 0.112-0.069 0.17l-4.12 4.12c-0.192 0.192-0.192 0.502 0 0.694s0.502 0.191 0.694 0l3.781-3.781 0.991 0.991-9.669 9.669-0.991-0.991 4.22-4.22c0.192-0.192 0.192-0.502 0-0.694s-0.502-0.191-0.694 0l-3.062 3.062-3.333-3.006c0.945-2.72 0.261-5.746-1.789-7.795-2.099-2.099-5.249-2.768-8.024-1.704-0.155 0.059-0.269 0.193-0.304 0.356s0.015 0.331 0.133 0.449l3.85 3.85c0.114 0.114 0.177 0.265 0.177 0.426s-0.063 0.313-0.177 0.426l-2.5 2.5c-0.114 0.114-0.265 0.177-0.426 0.177s-0.313-0.063-0.426-0.177l-3.85-3.85c-0.117-0.117-0.286-0.167-0.449-0.133s-0.296 0.149-0.356 0.304c-1.064 2.775-0.395 5.924 1.704 8.024 1.999 1.999 4.967 2.703 7.644 1.838l2.577 2.818c-0.124 0.242-0.285 0.468-0.483 0.666-0.743 0.743-1.856 0.977-2.836 0.596-0.181-0.070-0.387-0.027-0.524 0.11l-6.004 6.004c-1.625 1.625-1.625 4.27 0 5.895 0.787 0.788 1.834 1.221 2.948 1.221s2.16-0.434 2.948-1.221l6.004-6.004c0.137-0.137 0.181-0.343 0.11-0.524-0.381-0.98-0.147-2.094 0.596-2.836s1.856-0.977 2.836-0.596c0.181 0.070 0.387 0.027 0.524-0.11l1.133-1.133c0.341-0.341 0.529-0.794 0.529-1.277s-0.188-0.936-0.529-1.277l-0.482-0.482 0.586-0.586 9.91 8.938c0.698 0.63 1.096 1.494 1.12 2.434s-0.329 1.824-0.994 2.489c-0.662 0.662-1.543 1.014-2.477 0.994-0.936-0.021-1.799-0.413-2.43-1.103l-7.368-8.057c-0.183-0.2-0.493-0.214-0.693-0.031s-0.214 0.493-0.031 0.693l7.368 8.057c0.814 0.89 1.926 1.395 3.132 1.422 0.034 0.001 0.067 0.001 0.101 0.001 1.168 0 2.262-0.453 3.091-1.282 0.857-0.857 1.312-1.996 1.28-3.207zM27.884 4.803l0.939-1.778 2.012 2.012-1.778 0.939-1.173-1.173zM10.458 14.19c-0.135-0.148-0.346-0.198-0.533-0.129-2.398 0.894-5.115 0.304-6.923-1.503-1.641-1.641-2.277-4.021-1.717-6.238l3.28 3.28c0.299 0.299 0.697 0.464 1.12 0.464s0.821-0.165 1.12-0.464l2.5-2.5c0.299-0.299 0.464-0.697 0.464-1.12s-0.165-0.821-0.464-1.12l-3.28-3.28c2.217-0.561 4.597 0.075 6.238 1.717 1.854 1.854 2.423 4.625 1.451 7.061-0.076 0.191-0.025 0.408 0.127 0.546l3.542 3.195-0.464 0.464-0.482-0.482c-0.341-0.341-0.794-0.529-1.277-0.529s-0.936 0.188-1.277 0.529l-1.133 1.133c-0.137 0.137-0.181 0.343-0.11 0.524 0.13 0.336 0.187 0.687 0.177 1.034l-2.361-2.582zM19.086 19.282l-0.918 0.918c-1.262-0.364-2.635-0.019-3.575 0.921h-0c-0.94 0.94-1.285 2.313-0.921 3.575l-5.789 5.789c-0.602 0.602-1.403 0.934-2.254 0.934s-1.652-0.332-2.254-0.934c-1.243-1.243-1.243-3.265 0-4.508l5.789-5.789c1.262 0.364 2.635 0.019 3.575-0.921s1.285-2.313 0.921-3.575l0.918-0.918c0.322-0.322 0.845-0.322 1.166 0l3.342 3.342c0.322 0.322 0.322 0.845 0 1.166zM10.145 22.041c-0.192-0.191-0.502-0.191-0.694 0l-4.645 4.645c-0.192 0.192-0.192 0.502 0 0.694 0.096 0.096 0.221 0.144 0.347 0.144s0.251-0.048 0.347-0.144l4.645-4.645c0.191-0.192 0.191-0.502 0-0.694zM11.862 23.757c-0.191-0.191-0.502-0.191-0.694 0l-4.645 4.645c-0.192 0.192-0.192 0.502 0 0.694 0.096 0.096 0.221 0.144 0.347 0.144s0.251-0.048 0.347-0.144l4.645-4.645c0.191-0.192 0.191-0.502 0-0.694z"></path>
</svg>
