<!-- Generated by IcoMoon.io -->
<svg version="1.1" xmlns="http://www.w3.org/2000/svg" width="32" height="32" viewBox="0 0 32 32">
<path d="M26.832 8.298h-5.174v-1.684c0-3.426-2.787-6.214-6.214-6.214s-6.213 2.787-6.213 6.214v1.684h-4.458c-0.376 0-0.681 0.305-0.681 0.681l-3.827 22.74c0 0.376 0.305 0.681 0.681 0.681h30.107c0.376 0 0.681-0.305 0.681-0.681l-4.221-22.74c0-0.376-0.305-0.681-0.681-0.681zM10.593 6.614c0-2.675 2.177-4.852 4.852-4.852s4.852 2.177 4.852 4.852v1.684h-9.704v-1.684zM30.373 31.038h-28.746l3.826-21.379h3.777v2.998c-0.329 0.22-0.544 0.594-0.544 1.019 0 0.677 0.548 1.226 1.225 1.226s1.226-0.548 1.226-1.226c0-0.425-0.217-0.799-0.545-1.019v-2.998h9.705v2.998c-0.328 0.22-0.545 0.594-0.545 1.019 0 0.677 0.548 1.226 1.226 1.226s1.226-0.548 1.226-1.226c0-0.425-0.217-0.799-0.545-1.019v-2.998h4.494l4.222 21.379z"></path>
</svg>
