<!-- Generated by IcoMoon.io -->
<svg version="1.1" xmlns="http://www.w3.org/2000/svg" width="32" height="32" viewBox="0 0 32 32">
<path d="M24.123 2.937c-0.345 0-0.625 0.28-0.625 0.625s0.28 0.625 0.625 0.625c0.345 0 0.625-0.28 0.625-0.625s-0.28-0.625-0.625-0.625z"></path>
<path d="M24.695 0.5c-3.92-1.257-7.195 0.15-8.697 1.016-1.502-0.867-4.777-2.273-8.697-1.016-5.192 1.665-7.626 9.247-3.463 15.364 1.972 2.897 2.236 5.132 2.514 7.497 0.204 1.732 0.415 3.523 1.297 5.616 0.593 1.407 1.431 3.018 2.671 3.017 0.011 0 0.023-0 0.034-0 0.997-0.024 1.801-1.012 2.605-3.207 0.41-1.118 0.672-2.438 0.926-3.714 0.457-2.297 0.93-4.672 2.118-4.681 0.002 0 0.004 0 0.006 0 1.175 0 1.647 2.376 2.103 4.674 0.254 1.28 0.517 2.604 0.927 3.721 0.805 2.197 1.609 3.188 2.605 3.211 0.011 0 0.023 0 0.034 0 1.237 0 2.077-1.613 2.67-3.023 0.843-2.001 1.063-3.787 1.277-5.515 0.3-2.432 0.584-4.73 2.539-7.606 4.212-6.196 1.637-13.721-3.468-15.357zM27.129 15.155c-2.125 3.126-2.441 5.682-2.746 8.155-0.212 1.719-0.413 3.342-1.188 5.183-0.92 2.184-1.453 2.258-1.521 2.258-0.001 0-0.001 0-0.002 0-0.024-0.001-0.599-0.041-1.461-2.392-0.376-1.026-0.629-2.301-0.874-3.534-0.275-1.384-0.534-2.692-0.962-3.713-0.547-1.306-1.343-1.968-2.365-1.968-0.006 0-0.011 0-0.017 0-1.026 0.007-1.825 0.674-2.373 1.983-0.428 1.020-0.687 2.324-0.962 3.704-0.245 1.23-0.498 2.501-0.874 3.528-0.86 2.346-1.437 2.386-1.461 2.387-0.056 0.001-0.596-0.050-1.523-2.253-0.813-1.931-1.005-3.556-1.207-5.277-0.284-2.411-0.578-4.904-2.723-8.054-3.753-5.514-1.491-12.090 2.812-13.47 3.741-1.2 6.829 0.359 7.983 1.085 0.203 0.128 0.462 0.128 0.665 0 1.154-0.726 4.243-2.284 7.983-1.085 4.387 1.406 6.493 8.055 2.816 13.464z"></path>
<path d="M27.317 6.47c-0.203-0.589-0.472-1.132-0.8-1.612-0.195-0.285-0.583-0.359-0.869-0.164s-0.359 0.583-0.164 0.869c0.265 0.388 0.484 0.83 0.65 1.314 0.623 1.808 0.46 3.917-0.446 5.787-0.151 0.311-0.021 0.684 0.29 0.835s0.684 0.021 0.835-0.29c1.049-2.165 1.233-4.622 0.503-6.739z"></path>
<path d="M13.727 8.55l-2.516-0.839-0.839-2.516c-0.085-0.255-0.324-0.427-0.593-0.427s-0.508 0.172-0.593 0.427l-0.839 2.516-2.516 0.839c-0.255 0.085-0.427 0.324-0.427 0.593s0.172 0.508 0.427 0.593l2.516 0.839 0.839 2.516c0.085 0.255 0.324 0.427 0.593 0.427s0.508-0.172 0.593-0.427l0.839-2.516 2.516-0.839c0.255-0.085 0.427-0.324 0.427-0.593s-0.172-0.508-0.427-0.593zM10.519 9.487c-0.187 0.062-0.333 0.209-0.395 0.395l-0.345 1.034-0.345-1.034c-0.062-0.187-0.209-0.333-0.395-0.395l-1.034-0.345 1.034-0.345c0.187-0.062 0.333-0.209 0.395-0.395l0.345-1.034 0.345 1.034c0.062 0.187 0.209 0.333 0.395 0.395l1.034 0.345-1.034 0.345z"></path>
</svg>
