<!-- Generated by IcoMoon.io -->
<svg version="1.1" xmlns="http://www.w3.org/2000/svg" width="32" height="32" viewBox="0 0 32 32">
<path d="M7.226 10.237v-0.173h-1.032v0.173c0 0.296 0.008 0.591 0.023 0.886l1.031-0.053c-0.014-0.277-0.022-0.554-0.022-0.833z"></path>
<path d="M7.33 12.070l-1.026 0.117c0.295 2.6 1.202 5.141 2.62 7.347l0.868-0.558c-1.334-2.074-2.185-4.462-2.463-6.906z"></path>
<path d="M19.025 5.013c-0.894 0.604-1.94 0.923-3.025 0.923s-2.131-0.319-3.025-0.922l-0.578 0.856c1.065 0.719 2.311 1.099 3.602 1.099s2.537-0.38 3.603-1.099l-0.578-0.856z"></path>
<path d="M4.645 19.871h-1.032c0 1.992-1.621 3.613-3.613 3.613v1.032c1.992 0 3.613 1.621 3.613 3.613h1.032c0-1.992 1.621-3.613 3.613-3.613v-1.032c-1.992 0-3.613-1.621-3.613-3.613zM4.129 26.010c-0.444-0.862-1.148-1.566-2.010-2.010 0.862-0.444 1.566-1.148 2.010-2.010 0.444 0.862 1.148 1.566 2.010 2.010-0.862 0.444-1.566 1.148-2.010 2.010z"></path>
<path d="M28.387 6.452h-0.988c-0.978-2.431-3.37-4.129-6.082-4.129-1.28 0-2.484 0.346-3.481 1.001-1.104 0.727-2.568 0.727-3.673 0-0.997-0.654-2.2-1.001-3.481-1.001-3.614 0-6.554 2.94-6.554 6.554v1.361c0 3.701 1.058 7.301 3.059 10.414 1.077 1.675 1.867 3.503 2.35 5.435l0.562 2.247c0.197 0.792 0.905 1.344 1.72 1.344 0.885 0 1.623-0.635 1.754-1.511l1.158-7.72c0.095-0.632 0.629-1.092 1.268-1.092s1.173 0.459 1.268 1.092l1.158 7.72c0.131 0.875 0.869 1.511 1.754 1.511 0.815 0 1.523-0.552 1.72-1.344l0.562-2.247c0.483-1.932 1.274-3.761 2.351-5.435 1.176-1.83 2.037-3.874 2.54-5.995-0.001 0.018 0.002 0.036 0.002 0.054h1.032c0-1.992 1.621-3.613 3.613-3.613v-1.032c-1.992 0-3.613-1.621-3.613-3.613zM23.944 20.093c-1.138 1.77-1.973 3.703-2.484 5.743l-0.563 2.247c-0.082 0.331-0.378 0.562-0.718 0.562-0.37 0-0.678-0.266-0.733-0.632l-1.158-7.72c-0.171-1.142-1.134-1.971-2.289-1.971s-2.118 0.828-2.289 1.971l-1.158 7.72c-0.054 0.366-0.363 0.632-0.733 0.632-0.341 0-0.636-0.231-0.719-0.562l-0.562-2.247c-0.51-2.041-1.346-3.974-2.484-5.743-1.893-2.946-2.894-6.354-2.894-9.855v-1.361c0-3.045 2.477-5.522 5.522-5.522 1.078 0 2.086 0.287 2.914 0.831 0.723 0.475 1.532 0.717 2.404 0.717s1.681-0.242 2.403-0.717c0.828-0.544 1.836-0.831 2.914-0.831 2.723 0 5.073 2.029 5.46 4.678l0.022 0.336c-0.64 1.016-1.769 1.695-3.057 1.695v1.032c1.212 0 2.284 0.602 2.939 1.52-0.348 2.647-1.294 5.231-2.737 7.476zM27.871 12.591c-0.444-0.862-1.148-1.566-2.010-2.010 0.862-0.444 1.566-1.148 2.010-2.010 0.444 0.862 1.148 1.566 2.010 2.010-0.862 0.444-1.566 1.148-2.010 2.010z"></path>
</svg>
