<!-- Generated by IcoMoon.io -->
<svg version="1.1" xmlns="http://www.w3.org/2000/svg" width="32" height="32" viewBox="0 0 32 32">
<path d="M29.552 3.581c-1.659-1.858-3.943-2.881-6.431-2.881-1.945 0-4.042 1.157-5.575 2.002-0.558 0.308-1.321 0.729-1.546 0.757-0.225-0.027-0.984-0.447-1.54-0.755-1.529-0.846-3.622-2.004-5.581-2.004-2.488 0-4.771 1.023-6.431 2.881-1.579 1.767-2.448 4.094-2.448 6.551 0 3.51 1.26 8.501 3.371 13.352 0.939 2.158 1.939 4.023 2.891 5.393 1.133 1.631 2.106 2.423 2.973 2.423 0.385 0 1.090-0.163 1.485-1.257 0.384-1.063 0.73-2.283 1.097-3.577 0.97-3.424 2.177-7.686 4.121-7.686h0.123c0.864 0 1.638 0.74 2.365 2.263 0.72 1.508 1.268 3.514 1.798 5.456 0.35 1.284 0.682 2.497 1.054 3.54 0.387 1.087 1.084 1.25 1.466 1.25 0.863-0 1.835-0.805 2.971-2.46 0.95-1.384 1.952-3.268 2.897-5.447 2.122-4.89 3.389-9.844 3.389-13.251 0-2.457-0.869-4.783-2.448-6.551zM22.521 6.1c-0.020-0.001-2.029-0.098-3.859-0.582-0.825-0.218-1.8-0.657-1.8-0.787 0-0.127 1.060-0.744 1.315-0.885 1.407-0.776 3.335-1.84 4.944-1.84 4.74 0 7.572 4.131 7.572 8.125 0 3.19-1.257 8.068-3.281 12.731-0.9 2.073-1.886 3.93-2.776 5.228-1.027 1.497-1.692 1.933-1.893 1.893-0.124-0.024-0.139-0.112-0.235-0.382-0.356-0.998-0.681-2.188-1.025-3.448-0.545-1.995-1.108-4.059-1.879-5.674-0.966-2.023-2.125-3.006-3.544-3.006h-0.123c-1.366 0-2.499 0.976-3.462 2.982-0.768 1.602-1.352 3.662-1.916 5.654-0.36 1.269-0.699 2.469-1.068 3.488-0.081 0.225-0.107 0.372-0.257 0.395-0.118 0.018-0.621-0.021-1.901-1.863-0.891-1.282-1.873-3.118-2.766-5.169-2.013-4.625-3.263-9.541-3.263-12.831 0-3.994 2.833-8.125 7.573-8.125 1.232 0 2.851 0.561 4.331 1.502 0.217 0.138 0.523 0.373 0.818 0.6 0.118 0.091 0.234 0.18 0.342 0.261 0.347 0.26 0.816 0.6 1.366 0.924 0.235 0.139 0.527 0.311 0.837 0.443 1.186 0.503 2.444 0.759 3.738 0.759 1.319 0 2.206-0.235 2.214-0.237 0 0 0.198-0.052 0.192-0.104s-0.197-0.053-0.197-0.053z"></path>
</svg>
