<!-- Generated by IcoMoon.io -->
<svg version="1.1" xmlns="http://www.w3.org/2000/svg" width="32" height="32" viewBox="0 0 32 32">
<path d="M23.2 24h-16c-2.206 0-4-1.794-4-4v-16c0-2.206 1.794-4 4-4h16c2.206 0 4 1.794 4 4v16c0 2.206-1.794 4-4 4zM7.2 1.6c-1.323 0-2.4 1.077-2.4 2.4v16c0 1.323 1.077 2.4 2.4 2.4h16c1.323 0 2.4-1.077 2.4-2.4v-16c0-1.323-1.077-2.4-2.4-2.4h-16zM30.316 30.842l-3.2-6.4c-0.198-0.395-0.678-0.555-1.073-0.358s-0.555 0.678-0.358 1.073l0.221 0.442h-21.411l0.221-0.442c0.198-0.395 0.037-0.876-0.358-1.073s-0.876-0.037-1.073 0.358l-3.2 6.4c-0.198 0.395-0.037 0.876 0.358 1.073 0.115 0.057 0.237 0.085 0.357 0.085 0.293 0 0.576-0.162 0.716-0.442l0.579-1.158h26.211l0.579 1.158c0.14 0.28 0.423 0.442 0.716 0.442 0.12 0 0.242-0.027 0.357-0.085 0.395-0.198 0.555-0.678 0.358-1.073zM2.894 28.8l0.8-1.6h23.011l0.8 1.6h-24.611zM8.8 20.8c-1.323 0-2.4-1.077-2.4-2.4s1.077-2.4 2.4-2.4 2.4 1.077 2.4 2.4-1.077 2.4-2.4 2.4zM8.8 17.6c-0.441 0-0.8 0.359-0.8 0.8s0.359 0.8 0.8 0.8 0.8-0.359 0.8-0.8-0.359-0.8-0.8-0.8zM21.6 20.8c-1.323 0-2.4-1.077-2.4-2.4s1.077-2.4 2.4-2.4 2.4 1.077 2.4 2.4-1.077 2.4-2.4 2.4zM21.6 17.6c-0.441 0-0.8 0.359-0.8 0.8s0.359 0.8 0.8 0.8 0.8-0.359 0.8-0.8-0.359-0.8-0.8-0.8zM20 4.8h-9.6c-0.442 0-0.8-0.358-0.8-0.8s0.358-0.8 0.8-0.8h9.6c0.442 0 0.8 0.358 0.8 0.8s-0.358 0.8-0.8 0.8zM23.2 6.4h-16c-0.442 0-0.8 0.358-0.8 0.8v6.4c0 0.442 0.358 0.8 0.8 0.8h16c0.442 0 0.8-0.358 0.8-0.8v-6.4c0-0.442-0.358-0.8-0.8-0.8zM8 8h6.4v4.8h-6.4v-4.8zM22.4 12.8h-6.4v-4.8h6.4v4.8z"></path>
</svg>
