<!-- Generated by IcoMoon.io -->
<svg version="1.1" xmlns="http://www.w3.org/2000/svg" width="32" height="32" viewBox="0 0 32 32">
<path d="M31.936 31.232l-11.904-17.408v-2.816c0-0.256-0.192-0.512-0.512-0.512h-0.512v-1.024c0-0.256-0.192-0.512-0.512-0.512h-1.024v-1.024h4.48c0.128 0 0.256-0.064 0.384-0.128l0.512-0.512c0.064-0.064 0.128-0.192 0.128-0.384v-0.512l2.56-0.448c0.256-0.064 0.448-0.256 0.448-0.512v-2.944c0-0.256-0.192-0.448-0.448-0.512l-2.56-0.448v-0.512c0-0.128-0.064-0.256-0.128-0.384l-0.512-0.512c-0.064-0.064-0.192-0.128-0.32-0.128h-11.52c-0.256 0-0.512 0.192-0.512 0.512v1.024h-1.408l-1.92-0.96c-0.128-0.064-0.32-0.064-0.512 0-0.064 0.064-0.128 0.256-0.128 0.448v6.016c0 0.192 0.064 0.32 0.256 0.448 0.128 0.064 0.32 0.128 0.512 0l1.92-0.96h1.408v1.024c0 0.256 0.192 0.512 0.512 0.512h4.032v1.024h-1.024c-0.256 0-0.512 0.192-0.512 0.512v1.024h-0.512c-0.256 0-0.512 0.192-0.512 0.512v2.816l-12.032 17.28c-0.064 0.128-0.064 0.32 0 0.512 0.064 0.128 0.256 0.256 0.448 0.256h3.008c0.192 0 0.32-0.064 0.384-0.192l10.176-14.208 0.448 13.952c0 0.256 0.256 0.512 0.512 0.512h1.984c0.256 0 0.512-0.192 0.512-0.512l0.384-13.952 10.112 14.208c0.064 0.128 0.256 0.192 0.384 0.192h3.008c0.192 0 0.384-0.128 0.448-0.256 0.128-0.192 0.128-0.384 0.064-0.512zM16.96 14.528h2.24l7.168 10.496h-1.984l-7.424-10.496zM7.552 25.024h-1.984l7.168-10.496h2.24l-7.424 10.496zM25.024 5.056l-1.984 0.32v-2.816l1.984 0.32v2.176zM22.016 1.216v5.568l-0.192 0.192h-0.768v-5.952h0.768l0.192 0.192zM6.976 1.792l1.024 0.512v3.392l-1.024 0.512v-4.416zM9.024 2.496h1.024v3.008h-1.024v-3.008zM11.008 6.016v-4.992h9.024v6.016h-9.024v-1.024zM15.488 8h1.024v1.024h-1.024v-1.024zM14.016 9.984h4.032v0.512h-4.032v-0.512zM12.992 11.52h6.016v1.984h-6.016v-1.984zM3.264 30.976h-1.792l3.456-4.992h1.92l-3.584 4.992zM15.488 30.976l-0.192-4.992h1.344l-0.192 4.992h-0.96zM16.704 25.024h-1.408l-0.256-8.768 0.96-1.408 0.96 1.408-0.256 8.768zM28.736 30.976l-3.584-4.992h1.92l3.456 4.992h-1.792z"></path>
<path d="M11.52 1.472h1.024v1.024h-1.024v-1.024z"></path>
</svg>
