<!-- Generated by IcoMoon.io -->
<svg version="1.1" xmlns="http://www.w3.org/2000/svg" width="32" height="32" viewBox="0 0 32 32">
<path d="M23.038 21.988h-22.35v-1.319h21.306l4.625-19.581h4.694v1.313h-3.65zM18.606 31.712c-1.956 0-3.519-1.575-3.519-3.55s1.563-3.55 3.519-3.55 3.519 1.575 3.519 3.55-1.631 3.55-3.519 3.55zM18.606 25.931c-1.238 0-2.212 0.988-2.212 2.238s0.975 2.238 2.212 2.238 2.212-0.988 2.212-2.238c0-1.256-1.038-2.238-2.212-2.238zM5.444 31.712c-1.956 0-3.519-1.575-3.519-3.55s1.563-3.55 3.519-3.55 3.519 1.575 3.519 3.55-1.563 3.55-3.519 3.55zM5.444 25.931c-1.237 0-2.212 0.988-2.212 2.238s0.975 2.238 2.212 2.238 2.213-0.988 2.213-2.238c0.006-1.256-0.975-2.238-2.213-2.238zM19.913 18.769h-15.769v-17.087h15.769v17.087zM5.444 17.45h13.162v-14.456h-13.162v14.456z"></path>
</svg>
