<!-- Generated by IcoMoon.io -->
<svg version="1.1" xmlns="http://www.w3.org/2000/svg" width="32" height="32" viewBox="0 0 32 32">
<path d="M30.444 23.981l-0.325-1.262-12.456 3.225c-0.55-1.856-2.275-3.225-4.313-3.225-0.475 0-0.938 0.075-1.369 0.212l-4.106-17.475-5.469-4.369-0.85 0.975 5.15 4.106 4.106 17.337c-1.181 0.813-1.963 2.169-1.963 3.706 0 2.475 2.019 4.494 4.494 4.494 2.531 0 4.481-2.006 4.494-4.469l12.606-3.256zM13.35 30.475c-1.825 0-3.256-1.5-3.256-3.256 0-1.825 1.5-3.256 3.256-3.256 1.825 0 3.256 1.431 3.256 3.256s-1.494 3.256-3.256 3.256zM14.981 13.075l2.738 10.75 11.206-2.863-2.738-10.75-2.319 0.594-1.919-7.563-8.863 2.275 1.919 7.55-0.025 0.006zM21.038 4.869l1.563 6.256-6.387 1.631-1.563-6.256 6.387-1.631zM27.363 20.050l-8.731 2.212-2.087-8.275 8.731-2.213 2.087 8.275z"></path>
</svg>
