<!-- Generated by IcoMoon.io -->
<svg version="1.1" xmlns="http://www.w3.org/2000/svg" width="32" height="32" viewBox="0 0 32 32">
<path d="M23.219 23.225h-21.85v-1.231h20.744l3.381-20.875h5.137v1.3h-4.031zM17.756 31.681c-1.819 0-3.319-1.494-3.319-3.381s1.494-3.381 3.319-3.381c1.819 0 3.319 1.494 3.319 3.381-0.006 1.887-1.5 3.381-3.319 3.381zM17.756 26.219c-1.169 0-2.081 0.975-2.081 2.081 0 1.169 0.913 2.081 2.081 2.081s2.081-0.975 2.081-2.081c-0.069-1.169-0.975-2.081-2.081-2.081zM5.725 31.681c-1.819 0-3.319-1.494-3.319-3.381s1.494-3.381 3.319-3.381 3.319 1.494 3.319 3.381c0.063 1.887-1.431 3.381-3.319 3.381zM5.725 26.219c-1.169 0-2.081 0.975-2.081 2.081 0 1.169 0.912 2.081 2.081 2.081s2.081-0.975 2.081-2.081c0-1.169-0.906-2.081-2.081-2.081zM19.25 20.238h-13.719v-17.688h13.719v17.688zM6.831 19h11.119v-15.213h-11.119v15.213z"></path>
</svg>
