<!-- Generated by IcoMoon.io -->
<svg version="1.1" xmlns="http://www.w3.org/2000/svg" width="32" height="32" viewBox="0 0 32 32">
<path d="M31.751 0.313c-0.187-0.206-0.458-0.32-0.733-0.312-0.108 0.003-2.693 0.083-6.131 0.998-3.187 0.848-7.736 2.609-11.304 6.177-0.253 0.253-0.344 0.627-0.233 0.969l2.235 6.92-4.298 4.298-1.345-1.345c-0.179-0.179-0.422-0.28-0.675-0.28s-0.496 0.101-0.675 0.28l-7.476 7.476c-0.72 0.72-1.116 1.677-1.116 2.695s0.396 1.975 1.116 2.695c0.743 0.743 1.719 1.115 2.695 1.115s1.952-0.372 2.695-1.115l7.476-7.476c0.373-0.373 0.373-0.977 0-1.35l-1.345-1.345 4.298-4.298 6.886 2.224c0.105 0.038 0.216 0.058 0.327 0.058 0.244 0 0.489-0.093 0.675-0.28 3.568-3.568 5.328-8.116 6.177-11.303 0.915-3.438 0.995-6.022 0.998-6.131 0.007-0.246-0.083-0.487-0.249-0.669zM5.156 29.533c-0.741 0.741-1.948 0.741-2.69 0s-0.741-1.948 0-2.69l3.968-3.968 2.69 2.69zM10.475 24.214l-2.69-2.69 1.482-1.482 1.344 1.344c0 0 0 0 0.001 0s0 0 0.001 0l1.344 1.344zM22.735 9.265c-0.373-0.373-0.977-0.373-1.35 0l-4.282 4.282-1.751-5.424c3.19-2.988 7.157-4.51 9.979-5.266 1.964-0.526 3.653-0.763 4.68-0.867-0.105 1.028-0.341 2.716-0.867 4.68-0.756 2.822-2.278 6.789-5.265 9.979l-5.425-1.752 4.282-4.282c0.373-0.373 0.373-0.978 0-1.35z"></path>
</svg>
