<!-- Generated by IcoMoon.io -->
<svg version="1.1" xmlns="http://www.w3.org/2000/svg" width="32" height="32" viewBox="0 0 32 32">
<path d="M25.056 5.65h-5.669v-3h-16.944c-0.975 0-1.756 0.781-1.756 1.763v18.894c0 0.975 0.781 1.756 1.756 1.756h2.037c-0.056 0.275-0.081 0.556-0.081 0.85 0 2.344 1.888 4.238 4.237 4.238 2.344 0 4.3-1.956 4.237-4.238 0-0.269-0.025-0.531-0.075-0.781h7.769c-0.050 0.256-0.075 0.512-0.075 0.781 0 2.344 1.887 4.238 4.238 4.238s4.238-1.956 4.238-4.238c0-0.269-0.025-0.531-0.075-0.781h0.656c0.975 0 1.756-0.85 1.756-1.825v-8.6l-6.25-9.056zM24.406 6.888l5.081 7.362h-10.031v-7.362h4.95zM8.637 28.844c-1.631 0-3-1.369-3-3s1.369-3 3-3c1.694 0 3 1.369 3 3-0.006 1.631-1.369 3-3 3zM12.325 23.831c-0.725-1.288-2.1-2.15-3.688-2.15-1.563 0-2.919 0.837-3.65 2.087h-2.544c-0.263 0-0.456-0.194-0.456-0.456v-18.9c0-0.263 0.194-0.456 0.456-0.456h15.706v19.875h-5.825zM24.731 28.844c-1.631 0-3-1.369-3-3s1.369-3 3-3 3 1.369 3 3c0 1.631-1.369 3-3 3zM29.556 23.831h-1.131c-0.725-1.288-2.1-2.15-3.688-2.15s-2.962 0.863-3.688 2.15h-1.587v-8.281h10.619v7.756c-0.006 0.262-0.269 0.525-0.525 0.525zM4.013 13.012h12.050v-5.15h-12.050v5.15zM5.313 9.169h9.512v2.606h-9.512v-2.606z"></path>
</svg>
