<!-- Generated by IcoMoon.io -->
<svg version="1.1" xmlns="http://www.w3.org/2000/svg" width="32" height="32" viewBox="0 0 32 32">
<path d="M21.2 7.888v6.175h5.85v-2.206l-2.6-3.963h-3.25zM25.75 12.756h-3.313v-3.638h1.3l2.012 3.119v0.519zM31.294 21.731l-0.975 0.006-0.038-8.706-4.706-7.456-6.694 0.025 0.063 16.181-1.431 0.006-0.069-16.894 3.375-1.375-0.525-1.169-4.15 1.706 0.012 2.469-15.469 0.056 0.081 20.988 2.638-0.012c0.263 1.644 1.706 2.919 3.419 2.913 1.706-0.006 3.144-1.294 3.394-2.938l11.65-0.044c0.262 1.644 1.706 2.919 3.419 2.913 1.706-0.006 3.144-1.294 3.394-2.938l2.637-0.012-0.025-5.719zM2.031 7.825h14.231v13.844h-14.231v-13.844zM20.225 6.85h4.681l4.094 6.625v8.319h-8.775v-14.944zM6.775 29.137c-1.169 0-2.144-0.975-2.144-2.144s0.975-2.144 2.144-2.144c1.169 0 2.144 0.975 2.144 2.144s-0.975 2.144-2.144 2.144zM25.225 29.137c-1.169 0-2.144-0.975-2.144-2.144s0.975-2.144 2.144-2.144c1.169 0 2.144 0.975 2.144 2.144 0.006 1.169-0.969 2.144-2.144 2.144zM29.969 26.212h-1.394c-0.356-1.519-1.738-2.663-3.35-2.663-1.619 0-2.994 1.15-3.35 2.663h-11.75c-0.356-1.519-1.738-2.663-3.35-2.663-1.619 0-2.994 1.15-3.35 2.663h-1.394v-3.188h27.944v3.188z"></path>
</svg>
