<!-- Generated by IcoMoon.io -->
<svg version="1.1" xmlns="http://www.w3.org/2000/svg" width="32" height="32" viewBox="0 0 32 32">
<path d="M25.050 8.194h-5.662v-4.231h-16.931c-0.975 0-1.756 0.781-1.756 1.756v16.344c0 0.975 0.781 1.756 1.756 1.756h2.025c-0.050 0.256-0.075 0.512-0.075 0.781 0 2.344 1.888 4.231 4.231 4.231s4.3-1.887 4.231-4.231c0-0.269-0.025-0.525-0.075-0.781h7.769c-0.050 0.256-0.075 0.512-0.075 0.781 0 2.344 1.887 4.231 4.231 4.231s4.231-1.887 4.231-4.231c0-0.269-0.025-0.525-0.075-0.781h0.656c0.975 0 1.756-0.781 1.756-1.825v-6.056l-6.238-7.744zM8.644 27.6c-1.625 0-2.994-1.369-2.994-2.994s1.369-2.994 2.994-2.994c1.694 0 2.994 1.369 2.994 2.994s-1.369 2.994-2.994 2.994zM12.331 22.519c-0.725-1.281-2.1-2.15-3.688-2.15s-2.963 0.863-3.688 2.15h-2.5c-0.263 0-0.456-0.194-0.456-0.456v-16.337c0-0.263 0.194-0.456 0.456-0.456h15.694v17.256h-5.819zM24.725 27.594c-1.625 0-2.994-1.369-2.994-2.994s1.369-2.994 2.994-2.994c1.625 0 2.994 1.369 2.994 2.994s-1.369 2.994-2.994 2.994zM30.063 21.994c0 0.262-0.262 0.519-0.519 0.519h-1.131c-0.725-1.281-2.1-2.15-3.688-2.15s-2.962 0.863-3.688 2.15h-1.587v-13.088h5.012l5.6 6.969v5.6z"></path>
</svg>
