<!-- Generated by IcoMoon.io -->
<svg version="1.1" xmlns="http://www.w3.org/2000/svg" width="49" height="32" viewBox="0 0 49 32">
<path d="M8.367 32c-2.938 0-5.301-2.363-5.301-5.301s2.363-5.301 5.301-5.301 5.301 2.363 5.301 5.301c0.064 2.938-2.363 5.301-5.301 5.301zM8.367 22.866c-2.108 0-3.832 1.725-3.832 3.832s1.725 3.832 3.832 3.832 3.832-1.725 3.832-3.832c0-2.108-1.725-3.832-3.832-3.832z"></path>
<path d="M8.367 29.701c-1.661 0-3.066-1.341-3.066-3.066s1.341-3.066 3.066-3.066 3.066 1.341 3.066 3.066-1.341 3.066-3.066 3.066zM8.367 25.166c-0.83 0-1.533 0.703-1.533 1.533s0.703 1.533 1.533 1.533 1.533-0.703 1.533-1.533-0.703-1.533-1.533-1.533z"></path>
<path d="M40.367 32c-2.427 0-4.599-1.661-5.174-4.024s0.511-4.854 2.683-6.004c2.172-1.15 4.854-0.639 6.451 1.15 0.894 0.958 1.341 2.236 1.341 3.577 0.064 2.938-2.363 5.301-5.301 5.301zM40.367 22.866c-2.108 0-3.768 1.725-3.832 3.832 0 2.108 1.725 3.832 3.832 3.832s3.832-1.725 3.832-3.832c0-2.108-1.725-3.832-3.832-3.832z"></path>
<path d="M40.367 29.701c-1.661 0-3.066-1.341-3.066-3.066s1.341-3.066 3.066-3.066c1.661 0 3.066 1.341 3.066 3.066s-1.405 3.066-3.066 3.066zM40.367 25.166c-0.83 0-1.533 0.703-1.533 1.533s0.703 1.533 1.533 1.533c0.83 0 1.533-0.703 1.533-1.533s-0.703-1.533-1.533-1.533z"></path>
<path d="M29.701 32c-2.427 0-4.599-1.661-5.174-4.024s0.511-4.854 2.683-6.004c2.172-1.15 4.854-0.639 6.451 1.15 0.894 0.958 1.341 2.236 1.341 3.577 0.064 2.938-2.363 5.301-5.301 5.301zM29.701 22.866c-2.108 0-3.768 1.725-3.832 3.832 0 2.108 1.725 3.832 3.832 3.832s3.832-1.725 3.832-3.832c0-2.108-1.725-3.832-3.832-3.832z"></path>
<path d="M29.701 29.701c-1.661 0-3.066-1.341-3.066-3.066s1.341-3.066 3.066-3.066 3.066 1.341 3.066 3.066-1.341 3.066-3.066 3.066zM29.701 25.166c-0.83 0-1.533 0.703-1.533 1.533s0.703 1.533 1.533 1.533 1.533-0.703 1.533-1.533-0.703-1.533-1.533-1.533z"></path>
<path d="M3.832 27.401h-3.066c-0.447 0-0.766-0.319-0.766-0.766v-21.333c0-0.447 0.319-0.766 0.766-0.766h15.202c0.447 0 0.766 0.319 0.766 0.766v21.333h-1.533v-20.567h-13.669v19.8h2.299v1.533z"></path>
<path d="M12.966 25.932h12.2v1.533h-12.2v-1.533z"></path>
<path d="M47.968 27.401h-3.066v-1.533h2.299v-1.533h-3.832v-1.533h4.599c0.447 0 0.766 0.319 0.766 0.766v3.066c0 0.447-0.319 0.766-0.766 0.766z"></path>
<path d="M15.968 22.866h10.667v1.533h-10.667v-1.533z"></path>
<path d="M32.766 22.866h4.599v1.533h-4.599v-1.533z"></path>
<path d="M34.299 25.932h1.533v1.533h-1.533v-1.533z"></path>
<path d="M19.8 23.633h-1.533v-22.1h-1.533v3.832h-1.533v-4.599c0.064-0.447 0.383-0.766 0.766-0.766h3.066c0.447 0 0.766 0.319 0.766 0.766v22.866z"></path>
<path d="M48.735 23.633h-1.533v-22.1h-1.533v22.1h-1.533v-22.866c0-0.447 0.319-0.766 0.766-0.766h3.066c0.447 0 0.766 0.319 0.766 0.766v22.866z"></path>
<path d="M39.601 20.567h-15.202c-0.447 0-0.766-0.319-0.766-0.766v-18.267c0-0.447 0.319-0.766 0.766-0.766h15.202c0.447 0 0.766 0.319 0.766 0.766v18.267c0 0.447-0.319 0.766-0.766 0.766zM25.166 19.034h13.733v-16.735h-13.733v16.735z"></path>
<path d="M39.090 2.044l1.086-1.086 5.301 5.301-1.086 1.086-5.301-5.301z"></path>
<path d="M39.090 19.289l5.301-5.301 1.086 1.086-5.301 5.301-1.086-1.086z"></path>
<path d="M18.523 6.323l5.301-5.301 1.086 1.022-5.301 5.301-1.086-1.022z"></path>
<path d="M18.523 15.010l1.086-1.086 5.301 5.301-1.086 1.086-5.301-5.301z"></path>
<path d="M24.399 3.832h12.966v1.533h-12.966v-1.533z"></path>
<path d="M24.399 6.834h11.433v1.533h-11.433v-1.533z"></path>
<path d="M12.2 14.499h-11.433v-1.533h10.667v-7.665h1.533v8.367c0 0.447-0.383 0.83-0.766 0.83z"></path>
<path d="M11.433 5.301h-1.533v-3.832h-3.832v3.832h-1.469v-4.535c0-0.447 0.319-0.766 0.703-0.766h5.301c0.447 0 0.766 0.319 0.766 0.766v4.535z"></path>
</svg>
