<!-- Generated by IcoMoon.io -->
<svg version="1.1" xmlns="http://www.w3.org/2000/svg" width="32" height="32" viewBox="0 0 32 32">
<path d="M31.817 10.499l-6.774-6.739c-0.105-0.14-0.279-0.209-0.454-0.209h-4.818c-0.314 0-0.594 0.244-0.628 0.594-0.105 1.641-1.501 2.933-3.142 2.933s-3.038-1.292-3.142-2.933c-0.035-0.314-0.279-0.594-0.628-0.594h-4.783c-0.14 0-0.314 0.070-0.454 0.175l-6.809 6.774c-0.244 0.244-0.244 0.628 0 0.873l5.272 5.272c0.244 0.244 0.628 0.244 0.873 0l0.489-0.489v12.465c0 0.349 0.279 0.628 0.628 0.628h17.143c0.349 0 0.628-0.279 0.628-0.628v-12.43l0.454 0.454c0.244 0.244 0.628 0.244 0.873 0l5.272-5.272c0.244-0.244 0.244-0.628 0-0.873zM26.091 15.318l-1.082-1.082c-0.175-0.175-0.454-0.244-0.698-0.14s-0.384 0.314-0.384 0.594v13.338h-15.852v-13.373c0-0.244-0.14-0.489-0.384-0.594s-0.489-0.035-0.698 0.14l-1.117 1.117-4.364-4.364 6.145-6.145h4.015c0.454 1.99 2.235 3.492 4.33 3.492s3.911-1.501 4.295-3.526h4.015l6.145 6.145-4.364 4.399z"></path>
</svg>
