<!-- Generated by IcoMoon.io -->
<svg version="1.1" xmlns="http://www.w3.org/2000/svg" width="32" height="32" viewBox="0 0 32 32">
<path d="M11.313 0v2.817c-0.002 2.566-2.089 4.683-4.688 4.683h-0.938v7.5h3.75v6.688c0 5.686 4.626 10.313 10.313 10.313h6.563v-9.375h-6.563c-0.517 0-0.938-0.421-0.938-0.938v-6.688h7.5v-7.5h-7.5v-7.5zM24.438 9.375v3.75h-7.5v8.563c0 1.551 1.262 2.813 2.813 2.813h4.688v5.625h-4.688c-4.652 0-8.438-3.785-8.438-8.438v-8.563h-3.75v-3.817c1.309-0.188 2.494-0.764 3.436-1.607l0.002 0.002c1.334-1.194 2.187-2.948 2.187-4.891v-0.938h3.75v7.5z"></path>
</svg>
