<!-- Generated by IcoMoon.io -->
<svg version="1.1" xmlns="http://www.w3.org/2000/svg" width="32" height="32" viewBox="0 0 32 32">
<path d="M13.295 23.225c0.748 0.772 1.656 1.157 2.723 1.157h7.687c1.066 0 1.982 0.394 2.744 1.181 0.763 0.786 1.144 1.728 1.144 2.828s-0.38 2.046-1.144 2.83c-0.762 0.786-1.675 1.179-2.743 1.179h-7.684c-3.201 0-5.936-1.171-8.207-3.516-2.273-2.344-3.408-5.168-3.408-8.471v-16.001c0-1.132 0.379-2.084 1.135-2.855 0.756-0.77 1.681-1.156 2.772-1.156 1.059 0 1.97 0.393 2.725 1.181 0.758 0.785 1.137 1.727 1.137 2.829v4.008h11.519c1.070 0 1.988 0.394 2.753 1.18s1.147 1.729 1.147 2.83c0 1.099-0.381 2.043-1.144 2.829-0.762 0.786-1.678 1.179-2.744 1.179h-11.531v3.974c0 1.103 0.373 2.042 1.12 2.816z"></path>
</svg>
