<!-- Generated by IcoMoon.io -->
<svg version="1.1" xmlns="http://www.w3.org/2000/svg" width="32" height="32" viewBox="0 0 32 32">
<path d="M12.638 32l3.75-3.75h9.438l6.174-6.174v-22.076h-27.701l-4.299 4.299v23.951h7.5v3.75zM1.875 26.375v-21.299l3.201-3.201h25.049v19.424l-5.076 5.076h-9.438l-3.75 3.75h-2.487v-3.75z"></path>
<path d="M11.313 27.701l5.076-5.076h7.563l4.299-4.299v-14.576h-22.625v18.875h5.688zM7.5 20.75v-15.125h18.875v11.924l-3.201 3.201h-7.563l-2.424 2.424v-2.424z"></path>
<path d="M15.063 10.313h1.875v5.75h-1.875z"></path>
<path d="M20.75 10.313h1.875v5.75h-1.875z"></path>
</svg>
