<!-- Generated by IcoMoon.io -->
<svg version="1.1" xmlns="http://www.w3.org/2000/svg" width="32" height="32" viewBox="0 0 32 32">
<path d="M32 6.435c-2.013 0.093-1.969 0.085-2.197 0.104l1.192-3.405s-3.721 1.369-4.665 1.614c-2.478-2.227-6.16-2.325-8.793-0.707-2.156 1.325-3.313 3.602-2.927 6.262-4.196-0.582-7.731-2.571-10.523-5.924l-0.883-1.060-0.66 1.211c-0.834 1.531-1.111 3.281-0.78 4.928 0.136 0.676 0.366 1.32 0.686 1.924l-0.757-0.293-0.090 1.265c-0.091 1.285 0.337 2.786 1.145 4.013 0.228 0.346 0.52 0.725 0.892 1.1l-0.391-0.060 0.478 1.45c0.628 1.905 1.931 3.379 3.623 4.198-1.69 0.717-3.055 1.175-5.298 1.913l-2.053 0.675 1.896 1.037c0.723 0.395 3.277 1.715 5.801 2.111 5.61 0.88 11.927 0.163 16.179-3.666 3.582-3.226 4.757-7.814 4.513-12.59-0.037-0.723 0.161-1.413 0.558-1.942 0.794-1.060 3.048-4.15 3.053-4.157zM27.448 9.47c-0.658 0.879-0.988 2.002-0.929 3.161 0.246 4.817-1.064 8.552-3.896 11.102-3.307 2.979-8.642 4.148-14.636 3.208-1.085-0.17-2.207-0.551-3.136-0.932 1.881-0.647 3.334-1.224 5.68-2.334l3.275-1.55-3.616-0.231c-1.732-0.111-3.174-0.95-4.061-2.313 0.471-0.027 0.925-0.104 1.376-0.23l3.449-0.96-3.477-0.852c-1.69-0.414-2.653-1.425-3.163-2.2-0.335-0.51-0.554-1.031-0.686-1.513 0.349 0.094 0.755 0.16 1.411 0.225l3.218 0.318-2.55-1.989c-1.837-1.433-2.574-3.586-2.034-5.656 5.734 5.948 12.467 5.501 13.145 5.658-0.149-1.449-0.153-1.452-0.192-1.59-0.868-3.068 1.034-4.626 1.892-5.153 1.792-1.101 4.636-1.267 6.607 0.547 0.426 0.392 1.001 0.546 1.54 0.412 0.483-0.12 0.88-0.247 1.269-0.386l-0.809 2.309 1.032 0.001c-0.195 0.261-0.428 0.574-0.709 0.949z"></path>
</svg>
