<!-- Generated by IcoMoon.io -->
<svg version="1.1" xmlns="http://www.w3.org/2000/svg" width="32" height="32" viewBox="0 0 32 32">
<path d="M16.519 2.094v-1.006h-1.306v1.012c-8.1 0.35-14.525 6.063-14.525 12.969v0.131l1.044-0.069c0-1.331 1.369-2.4 3-2.4 1.694 0 3.063 1.131 3.063 2.463h1.306c0-1.4 1.369-2.463 3.063-2.463s3.063 1.131 3.063 2.463v12.713c0 2.131 1.631 3.794 3.65 3.794s3.65-1.663 3.65-3.794h-1.306c0 1.331-1.044 2.462-2.344 2.462s-2.344-1.131-2.344-2.462v-12.725c0.012-1.387 1.375-2.444 3.063-2.444 1.694 0 3.063 1.131 3.063 2.463h1.306c0-1.4 1.369-2.463 3.063-2.463 1.631 0 3 1.063 3 2.4h1.288v-0.069c0-6.981-6.563-12.744-14.794-12.975zM26.944 11.406c-1.5 0-2.869 0.731-3.65 1.8-0.719-1.063-2.087-1.8-3.65-1.8-1.5 0-2.869 0.731-3.713 1.863-0.719-1.063-2.088-1.8-3.65-1.8-1.5 0-2.869 0.731-3.65 1.8-0.719-1.063-2.088-1.8-3.65-1.8-0.975 0-1.888 0.269-2.606 0.731 1.563-5.063 7.1-8.787 13.619-8.787s12.056 3.731 13.556 8.725c-0.712-0.463-1.625-0.731-2.606-0.731z"></path>
</svg>
