<!-- Generated by IcoMoon.io -->
<svg version="1.1" xmlns="http://www.w3.org/2000/svg" width="32" height="32" viewBox="0 0 32 32">
<path d="M28.017 7.183c-2.569-2.569-5.984-3.983-9.617-3.983s-7.048 1.415-9.617 3.983-3.983 5.984-3.983 9.617v2.069l-3.434-3.434c-0.312-0.312-0.819-0.312-1.131 0s-0.312 0.819 0 1.131l4.8 4.8c0.156 0.156 0.361 0.234 0.566 0.234s0.409-0.078 0.566-0.234l4.8-4.8c0.312-0.312 0.312-0.819 0-1.131s-0.819-0.312-1.131 0l-3.434 3.434v-2.069c0-6.617 5.383-12 12-12s12 5.383 12 12-5.383 12-12 12c-0.442 0-0.8 0.358-0.8 0.8s0.358 0.8 0.8 0.8c3.633 0 7.048-1.415 9.617-3.983s3.983-5.984 3.983-9.617c0-3.633-1.415-7.048-3.983-9.617z"></path>
</svg>
