<!-- Generated by IcoMoon.io -->
<svg version="1.1" xmlns="http://www.w3.org/2000/svg" width="32" height="32" viewBox="0 0 32 32">
<path d="M31.811 18.241v0l-4.797-4.292c-0.189-0.189-0.505-0.189-0.694 0l-3.913 3.471v-5.239c0-0.316-0.252-0.505-0.505-0.505h-1.578v-5.807c0-0.316-0.252-0.505-0.505-0.505h-3.219v-1.073h5.302c0.189 0 0.379-0.126 0.505-0.316 0.063-0.189 0.063-0.442-0.126-0.568l-1.199-1.199 1.199-1.199c0.126-0.126 0.189-0.379 0.126-0.568-0.126-0.316-0.316-0.442-0.568-0.442h-5.87c-0.316 0-0.505 0.252-0.505 0.505v4.797h-3.219c-0.316 0-0.505 0.252-0.505 0.505v5.87h-1.641c-0.316 0-0.505 0.252-0.505 0.505v5.239l-3.913-3.408c-0.189-0.189-0.505-0.189-0.694 0l-4.797 4.292c-0.126 0.063-0.189 0.189-0.189 0.379v12.813c0 0.316 0.252 0.505 0.505 0.505h30.927c0.316 0 0.505-0.252 0.505-0.505v-12.813c0.063-0.189 0-0.316-0.126-0.442zM16.537 1.073h4.039l-0.694 0.694c-0.189 0.189-0.189 0.568 0 0.757l0.694 0.694h-4.039v-2.146zM5.302 15.085l3.408 3.030h-6.753l3.345-3.030zM9.594 30.927h-8.521v-11.74h8.521v11.74zM12.813 6.375h6.375v5.302h-6.375v-5.302zM17.609 30.927h-3.219v-5.302h3.219v5.302zM21.333 30.927h-2.651v-5.302h0.505v-1.073h-6.375v1.073h0.505v5.302h-2.651v-18.114h10.667v18.114zM26.635 15.085l3.408 3.030h-6.817l3.408-3.030zM30.927 30.927h-8.521v-11.74h8.521v11.74z"></path>
<path d="M14.391 19.692h-2.146c-0.316 0-0.505 0.252-0.505 0.505v2.146c0 0.316 0.252 0.505 0.505 0.505h2.146c0.316 0 0.505-0.252 0.505-0.505v-2.146c0-0.252-0.189-0.505-0.505-0.505zM13.886 21.838h-1.073v-1.073h1.073v1.073z"></path>
<path d="M19.692 19.692h-2.146c-0.316 0-0.505 0.252-0.505 0.505v2.146c0 0.316 0.252 0.505 0.505 0.505h2.146c0.316 0 0.505-0.252 0.505-0.505v-2.146c0.063-0.252-0.189-0.505-0.505-0.505zM19.187 21.838h-1.073v-1.073h1.073v1.073z"></path>
<path d="M14.391 14.895h-2.146c-0.316 0-0.505 0.252-0.505 0.505v2.146c0 0.316 0.252 0.505 0.505 0.505h2.146c0.316 0 0.505-0.252 0.505-0.505v-2.146c0-0.252-0.189-0.505-0.505-0.505zM13.886 17.041h-1.073v-1.073h1.073v1.073z"></path>
<path d="M19.692 14.895h-2.146c-0.316 0-0.505 0.252-0.505 0.505v2.146c0 0.316 0.252 0.505 0.505 0.505h2.146c0.316 0 0.505-0.252 0.505-0.505v-2.146c0.063-0.252-0.189-0.505-0.505-0.505zM19.187 17.041h-1.073v-1.073h1.073v1.073z"></path>
<path d="M15.968 6.943c-1.199 0-2.146 0.947-2.146 2.146s0.947 2.146 2.146 2.146 2.146-0.947 2.146-2.146-0.947-2.146-2.146-2.146zM15.968 10.099c-0.568 0-1.073-0.505-1.073-1.073s0.505-1.073 1.073-1.073c0.568 0 1.073 0.505 1.073 1.073 0 0.631-0.442 1.073-1.073 1.073z"></path>
<path d="M4.292 22.406h-2.146c-0.316 0-0.505 0.252-0.505 0.505v2.146c0 0.316 0.252 0.505 0.505 0.505h2.146c0.316 0 0.505-0.252 0.505-0.505v-2.146c0-0.316-0.252-0.505-0.505-0.505zM3.724 24.489h-1.073v-1.073h1.073v1.073z"></path>
<path d="M8.521 22.406h-2.146c-0.316 0-0.505 0.252-0.505 0.505v2.146c0 0.316 0.252 0.505 0.505 0.505h2.146c0.316 0 0.505-0.252 0.505-0.505v-2.146c0.063-0.316-0.189-0.505-0.505-0.505zM8.016 24.489h-1.073v-1.073h1.073v1.073z"></path>
<path d="M4.292 26.635h-2.146c-0.316 0-0.505 0.252-0.505 0.505v2.146c0 0.316 0.252 0.505 0.505 0.505h2.146c0.316 0 0.505-0.252 0.505-0.505v-2.146c0-0.252-0.252-0.505-0.505-0.505zM3.724 28.781h-1.073v-1.073h1.073v1.073z"></path>
<path d="M8.521 26.635h-2.146c-0.316 0-0.505 0.252-0.505 0.505v2.146c0 0.316 0.252 0.505 0.505 0.505h2.146c0.316 0 0.505-0.252 0.505-0.505v-2.146c0.063-0.252-0.189-0.505-0.505-0.505zM8.016 28.781h-1.073v-1.073h1.073v1.073z"></path>
<path d="M25.562 22.406h-2.146c-0.316 0-0.505 0.252-0.505 0.505v2.146c0 0.316 0.252 0.505 0.505 0.505h2.146c0.316 0 0.505-0.252 0.505-0.505v-2.146c0.063-0.316-0.189-0.505-0.505-0.505zM25.057 24.489h-1.073v-1.073h1.073v1.073z"></path>
<path d="M29.854 22.406h-2.146c-0.316 0-0.505 0.252-0.505 0.505v2.146c0 0.316 0.252 0.505 0.505 0.505h2.146c0.316 0 0.505-0.252 0.505-0.505v-2.146c0-0.316-0.189-0.505-0.505-0.505zM29.286 24.489h-1.073v-1.073h1.073v1.073z"></path>
<path d="M25.562 26.635h-2.146c-0.316 0-0.505 0.252-0.505 0.505v2.146c0 0.316 0.252 0.505 0.505 0.505h2.146c0.316 0 0.505-0.252 0.505-0.505v-2.146c0.063-0.252-0.189-0.505-0.505-0.505zM25.057 28.781h-1.073v-1.073h1.073v1.073z"></path>
<path d="M29.854 26.635h-2.146c-0.316 0-0.505 0.252-0.505 0.505v2.146c0 0.316 0.252 0.505 0.505 0.505h2.146c0.316 0 0.505-0.252 0.505-0.505v-2.146c0-0.252-0.189-0.505-0.505-0.505zM29.286 28.781h-1.073v-1.073h1.073v1.073z"></path>
<path d="M23.479 20.26h6.375v1.073h-6.375v-1.073z"></path>
<path d="M2.146 20.26h6.375v1.073h-6.375v-1.073z"></path>
</svg>
