<!-- Generated by IcoMoon.io -->
<svg version="1.1" xmlns="http://www.w3.org/2000/svg" width="32" height="32" viewBox="0 0 32 32">
<path d="M21.6 18.4c-0.205 0-0.409-0.078-0.566-0.234-0.312-0.312-0.312-0.819 0-1.131l4.909-4.909c0.811-0.81 1.257-1.888 1.257-3.034s-0.446-2.224-1.257-3.034c-1.673-1.673-4.395-1.673-6.069 0l-4.909 4.909c-0.312 0.312-0.819 0.312-1.131 0s-0.312-0.819 0-1.131l4.909-4.909c2.297-2.297 6.035-2.297 8.331 0 1.113 1.113 1.726 2.592 1.726 4.166s-0.613 3.053-1.726 4.166l-4.909 4.909c-0.156 0.156-0.361 0.234-0.566 0.234zM7.491 30.4c-1.574 0-3.053-0.613-4.166-1.726-2.297-2.297-2.297-6.034 0-8.331l4.909-4.909c0.312-0.312 0.819-0.312 1.131 0s0.312 0.819 0 1.131l-4.909 4.909c-1.673 1.673-1.673 4.396 0 6.069 0.811 0.811 1.888 1.257 3.034 1.257s2.224-0.446 3.034-1.257l4.909-4.909c0.312-0.312 0.819-0.312 1.131 0s0.312 0.819 0 1.131l-4.909 4.909c-1.113 1.113-2.592 1.726-4.166 1.726zM8.8 11.2c-0.205 0-0.409-0.078-0.566-0.234l-3.2-3.2c-0.312-0.312-0.312-0.819 0-1.131s0.819-0.312 1.131 0l3.2 3.2c0.312 0.312 0.312 0.819 0 1.131-0.156 0.156-0.361 0.234-0.566 0.234zM12 9.6c-0.442 0-0.8-0.358-0.8-0.8v-4.8c0-0.442 0.358-0.8 0.8-0.8s0.8 0.358 0.8 0.8v4.8c0 0.442-0.358 0.8-0.8 0.8zM7.2 14.4h-4.8c-0.442 0-0.8-0.358-0.8-0.8s0.358-0.8 0.8-0.8h4.8c0.442 0 0.8 0.358 0.8 0.8s-0.358 0.8-0.8 0.8zM24.8 27.2c-0.205 0-0.409-0.078-0.566-0.234l-3.2-3.2c-0.312-0.312-0.312-0.819 0-1.131s0.819-0.312 1.131 0l3.2 3.2c0.312 0.312 0.312 0.819 0 1.131-0.156 0.156-0.361 0.234-0.566 0.234zM28 20.8h-4.8c-0.442 0-0.8-0.358-0.8-0.8s0.358-0.8 0.8-0.8h4.8c0.442 0 0.8 0.358 0.8 0.8s-0.358 0.8-0.8 0.8zM18.4 30.4c-0.442 0-0.8-0.358-0.8-0.8v-4.8c0-0.442 0.358-0.8 0.8-0.8s0.8 0.358 0.8 0.8v4.8c0 0.442-0.358 0.8-0.8 0.8z"></path>
</svg>
