<!-- Generated by IcoMoon.io -->
<svg version="1.1" xmlns="http://www.w3.org/2000/svg" width="32" height="32" viewBox="0 0 32 32">
<path d="M32 6.009c0-3.093-2.516-5.609-5.609-5.609-1.631 0-3.1 0.7-4.126 1.814-2.038-0.92-4.214-1.388-6.478-1.388-8.705 0-15.787 7.082-15.787 15.787s7.082 15.787 15.787 15.787 15.787-7.082 15.787-15.787c0-2.264-0.468-4.44-1.388-6.478 1.115-1.026 1.814-2.496 1.814-4.126zM26.391 1.979c2.222 0 4.030 1.808 4.030 4.030s-1.808 4.030-4.030 4.030-4.030-1.808-4.030-4.030c0-2.222 1.808-4.030 4.030-4.030zM15.787 30.821c-7.834 0-14.208-6.374-14.208-14.208s6.374-14.208 14.208-14.208c1.942 0 3.812 0.381 5.57 1.133-0.368 0.746-0.575 1.584-0.575 2.471 0 3.093 2.516 5.609 5.609 5.609 0.886 0 1.725-0.207 2.471-0.575 0.752 1.758 1.133 3.628 1.133 5.57 0 7.834-6.374 14.208-14.208 14.208zM28.486 5.22h-1.306v-1.306c0-0.436-0.353-0.789-0.789-0.789s-0.789 0.353-0.789 0.789v1.306h-1.306c-0.436 0-0.789 0.353-0.789 0.789s0.353 0.789 0.789 0.789h1.306v1.306c0 0.436 0.353 0.789 0.789 0.789s0.789-0.353 0.789-0.789v-1.306h1.306c0.436 0 0.789-0.353 0.789-0.789s-0.353-0.789-0.789-0.789zM20.636 19.438c-0.018-0.001-1.946 0.066-2.499-1.956 0.36-0.275 0.695-0.615 0.992-1.018 0.639-0.865 1.056-1.943 1.214-3.109 0.045-0.054 0.083-0.115 0.112-0.183 0.274-0.652 0.413-1.348 0.413-2.068 0-2.774-2.101-5.031-4.683-5.031-0.663 0-1.306 0.149-1.914 0.444-0.224 0.020-0.444 0.061-0.656 0.122-2.164 0.625-3.388 3.233-2.73 5.815 0.066 0.259 0.226 0.755 0.356 0.935 0.246 1.757 1.069 3.225 2.197 4.087-0.562 2.056-2.483 1.962-2.5 1.963-1.865 0.060-3.364 1.595-3.364 3.474v2.27c0 0.853 0.694 1.546 1.546 1.546h13.333c0.853 0 1.546-0.694 1.546-1.546v-2.27c-0-1.879-1.498-3.413-3.363-3.474zM14.009 8.003c0.154-0.045 0.317-0.071 0.485-0.079 0.104-0.005 0.206-0.032 0.298-0.081 0.443-0.233 0.912-0.351 1.393-0.351 1.703 0 3.105 1.453 3.249 3.298-0.354-0.223-0.773-0.352-1.222-0.352h-3.215c-0.139 0-0.272-0.044-0.382-0.126-0.095-0.071-0.168-0.166-0.212-0.274-0.131-0.327-0.456-0.533-0.808-0.51s-0.651 0.268-0.741 0.611c-0.135 0.519-0.373 1.006-0.694 1.433-0.213-1.655 0.552-3.194 1.849-3.569zM12.642 13.152c0.501-0.468 0.913-1.024 1.211-1.638 0.339 0.227 0.732 0.346 1.143 0.346h3.215c0.34 0 0.635 0.194 0.782 0.477-0.012 1.864-0.803 3.465-1.928 4.167-0.036 0.017-0.549 0.38-1.276 0.38-1.522-0-2.861-1.615-3.147-3.733zM17.887 19.78c-0.604 0.439-1.338 0.683-2.097 0.683-0.761 0-1.495-0.244-2.1-0.685 0.469-0.444 0.83-1.003 1.036-1.633 0.342 0.104 0.699 0.159 1.064 0.159 0.362 0 0.717-0.054 1.060-0.157 0.206 0.63 0.568 1.189 1.038 1.632zM22.578 25.182v0c0 0.069-0.056 0.125-0.125 0.125h-13.333c-0.069 0-0.126-0.056-0.126-0.125v-2.27c0-1.134 0.922-2.056 2.056-2.056 0.019 0 0.69-0.011 1.379-0.274 0.913 0.833 2.111 1.302 3.36 1.302s2.445-0.469 3.358-1.301c0.703 0.286 1.356 0.273 1.375 0.273 1.134 0 2.056 0.922 2.056 2.056v2.27z"></path>
</svg>
