<!-- Generated by IcoMoon.io -->
<svg version="1.1" xmlns="http://www.w3.org/2000/svg" width="32" height="32" viewBox="0 0 32 32">
<path d="M23.091 21.591c-0.025-0.003-3.512 0.087-4.044-3.636 1.277-0.898 2.3-2.346 2.877-4.122 0.023 0.172 0.042 0.345 0.052 0.52 0.018 0.3 0.22 0.558 0.508 0.647 0.071 0.022 0.143 0.032 0.214 0.032 0.219 0 0.431-0.1 0.571-0.279 1.229-1.579 1.868-3.635 1.799-5.79-0.068-2.114-0.81-4.098-2.090-5.585-1.305-1.516-3.025-2.359-4.845-2.376-0.093-0.004-0.361 0.006-0.414 0.010-0.948-0.437-1.951-0.641-2.984-0.609-2.106 0.067-4.045 1.119-5.46 2.962-1.382 1.8-2.099 4.15-2.021 6.617 0.013 0.418 0.046 0.803 0.1 1.17 0.144 1.051 0.434 2.058 0.861 2.993 0.111 0.243 0.347 0.405 0.614 0.421s0.521-0.117 0.66-0.345c0.088-0.145 0.206-0.332 0.337-0.508 0.048-0.065 0.097-0.127 0.147-0.189 0.387 1.324 1.026 2.514 1.856 3.436 0.348 0.386 0.724 0.719 1.122 0.998-0.604 3.755-4.018 3.629-4.044 3.632-2.553 0.087-4.603 2.19-4.603 4.764v5.322c0 0.399 0.324 0.723 0.723 0.723h21.943c0.399 0 0.723-0.324 0.723-0.723v-5.322c0-2.574-2.050-4.677-4.603-4.764zM9.966 11.509c-0.023 0.017-0.658 0.578-0.883 0.831-0.132-0.449-0.23-0.913-0.296-1.389-0.046-0.319-0.075-0.651-0.086-1.014-0.068-2.134 0.543-4.155 1.722-5.691 1.146-1.493 2.694-2.344 4.359-2.398 0.056-0.002 1.24-0.073 2.479 0.547 0.107 0.053 0.232 0.079 0.35 0.075 0.014-0 0.487-0.022 0.498-0.022 1.402 0.009 2.742 0.675 3.773 1.873 1.065 1.238 1.684 2.903 1.741 4.688 0.037 1.146-0.161 2.254-0.567 3.246-0.118-0.382-0.264-0.754-0.436-1.117-0.849-1.807-2.278-3.207-4.023-3.94-0.182-0.077-0.387-0.075-0.568 0.003s-0.322 0.228-0.39 0.412c-0.123 0.332-0.272 0.655-0.443 0.961-0.503 0.9-1.514 1.434-2.634 1.395-0.155-0.005-0.311-0.005-0.466-0.001-0.758 0.024-1.498 0.169-2.201 0.431-0.696 0.263-1.344 0.636-1.929 1.109zM11.185 12.4c0.38-0.266 0.788-0.484 1.218-0.646 0.553-0.206 1.138-0.32 1.739-0.339 0.122-0.004 0.48 0.003 0.534 0.003 1.6-0 3.039-0.809 3.782-2.138 0.078-0.14 0.153-0.284 0.224-0.43 0.934 0.535 1.728 1.326 2.307 2.299-0.011 0.040-0.018 0.082-0.022 0.125-0.141 1.741-0.743 3.341-1.696 4.505-0.913 1.115-2.076 1.73-3.274 1.73-2.229 0-4.204-2.124-4.812-5.109zM14.311 18.663c0.545 0.193 1.112 0.292 1.686 0.292 0.585 0 1.153-0.102 1.693-0.294 0.32 1.61 1.353 2.966 2.756 3.723-0.493 2.020-2.321 3.487-4.445 3.487s-3.951-1.467-4.445-3.487c1.402-0.757 2.435-2.112 2.755-3.722zM5.752 30.954v-4.599c0-1.832 1.49-3.322 3.322-3.322 0.026 0 0.702-0.017 1.119-0.137 0.708 2.572 3.071 4.422 5.807 4.422s5.099-1.85 5.807-4.422c0.407 0.111 1.093 0.137 1.119 0.137 1.832 0 3.322 1.49 3.322 3.322v4.599h-20.497z"></path>
</svg>
