<!-- Generated by IcoMoon.io -->
<svg version="1.1" xmlns="http://www.w3.org/2000/svg" width="32" height="32" viewBox="0 0 32 32">
<path d="M29.6 28.8h-17.6c-1.323 0-2.4-1.077-2.4-2.4 0-0.077 0.017-1.905 1.479-3.704 0.84-1.034 1.986-1.853 3.405-2.436 1.714-0.703 3.839-1.060 6.316-1.060s4.602 0.357 6.316 1.060c1.419 0.582 2.565 1.402 3.405 2.436 1.462 1.8 1.479 3.628 1.479 3.704 0 1.323-1.077 2.4-2.4 2.4zM11.2 26.404c0.002 0.439 0.36 0.796 0.8 0.796h17.6c0.44 0 0.798-0.357 0.8-0.796-0.002-0.056-0.052-1.431-1.183-2.775-1.559-1.851-4.469-2.83-8.417-2.83s-6.858 0.978-8.417 2.83c-1.131 1.343-1.181 2.719-1.183 2.775zM20.8 17.6c-3.529 0-6.4-2.871-6.4-6.4s2.871-6.4 6.4-6.4 6.4 2.871 6.4 6.4c0 3.529-2.871 6.4-6.4 6.4zM20.8 6.4c-2.647 0-4.8 2.153-4.8 4.8s2.153 4.8 4.8 4.8 4.8-2.153 4.8-4.8-2.153-4.8-4.8-4.8zM7.2 28.8h-4.8c-1.323 0-2.4-1.077-2.4-2.4 0-0.060 0.012-1.483 1.060-2.88 0.605-0.807 1.431-1.447 2.453-1.901 1.223-0.543 2.732-0.819 4.487-0.819 0.286 0 0.57 0.007 0.843 0.022 0.441 0.024 0.78 0.4 0.756 0.841s-0.399 0.78-0.841 0.756c-0.245-0.013-0.499-0.020-0.757-0.020-6.23 0-6.396 3.807-6.4 4.004 0.002 0.439 0.36 0.796 0.8 0.796h4.8c0.442 0 0.8 0.358 0.8 0.8s-0.358 0.8-0.8 0.8zM8 19.2c-2.647 0-4.8-2.153-4.8-4.8s2.153-4.8 4.8-4.8 4.8 2.153 4.8 4.8-2.153 4.8-4.8 4.8zM8 11.2c-1.764 0-3.2 1.435-3.2 3.2s1.436 3.2 3.2 3.2 3.2-1.436 3.2-3.2c0-1.764-1.435-3.2-3.2-3.2z"></path>
</svg>
