<!-- Generated by IcoMoon.io -->
<svg version="1.1" xmlns="http://www.w3.org/2000/svg" width="30" height="32" viewBox="0 0 30 32">
<path d="M6.868 24.117c0 0.234 0.156 0.39 0.39 0.39 0 0 0 0 0 0 0.234 0 0.39-0.156 0.39-0.39 0.312-3.98 3.668-7.024 7.649-7.024 2.185 0 3.981-1.795 3.981-3.98s-1.795-3.98-3.98-3.98c-2.185 0-3.98 1.795-3.98 3.98 0 1.483 0.78 2.732 2.029 3.434-3.512 0.937-6.244 3.902-6.478 7.571zM12.020 13.19c0-1.795 1.405-3.2 3.2-3.2s3.2 1.405 3.2 3.2-1.405 3.2-3.2 3.2-3.2-1.483-3.2-3.2z"></path>
<path d="M18.107 20.449c-0.156-1.171-1.249-2.107-2.498-2.107-1.405 0-2.498 1.093-2.498 2.498s1.093 2.498 2.498 2.498c1.249 0 2.263-0.937 2.498-2.107h1.639v1.327c0 0.234 0.156 0.39 0.39 0.39s0.39-0.156 0.39-0.39v-1.327h0.937v0.78c0 0.234 0.156 0.39 0.39 0.39s0.39-0.156 0.39-0.39v-0.78h0.859c0.234 0 0.39-0.156 0.39-0.39s-0.156-0.39-0.39-0.39h-4.995zM15.61 22.556c-0.937 0-1.717-0.78-1.717-1.717s0.78-1.717 1.717-1.717 1.717 0.78 1.717 1.717-0.78 1.717-1.717 1.717z"></path>
<path d="M26.537 6.946c-0.156-0.156-0.39-0.156-0.546-0.078-0.156 0.156-0.156 0.39-0.078 0.546 2.263 2.576 3.512 5.932 3.512 9.366 0 7.883-6.4 14.361-14.361 14.361-7.883 0.078-14.283-6.322-14.283-14.283 0-7.883 6.4-14.283 14.361-14.283 1.717 0 3.356 0.312 4.917 0.859l-2.263 0.702c-0.234 0.078-0.312 0.312-0.234 0.468s0.234 0.312 0.39 0.312c0 0 0.078 0 0.078 0l3.512-1.015-1.015-3.512c-0.078-0.234-0.312-0.312-0.468-0.234-0.234 0.078-0.312 0.312-0.234 0.468l0.624 2.263c-1.717-0.624-3.434-0.937-5.307-0.937-8.351-0.156-15.141 6.634-15.141 14.907 0 8.351 6.79 15.141 15.141 15.141s15.141-6.79 15.141-15.141c-0.078-3.59-1.405-7.102-3.746-9.912z"></path>
</svg>
