<!-- Generated by IcoMoon.io -->
<svg version="1.1" xmlns="http://www.w3.org/2000/svg" width="32" height="32" viewBox="0 0 32 32">
<path d="M16.934 19.333c-0.66-0.934-1.72-1.505-2.857-1.548-0.024-0.003-0.048-0.004-0.073-0.004-1.446 0-2.641-1.093-2.804-2.496 0.416-0.303 0.8-0.688 1.141-1.149 0.688-0.932 1.135-2.097 1.301-3.356 0.051-0.055 0.094-0.119 0.124-0.193 0.291-0.694 0.439-1.435 0.439-2.203 0-2.951-2.231-5.352-4.974-5.352-0.709 0-1.397 0.161-2.048 0.479-0.243 0.021-0.481 0.064-0.71 0.131-2.293 0.662-3.589 3.435-2.889 6.18 0.070 0.276 0.16 0.548 0.266 0.807 0.029 0.071 0.070 0.133 0.118 0.188 0.264 1.939 1.182 3.552 2.437 4.465-0.161 1.405-1.357 2.499-2.804 2.499-0.022 0-0.044 0.001-0.066 0.003-1.961 0.069-3.535 1.685-3.535 3.663v3.946c0 0.368 0.298 0.667 0.667 0.667h11.778c0.368 0 0.667-0.298 0.667-0.667s-0.299-0.667-0.667-0.667h-11.112v-3.28c0-1.287 1.047-2.333 2.333-2.333 0.022 0 0.044-0.001 0.066-0.003 0.48-0.015 0.94-0.112 1.366-0.277l3.156 4.555c0.124 0.18 0.329 0.287 0.548 0.287s0.423-0.107 0.548-0.287l3.156-4.555c0.426 0.165 0.886 0.262 1.366 0.277 0.022 0.002 0.044 0.003 0.066 0.003 0.757 0 1.469 0.369 1.907 0.988 0.13 0.184 0.336 0.282 0.545 0.282 0.133 0 0.267-0.040 0.384-0.122 0.301-0.212 0.372-0.628 0.16-0.929zM6.843 4.924c0.175-0.051 0.36-0.080 0.55-0.089 0.098-0.004 0.193-0.030 0.28-0.076 0.495-0.26 1.020-0.392 1.558-0.392 1.967 0 3.573 1.731 3.638 3.885-0.401-0.303-0.9-0.483-1.44-0.483h-3.486c-0.174 0-0.338-0.054-0.477-0.158-0.118-0.088-0.209-0.207-0.264-0.343-0.126-0.313-0.438-0.509-0.774-0.488-0.338 0.022-0.623 0.257-0.709 0.585-0.17 0.653-0.488 1.262-0.919 1.778-0.346-1.933 0.525-3.782 2.042-4.22zM5.28 10.569c0.582-0.534 1.053-1.181 1.382-1.895 0.002 0.002 0.005 0.003 0.007 0.005 0.37 0.276 0.811 0.422 1.274 0.422h3.486c0.419 0 0.78 0.245 0.952 0.599-0.004 1.385-0.399 2.678-1.113 3.645-0.673 0.911-1.549 1.413-2.466 1.413-0.849 0-1.675-0.439-2.327-1.235-0.632-0.772-1.051-1.812-1.195-2.954zM8.802 21.839l-2.551-3.682c0.684-0.568 1.183-1.351 1.394-2.244 0.371 0.116 0.759 0.178 1.157 0.178 0.396 0 0.784-0.060 1.158-0.176 0.211 0.892 0.71 1.675 1.394 2.242l-2.551 3.682zM28.465 21.491c-0.022-0.002-0.044-0.003-0.066-0.003-1.448 0-2.644-1.096-2.804-2.501 0.816-0.595 1.489-1.486 1.933-2.57 0.064 0.208 0.226 0.375 0.44 0.442 0.065 0.020 0.131 0.030 0.197 0.030 0.202 0 0.398-0.092 0.526-0.257 0.93-1.194 1.413-2.749 1.361-4.378-0.051-1.598-0.613-3.097-1.581-4.223-0.992-1.152-2.301-1.794-3.688-1.807-0.074-0.003-0.256 0.003-0.286 0.005-0.713-0.323-1.466-0.474-2.241-0.45-1.602 0.051-3.075 0.849-4.148 2.248-1.043 1.359-1.585 3.131-1.525 4.991 0.010 0.315 0.035 0.605 0.075 0.881 0.109 0.792 0.327 1.551 0.649 2.256 0.102 0.224 0.32 0.374 0.566 0.388s0.48-0.107 0.609-0.318c0.054-0.088 0.123-0.197 0.199-0.304 0.297 0.903 0.752 1.714 1.328 2.354 0.246 0.273 0.512 0.511 0.792 0.713-0.162 1.404-1.357 2.499-2.804 2.499-0.022 0-0.044 0.001-0.066 0.003-1.961 0.070-3.535 1.685-3.535 3.663v3.946c0 0.368 0.299 0.667 0.667 0.667h16.272c0.368 0 0.667-0.298 0.667-0.667v-3.946c0-1.977-1.574-3.593-3.535-3.663zM18.132 14.502c-0.066-0.257-0.117-0.52-0.154-0.789-0.034-0.232-0.054-0.473-0.063-0.737-0.050-1.552 0.394-3.021 1.25-4.136 0.826-1.075 1.938-1.689 3.133-1.727 0.040-0.001 0.899-0.050 1.776 0.392 0.098 0.049 0.211 0.072 0.321 0.069 0.013-0 0.355-0.017 0.365-0.016 1.001 0.007 1.96 0.484 2.7 1.344 0.771 0.896 1.218 2.101 1.259 3.396 0.022 0.703-0.076 1.386-0.285 2.015-0.063-0.168-0.133-0.333-0.211-0.496-0.644-1.369-1.727-2.43-3.051-2.987-0.168-0.070-0.357-0.069-0.524 0.003s-0.297 0.21-0.36 0.38c-0.089 0.24-0.196 0.473-0.32 0.694-0.349 0.624-1.053 0.995-1.835 0.968-0.117-0.004-0.237-0.004-0.354-0-0.576 0.018-1.139 0.128-1.674 0.328-0.529 0.2-1.417 0.7-1.975 1.3zM19.772 14.864c0.253-0.169 0.522-0.309 0.803-0.415 0.396-0.148 0.816-0.229 1.248-0.243 0.088-0.003 0.177-0.003 0.265 0 1.287 0.044 2.451-0.588 3.045-1.65 0.037-0.065 0.072-0.132 0.106-0.199 0.608 0.375 1.128 0.902 1.518 1.543-0.003 0.020-0.006 0.040-0.008 0.060-0.102 1.265-0.539 2.426-1.229 3.268-0.652 0.796-1.478 1.235-2.327 1.235-1.569-0-2.965-1.492-3.423-3.6zM22.041 19.618c0.375 0.117 0.762 0.179 1.154 0.179 0.399 0 0.787-0.062 1.16-0.179 0.268 1.135 1.002 2.092 1.989 2.656-0.385 1.391-1.664 2.391-3.145 2.391s-2.76-1-3.145-2.391c0.987-0.564 1.721-1.521 1.988-2.656zM30.667 28.433h-14.938v-3.28c0-1.286 1.047-2.333 2.333-2.333 0.022 0 0.044-0.001 0.066-0.003 0.23-0.007 0.455-0.032 0.673-0.076 0.579 1.901 2.351 3.257 4.397 3.257s3.818-1.356 4.397-3.257c0.219 0.043 0.444 0.068 0.673 0.076 0.022 0.002 0.044 0.003 0.066 0.003 1.287 0 2.333 1.047 2.333 2.333v3.28z"></path>
</svg>
