<!-- Generated by IcoMoon.io -->
<svg version="1.1" xmlns="http://www.w3.org/2000/svg" width="32" height="32" viewBox="0 0 32 32">
<path d="M23.403 21.179c-0.025-0.003-3.709 0.106-4.257-3.841 0.609-0.425 1.169-0.976 1.664-1.645 0.961-1.301 1.581-2.934 1.801-4.699 0.076-0.069 0.139-0.154 0.181-0.254 0.399-0.951 0.602-1.966 0.602-3.018 0-4.037-3.045-7.321-6.788-7.321-0.979 0-1.929 0.226-2.826 0.671-0.342 0.026-0.678 0.086-0.999 0.179-1.537 0.444-2.788 1.584-3.523 3.21-0.713 1.578-0.853 3.436-0.396 5.232 0.097 0.379 0.22 0.752 0.366 1.108 0.040 0.096 0.098 0.178 0.169 0.246 0.357 2.756 1.669 5.039 3.457 6.286-0.549 3.954-4.232 3.844-4.257 3.847-2.649 0.090-4.777 2.271-4.777 4.942v5.559c0 0.398 0.323 0.721 0.721 0.721h22.918c0.398 0 0.721-0.323 0.721-0.721v-5.559c-0-2.671-2.128-4.852-4.777-4.942zM13.181 2.634c0.263-0.076 0.541-0.121 0.825-0.134 0.106-0.005 0.209-0.033 0.303-0.082 0.729-0.383 1.502-0.578 2.297-0.578 2.948 0 5.347 2.638 5.347 5.88 0 0.097-0.003 0.194-0.007 0.291-0.572-0.581-1.366-0.942-2.244-0.942h-4.911c-0.292 0-0.569-0.092-0.802-0.265-0.199-0.148-0.352-0.347-0.444-0.576-0.142-0.354-0.492-0.575-0.873-0.551-0.383 0.024-0.704 0.29-0.801 0.661-0.285 1.093-0.852 2.101-1.63 2.918-0.724-2.981 0.583-5.941 2.94-6.622zM12.554 15.096c-0.938-1.145-1.552-2.692-1.746-4.385 0.909-0.81 1.628-1.819 2.096-2.937 0.071 0.066 0.146 0.127 0.223 0.186 0.483 0.361 1.059 0.552 1.664 0.552h4.911c0.695 0 1.294 0.417 1.561 1.013-0 0.005-0.001 0.010-0.001 0.015 0 4.067-2.36 7.376-5.261 7.376-1.262 0-2.487-0.646-3.447-1.819zM14.21 18.040c0.571 0.207 1.172 0.317 1.792 0.317 0.615 0 1.215-0.107 1.79-0.313 0.264 1.374 1.028 2.572 2.095 3.397l-3.783 5.388c-0.025 0.035-0.059 0.053-0.102 0.053s-0.077-0.018-0.102-0.053l-3.784-5.389c1.067-0.826 1.831-2.024 2.094-3.4zM26.739 30.959h-21.477v-4.838c0-1.933 1.572-3.505 3.505-3.505 0.026 0 1.186-0.028 2.102-0.445l3.852 5.485c0.293 0.417 0.772 0.666 1.281 0.666 0 0 0 0 0 0 0.509 0 0.988-0.249 1.281-0.666l3.851-5.485c1.045 0.444 2.074 0.444 2.1 0.444 1.933 0 3.505 1.572 3.505 3.505v4.838z"></path>
</svg>
