<!-- Generated by IcoMoon.io -->
<svg version="1.1" xmlns="http://www.w3.org/2000/svg" width="32" height="32" viewBox="0 0 32 32">
<path d="M29.609 25.227l-5.212-2.258c-0.123-0.061-0.259-0.211-0.375-0.411l3.48-0.003c0.061 0.006 1.495 0.137 2.646-0.357 0.436-0.188 0.76-0.558 0.89-1.017 0.131-0.463 0.048-0.953-0.227-1.346-0.995-1.415-3.316-5.114-3.389-8.866-0.002-0.065-0.212-6.444-6.512-6.496-0.927 0.007-1.785 0.165-2.565 0.455-0.17-0.434-0.421-0.886-0.794-1.311-1.095-1.25-2.873-1.884-5.284-1.884s-4.189 0.634-5.284 1.883c-1.263 1.441-1.146 3.187-1.116 3.48v2.837c-0.341 0.389-0.533 0.886-0.533 1.4v2.133c0 0.649 0.295 1.254 0.798 1.658 0.489 1.934 1.511 3.392 1.868 3.86v1.765c0 0.516-0.282 0.99-0.734 1.237l-4.758 2.595c-1.547 0.845-2.508 2.463-2.508 4.225v2.26h32v-1.972c0-1.649-0.916-3.131-2.391-3.868zM23.467 30h-22.4v-1.194c0-1.371 0.748-2.631 1.951-3.287l4.758-2.595c0.796-0.435 1.291-1.268 1.291-2.174v-2.143l-0.124-0.148c-0.013-0.015-1.32-1.597-1.819-3.768l-0.049-0.211-0.182-0.117c-0.309-0.199-0.493-0.534-0.493-0.894v-2.133c0-0.299 0.127-0.578 0.357-0.787l0.176-0.158v-3.322l-0.005-0.070c-0.002-0.014-0.183-1.493 0.856-2.678 0.884-1.008 2.392-1.519 4.482-1.519 2.083 0 3.588 0.507 4.473 1.508 0.44 0.497 0.661 1.052 0.772 1.529 0.009 0.037 0.017 0.074 0.024 0.111 0.007 0.038 0.015 0.076 0.021 0.112 0.007 0.042 0.013 0.081 0.019 0.121 0.004 0.028 0.009 0.057 0.012 0.084 0.008 0.066 0.014 0.13 0.019 0.189 0.001 0.005 0.001 0.009 0.001 0.014 0.004 0.058 0.006 0.112 0.008 0.162 0 0.010 0 0.018 0.001 0.027 0.001 0.044 0.001 0.086 0.001 0.123 0 0.005 0 0.011 0 0.016-0.002 0.125-0.011 0.2-0.011 0.202l-0.004 3.39 0.176 0.159c0.23 0.208 0.357 0.487 0.357 0.786v2.133c0 0.466-0.305 0.873-0.758 1.013l-0.266 0.082-0.085 0.264c-0.357 1.11-0.865 2.135-1.511 3.047-0.158 0.225-0.313 0.423-0.446 0.575l-0.133 0.151v2.2c0 0.135 0.013 0.267 0.034 0.397 0.004 0.028 0.012 0.054 0.017 0.082 0.021 0.107 0.049 0.212 0.083 0.315 0.008 0.024 0.017 0.047 0.026 0.071 0.042 0.111 0.090 0.219 0.147 0.323 0.006 0.012 0.012 0.024 0.019 0.036 0.077 0.137 0.166 0.266 0.269 0.386l0.122 0.15h0.021c0.183 0.18 0.393 0.337 0.632 0.457l5.095 2.547c1.277 0.638 2.070 1.921 2.070 3.349v1.090zM30.933 30h-6.4v-1.090c0-1.834-1.019-3.483-2.659-4.303l-3.658-1.829c0.090-0.206 0.102-0.442 0.023-0.669-0.131-0.376-0.472-0.619-0.869-0.619h-1.182c-0.025-0.043-0.041-0.091-0.060-0.137-0.027-0.061-0.058-0.122-0.076-0.186-0.033-0.118-0.052-0.242-0.052-0.369v-1.803c0.122-0.149 0.251-0.319 0.383-0.507 0.661-0.933 1.19-1.972 1.575-3.093 0.753-0.345 1.241-1.089 1.241-1.929v-2.133c0-0.514-0.192-1.011-0.533-1.4v-2.837c0.014-0.133 0.044-0.57-0.045-1.141 0.687-0.27 1.457-0.409 2.288-0.416 5.249 0.043 5.44 5.233 5.445 5.451 0.078 4.044 2.531 7.961 3.582 9.457 0.090 0.128 0.117 0.289 0.074 0.441-0.025 0.087-0.095 0.246-0.285 0.328-0.896 0.386-2.111 0.276-2.174 0.274h-3.671c-0.343 0-0.655 0.174-0.836 0.466-0.18 0.291-0.197 0.646-0.046 0.951 0.167 0.337 0.462 0.786 0.947 1.028l5.198 2.252c1.103 0.557 1.789 1.67 1.789 2.908v0.905z"></path>
</svg>
