<!-- Generated by IcoMoon.io -->
<svg version="1.1" xmlns="http://www.w3.org/2000/svg" width="35" height="32" viewBox="0 0 35 32">
<path d="M32 24.91l-5.557-2.747c-0.511-0.256-0.83-0.766-0.83-1.405v-1.98c0.128-0.192 0.256-0.319 0.447-0.575 0.703-1.022 1.277-2.172 1.725-3.385 0.83-0.383 1.341-1.214 1.341-2.108v-2.299c0-0.575-0.192-1.086-0.575-1.533v-3.002c0.064-0.319 0.192-2.236-1.214-3.768-1.214-1.341-3.13-2.044-5.748-2.044s-4.599 0.703-5.748 2.044c-0.83 0.958-1.086 2.044-1.214 2.81-1.022-0.511-2.172-0.766-3.513-0.766-6.068 0-6.387 5.174-6.387 5.238v2.683c-0.383 0.383-0.575 0.894-0.575 1.341v1.916c0 0.639 0.255 1.214 0.766 1.597 0.511 1.788 1.661 3.194 2.108 3.641v1.597c0 0.447-0.255 0.894-0.703 1.086l-3.896 2.427c-1.533 0.83-2.427 2.427-2.427 4.088v2.236h34.874v-2.363c0-1.98-1.086-3.832-2.874-4.727zM8.112 29.509v1.277h-6.962v-1.022c0-1.277 0.703-2.427 1.852-3.066l3.896-2.427c0.766-0.447 1.277-1.214 1.277-2.108v-2.108l-0.192-0.192c0 0-1.533-1.469-2.044-3.449l-0.064-0.256-0.192-0.128c-0.255-0.192-0.447-0.447-0.447-0.766v-1.98c0-0.192 0.128-0.447 0.383-0.703l0.192-0.192v-3.13c0-0.192 0.319-4.088 5.238-4.088 1.405 0 2.555 0.319 3.513 0.958v2.81c-0.383 0.447-0.575 0.958-0.575 1.533v2.299c0 0.192 0 0.319 0.064 0.511 0 0.064 0.064 0.128 0.064 0.192 0.064 0.128 0.064 0.192 0.128 0.319 0 0 0 0 0 0 0.128 0.319 0.383 0.575 0.639 0.83 0 0 0 0 0 0 0.064 0.128 0.064 0.255 0.128 0.383l0.064 0.128c0 0 0 0.064 0 0.064 0 0.064 0.064 0.128 0.064 0.192 0.064 0.128 0.064 0.192 0.128 0.319 0 0.064 0.064 0.064 0.064 0.128 0.064 0.128 0.064 0.255 0.128 0.383 0 0 0 0.064 0.064 0.064l0.064 0.064c0 0.064 0 0.064 0.064 0.128 0.064 0.128 0.128 0.256 0.192 0.383 0 0 0 0.064 0 0.064 0.064 0.064 0.064 0.128 0.128 0.192 0.064 0.128 0.128 0.256 0.192 0.319 0 0.064 0.064 0.128 0.064 0.128 0.064 0.128 0.192 0.256 0.256 0.383 0 0 0.064 0.064 0.064 0.064 0.128 0.192 0.256 0.383 0.383 0.511 0 0.064 0.064 0.064 0.064 0.128 0 0 0 0.064 0.064 0.064v1.916c0 0.575-0.319 1.086-0.83 1.341l-1.533 0.83h-0.255l-0.128 0.256-3.449 1.852c-1.661 0.894-2.747 2.683-2.747 4.599zM33.725 30.85h-24.399v-1.277c0-1.469 0.83-2.874 2.108-3.577l5.174-2.81c0.894-0.447 1.405-1.405 1.405-2.363v-2.363l-0.128-0.192c0 0-0.064-0.064-0.128-0.128 0 0 0 0 0 0 0-0.064-0.064-0.064-0.128-0.128 0 0 0 0 0 0-0.064-0.128-0.192-0.256-0.319-0.447 0 0 0 0 0 0-0.064-0.064-0.128-0.192-0.192-0.319 0 0 0 0 0 0-0.128-0.192-0.256-0.447-0.383-0.766 0 0 0 0 0 0-0.064-0.128-0.128-0.319-0.192-0.447v0c0 0 0-0.064 0-0.064v0c-0.064-0.064-0.064-0.128-0.128-0.255 0 0 0-0.064-0.064-0.064 0-0.064-0.064-0.128-0.064-0.255-0.064-0.128-0.128-0.319-0.192-0.511l-0.064-0.128c0 0 0 0 0-0.064-0.064-0.192-0.128-0.383-0.128-0.575l-0.064-0.255-0.192-0.128c-0.319-0.192-0.511-0.575-0.511-0.958v-2.299c0-0.319 0.128-0.639 0.383-0.83l0.192-0.192v-3.832c0-0.447 0-1.725 0.958-2.747 0.958-1.086 2.619-1.661 4.918-1.661s3.896 0.575 4.854 1.661c1.15 1.277 0.958 2.938 0.958 2.938v3.705l0.192 0.192c0.256 0.255 0.383 0.511 0.383 0.83v2.236c0 0.511-0.319 0.958-0.83 1.086l-0.319 0.128-0.064 0.319c-0.383 1.214-0.958 2.299-1.661 3.321-0.192 0.256-0.319 0.447-0.511 0.639l-0.128 0.192v2.427c0 1.022 0.575 1.98 1.469 2.427l5.557 2.747c1.405 0.703 2.236 2.108 2.236 3.641v1.15z"></path>
</svg>
