<!-- Generated by IcoMoon.io -->
<svg version="1.1" xmlns="http://www.w3.org/2000/svg" width="32" height="32" viewBox="0 0 32 32">
<path d="M31.521 28.257h-3.353v-9.788h3.353c0.264 0 0.479-0.214 0.479-0.479s-0.214-0.479-0.479-0.479h-3.397c-0.225-1.202-1.282-2.115-2.549-2.115h-2.329c-1.312 0-2.398 0.979-2.569 2.245-0.336-0.282-0.696-0.532-1.073-0.75v-2.043c0.498-0.372 0.821-0.965 0.821-1.633 0-0.79-0.453-1.476-1.112-1.814v-1.423c0-0.953-0.68-1.75-1.581-1.931v-0.968h7.217c1.158 0 2.101-0.942 2.101-2.101s-0.943-2.101-2.101-2.101h-3.056c-0.265 0-0.479 0.214-0.479 0.479s0.214 0.479 0.479 0.479h3.056c0.631 0 1.144 0.513 1.144 1.144s-0.513 1.144-1.144 1.144h-18.137c-0.631 0-1.144-0.513-1.144-1.144s0.513-1.144 1.144-1.144h13.165c0.265 0 0.479-0.214 0.479-0.479s-0.214-0.479-0.479-0.479h-2.245v-0.339c0-1.021-0.831-1.851-1.851-1.851s-1.852 0.831-1.852 1.851v0.339h-7.217c-1.158 0-2.101 0.943-2.101 2.101s0.943 2.101 2.101 2.101h7.217v0.968c-0.9 0.181-1.581 0.978-1.581 1.931v1.423c-0.659 0.338-1.112 1.024-1.112 1.814 0 0.667 0.323 1.261 0.821 1.633v2.038c-0.299 0.173-0.586 0.367-0.861 0.582-0.242-1.181-1.289-2.072-2.541-2.072h-2.329c-1.267 0-2.323 0.913-2.549 2.115h-3.397c-0.264 0-0.479 0.214-0.479 0.479s0.214 0.479 0.479 0.479h3.353v9.788h-3.353c-0.264 0-0.479 0.214-0.479 0.479s0.214 0.479 0.479 0.479h3.397c0.225 1.202 1.282 2.115 2.549 2.115h2.329c1.251 0 2.298-0.891 2.541-2.072 1.304 1.020 2.899 1.573 4.585 1.573 1.765 0 3.461-0.626 4.796-1.745 0.171 1.266 1.258 2.244 2.57 2.244h2.329c1.267 0 2.323-0.913 2.549-2.115h3.397c0.264 0 0.479-0.214 0.479-0.479s-0.214-0.479-0.479-0.479zM14.986 2.539c0-0.493 0.401-0.894 0.894-0.894s0.894 0.401 0.894 0.894v0.339h-1.788zM16.774 7.080v0.928h-1.788v-0.928zM14.417 8.966h2.925c0.558 0 1.012 0.454 1.012 1.012v1.2h-4.95v-1.2c0-0.558 0.454-1.012 1.012-1.012zM13.372 12.136h5.015c0.595 0 1.079 0.484 1.079 1.079s-0.484 1.079-1.079 1.079h-5.015c-0.595 0-1.079-0.484-1.079-1.079s0.484-1.079 1.079-1.079zM13.114 15.235c0.085 0.011 0.171 0.017 0.258 0.017h5.015c0.088 0 0.174-0.006 0.258-0.017v1.193c-0.87-0.347-1.808-0.532-2.766-0.532-0.965 0-1.899 0.181-2.766 0.526zM4.789 28.736v-10.746c0-0.86 0.667-1.567 1.511-1.631v14.007c-0.844-0.064-1.511-0.771-1.511-1.631zM8.879 30.366v-2.594c0-0.264-0.214-0.479-0.479-0.479s-0.479 0.214-0.479 0.479v2.6h-0.663v-14.018h0.663v9.503c0 0.264 0.214 0.479 0.479 0.479s0.479-0.214 0.479-0.479v-9.498c0.844 0.064 1.511 0.771 1.511 1.631v10.746c0 0.86-0.667 1.567-1.511 1.631zM15.88 29.873c-1.71 0-3.312-0.651-4.532-1.838v-9.344c0.444-0.432 0.938-0.792 1.47-1.076 0.028-0.012 0.055-0.026 0.080-0.043 0.91-0.47 1.925-0.718 2.982-0.718 1.812 0 3.541 0.757 4.772 2.083v8.854c-1.231 1.326-2.96 2.083-4.772 2.083zM21.61 28.736v-10.746c0-0.86 0.667-1.567 1.511-1.631v14.007c-0.844-0.064-1.511-0.771-1.511-1.631zM24.079 30.372v-14.018h0.663v14.018zM25.7 30.366v-14.007c0.844 0.064 1.511 0.771 1.511 1.631v10.746c0 0.86-0.667 1.567-1.511 1.631z"></path>
</svg>
