<!-- Generated by IcoMoon.io -->
<svg version="1.1" xmlns="http://www.w3.org/2000/svg" width="32" height="32" viewBox="0 0 32 32">
<path d="M32 16.053l-5.518-9.065h-6.529v-2.635h-3.388v-2.635h-9.412v2.635h-7.153v22.588h3.017c-0.003 0.063-0.005 0.125-0.005 0.188 0 2.18 1.773 3.953 3.953 3.953s3.953-1.773 3.953-3.953c0-0.063-0.002-0.125-0.005-0.188h10.175c-0.003 0.063-0.005 0.125-0.005 0.188 0 2.18 1.773 3.953 3.953 3.953s3.953-1.773 3.953-3.953c0-0.063-0.002-0.125-0.005-0.188h3.017v-10.888zM23.718 8.118h2.13l4.583 7.529h-6.713v-7.529zM19.953 8.118h2.635v7.529h-2.635v-7.529zM18.823 5.482v4.141h-3.765v-4.141h3.765zM8.282 2.847h7.153v1.506h-7.153v-1.506zM13.929 5.482v4.141h-3.388v-4.141h3.388zM6.024 5.482h3.388v4.141h-3.388v-4.141zM1.129 5.482h3.765v4.141h-3.765v-4.141zM1.129 10.753h17.694v9.788h-1.506v-8.282h-14.682v8.282h-1.506v-9.788zM3.765 16.024v-2.635h12.424v2.635h-12.424zM16.188 17.153v3.388h-12.424v-3.388h12.424zM6.965 29.953c-1.557 0-2.824-1.267-2.824-2.823 0-0.206 0.022-0.413 0.066-0.613 0.284-1.281 1.444-2.21 2.757-2.21s2.473 0.929 2.757 2.209c0.044 0.202 0.067 0.409 0.067 0.614-0 1.557-1.267 2.823-2.824 2.823zM25.035 29.953c-1.557 0-2.823-1.267-2.823-2.823 0-0.206 0.022-0.413 0.066-0.613 0.284-1.281 1.444-2.21 2.757-2.21s2.473 0.929 2.757 2.209c0.044 0.202 0.067 0.409 0.067 0.614-0 1.557-1.267 2.823-2.824 2.823zM30.871 25.812h-2.108c-0.552-1.552-2.049-2.635-3.727-2.635s-3.174 1.083-3.727 2.635h-10.617c-0.552-1.552-2.050-2.635-3.727-2.635s-3.174 1.083-3.727 2.635h-2.108v-4.141h18.823v-4.894h10.918v9.035zM25.035 25.812c-0.727 0-1.318 0.591-1.318 1.318s0.591 1.318 1.318 1.318 1.318-0.591 1.318-1.318-0.591-1.318-1.318-1.318zM6.965 25.812c-0.726 0-1.318 0.591-1.318 1.318s0.591 1.318 1.318 1.318 1.318-0.591 1.318-1.318-0.591-1.318-1.318-1.318zM22.4 19.035h2.635v1.129h-2.635v-1.129z"></path>
</svg>
