<!-- Generated by IcoMoon.io -->
<svg version="1.1" xmlns="http://www.w3.org/2000/svg" width="32" height="32" viewBox="0 0 32 32">
<path d="M31.717 13.317l-3.426-6.795c-0.441-0.869-1.316-1.411-2.292-1.411h-23.428c-1.417 0-2.57 1.153-2.57 2.57v14.303c0 1.417 1.153 2.57 2.57 2.57h1.341c0.403 1.795 2.009 3.136 3.924 3.136s3.514-1.341 3.924-3.136h8.483c0.403 1.795 2.009 3.136 3.924 3.136s3.514-1.341 3.924-3.136h1.341c1.417 0 2.57-1.153 2.57-2.57v-7.507c-0.006-0.403-0.101-0.8-0.283-1.159zM22.106 6.887h3.892c0.302 0 0.573 0.17 0.705 0.435l2.96 5.863h-7.558v-6.298zM7.835 25.907c-1.241 0-2.248-1.008-2.248-2.248s1.008-2.248 2.248-2.248c1.241 0 2.248 1.008 2.248 2.248s-1.008 2.248-2.248 2.248zM24.159 25.907c-1.241 0-2.248-1.008-2.248-2.248s1.008-2.248 2.248-2.248 2.248 1.008 2.248 2.248c0 1.241-1.008 2.248-2.248 2.248zM30.211 21.983c0.006 0.428-0.346 0.787-0.787 0.787h-1.341c-0.403-1.795-2.009-3.136-3.924-3.136s-3.514 1.341-3.924 3.136h-8.477c-0.403-1.795-2.009-3.136-3.924-3.136s-3.514 1.341-3.924 3.136h-1.341c-0.435 0-0.787-0.353-0.787-0.787v-4.484h1.335c0.491 0 0.888-0.397 0.888-0.888s-0.397-0.888-0.888-0.888h-1.341v-1.782h3.552c0.491 0 0.888-0.397 0.888-0.888s-0.397-0.888-0.888-0.888h-3.552v-4.484c0-0.435 0.353-0.787 0.787-0.787h17.76v7.186c0 0.491 0.397 0.888 0.888 0.888h9v7.016z"></path>
</svg>
