<!-- Generated by IcoMoon.io -->
<svg version="1.1" xmlns="http://www.w3.org/2000/svg" width="32" height="32" viewBox="0 0 32 32">
<path d="M4.383 28.718l-0.006-0.004c-0.274-0.21-0.666-0.158-0.876 0.116s-0.158 0.666 0.116 0.876l0.006 0.004c0.113 0.087 0.247 0.129 0.38 0.129 0.188 0 0.374-0.084 0.497-0.245 0.21-0.274 0.158-0.666-0.116-0.876zM4.383 23.593l-0.006-0.004c-0.274-0.21-0.666-0.158-0.876 0.116s-0.158 0.666 0.116 0.876l0.006 0.004c0.113 0.087 0.247 0.129 0.38 0.129 0.188 0 0.374-0.084 0.497-0.245 0.21-0.274 0.158-0.666-0.116-0.876zM4.383 18.468l-0.006-0.004c-0.274-0.21-0.666-0.158-0.876 0.116s-0.158 0.666 0.116 0.876l0.006 0.004c0.113 0.087 0.247 0.129 0.38 0.129 0.188 0 0.374-0.084 0.497-0.245 0.21-0.274 0.158-0.666-0.116-0.876zM28.378 28.717l-0.006-0.004c-0.275-0.209-0.667-0.154-0.876 0.121s-0.154 0.667 0.121 0.876l0.006 0.004c0.113 0.086 0.245 0.127 0.377 0.127 0.189 0 0.376-0.085 0.499-0.247 0.209-0.275 0.154-0.667-0.121-0.876zM28.378 23.592l-0.006-0.004c-0.275-0.209-0.667-0.154-0.876 0.121s-0.154 0.667 0.121 0.876l0.006 0.004c0.113 0.086 0.245 0.127 0.377 0.127 0.189 0 0.376-0.085 0.499-0.247 0.209-0.275 0.154-0.667-0.121-0.876zM28.378 18.467l-0.006-0.004c-0.275-0.209-0.667-0.154-0.876 0.121s-0.154 0.667 0.121 0.876l0.006 0.004c0.113 0.086 0.245 0.127 0.377 0.127 0.189 0 0.376-0.085 0.499-0.247 0.209-0.275 0.154-0.667-0.121-0.876zM23.092 20.9h-0.008c-0.345 0-0.625 0.28-0.625 0.625s0.28 0.625 0.625 0.625h0.008c0.345 0 0.625-0.28 0.625-0.625s-0.28-0.625-0.625-0.625zM8.916 26.025h-0.008c-0.345 0-0.625 0.28-0.625 0.625s0.28 0.625 0.625 0.625h0.008c0.345 0 0.625-0.28 0.625-0.625s-0.28-0.625-0.625-0.625zM5.049 11.974c-0.116-0.116-0.277-0.183-0.442-0.183s-0.326 0.067-0.442 0.183c-0.116 0.116-0.183 0.277-0.183 0.443s0.067 0.325 0.183 0.441c0.116 0.117 0.277 0.183 0.442 0.183s0.326-0.066 0.442-0.183c0.116-0.116 0.183-0.277 0.183-0.441s-0.067-0.326-0.183-0.443zM31.375 15.775h-2.596c1.117-0.643 1.871-1.847 1.871-3.226 0-1.431-0.812-2.705-2.049-3.325 0.213-0.474 0.324-0.99 0.324-1.522 0-2.051-1.669-3.719-3.719-3.719-0.647 0-1.268 0.163-1.821 0.475-0.726-0.512-1.594-0.789-2.491-0.789-0.061 0-0.121 0.002-0.181 0.005-0.66-1.925-2.502-3.271-4.575-3.271-1.87 0-3.562 1.083-4.359 2.743-0.15-0.014-0.3-0.021-0.45-0.021-1.965 0-3.711 1.187-4.456 2.957-0.132-0.040-0.267-0.076-0.403-0.106 0.072-0.799 0.325-1.411 0.757-1.823 0.377-0.359 0.755-0.433 0.771-0.436l-0.009 0.001-0-0.001c0.132-0.019 0.257-0.080 0.352-0.176 0.116-0.116 0.183-0.277 0.183-0.441s-0.067-0.326-0.183-0.442c-0.116-0.116-0.277-0.183-0.442-0.183-0.035 0-0.070 0.004-0.104 0.010l-0-0.001c-0.371 0.058-0.879 0.266-1.347 0.689v-2.147c0-0.345-0.28-0.625-0.625-0.625h-1.5c-0.345 0-0.625 0.28-0.625 0.625v2.337c-0.719-0.881-1.495-1.396-1.555-1.436-0.289-0.188-0.675-0.107-0.864 0.181s-0.108 0.675 0.18 0.865c0.021 0.014 1.912 1.28 2.193 3.101-2.115 0.635-3.65 2.494-3.65 4.683 0 0.909 0.519 3.093 1.028 5.018h-0.403c-0.345 0-0.625 0.28-0.625 0.625v15.375c0 0.345 0.28 0.625 0.625 0.625h30.75c0.345 0 0.625-0.28 0.625-0.625v-15.375c0-0.345-0.28-0.625-0.625-0.625zM11.328 4.375c0.24 0 0.481 0.024 0.716 0.072 0.305 0.062 0.609-0.11 0.713-0.404 0.506-1.429 1.864-2.389 3.38-2.389 1.477 0 2.796 0.921 3.331 2.259-1.688 0.591-2.903 2.199-2.903 4.086 0 0.345 0.28 0.625 0.625 0.625s0.625-0.28 0.625-0.625c0-1.697 1.381-3.078 3.078-3.078 0.753 0 1.478 0.275 2.041 0.775 0.222 0.197 0.552 0.21 0.79 0.032 0.43-0.323 0.942-0.493 1.481-0.493 1.362 0 2.469 1.108 2.469 2.469 0 0.535-0.168 1.045-0.487 1.473-0.125 0.167-0.157 0.386-0.087 0.583s0.234 0.345 0.436 0.396c1.097 0.277 1.863 1.261 1.863 2.394 0 1.362-1.108 2.469-2.469 2.469-0.155 0-0.313-0.015-0.468-0.045-0.303-0.058-0.603 0.114-0.706 0.404-0.049 0.137-0.111 0.27-0.184 0.397h-0.789l2.559-3.669c0.096-0.138 0.133-0.309 0.101-0.474s-0.128-0.311-0.268-0.404l-1.822-1.213c-0.142-0.095-0.316-0.127-0.483-0.090s-0.31 0.141-0.398 0.287l-0.911 1.509 0.746-3.773c0.067-0.337-0.151-0.664-0.487-0.733l-1.59-0.327c-0.164-0.034-0.335-0-0.475 0.093s-0.235 0.239-0.266 0.404l-0.204 1.096h-1.459c-0.345 0-0.625 0.28-0.625 0.625v3.596c-0.415-2.127-2.292-3.737-4.539-3.737-1.012 0-1.974 0.321-2.78 0.929-0.665 0.501-1.188 1.183-1.502 1.95 0.080-0.469 0.119-0.829 0.119-1.088 0-0.848-0.23-1.646-0.635-2.343 0.328-0.893 1.182-1.5 2.148-1.5 0.153 0 0.307 0.015 0.457 0.046 0.305 0.062 0.61-0.111 0.714-0.404 0.134-0.38 0.367-0.72 0.675-0.983 0.262-0.224 0.293-0.619 0.069-0.881s-0.619-0.293-0.881-0.069c-0.343 0.294-0.627 0.65-0.836 1.047-0.066-0.004-0.132-0.005-0.197-0.005-1.244 0-2.368 0.651-3.002 1.667-0.297-0.286-0.63-0.538-0.993-0.75 0.549-1.32 1.848-2.207 3.31-2.207zM22.851 15.316l2.354-3.898 0.747 0.497-2.693 3.86h-0.499l0.091-0.459zM22.070 12.825v-1.735c0.003-0.013 0.007-0.026 0.009-0.040l0.523-2.809 0.359 0.074-0.892 4.51zM20.448 14.691c0.003-0.024 0.005-0.048 0.005-0.072v-4.887h0.367v6.043h-0.197c0.002-0.039 0.003-0.078 0.003-0.118 0-0.341-0.063-0.666-0.177-0.967zM11.875 11.775c-0.018 0-0.037 0.001-0.055 0.001 0.611-0.949 1.682-1.56 2.844-1.56 1.651 0 3.029 1.193 3.318 2.761-0.865 0.006-1.631 0.441-2.105 1.107-0.801-1.38-2.294-2.31-4.001-2.31zM15.191 15.775h-6.632c0.294-1.563 1.669-2.75 3.316-2.75s3.022 1.187 3.316 2.75zM18 14.227c0.758 0 1.375 0.642 1.375 1.43 0 0.039-0.002 0.079-0.005 0.118h-2.74c-0.003-0.039-0.005-0.078-0.005-0.118 0-0.789 0.617-1.43 1.375-1.43zM4.947 1.65h0.25v4.191c-0.084 0.001-0.167 0.003-0.25 0.008v-4.199zM1.287 10.263c0.039 0.008 0.079 0.012 0.12 0.012h3.090c0.345 0 0.625-0.28 0.625-0.625s-0.28-0.625-0.625-0.625h-2.772c0.676-1.151 2.002-1.935 3.525-1.935 2.206 0 4 1.645 4 3.667 0 0.163-0.026 0.464-0.125 1.018h-2.482c-0.345 0-0.625 0.28-0.625 0.625s0.28 0.625 0.625 0.625h2.075c-0.758 0.71-1.278 1.671-1.424 2.75h-4.972c-0.683-2.549-1.071-4.365-1.071-5.018 0-0.168 0.013-0.332 0.037-0.494zM30.75 20.9h-5.5c-0.345 0-0.625 0.28-0.625 0.625s0.28 0.625 0.625 0.625h5.5v3.875h-19.712c-0.345 0-0.625 0.28-0.625 0.625s0.28 0.625 0.625 0.625h19.712v3.875h-29.5v-3.875h5.5c0.345 0 0.625-0.28 0.625-0.625s-0.28-0.625-0.625-0.625h-5.5v-3.875h19.712c0.345 0 0.625-0.28 0.625-0.625s-0.28-0.625-0.625-0.625h-19.712v-3.875h29.5v3.875zM15.342 3.775h-0.008c-0.345 0-0.625 0.28-0.625 0.625s0.28 0.625 0.625 0.625h0.008c0.345 0 0.625-0.28 0.625-0.625s-0.28-0.625-0.625-0.625z"></path>
</svg>
