<!-- Generated by IcoMoon.io -->
<svg version="1.1" xmlns="http://www.w3.org/2000/svg" width="44" height="32" viewBox="0 0 44 32">
<path d="M35.746 3.746h7.649c0.234 0 0.39-0.156 0.39-0.39s-0.156-0.39-0.39-0.39h-7.649c-0.234 0-0.39 0.156-0.39 0.39s0.156 0.39 0.39 0.39z"></path>
<path d="M35.746 6.322h7.493c0.234 0 0.39-0.156 0.39-0.39s-0.156-0.39-0.39-0.39h-7.493c-0.234 0-0.39 0.156-0.39 0.39s0.156 0.39 0.39 0.39z"></path>
<path d="M35.746 8.976h4.761c0.234 0 0.39-0.156 0.39-0.39s-0.156-0.39-0.39-0.39h-4.761c-0.234 0-0.39 0.156-0.39 0.39s0.156 0.39 0.39 0.39z"></path>
<path d="M32.468 2.341h-4.605c-0.78 0-1.327 0.624-1.327 1.327v4.605c0 0.78 0.624 1.327 1.327 1.327h4.605c0.702 0 1.327-0.624 1.327-1.327v-4.605c0-0.78-0.624-1.327-1.327-1.327zM33.015 8.273c0 0.312-0.234 0.546-0.546 0.546h-4.605c-0.312 0-0.546-0.234-0.546-0.546v-4.605c0-0.312 0.234-0.546 0.546-0.546h4.605c0.312 0 0.546 0.234 0.546 0.546v4.605z"></path>
<path d="M43.395 23.024h-7.649c-0.234 0-0.39 0.156-0.39 0.39s0.156 0.39 0.39 0.39h7.649c0.234 0 0.39-0.156 0.39-0.39s-0.156-0.39-0.39-0.39z"></path>
<path d="M43.239 25.678h-7.493c-0.234 0-0.39 0.156-0.39 0.39s0.156 0.39 0.39 0.39h7.493c0.234 0 0.39-0.156 0.39-0.39s-0.156-0.39-0.39-0.39z"></path>
<path d="M40.507 28.254h-4.761c-0.234 0-0.39 0.156-0.39 0.39s0.156 0.39 0.39 0.39h4.761c0.234 0 0.39-0.156 0.39-0.39s-0.156-0.39-0.39-0.39z"></path>
<path d="M32.468 22.4h-4.605c-0.78 0-1.327 0.624-1.327 1.327v4.605c0 0.78 0.624 1.327 1.327 1.327h4.605c0.702 0 1.327-0.624 1.327-1.327v-4.605c0-0.702-0.624-1.327-1.327-1.327zM33.015 28.332c0 0.312-0.234 0.546-0.546 0.546h-4.605c-0.312 0-0.546-0.234-0.546-0.546v-4.605c0-0.312 0.234-0.546 0.546-0.546h4.605c0.312 0 0.546 0.234 0.546 0.546v4.605z"></path>
<path d="M8.039 13.034h-7.649c-0.234 0-0.39 0.156-0.39 0.39s0.156 0.39 0.39 0.39h7.649c0.234 0 0.39-0.156 0.39-0.39s-0.156-0.39-0.39-0.39z"></path>
<path d="M8.039 15.61h-7.493c-0.234 0-0.39 0.156-0.39 0.39s0.156 0.39 0.39 0.39h7.493c0.234 0 0.39-0.156 0.39-0.39s-0.156-0.39-0.39-0.39z"></path>
<path d="M8.039 18.185h-4.761c-0.234 0-0.39 0.156-0.39 0.39s0.156 0.39 0.39 0.39h4.761c0.234 0 0.39-0.156 0.39-0.39s-0.156-0.39-0.39-0.39z"></path>
<path d="M15.922 12.332h-4.605c-0.78 0-1.327 0.624-1.327 1.327v4.605c0 0.78 0.624 1.327 1.327 1.327h4.605c0.781 0 1.327-0.624 1.327-1.327v-4.605c0.078-0.702-0.546-1.327-1.327-1.327zM16.546 18.341c0 0.312-0.234 0.546-0.546 0.546h-4.605c-0.312 0-0.546-0.234-0.546-0.546v-4.605c0-0.312 0.234-0.546 0.546-0.546h4.605c0.312 0 0.546 0.234 0.546 0.546v4.605z"></path>
<path d="M24.195 6.322h0.937c0.234 0 0.39-0.156 0.39-0.39s-0.156-0.39-0.39-0.39h-0.937c-0.156-0.937-0.937-1.717-1.873-1.873v-3.278c0-0.234-0.156-0.39-0.39-0.39s-0.39 0.156-0.39 0.39v3.278c-1.093 0.156-1.951 1.093-1.951 2.263s0.859 2.107 1.951 2.263v5.463c-0.937 0.156-1.717 0.937-1.873 1.873h-0.937c-0.234 0-0.39 0.156-0.39 0.39s0.156 0.468 0.39 0.468h0.937c0.156 0.937 0.937 1.717 1.873 1.873v5.463c-1.093 0.156-1.951 1.093-1.951 2.263s0.859 2.107 1.951 2.263v3.278c0 0.234 0.156 0.39 0.39 0.39s0.39-0.156 0.39-0.39v-3.278c0.937-0.156 1.717-0.937 1.873-1.873h0.937c0.234 0 0.39-0.156 0.39-0.39s-0.156-0.39-0.39-0.39h-0.937c-0.156-0.937-0.937-1.717-1.873-1.873v-5.463c1.093-0.156 1.951-1.093 1.951-2.263s-0.859-2.107-1.951-2.263v-5.463c1.015-0.234 1.717-0.937 1.873-1.951zM20.449 5.932c0-0.859 0.702-1.561 1.561-1.561s1.561 0.702 1.561 1.561-0.702 1.561-1.561 1.561c-0.937 0-1.561-0.702-1.561-1.561zM23.493 26.068c0 0.859-0.702 1.561-1.561 1.561s-1.561-0.702-1.561-1.561 0.702-1.561 1.561-1.561c0.859 0 1.561 0.702 1.561 1.561zM23.493 16c0 0.859-0.702 1.561-1.561 1.561s-1.561-0.702-1.561-1.561c0-0.859 0.702-1.561 1.561-1.561s1.561 0.702 1.561 1.561z"></path>
</svg>
