<!-- Generated by IcoMoon.io -->
<svg version="1.1" xmlns="http://www.w3.org/2000/svg" width="31" height="32" viewBox="0 0 31 32">
<path d="M27.941 3.122c-0.234 0-0.39 0.156-0.39 0.39s0.234 0.39 0.39 0.39c1.015 0 1.873 0.859 1.873 1.873v20.449c0 1.015-0.859 1.873-1.873 1.873h-1.795v-9.288c0-0.234-0.156-0.39-0.39-0.39s-0.39 0.156-0.39 0.39v9.6c0 1.561-1.249 2.81-2.81 2.81h-18.966c-1.561 0-2.81-1.249-2.81-2.81v-24.82c0-1.561 1.249-2.81 2.81-2.81h18.966c1.561 0 2.81 1.249 2.81 2.81v9.522c0 0.234 0.156 0.39 0.39 0.39s0.39-0.156 0.39-0.39v-9.522c0-2.029-1.639-3.59-3.59-3.59h-18.966c-1.951 0-3.59 1.639-3.59 3.59v24.741c0 2.029 1.639 3.668 3.59 3.668h18.966c1.795 0 3.356-1.327 3.59-3.122h1.795c1.483 0 2.654-1.171 2.654-2.654v-20.449c0.078-1.483-1.171-2.654-2.654-2.654z"></path>
<path d="M4.137 25.99c0 0.234 0.156 0.39 0.39 0.39h3.278c0.156 0.78 0.859 1.405 1.717 1.405s1.561-0.624 1.717-1.405h10.224c0.234 0 0.39-0.156 0.39-0.39s-0.156-0.39-0.39-0.39h-10.224c-0.156-0.78-0.859-1.405-1.717-1.405s-1.561 0.624-1.717 1.405h-3.278c-0.234 0-0.39 0.156-0.39 0.39zM9.522 24.976c0.546 0 1.015 0.468 1.015 1.015s-0.468 1.015-1.015 1.015-0.937-0.468-0.937-1.015c0-0.546 0.39-1.015 0.937-1.015z"></path>
<path d="M12.098 16c0.234 0 0.546-0.078 0.78-0.234l2.888-1.717c0.468-0.312 0.78-0.78 0.78-1.327s-0.312-1.015-0.78-1.327l-2.888-1.717c-0.468-0.312-1.015-0.312-1.561 0-0.468 0.312-0.78 0.78-0.78 1.327v3.356c0 0.546 0.312 1.015 0.78 1.327 0.234 0.234 0.546 0.312 0.78 0.312zM11.395 11.083c0-0.234 0.156-0.546 0.39-0.624 0.078-0.078 0.234-0.078 0.39-0.078s0.234 0 0.39 0.078l2.888 1.717c0.234 0.156 0.39 0.39 0.39 0.624s-0.156 0.546-0.39 0.624l-2.966 1.717c-0.234 0.156-0.546 0.156-0.78 0s-0.39-0.39-0.39-0.624v-3.434z"></path>
<path d="M9.366 8.117c0.156-0.156 0.234-0.39 0.078-0.546s-0.39-0.234-0.546-0.078c-1.639 1.327-2.576 3.2-2.576 5.307 0 3.746 3.044 6.79 6.79 6.79s6.79-3.044 6.79-6.79c0-3.746-3.044-6.79-6.79-6.79-0.234 0-0.39 0.156-0.39 0.39s0.156 0.39 0.39 0.39c3.356 0 6.010 2.732 6.010 6.010s-2.732 6.010-6.010 6.010c-3.356 0-6.010-2.732-6.010-6.010 0-1.873 0.78-3.59 2.263-4.683z"></path>
</svg>
