<!-- Generated by IcoMoon.io -->
<svg version="1.1" xmlns="http://www.w3.org/2000/svg" width="32" height="32" viewBox="0 0 32 32">
<path d="M30.068 12.152c-0.216-0.129-0.484-0.135-0.705-0.016l-4.619 2.486v-2.13c0-0.395-0.32-0.714-0.714-0.714h-1.162c1.449-1.175 2.377-2.968 2.377-4.975 0-3.531-2.872-6.403-6.403-6.403-3.014 0-5.547 2.093-6.225 4.902-0.886-1.069-2.224-1.752-3.719-1.752-2.662 0-4.829 2.166-4.829 4.829 0 1.325 0.537 2.527 1.404 3.4h-0.652c-0.394 0-0.714 0.32-0.714 0.714v3.242h-1.808c-0.395 0-0.714 0.32-0.714 0.714v2.809c0 0.395 0.32 0.714 0.714 0.714h1.808v3.242c0 0.395 0.32 0.714 0.714 0.714h8.427l-3.872 7.427c-0.182 0.35-0.047 0.781 0.303 0.964 0.105 0.055 0.218 0.081 0.33 0.081 0.258 0 0.507-0.14 0.634-0.384l3.783-7.256 3.783 7.256c0.127 0.244 0.376 0.384 0.634 0.384 0.111 0 0.224-0.026 0.33-0.081 0.35-0.182 0.486-0.614 0.303-0.964l-3.872-7.427h8.427c0.394 0 0.714-0.32 0.714-0.714v-2.131l4.619 2.486c0.106 0.057 0.222 0.085 0.338 0.085 0.127 0 0.254-0.034 0.366-0.101 0.216-0.129 0.348-0.362 0.348-0.613v-10.176c0-0.251-0.132-0.484-0.348-0.613zM4.107 18.544h-1.094v-1.38h1.094v1.38zM18.842 1.829c2.743 0 4.975 2.232 4.975 4.975s-2.232 4.975-4.975 4.975c-2.743 0-4.975-2.232-4.975-4.975s2.232-4.975 4.975-4.975zM13.387 10.153c0.382 0.619 0.865 1.168 1.428 1.624h-2.492c0.457-0.46 0.821-1.012 1.064-1.624zM8.898 4.978c1.875 0 3.4 1.525 3.4 3.4s-1.525 3.4-3.4 3.4c-1.875 0-3.4-1.525-3.4-3.4s1.525-3.4 3.4-3.4zM23.316 15.818v6.682h-8.877c-0.001 0-0.003 0-0.004 0h-0.019c-0.001 0-0.002 0-0.002 0h-8.878v-9.294h17.78v2.612zM28.987 21.746l-4.243-2.284v-3.217l4.243-2.284v7.784zM8.898 6.208c-1.196 0-2.17 0.973-2.17 2.17s0.973 2.17 2.17 2.17c1.196 0 2.17-0.973 2.17-2.17s-0.973-2.17-2.17-2.17zM8.898 9.262c-0.488 0-0.884-0.397-0.884-0.884s0.397-0.884 0.884-0.884c0.488 0 0.884 0.397 0.884 0.884s-0.397 0.884-0.884 0.884zM18.842 3.687c-1.718 0-3.116 1.398-3.116 3.116s1.398 3.116 3.116 3.116 3.116-1.398 3.116-3.116c0-1.718-1.398-3.116-3.116-3.116zM18.842 8.491c-0.93 0-1.687-0.757-1.687-1.687s0.757-1.688 1.687-1.688 1.687 0.757 1.687 1.688-0.757 1.687-1.687 1.687zM16.537 15.284h-7.766c-0.375 0-0.679 0.304-0.679 0.679v3.782c0 0.375 0.304 0.679 0.679 0.679h7.766c0.375 0 0.679-0.304 0.679-0.679v-3.782c0-0.375-0.304-0.679-0.679-0.679zM15.858 19.066h-6.409v-2.425h6.409v2.425zM20.998 16.676c0 0.395-0.32 0.714-0.714 0.714s-0.714-0.32-0.714-0.714c0-0.395 0.32-0.714 0.714-0.714s0.714 0.32 0.714 0.714zM20.998 19.030c0 0.395-0.32 0.714-0.714 0.714s-0.714-0.32-0.714-0.714c0-0.395 0.32-0.714 0.714-0.714s0.714 0.32 0.714 0.714z"></path>
</svg>
