<!-- Generated by IcoMoon.io -->
<svg version="1.1" xmlns="http://www.w3.org/2000/svg" width="32" height="32" viewBox="0 0 32 32">
<path d="M27.601 11.655c-6.427-6.426-16.882-6.426-23.309 0l-4.292 4.292 4.399 4.399c3.213 3.213 7.434 4.82 11.655 4.82s8.441-1.607 11.655-4.82l4.292-4.292-4.399-4.398zM26.943 19.581c-6.005 6.004-15.775 6.004-21.78 0l-3.635-3.635 3.528-3.528c6.005-6.004 15.775-6.004 21.78 0l3.635 3.635-3.528 3.528z"></path>
<path d="M15.444 11.659c-2.086 0-3.784 1.697-3.784 3.784 0 0.298 0.242 0.541 0.541 0.541s0.541-0.242 0.541-0.541c0-1.49 1.212-2.703 2.703-2.703 0.298 0 0.541-0.242 0.541-0.541s-0.242-0.541-0.541-0.541z"></path>
<path d="M15.985 8.957c-3.875 0-7.027 3.152-7.027 7.027s3.152 7.027 7.027 7.027 7.027-3.152 7.027-7.027-3.152-7.027-7.027-7.027zM15.985 21.93c-3.278 0-5.946-2.668-5.946-5.946s2.668-5.946 5.946-5.946 5.946 2.668 5.946 5.946-2.667 5.946-5.946 5.946z"></path>
</svg>
