<!-- Generated by IcoMoon.io -->
<svg version="1.1" xmlns="http://www.w3.org/2000/svg" width="32" height="32" viewBox="0 0 32 32">
<path d="M1.527 11.682c0.080-0.054-0.291 0.197 0.785-0.532 0.743-0.492 1.401-0.9 1.927-0.9 0.139 0 0.562 0 1.040 0.71 1.319 1.956 2.144 5.111 2.944 8.167 0.902 3.444 1.834 7.005 3.485 8.973 0.786 0.936 1.784 1.41 2.965 1.41 1.569 0 3.454-0.845 5.17-2.32 4.922-4.228 12.518-13.374 12.143-19.85-0.181-3.126-2.215-4.84-5.054-4.84-2.437 0-4.978 1.268-6.475 3.229-1.23 1.613-1.5 2.737-2.056 3.933l1.676-0.268c0.262-0.042 0.495-0.063 0.713-0.063 0.681 0 1.207 0.209 1.607 0.638 0.409 0.438 0.578 1.044 0.517 1.854-0.197 2.606-2.836 6.467-4.52 7.797-0.207 0.164-0.469 0.261-0.702 0.261-0.211 0-0.773 0-1.435-1.669-1.105-2.787-1.896-9.387-3.076-12.998-0.451-1.376-1.713-2.266-3.216-2.266-1.006 0-2.042 0.399-2.994 1.154-4.267 3.377-5.182 4.2-6.972 5.665zM8.136 5.572c0.618-0.489 1.25-0.748 1.83-0.748 0.688 0 1.238 0.374 1.434 0.974 1.018 3.112 2.022 10.348 3.115 13.105 0.28 0.706 1.131 2.853 3.178 2.853 0.65 0 1.33-0.242 1.865-0.665 1.968-1.555 4.982-5.883 5.227-9.127 0.101-1.343-0.241-2.445-1.016-3.274-0.6-0.644-1.376-1.045-2.271-1.182 0.139-0.216 0.29-0.429 0.452-0.642 1.155-1.514 3.111-2.492 4.984-2.492 1.371 0 3.035 0.533 3.182 3.074 0.333 5.741-7.043 14.498-11.493 18.319-1.341 1.152-2.854 1.867-3.949 1.867-0.627 0-1.099-0.229-1.529-0.741-1.38-1.645-2.258-4.999-3.109-8.247-0.838-3.203-1.704-6.515-3.201-8.735-0.718-1.066-1.557-1.426-2.229-1.513 1.237-1.006 2.452-1.973 3.53-2.826z"></path>
</svg>
