<!-- Generated by IcoMoon.io -->
<svg version="1.1" xmlns="http://www.w3.org/2000/svg" width="32" height="32" viewBox="0 0 32 32">
<path d="M31.985 8.961c-0.142 3.115-2.32 7.383-6.527 12.799-4.35 5.657-8.031 8.486-11.044 8.486-1.864 0-3.442-1.722-4.732-5.169-0.861-3.159-1.723-6.315-2.583-9.474-0.956-3.445-1.983-5.169-3.082-5.169-0.239 0-1.078 0.505-2.512 1.508l-1.504-1.941c1.578-1.387 3.137-2.776 4.669-4.167 2.107-1.819 3.688-2.778 4.743-2.875 2.491-0.239 4.023 1.465 4.599 5.109 0.622 3.934 1.052 6.381 1.293 7.338 0.717 3.263 1.508 4.894 2.37 4.894 0.67 0 1.678-1.060 3.019-3.175 1.34-2.118 2.058-3.729 2.154-4.834 0.191-1.827-0.527-2.743-2.154-2.743-0.767 0-1.558 0.175-2.369 0.525 1.572-5.152 4.577-7.656 9.013-7.514 3.289 0.097 4.838 2.231 4.649 6.402z"></path>
</svg>
