<!-- Generated by IcoMoon.io -->
<svg version="1.1" xmlns="http://www.w3.org/2000/svg" width="32" height="32" viewBox="0 0 32 32">
<path d="M20.504 8.457c0-2.402 0.922-3.652 2.224-3.652 1.24 0 2.066 1.122 2.066 3.396 0 1.294-0.344 2.712-0.598 3.55 0.002 0.002 1.236 2.172 4.611 1.506 0.716-1.604 1.106-3.682 1.106-5.503 0-4.901-2.48-7.753-7.023-7.753-4.673 0-7.405 3.622-7.405 8.395 0 4.729 2.194 8.791 5.809 10.641-1.52 3.066-3.456 5.767-5.473 7.803-3.66-4.463-6.969-10.415-8.329-22.032h-5.403c2.496 19.348 9.933 25.507 11.899 26.691 1.112 0.674 2.072 0.642 3.088 0.064 1.596-0.916 6.391-5.747 9.047-11.409 1.114-0.004 2.454-0.132 3.79-0.438v-3.81c-0.818 0.19-1.608 0.274-2.32 0.274-4.006 0-7.087-2.82-7.087-7.723z"></path>
</svg>
