<!-- Generated by IcoMoon.io -->
<svg version="1.1" xmlns="http://www.w3.org/2000/svg" width="32" height="32" viewBox="0 0 32 32">
<path d="M1.97 5.686c0.506 7.879 4.533 19.173 9.221 23.589 1.352 1.351 2.509 2.408 3.978 2.675l-0.001 0.010c2.319 0.444 5.214-2.926 6.683-4.766 1.829-2.292 3.502-4.924 4.286-6.487 1.455-0.050 1.76-0.089 3.24-0.444l0.718-0.173v-5.576l-1.173 0.305c-2.076 0.539-3.888 0.314-5.241-0.651-1.452-1.036-2.324-2.886-2.523-5.352 0.007-0.863 0.254-2.442 1.151-2.563 0.256 0.018 0.436 0.121 0.593 0.339 0.617 0.856 0.54 2.896 0.115 4.294l-0.143 0.47c0.203 0.166 0.974 1.842 3.746 1.842 1.302-0 2.41-0.374 2.715-0.44 0.095-0.419 0.677-1.909 0.761-4.692l0.001-0.023-0-0.023c-0.085-4.675-2.675-8.021-7.438-8.021l-0.027 0.001c-2.886 0.082-5.166 1.261-6.595 3.408-1.799 2.703-1.987 6.616-0.503 10.468 0.646 1.668 1.878 3.842 4.157 5.229-1.341 2.381-2.631 4.23-3.914 5.608-3.609-4.464-5.644-10.136-6.942-19.221l-0.115-0.805h-6.813zM7.096 6.563c1.128 7.487 2.931 14.467 7.918 20.157l0.641 0.731 0.707-0.667c1.808-1.704 3.585-4.194 5.432-7.612l0.475-0.878-0.907-0.418c-2.286-1.055-3.481-3.125-4.081-4.674-1.247-3.234-1.126-6.589 0.314-8.753 1.075-1.616 2.83-2.505 5.074-2.572 4.887 0.008 5.511 4.289 5.549 6.157-0.037 1.193-0.16 2.171-0.403 3.165-0.904 0.176-2.098 0.25-2.858-0.319 0.666-2.826 0.19-6.428-2.651-6.503l-0.048-0.001-0.048 0.004c-2.084 0.16-2.928 2.355-2.928 4.472l0.003 0.073c0.238 3.056 1.381 5.397 3.307 6.771 1.544 1.102 3.472 1.502 5.628 1.18v1.733c-0.914 0.202-1.222 0.196-3.314 0.263-0.003 0.006-1.049 2.805-4.52 7.154-2.693 3.374-4.287 4.162-4.833 4.099l0.001-0.010c-1.146-0.181-2.228-1.408-3.067-2.195-4.378-4.113-7.913-14.696-8.563-21.355z"></path>
</svg>
