<!-- Generated by IcoMoon.io -->
<svg version="1.1" xmlns="http://www.w3.org/2000/svg" width="32" height="32" viewBox="0 0 32 32">
<path d="M23.333 16.4h-1.333v-5.428c1.147-0.298 2-1.333 2-2.572v-5.333c0-1.471-1.197-2.667-2.667-2.667h-10.667c-1.47 0-2.667 1.196-2.667 2.667v5.333c0 1.239 0.853 2.274 2 2.572v5.428h-1.333c-1.103 0-2 0.897-2 2s0.897 2 2 2h0.667v11.333c0 0.368 0.298 0.667 0.667 0.667s0.667-0.298 0.667-0.667v-11.333h10.667v11.333c0 0.368 0.298 0.667 0.667 0.667s0.667-0.298 0.667-0.667v-11.333h0.667c1.103 0 2-0.897 2-2s-0.897-2-2-2zM9.333 8.4v-5.333c0-0.735 0.598-1.333 1.333-1.333h10.667c0.736 0 1.333 0.598 1.333 1.333v5.333c0 0.735-0.598 1.333-1.333 1.333h-10.667c-0.736 0-1.333-0.598-1.333-1.333zM20.667 11.067v5.333h-9.333v-5.333h9.333zM23.333 19.067h-14.667c-0.367 0-0.667-0.299-0.667-0.667s0.3-0.667 0.667-0.667h14.667c0.367 0 0.667 0.299 0.667 0.667s-0.3 0.667-0.667 0.667z"></path>
</svg>
