<!-- Generated by IcoMoon.io -->
<svg version="1.1" xmlns="http://www.w3.org/2000/svg" width="32" height="32" viewBox="0 0 32 32">
<path d="M28.484 19.163l-0.017-0.016c-0.273-0.252-1.11-1.067-1.392-1.423-0.331-0.444-0.255-0.735-0.007-1.171 0.314-0.551 0.942-1.396 1.608-2.291 2.131-2.866 3.507-4.85 3.223-6.259l-0.153-0.753-7.869 0.003c-0.028 0.074-0.438 1.878-2.171 4.95-1.257 2.227-2.081 2.927-2.371 3.051l-0.045-0.014c-0.094-0.117-0.26-0.432-0.327-1.243-0.071-0.85-0.008-1.88 0.053-2.876 0.071-1.167 0.132-2.176-0.014-2.897l-0.239-1.175c-0.289-0.046-1.346-0.454-4.292-0.485-2.551-0.026-3.3 0.342-3.668 0.667l-1.217 1.074 1.538 0.518c0.585 0.197 0.78 0.424 0.939 1.551 0.104 0.734 0.158 1.969 0.046 3.070-0.161 1.58-0.548 1.874-0.568 1.889-0.067-0.023-0.632-0.27-1.613-2.344-0.681-1.439-1.277-3.141-1.713-4.383-0.499-1.423-0.409-1.12-0.662-1.792l-7.613-0 0.493 1.274c2.054 5.318 3.938 9.471 6.46 12.454 2.786 3.296 6.249 5.021 10.914 5.021h0.938v-0.938c0-0.876 0.073-1.508 0.228-1.986 0.095-0.291 0.221-0.532 0.354-0.785 0.197-0.372 0.389-0.532 0.494-0.555 0.095-0.022 0.263 0.048 0.448 0.187 0.533 0.397 0.956 0.919 1.403 1.472 0.646 0.798 1.314 1.622 2.374 2.162 0.579 0.295 1.641 0.444 2.225 0.444 0.155 0 5.663-0 5.669-0l-0.040-0.976c-0.060-1.459-1.209-3.284-3.414-5.424zM26.304 23.687h-0.015c-0.403 0.007-1.172-0.125-1.395-0.239-0.705-0.359-1.197-0.967-1.768-1.671-0.501-0.618-1.019-1.258-1.739-1.795-0.583-0.435-1.113-0.562-1.533-0.562-0.168 0-0.319 0.020-0.448 0.050-0.488 0.11-1.186 0.461-1.741 1.511-0.157 0.299-0.334 0.637-0.478 1.079-0.151 0.463-0.244 0.977-0.289 1.603-3.515-0.2-6.258-1.59-8.575-4.331-2.155-2.549-3.85-6.113-5.645-10.644 0.13 0 3.385 0.001 3.577 0.001 0.059 0.165 0.122 0.346 0.19 0.538 0.47 1.341 1.114 3.176 1.872 4.742 1.086 2.242 2.078 3.241 3.216 3.241 0.568 0 1.078-0.241 1.473-0.697 0.564-0.65 0.892-1.722 1.002-3.278 0.087-1.227 0.006-2.45-0.089-3.123-0.079-0.554-0.191-1.136-0.464-1.657 1.165-0.053 2.726 0.031 3.714 0.172 0.090 0.489 0.031 1.451-0.025 2.381-0.137 2.248-0.278 4.567 0.911 5.652 0.209 0.191 0.431 0.293 0.438 0.297l0.605 0.186c0.234-0.072 1.587 0.614 4.149-3.857 0.821-1.433 1.585-3.084 1.997-4.162 0.955-0.002 4.207 0.002 4.589 0.002-0.541 1.191-1.824 2.89-2.662 4.018-0.731 0.983-1.362 1.832-1.732 2.482-0.688 1.208-0.572 2.285 0.144 3.235l0.011 0.015c0.4 0.509 1.387 1.451 1.592 1.641 1.484 1.441 2.199 2.476 2.539 3.171h-3.421z"></path>
</svg>
