<!-- Generated by IcoMoon.io -->
<svg version="1.1" xmlns="http://www.w3.org/2000/svg" width="32" height="32" viewBox="0 0 32 32">
<path d="M31.715 23.156c-0.086-0.144-0.618-1.3-3.178-3.676-2.68-2.488-2.32-2.084 0.908-6.386 1.966-2.62 2.752-4.22 2.506-4.904-0.234-0.652-1.68-0.48-1.68-0.48l-4.808 0.028c0 0-0.356-0.048-0.622 0.11-0.258 0.156-0.424 0.516-0.424 0.516s-0.762 2.028-1.778 3.752c-2.142 3.638-3 3.83-3.35 3.604-0.814-0.526-0.61-2.116-0.61-3.244 0-3.526 0.534-4.996-1.042-5.376-0.524-0.126-0.908-0.21-2.246-0.224-1.716-0.018-3.17 0.006-3.992 0.408-0.548 0.268-0.97 0.866-0.712 0.9 0.318 0.042 1.038 0.194 1.42 0.714 0.494 0.67 0.476 2.178 0.476 2.178s0.284 4.15-0.662 4.666c-0.65 0.354-1.54-0.368-3.45-3.67-0.978-1.69-1.718-3.56-1.718-3.56s-0.142-0.348-0.396-0.534c-0.308-0.226-0.74-0.298-0.74-0.298l-4.572 0.028c0 0-0.686 0.020-0.938 0.318-0.224 0.266-0.018 0.814-0.018 0.814s3.58 8.375 7.633 12.597c3.718 3.87 7.939 3.616 7.939 3.616h1.912c0 0 0.578-0.064 0.872-0.382 0.272-0.292 0.262-0.84 0.262-0.84s-0.038-2.566 1.154-2.944c1.174-0.372 2.682 2.48 4.28 3.578 1.208 0.83 2.126 0.648 2.126 0.648l4.274-0.060c0 0 2.236-0.138 1.176-1.896z"></path>
</svg>
