<!-- Generated by IcoMoon.io -->
<svg version="1.1" xmlns="http://www.w3.org/2000/svg" width="32" height="32" viewBox="0 0 32 32">
<path d="M13.040 5.132c-0.395 0-0.791 0.167-1.178 0.495l-6.557 5.573h-2.906c-1.323 0-2.4 1.077-2.4 2.4v6.4c0 1.323 1.077 2.4 2.4 2.4h2.906l6.557 5.573c0.386 0.328 0.783 0.495 1.178 0.495 0 0 0 0 0 0 0.435 0 0.826-0.211 1.072-0.58 0.191-0.287 0.288-0.653 0.288-1.089v-20c0-1.152-0.683-1.668-1.36-1.668zM1.6 20v-6.4c0-0.441 0.359-0.8 0.8-0.8h2.4v8h-2.4c-0.441 0-0.8-0.359-0.8-0.8zM12.8 26.67l-6.4-5.44v-8.86l6.4-5.44v19.74z"></path>
</svg>
