<!-- Generated by IcoMoon.io -->
<svg version="1.1" xmlns="http://www.w3.org/2000/svg" width="32" height="32" viewBox="0 0 32 32">
<path d="M18.933 4.133c0-0.8-0.533-1.333-1.333-1.333-0.267 0-0.533 0.133-0.8 0.267l-8 6.4c-0.267 0.133-0.533 0.267-0.8 0.267h-6.533c-0.667 0-1.333 0.533-1.333 1.2 0 0 0 0.133 0 0.133v9.867c0 0.667 0.533 1.333 1.2 1.333 0 0 0.133 0 0.133 0h6.533c0.267 0 0.533 0.133 0.8 0.267l8 6.4c0.533 0.4 1.467 0.267 1.867-0.267 0.133-0.267 0.267-0.533 0.267-0.8v-23.733z"></path>
<path d="M27.6 24.667c-0.4 0-0.667-0.133-0.933-0.4-0.533-0.533-0.533-1.333 0-1.867 1.733-1.733 2.667-4 2.667-6.4s-0.933-4.667-2.667-6.4c-0.4-0.533-0.267-1.467 0.267-1.867s1.067-0.4 1.6 0c2.133 2.267 3.467 5.2 3.467 8.4s-1.2 6.133-3.467 8.4c-0.267 0-0.533 0.133-0.933 0.133z"></path>
</svg>
