<!-- Generated by IcoMoon.io -->
<svg version="1.1" xmlns="http://www.w3.org/2000/svg" width="32" height="32" viewBox="0 0 32 32">
<path d="M12.4 6.4l-5.6 4.4c-0.133 0.267-0.533 0.4-0.8 0.4h-4.667c-0.8 0-1.333 0.667-1.333 1.333v6.933c0 0.8 0.667 1.333 1.333 1.333h4.667c0.267 0 0.667 0.133 0.8 0.267l5.467 4.4c0.667 0.4 1.467 0.4 1.867-0.267 0.133-0.267 0.267-0.533 0.267-0.8v-16.933c0-0.8-0.667-1.333-1.333-1.333-0.133 0-0.533 0.133-0.667 0.267z"></path>
<path d="M21.067 22.133c-0.267 0-0.667-0.133-0.8-0.4-0.533-0.533-0.533-1.2 0-1.733l9.733-9.733c0.4-0.533 1.2-0.533 1.733 0s0.533 1.2 0 1.733c0 0 0 0 0 0l-9.733 9.733c-0.267 0.267-0.667 0.4-0.933 0.4z"></path>
<path d="M30.8 22.133c-0.267 0-0.667-0.133-0.8-0.4l-9.867-9.733c-0.533-0.4-0.533-1.2 0-1.733 0.4-0.533 1.2-0.533 1.733 0 0 0 0 0 0 0l9.733 9.733c0.533 0.533 0.533 1.2 0 1.733-0.267 0.267-0.533 0.4-0.8 0.4z"></path>
</svg>
