<!-- Generated by IcoMoon.io -->
<svg version="1.1" xmlns="http://www.w3.org/2000/svg" width="32" height="32" viewBox="0 0 32 32">
<path d="M21.845 23.809c-0.232 0-0.463-0.101-0.621-0.295-0.279-0.343-0.227-0.847 0.116-1.125 1.691-1.375 2.66-3.412 2.66-5.588s-0.97-4.213-2.66-5.589c-0.343-0.279-0.395-0.783-0.116-1.125s0.783-0.395 1.125-0.116c2.066 1.68 3.25 4.17 3.25 6.83s-1.185 5.149-3.25 6.83c-0.148 0.121-0.327 0.179-0.504 0.179zM18.818 20.084c-0.232 0-0.463-0.101-0.621-0.295-0.279-0.343-0.227-0.847 0.116-1.125 0.564-0.459 0.887-1.137 0.887-1.863s-0.323-1.405-0.887-1.863c-0.343-0.279-0.395-0.783-0.116-1.125s0.783-0.395 1.125-0.116c0.939 0.764 1.477 1.895 1.477 3.104s-0.538 2.341-1.477 3.104c-0.148 0.121-0.327 0.179-0.504 0.179zM13.040 5.132c-0.395 0-0.791 0.167-1.178 0.495l-6.557 5.573h-2.906c-1.323 0-2.4 1.077-2.4 2.4v6.4c0 1.323 1.077 2.4 2.4 2.4h2.906l6.557 5.573c0.386 0.328 0.783 0.495 1.178 0.495 0 0 0 0 0 0 0.435 0 0.826-0.211 1.072-0.58 0.191-0.287 0.288-0.653 0.288-1.089v-20c0-1.152-0.683-1.668-1.36-1.668zM1.6 20v-6.4c0-0.441 0.359-0.8 0.8-0.8h2.4v8h-2.4c-0.441 0-0.8-0.359-0.8-0.8zM12.8 26.67l-6.4-5.44v-8.86l6.4-5.44v19.74z"></path>
</svg>
