<!-- Generated by IcoMoon.io -->
<svg version="1.1" xmlns="http://www.w3.org/2000/svg" width="32" height="32" viewBox="0 0 32 32">
<path d="M15.867 5.867c0-0.933-1.067-1.467-1.733-0.933l-6.8 5.333c-0.133 0.267-0.4 0.4-0.667 0.4h-5.6c-0.667 0-1.067 0.4-1.067 1.067v8.267c0 0.667 0.4 1.067 1.067 1.067h5.6c0.267 0 0.4 0.133 0.667 0.267l6.8 5.333c0.8 0.533 1.733 0.133 1.733-0.933v-19.867z"></path>
<path d="M26.4 28c-0.4 0-0.533-0.133-0.8-0.4-0.4-0.4-0.4-1.067 0-1.6 2.667-2.667 4.133-6.267 4.133-10.133s-1.467-7.467-4.133-10.133c-0.4-0.4-0.4-1.067 0-1.6s1.067-0.4 1.6 0c3.067 3.333 4.8 7.467 4.8 11.867s-1.733 8.533-4.8 11.733c-0.267 0.133-0.533 0.267-0.8 0.267zM20.933 22.667c-0.4 0-0.533-0.133-0.8-0.4-0.4-0.4-0.4-1.067 0-1.6 1.2-1.2 1.867-2.933 1.867-4.667s-0.667-3.333-1.867-4.667c-0.4-0.4-0.4-1.067 0-1.6 0.4-0.4 1.067-0.4 1.6 0 1.733 1.733 2.533 3.867 2.533 6.267s-0.933 4.667-2.533 6.267c-0.267 0.267-0.533 0.4-0.8 0.4z"></path>
</svg>
