<!-- Generated by IcoMoon.io -->
<svg version="1.1" xmlns="http://www.w3.org/2000/svg" width="32" height="32" viewBox="0 0 32 32">
<path d="M31.6 0.4c-0.533-0.533-1.333-0.533-1.867 0l-29.333 29.333c-0.533 0.533-0.533 1.333 0 1.867 0.267 0.267 0.533 0.4 0.933 0.4s0.667-0.133 0.933-0.4l8-8 3.467 2.8c0.267 0.133 0.533 0.267 0.8 0.267 0.133 0 0.4 0 0.533-0.133 0.4-0.267 0.8-0.667 0.8-1.2v-7.467l4.533-4.533c0.533 0.8 0.8 1.733 0.8 2.667 0 1.467-0.533 2.8-1.6 3.733-0.533 0.533-0.533 1.333 0 1.867 0.267 0.267 0.667 0.4 0.933 0.4s0.667-0.133 0.933-0.4c1.467-1.467 2.4-3.6 2.4-5.6 0-1.733-0.533-3.333-1.467-4.667l2.933-2.8c1.733 2.133 2.667 4.667 2.667 7.467 0 3.2-1.2 6.267-3.467 8.533-0.533 0.533-0.533 1.333 0 1.867 0.267 0.267 0.667 0.4 0.933 0.4s0.667-0.133 0.933-0.4c2.8-2.8 4.267-6.4 4.267-10.4 0-3.467-1.2-6.8-3.333-9.333l4.4-4.4c0.4-0.533 0.4-1.333-0.133-1.867z"></path>
<path d="M2.667 21.333h2.4l10.933-10.933v-3.733c0-0.533-0.267-0.933-0.8-1.2-0.4-0.267-1.067-0.133-1.467 0.133l-6.267 5.067h-4.8c-0.8 0-1.333 0.533-1.333 1.333v8c0 0.8 0.533 1.333 1.333 1.333z"></path>
</svg>
