<!-- Generated by IcoMoon.io -->
<svg version="1.1" xmlns="http://www.w3.org/2000/svg" width="32" height="32" viewBox="0 0 32 32">
<path d="M11.662 19.331c0.194-0.194 0.519-0.325 0.912-0.325 0.519 0 0.912 0.262 1.238 0.781l0.975-0.781c-0.519-0.85-1.306-1.306-2.344-1.306-0.781 0-1.431 0.194-1.887 0.65s-0.719 1.106-0.719 2.087v1.5h-1.044v1.175h0.975v2.15h-0.975v1.238h5.931v-1.238h-3.519v-2.15h1.956v-1.175h-1.956v-1.563c0.006-0.456 0.131-0.781 0.456-1.044zM20.331 1.087h-15.963v30.625h23.194v-23.394l-7.231-7.231zM20.725 3.306l4.694 4.694h-4.694v-4.694zM5.606 30.413v-28.019h13.813v6.188c0 0.394 0.325 0.65 0.65 0.65h6.256v21.175h-20.719z"></path>
</svg>
