<!-- Generated by IcoMoon.io -->
<svg version="1.1" xmlns="http://www.w3.org/2000/svg" width="32" height="32" viewBox="0 0 32 32">
<path d="M12.325 19.85c0.387-0.262 0.781-0.387 1.238-0.387s0.844 0.063 1.169 0.194c0.325 0.131 0.65 0.387 0.975 0.781l0.844-1.038c-0.713-0.919-1.756-1.375-2.988-1.375-0.844 0-1.625 0.262-2.275 0.781s-1.106 1.169-1.363 2.019h-1.238v1.1h0.975c-0.012 0.506 0.063 0.781 0.063 0.975h-1.037v1.038h1.3c0.262 0.781 0.713 1.431 1.363 1.887s1.363 0.712 2.213 0.712c1.238 0 2.213-0.456 2.925-1.363l-0.844-1.038c-0.325 0.387-0.65 0.65-0.975 0.781-0.325 0.194-0.65 0.262-1.106 0.262-0.912 0-1.494-0.387-1.95-1.238h2.731v-1.038h-3.056c-0.063-0.131-0.106-0.688-0.063-0.975h3.056v-1.038h-2.794c0.188-0.462 0.45-0.788 0.838-1.044zM20.325 1.119h-15.931v30.563h23.15v-23.344l-7.219-7.219zM25.394 8.012h-4.681v-4.681l4.681 4.681zM5.625 30.381v-27.962h13.788v6.175c0 0.387 0.325 0.65 0.65 0.65h6.244v21.131h-20.681z"></path>
</svg>
