<!-- Generated by IcoMoon.io -->
<svg version="1.1" xmlns="http://www.w3.org/2000/svg" width="32" height="32" viewBox="0 0 32 32">
<path d="M21.269 7.1v-5.981h-10.6v5.981h-5.006v24.575h20.675v-24.575h-5.069zM11.969 2.356h8.125v10.075h-8.125v-10.075zM25.1 30.444h-18.2v-22.106h3.769v4.094h-1.494v1.238h13.656v-1.238h-1.563v-4.094h3.837v22.106zM9.563 17.181h2.537v1.238h-2.537v-1.238zM14.762 17.181h2.538v1.238h-2.537v-1.238zM19.969 17.181h2.538v1.238h-2.538v-1.238zM9.563 21.6h2.537v1.238h-2.537v-1.238zM14.762 21.6h2.538v1.238h-2.537v-1.238zM19.969 21.6h2.538v1.238h-2.538v-1.238zM9.563 25.956h2.537v1.238h-2.537v-1.238zM14.762 25.956h2.538v1.238h-2.537v-1.238zM19.969 25.956h2.538v1.238h-2.538v-1.238zM13.919 4.375h4.162v1.237h-4.162v-1.237zM13.919 7.95h4.162v1.237h-4.162v-1.237z"></path>
</svg>
