<!-- Generated by IcoMoon.io -->
<svg version="1.1" xmlns="http://www.w3.org/2000/svg" width="32" height="32" viewBox="0 0 32 32">
<path d="M25.644 10.669v-2.869h3.781v-6.713h-12.381v6.713h3.781v2.869h-8.15v-3.912h-8.012v3.912h-3.975v21.044h30.625v-21.044h-5.669zM18.281 2.394h9.837v4.106h-9.837v-4.106zM22.063 7.8h2.281v2.869h-2.281v-2.869zM5.9 8.063h5.475v7.3h-5.475v-7.3zM30.006 30.406h-28.012v-18.5h2.669v3.456h-1.694v1.306h11.338v-1.306h-1.631v-3.456h17.331v18.5zM28.381 13.531h-11.731v3.913h11.731v-3.912zM27.075 16.137h-9.125v-1.369h9.125v1.369zM3.487 23.306h4.237v-4.238h-4.237v4.238zM4.725 20.313h1.694v1.694h-1.694v-1.694zM10.394 23.306h4.238v-4.238h-4.238v4.238zM11.7 20.313h1.694v1.694h-1.694v-1.694zM17.369 23.306h4.238v-4.238h-4.238v4.238zM18.606 20.313h1.694v1.694h-1.694v-1.694zM24.275 23.306h4.238v-4.238h-4.238v4.238zM25.581 20.313h1.694v1.694h-1.694v-1.694zM3.487 28.913h4.237v-4.238h-4.237v4.238zM4.725 25.913h1.694v1.694h-1.694v-1.694zM10.394 28.913h4.238v-4.238h-4.238v4.238zM11.7 25.913h1.694v1.694h-1.694v-1.694zM17.369 28.913h4.238v-4.238h-4.238v4.238zM18.606 25.913h1.694v1.694h-1.694v-1.694zM24.275 28.913h4.238v-4.238h-4.238v4.238zM25.581 25.913h1.694v1.694h-1.694v-1.694z"></path>
</svg>
