<!-- Generated by IcoMoon.io -->
<svg version="1.1" xmlns="http://www.w3.org/2000/svg" width="32" height="32" viewBox="0 0 32 32">
<path d="M14.344 22.45c-0.456-0.325-1.106-0.65-2.019-0.844h-0.063v-2.212c0.588 0.131 1.169 0.325 1.688 0.712l0.781-1.106c-0.781-0.519-1.625-0.844-2.469-0.913v-0.587h-0.781v0.587c-0.781 0.063-1.431 0.262-1.887 0.712-0.456 0.456-0.713 0.975-0.713 1.688s0.262 1.238 0.65 1.563c0.387 0.325 1.037 0.65 1.95 0.844v2.344c-0.713-0.131-1.431-0.456-2.081-1.038l-0.844 1.038c0.844 0.781 1.819 1.169 2.925 1.3v0.712h0.844v-0.844c0.781-0.063 1.431-0.262 1.95-0.712 0.456-0.456 0.713-1.038 0.713-1.688 0.006-0.65-0.194-1.169-0.644-1.556zM11.481 21.475c-0.456-0.131-0.781-0.325-0.912-0.456-0.194-0.194-0.262-0.387-0.262-0.65s0.131-0.456 0.325-0.65 0.456-0.262 0.844-0.325v2.081zM13.113 24.919c-0.194 0.194-0.519 0.262-0.912 0.325v-2.144c0.456 0.131 0.781 0.325 0.975 0.456s0.262 0.387 0.262 0.65c0 0.325-0.131 0.519-0.325 0.712zM20.325 1.119h-15.931v30.563h23.15v-23.344l-7.219-7.219zM20.712 3.331l4.681 4.681h-4.681v-4.681zM5.625 30.381v-27.962h13.788v6.175c0 0.387 0.325 0.65 0.65 0.65h6.244v21.131h-20.681z"></path>
</svg>
