<!-- Generated by IcoMoon.io -->
<svg version="1.1" xmlns="http://www.w3.org/2000/svg" width="26" height="32" viewBox="0 0 26 32">
<path d="M12.8 2.448c5.929 0 10.752 4.823 10.752 10.752s-4.823 10.752-10.752 10.752-10.752-4.823-10.752-10.752 4.823-10.752 10.752-10.752zM12.8 1.68c-6.362 0-11.52 5.158-11.52 11.52s5.158 11.52 11.52 11.52 11.52-5.158 11.52-11.52-5.158-11.52-11.52-11.52v0zM11.096 8.625c-0.896-0.495-1.623-0.089-1.623 0.905v7.338c0 0.995 0.727 1.4 1.623 0.905l6.664-3.678c0.897-0.495 0.897-1.297 0-1.792l-6.664-3.678z"></path>
</svg>
