<!-- Generated by IcoMoon.io -->
<svg version="1.1" xmlns="http://www.w3.org/2000/svg" width="32" height="32" viewBox="0 0 32 32">
<path d="M30.663 14.313h-0.781v-5.275c0-1.237-0.975-2.213-2.15-2.213h-0.587v-3.525c0-1.238-0.913-2.212-2.019-2.212 0 0-0.063 0-0.131 0l-22.288 5.731c-0.006 0-0.019 0.006-0.025 0.006-1.1 0.088-1.994 1.031-1.994 2.213v20.462c0 1.238 0.975 2.212 2.15 2.212h24.894c1.238 0 2.212-0.975 2.212-2.212v-5.413h0.719c0.394 0 0.65-0.262 0.65-0.65v-8.469c0-0.394-0.325-0.656-0.65-0.656zM25.25 2.325c0.325 0.063 0.65 0.456 0.65 0.975v3.519h-17.981l17.331-4.494zM28.644 29.5c0 0.519-0.394 0.975-0.913 0.975h-24.894c-0.519 0-0.913-0.456-0.913-0.975v-20.462c0-0.519 0.394-0.975 0.913-0.975h24.825c0.519 0 0.913 0.456 0.913 0.975v5.275h-6.45c-2.738 0-4.887 2.15-4.887 4.888s2.212 4.887 4.887 4.887h6.519v5.412zM30.006 22.85h-7.881c-1.956 0-3.581-1.631-3.581-3.581s1.631-3.581 3.581-3.581h7.881v7.163zM21.406 19.331c0 0.394 0.325 0.65 0.65 0.65h0.587c0.325 0 0.65-0.262 0.65-0.65 0-0.394-0.325-0.65-0.65-0.65h-0.581c-0.394 0-0.656 0.262-0.656 0.65z"></path>
</svg>
