<!-- Generated by IcoMoon.io -->
<svg version="1.1" xmlns="http://www.w3.org/2000/svg" width="32" height="32" viewBox="0 0 32 32">
<path d="M30.971 2.827c-0.664-0.663-1.546-1.028-2.484-1.028h-22.27c-0.331 0-0.6 0.269-0.6 0.6v2.44h-1.768c-0.331 0-0.6 0.269-0.6 0.6v2.186h-1.355c-0.331 0-0.6 0.269-0.6 0.6v6.968h-0.694c-0.331 0-0.6 0.269-0.6 0.6v7.041c0 0.331 0.269 0.6 0.6 0.6h0.694v6.968c0 0.331 0.269 0.6 0.6 0.6h26.593c1.937 0 3.513-1.576 3.513-3.513v-22.176c0-0.939-0.365-1.821-1.029-2.485zM1.2 22.233v-5.84h3.4c1.61 0 2.92 1.31 2.92 2.92s-1.31 2.92-2.92 2.92h-3.4zM30.8 27.488c0 1.275-1.038 2.313-2.313 2.313h-25.993v-6.368h2.107c2.272 0 4.12-1.848 4.12-4.12s-1.848-4.12-4.12-4.12h-2.107v-6.368h25.993c0.885 0 1.695-0.33 2.313-0.872v19.535zM28.882 7.59v-2.151c0-0.331-0.269-0.6-0.6-0.6h-2.37c-0.331 0-0.6 0.269-0.6 0.6s0.269 0.6 0.6 0.6h1.77v1.586h-23.234v-1.586h17.176c0.331 0 0.6-0.269 0.6-0.6s-0.269-0.6-0.6-0.6h-14.808v-1.84h21.67c0.618 0 1.199 0.241 1.636 0.677s0.677 1.018 0.677 1.636c0 1.141-0.83 2.090-1.918 2.279zM4.746 19.811c-0.008-0.005-0.014-0.010 0.001 0.001s0.008 0.006 0.001 0c0.417 0.28 0.991-0.076 0.927-0.573-0.062-0.479-0.674-0.706-1.019-0.351-0.232 0.225-0.232 0.623 0 0.848 0.027 0.028 0.058 0.052 0.090 0.074zM24.241 5.006c-0.373-0.362-1.027-0.103-1.025 0.425 0.002 0.526 0.651 0.787 1.025 0.424 0.166-0.171 0.224-0.431 0.13-0.654-0.030-0.073-0.075-0.139-0.13-0.195zM24.37 5.201c0.015 0.036-0.015-0.037 0 0v0z"></path>
</svg>
