<!-- Generated by IcoMoon.io -->
<svg version="1.1" xmlns="http://www.w3.org/2000/svg" width="32" height="32" viewBox="0 0 32 32">
<path d="M29.6 30.4h-28.8c-0.284 0-0.547-0.151-0.691-0.396s-0.146-0.548-0.007-0.796l14.4-25.6c0.142-0.252 0.408-0.408 0.697-0.408s0.556 0.156 0.697 0.408l14.4 25.6c0.139 0.248 0.137 0.551-0.007 0.796s-0.406 0.396-0.691 0.396zM2.168 28.8h26.064l-13.032-23.168-13.032 23.168zM15.2 22.4c-0.442 0-0.8-0.358-0.8-0.8v-8c0-0.442 0.358-0.8 0.8-0.8s0.8 0.358 0.8 0.8v8c0 0.442-0.358 0.8-0.8 0.8zM15.2 27.2c-0.442 0-0.8-0.358-0.8-0.8v-1.6c0-0.442 0.358-0.8 0.8-0.8s0.8 0.358 0.8 0.8v1.6c0 0.442-0.358 0.8-0.8 0.8z"></path>
</svg>
