<!-- Generated by IcoMoon.io -->
<svg version="1.1" xmlns="http://www.w3.org/2000/svg" width="32" height="32" viewBox="0 0 32 32">
<path d="M27 16.4c0-2.539-0.952-4.86-2.517-6.625-0.003-0.011-0.006-0.022-0.009-0.033l-1.272-3.816c-0.123-0.368-0.378-0.663-0.702-0.84v-3.185c0-0.827-0.673-1.5-1.5-1.5h-8c-0.827 0-1.5 0.673-1.5 1.5v3.185c-0.324 0.178-0.58 0.472-0.702 0.84l-1.272 3.816c-0.004 0.011-0.006 0.022-0.009 0.033-0.921 1.039-1.63 2.27-2.057 3.625h-0.96c-0.827 0-1.5 0.673-1.5 1.5v3c0 0.827 0.673 1.5 1.5 1.5h0.96c0.427 1.355 1.136 2.586 2.057 3.625 0.003 0.011 0.005 0.022 0.009 0.033l1.272 3.816c0.123 0.368 0.378 0.663 0.702 0.84v3.185c0 0.827 0.673 1.5 1.5 1.5h8c0.827 0 1.5-0.673 1.5-1.5v-3.185c0.324-0.178 0.58-0.472 0.702-0.84l1.272-3.816c0.004-0.011 0.006-0.022 0.009-0.033 1.565-1.765 2.516-4.086 2.516-6.625zM11.746 6.242c0.068-0.205 0.259-0.342 0.474-0.342h6.279c0.276 0 0.5-0.224 0.5-0.5s-0.224-0.5-0.5-0.5h-6v-3c0-0.276 0.224-0.5 0.5-0.5h8c0.276 0 0.5 0.224 0.5 0.5v3h-1c-0.276 0-0.5 0.224-0.5 0.5s0.224 0.5 0.5 0.5h1.279c0.216 0 0.406 0.137 0.474 0.342l0.713 2.138c-1.667-1.243-3.732-1.98-5.966-1.98s-4.3 0.737-5.966 1.98l0.713-2.138zM6.5 18.4c-0.276 0-0.5-0.224-0.5-0.5v-3c0-0.276 0.224-0.5 0.5-0.5h0.701c-0.132 0.646-0.201 1.315-0.201 2s0.069 1.354 0.201 2h-0.701zM17 7.4c4.963 0 9 4.037 9 9s-4.037 9-9 9-9-4.037-9-9 4.037-9 9-9zM22.254 26.558c-0.068 0.204-0.259 0.342-0.474 0.342h-1.279c-0.276 0-0.5 0.224-0.5 0.5s0.224 0.5 0.5 0.5h1v3c0 0.276-0.224 0.5-0.5 0.5h-8c-0.276 0-0.5-0.224-0.5-0.5v-3h6c0.276 0 0.5-0.224 0.5-0.5s-0.224-0.5-0.5-0.5h-6.279c-0.216 0-0.406-0.137-0.474-0.342l-0.713-2.138c1.667 1.243 3.732 1.98 5.966 1.98s4.3-0.737 5.966-1.98l-0.713 2.138zM17 24.4c4.411 0 8-3.589 8-8 0-1.748-0.553-3.408-1.6-4.801-0.166-0.221-0.479-0.265-0.7-0.099s-0.265 0.479-0.099 0.7c0.815 1.085 1.287 2.356 1.381 3.7h-0.482c-0.276 0-0.5 0.224-0.5 0.5s0.224 0.5 0.5 0.5h0.482c-0.246 3.462-3.020 6.236-6.482 6.482v-0.482c0-0.276-0.224-0.5-0.5-0.5s-0.5 0.224-0.5 0.5v0.482c-3.462-0.246-6.236-3.020-6.482-6.482h0.482c0.276 0 0.5-0.224 0.5-0.5s-0.224-0.5-0.5-0.5h-0.482c0.246-3.462 3.020-6.236 6.482-6.482v0.482c0 0.276 0.224 0.5 0.5 0.5s0.5-0.224 0.5-0.5v-0.482c1.345 0.094 2.615 0.566 3.7 1.381 0.221 0.166 0.534 0.121 0.7-0.1s0.121-0.534-0.099-0.7c-1.393-1.047-3.053-1.6-4.8-1.6-4.411 0-8 3.589-8 8s3.589 8 8 8zM17 11.4c-0.276 0-0.5 0.224-0.5 0.5v4.5c0 0.004 0 0.008 0.001 0.012 0 0.010 0.001 0.020 0.002 0.030 0.001 0.007 0.001 0.014 0.002 0.020 0.001 0.009 0.003 0.019 0.004 0.028 0.001 0.007 0.003 0.015 0.005 0.022s0.004 0.017 0.006 0.025c0.002 0.008 0.005 0.016 0.008 0.024s0.005 0.014 0.008 0.021c0.003 0.009 0.007 0.017 0.011 0.026 0.003 0.006 0.006 0.013 0.009 0.019 0.005 0.009 0.009 0.017 0.015 0.026 0.002 0.004 0.004 0.008 0.006 0.011l2.5 4c0.095 0.152 0.258 0.235 0.424 0.235 0.090 0 0.182-0.025 0.265-0.076 0.234-0.146 0.305-0.455 0.159-0.689l-2.424-3.878v-4.357c0-0.276-0.224-0.5-0.5-0.5z"></path>
</svg>
