<!-- Generated by IcoMoon.io -->
<svg version="1.1" xmlns="http://www.w3.org/2000/svg" width="38" height="32" viewBox="0 0 38 32">
<path d="M30.829 13.502c-1.717-3.59-5.307-5.932-9.288-5.932-5.541 0-9.99 4.371-10.302 9.756-0.312-0.078-0.624-0.078-0.937-0.078-3.044 0-5.463 2.498-5.463 5.463 0 3.044 2.498 5.463 5.463 5.463h6.244c0.234 0 0.39-0.156 0.39-0.39s-0.156-0.39-0.39-0.39v0h-6.244c-2.576 0-4.683-2.107-4.683-4.683s2.107-4.683 4.683-4.683c0.39 0 0.78 0.078 1.171 0.234l0.468 0.156v-0.546c0-5.229 4.293-9.522 9.522-9.522 3.59 0 6.868 2.029 8.507 5.229-2.029 0.156-3.824 1.171-5.073 2.732-0.156 0.156-0.078 0.39 0.078 0.546s0.39 0.078 0.546-0.078c1.249-1.561 3.044-2.498 5.073-2.498 0 0 0 0 0.078 0 0 0 0 0 0 0 3.59 0 6.556 2.966 6.556 6.556s-2.966 6.556-6.556 6.556h-3.746c-0.234 0-0.39 0.156-0.39 0.39s0.156 0.39 0.39 0.39v0h3.746c4.059 0 7.337-3.278 7.337-7.337 0-3.98-3.2-7.259-7.181-7.337z"></path>
<path d="M7.805 15.844c0.078 0.078 0.156 0.078 0.234 0.078s0.234-0.078 0.312-0.156c0.156-0.156 0.078-0.39-0.078-0.546-1.249-0.937-1.873-2.341-1.873-3.902 0-2.732 2.263-4.995 4.995-4.995 1.249 0 2.498 0.468 3.356 1.327 0.156 0.156 0.39 0.156 0.546 0s0.156-0.39 0-0.546c-1.093-1.015-2.498-1.561-3.902-1.561-3.2 0-5.776 2.576-5.776 5.776 0 1.795 0.78 3.434 2.185 4.527z"></path>
<path d="M6.4 15.844c-0.156-0.156-0.39-0.156-0.546 0l-2.966 2.654c-0.156 0.156-0.156 0.39 0 0.546 0.078 0.078 0.156 0.156 0.312 0.156 0.078 0 0.156 0 0.234-0.078l2.966-2.732c0.156-0.156 0.156-0.39 0-0.546z"></path>
<path d="M4.605 11.395c0-0.234-0.156-0.39-0.39-0.39h-3.824c-0.234 0-0.39 0.156-0.39 0.39s0.156 0.39 0.39 0.39h3.824c0.234 0 0.39-0.234 0.39-0.39z"></path>
<path d="M6.088 6.634c0.078 0.078 0.156 0.156 0.312 0.156 0.078 0 0.156 0 0.234-0.078 0.156-0.156 0.156-0.39 0-0.546l-2.732-2.966c-0.156-0.156-0.39-0.156-0.546 0s-0.234 0.39-0.078 0.546l2.81 2.888z"></path>
<path d="M11.317 4.683c0.156 0 0.39-0.234 0.39-0.39v-3.902c0-0.234-0.234-0.39-0.39-0.39s-0.39 0.156-0.39 0.39v3.902c0 0.156 0.156 0.39 0.39 0.39z"></path>
<path d="M16.156 6.478c0.078 0 0.234 0 0.234-0.078l2.732-2.654c0.156-0.156 0.156-0.39 0-0.546s-0.39-0.156-0.546 0l-2.732 2.654c-0.156 0.156-0.156 0.39 0 0.546 0.078 0.078 0.156 0.078 0.312 0.078z"></path>
<path d="M22.244 24.195c0.078-0.234 0-0.39-0.156-0.546-0.156-0.078-0.39 0-0.546 0.156l-2.419 5.151 3.512-1.171-1.405 3.668c-0.078 0.234 0 0.39 0.234 0.468 0.078 0 0.078 0 0.156 0 0.156 0 0.312-0.078 0.39-0.234l2.029-5.229-3.356 1.171 1.561-3.434z"></path>
</svg>
