<!-- Generated by IcoMoon.io -->
<svg version="1.1" xmlns="http://www.w3.org/2000/svg" width="27" height="32" viewBox="0 0 27 32">
<path d="M14.067 4.879v-0.634h1.141c0.57 0 1.141-0.253 1.521-0.634s0.634-0.95 0.634-1.521c0-0.57-0.253-1.141-0.634-1.521s-0.95-0.634-1.521-0.634h-3.232c-0.57 0-1.141 0.253-1.521 0.634s-0.634 0.951-0.634 1.521c0 0.57 0.253 1.141 0.634 1.521s0.95 0.634 1.521 0.634h1.141v0.634c-7.287 0.317-13.117 6.273-13.117 13.56 0 7.477 6.083 13.56 13.56 13.56s13.56-6.083 13.56-13.56c0-7.287-5.83-13.244-13.053-13.56zM11.913 3.232c-0.317 0-0.57-0.127-0.76-0.317s-0.317-0.507-0.317-0.76c0-0.317 0.127-0.57 0.317-0.76s0.507-0.317 0.76-0.317h3.295c0.317 0 0.57 0.127 0.76 0.317s0.317 0.507 0.317 0.76c0 0.317-0.127 0.57-0.317 0.76-0.19 0.253-0.507 0.317-0.76 0.317h-1.141v-1.077h-1.014v1.141h-1.141zM13.56 30.986c-6.907 0-12.547-5.64-12.547-12.547s5.64-12.547 12.547-12.547 12.547 5.64 12.547 12.547-5.64 12.547-12.547 12.547z"></path>
<path d="M24.016 6.907c0.127-0.127 0.38-0.127 0.507 0l0.634 0.634c0.063 0.063 0.127 0.127 0.127 0.253s-0.063 0.19-0.127 0.253l-0.76 0.76 0.76 0.76 0.76-0.76c0.253-0.253 0.38-0.634 0.38-0.95 0-0.38-0.127-0.697-0.38-0.95l-0.634-0.634c-0.253-0.253-0.634-0.38-0.951-0.38-0.38 0-0.697 0.127-0.951 0.38l-0.887 0.697 0.76 0.76 0.76-0.824z"></path>
<path d="M2.028 9.505l0.76-0.76-0.76-0.76c-0.063-0.063-0.127-0.127-0.127-0.19s0.063-0.19 0.127-0.253l0.634-0.634c0.127-0.127 0.38-0.127 0.507 0l0.76 0.76 0.697-0.697-0.76-0.824c-0.253-0.253-0.634-0.38-0.95-0.38-0.38 0-0.76 0.127-1.014 0.38l-0.634 0.634c-0.253 0.253-0.38 0.634-0.38 0.95 0 0.38 0.127 0.697 0.38 0.95l0.76 0.824z"></path>
<path d="M7.674 9.296l0.878-0.507 0.761 1.317-0.878 0.507-0.761-1.317z"></path>
<path d="M3.878 13.43l0.507-0.878 1.317 0.76-0.507 0.878-1.317-0.76z"></path>
<path d="M2.661 17.933h1.521v1.014h-1.521v-1.014z"></path>
<path d="M3.908 23.442l1.317-0.761 0.507 0.878-1.317 0.761-0.507-0.878z"></path>
<path d="M7.667 27.604l0.76-1.317 0.878 0.507-0.76 1.317-0.878-0.507z"></path>
<path d="M13.053 27.818h1.014v1.521h-1.014v-1.521z"></path>
<path d="M17.801 26.77l0.878-0.507 0.76 1.317-0.878 0.507-0.76-1.317z"></path>
<path d="M21.404 23.563l0.507-0.878 1.317 0.76-0.507 0.878-1.317-0.76z"></path>
<path d="M13.56 7.794v1.077c5.133 0 9.315 4.055 9.568 9.061h-7.477c-0.253-0.951-1.077-1.648-2.091-1.648-1.204 0-2.154 0.951-2.154 2.154s0.95 2.154 2.154 2.154c1.014 0 1.838-0.697 2.091-1.648h8.554v-0.507c0-5.83-4.816-10.646-10.646-10.646zM13.56 19.58c-0.634 0-1.141-0.507-1.141-1.141s0.507-1.141 1.141-1.141c0.634 0 1.141 0.507 1.141 1.141-0.063 0.634-0.507 1.141-1.141 1.141z"></path>
</svg>
