<!-- Generated by IcoMoon.io -->
<svg version="1.1" xmlns="http://www.w3.org/2000/svg" width="32" height="32" viewBox="0 0 32 32">
<path d="M16.004 0h-0.008c-8.822 0-15.996 7.176-15.996 16 0 3.5 1.128 6.744 3.046 9.378l-1.994 5.944 6.15-1.966c2.53 1.676 5.548 2.644 8.802 2.644 8.822 0 15.996-7.178 15.996-16s-7.174-16-15.996-16zM25.314 22.594c-0.386 1.090-1.918 1.994-3.14 2.258-0.836 0.178-1.928 0.32-5.604-1.204-4.702-1.948-7.73-6.726-7.966-7.036-0.226-0.31-1.9-2.53-1.9-4.826s1.166-3.414 1.636-3.894c0.386-0.394 1.024-0.574 1.636-0.574 0.198 0 0.376 0.010 0.536 0.018 0.47 0.020 0.706 0.048 1.016 0.79 0.386 0.93 1.326 3.226 1.438 3.462 0.114 0.236 0.228 0.556 0.068 0.866-0.15 0.32-0.282 0.462-0.518 0.734s-0.46 0.48-0.696 0.772c-0.216 0.254-0.46 0.526-0.188 0.996 0.272 0.46 1.212 1.994 2.596 3.226 1.786 1.59 3.234 2.098 3.752 2.314 0.386 0.16 0.846 0.122 1.128-0.178 0.358-0.386 0.8-1.026 1.25-1.656 0.32-0.452 0.724-0.508 1.148-0.348 0.432 0.15 2.718 1.28 3.188 1.514 0.47 0.236 0.78 0.348 0.894 0.546 0.112 0.198 0.112 1.128-0.274 2.22z"></path>
</svg>
