<!-- Generated by IcoMoon.io -->
<svg version="1.1" xmlns="http://www.w3.org/2000/svg" width="32" height="32" viewBox="0 0 32 32">
<path d="M7.739 29.717c2.472 1.488 5.299 2.272 8.204 2.272 8.802 0 16.057-7.182 16.057-15.994 0-8.802-7.245-15.994-16.057-15.994-8.785 0-15.932 7.175-15.932 15.994 0 2.943 0.784 5.792 2.272 8.266l-2.283 7.74zM1.886 15.994c0-7.786 6.306-14.12 14.057-14.12 7.82 0 14.182 6.334 14.182 14.12s-6.362 14.12-14.182 14.12c-2.691 0-5.306-0.762-7.562-2.205l-0.36-0.23-5.249 1.549 1.549-5.25-0.23-0.36c-1.442-2.256-2.205-4.892-2.205-7.624z"></path>
<path d="M7.789 13.047c0.31 1.626 1.229 4.753 3.904 7.428s5.802 3.595 7.428 3.904c1.862 0.355 4.594 0.408 5.929-0.927l0.744-0.744c0.376-0.376 0.583-0.875 0.583-1.407s-0.207-1.031-0.583-1.407l-2.977-2.977c-0.376-0.376-0.875-0.583-1.407-0.583s-1.031 0.207-1.407 0.583l-0.744 0.744c-0.455 0.455-1.313 0.457-1.771 0.006l-2.969-3.094c-0.004-0.005-0.009-0.009-0.013-0.014-0.455-0.455-0.455-1.196 0-1.652l0.744-0.744c0.778-0.778 0.778-2.036 0-2.814l-2.977-2.977c-0.776-0.776-2.038-0.776-2.814 0l-0.744 0.744c-1.066 1.066-1.421 3.338-0.927 5.93zM10.042 8.443c0.781-0.763 0.739-0.778 0.826-0.778 0.030 0 0.059 0.011 0.082 0.034 3.137 3.154 3.011 2.968 3.011 3.059 0 0.031-0.011 0.059-0.034 0.082l-0.744 0.744c-1.185 1.185-1.19 3.104-0.008 4.295l2.971 3.096c0.005 0.004 0.009 0.009 0.014 0.014 1.185 1.185 3.238 1.189 4.427 0l0.744-0.744c0.045-0.045 0.118-0.045 0.163 0 3.137 3.153 3.011 2.968 3.011 3.058 0 0.032-0.011 0.059-0.034 0.082l-0.744 0.744c-0.51 0.51-2.135 0.815-4.253 0.412-1.414-0.27-4.133-1.068-6.454-3.388s-3.119-5.040-3.388-6.454c-0.404-2.119-0.099-3.744 0.411-4.253z"></path>
</svg>
