<!-- Generated by IcoMoon.io -->
<svg version="1.1" xmlns="http://www.w3.org/2000/svg" width="32" height="32" viewBox="0 0 32 32">
<path d="M16 0c-8.835 0-16 7.165-16 16 0 2.643 0.626 5.217 1.948 7.722l-1.6 6.191c-0.139 0.487 0 0.974 0.348 1.322s0.835 0.487 1.322 0.348l6.052-1.739c2.365 1.391 5.148 2.157 7.93 2.157 8.835 0 16-7.165 16-16s-7.165-16-16-16zM16 30.609c-2.574 0-5.217-0.696-7.443-2.017-0.139-0.070-0.209-0.070-0.348-0.070-0.070 0-0.139 0-0.209 0l-6.33 1.809 1.67-6.47c0.070-0.139 0-0.348-0.070-0.487-1.252-2.435-1.878-4.87-1.878-7.374 0-8.070 6.539-14.609 14.609-14.609s14.609 6.539 14.609 14.609c0 8.070-6.539 14.609-14.609 14.609z"></path>
<path d="M22.817 18.783l-2.296-1.6c-0.209-0.139-0.417-0.278-0.626-0.348-0.557-0.209-1.113-0.139-1.461 0.070-0.209 0.139-0.417 0.278-0.696 0.487l-0.417 0.348c-0.139-0.070-0.348-0.209-0.696-0.487-0.278-0.278-0.626-0.557-1.043-0.974-0.348-0.348-0.696-0.696-0.974-1.043-0.278-0.278-0.417-0.487-0.487-0.696l0.348-0.417c0.209-0.209 0.348-0.417 0.487-0.626 0.139-0.278 0.278-0.557 0.278-0.835 0-0.209-0.070-0.487-0.139-0.696s-0.209-0.417-0.348-0.626l-1.6-2.226c-0.209-0.278-0.417-0.487-0.765-0.626-0.278-0.139-0.557-0.209-0.835-0.209-0.696 0-1.322 0.278-1.878 0.835-0.417 0.417-0.765 0.904-0.974 1.391s-0.278 1.043-0.278 1.6c0 0.835 0.209 1.67 0.557 2.504s0.835 1.67 1.461 2.504c0.557 0.835 1.252 1.6 2.017 2.365 0.765 0.696 1.53 1.391 2.365 2.017s1.67 1.113 2.504 1.461c0.904 0.348 1.739 0.557 2.504 0.557 0.557 0 1.113-0.139 1.6-0.348s0.974-0.557 1.391-0.974c0.209-0.278 0.417-0.557 0.557-0.904s0.209-0.696 0.209-1.043c0-0.278-0.070-0.557-0.139-0.835-0.139-0.139-0.348-0.417-0.626-0.626zM22.052 20.8c-0.070 0.209-0.209 0.348-0.348 0.557-0.278 0.278-0.557 0.487-0.904 0.626-0.835 0.348-1.948 0.209-3.061-0.209-0.765-0.348-1.53-0.765-2.226-1.252-0.765-0.557-1.461-1.183-2.157-1.878s-1.322-1.391-1.878-2.157c-0.557-0.765-0.974-1.53-1.252-2.226s-0.417-1.391-0.417-1.948c0-0.348 0.070-0.765 0.209-1.043 0.139-0.348 0.348-0.626 0.626-0.904s0.626-0.417 0.974-0.417c0.070 0 0.209 0 0.278 0.070s0.139 0.070 0.209 0.139l1.6 2.226c0.070 0.139 0.139 0.209 0.209 0.348 0 0.070 0.070 0.139 0.070 0.139 0 0.070 0 0.070-0.070 0.139s-0.139 0.209-0.278 0.348l-0.487 0.557c-0.209 0.209-0.348 0.487-0.348 0.765 0 0.139 0 0.209 0.070 0.348l0.139 0.278c0.139 0.278 0.417 0.626 0.696 0.974 0.348 0.417 0.696 0.765 1.043 1.113 0.417 0.417 0.765 0.765 1.113 1.043 0.348 0.348 0.696 0.557 1.043 0.696l0.209 0.070c0.348 0.139 0.904 0.070 1.183-0.278l0.557-0.487c0.139-0.139 0.278-0.209 0.348-0.278 0.139-0.070 0.209-0.070 0.278 0s0.209 0.139 0.348 0.209l2.296 1.6c0.070 0.070 0.139 0.139 0.139 0.139 0.070 0.139 0.070 0.209 0.070 0.278-0.139 0.139-0.209 0.278-0.278 0.417z"></path>
</svg>
