<!-- Generated by IcoMoon.io -->
<svg version="1.1" xmlns="http://www.w3.org/2000/svg" width="32" height="32" viewBox="0 0 32 32">
<path d="M28.566 21.034c-0.312-0.312-0.819-0.312-1.131 0l-1.042 1.042-4.367-4.25c-0.003-0.002-0.005-0.005-0.008-0.007-0.011-0.011-0.023-0.021-0.035-0.031-0.009-0.007-0.017-0.015-0.026-0.022-0.010-0.008-0.021-0.015-0.032-0.023s-0.022-0.016-0.034-0.023c-0.009-0.006-0.018-0.011-0.027-0.016-0.014-0.008-0.027-0.016-0.041-0.022-0.009-0.004-0.018-0.008-0.027-0.012-0.014-0.006-0.029-0.013-0.043-0.019-0.011-0.004-0.022-0.007-0.033-0.011-0.013-0.004-0.026-0.009-0.039-0.012s-0.028-0.007-0.043-0.010c-0.011-0.002-0.021-0.005-0.031-0.007-0.016-0.003-0.033-0.005-0.049-0.006-0.009-0.001-0.018-0.002-0.027-0.003-0.016-0.001-0.032-0.001-0.048-0.002-0.010-0-0.020-0.001-0.030-0-0.014 0-0.028 0.002-0.042 0.003-0.013 0.001-0.025 0.002-0.038 0.003s-0.023 0.004-0.035 0.006c-0.015 0.003-0.030 0.005-0.045 0.009-0.004 0.001-0.007 0.001-0.011 0.002l-6.312 1.524c-0.17 0.041-0.318 0.021-0.416-0.056s-0.152-0.216-0.152-0.391v-2.7h5.6c0.442 0 0.8-0.358 0.8-0.8s-0.358-0.8-0.8-0.8h-5.6v-4.88c0.259 0.053 0.526 0.081 0.8 0.081 2.206 0 4-1.794 4-4s-1.794-4-4-4-4 1.794-4 4c0 1.306 0.629 2.467 1.6 3.198v9.902c0 0.666 0.278 1.267 0.762 1.648 0.349 0.275 0.784 0.419 1.243 0.419 0.177 0 0.358-0.021 0.538-0.065l5.883-1.421 4.616 4.492c0.155 0.151 0.357 0.227 0.558 0.227 0.205 0 0.41-0.078 0.566-0.234l1.6-1.6c0.312-0.312 0.312-0.819 0-1.131zM15.2 3.2c1.323 0 2.4 1.077 2.4 2.4s-1.077 2.4-2.4 2.4c-1.323 0-2.4-1.077-2.4-2.4s1.077-2.4 2.4-2.4zM12 32c-5.735 0-10.4-4.665-10.4-10.4 0-2.475 0.884-4.872 2.489-6.751 1.587-1.858 3.781-3.103 6.179-3.505 0.436-0.073 0.848 0.221 0.921 0.657s-0.221 0.848-0.657 0.921c-4.249 0.713-7.332 4.363-7.332 8.678 0 4.852 3.948 8.8 8.8 8.8 4.316 0 7.966-3.084 8.678-7.332 0.073-0.436 0.486-0.73 0.921-0.657s0.73 0.486 0.657 0.921c-0.402 2.397-1.647 4.592-3.505 6.179-1.879 1.605-4.277 2.489-6.751 2.489z"></path>
</svg>
