<!-- Generated by IcoMoon.io -->
<svg version="1.1" xmlns="http://www.w3.org/2000/svg" width="32" height="32" viewBox="0 0 32 32">
<path d="M24.955 17.75c-0.011-0.369-0.174-0.721-0.449-0.966-2.339-2.082-5.359-3.229-8.505-3.229s-6.167 1.147-8.505 3.229c-0.275 0.245-0.439 0.597-0.449 0.966-0.011 0.371 0.134 0.735 0.396 0.997l2.57 2.57c0.5 0.5 1.285 0.534 1.825 0.079 1.159-0.976 2.638-1.514 4.164-1.514s3.004 0.538 4.164 1.514c0.254 0.214 0.562 0.32 0.87 0.32 0.346-0 0.691-0.134 0.955-0.399l2.57-2.57c0.262-0.263 0.407-0.626 0.396-0.997zM21.035 20.362l-0-0c-1.403-1.181-3.191-1.832-5.034-1.832s-3.632 0.651-5.032 1.831l-2.574-2.567c2.091-1.861 4.792-2.886 7.606-2.886s5.516 1.025 7.603 2.883l-2.568 2.571zM18.012 24.338c-0.537-0.537-1.252-0.833-2.012-0.833s-1.474 0.296-2.012 0.833c-1.109 1.109-1.109 2.914 0 4.024 0.555 0.555 1.283 0.832 2.012 0.832s1.457-0.277 2.012-0.832c0.537-0.537 0.833-1.252 0.833-2.012s-0.296-1.474-0.833-2.012zM17.056 27.406c-0.582 0.582-1.529 0.582-2.111 0s-0.582-1.529 0-2.111c0.282-0.282 0.657-0.437 1.056-0.437s0.774 0.155 1.056 0.437c0 0 0 0 0 0 0.282 0.282 0.437 0.657 0.437 1.056s-0.155 0.774-0.437 1.056zM31.572 9.757c-8.732-8.201-22.411-8.201-31.143-0-0.27 0.254-0.422 0.598-0.428 0.968-0.006 0.369 0.135 0.716 0.396 0.976l2.565 2.565c0.516 0.516 1.339 0.532 1.873 0.037 3.038-2.819 7.003-4.371 11.166-4.371s8.128 1.552 11.166 4.371c0.26 0.241 0.588 0.361 0.917 0.361 0.346 0 0.692-0.133 0.956-0.398l2.565-2.565c0.261-0.261 0.401-0.608 0.395-0.976-0.006-0.37-0.158-0.714-0.428-0.968zM28.086 13.313c-3.289-3.052-7.581-4.732-12.086-4.732s-8.797 1.681-12.083 4.73l-2.563-2.568c8.213-7.714 21.079-7.713 29.292 0l0.002 0.003-2.562 2.567z"></path>
</svg>
