<!-- Generated by IcoMoon.io -->
<svg version="1.1" xmlns="http://www.w3.org/2000/svg" width="32" height="32" viewBox="0 0 32 32">
<path d="M10.016 29.165h11.969c0.252 0 0.378-0.189 0.378-0.378v-25.575c0-0.252-0.189-0.378-0.378-0.378h-11.969c-0.252 0-0.378 0.189-0.378 0.378v25.575c0 0.189 0.189 0.378 0.378 0.378zM10.394 16.441h5.165v5.795h-5.165v-5.795zM16.378 16.441h5.165v5.795h-5.165v-5.795zM21.606 15.622h-5.228v-5.795h5.165v5.795zM15.622 15.622h-5.165v-5.795h5.165v5.795zM10.394 22.992h5.165v5.354h-5.165v-5.354zM16.378 28.346v-5.354h5.165v5.354h-5.165zM21.606 9.008h-5.228v-5.417h5.165v5.417zM15.622 3.591v5.417h-5.165v-5.417h5.165z"></path>
<path d="M2.331 6.299h2.772c0.252 0 0.378-0.189 0.378-0.378s-0.126-0.378-0.378-0.378h-2.772c-0.189 0-0.378 0.126-0.378 0.378s0.189 0.378 0.378 0.378z"></path>
<path d="M5.102 8.378h-2.772c-0.252 0-0.378 0.189-0.378 0.378s0.189 0.378 0.378 0.378h2.772c0.252 0 0.378-0.189 0.378-0.378s-0.126-0.378-0.378-0.378z"></path>
<path d="M5.102 11.276h-2.772c-0.252 0-0.378 0.189-0.378 0.378s0.189 0.378 0.378 0.378h2.772c0.252 0 0.378-0.189 0.378-0.378s-0.126-0.378-0.378-0.378z"></path>
<path d="M5.102 14.173h-2.772c-0.252 0-0.378 0.189-0.378 0.378s0.189 0.378 0.378 0.378h2.772c0.252 0 0.378-0.189 0.378-0.378s-0.126-0.378-0.378-0.378z"></path>
<path d="M5.102 17.071h-2.772c-0.252 0-0.378 0.189-0.378 0.378s0.189 0.378 0.378 0.378h2.772c0.252 0 0.378-0.189 0.378-0.378s-0.126-0.378-0.378-0.378z"></path>
<path d="M5.102 19.968h-2.772c-0.252 0-0.378 0.189-0.378 0.378 0 0.252 0.189 0.378 0.378 0.378h2.772c0.252 0 0.378-0.189 0.378-0.378 0.063-0.252-0.126-0.378-0.378-0.378z"></path>
<path d="M5.102 22.803h-2.772c-0.252 0-0.378 0.189-0.378 0.378s0.189 0.378 0.378 0.378h2.772c0.252 0 0.378-0.189 0.378-0.378s-0.126-0.378-0.378-0.378z"></path>
<path d="M5.102 25.701h-2.772c-0.252 0-0.378 0.189-0.378 0.378s0.189 0.378 0.378 0.378h2.772c0.252 0 0.378-0.189 0.378-0.378s-0.126-0.378-0.378-0.378z"></path>
<path d="M26.898 6.299h2.772c0.252 0 0.378-0.189 0.378-0.378s-0.189-0.378-0.378-0.378h-2.772c-0.252 0-0.441 0.126-0.441 0.378s0.189 0.378 0.441 0.378z"></path>
<path d="M26.898 9.197h2.772c0.252 0 0.378-0.189 0.378-0.378s-0.189-0.378-0.378-0.378h-2.772c-0.252 0-0.378 0.189-0.378 0.378s0.126 0.378 0.378 0.378z"></path>
<path d="M26.898 12.095h2.772c0.252 0 0.378-0.189 0.378-0.378s-0.189-0.378-0.378-0.378h-2.772c-0.252 0-0.378 0.189-0.378 0.378s0.126 0.378 0.378 0.378z"></path>
<path d="M26.898 14.992h2.772c0.252 0 0.378-0.189 0.378-0.378s-0.189-0.378-0.378-0.378h-2.772c-0.252 0-0.378 0.189-0.378 0.378s0.126 0.378 0.378 0.378z"></path>
<path d="M26.898 17.827h2.772c0.252 0 0.378-0.189 0.378-0.378s-0.189-0.378-0.378-0.378h-2.772c-0.252 0-0.378 0.189-0.378 0.378s0.126 0.378 0.378 0.378z"></path>
<path d="M26.898 20.724h2.772c0.252 0 0.378-0.189 0.378-0.378 0-0.252-0.189-0.378-0.378-0.378h-2.772c-0.252 0-0.378 0.189-0.378 0.378-0.063 0.189 0.126 0.378 0.378 0.378z"></path>
<path d="M26.898 23.622h2.772c0.252 0 0.378-0.189 0.378-0.378s-0.189-0.378-0.378-0.378h-2.772c-0.252 0-0.378 0.189-0.378 0.378s0.126 0.378 0.378 0.378z"></path>
<path d="M29.669 25.701h-2.772c-0.252 0-0.378 0.189-0.378 0.378s0.189 0.378 0.378 0.378h2.772c0.252 0 0.378-0.189 0.378-0.378s-0.189-0.378-0.378-0.378z"></path>
<path d="M31.622 1.953h-6.425v-1.575c0-0.189-0.189-0.378-0.378-0.378h-17.638c-0.252 0-0.378 0.189-0.378 0.378v1.575h-6.425c-0.189 0-0.378 0.189-0.378 0.378v27.339c0 0.252 0.189 0.378 0.378 0.378h6.425v1.575c0 0.252 0.189 0.378 0.378 0.378h17.575c0.252 0 0.378-0.189 0.378-0.378v-1.575h6.425c0.252 0 0.378-0.189 0.378-0.378v-27.339c0.063-0.189-0.126-0.378-0.315-0.378zM0.819 29.291v-26.52h5.984v26.52h-5.984zM24.378 31.244h-16.756v-30.425h16.819v30.425zM31.181 29.291h-5.984v-26.52h5.984v26.52z"></path>
</svg>
