<!-- Generated by IcoMoon.io -->
<svg version="1.1" xmlns="http://www.w3.org/2000/svg" width="32" height="32" viewBox="0 0 32 32">
<path d="M30.49 24.942c-1.421-1.482-3.668-2.233-6.676-2.233-6.463 0-7.674-2.156-10.327-6.879-0.155-0.277-0.315-0.561-0.481-0.854-4.212-7.438-8.189-11.062-8.356-11.213-0.128-0.115-0.295-0.174-0.467-0.163s-0.331 0.089-0.444 0.219c-3.146 3.615-3.692 6.668-3.738 8.167-0.006 0.206 0.004 0.412 0.029 0.61 0.001 0.008 0.002 0.015 0.003 0.023 0.057 0.451 0.189 0.89 0.393 1.306 0.47 0.96 0.83 1.974 1.071 3.015 0.241 1.042 0.364 2.111 0.364 3.179v8.444c0 0.353 0.287 0.64 0.64 0.64h2.403c0.353 0 0.64-0.287 0.64-0.64v-12.457c1.7 0.94 2.84 2.181 6.137 7.516 1.593 2.577 2.882 4.070 4.177 4.838 1.179 0.7 2.277 0.743 3.426 0.743 0.081 0 0.163-0 0.245-0 0.087-0 0.174-0 0.263-0h11.567c0.343 0 0.625-0.27 0.639-0.613 0.003-0.081 0.065-2.006-1.509-3.646zM4.264 27.921h-1.123v-7.804c0-1.165-0.133-2.331-0.397-3.468-0.167-0.723-0.388-1.435-0.659-2.127 0.817 0.457 1.668 0.801 2.179 0.991v12.408zM19.792 27.921c-0.090 0-0.179 0-0.267 0-1.193 0.002-2.055 0.006-3.014-0.564-1.094-0.649-2.283-2.050-3.742-4.411-3.815-6.174-4.911-7.174-7.588-8.463-0.002-0.001-0.004-0.002-0.006-0.003-0.014-0.007-0.029-0.013-0.044-0.018-0.007-0.003-0.014-0.006-0.021-0.008-0.002-0.001-0.003-0.001-0.005-0.002-1.191-0.396-3.222-1.31-3.818-2.142-0.007-0.095-0.010-0.192-0.007-0.289 0.038-1.258 0.487-3.767 2.988-6.846 1.173 1.184 4.347 4.644 7.624 10.43 0.165 0.291 0.324 0.574 0.478 0.85 1.346 2.397 2.409 4.29 4.042 5.575 1.719 1.354 4.001 1.957 7.401 1.957 2.632 0 4.562 0.613 5.734 1.821 0.727 0.749 1.004 1.569 1.109 2.112h-10.865zM4.641 8.093c-0.824 0-0.825 1.28 0 1.28 0.824-0 0.825-1.28 0-1.28zM3.297 10.183c-0.824 0-0.825 1.28 0 1.28 0.824 0 0.825-1.28 0-1.28zM5.985 10.183c-0.824 0-0.825 1.28 0 1.28 0.824 0 0.825-1.28 0-1.28zM25.019 25.458c-0.824 0-0.825 1.28 0 1.28 0.824-0 0.825-1.28 0-1.28zM22.971 25.458h-3.947c-0.353 0-0.64 0.287-0.64 0.64s0.287 0.64 0.64 0.64h3.947c0.353 0 0.64-0.287 0.64-0.64s-0.287-0.64-0.64-0.64z"></path>
</svg>
