<!-- Generated by IcoMoon.io -->
<svg version="1.1" xmlns="http://www.w3.org/2000/svg" width="32" height="32" viewBox="0 0 32 32">
<path d="M16 0c-8.822 0-16 7.178-16 16s7.178 16 16 16 16-7.178 16-16-7.178-16-16-16zM16 2c2.826 0 5.454 0.848 7.656 2.294-0.766 0.426-1.476 1.322-1.476 3.226 0 1.012 0.69 2.186 1.488 3.546 0.958 1.632 2.146 3.662 1.848 5.128-0.328 0.97-1.16 3.172-2.062 5.522l-4.134-11.88c0.084-0.022 0.178-0.036 0.258-0.062 0.524-0.174 0.806-0.74 0.632-1.264-0.176-0.524-0.74-0.802-1.266-0.632-0.852 0.284-2.394 0.278-3.32 0.276h-0.556c-0.92 0.002-2.468 0.008-3.32-0.276-0.518-0.176-1.086 0.108-1.262 0.632s0.108 1.090 0.632 1.264c0.422 0.142 0.92 0.218 1.428 0.274l2.46 6.396-2.326 5.868-3.974-12.432c0.146-0.034 0.302-0.060 0.436-0.106 0.524-0.174 0.808-0.74 0.632-1.264s-0.74-0.808-1.264-0.632c-0.85 0.284-2.396 0.276-3.322 0.276h-0.274c-0.18 0-0.328-0.014-0.48-0.026 2.522-3.696 6.764-6.128 11.566-6.128zM2 16c0-1.572 0.272-3.080 0.752-4.492l6.136 16.53c-4.114-2.442-6.888-6.916-6.888-12.038zM16 30c-1.384 0-2.718-0.21-3.982-0.584l4.048-10.216 3.928 10.214c-1.266 0.376-2.606 0.586-3.994 0.586zM23.158 28.008c1.296-3.322 3.528-9.076 4.198-11.022l0.026 0.008c0.028-0.080 0.058-0.184 0.078-0.306 0.226-0.628 0.418-1.202 0.572-1.686 0.494-1.562 0.808-2.936 0.972-4.152 0.636 1.596 0.996 3.33 0.996 5.15 0 5.102-2.752 9.562-6.842 12.008z"></path>
</svg>
