<!-- Generated by IcoMoon.io -->
<svg version="1.1" xmlns="http://www.w3.org/2000/svg" width="32" height="32" viewBox="0 0 32 32">
<path d="M25.25 12.819c-0.65-0.925-1.756-1.456-2.869-1.456h-1.044c-0.913 0-1.756 0.4-2.344 1.125l-3 3.644-3-3.644c-0.588-0.731-1.431-1.125-2.344-1.125h-1.044c-1.175 0-2.213 0.531-2.869 1.456l-6.050 8.55 4.756 3.45 2.606-3.712v10.606h15.9v-10.606l2.606 3.712 4.756-3.45-6.063-8.55zM24.081 19.119c-0.194-0.2-0.394-0.331-0.65-0.331-0.456 0-0.781 0.331-0.781 0.794v10.869h-13.294v-10.869c0-0.462-0.325-0.794-0.781-0.794-0.262 0-0.519 0.131-0.65 0.331l-2.737 3.913-2.737-1.988 5.344-7.556c0.394-0.594 1.106-0.925 1.825-0.925h1.044c0.519 0 1.044 0.262 1.369 0.662l3.975 4.838 3.975-4.838c0.325-0.4 0.85-0.662 1.369-0.662h1.044c0.719 0 1.431 0.331 1.825 0.925l5.344 7.556-2.738 1.988-2.744-3.913zM16 11.956c2.931 0 5.344-2.45 5.344-5.438 0-2.981-2.413-5.438-5.344-5.438s-5.344 2.45-5.344 5.438c0 2.988 2.412 5.438 5.344 5.438zM16 2.35c2.281 0 4.106 1.856 4.106 4.175s-1.825 4.175-4.106 4.175-4.106-1.856-4.106-4.175c0-2.325 1.825-4.175 4.106-4.175zM14.631 7.319l-0.65 0.794c0.519 0.463 1.106 0.794 1.694 0.863v0.531h0.85v-0.531c0.456 0 0.85-0.2 1.106-0.463 0.262-0.331 0.394-0.662 0.394-1.063 0-0.463-0.131-0.794-0.394-0.994s-0.65-0.4-1.175-0.531v-1.063c0.262 0.131 0.519 0.263 0.85 0.463l0.587-0.794c-0.456-0.331-0.975-0.531-1.431-0.594v-0.4h-0.781v0.4c-0.394 0.069-0.781 0.2-1.044 0.463s-0.394 0.594-0.394 0.994c0 0.4 0.063 0.731 0.325 0.925 0.262 0.2 0.588 0.4 1.106 0.531v1.125c-0.325-0.125-0.65-0.325-1.044-0.656zM16.519 7.056c0.131 0.069 0.194 0.131 0.262 0.2 0.063 0.069 0.063 0.131 0.063 0.263 0 0.263-0.131 0.4-0.325 0.463v-0.925zM15.35 5.263c0-0.2 0.131-0.331 0.325-0.4v0.862c-0.194-0.131-0.325-0.263-0.325-0.463zM17.044 19.581h3.975v1.262h-3.975v-1.262z"></path>
</svg>
