<!-- Generated by IcoMoon.io -->
<svg version="1.1" xmlns="http://www.w3.org/2000/svg" width="32" height="32" viewBox="0 0 32 32">
<path d="M6 2.333h20c2.025 0 3.667 1.642 3.667 3.667v20c0 2.025-1.642 3.667-3.667 3.667h-20c-2.025 0-3.667-1.642-3.667-3.667v-20c0-2.025 1.642-3.667 3.667-3.667zM9.333 8.333c-0.376 0-0.719 0.21-0.89 0.545s-0.14 0.736 0.080 1.041l5.093 7.052-4.989 4.989c-0.391 0.391-0.391 1.024 0 1.414s1.024 0.391 1.414 0l4.761-4.761 3.351 4.639c0.188 0.26 0.49 0.415 0.811 0.415h3.704c0.375 0 0.719-0.21 0.89-0.545s0.14-0.736-0.080-1.041l-5.093-7.052 4.989-4.989c0.391-0.391 0.391-1.024 0-1.414s-1.024-0.391-1.414 0l-4.761 4.761-3.351-4.639c-0.188-0.26-0.49-0.415-0.811-0.415h-3.704z"></path>
</svg>
