<!-- Generated by IcoMoon.io -->
<svg version="1.1" xmlns="http://www.w3.org/2000/svg" width="32" height="32" viewBox="0 0 32 32">
<path d="M10.667 2.667l0.159 0.009c0.367 0.044 0.702 0.239 0.922 0.543l6.352 8.794 8.958-8.956c0.521-0.521 1.365-0.521 1.885 0s0.521 1.365 0 1.885l-9.262 9.262 9.4 13.014c0.293 0.406 0.335 0.942 0.107 1.388s-0.687 0.727-1.187 0.727h-6.667c-0.428 0-0.83-0.205-1.081-0.552l-6.353-8.795-8.957 8.957c-0.521 0.521-1.365 0.521-1.885 0s-0.521-1.365 0-1.885l9.26-9.263-9.398-13.013c-0.293-0.406-0.335-0.942-0.107-1.388s0.687-0.727 1.188-0.727h6.667zM22.016 26.667h3.376l-15.408-21.333h-3.376l15.408 21.333z"></path>
</svg>
