<!-- Generated by IcoMoon.io -->
<svg version="1.1" xmlns="http://www.w3.org/2000/svg" width="32" height="32" viewBox="0 0 32 32">
<path d="M25.593 28c0 1.105-0.895 2-2 2s-2-0.895-2-2c0-1.105 0.895-2 2-2s2 0.895 2 2z"></path>
<path d="M29.991 2.578c-0.364-0.372-0.856-0.578-1.382-0.578-1.010 0-1.866 0.754-1.986 1.788l-3.018 19.056c-0.082 0.526 0.26 1.026 0.782 1.134 0.070 0.014 0.138 0.022 0.206 0.022 0.446 0 0.848-0.296 0.966-0.742l4.95-18.622c0.010-0.036 0.018-0.066 0.022-0.102 0.040-0.104 0.060-0.214 0.062-0.326 0.014-0.642-0.2-1.22-0.602-1.63z"></path>
<path d="M19.607 0.654c-0.19-0.284-0.52-0.428-0.856-0.44-0.47 0.018-0.932-0.044-1.366-0.172-0.496-0.142-1.010 0.102-1.208 0.574l-5.57 13.418-5.6-13.418c-0.198-0.472-0.718-0.72-1.208-0.574-0.436 0.13-0.888 0.176-1.36 0.172-0.352-0.014-0.668 0.154-0.86 0.438s-0.226 0.646-0.090 0.96l7.104 16.344v13.044c0 0.552 0.448 1 1 1h2c0.552 0 1-0.448 1-1l0.012-13.072 7.092-16.316c0.134-0.314 0.102-0.676-0.090-0.958z"></path>
</svg>
