<!-- Generated by IcoMoon.io -->
<svg version="1.1" xmlns="http://www.w3.org/2000/svg" width="32" height="32" viewBox="0 0 32 32">
<path d="M16 32c8.81 0 16-7.191 16-16s-7.191-16-16-16c-8.81 0-16 7.191-16 16s7.191 16 16 16zM16 1.875c7.789 0 14.125 6.336 14.125 14.125s-6.336 14.125-14.125 14.125-14.125-6.336-14.125-14.125 6.336-14.125 14.125-14.125z"></path>
<path d="M10.375 13.188c1.551 0 2.813-1.262 2.813-2.813s-1.262-2.813-2.813-2.813-2.813 1.262-2.813 2.813 1.262 2.813 2.813 2.813zM10.375 9.438c0.517 0 0.938 0.421 0.938 0.938s-0.421 0.938-0.938 0.938-0.938-0.421-0.938-0.938 0.421-0.938 0.938-0.938z"></path>
<path d="M21.625 13.188c1.551 0 2.813-1.262 2.813-2.813s-1.262-2.813-2.813-2.813-2.813 1.262-2.813 2.813 1.262 2.813 2.813 2.813zM21.625 9.438c0.517 0 0.938 0.421 0.938 0.938s-0.421 0.938-0.938 0.938-0.938-0.421-0.938-0.938 0.421-0.938 0.938-0.938z"></path>
<path d="M16 28.25c6.728 0 12.25-5.523 12.25-12.25v-0.938h-24.5v0.938c0 6.728 5.523 12.25 12.25 12.25zM16 26.375c-4.035 0-7.539-2.316-9.254-5.688h18.508c-1.715 3.372-5.219 5.688-9.254 5.688zM26.333 16.938c-0.058 0.644-0.175 1.27-0.346 1.875h-19.975c-0.17-0.605-0.288-1.231-0.346-1.875z"></path>
</svg>
