<!-- Generated by IcoMoon.io -->
<svg version="1.1" xmlns="http://www.w3.org/2000/svg" width="32" height="32" viewBox="0 0 32 32">
<path d="M16.403 2.268c-0.041-0.579-0.135-1.934-1.753-2.225-1.6-0.288-5.705 0.914-7.274 1.801-0.658 0.372-1.137 0.962-1.283 1.578-0.111 0.469-0.028 0.944 0.235 1.336 0.668 0.995 6.097 9.91 6.975 10.827 0.558 0.582 1.343 0.85 2.112 0.662 0.733-0.179 1.306-0.749 1.533-1.525 0.358-1.224-0.359-9.615-0.545-12.453zM15.144 14.207c-0.024 0.076-0.076 0.194-0.175 0.218-0.092 0.022-0.208-0.029-0.312-0.137-0.67-0.714-5.969-9.343-6.715-10.488 0.051-0.084 0.172-0.219 0.356-0.323 1.44-0.814 5.040-1.764 6.019-1.587 0.089 0.016 0.133 0.035 0.15 0.044 0.037 0.081 0.053 0.32 0.063 0.466 0.104 1.421 0.825 10.734 0.613 11.807z"></path>
<path d="M5.145 14.197c-0.396 0.212-0.924 0.683-1.187 1.722-0.359 1.42-0.49 3.977-0.074 5.63 0.279 1.109 1.292 1.77 2.361 1.53 0.492-0.111 5.755-1.79 6.804-2.125 0.939-0.3 1.525-1.218 1.458-2.285-0.058-0.924-0.54-1.62-1.358-1.959-3.466-1.436-5.173-2.154-6.477-2.614-0.52-0.184-1.062-0.148-1.528 0.102zM6.021 15.856c0.006 0.001 0.014 0.003 0.026 0.008 1.337 0.473 3.207 1.263 6.384 2.579 0.1 0.041 0.187 0.077 0.203 0.343 0.013 0.203-0.046 0.346-0.157 0.381-2.375 0.759-6.28 1.995-6.646 2.082-0.081 0.019-0.122-0.128-0.13-0.157-0.297-1.181-0.263-3.383 0.074-4.712 0.087-0.345 0.201-0.489 0.245-0.523z"></path>
<path d="M25.020 9.686c-0.548-0.508-1.22-0.779-1.845-0.745-0.511 0.028-0.959 0.249-1.298 0.639-0.132 0.152-1.33 1.744-2.273 3.027-2.244 3.055-2.279 3.271-2.323 3.543-0.12 0.736 0.151 1.524 0.708 2.057 0.563 0.54 1.333 0.757 2.111 0.597 0.235-0.048 6.581-1.664 6.637-1.679 0.718-0.188 1.072-0.627 1.242-0.962 0.299-0.587 0.288-1.332-0.033-2.153-0.555-1.419-1.84-3.319-2.926-4.324zM26.312 15.294c-0.011 0.005-0.027 0.011-0.050 0.017-0.323 0.084-6.212 1.581-6.545 1.657-0.17 0.034-0.315-0.005-0.429-0.114-0.090-0.086-0.147-0.204-0.157-0.315 0.52-0.895 3.79-5.264 4.161-5.725 0.067 0.003 0.249 0.059 0.454 0.249 0.878 0.814 2.002 2.477 2.453 3.631 0.13 0.334 0.126 0.534 0.114 0.6z"></path>
<path d="M26.491 21.605c-1.985-0.661-3.97-1.321-5.956-1.979-1.001-0.332-1.991 0.018-2.584 0.913-0.51 0.77-0.537 1.648-0.075 2.408 1.544 2.54 2.558 4.151 2.942 4.777 0.608 0.991 1.205 1.997 2.366 1.997 0.711 0 1.308-0.423 1.712-0.76 1.119-0.933 2.487-2.674 3.114-3.964 0.402-0.827 0.479-1.513 0.233-2.096-0.349-0.829-1.227-1.122-1.752-1.297zM26.323 24.178c-0.52 1.068-1.698 2.568-2.628 3.343-0.286 0.239-0.442 0.302-0.497 0.319-0.227-0.15-2.872-4.474-3.719-5.867-0.062-0.101-0.098-0.195 0.037-0.398 0.101-0.153 0.191-0.198 0.282-0.198 0.049 0 0.097 0.013 0.147 0.030 1.985 0.659 3.969 1.318 5.954 1.979 0.32 0.107 0.525 0.192 0.609 0.254-0.005 0.064-0.033 0.229-0.184 0.539z"></path>
<path d="M15.31 20.954c-0.897-0.232-1.708 0.016-2.283 0.697-3.448 4.085-3.973 4.741-4.5 5.458-0.444 0.604-0.444 1.16-0.365 1.521 0.146 0.669 0.673 1.25 1.613 1.775 0.856 0.478 1.819 0.873 2.942 1.208 0.694 0.207 1.435 0.388 2.113 0.388 1.41 0 2.171-0.835 2.174-2.048 0.006-1.639 0.004-2.326 0-6.921-0.001-0.981-0.679-1.816-1.694-2.078zM15.118 30.094c-0.107 0.043-0.522 0.121-1.864-0.279-0.991-0.296-1.83-0.639-2.565-1.049-0.463-0.258-0.624-0.437-0.676-0.509 0.338-0.551 3.858-4.698 4.447-5.395 0.073-0.086 0.131-0.155 0.381-0.090 0.185 0.048 0.291 0.143 0.291 0.263 0.006 7.28 0.007 6.974-0.014 7.061z"></path>
</svg>
