<!-- Generated by IcoMoon.io -->
<svg version="1.1" xmlns="http://www.w3.org/2000/svg" width="40" height="32" viewBox="0 0 40 32">
<path d="M29.44 0h-19.2c-6.144 0-10.24 4.096-10.24 10.24v11.52c0 6.144 4.096 10.24 10.24 10.24h19.2c6.144 0 10.24-4.096 10.24-10.24v-11.52c0-6.144-4.096-10.24-10.24-10.24zM38.4 21.76c0 5.44-3.52 8.96-8.96 8.96h-19.2c-5.44 0-8.96-3.52-8.96-8.96v-11.52c0-5.44 3.52-8.96 8.96-8.96h19.2c5.44 0 8.96 3.52 8.96 8.96v11.52z"></path>
<path d="M23.808 13.504l-4.8-2.88c-1.152-0.704-2.24-0.832-3.072-0.32-0.896 0.512-1.344 1.536-1.344 3.008v5.76c0 1.28 0.512 2.24 1.344 2.752 0.384 0.192 0.768 0.32 1.216 0.32 0.576 0 1.216-0.192 1.856-0.576l4.8-2.88c1.024-0.704 1.6-1.6 1.6-2.56s-0.576-1.92-1.6-2.624zM23.168 17.536l-4.8 2.88c-0.704 0.448-1.344 0.512-1.792 0.256s-0.704-0.832-0.704-1.664v-5.76c0-0.96 0.256-1.6 0.704-1.856 0.128-0.064 0.32-0.128 0.512-0.128 0.384 0 0.832 0.128 1.28 0.448l4.8 2.88c0.64 0.448 1.024 0.96 1.024 1.472-0.064 0.576-0.384 1.088-1.024 1.472z"></path>
</svg>
