<!-- Generated by IcoMoon.io -->
<svg version="1.1" xmlns="http://www.w3.org/2000/svg" width="32" height="32" viewBox="0 0 32 32">
<path d="M31.447 8.836c-0.392-1.702-1.784-2.957-3.459-3.145-3.968-0.443-7.985-0.445-11.982-0.443-3.999-0.002-8.016 0-11.984 0.443-1.675 0.187-3.066 1.443-3.458 3.145-0.558 2.424-0.564 5.069-0.564 7.564s0 5.14 0.558 7.564c0.391 1.701 1.782 2.957 3.458 3.145 3.968 0.443 7.985 0.446 11.983 0.443 3.999 0.002 8.015 0 11.982-0.443 1.675-0.187 3.067-1.443 3.459-3.145 0.558-2.424 0.56-5.069 0.56-7.564s0.005-5.141-0.553-7.564zM11.87 21.367c0-3.54 0-7.042 0-10.583 3.391 1.77 6.76 3.527 10.173 5.308-3.402 1.765-6.773 3.512-10.173 5.275z"></path>
</svg>
