<!-- Generated by IcoMoon.io -->
<svg version="1.1" xmlns="http://www.w3.org/2000/svg" width="32" height="32" viewBox="0 0 32 32">
<path d="M29.039 16.601c-0.331-1.437-1.506-2.496-2.92-2.654-3.349-0.374-6.74-0.376-10.114-0.374-3.376-0.002-6.766 0-10.116 0.374-1.414 0.158-2.588 1.218-2.918 2.654-0.471 2.046-0.476 4.279-0.476 6.385s0 4.339 0.471 6.385c0.33 1.436 1.505 2.496 2.919 2.654 3.349 0.374 6.739 0.376 10.115 0.374 3.376 0.002 6.765 0 10.116-0.374 1.414-0.158 2.589-1.218 2.919-2.654 0.47-2.046 0.473-4.279 0.473-6.385s0.003-4.34-0.467-6.385zM10.199 18.186h-1.955v10.389h-1.816v-10.389h-1.919v-1.702h5.691v1.702zM15.131 28.575h-1.634v-0.983c-0.649 0.744-1.265 1.107-1.865 1.107-0.526 0-0.888-0.213-1.052-0.669-0.089-0.272-0.144-0.704-0.144-1.34v-7.124h1.632v6.633c0 0.383 0 0.581 0.015 0.635 0.039 0.253 0.163 0.382 0.382 0.382 0.328 0 0.67-0.252 1.032-0.764v-6.885h1.634l0 9.009zM21.333 25.871c0 0.833-0.056 1.433-0.165 1.815-0.218 0.67-0.655 1.012-1.304 1.012-0.581 0-1.141-0.323-1.687-0.997v0.873h-1.632v-12.091h1.632v3.949c0.527-0.649 1.087-0.977 1.687-0.977 0.649 0 1.086 0.342 1.304 1.016 0.11 0.362 0.165 0.958 0.165 1.811v3.588zM27.493 24.368h-3.265v1.597c0 0.834 0.273 1.25 0.834 1.25 0.402 0 0.636-0.218 0.729-0.655 0.015-0.089 0.037-0.451 0.037-1.106h1.665v0.238c0 0.526-0.020 0.889-0.035 1.052-0.055 0.361-0.183 0.689-0.381 0.978-0.452 0.654-1.122 0.977-1.974 0.977-0.854 0-1.504-0.307-1.976-0.922-0.346-0.451-0.524-1.161-0.524-2.118v-3.155c0-0.963 0.158-1.667 0.505-2.123 0.471-0.617 1.121-0.924 1.955-0.924 0.819 0 1.468 0.307 1.926 0.924 0.342 0.455 0.505 1.16 0.505 2.123v1.865h-0.001zM25.048 20.926c-0.546 0-0.819 0.417-0.819 1.25v0.834h1.632v-0.834c-0-0.833-0.273-1.25-0.813-1.25zM18.99 20.926c-0.269 0-0.541 0.127-0.814 0.397v5.491c0.272 0.273 0.545 0.402 0.814 0.402 0.471 0 0.71-0.402 0.71-1.216v-3.845c0-0.812-0.239-1.229-0.71-1.229zM19.902 12.742c0.602 0 1.228-0.366 1.884-1.118v0.993h1.65v-9.104h-1.65v6.959c-0.366 0.517-0.712 0.772-1.042 0.772-0.221 0-0.351-0.131-0.387-0.386-0.020-0.054-0.020-0.255-0.020-0.641v-6.703h-1.645v7.199c0 0.643 0.055 1.078 0.146 1.354 0.166 0.461 0.532 0.677 1.063 0.677zM8.417 7.669v4.948h1.829v-4.948l2.201-7.269h-1.85l-1.248 4.798-1.299-4.798h-1.925c0.386 1.132 0.787 2.271 1.173 3.404 0.587 1.704 0.953 2.988 1.119 3.865zM14.899 12.742c0.826 0 1.469-0.311 1.924-0.932 0.346-0.456 0.512-1.173 0.512-2.141v-3.188c0-0.973-0.166-1.685-0.512-2.145-0.456-0.623-1.098-0.934-1.924-0.934-0.822 0-1.464 0.311-1.921 0.934-0.35 0.46-0.516 1.171-0.516 2.145v3.188c0 0.968 0.166 1.685 0.516 2.141 0.456 0.621 1.099 0.932 1.921 0.932zM14.112 6.15c0-0.842 0.255-1.262 0.787-1.262s0.787 0.42 0.787 1.262v3.83c0 0.842-0.255 1.264-0.787 1.264s-0.787-0.421-0.787-1.264v-3.83z"></path>
</svg>
