<!-- Generated by IcoMoon.io -->
<svg version="1.1" xmlns="http://www.w3.org/2000/svg" width="32" height="32" viewBox="0 0 32 32">
<path d="M4.688 28.188h22.625c2.585 0 4.688-2.103 4.688-4.688v-15c0-2.585-2.103-4.688-4.688-4.688h-22.625c-2.585 0-4.688 2.103-4.688 4.688v15c0 2.585 2.103 4.688 4.688 4.688zM1.875 8.5c0-1.551 1.262-2.813 2.813-2.813h22.625c1.551 0 2.813 1.262 2.813 2.813v15c0 1.551-1.262 2.813-2.813 2.813h-22.625c-1.551 0-2.813-1.262-2.813-2.813z"></path>
<path d="M11.313 9.719v12.744l11.281-6.476zM13.188 12.906l5.594 3.108-5.594 3.211z"></path>
</svg>
