<!-- Generated by IcoMoon.io -->
<svg version="1.1" xmlns="http://www.w3.org/2000/svg" width="32" height="32" viewBox="0 0 32 32">
<path d="M28.605 3.795c-4.527-4.527-11.893-4.527-16.42 0-4.331 4.331-4.518 11.261-0.561 15.817l-1.383 1.383-1.409-1.409c-0.322-0.322-0.843-0.322-1.165 0l-6.602 6.602c-1.419 1.419-1.419 3.728 0 5.148 0.71 0.71 1.642 1.064 2.574 1.064s1.864-0.355 2.574-1.064l6.602-6.602c0.322-0.322 0.322-0.843 0-1.165l-1.409-1.409 1.383-1.383c2.175 1.889 4.891 2.834 7.607 2.834 2.973 0 5.947-1.132 8.21-3.395 4.527-4.527 4.527-11.893 0-16.42zM5.047 30.171c-0.777 0.777-2.041 0.777-2.818 0s-0.777-2.041 0-2.818l3.684-3.684 2.818 2.818-3.684 3.684zM9.896 25.322l-2.818-2.818 1.171-1.171 2.818 2.818-1.171 1.171zM27.44 19.051c-3.885 3.885-10.206 3.885-14.091 0s-3.885-10.206 0-14.091c1.943-1.943 4.494-2.914 7.046-2.914s5.103 0.971 7.045 2.914c3.885 3.885 3.885 10.206 0 14.091zM26.081 6.319c-1.519-1.519-3.538-2.355-5.686-2.355s-4.168 0.837-5.686 2.355-2.355 3.538-2.355 5.686c0 2.148 0.837 4.168 2.355 5.686s3.538 2.355 5.686 2.355c2.148 0 4.168-0.837 5.686-2.355s2.355-3.538 2.355-5.686c-0-2.148-0.837-4.168-2.355-5.686zM24.917 16.527c-1.208 1.208-2.814 1.873-4.522 1.873s-3.314-0.665-4.522-1.873c-1.208-1.208-1.873-2.814-1.873-4.522s0.665-3.314 1.873-4.522c1.208-1.208 2.814-1.873 4.522-1.873s3.314 0.665 4.522 1.873c1.208 1.208 1.873 2.814 1.873 4.522s-0.665 3.314-1.873 4.522zM22.878 11.182h-1.659v-1.659c0-0.455-0.369-0.823-0.823-0.823s-0.823 0.369-0.823 0.823v1.659h-1.659c-0.455 0-0.823 0.369-0.823 0.823s0.369 0.823 0.823 0.823h1.659v1.659c0 0.455 0.369 0.823 0.823 0.823s0.823-0.369 0.823-0.823v-1.659h1.659c0.455 0 0.823-0.369 0.823-0.823s-0.369-0.823-0.823-0.823z"></path>
</svg>
