<!-- Generated by IcoMoon.io -->
<svg version="1.1" xmlns="http://www.w3.org/2000/svg" width="32" height="32" viewBox="0 0 32 32">
<path d="M28.605 3.795c-2.189-2.189-5.1-3.395-8.196-3.395s-6.007 1.206-8.196 3.395c-2.189 2.189-3.395 5.1-3.395 8.196 0 2.84 1.015 5.524 2.873 7.638l-1.474 1.474-1.459-1.459c-0.143-0.143-0.338-0.224-0.54-0.224s-0.397 0.081-0.54 0.224l-6.627 6.627c-1.4 1.4-1.4 3.678 0 5.078 0.7 0.7 1.62 1.050 2.539 1.050s1.839-0.35 2.539-1.050l6.627-6.627c0.298-0.298 0.298-0.782 0-1.081l-1.459-1.459 1.474-1.474c2.114 1.858 4.798 2.873 7.638 2.873 3.096 0 6.007-1.206 8.196-3.395s3.395-5.1 3.395-8.196-1.206-6.007-3.395-8.196zM5.048 30.269c-0.804 0.804-2.113 0.804-2.917 0s-0.804-2.113 0-2.917l3.742-3.742 2.917 2.917-3.742 3.742zM9.87 25.446l-2.917-2.917 1.264-1.264 2.917 2.917-1.264 1.264zM27.524 19.107c-1.901 1.901-4.428 2.947-7.116 2.947s-5.215-1.047-7.116-2.947c-1.901-1.901-2.947-4.428-2.947-7.116s1.047-5.215 2.947-7.116c1.901-1.901 4.428-2.947 7.116-2.947s5.215 1.047 7.116 2.947c3.924 3.924 3.924 10.308 0 14.232zM26.072 6.328c-3.123-3.123-8.204-3.123-11.327 0-1.513 1.513-2.346 3.524-2.346 5.663s0.833 4.151 2.346 5.663c1.561 1.561 3.612 2.342 5.663 2.342s4.102-0.781 5.663-2.342c1.513-1.513 2.346-3.524 2.346-5.663s-0.833-4.151-2.346-5.663zM24.991 16.574c-2.527 2.527-6.639 2.527-9.166 0-1.224-1.224-1.898-2.852-1.898-4.583s0.674-3.359 1.898-4.583c1.264-1.263 2.923-1.895 4.583-1.895s3.319 0.632 4.583 1.895c1.224 1.224 1.898 2.852 1.898 4.583s-0.674 3.359-1.898 4.583zM22.9 11.227h-4.984c-0.422 0-0.764 0.342-0.764 0.764s0.342 0.764 0.764 0.764h4.984c0.422 0 0.764-0.342 0.764-0.764s-0.342-0.764-0.764-0.764z"></path>
</svg>
